<?xml version="1.0" encoding="UTF-8" standalone="no"?><svg xmlns="http://www.w3.org/2000/svg" xmlns:xlink="http://www.w3.org/1999/xlink" contentScriptType="application/ecmascript" contentStyleType="text/css" height="283px" preserveAspectRatio="none" style="width:1244px;height:283px;" version="1.1" viewBox="0 0 1244 283" width="1244px" zoomAndPan="magnify"><defs><filter height="300%" id="f1r57ppc4qzyv4" width="300%" x="-1" y="-1"><feGaussianBlur result="blurOut" stdDeviation="2.0"/><feColorMatrix in="blurOut" result="blurOut2" type="matrix" values="0 0 0 0 0 0 0 0 0 0 0 0 0 0 0 0 0 0 .4 0"/><feOffset dx="4.0" dy="4.0" in="blurOut2" result="blurOut3"/><feBlend in="SourceGraphic" in2="blurOut3" mode="normal"/></filter></defs><g><!--class Variable--><rect fill="#FEFECE" filter="url(#f1r57ppc4qzyv4)" height="48" id="Variable" style="stroke: #A80036; stroke-width: 1.5;" width="77" x="111.5" y="116"/><ellipse cx="126.5" cy="132" fill="#ADD1B2" rx="11" ry="11" style="stroke: #A80036; stroke-width: 1.0;"/><path d="M129.2656,127.875 Q129.4219,127.6563 129.6094,127.5469 Q129.7969,127.4375 130.0156,127.4375 Q130.3906,127.4375 130.625,127.6953 Q130.8594,127.9531 130.8594,128.5625 L130.8594,130.0156 Q130.8594,130.625 130.625,130.8906 Q130.3906,131.1563 130.0156,131.1563 Q129.6719,131.1563 129.4688,130.9531 Q129.2656,130.7656 129.1563,130.25 Q129.1094,129.8906 128.9219,129.7031 Q128.5938,129.3281 127.9844,129.1094 Q127.375,128.8906 126.75,128.8906 Q125.9844,128.8906 125.3516,129.2188 Q124.7188,129.5469 124.2266,130.2969 Q123.7344,131.0469 123.7344,132.0781 L123.7344,133.1719 Q123.7344,134.4063 124.625,135.2266 Q125.5156,136.0469 127.1094,136.0469 Q128.0469,136.0469 128.7031,135.7969 Q129.0938,135.6406 129.5156,135.2031 Q129.7813,134.9375 129.9297,134.8594 Q130.0781,134.7813 130.2813,134.7813 Q130.6094,134.7813 130.8672,135.0391 Q131.125,135.2969 131.125,135.6406 Q131.125,135.9844 130.7813,136.3906 Q130.2813,136.9688 129.4844,137.2969 Q128.4063,137.75 127.1094,137.75 Q125.5938,137.75 124.3906,137.125 Q123.4063,136.625 122.7188,135.5547 Q122.0313,134.4844 122.0313,133.2031 L122.0313,132.0469 Q122.0313,130.7188 122.6484,129.5703 Q123.2656,128.4219 124.3594,127.8047 Q125.4531,127.1875 126.6875,127.1875 Q127.4219,127.1875 128.0703,127.3516 Q128.7188,127.5156 129.2656,127.875 Z "/><text fill="#000000" font-family="sans-serif" font-size="12" lengthAdjust="spacingAndGlyphs" textLength="45" x="140.5" y="136.9102">Variable</text><line style="stroke: #A80036; stroke-width: 1.5;" x1="112.5" x2="187.5" y1="148" y2="148"/><line style="stroke: #A80036; stroke-width: 1.5;" x1="112.5" x2="187.5" y1="156" y2="156"/><!--class Tiempo--><rect fill="#FEFECE" filter="url(#f1r57ppc4qzyv4)" height="48" id="Tiempo" style="stroke: #A80036; stroke-width: 1.5;" width="74" x="6" y="224"/><ellipse cx="21" cy="240" fill="#ADD1B2" rx="11" ry="11" style="stroke: #A80036; stroke-width: 1.0;"/><path d="M23.7656,235.875 Q23.9219,235.6563 24.1094,235.5469 Q24.2969,235.4375 24.5156,235.4375 Q24.8906,235.4375 25.125,235.6953 Q25.3594,235.9531 25.3594,236.5625 L25.3594,238.0156 Q25.3594,238.625 25.125,238.8906 Q24.8906,239.1563 24.5156,239.1563 Q24.1719,239.1563 23.9688,238.9531 Q23.7656,238.7656 23.6563,238.25 Q23.6094,237.8906 23.4219,237.7031 Q23.0938,237.3281 22.4844,237.1094 Q21.875,236.8906 21.25,236.8906 Q20.4844,236.8906 19.8516,237.2188 Q19.2188,237.5469 18.7266,238.2969 Q18.2344,239.0469 18.2344,240.0781 L18.2344,241.1719 Q18.2344,242.4063 19.125,243.2266 Q20.0156,244.0469 21.6094,244.0469 Q22.5469,244.0469 23.2031,243.7969 Q23.5938,243.6406 24.0156,243.2031 Q24.2813,242.9375 24.4297,242.8594 Q24.5781,242.7813 24.7813,242.7813 Q25.1094,242.7813 25.3672,243.0391 Q25.625,243.2969 25.625,243.6406 Q25.625,243.9844 25.2813,244.3906 Q24.7813,244.9688 23.9844,245.2969 Q22.9063,245.75 21.6094,245.75 Q20.0938,245.75 18.8906,245.125 Q17.9063,244.625 17.2188,243.5547 Q16.5313,242.4844 16.5313,241.2031 L16.5313,240.0469 Q16.5313,238.7188 17.1484,237.5703 Q17.7656,236.4219 18.8594,235.8047 Q19.9531,235.1875 21.1875,235.1875 Q21.9219,235.1875 22.5703,235.3516 Q23.2188,235.5156 23.7656,235.875 Z "/><text fill="#000000" font-family="sans-serif" font-size="12" lengthAdjust="spacingAndGlyphs" textLength="42" x="35" y="244.9102">Tiempo</text><line style="stroke: #A80036; stroke-width: 1.5;" x1="7" x2="79" y1="256" y2="256"/><line style="stroke: #A80036; stroke-width: 1.5;" x1="7" x2="79" y1="264" y2="264"/><!--class Ambito--><rect fill="#FEFECE" filter="url(#f1r57ppc4qzyv4)" height="48" id="Ambito" style="stroke: #A80036; stroke-width: 1.5;" width="70" x="115" y="224"/><ellipse cx="130" cy="240" fill="#ADD1B2" rx="11" ry="11" style="stroke: #A80036; stroke-width: 1.0;"/><path d="M132.7656,235.875 Q132.9219,235.6563 133.1094,235.5469 Q133.2969,235.4375 133.5156,235.4375 Q133.8906,235.4375 134.125,235.6953 Q134.3594,235.9531 134.3594,236.5625 L134.3594,238.0156 Q134.3594,238.625 134.125,238.8906 Q133.8906,239.1563 133.5156,239.1563 Q133.1719,239.1563 132.9688,238.9531 Q132.7656,238.7656 132.6563,238.25 Q132.6094,237.8906 132.4219,237.7031 Q132.0938,237.3281 131.4844,237.1094 Q130.875,236.8906 130.25,236.8906 Q129.4844,236.8906 128.8516,237.2188 Q128.2188,237.5469 127.7266,238.2969 Q127.2344,239.0469 127.2344,240.0781 L127.2344,241.1719 Q127.2344,242.4063 128.125,243.2266 Q129.0156,244.0469 130.6094,244.0469 Q131.5469,244.0469 132.2031,243.7969 Q132.5938,243.6406 133.0156,243.2031 Q133.2813,242.9375 133.4297,242.8594 Q133.5781,242.7813 133.7813,242.7813 Q134.1094,242.7813 134.3672,243.0391 Q134.625,243.2969 134.625,243.6406 Q134.625,243.9844 134.2813,244.3906 Q133.7813,244.9688 132.9844,245.2969 Q131.9063,245.75 130.6094,245.75 Q129.0938,245.75 127.8906,245.125 Q126.9063,244.625 126.2188,243.5547 Q125.5313,242.4844 125.5313,241.2031 L125.5313,240.0469 Q125.5313,238.7188 126.1484,237.5703 Q126.7656,236.4219 127.8594,235.8047 Q128.9531,235.1875 130.1875,235.1875 Q130.9219,235.1875 131.5703,235.3516 Q132.2188,235.5156 132.7656,235.875 Z "/><text fill="#000000" font-family="sans-serif" font-size="12" lengthAdjust="spacingAndGlyphs" textLength="38" x="144" y="244.9102">Ambito</text><line style="stroke: #A80036; stroke-width: 1.5;" x1="116" x2="184" y1="256" y2="256"/><line style="stroke: #A80036; stroke-width: 1.5;" x1="116" x2="184" y1="264" y2="264"/><!--class Coste--><rect fill="#FEFECE" filter="url(#f1r57ppc4qzyv4)" height="48" id="Coste" style="stroke: #A80036; stroke-width: 1.5;" width="65" x="220.5" y="224"/><ellipse cx="235.5" cy="240" fill="#ADD1B2" rx="11" ry="11" style="stroke: #A80036; stroke-width: 1.0;"/><path d="M238.2656,235.875 Q238.4219,235.6563 238.6094,235.5469 Q238.7969,235.4375 239.0156,235.4375 Q239.3906,235.4375 239.625,235.6953 Q239.8594,235.9531 239.8594,236.5625 L239.8594,238.0156 Q239.8594,238.625 239.625,238.8906 Q239.3906,239.1563 239.0156,239.1563 Q238.6719,239.1563 238.4688,238.9531 Q238.2656,238.7656 238.1563,238.25 Q238.1094,237.8906 237.9219,237.7031 Q237.5938,237.3281 236.9844,237.1094 Q236.375,236.8906 235.75,236.8906 Q234.9844,236.8906 234.3516,237.2188 Q233.7188,237.5469 233.2266,238.2969 Q232.7344,239.0469 232.7344,240.0781 L232.7344,241.1719 Q232.7344,242.4063 233.625,243.2266 Q234.5156,244.0469 236.1094,244.0469 Q237.0469,244.0469 237.7031,243.7969 Q238.0938,243.6406 238.5156,243.2031 Q238.7813,242.9375 238.9297,242.8594 Q239.0781,242.7813 239.2813,242.7813 Q239.6094,242.7813 239.8672,243.0391 Q240.125,243.2969 240.125,243.6406 Q240.125,243.9844 239.7813,244.3906 Q239.2813,244.9688 238.4844,245.2969 Q237.4063,245.75 236.1094,245.75 Q234.5938,245.75 233.3906,245.125 Q232.4063,244.625 231.7188,243.5547 Q231.0313,242.4844 231.0313,241.2031 L231.0313,240.0469 Q231.0313,238.7188 231.6484,237.5703 Q232.2656,236.4219 233.3594,235.8047 Q234.4531,235.1875 235.6875,235.1875 Q236.4219,235.1875 237.0703,235.3516 Q237.7188,235.5156 238.2656,235.875 Z "/><text fill="#000000" font-family="sans-serif" font-size="12" lengthAdjust="spacingAndGlyphs" textLength="33" x="249.5" y="244.9102">Coste</text><line style="stroke: #A80036; stroke-width: 1.5;" x1="221.5" x2="284.5" y1="256" y2="256"/><line style="stroke: #A80036; stroke-width: 1.5;" x1="221.5" x2="284.5" y1="264" y2="264"/><!--class Proyecto--><rect fill="#FEFECE" filter="url(#f1r57ppc4qzyv4)" height="48" id="Proyecto" style="stroke: #A80036; stroke-width: 1.5;" width="79" x="110.5" y="8"/><ellipse cx="125.5" cy="24" fill="#ADD1B2" rx="11" ry="11" style="stroke: #A80036; stroke-width: 1.0;"/><path d="M128.2656,19.875 Q128.4219,19.6563 128.6094,19.5469 Q128.7969,19.4375 129.0156,19.4375 Q129.3906,19.4375 129.625,19.6953 Q129.8594,19.9531 129.8594,20.5625 L129.8594,22.0156 Q129.8594,22.625 129.625,22.8906 Q129.3906,23.1563 129.0156,23.1563 Q128.6719,23.1563 128.4688,22.9531 Q128.2656,22.7656 128.1563,22.25 Q128.1094,21.8906 127.9219,21.7031 Q127.5938,21.3281 126.9844,21.1094 Q126.375,20.8906 125.75,20.8906 Q124.9844,20.8906 124.3516,21.2188 Q123.7188,21.5469 123.2266,22.2969 Q122.7344,23.0469 122.7344,24.0781 L122.7344,25.1719 Q122.7344,26.4063 123.625,27.2266 Q124.5156,28.0469 126.1094,28.0469 Q127.0469,28.0469 127.7031,27.7969 Q128.0938,27.6406 128.5156,27.2031 Q128.7813,26.9375 128.9297,26.8594 Q129.0781,26.7813 129.2813,26.7813 Q129.6094,26.7813 129.8672,27.0391 Q130.125,27.2969 130.125,27.6406 Q130.125,27.9844 129.7813,28.3906 Q129.2813,28.9688 128.4844,29.2969 Q127.4063,29.75 126.1094,29.75 Q124.5938,29.75 123.3906,29.125 Q122.4063,28.625 121.7188,27.5547 Q121.0313,26.4844 121.0313,25.2031 L121.0313,24.0469 Q121.0313,22.7188 121.6484,21.5703 Q122.2656,20.4219 123.3594,19.8047 Q124.4531,19.1875 125.6875,19.1875 Q126.4219,19.1875 127.0703,19.3516 Q127.7188,19.5156 128.2656,19.875 Z "/><text fill="#000000" font-family="sans-serif" font-size="12" lengthAdjust="spacingAndGlyphs" textLength="47" x="139.5" y="28.9102">Proyecto</text><line style="stroke: #A80036; stroke-width: 1.5;" x1="111.5" x2="188.5" y1="40" y2="40"/><line style="stroke: #A80036; stroke-width: 1.5;" x1="111.5" x2="188.5" y1="48" y2="48"/><!--class TiempoPlanificado--><rect fill="#FEFECE" filter="url(#f1r57ppc4qzyv4)" height="48" id="TiempoPlanificado" style="stroke: #A80036; stroke-width: 1.5;" width="135" x="224.5" y="8"/><ellipse cx="239.5" cy="24" fill="#ADD1B2" rx="11" ry="11" style="stroke: #A80036; stroke-width: 1.0;"/><path d="M242.2656,19.875 Q242.4219,19.6563 242.6094,19.5469 Q242.7969,19.4375 243.0156,19.4375 Q243.3906,19.4375 243.625,19.6953 Q243.8594,19.9531 243.8594,20.5625 L243.8594,22.0156 Q243.8594,22.625 243.625,22.8906 Q243.3906,23.1563 243.0156,23.1563 Q242.6719,23.1563 242.4688,22.9531 Q242.2656,22.7656 242.1563,22.25 Q242.1094,21.8906 241.9219,21.7031 Q241.5938,21.3281 240.9844,21.1094 Q240.375,20.8906 239.75,20.8906 Q238.9844,20.8906 238.3516,21.2188 Q237.7188,21.5469 237.2266,22.2969 Q236.7344,23.0469 236.7344,24.0781 L236.7344,25.1719 Q236.7344,26.4063 237.625,27.2266 Q238.5156,28.0469 240.1094,28.0469 Q241.0469,28.0469 241.7031,27.7969 Q242.0938,27.6406 242.5156,27.2031 Q242.7813,26.9375 242.9297,26.8594 Q243.0781,26.7813 243.2813,26.7813 Q243.6094,26.7813 243.8672,27.0391 Q244.125,27.2969 244.125,27.6406 Q244.125,27.9844 243.7813,28.3906 Q243.2813,28.9688 242.4844,29.2969 Q241.4063,29.75 240.1094,29.75 Q238.5938,29.75 237.3906,29.125 Q236.4063,28.625 235.7188,27.5547 Q235.0313,26.4844 235.0313,25.2031 L235.0313,24.0469 Q235.0313,22.7188 235.6484,21.5703 Q236.2656,20.4219 237.3594,19.8047 Q238.4531,19.1875 239.6875,19.1875 Q240.4219,19.1875 241.0703,19.3516 Q241.7188,19.5156 242.2656,19.875 Z "/><text fill="#000000" font-family="sans-serif" font-size="12" lengthAdjust="spacingAndGlyphs" textLength="103" x="253.5" y="28.9102">TiempoPlanificado</text><line style="stroke: #A80036; stroke-width: 1.5;" x1="225.5" x2="358.5" y1="40" y2="40"/><line style="stroke: #A80036; stroke-width: 1.5;" x1="225.5" x2="358.5" y1="48" y2="48"/><!--class ProyectoPlanificado--><rect fill="#FEFECE" filter="url(#f1r57ppc4qzyv4)" height="48" id="ProyectoPlanificado" style="stroke: #A80036; stroke-width: 1.5;" width="140" x="390" y="116"/><ellipse cx="405" cy="132" fill="#ADD1B2" rx="11" ry="11" style="stroke: #A80036; stroke-width: 1.0;"/><path d="M407.7656,127.875 Q407.9219,127.6563 408.1094,127.5469 Q408.2969,127.4375 408.5156,127.4375 Q408.8906,127.4375 409.125,127.6953 Q409.3594,127.9531 409.3594,128.5625 L409.3594,130.0156 Q409.3594,130.625 409.125,130.8906 Q408.8906,131.1563 408.5156,131.1563 Q408.1719,131.1563 407.9688,130.9531 Q407.7656,130.7656 407.6563,130.25 Q407.6094,129.8906 407.4219,129.7031 Q407.0938,129.3281 406.4844,129.1094 Q405.875,128.8906 405.25,128.8906 Q404.4844,128.8906 403.8516,129.2188 Q403.2188,129.5469 402.7266,130.2969 Q402.2344,131.0469 402.2344,132.0781 L402.2344,133.1719 Q402.2344,134.4063 403.125,135.2266 Q404.0156,136.0469 405.6094,136.0469 Q406.5469,136.0469 407.2031,135.7969 Q407.5938,135.6406 408.0156,135.2031 Q408.2813,134.9375 408.4297,134.8594 Q408.5781,134.7813 408.7813,134.7813 Q409.1094,134.7813 409.3672,135.0391 Q409.625,135.2969 409.625,135.6406 Q409.625,135.9844 409.2813,136.3906 Q408.7813,136.9688 407.9844,137.2969 Q406.9063,137.75 405.6094,137.75 Q404.0938,137.75 402.8906,137.125 Q401.9063,136.625 401.2188,135.5547 Q400.5313,134.4844 400.5313,133.2031 L400.5313,132.0469 Q400.5313,130.7188 401.1484,129.5703 Q401.7656,128.4219 402.8594,127.8047 Q403.9531,127.1875 405.1875,127.1875 Q405.9219,127.1875 406.5703,127.3516 Q407.2188,127.5156 407.7656,127.875 Z "/><text fill="#000000" font-family="sans-serif" font-size="12" lengthAdjust="spacingAndGlyphs" textLength="108" x="419" y="136.9102">ProyectoPlanificado</text><line style="stroke: #A80036; stroke-width: 1.5;" x1="391" x2="529" y1="148" y2="148"/><line style="stroke: #A80036; stroke-width: 1.5;" x1="391" x2="529" y1="156" y2="156"/><!--class TiempoNoPlanificado--><rect fill="#FEFECE" filter="url(#f1r57ppc4qzyv4)" height="48" id="TiempoNoPlanificado" style="stroke: #A80036; stroke-width: 1.5;" width="151" x="722.5" y="8"/><ellipse cx="737.5" cy="24" fill="#ADD1B2" rx="11" ry="11" style="stroke: #A80036; stroke-width: 1.0;"/><path d="M740.2656,19.875 Q740.4219,19.6563 740.6094,19.5469 Q740.7969,19.4375 741.0156,19.4375 Q741.3906,19.4375 741.625,19.6953 Q741.8594,19.9531 741.8594,20.5625 L741.8594,22.0156 Q741.8594,22.625 741.625,22.8906 Q741.3906,23.1563 741.0156,23.1563 Q740.6719,23.1563 740.4688,22.9531 Q740.2656,22.7656 740.1563,22.25 Q740.1094,21.8906 739.9219,21.7031 Q739.5938,21.3281 738.9844,21.1094 Q738.375,20.8906 737.75,20.8906 Q736.9844,20.8906 736.3516,21.2188 Q735.7188,21.5469 735.2266,22.2969 Q734.7344,23.0469 734.7344,24.0781 L734.7344,25.1719 Q734.7344,26.4063 735.625,27.2266 Q736.5156,28.0469 738.1094,28.0469 Q739.0469,28.0469 739.7031,27.7969 Q740.0938,27.6406 740.5156,27.2031 Q740.7813,26.9375 740.9297,26.8594 Q741.0781,26.7813 741.2813,26.7813 Q741.6094,26.7813 741.8672,27.0391 Q742.125,27.2969 742.125,27.6406 Q742.125,27.9844 741.7813,28.3906 Q741.2813,28.9688 740.4844,29.2969 Q739.4063,29.75 738.1094,29.75 Q736.5938,29.75 735.3906,29.125 Q734.4063,28.625 733.7188,27.5547 Q733.0313,26.4844 733.0313,25.2031 L733.0313,24.0469 Q733.0313,22.7188 733.6484,21.5703 Q734.2656,20.4219 735.3594,19.8047 Q736.4531,19.1875 737.6875,19.1875 Q738.4219,19.1875 739.0703,19.3516 Q739.7188,19.5156 740.2656,19.875 Z "/><text fill="#000000" font-family="sans-serif" font-size="12" lengthAdjust="spacingAndGlyphs" textLength="119" x="751.5" y="28.9102">TiempoNoPlanificado</text><line style="stroke: #A80036; stroke-width: 1.5;" x1="723.5" x2="872.5" y1="40" y2="40"/><line style="stroke: #A80036; stroke-width: 1.5;" x1="723.5" x2="872.5" y1="48" y2="48"/><!--class ProyectoNoPlanificado--><rect fill="#FEFECE" filter="url(#f1r57ppc4qzyv4)" height="48" id="ProyectoNoPlanificado" style="stroke: #A80036; stroke-width: 1.5;" width="156" x="904" y="116"/><ellipse cx="919" cy="132" fill="#ADD1B2" rx="11" ry="11" style="stroke: #A80036; stroke-width: 1.0;"/><path d="M921.7656,127.875 Q921.9219,127.6563 922.1094,127.5469 Q922.2969,127.4375 922.5156,127.4375 Q922.8906,127.4375 923.125,127.6953 Q923.3594,127.9531 923.3594,128.5625 L923.3594,130.0156 Q923.3594,130.625 923.125,130.8906 Q922.8906,131.1563 922.5156,131.1563 Q922.1719,131.1563 921.9688,130.9531 Q921.7656,130.7656 921.6563,130.25 Q921.6094,129.8906 921.4219,129.7031 Q921.0938,129.3281 920.4844,129.1094 Q919.875,128.8906 919.25,128.8906 Q918.4844,128.8906 917.8516,129.2188 Q917.2188,129.5469 916.7266,130.2969 Q916.2344,131.0469 916.2344,132.0781 L916.2344,133.1719 Q916.2344,134.4063 917.125,135.2266 Q918.0156,136.0469 919.6094,136.0469 Q920.5469,136.0469 921.2031,135.7969 Q921.5938,135.6406 922.0156,135.2031 Q922.2813,134.9375 922.4297,134.8594 Q922.5781,134.7813 922.7813,134.7813 Q923.1094,134.7813 923.3672,135.0391 Q923.625,135.2969 923.625,135.6406 Q923.625,135.9844 923.2813,136.3906 Q922.7813,136.9688 921.9844,137.2969 Q920.9063,137.75 919.6094,137.75 Q918.0938,137.75 916.8906,137.125 Q915.9063,136.625 915.2188,135.5547 Q914.5313,134.4844 914.5313,133.2031 L914.5313,132.0469 Q914.5313,130.7188 915.1484,129.5703 Q915.7656,128.4219 916.8594,127.8047 Q917.9531,127.1875 919.1875,127.1875 Q919.9219,127.1875 920.5703,127.3516 Q921.2188,127.5156 921.7656,127.875 Z "/><text fill="#000000" font-family="sans-serif" font-size="12" lengthAdjust="spacingAndGlyphs" textLength="124" x="933" y="136.9102">ProyectoNoPlanificado</text><line style="stroke: #A80036; stroke-width: 1.5;" x1="905" x2="1059" y1="148" y2="148"/><line style="stroke: #A80036; stroke-width: 1.5;" x1="905" x2="1059" y1="156" y2="156"/><!--class AmbitoPlanificado--><rect fill="#FEFECE" filter="url(#f1r57ppc4qzyv4)" height="48" id="AmbitoPlanificado" style="stroke: #A80036; stroke-width: 1.5;" width="131" x="394.5" y="8"/><ellipse cx="409.5" cy="24" fill="#ADD1B2" rx="11" ry="11" style="stroke: #A80036; stroke-width: 1.0;"/><path d="M412.2656,19.875 Q412.4219,19.6563 412.6094,19.5469 Q412.7969,19.4375 413.0156,19.4375 Q413.3906,19.4375 413.625,19.6953 Q413.8594,19.9531 413.8594,20.5625 L413.8594,22.0156 Q413.8594,22.625 413.625,22.8906 Q413.3906,23.1563 413.0156,23.1563 Q412.6719,23.1563 412.4688,22.9531 Q412.2656,22.7656 412.1563,22.25 Q412.1094,21.8906 411.9219,21.7031 Q411.5938,21.3281 410.9844,21.1094 Q410.375,20.8906 409.75,20.8906 Q408.9844,20.8906 408.3516,21.2188 Q407.7188,21.5469 407.2266,22.2969 Q406.7344,23.0469 406.7344,24.0781 L406.7344,25.1719 Q406.7344,26.4063 407.625,27.2266 Q408.5156,28.0469 410.1094,28.0469 Q411.0469,28.0469 411.7031,27.7969 Q412.0938,27.6406 412.5156,27.2031 Q412.7813,26.9375 412.9297,26.8594 Q413.0781,26.7813 413.2813,26.7813 Q413.6094,26.7813 413.8672,27.0391 Q414.125,27.2969 414.125,27.6406 Q414.125,27.9844 413.7813,28.3906 Q413.2813,28.9688 412.4844,29.2969 Q411.4063,29.75 410.1094,29.75 Q408.5938,29.75 407.3906,29.125 Q406.4063,28.625 405.7188,27.5547 Q405.0313,26.4844 405.0313,25.2031 L405.0313,24.0469 Q405.0313,22.7188 405.6484,21.5703 Q406.2656,20.4219 407.3594,19.8047 Q408.4531,19.1875 409.6875,19.1875 Q410.4219,19.1875 411.0703,19.3516 Q411.7188,19.5156 412.2656,19.875 Z "/><text fill="#000000" font-family="sans-serif" font-size="12" lengthAdjust="spacingAndGlyphs" textLength="99" x="423.5" y="28.9102">AmbitoPlanificado</text><line style="stroke: #A80036; stroke-width: 1.5;" x1="395.5" x2="524.5" y1="40" y2="40"/><line style="stroke: #A80036; stroke-width: 1.5;" x1="395.5" x2="524.5" y1="48" y2="48"/><!--class AmbitoNoPlanificado--><rect fill="#FEFECE" filter="url(#f1r57ppc4qzyv4)" height="48" id="AmbitoNoPlanificado" style="stroke: #A80036; stroke-width: 1.5;" width="147" x="908.5" y="8"/><ellipse cx="923.5" cy="24" fill="#ADD1B2" rx="11" ry="11" style="stroke: #A80036; stroke-width: 1.0;"/><path d="M926.2656,19.875 Q926.4219,19.6563 926.6094,19.5469 Q926.7969,19.4375 927.0156,19.4375 Q927.3906,19.4375 927.625,19.6953 Q927.8594,19.9531 927.8594,20.5625 L927.8594,22.0156 Q927.8594,22.625 927.625,22.8906 Q927.3906,23.1563 927.0156,23.1563 Q926.6719,23.1563 926.4688,22.9531 Q926.2656,22.7656 926.1563,22.25 Q926.1094,21.8906 925.9219,21.7031 Q925.5938,21.3281 924.9844,21.1094 Q924.375,20.8906 923.75,20.8906 Q922.9844,20.8906 922.3516,21.2188 Q921.7188,21.5469 921.2266,22.2969 Q920.7344,23.0469 920.7344,24.0781 L920.7344,25.1719 Q920.7344,26.4063 921.625,27.2266 Q922.5156,28.0469 924.1094,28.0469 Q925.0469,28.0469 925.7031,27.7969 Q926.0938,27.6406 926.5156,27.2031 Q926.7813,26.9375 926.9297,26.8594 Q927.0781,26.7813 927.2813,26.7813 Q927.6094,26.7813 927.8672,27.0391 Q928.125,27.2969 928.125,27.6406 Q928.125,27.9844 927.7813,28.3906 Q927.2813,28.9688 926.4844,29.2969 Q925.4063,29.75 924.1094,29.75 Q922.5938,29.75 921.3906,29.125 Q920.4063,28.625 919.7188,27.5547 Q919.0313,26.4844 919.0313,25.2031 L919.0313,24.0469 Q919.0313,22.7188 919.6484,21.5703 Q920.2656,20.4219 921.3594,19.8047 Q922.4531,19.1875 923.6875,19.1875 Q924.4219,19.1875 925.0703,19.3516 Q925.7188,19.5156 926.2656,19.875 Z "/><text fill="#000000" font-family="sans-serif" font-size="12" lengthAdjust="spacingAndGlyphs" textLength="115" x="937.5" y="28.9102">AmbitoNoPlanificado</text><line style="stroke: #A80036; stroke-width: 1.5;" x1="909.5" x2="1054.5" y1="40" y2="40"/><line style="stroke: #A80036; stroke-width: 1.5;" x1="909.5" x2="1054.5" y1="48" y2="48"/><!--class CostePlanificado--><rect fill="#FEFECE" filter="url(#f1r57ppc4qzyv4)" height="48" id="CostePlanificado" style="stroke: #A80036; stroke-width: 1.5;" width="126" x="561" y="8"/><ellipse cx="576" cy="24" fill="#ADD1B2" rx="11" ry="11" style="stroke: #A80036; stroke-width: 1.0;"/><path d="M578.7656,19.875 Q578.9219,19.6563 579.1094,19.5469 Q579.2969,19.4375 579.5156,19.4375 Q579.8906,19.4375 580.125,19.6953 Q580.3594,19.9531 580.3594,20.5625 L580.3594,22.0156 Q580.3594,22.625 580.125,22.8906 Q579.8906,23.1563 579.5156,23.1563 Q579.1719,23.1563 578.9688,22.9531 Q578.7656,22.7656 578.6563,22.25 Q578.6094,21.8906 578.4219,21.7031 Q578.0938,21.3281 577.4844,21.1094 Q576.875,20.8906 576.25,20.8906 Q575.4844,20.8906 574.8516,21.2188 Q574.2188,21.5469 573.7266,22.2969 Q573.2344,23.0469 573.2344,24.0781 L573.2344,25.1719 Q573.2344,26.4063 574.125,27.2266 Q575.0156,28.0469 576.6094,28.0469 Q577.5469,28.0469 578.2031,27.7969 Q578.5938,27.6406 579.0156,27.2031 Q579.2813,26.9375 579.4297,26.8594 Q579.5781,26.7813 579.7813,26.7813 Q580.1094,26.7813 580.3672,27.0391 Q580.625,27.2969 580.625,27.6406 Q580.625,27.9844 580.2813,28.3906 Q579.7813,28.9688 578.9844,29.2969 Q577.9063,29.75 576.6094,29.75 Q575.0938,29.75 573.8906,29.125 Q572.9063,28.625 572.2188,27.5547 Q571.5313,26.4844 571.5313,25.2031 L571.5313,24.0469 Q571.5313,22.7188 572.1484,21.5703 Q572.7656,20.4219 573.8594,19.8047 Q574.9531,19.1875 576.1875,19.1875 Q576.9219,19.1875 577.5703,19.3516 Q578.2188,19.5156 578.7656,19.875 Z "/><text fill="#000000" font-family="sans-serif" font-size="12" lengthAdjust="spacingAndGlyphs" textLength="94" x="590" y="28.9102">CostePlanificado</text><line style="stroke: #A80036; stroke-width: 1.5;" x1="562" x2="686" y1="40" y2="40"/><line style="stroke: #A80036; stroke-width: 1.5;" x1="562" x2="686" y1="48" y2="48"/><!--class CosteNoPlanificado--><rect fill="#FEFECE" filter="url(#f1r57ppc4qzyv4)" height="48" id="CosteNoPlanificado" style="stroke: #A80036; stroke-width: 1.5;" width="142" x="1091" y="8"/><ellipse cx="1106" cy="24" fill="#ADD1B2" rx="11" ry="11" style="stroke: #A80036; stroke-width: 1.0;"/><path d="M1108.7656,19.875 Q1108.9219,19.6563 1109.1094,19.5469 Q1109.2969,19.4375 1109.5156,19.4375 Q1109.8906,19.4375 1110.125,19.6953 Q1110.3594,19.9531 1110.3594,20.5625 L1110.3594,22.0156 Q1110.3594,22.625 1110.125,22.8906 Q1109.8906,23.1563 1109.5156,23.1563 Q1109.1719,23.1563 1108.9688,22.9531 Q1108.7656,22.7656 1108.6563,22.25 Q1108.6094,21.8906 1108.4219,21.7031 Q1108.0938,21.3281 1107.4844,21.1094 Q1106.875,20.8906 1106.25,20.8906 Q1105.4844,20.8906 1104.8516,21.2188 Q1104.2188,21.5469 1103.7266,22.2969 Q1103.2344,23.0469 1103.2344,24.0781 L1103.2344,25.1719 Q1103.2344,26.4063 1104.125,27.2266 Q1105.0156,28.0469 1106.6094,28.0469 Q1107.5469,28.0469 1108.2031,27.7969 Q1108.5938,27.6406 1109.0156,27.2031 Q1109.2813,26.9375 1109.4297,26.8594 Q1109.5781,26.7813 1109.7813,26.7813 Q1110.1094,26.7813 1110.3672,27.0391 Q1110.625,27.2969 1110.625,27.6406 Q1110.625,27.9844 1110.2813,28.3906 Q1109.7813,28.9688 1108.9844,29.2969 Q1107.9063,29.75 1106.6094,29.75 Q1105.0938,29.75 1103.8906,29.125 Q1102.9063,28.625 1102.2188,27.5547 Q1101.5313,26.4844 1101.5313,25.2031 L1101.5313,24.0469 Q1101.5313,22.7188 1102.1484,21.5703 Q1102.7656,20.4219 1103.8594,19.8047 Q1104.9531,19.1875 1106.1875,19.1875 Q1106.9219,19.1875 1107.5703,19.3516 Q1108.2188,19.5156 1108.7656,19.875 Z "/><text fill="#000000" font-family="sans-serif" font-size="12" lengthAdjust="spacingAndGlyphs" textLength="110" x="1120" y="28.9102">CosteNoPlanificado</text><line style="stroke: #A80036; stroke-width: 1.5;" x1="1092" x2="1232" y1="40" y2="40"/><line style="stroke: #A80036; stroke-width: 1.5;" x1="1092" x2="1232" y1="48" y2="48"/><!--link Variable to Tiempo--><path d="M112.368,178.2802 C97.1152,193.3905 79.9703,210.3752 66.5416,223.6784 " fill="none" id="Variable-Tiempo" style="stroke: #A80036; stroke-width: 1.0;"/><polygon fill="none" points="107.648,173.1031,126.783,164,117.501,183.049,107.648,173.1031" style="stroke: #A80036; stroke-width: 1.0;"/><!--link Variable to Ambito--><path d="M150,184.0236 C150,197.5792 150,212.0381 150,223.6784 " fill="none" id="Variable-Ambito" style="stroke: #A80036; stroke-width: 1.0;"/><polygon fill="none" points="143,184.0005,150,164,157,184.0004,143,184.0005" style="stroke: #A80036; stroke-width: 1.0;"/><!--link Variable to Coste--><path d="M186.685,178.753 C201.251,193.744 217.546,210.5138 230.338,223.6784 " fill="none" id="Variable-Coste" style="stroke: #A80036; stroke-width: 1.0;"/><polygon fill="none" points="181.267,183.2223,172.349,164,191.307,173.4659,181.267,183.2223" style="stroke: #A80036; stroke-width: 1.0;"/><!--link Proyecto to Variable--><path d="M150,69.338 C150,80.006 150,91.677 150,102.364 " fill="none" id="Proyecto-Variable" style="stroke: #A80036; stroke-width: 1.0;"/><polygon fill="#A80036" points="150,115.678,154,106.678,150,110.678,146,106.678,150,115.678" style="stroke: #A80036; stroke-width: 1.0;"/><line style="stroke: #A80036; stroke-width: 1.0;" x1="150" x2="150" y1="110.678" y2="102.678"/><polygon fill="#A80036" points="150,56,146,62,150,68,154,62,150,56" style="stroke: #A80036; stroke-width: 1.0;"/><!--link TiempoPlanificado to ProyectoPlanificado--><path d="M328.453,56 C355.11,72.819 391.292,95.649 418.963,113.107 " fill="none" id="TiempoPlanificado-ProyectoPlanificado" style="stroke: #A80036; stroke-width: 1.0;"/><polygon fill="#A80036" points="423.328,115.862,417.8517,107.6761,419.0996,113.1935,413.5821,114.4415,423.328,115.862" style="stroke: #A80036; stroke-width: 1.0;"/><!--link TiempoNoPlanificado to ProyectoNoPlanificado--><path d="M837.925,56 C867.241,72.889 907.075,95.837 937.428,113.323 " fill="none" id="TiempoNoPlanificado-ProyectoNoPlanificado" style="stroke: #A80036; stroke-width: 1.0;"/><polygon fill="#A80036" points="941.835,115.862,936.0327,107.9038,937.5023,113.3664,932.0397,114.836,941.835,115.862" style="stroke: #A80036; stroke-width: 1.0;"/><!--link AmbitoPlanificado to ProyectoPlanificado--><path d="M460,56 C460,72.003 460,93.446 460,110.528 " fill="none" id="AmbitoPlanificado-ProyectoPlanificado" style="stroke: #A80036; stroke-width: 1.0;"/><polygon fill="#A80036" points="460,115.678,464,106.678,460,110.678,456,106.678,460,115.678" style="stroke: #A80036; stroke-width: 1.0;"/><!--link AmbitoNoPlanificado to ProyectoNoPlanificado--><path d="M982,56 C982,72.003 982,93.446 982,110.528 " fill="none" id="AmbitoNoPlanificado-ProyectoNoPlanificado" style="stroke: #A80036; stroke-width: 1.0;"/><polygon fill="#A80036" points="982,115.678,986,106.678,982,110.678,978,106.678,982,115.678" style="stroke: #A80036; stroke-width: 1.0;"/><!--link CostePlanificado to ProyectoPlanificado--><path d="M588.414,56 C562.392,72.819 527.072,95.649 500.06,113.107 " fill="none" id="CostePlanificado-ProyectoPlanificado" style="stroke: #A80036; stroke-width: 1.0;"/><polygon fill="#A80036" points="495.799,115.862,505.5288,114.335,499.998,113.1475,501.1855,107.6167,495.799,115.862" style="stroke: #A80036; stroke-width: 1.0;"/><!--link CosteNoPlanificado to ProyectoNoPlanificado--><path d="M1122.94,56 C1094.26,72.889 1055.3,95.837 1025.6,113.323 " fill="none" id="CosteNoPlanificado-ProyectoNoPlanificado" style="stroke: #A80036; stroke-width: 1.0;"/><polygon fill="#A80036" points="1021.29,115.862,1031.0739,114.7324,1025.596,113.3207,1027.0077,107.8428,1021.29,115.862" style="stroke: #A80036; stroke-width: 1.0;"/><!--
@startuml

Variable <|-down- Tiempo
Variable <|-down- Ambito
Variable <|-down- Coste


Proyecto *-down-> Variable

TiempoPlanificado -down-> ProyectoPlanificado
TiempoNoPlanificado -down-> ProyectoNoPlanificado
AmbitoPlanificado -down-> ProyectoPlanificado
AmbitoNoPlanificado -down-> ProyectoNoPlanificado
CostePlanificado -down-> ProyectoPlanificado
CosteNoPlanificado -down-> ProyectoNoPlanificado

@enduml

PlantUML version 1.2019.05(Sat Apr 20 18:45:36 CEST 2019)
(GPL source distribution)
Java Runtime: Java(TM) SE Runtime Environment
JVM: Java HotSpot(TM) 64-Bit Server VM
Java Version: 1.8.0_211-b12
Operating System: Windows 10
OS Version: 10.0
Default Encoding: windows-1252
Language: es
Country: ES
--></g></svg>