<?xml version="1.0" encoding="UTF-8" standalone="no"?><svg xmlns="http://www.w3.org/2000/svg" xmlns:xlink="http://www.w3.org/1999/xlink" contentScriptType="application/ecmascript" contentStyleType="text/css" height="629px" preserveAspectRatio="none" style="width:619px;height:629px;" version="1.1" viewBox="0 0 619 629" width="619px" zoomAndPan="magnify"><defs><filter height="300%" id="f1wei3buw6wsv9" width="300%" x="-1" y="-1"><feGaussianBlur result="blurOut" stdDeviation="2.0"/><feColorMatrix in="blurOut" result="blurOut2" type="matrix" values="0 0 0 0 0 0 0 0 0 0 0 0 0 0 0 0 0 0 .4 0"/><feOffset dx="4.0" dy="4.0" in="blurOut2" result="blurOut3"/><feBlend in="SourceGraphic" in2="blurOut3" mode="normal"/></filter><linearGradient id="g1wei3buw6wsv90" x1="0%" x2="100%" y1="50%" y2="50%"><stop offset="0%" stop-color="#ADFF2F"/><stop offset="100%" stop-color="#008000"/></linearGradient><linearGradient id="g1wei3buw6wsv91" x1="0%" x2="100%" y1="50%" y2="50%"><stop offset="0%" stop-color="#6495ED"/><stop offset="100%" stop-color="#008000"/></linearGradient></defs><g><text fill="#000000" font-family="sans-serif" font-size="18" lengthAdjust="spacingAndGlyphs" textLength="483" x="71.5" y="18.6855">Producto Software efectivo por buena calidad/mantenibilidad</text><!--class ProductoSoftware--><rect fill="#ADFF2F" filter="url(#f1wei3buw6wsv9)" height="48" id="ProductoSoftware" style="stroke: #A80036; stroke-width: 1.5;" width="132" x="257" y="30.6406"/><rect fill="#ADFF2F" height="32" style="stroke: #A80036; stroke-width: 1.5;" width="132" x="257" y="30.6406"/><ellipse cx="272" cy="46.6406" fill="#ADD1B2" rx="11" ry="11" style="stroke: #A80036; stroke-width: 1.0;"/><path d="M274.7656,42.5156 Q274.9219,42.2969 275.1094,42.1875 Q275.2969,42.0781 275.5156,42.0781 Q275.8906,42.0781 276.125,42.3359 Q276.3594,42.5938 276.3594,43.2031 L276.3594,44.6563 Q276.3594,45.2656 276.125,45.5313 Q275.8906,45.7969 275.5156,45.7969 Q275.1719,45.7969 274.9688,45.5938 Q274.7656,45.4063 274.6563,44.8906 Q274.6094,44.5313 274.4219,44.3438 Q274.0938,43.9688 273.4844,43.75 Q272.875,43.5313 272.25,43.5313 Q271.4844,43.5313 270.8516,43.8594 Q270.2188,44.1875 269.7266,44.9375 Q269.2344,45.6875 269.2344,46.7188 L269.2344,47.8125 Q269.2344,49.0469 270.125,49.8672 Q271.0156,50.6875 272.6094,50.6875 Q273.5469,50.6875 274.2031,50.4375 Q274.5938,50.2813 275.0156,49.8438 Q275.2813,49.5781 275.4297,49.5 Q275.5781,49.4219 275.7813,49.4219 Q276.1094,49.4219 276.3672,49.6797 Q276.625,49.9375 276.625,50.2813 Q276.625,50.625 276.2813,51.0313 Q275.7813,51.6094 274.9844,51.9375 Q273.9063,52.3906 272.6094,52.3906 Q271.0938,52.3906 269.8906,51.7656 Q268.9063,51.2656 268.2188,50.1953 Q267.5313,49.125 267.5313,47.8438 L267.5313,46.6875 Q267.5313,45.3594 268.1484,44.2109 Q268.7656,43.0625 269.8594,42.4453 Q270.9531,41.8281 272.1875,41.8281 Q272.9219,41.8281 273.5703,41.9922 Q274.2188,42.1563 274.7656,42.5156 Z "/><text fill="#000000" font-family="sans-serif" font-size="12" lengthAdjust="spacingAndGlyphs" textLength="100" x="286" y="51.5508">Producto Software</text><line style="stroke: #A80036; stroke-width: 1.5;" x1="258" x2="388" y1="62.6406" y2="62.6406"/><line style="stroke: #A80036; stroke-width: 1.5;" x1="258" x2="388" y1="70.6406" y2="70.6406"/><!--class Calidad--><rect fill="#6495ED" filter="url(#f1wei3buw6wsv9)" height="48" id="Calidad" style="stroke: #A80036; stroke-width: 1.5;" width="75" x="227.5" y="138.6406"/><rect fill="#6495ED" height="32" style="stroke: #A80036; stroke-width: 1.5;" width="75" x="227.5" y="138.6406"/><ellipse cx="242.5" cy="154.6406" fill="#ADD1B2" rx="11" ry="11" style="stroke: #A80036; stroke-width: 1.0;"/><path d="M245.2656,150.5156 Q245.4219,150.2969 245.6094,150.1875 Q245.7969,150.0781 246.0156,150.0781 Q246.3906,150.0781 246.625,150.3359 Q246.8594,150.5938 246.8594,151.2031 L246.8594,152.6563 Q246.8594,153.2656 246.625,153.5313 Q246.3906,153.7969 246.0156,153.7969 Q245.6719,153.7969 245.4688,153.5938 Q245.2656,153.4063 245.1563,152.8906 Q245.1094,152.5313 244.9219,152.3438 Q244.5938,151.9688 243.9844,151.75 Q243.375,151.5313 242.75,151.5313 Q241.9844,151.5313 241.3516,151.8594 Q240.7188,152.1875 240.2266,152.9375 Q239.7344,153.6875 239.7344,154.7188 L239.7344,155.8125 Q239.7344,157.0469 240.625,157.8672 Q241.5156,158.6875 243.1094,158.6875 Q244.0469,158.6875 244.7031,158.4375 Q245.0938,158.2813 245.5156,157.8438 Q245.7813,157.5781 245.9297,157.5 Q246.0781,157.4219 246.2813,157.4219 Q246.6094,157.4219 246.8672,157.6797 Q247.125,157.9375 247.125,158.2813 Q247.125,158.625 246.7813,159.0313 Q246.2813,159.6094 245.4844,159.9375 Q244.4063,160.3906 243.1094,160.3906 Q241.5938,160.3906 240.3906,159.7656 Q239.4063,159.2656 238.7188,158.1953 Q238.0313,157.125 238.0313,155.8438 L238.0313,154.6875 Q238.0313,153.3594 238.6484,152.2109 Q239.2656,151.0625 240.3594,150.4453 Q241.4531,149.8281 242.6875,149.8281 Q243.4219,149.8281 244.0703,149.9922 Q244.7188,150.1563 245.2656,150.5156 Z "/><text fill="#000000" font-family="sans-serif" font-size="12" lengthAdjust="spacingAndGlyphs" textLength="43" x="256.5" y="159.5508">Calidad</text><line style="stroke: #A80036; stroke-width: 1.5;" x1="228.5" x2="301.5" y1="170.6406" y2="170.6406"/><line style="stroke: #A80036; stroke-width: 1.5;" x1="228.5" x2="301.5" y1="178.6406" y2="178.6406"/><!--class Efectividad--><rect fill="#FFA500" filter="url(#f1wei3buw6wsv9)" height="48" id="Efectividad" style="stroke: #A80036; stroke-width: 1.5;" width="91" x="120.5" y="246.6406"/><rect fill="#FFA500" height="32" style="stroke: #A80036; stroke-width: 1.5;" width="91" x="120.5" y="246.6406"/><ellipse cx="135.5" cy="262.6406" fill="#ADD1B2" rx="11" ry="11" style="stroke: #A80036; stroke-width: 1.0;"/><path d="M138.2656,258.5156 Q138.4219,258.2969 138.6094,258.1875 Q138.7969,258.0781 139.0156,258.0781 Q139.3906,258.0781 139.625,258.3359 Q139.8594,258.5938 139.8594,259.2031 L139.8594,260.6563 Q139.8594,261.2656 139.625,261.5313 Q139.3906,261.7969 139.0156,261.7969 Q138.6719,261.7969 138.4688,261.5938 Q138.2656,261.4063 138.1563,260.8906 Q138.1094,260.5313 137.9219,260.3438 Q137.5938,259.9688 136.9844,259.75 Q136.375,259.5313 135.75,259.5313 Q134.9844,259.5313 134.3516,259.8594 Q133.7188,260.1875 133.2266,260.9375 Q132.7344,261.6875 132.7344,262.7188 L132.7344,263.8125 Q132.7344,265.0469 133.625,265.8672 Q134.5156,266.6875 136.1094,266.6875 Q137.0469,266.6875 137.7031,266.4375 Q138.0938,266.2813 138.5156,265.8438 Q138.7813,265.5781 138.9297,265.5 Q139.0781,265.4219 139.2813,265.4219 Q139.6094,265.4219 139.8672,265.6797 Q140.125,265.9375 140.125,266.2813 Q140.125,266.625 139.7813,267.0313 Q139.2813,267.6094 138.4844,267.9375 Q137.4063,268.3906 136.1094,268.3906 Q134.5938,268.3906 133.3906,267.7656 Q132.4063,267.2656 131.7188,266.1953 Q131.0313,265.125 131.0313,263.8438 L131.0313,262.6875 Q131.0313,261.3594 131.6484,260.2109 Q132.2656,259.0625 133.3594,258.4453 Q134.4531,257.8281 135.6875,257.8281 Q136.4219,257.8281 137.0703,257.9922 Q137.7188,258.1563 138.2656,258.5156 Z "/><text fill="#000000" font-family="sans-serif" font-size="12" lengthAdjust="spacingAndGlyphs" textLength="59" x="149.5" y="267.5508">Efectividad</text><line style="stroke: #A80036; stroke-width: 1.5;" x1="121.5" x2="210.5" y1="278.6406" y2="278.6406"/><line style="stroke: #A80036; stroke-width: 1.5;" x1="121.5" x2="210.5" y1="286.6406" y2="286.6406"/><!--class Mantenibilidad--><rect fill="#6495ED" filter="url(#f1wei3buw6wsv9)" height="48" id="Mantenibilidad" style="stroke: #A80036; stroke-width: 1.5;" width="112" x="239" y="354.6406"/><rect fill="#6495ED" height="32" style="stroke: #A80036; stroke-width: 1.5;" width="112" x="239" y="354.6406"/><ellipse cx="254" cy="370.6406" fill="#ADD1B2" rx="11" ry="11" style="stroke: #A80036; stroke-width: 1.0;"/><path d="M256.7656,366.5156 Q256.9219,366.2969 257.1094,366.1875 Q257.2969,366.0781 257.5156,366.0781 Q257.8906,366.0781 258.125,366.3359 Q258.3594,366.5938 258.3594,367.2031 L258.3594,368.6563 Q258.3594,369.2656 258.125,369.5313 Q257.8906,369.7969 257.5156,369.7969 Q257.1719,369.7969 256.9688,369.5938 Q256.7656,369.4063 256.6563,368.8906 Q256.6094,368.5313 256.4219,368.3438 Q256.0938,367.9688 255.4844,367.75 Q254.875,367.5313 254.25,367.5313 Q253.4844,367.5313 252.8516,367.8594 Q252.2188,368.1875 251.7266,368.9375 Q251.2344,369.6875 251.2344,370.7188 L251.2344,371.8125 Q251.2344,373.0469 252.125,373.8672 Q253.0156,374.6875 254.6094,374.6875 Q255.5469,374.6875 256.2031,374.4375 Q256.5938,374.2813 257.0156,373.8438 Q257.2813,373.5781 257.4297,373.5 Q257.5781,373.4219 257.7813,373.4219 Q258.1094,373.4219 258.3672,373.6797 Q258.625,373.9375 258.625,374.2813 Q258.625,374.625 258.2813,375.0313 Q257.7813,375.6094 256.9844,375.9375 Q255.9063,376.3906 254.6094,376.3906 Q253.0938,376.3906 251.8906,375.7656 Q250.9063,375.2656 250.2188,374.1953 Q249.5313,373.125 249.5313,371.8438 L249.5313,370.6875 Q249.5313,369.3594 250.1484,368.2109 Q250.7656,367.0625 251.8594,366.4453 Q252.9531,365.8281 254.1875,365.8281 Q254.9219,365.8281 255.5703,365.9922 Q256.2188,366.1563 256.7656,366.5156 Z "/><text fill="#000000" font-family="sans-serif" font-size="12" lengthAdjust="spacingAndGlyphs" textLength="80" x="268" y="375.5508">Mantenibilidad</text><line style="stroke: #A80036; stroke-width: 1.5;" x1="240" x2="350" y1="386.6406" y2="386.6406"/><line style="stroke: #A80036; stroke-width: 1.5;" x1="240" x2="350" y1="394.6406" y2="394.6406"/><!--class ProductoSoftwareAltaCalidad--><rect fill="url(#g1wei3buw6wsv90)" filter="url(#f1wei3buw6wsv9)" height="48" id="ProductoSoftwareAltaCalidad" style="stroke: #A80036; stroke-width: 1.5;" width="177" x="318.5" y="246.6406"/><rect fill="url(#g1wei3buw6wsv90)" height="32" style="stroke: #A80036; stroke-width: 1.5;" width="177" x="318.5" y="246.6406"/><ellipse cx="333.5" cy="262.6406" fill="#ADD1B2" rx="11" ry="11" style="stroke: #A80036; stroke-width: 1.0;"/><path d="M336.2656,258.5156 Q336.4219,258.2969 336.6094,258.1875 Q336.7969,258.0781 337.0156,258.0781 Q337.3906,258.0781 337.625,258.3359 Q337.8594,258.5938 337.8594,259.2031 L337.8594,260.6563 Q337.8594,261.2656 337.625,261.5313 Q337.3906,261.7969 337.0156,261.7969 Q336.6719,261.7969 336.4688,261.5938 Q336.2656,261.4063 336.1563,260.8906 Q336.1094,260.5313 335.9219,260.3438 Q335.5938,259.9688 334.9844,259.75 Q334.375,259.5313 333.75,259.5313 Q332.9844,259.5313 332.3516,259.8594 Q331.7188,260.1875 331.2266,260.9375 Q330.7344,261.6875 330.7344,262.7188 L330.7344,263.8125 Q330.7344,265.0469 331.625,265.8672 Q332.5156,266.6875 334.1094,266.6875 Q335.0469,266.6875 335.7031,266.4375 Q336.0938,266.2813 336.5156,265.8438 Q336.7813,265.5781 336.9297,265.5 Q337.0781,265.4219 337.2813,265.4219 Q337.6094,265.4219 337.8672,265.6797 Q338.125,265.9375 338.125,266.2813 Q338.125,266.625 337.7813,267.0313 Q337.2813,267.6094 336.4844,267.9375 Q335.4063,268.3906 334.1094,268.3906 Q332.5938,268.3906 331.3906,267.7656 Q330.4063,267.2656 329.7188,266.1953 Q329.0313,265.125 329.0313,263.8438 L329.0313,262.6875 Q329.0313,261.3594 329.6484,260.2109 Q330.2656,259.0625 331.3594,258.4453 Q332.4531,257.8281 333.6875,257.8281 Q334.4219,257.8281 335.0703,257.9922 Q335.7188,258.1563 336.2656,258.5156 Z "/><text fill="#000000" font-family="sans-serif" font-size="12" lengthAdjust="spacingAndGlyphs" textLength="145" x="347.5" y="267.5508">Producto Software Efectivo</text><line style="stroke: #A80036; stroke-width: 1.5;" x1="319.5" x2="494.5" y1="278.6406" y2="278.6406"/><line style="stroke: #A80036; stroke-width: 1.5;" x1="319.5" x2="494.5" y1="286.6406" y2="286.6406"/><!--class AltaMantenibilidad--><rect fill="url(#g1wei3buw6wsv91)" filter="url(#f1wei3buw6wsv9)" height="48" id="AltaMantenibilidad" style="stroke: #A80036; stroke-width: 1.5;" width="132" x="297" y="462.6406"/><rect fill="url(#g1wei3buw6wsv91)" height="32" style="stroke: #A80036; stroke-width: 1.5;" width="132" x="297" y="462.6406"/><ellipse cx="312" cy="478.6406" fill="#ADD1B2" rx="11" ry="11" style="stroke: #A80036; stroke-width: 1.0;"/><path d="M314.7656,474.5156 Q314.9219,474.2969 315.1094,474.1875 Q315.2969,474.0781 315.5156,474.0781 Q315.8906,474.0781 316.125,474.3359 Q316.3594,474.5938 316.3594,475.2031 L316.3594,476.6563 Q316.3594,477.2656 316.125,477.5313 Q315.8906,477.7969 315.5156,477.7969 Q315.1719,477.7969 314.9688,477.5938 Q314.7656,477.4063 314.6563,476.8906 Q314.6094,476.5313 314.4219,476.3438 Q314.0938,475.9688 313.4844,475.75 Q312.875,475.5313 312.25,475.5313 Q311.4844,475.5313 310.8516,475.8594 Q310.2188,476.1875 309.7266,476.9375 Q309.2344,477.6875 309.2344,478.7188 L309.2344,479.8125 Q309.2344,481.0469 310.125,481.8672 Q311.0156,482.6875 312.6094,482.6875 Q313.5469,482.6875 314.2031,482.4375 Q314.5938,482.2813 315.0156,481.8438 Q315.2813,481.5781 315.4297,481.5 Q315.5781,481.4219 315.7813,481.4219 Q316.1094,481.4219 316.3672,481.6797 Q316.625,481.9375 316.625,482.2813 Q316.625,482.625 316.2813,483.0313 Q315.7813,483.6094 314.9844,483.9375 Q313.9063,484.3906 312.6094,484.3906 Q311.0938,484.3906 309.8906,483.7656 Q308.9063,483.2656 308.2188,482.1953 Q307.5313,481.125 307.5313,479.8438 L307.5313,478.6875 Q307.5313,477.3594 308.1484,476.2109 Q308.7656,475.0625 309.8594,474.4453 Q310.9531,473.8281 312.1875,473.8281 Q312.9219,473.8281 313.5703,473.9922 Q314.2188,474.1563 314.7656,474.5156 Z "/><text fill="#000000" font-family="sans-serif" font-size="12" lengthAdjust="spacingAndGlyphs" textLength="100" x="326" y="483.5508">AltaMantenibilidad</text><line style="stroke: #A80036; stroke-width: 1.5;" x1="298" x2="428" y1="494.6406" y2="494.6406"/><line style="stroke: #A80036; stroke-width: 1.5;" x1="298" x2="428" y1="502.6406" y2="502.6406"/><!--class Eficacia--><rect fill="#FFA500" filter="url(#f1wei3buw6wsv9)" height="48" id="Eficacia" style="stroke: #A80036; stroke-width: 1.5;" width="75" x="128.5" y="354.6406"/><rect fill="#FFA500" height="32" style="stroke: #A80036; stroke-width: 1.5;" width="75" x="128.5" y="354.6406"/><ellipse cx="143.5" cy="370.6406" fill="#ADD1B2" rx="11" ry="11" style="stroke: #A80036; stroke-width: 1.0;"/><path d="M146.2656,366.5156 Q146.4219,366.2969 146.6094,366.1875 Q146.7969,366.0781 147.0156,366.0781 Q147.3906,366.0781 147.625,366.3359 Q147.8594,366.5938 147.8594,367.2031 L147.8594,368.6563 Q147.8594,369.2656 147.625,369.5313 Q147.3906,369.7969 147.0156,369.7969 Q146.6719,369.7969 146.4688,369.5938 Q146.2656,369.4063 146.1563,368.8906 Q146.1094,368.5313 145.9219,368.3438 Q145.5938,367.9688 144.9844,367.75 Q144.375,367.5313 143.75,367.5313 Q142.9844,367.5313 142.3516,367.8594 Q141.7188,368.1875 141.2266,368.9375 Q140.7344,369.6875 140.7344,370.7188 L140.7344,371.8125 Q140.7344,373.0469 141.625,373.8672 Q142.5156,374.6875 144.1094,374.6875 Q145.0469,374.6875 145.7031,374.4375 Q146.0938,374.2813 146.5156,373.8438 Q146.7813,373.5781 146.9297,373.5 Q147.0781,373.4219 147.2813,373.4219 Q147.6094,373.4219 147.8672,373.6797 Q148.125,373.9375 148.125,374.2813 Q148.125,374.625 147.7813,375.0313 Q147.2813,375.6094 146.4844,375.9375 Q145.4063,376.3906 144.1094,376.3906 Q142.5938,376.3906 141.3906,375.7656 Q140.4063,375.2656 139.7188,374.1953 Q139.0313,373.125 139.0313,371.8438 L139.0313,370.6875 Q139.0313,369.3594 139.6484,368.2109 Q140.2656,367.0625 141.3594,366.4453 Q142.4531,365.8281 143.6875,365.8281 Q144.4219,365.8281 145.0703,365.9922 Q145.7188,366.1563 146.2656,366.5156 Z "/><text fill="#000000" font-family="sans-serif" font-size="12" lengthAdjust="spacingAndGlyphs" textLength="43" x="157.5" y="375.5508">Eficacia</text><line style="stroke: #A80036; stroke-width: 1.5;" x1="129.5" x2="202.5" y1="386.6406" y2="386.6406"/><line style="stroke: #A80036; stroke-width: 1.5;" x1="129.5" x2="202.5" y1="394.6406" y2="394.6406"/><!--class Eficiencia--><rect fill="#FFA500" filter="url(#f1wei3buw6wsv9)" height="48" id="Eficiencia" style="stroke: #A80036; stroke-width: 1.5;" width="85" x="8.5" y="354.6406"/><rect fill="#FFA500" height="32" style="stroke: #A80036; stroke-width: 1.5;" width="85" x="8.5" y="354.6406"/><ellipse cx="23.5" cy="370.6406" fill="#ADD1B2" rx="11" ry="11" style="stroke: #A80036; stroke-width: 1.0;"/><path d="M26.2656,366.5156 Q26.4219,366.2969 26.6094,366.1875 Q26.7969,366.0781 27.0156,366.0781 Q27.3906,366.0781 27.625,366.3359 Q27.8594,366.5938 27.8594,367.2031 L27.8594,368.6563 Q27.8594,369.2656 27.625,369.5313 Q27.3906,369.7969 27.0156,369.7969 Q26.6719,369.7969 26.4688,369.5938 Q26.2656,369.4063 26.1563,368.8906 Q26.1094,368.5313 25.9219,368.3438 Q25.5938,367.9688 24.9844,367.75 Q24.375,367.5313 23.75,367.5313 Q22.9844,367.5313 22.3516,367.8594 Q21.7188,368.1875 21.2266,368.9375 Q20.7344,369.6875 20.7344,370.7188 L20.7344,371.8125 Q20.7344,373.0469 21.625,373.8672 Q22.5156,374.6875 24.1094,374.6875 Q25.0469,374.6875 25.7031,374.4375 Q26.0938,374.2813 26.5156,373.8438 Q26.7813,373.5781 26.9297,373.5 Q27.0781,373.4219 27.2813,373.4219 Q27.6094,373.4219 27.8672,373.6797 Q28.125,373.9375 28.125,374.2813 Q28.125,374.625 27.7813,375.0313 Q27.2813,375.6094 26.4844,375.9375 Q25.4063,376.3906 24.1094,376.3906 Q22.5938,376.3906 21.3906,375.7656 Q20.4063,375.2656 19.7188,374.1953 Q19.0313,373.125 19.0313,371.8438 L19.0313,370.6875 Q19.0313,369.3594 19.6484,368.2109 Q20.2656,367.0625 21.3594,366.4453 Q22.4531,365.8281 23.6875,365.8281 Q24.4219,365.8281 25.0703,365.9922 Q25.7188,366.1563 26.2656,366.5156 Z "/><text fill="#000000" font-family="sans-serif" font-size="12" lengthAdjust="spacingAndGlyphs" textLength="53" x="37.5" y="375.5508">Eficiencia</text><line style="stroke: #A80036; stroke-width: 1.5;" x1="9.5" x2="92.5" y1="386.6406" y2="386.6406"/><line style="stroke: #A80036; stroke-width: 1.5;" x1="9.5" x2="92.5" y1="394.6406" y2="394.6406"/><!--class Usabilidad--><rect fill="#6495ED" filter="url(#f1wei3buw6wsv9)" height="48" id="Usabilidad" style="stroke: #A80036; stroke-width: 1.5;" width="92" x="6" y="462.6406"/><rect fill="#6495ED" height="32" style="stroke: #A80036; stroke-width: 1.5;" width="92" x="6" y="462.6406"/><ellipse cx="21" cy="478.6406" fill="#ADD1B2" rx="11" ry="11" style="stroke: #A80036; stroke-width: 1.0;"/><path d="M23.7656,474.5156 Q23.9219,474.2969 24.1094,474.1875 Q24.2969,474.0781 24.5156,474.0781 Q24.8906,474.0781 25.125,474.3359 Q25.3594,474.5938 25.3594,475.2031 L25.3594,476.6563 Q25.3594,477.2656 25.125,477.5313 Q24.8906,477.7969 24.5156,477.7969 Q24.1719,477.7969 23.9688,477.5938 Q23.7656,477.4063 23.6563,476.8906 Q23.6094,476.5313 23.4219,476.3438 Q23.0938,475.9688 22.4844,475.75 Q21.875,475.5313 21.25,475.5313 Q20.4844,475.5313 19.8516,475.8594 Q19.2188,476.1875 18.7266,476.9375 Q18.2344,477.6875 18.2344,478.7188 L18.2344,479.8125 Q18.2344,481.0469 19.125,481.8672 Q20.0156,482.6875 21.6094,482.6875 Q22.5469,482.6875 23.2031,482.4375 Q23.5938,482.2813 24.0156,481.8438 Q24.2813,481.5781 24.4297,481.5 Q24.5781,481.4219 24.7813,481.4219 Q25.1094,481.4219 25.3672,481.6797 Q25.625,481.9375 25.625,482.2813 Q25.625,482.625 25.2813,483.0313 Q24.7813,483.6094 23.9844,483.9375 Q22.9063,484.3906 21.6094,484.3906 Q20.0938,484.3906 18.8906,483.7656 Q17.9063,483.2656 17.2188,482.1953 Q16.5313,481.125 16.5313,479.8438 L16.5313,478.6875 Q16.5313,477.3594 17.1484,476.2109 Q17.7656,475.0625 18.8594,474.4453 Q19.9531,473.8281 21.1875,473.8281 Q21.9219,473.8281 22.5703,473.9922 Q23.2188,474.1563 23.7656,474.5156 Z "/><text fill="#000000" font-family="sans-serif" font-size="12" lengthAdjust="spacingAndGlyphs" textLength="60" x="35" y="483.5508">Usabilidad</text><line style="stroke: #A80036; stroke-width: 1.5;" x1="7" x2="97" y1="494.6406" y2="494.6406"/><line style="stroke: #A80036; stroke-width: 1.5;" x1="7" x2="97" y1="502.6406" y2="502.6406"/><!--class Escalabilidad--><rect fill="#6495ED" filter="url(#f1wei3buw6wsv9)" height="48" id="Escalabilidad" style="stroke: #A80036; stroke-width: 1.5;" width="107" x="133.5" y="462.6406"/><rect fill="#6495ED" height="32" style="stroke: #A80036; stroke-width: 1.5;" width="107" x="133.5" y="462.6406"/><ellipse cx="148.5" cy="478.6406" fill="#ADD1B2" rx="11" ry="11" style="stroke: #A80036; stroke-width: 1.0;"/><path d="M151.2656,474.5156 Q151.4219,474.2969 151.6094,474.1875 Q151.7969,474.0781 152.0156,474.0781 Q152.3906,474.0781 152.625,474.3359 Q152.8594,474.5938 152.8594,475.2031 L152.8594,476.6563 Q152.8594,477.2656 152.625,477.5313 Q152.3906,477.7969 152.0156,477.7969 Q151.6719,477.7969 151.4688,477.5938 Q151.2656,477.4063 151.1563,476.8906 Q151.1094,476.5313 150.9219,476.3438 Q150.5938,475.9688 149.9844,475.75 Q149.375,475.5313 148.75,475.5313 Q147.9844,475.5313 147.3516,475.8594 Q146.7188,476.1875 146.2266,476.9375 Q145.7344,477.6875 145.7344,478.7188 L145.7344,479.8125 Q145.7344,481.0469 146.625,481.8672 Q147.5156,482.6875 149.1094,482.6875 Q150.0469,482.6875 150.7031,482.4375 Q151.0938,482.2813 151.5156,481.8438 Q151.7813,481.5781 151.9297,481.5 Q152.0781,481.4219 152.2813,481.4219 Q152.6094,481.4219 152.8672,481.6797 Q153.125,481.9375 153.125,482.2813 Q153.125,482.625 152.7813,483.0313 Q152.2813,483.6094 151.4844,483.9375 Q150.4063,484.3906 149.1094,484.3906 Q147.5938,484.3906 146.3906,483.7656 Q145.4063,483.2656 144.7188,482.1953 Q144.0313,481.125 144.0313,479.8438 L144.0313,478.6875 Q144.0313,477.3594 144.6484,476.2109 Q145.2656,475.0625 146.3594,474.4453 Q147.4531,473.8281 148.6875,473.8281 Q149.4219,473.8281 150.0703,473.9922 Q150.7188,474.1563 151.2656,474.5156 Z "/><text fill="#000000" font-family="sans-serif" font-size="12" lengthAdjust="spacingAndGlyphs" textLength="75" x="162.5" y="483.5508">Escalabilidad</text><line style="stroke: #A80036; stroke-width: 1.5;" x1="134.5" x2="239.5" y1="494.6406" y2="494.6406"/><line style="stroke: #A80036; stroke-width: 1.5;" x1="134.5" x2="239.5" y1="502.6406" y2="502.6406"/><!--class Limpieza--><rect fill="url(#g1wei3buw6wsv91)" filter="url(#f1wei3buw6wsv9)" height="48" id="Limpieza" style="stroke: #A80036; stroke-width: 1.5;" width="82" x="137" y="570.6406"/><rect fill="url(#g1wei3buw6wsv91)" height="32" style="stroke: #A80036; stroke-width: 1.5;" width="82" x="137" y="570.6406"/><ellipse cx="152" cy="586.6406" fill="#ADD1B2" rx="11" ry="11" style="stroke: #A80036; stroke-width: 1.0;"/><path d="M154.7656,582.5156 Q154.9219,582.2969 155.1094,582.1875 Q155.2969,582.0781 155.5156,582.0781 Q155.8906,582.0781 156.125,582.3359 Q156.3594,582.5938 156.3594,583.2031 L156.3594,584.6563 Q156.3594,585.2656 156.125,585.5313 Q155.8906,585.7969 155.5156,585.7969 Q155.1719,585.7969 154.9688,585.5938 Q154.7656,585.4063 154.6563,584.8906 Q154.6094,584.5313 154.4219,584.3438 Q154.0938,583.9688 153.4844,583.75 Q152.875,583.5313 152.25,583.5313 Q151.4844,583.5313 150.8516,583.8594 Q150.2188,584.1875 149.7266,584.9375 Q149.2344,585.6875 149.2344,586.7188 L149.2344,587.8125 Q149.2344,589.0469 150.125,589.8672 Q151.0156,590.6875 152.6094,590.6875 Q153.5469,590.6875 154.2031,590.4375 Q154.5938,590.2813 155.0156,589.8438 Q155.2813,589.5781 155.4297,589.5 Q155.5781,589.4219 155.7813,589.4219 Q156.1094,589.4219 156.3672,589.6797 Q156.625,589.9375 156.625,590.2813 Q156.625,590.625 156.2813,591.0313 Q155.7813,591.6094 154.9844,591.9375 Q153.9063,592.3906 152.6094,592.3906 Q151.0938,592.3906 149.8906,591.7656 Q148.9063,591.2656 148.2188,590.1953 Q147.5313,589.125 147.5313,587.8438 L147.5313,586.6875 Q147.5313,585.3594 148.1484,584.2109 Q148.7656,583.0625 149.8594,582.4453 Q150.9531,581.8281 152.1875,581.8281 Q152.9219,581.8281 153.5703,581.9922 Q154.2188,582.1563 154.7656,582.5156 Z "/><text fill="#000000" font-family="sans-serif" font-size="12" lengthAdjust="spacingAndGlyphs" textLength="50" x="166" y="591.5508">Limpieza</text><line style="stroke: #A80036; stroke-width: 1.5;" x1="138" x2="218" y1="602.6406" y2="602.6406"/><line style="stroke: #A80036; stroke-width: 1.5;" x1="138" x2="218" y1="610.6406" y2="610.6406"/><!--class Flexibilidad--><rect fill="url(#g1wei3buw6wsv91)" filter="url(#f1wei3buw6wsv9)" height="48" id="Flexibilidad" style="stroke: #A80036; stroke-width: 1.5;" width="94" x="254" y="570.6406"/><rect fill="url(#g1wei3buw6wsv91)" height="32" style="stroke: #A80036; stroke-width: 1.5;" width="94" x="254" y="570.6406"/><ellipse cx="269" cy="586.6406" fill="#ADD1B2" rx="11" ry="11" style="stroke: #A80036; stroke-width: 1.0;"/><path d="M271.7656,582.5156 Q271.9219,582.2969 272.1094,582.1875 Q272.2969,582.0781 272.5156,582.0781 Q272.8906,582.0781 273.125,582.3359 Q273.3594,582.5938 273.3594,583.2031 L273.3594,584.6563 Q273.3594,585.2656 273.125,585.5313 Q272.8906,585.7969 272.5156,585.7969 Q272.1719,585.7969 271.9688,585.5938 Q271.7656,585.4063 271.6563,584.8906 Q271.6094,584.5313 271.4219,584.3438 Q271.0938,583.9688 270.4844,583.75 Q269.875,583.5313 269.25,583.5313 Q268.4844,583.5313 267.8516,583.8594 Q267.2188,584.1875 266.7266,584.9375 Q266.2344,585.6875 266.2344,586.7188 L266.2344,587.8125 Q266.2344,589.0469 267.125,589.8672 Q268.0156,590.6875 269.6094,590.6875 Q270.5469,590.6875 271.2031,590.4375 Q271.5938,590.2813 272.0156,589.8438 Q272.2813,589.5781 272.4297,589.5 Q272.5781,589.4219 272.7813,589.4219 Q273.1094,589.4219 273.3672,589.6797 Q273.625,589.9375 273.625,590.2813 Q273.625,590.625 273.2813,591.0313 Q272.7813,591.6094 271.9844,591.9375 Q270.9063,592.3906 269.6094,592.3906 Q268.0938,592.3906 266.8906,591.7656 Q265.9063,591.2656 265.2188,590.1953 Q264.5313,589.125 264.5313,587.8438 L264.5313,586.6875 Q264.5313,585.3594 265.1484,584.2109 Q265.7656,583.0625 266.8594,582.4453 Q267.9531,581.8281 269.1875,581.8281 Q269.9219,581.8281 270.5703,581.9922 Q271.2188,582.1563 271.7656,582.5156 Z "/><text fill="#000000" font-family="sans-serif" font-size="12" lengthAdjust="spacingAndGlyphs" textLength="62" x="283" y="591.5508">Flexibilidad</text><line style="stroke: #A80036; stroke-width: 1.5;" x1="255" x2="347" y1="602.6406" y2="602.6406"/><line style="stroke: #A80036; stroke-width: 1.5;" x1="255" x2="347" y1="610.6406" y2="610.6406"/><!--class Robustez--><rect fill="url(#g1wei3buw6wsv91)" filter="url(#f1wei3buw6wsv9)" height="48" id="Robustez" style="stroke: #A80036; stroke-width: 1.5;" width="84" x="383" y="570.6406"/><rect fill="url(#g1wei3buw6wsv91)" height="32" style="stroke: #A80036; stroke-width: 1.5;" width="84" x="383" y="570.6406"/><ellipse cx="398" cy="586.6406" fill="#ADD1B2" rx="11" ry="11" style="stroke: #A80036; stroke-width: 1.0;"/><path d="M400.7656,582.5156 Q400.9219,582.2969 401.1094,582.1875 Q401.2969,582.0781 401.5156,582.0781 Q401.8906,582.0781 402.125,582.3359 Q402.3594,582.5938 402.3594,583.2031 L402.3594,584.6563 Q402.3594,585.2656 402.125,585.5313 Q401.8906,585.7969 401.5156,585.7969 Q401.1719,585.7969 400.9688,585.5938 Q400.7656,585.4063 400.6563,584.8906 Q400.6094,584.5313 400.4219,584.3438 Q400.0938,583.9688 399.4844,583.75 Q398.875,583.5313 398.25,583.5313 Q397.4844,583.5313 396.8516,583.8594 Q396.2188,584.1875 395.7266,584.9375 Q395.2344,585.6875 395.2344,586.7188 L395.2344,587.8125 Q395.2344,589.0469 396.125,589.8672 Q397.0156,590.6875 398.6094,590.6875 Q399.5469,590.6875 400.2031,590.4375 Q400.5938,590.2813 401.0156,589.8438 Q401.2813,589.5781 401.4297,589.5 Q401.5781,589.4219 401.7813,589.4219 Q402.1094,589.4219 402.3672,589.6797 Q402.625,589.9375 402.625,590.2813 Q402.625,590.625 402.2813,591.0313 Q401.7813,591.6094 400.9844,591.9375 Q399.9063,592.3906 398.6094,592.3906 Q397.0938,592.3906 395.8906,591.7656 Q394.9063,591.2656 394.2188,590.1953 Q393.5313,589.125 393.5313,587.8438 L393.5313,586.6875 Q393.5313,585.3594 394.1484,584.2109 Q394.7656,583.0625 395.8594,582.4453 Q396.9531,581.8281 398.1875,581.8281 Q398.9219,581.8281 399.5703,581.9922 Q400.2188,582.1563 400.7656,582.5156 Z "/><text fill="#000000" font-family="sans-serif" font-size="12" lengthAdjust="spacingAndGlyphs" textLength="52" x="412" y="591.5508">Robustez</text><line style="stroke: #A80036; stroke-width: 1.5;" x1="384" x2="466" y1="602.6406" y2="602.6406"/><line style="stroke: #A80036; stroke-width: 1.5;" x1="384" x2="466" y1="610.6406" y2="610.6406"/><!--class Reusabilidad--><rect fill="url(#g1wei3buw6wsv91)" filter="url(#f1wei3buw6wsv9)" height="48" id="Reusabilidad" style="stroke: #A80036; stroke-width: 1.5;" width="106" x="502" y="570.6406"/><rect fill="url(#g1wei3buw6wsv91)" height="32" style="stroke: #A80036; stroke-width: 1.5;" width="106" x="502" y="570.6406"/><ellipse cx="517" cy="586.6406" fill="#ADD1B2" rx="11" ry="11" style="stroke: #A80036; stroke-width: 1.0;"/><path d="M519.7656,582.5156 Q519.9219,582.2969 520.1094,582.1875 Q520.2969,582.0781 520.5156,582.0781 Q520.8906,582.0781 521.125,582.3359 Q521.3594,582.5938 521.3594,583.2031 L521.3594,584.6563 Q521.3594,585.2656 521.125,585.5313 Q520.8906,585.7969 520.5156,585.7969 Q520.1719,585.7969 519.9688,585.5938 Q519.7656,585.4063 519.6563,584.8906 Q519.6094,584.5313 519.4219,584.3438 Q519.0938,583.9688 518.4844,583.75 Q517.875,583.5313 517.25,583.5313 Q516.4844,583.5313 515.8516,583.8594 Q515.2188,584.1875 514.7266,584.9375 Q514.2344,585.6875 514.2344,586.7188 L514.2344,587.8125 Q514.2344,589.0469 515.125,589.8672 Q516.0156,590.6875 517.6094,590.6875 Q518.5469,590.6875 519.2031,590.4375 Q519.5938,590.2813 520.0156,589.8438 Q520.2813,589.5781 520.4297,589.5 Q520.5781,589.4219 520.7813,589.4219 Q521.1094,589.4219 521.3672,589.6797 Q521.625,589.9375 521.625,590.2813 Q521.625,590.625 521.2813,591.0313 Q520.7813,591.6094 519.9844,591.9375 Q518.9063,592.3906 517.6094,592.3906 Q516.0938,592.3906 514.8906,591.7656 Q513.9063,591.2656 513.2188,590.1953 Q512.5313,589.125 512.5313,587.8438 L512.5313,586.6875 Q512.5313,585.3594 513.1484,584.2109 Q513.7656,583.0625 514.8594,582.4453 Q515.9531,581.8281 517.1875,581.8281 Q517.9219,581.8281 518.5703,581.9922 Q519.2188,582.1563 519.7656,582.5156 Z "/><text fill="#000000" font-family="sans-serif" font-size="12" lengthAdjust="spacingAndGlyphs" textLength="74" x="531" y="591.5508">Reusabilidad</text><line style="stroke: #A80036; stroke-width: 1.5;" x1="503" x2="607" y1="602.6406" y2="602.6406"/><line style="stroke: #A80036; stroke-width: 1.5;" x1="503" x2="607" y1="610.6406" y2="610.6406"/><!--link ProductoSoftware to Calidad--><path d="M304.139,90.1106 C297.729,101.8246 290.564,114.9196 284.134,126.6726 " fill="none" id="ProductoSoftware-Calidad" style="stroke: #A80036; stroke-width: 1.0;"/><polygon fill="#A80036" points="277.761,138.3186,285.5901,132.3433,280.161,133.9323,278.572,128.5032,277.761,138.3186" style="stroke: #A80036; stroke-width: 1.0;"/><line style="stroke: #A80036; stroke-width: 1.0;" x1="280.161" x2="284.0015" y1="133.9323" y2="126.9146"/><polygon fill="#A80036" points="310.415,78.6406,304.0259,81.9842,304.6549,89.1678,311.044,85.8242,310.415,78.6406" style="stroke: #A80036; stroke-width: 1.0;"/><!--link Calidad to Efectividad--><path d="M234.529,196.2666 C222.6,209.0386 208.932,223.6726 196.957,236.4946 " fill="none" id="Calidad-Efectividad" style="stroke: #A80036; stroke-width: 1.0;"/><polygon fill="#A80036" points="187.781,246.3186,196.8474,242.4716,191.1939,242.6645,191.0009,237.011,187.781,246.3186" style="stroke: #A80036; stroke-width: 1.0;"/><line style="stroke: #A80036; stroke-width: 1.0;" x1="191.1939" x2="196.655" y1="242.6645" y2="236.8181"/><polygon fill="#A80036" points="243.518,186.6406,236.4993,188.2952,235.3271,195.4104,242.3458,193.7558,243.518,186.6406" style="stroke: #A80036; stroke-width: 1.0;"/><!--link Calidad to Mantenibilidad--><path d="M270.083,199.8986 C275.613,239.3496 284.403,302.0456 289.929,341.4646 " fill="none" id="Calidad-Mantenibilidad" style="stroke: #A80036; stroke-width: 1.0;"/><polygon fill="#A80036" points="291.736,354.3606,294.448,344.8925,291.042,349.409,286.5255,346.003,291.736,354.3606" style="stroke: #A80036; stroke-width: 1.0;"/><line style="stroke: #A80036; stroke-width: 1.0;" x1="291.042" x2="289.9315" y1="349.409" y2="341.4861"/><polygon fill="#A80036" points="268.268,186.9496,265.1396,193.4468,269.9337,198.8335,273.0621,192.3363,268.268,186.9496" style="stroke: #A80036; stroke-width: 1.0;"/><!--link ProductoSoftware to ProductoSoftwareAltaCalidad--><path d="M339.537,97.7716 C356.998,142.2536 383.888,210.7606 397.862,246.3606 " fill="none" id="ProductoSoftware-ProductoSoftwareAltaCalidad" style="stroke: #A80036; stroke-width: 1.0;"/><polygon fill="none" points="332.941,100.1246,332.149,78.9496,345.973,95.0096,332.941,100.1246" style="stroke: #A80036; stroke-width: 1.0;"/><!--link ProductoSoftwareAltaCalidad to AltaMantenibilidad--><path d="M402.207,294.9496 C394.074,334.5066 377.599,414.6346 368.818,457.3426 " fill="none" id="ProductoSoftwareAltaCalidad-AltaMantenibilidad" style="stroke: #A80036; stroke-width: 1.0;"/><polygon fill="#A80036" points="367.787,462.3606,373.518,454.3509,368.7942,457.4631,365.682,452.7394,367.787,462.3606" style="stroke: #A80036; stroke-width: 1.0;"/><!--link Efectividad to Eficacia--><path d="M166,307.9786 C166,318.6466 166,330.3176 166,341.0046 " fill="none" id="Efectividad-Eficacia" style="stroke: #A80036; stroke-width: 1.0;"/><polygon fill="#A80036" points="166,354.3186,170,345.3186,166,349.3186,162,345.3186,166,354.3186" style="stroke: #A80036; stroke-width: 1.0;"/><line style="stroke: #A80036; stroke-width: 1.0;" x1="166" x2="166" y1="349.3186" y2="341.3186"/><polygon fill="#A80036" points="166,294.6406,162,300.6406,166,306.6406,170,300.6406,166,294.6406" style="stroke: #A80036; stroke-width: 1.0;"/><!--link Efectividad to Eficiencia--><path d="M131.101,303.8086 C116.886,316.9106 100.4811,332.0316 86.233,345.1646 " fill="none" id="Efectividad-Eficiencia" style="stroke: #A80036; stroke-width: 1.0;"/><polygon fill="#A80036" points="76.3017,354.3186,85.6303,351.16,79.9781,350.9298,80.2082,345.2777,76.3017,354.3186" style="stroke: #A80036; stroke-width: 1.0;"/><line style="stroke: #A80036; stroke-width: 1.0;" x1="79.9781" x2="85.8605" y1="350.9298" y2="345.5081"/><polygon fill="#A80036" points="141.047,294.6406,133.9243,295.7663,132.2239,302.7741,139.3466,301.6484,141.047,294.6406" style="stroke: #A80036; stroke-width: 1.0;"/><!--link Efectividad to Mantenibilidad--><path d="M193.991,294.6406 C214.221,311.2646 241.596,333.7586 262.745,351.1366 " fill="none" id="Efectividad-Mantenibilidad" style="stroke: #A80036; stroke-width: 1.0;"/><polygon fill="#A80036" points="266.618,354.3186,262.2041,345.5142,262.755,351.1442,257.125,351.6951,266.618,354.3186" style="stroke: #A80036; stroke-width: 1.0;"/><!--link Eficacia to Usabilidad--><path d="M126.413,416.4496 C110.036,431.6766 91.538,448.8776 77.0817,462.3186 " fill="none" id="Eficacia-Usabilidad" style="stroke: #A80036; stroke-width: 1.0;"/><polygon fill="none" points="121.85,411.1336,141.264,402.6406,131.384,421.3866,121.85,411.1336" style="stroke: #A80036; stroke-width: 1.0;"/><!--link Eficacia to Escalabilidad--><path d="M174.524,422.6646 C177.209,436.2196 180.074,450.6786 182.38,462.3186 " fill="none" id="Eficacia-Escalabilidad" style="stroke: #A80036; stroke-width: 1.0;"/><polygon fill="none" points="167.577,423.6206,170.557,402.6406,181.31,420.8996,167.577,423.6206" style="stroke: #A80036; stroke-width: 1.0;"/><!--link Mantenibilidad to AltaMantenibilidad--><path d="M320.746,419.7746 C329.962,434.1396 340.038,449.8476 348.039,462.3186 " fill="none" id="Mantenibilidad-AltaMantenibilidad" style="stroke: #A80036; stroke-width: 1.0;"/><polygon fill="none" points="314.662,423.2546,309.755,402.6406,326.446,415.6956,314.662,423.2546" style="stroke: #A80036; stroke-width: 1.0;"/><!--link AltaMantenibilidad to Limpieza--><path d="M311.544,517.1236 C286.024,531.7456 255.277,549.3629 229.722,564.0054 " fill="none" id="AltaMantenibilidad-Limpieza" style="stroke: #A80036; stroke-width: 1.0;"/><polygon fill="#A80036" points="218.383,570.5023,228.1806,569.4987,222.7213,568.0166,224.2035,562.5574,218.383,570.5023" style="stroke: #A80036; stroke-width: 1.0;"/><line style="stroke: #A80036; stroke-width: 1.0;" x1="222.7213" x2="229.663" y1="568.0166" y2="564.0393"/><polygon fill="#A80036" points="322.858,510.6406,315.6634,510.153,312.4461,516.6066,319.6407,517.0942,322.858,510.6406" style="stroke: #A80036; stroke-width: 1.0;"/><!--link AltaMantenibilidad to Flexibilidad--><path d="M342.838,522.1109 C335.915,533.948 328.166,547.1958 321.236,559.0429 " fill="none" id="AltaMantenibilidad-Flexibilidad" style="stroke: #A80036; stroke-width: 1.0;"/><polygon fill="#A80036" points="314.641,570.319,322.6377,564.5699,317.1654,566.0031,315.7323,560.5308,314.641,570.319" style="stroke: #A80036; stroke-width: 1.0;"/><line style="stroke: #A80036; stroke-width: 1.0;" x1="317.1654" x2="321.2045" y1="566.0031" y2="559.0976"/><polygon fill="#A80036" points="349.547,510.6406,343.0649,513.8002,343.4883,520.9988,349.9704,517.8393,349.547,510.6406" style="stroke: #A80036; stroke-width: 1.0;"/><!--link AltaMantenibilidad to Robustez--><path d="M383.162,522.1109 C390.085,533.948 397.834,547.1958 404.764,559.0429 " fill="none" id="AltaMantenibilidad-Robustez" style="stroke: #A80036; stroke-width: 1.0;"/><polygon fill="#A80036" points="411.359,570.319,410.2677,560.5308,408.8346,566.0031,403.3623,564.5699,411.359,570.319" style="stroke: #A80036; stroke-width: 1.0;"/><line style="stroke: #A80036; stroke-width: 1.0;" x1="408.8346" x2="404.7955" y1="566.0031" y2="559.0976"/><polygon fill="#A80036" points="376.453,510.6406,376.0296,517.8393,382.5117,520.9988,382.9351,513.8002,376.453,510.6406" style="stroke: #A80036; stroke-width: 1.0;"/><!--link AltaMantenibilidad to Reusabilidad--><path d="M416.403,517.1236 C443.008,531.8114 475.086,549.5216 501.679,564.2031 " fill="none" id="AltaMantenibilidad-Reusabilidad" style="stroke: #A80036; stroke-width: 1.0;"/><polygon fill="#A80036" points="513.089,570.5023,507.1431,562.6508,508.7117,568.0858,503.2767,569.6545,513.089,570.5023" style="stroke: #A80036; stroke-width: 1.0;"/><line style="stroke: #A80036; stroke-width: 1.0;" x1="508.7117" x2="501.708" y1="568.0858" y2="564.2191"/><polygon fill="#A80036" points="404.661,510.6406,407.9806,517.0422,415.1666,516.44,411.8469,510.0385,404.661,510.6406" style="stroke: #A80036; stroke-width: 1.0;"/><!--
@startuml

title Producto Software efectivo por buena calidad/mantenibilidad

class "Producto Software" as ProductoSoftware #GreenYellow
ProductoSoftware *-down-> Calidad
class Calidad #CornflowerBlue
Calidad *-down-> Efectividad
Calidad *-down-> Mantenibilidad

class "Producto Software Efectivo" as ProductoSoftwareAltaCalidad #GreenYellow|green
ProductoSoftware <|-down- ProductoSoftwareAltaCalidad

ProductoSoftwareAltaCalidad - -> AltaMantenibilidad

class Efectividad #orange
Efectividad *-down-> Eficacia
Efectividad *-down-> Eficiencia

Efectividad - -> Mantenibilidad

class Eficiencia #orange
class Eficacia #orange
class Usabilidad #CornflowerBlue
class Escalabilidad #CornflowerBlue
Eficacia <|-down- Usabilidad
Eficacia <|-down- Escalabilidad

class Mantenibilidad #CornflowerBlue
class "Alta Mantenibilidad" as AltaMantenibilidad #CornflowerBlue|green
Mantenibilidad <|-down- AltaMantenibilidad

class Limpieza #CornflowerBlue|green
class Flexibilidad #CornflowerBlue|green
class Robustez #CornflowerBlue|green
class Reusabilidad #CornflowerBlue|green

AltaMantenibilidad *-down-> Limpieza
AltaMantenibilidad *-down-> Flexibilidad
AltaMantenibilidad *-down-> Robustez
AltaMantenibilidad *-down-> Reusabilidad

@enduml

PlantUML version 1.2019.05(Sat Apr 20 18:45:36 CEST 2019)
(GPL source distribution)
Java Runtime: Java(TM) SE Runtime Environment
JVM: Java HotSpot(TM) 64-Bit Server VM
Java Version: 1.8.0_211-b12
Operating System: Windows 10
OS Version: 10.0
Default Encoding: windows-1252
Language: es
Country: ES
--></g></svg>