<?xml version="1.0" encoding="UTF-8" standalone="no"?><svg xmlns="http://www.w3.org/2000/svg" xmlns:xlink="http://www.w3.org/1999/xlink" contentScriptType="application/ecmascript" contentStyleType="text/css" height="629px" preserveAspectRatio="none" style="width:829px;height:629px;" version="1.1" viewBox="0 0 829 629" width="829px" zoomAndPan="magnify"><defs><filter height="300%" id="ftkm9fnkp5yj6" width="300%" x="-1" y="-1"><feGaussianBlur result="blurOut" stdDeviation="2.0"/><feColorMatrix in="blurOut" result="blurOut2" type="matrix" values="0 0 0 0 0 0 0 0 0 0 0 0 0 0 0 0 0 0 .4 0"/><feOffset dx="4.0" dy="4.0" in="blurOut2" result="blurOut3"/><feBlend in="SourceGraphic" in2="blurOut3" mode="normal"/></filter><linearGradient id="gtkm9fnkp5yj60" x1="0%" x2="100%" y1="50%" y2="50%"><stop offset="0%" stop-color="#ADFF2F"/><stop offset="100%" stop-color="#FF0000"/></linearGradient><linearGradient id="gtkm9fnkp5yj61" x1="0%" x2="100%" y1="50%" y2="50%"><stop offset="0%" stop-color="#0000FF"/><stop offset="100%" stop-color="#FF0000"/></linearGradient></defs><g><text fill="#000000" font-family="sans-serif" font-size="18" lengthAdjust="spacingAndGlyphs" textLength="496" x="170.5" y="18.6855">Proyecto Software no efectivo por mala disciplina/metodología</text><!--class ProyectoSoftware--><rect fill="#ADFF2F" filter="url(#ftkm9fnkp5yj6)" height="48" id="ProyectoSoftware" style="stroke: #A80036; stroke-width: 1.5;" width="130" x="499" y="30.6406"/><rect fill="#ADFF2F" height="32" style="stroke: #A80036; stroke-width: 1.5;" width="130" x="499" y="30.6406"/><ellipse cx="514" cy="46.6406" fill="#ADD1B2" rx="11" ry="11" style="stroke: #A80036; stroke-width: 1.0;"/><path d="M516.7656,42.5156 Q516.9219,42.2969 517.1094,42.1875 Q517.2969,42.0781 517.5156,42.0781 Q517.8906,42.0781 518.125,42.3359 Q518.3594,42.5938 518.3594,43.2031 L518.3594,44.6563 Q518.3594,45.2656 518.125,45.5313 Q517.8906,45.7969 517.5156,45.7969 Q517.1719,45.7969 516.9688,45.5938 Q516.7656,45.4063 516.6563,44.8906 Q516.6094,44.5313 516.4219,44.3438 Q516.0938,43.9688 515.4844,43.75 Q514.875,43.5313 514.25,43.5313 Q513.4844,43.5313 512.8516,43.8594 Q512.2188,44.1875 511.7266,44.9375 Q511.2344,45.6875 511.2344,46.7188 L511.2344,47.8125 Q511.2344,49.0469 512.125,49.8672 Q513.0156,50.6875 514.6094,50.6875 Q515.5469,50.6875 516.2031,50.4375 Q516.5938,50.2813 517.0156,49.8438 Q517.2813,49.5781 517.4297,49.5 Q517.5781,49.4219 517.7813,49.4219 Q518.1094,49.4219 518.3672,49.6797 Q518.625,49.9375 518.625,50.2813 Q518.625,50.625 518.2813,51.0313 Q517.7813,51.6094 516.9844,51.9375 Q515.9063,52.3906 514.6094,52.3906 Q513.0938,52.3906 511.8906,51.7656 Q510.9063,51.2656 510.2188,50.1953 Q509.5313,49.125 509.5313,47.8438 L509.5313,46.6875 Q509.5313,45.3594 510.1484,44.2109 Q510.7656,43.0625 511.8594,42.4453 Q512.9531,41.8281 514.1875,41.8281 Q514.9219,41.8281 515.5703,41.9922 Q516.2188,42.1563 516.7656,42.5156 Z "/><text fill="#000000" font-family="sans-serif" font-size="12" lengthAdjust="spacingAndGlyphs" textLength="98" x="528" y="51.5508">Proyecto Software</text><line style="stroke: #A80036; stroke-width: 1.5;" x1="500" x2="628" y1="62.6406" y2="62.6406"/><line style="stroke: #A80036; stroke-width: 1.5;" x1="500" x2="628" y1="70.6406" y2="70.6406"/><!--class ProductoSoftware--><rect fill="#ADFF2F" filter="url(#ftkm9fnkp5yj6)" height="48" id="ProductoSoftware" style="stroke: #A80036; stroke-width: 1.5;" width="129" x="689.5" y="138.6406"/><rect fill="#ADFF2F" height="32" style="stroke: #A80036; stroke-width: 1.5;" width="129" x="689.5" y="138.6406"/><ellipse cx="704.5" cy="154.6406" fill="#ADD1B2" rx="11" ry="11" style="stroke: #A80036; stroke-width: 1.0;"/><path d="M707.2656,150.5156 Q707.4219,150.2969 707.6094,150.1875 Q707.7969,150.0781 708.0156,150.0781 Q708.3906,150.0781 708.625,150.3359 Q708.8594,150.5938 708.8594,151.2031 L708.8594,152.6563 Q708.8594,153.2656 708.625,153.5313 Q708.3906,153.7969 708.0156,153.7969 Q707.6719,153.7969 707.4688,153.5938 Q707.2656,153.4063 707.1563,152.8906 Q707.1094,152.5313 706.9219,152.3438 Q706.5938,151.9688 705.9844,151.75 Q705.375,151.5313 704.75,151.5313 Q703.9844,151.5313 703.3516,151.8594 Q702.7188,152.1875 702.2266,152.9375 Q701.7344,153.6875 701.7344,154.7188 L701.7344,155.8125 Q701.7344,157.0469 702.625,157.8672 Q703.5156,158.6875 705.1094,158.6875 Q706.0469,158.6875 706.7031,158.4375 Q707.0938,158.2813 707.5156,157.8438 Q707.7813,157.5781 707.9297,157.5 Q708.0781,157.4219 708.2813,157.4219 Q708.6094,157.4219 708.8672,157.6797 Q709.125,157.9375 709.125,158.2813 Q709.125,158.625 708.7813,159.0313 Q708.2813,159.6094 707.4844,159.9375 Q706.4063,160.3906 705.1094,160.3906 Q703.5938,160.3906 702.3906,159.7656 Q701.4063,159.2656 700.7188,158.1953 Q700.0313,157.125 700.0313,155.8438 L700.0313,154.6875 Q700.0313,153.3594 700.6484,152.2109 Q701.2656,151.0625 702.3594,150.4453 Q703.4531,149.8281 704.6875,149.8281 Q705.4219,149.8281 706.0703,149.9922 Q706.7188,150.1563 707.2656,150.5156 Z "/><text fill="#000000" font-family="sans-serif" font-size="12" lengthAdjust="spacingAndGlyphs" textLength="97" x="718.5" y="159.5508">ProductoSoftware</text><line style="stroke: #A80036; stroke-width: 1.5;" x1="690.5" x2="817.5" y1="170.6406" y2="170.6406"/><line style="stroke: #A80036; stroke-width: 1.5;" x1="690.5" x2="817.5" y1="178.6406" y2="178.6406"/><!--class Variable--><rect fill="#0000FF" filter="url(#ftkm9fnkp5yj6)" height="48" id="Variable" style="stroke: #A80036; stroke-width: 1.5;" width="77" x="588.5" y="246.6406"/><rect fill="#0000FF" height="32" style="stroke: #A80036; stroke-width: 1.5;" width="77" x="588.5" y="246.6406"/><ellipse cx="603.5" cy="262.6406" fill="#ADD1B2" rx="11" ry="11" style="stroke: #A80036; stroke-width: 1.0;"/><path d="M606.2656,258.5156 Q606.4219,258.2969 606.6094,258.1875 Q606.7969,258.0781 607.0156,258.0781 Q607.3906,258.0781 607.625,258.3359 Q607.8594,258.5938 607.8594,259.2031 L607.8594,260.6563 Q607.8594,261.2656 607.625,261.5313 Q607.3906,261.7969 607.0156,261.7969 Q606.6719,261.7969 606.4688,261.5938 Q606.2656,261.4063 606.1563,260.8906 Q606.1094,260.5313 605.9219,260.3438 Q605.5938,259.9688 604.9844,259.75 Q604.375,259.5313 603.75,259.5313 Q602.9844,259.5313 602.3516,259.8594 Q601.7188,260.1875 601.2266,260.9375 Q600.7344,261.6875 600.7344,262.7188 L600.7344,263.8125 Q600.7344,265.0469 601.625,265.8672 Q602.5156,266.6875 604.1094,266.6875 Q605.0469,266.6875 605.7031,266.4375 Q606.0938,266.2813 606.5156,265.8438 Q606.7813,265.5781 606.9297,265.5 Q607.0781,265.4219 607.2813,265.4219 Q607.6094,265.4219 607.8672,265.6797 Q608.125,265.9375 608.125,266.2813 Q608.125,266.625 607.7813,267.0313 Q607.2813,267.6094 606.4844,267.9375 Q605.4063,268.3906 604.1094,268.3906 Q602.5938,268.3906 601.3906,267.7656 Q600.4063,267.2656 599.7188,266.1953 Q599.0313,265.125 599.0313,263.8438 L599.0313,262.6875 Q599.0313,261.3594 599.6484,260.2109 Q600.2656,259.0625 601.3594,258.4453 Q602.4531,257.8281 603.6875,257.8281 Q604.4219,257.8281 605.0703,257.9922 Q605.7188,258.1563 606.2656,258.5156 Z "/><text fill="#000000" font-family="sans-serif" font-size="12" lengthAdjust="spacingAndGlyphs" textLength="45" x="617.5" y="267.5508">Variable</text><line style="stroke: #A80036; stroke-width: 1.5;" x1="589.5" x2="664.5" y1="278.6406" y2="278.6406"/><line style="stroke: #A80036; stroke-width: 1.5;" x1="589.5" x2="664.5" y1="286.6406" y2="286.6406"/><!--class Efectividad--><rect fill="#FFA500" filter="url(#ftkm9fnkp5yj6)" height="48" id="Efectividad" style="stroke: #A80036; stroke-width: 1.5;" width="91" x="465.5" y="138.6406"/><rect fill="#FFA500" height="32" style="stroke: #A80036; stroke-width: 1.5;" width="91" x="465.5" y="138.6406"/><ellipse cx="480.5" cy="154.6406" fill="#ADD1B2" rx="11" ry="11" style="stroke: #A80036; stroke-width: 1.0;"/><path d="M483.2656,150.5156 Q483.4219,150.2969 483.6094,150.1875 Q483.7969,150.0781 484.0156,150.0781 Q484.3906,150.0781 484.625,150.3359 Q484.8594,150.5938 484.8594,151.2031 L484.8594,152.6563 Q484.8594,153.2656 484.625,153.5313 Q484.3906,153.7969 484.0156,153.7969 Q483.6719,153.7969 483.4688,153.5938 Q483.2656,153.4063 483.1563,152.8906 Q483.1094,152.5313 482.9219,152.3438 Q482.5938,151.9688 481.9844,151.75 Q481.375,151.5313 480.75,151.5313 Q479.9844,151.5313 479.3516,151.8594 Q478.7188,152.1875 478.2266,152.9375 Q477.7344,153.6875 477.7344,154.7188 L477.7344,155.8125 Q477.7344,157.0469 478.625,157.8672 Q479.5156,158.6875 481.1094,158.6875 Q482.0469,158.6875 482.7031,158.4375 Q483.0938,158.2813 483.5156,157.8438 Q483.7813,157.5781 483.9297,157.5 Q484.0781,157.4219 484.2813,157.4219 Q484.6094,157.4219 484.8672,157.6797 Q485.125,157.9375 485.125,158.2813 Q485.125,158.625 484.7813,159.0313 Q484.2813,159.6094 483.4844,159.9375 Q482.4063,160.3906 481.1094,160.3906 Q479.5938,160.3906 478.3906,159.7656 Q477.4063,159.2656 476.7188,158.1953 Q476.0313,157.125 476.0313,155.8438 L476.0313,154.6875 Q476.0313,153.3594 476.6484,152.2109 Q477.2656,151.0625 478.3594,150.4453 Q479.4531,149.8281 480.6875,149.8281 Q481.4219,149.8281 482.0703,149.9922 Q482.7188,150.1563 483.2656,150.5156 Z "/><text fill="#000000" font-family="sans-serif" font-size="12" lengthAdjust="spacingAndGlyphs" textLength="59" x="494.5" y="159.5508">Efectividad</text><line style="stroke: #A80036; stroke-width: 1.5;" x1="466.5" x2="555.5" y1="170.6406" y2="170.6406"/><line style="stroke: #A80036; stroke-width: 1.5;" x1="466.5" x2="555.5" y1="178.6406" y2="178.6406"/><!--class ProyectoNoPlanificado--><rect fill="url(#gtkm9fnkp5yj60)" filter="url(#ftkm9fnkp5yj6)" height="48" id="ProyectoNoPlanificado" style="stroke: #A80036; stroke-width: 1.5;" width="143" x="6.5" y="354.6406"/><rect fill="url(#gtkm9fnkp5yj60)" height="32" style="stroke: #A80036; stroke-width: 1.5;" width="143" x="6.5" y="354.6406"/><ellipse cx="21.5" cy="370.6406" fill="#ADD1B2" rx="11" ry="11" style="stroke: #A80036; stroke-width: 1.0;"/><path d="M24.2656,366.5156 Q24.4219,366.2969 24.6094,366.1875 Q24.7969,366.0781 25.0156,366.0781 Q25.3906,366.0781 25.625,366.3359 Q25.8594,366.5938 25.8594,367.2031 L25.8594,368.6563 Q25.8594,369.2656 25.625,369.5313 Q25.3906,369.7969 25.0156,369.7969 Q24.6719,369.7969 24.4688,369.5938 Q24.2656,369.4063 24.1563,368.8906 Q24.1094,368.5313 23.9219,368.3438 Q23.5938,367.9688 22.9844,367.75 Q22.375,367.5313 21.75,367.5313 Q20.9844,367.5313 20.3516,367.8594 Q19.7188,368.1875 19.2266,368.9375 Q18.7344,369.6875 18.7344,370.7188 L18.7344,371.8125 Q18.7344,373.0469 19.625,373.8672 Q20.5156,374.6875 22.1094,374.6875 Q23.0469,374.6875 23.7031,374.4375 Q24.0938,374.2813 24.5156,373.8438 Q24.7813,373.5781 24.9297,373.5 Q25.0781,373.4219 25.2813,373.4219 Q25.6094,373.4219 25.8672,373.6797 Q26.125,373.9375 26.125,374.2813 Q26.125,374.625 25.7813,375.0313 Q25.2813,375.6094 24.4844,375.9375 Q23.4063,376.3906 22.1094,376.3906 Q20.5938,376.3906 19.3906,375.7656 Q18.4063,375.2656 17.7188,374.1953 Q17.0313,373.125 17.0313,371.8438 L17.0313,370.6875 Q17.0313,369.3594 17.6484,368.2109 Q18.2656,367.0625 19.3594,366.4453 Q20.4531,365.8281 21.6875,365.8281 Q22.4219,365.8281 23.0703,365.9922 Q23.7188,366.1563 24.2656,366.5156 Z "/><text fill="#000000" font-family="sans-serif" font-size="12" lengthAdjust="spacingAndGlyphs" textLength="111" x="35.5" y="375.5508">Proyecto No Efectivo</text><line style="stroke: #A80036; stroke-width: 1.5;" x1="7.5" x2="148.5" y1="386.6406" y2="386.6406"/><line style="stroke: #A80036; stroke-width: 1.5;" x1="7.5" x2="148.5" y1="394.6406" y2="394.6406"/><path d="M184.5,365.6406 L184.5,374.6406 L149.764,378.6406 L184.5,382.6406 L184.5,391.9922 A0,0 0 0 0 184.5,391.9922 L333.5,391.9922 A0,0 0 0 0 333.5,391.9922 L333.5,375.6406 L323.5,365.6406 L184.5,365.6406 A0,0 0 0 0 184.5,365.6406 " fill="#FBFB77" filter="url(#ftkm9fnkp5yj6)" style="stroke: #A80036; stroke-width: 1.0;"/><path d="M323.5,365.6406 L323.5,375.6406 L333.5,375.6406 L323.5,365.6406 " fill="#FBFB77" style="stroke: #A80036; stroke-width: 1.0;"/><text fill="#000000" font-family="sans-serif" font-size="13" lengthAdjust="spacingAndGlyphs" textLength="128" x="190.5" y="384.1357">tarde, mal y caro!?!??!</text><!--class Calidad--><rect fill="#6495ED" filter="url(#ftkm9fnkp5yj6)" height="48" id="Calidad" style="stroke: #A80036; stroke-width: 1.5;" width="75" x="578.5" y="462.6406"/><rect fill="#6495ED" height="32" style="stroke: #A80036; stroke-width: 1.5;" width="75" x="578.5" y="462.6406"/><ellipse cx="593.5" cy="478.6406" fill="#ADD1B2" rx="11" ry="11" style="stroke: #A80036; stroke-width: 1.0;"/><path d="M596.2656,474.5156 Q596.4219,474.2969 596.6094,474.1875 Q596.7969,474.0781 597.0156,474.0781 Q597.3906,474.0781 597.625,474.3359 Q597.8594,474.5938 597.8594,475.2031 L597.8594,476.6563 Q597.8594,477.2656 597.625,477.5313 Q597.3906,477.7969 597.0156,477.7969 Q596.6719,477.7969 596.4688,477.5938 Q596.2656,477.4063 596.1563,476.8906 Q596.1094,476.5313 595.9219,476.3438 Q595.5938,475.9688 594.9844,475.75 Q594.375,475.5313 593.75,475.5313 Q592.9844,475.5313 592.3516,475.8594 Q591.7188,476.1875 591.2266,476.9375 Q590.7344,477.6875 590.7344,478.7188 L590.7344,479.8125 Q590.7344,481.0469 591.625,481.8672 Q592.5156,482.6875 594.1094,482.6875 Q595.0469,482.6875 595.7031,482.4375 Q596.0938,482.2813 596.5156,481.8438 Q596.7813,481.5781 596.9297,481.5 Q597.0781,481.4219 597.2813,481.4219 Q597.6094,481.4219 597.8672,481.6797 Q598.125,481.9375 598.125,482.2813 Q598.125,482.625 597.7813,483.0313 Q597.2813,483.6094 596.4844,483.9375 Q595.4063,484.3906 594.1094,484.3906 Q592.5938,484.3906 591.3906,483.7656 Q590.4063,483.2656 589.7188,482.1953 Q589.0313,481.125 589.0313,479.8438 L589.0313,478.6875 Q589.0313,477.3594 589.6484,476.2109 Q590.2656,475.0625 591.3594,474.4453 Q592.4531,473.8281 593.6875,473.8281 Q594.4219,473.8281 595.0703,473.9922 Q595.7188,474.1563 596.2656,474.5156 Z "/><text fill="#000000" font-family="sans-serif" font-size="12" lengthAdjust="spacingAndGlyphs" textLength="43" x="607.5" y="483.5508">Calidad</text><line style="stroke: #A80036; stroke-width: 1.5;" x1="579.5" x2="652.5" y1="494.6406" y2="494.6406"/><line style="stroke: #A80036; stroke-width: 1.5;" x1="579.5" x2="652.5" y1="502.6406" y2="502.6406"/><!--class Mantenibilidad--><rect fill="#6495ED" filter="url(#ftkm9fnkp5yj6)" height="48" id="Mantenibilidad" style="stroke: #A80036; stroke-width: 1.5;" width="112" x="560" y="570.6406"/><rect fill="#6495ED" height="32" style="stroke: #A80036; stroke-width: 1.5;" width="112" x="560" y="570.6406"/><ellipse cx="575" cy="586.6406" fill="#ADD1B2" rx="11" ry="11" style="stroke: #A80036; stroke-width: 1.0;"/><path d="M577.7656,582.5156 Q577.9219,582.2969 578.1094,582.1875 Q578.2969,582.0781 578.5156,582.0781 Q578.8906,582.0781 579.125,582.3359 Q579.3594,582.5938 579.3594,583.2031 L579.3594,584.6563 Q579.3594,585.2656 579.125,585.5313 Q578.8906,585.7969 578.5156,585.7969 Q578.1719,585.7969 577.9688,585.5938 Q577.7656,585.4063 577.6563,584.8906 Q577.6094,584.5313 577.4219,584.3438 Q577.0938,583.9688 576.4844,583.75 Q575.875,583.5313 575.25,583.5313 Q574.4844,583.5313 573.8516,583.8594 Q573.2188,584.1875 572.7266,584.9375 Q572.2344,585.6875 572.2344,586.7188 L572.2344,587.8125 Q572.2344,589.0469 573.125,589.8672 Q574.0156,590.6875 575.6094,590.6875 Q576.5469,590.6875 577.2031,590.4375 Q577.5938,590.2813 578.0156,589.8438 Q578.2813,589.5781 578.4297,589.5 Q578.5781,589.4219 578.7813,589.4219 Q579.1094,589.4219 579.3672,589.6797 Q579.625,589.9375 579.625,590.2813 Q579.625,590.625 579.2813,591.0313 Q578.7813,591.6094 577.9844,591.9375 Q576.9063,592.3906 575.6094,592.3906 Q574.0938,592.3906 572.8906,591.7656 Q571.9063,591.2656 571.2188,590.1953 Q570.5313,589.125 570.5313,587.8438 L570.5313,586.6875 Q570.5313,585.3594 571.1484,584.2109 Q571.7656,583.0625 572.8594,582.4453 Q573.9531,581.8281 575.1875,581.8281 Q575.9219,581.8281 576.5703,581.9922 Q577.2188,582.1563 577.7656,582.5156 Z "/><text fill="#000000" font-family="sans-serif" font-size="12" lengthAdjust="spacingAndGlyphs" textLength="80" x="589" y="591.5508">Mantenibilidad</text><line style="stroke: #A80036; stroke-width: 1.5;" x1="561" x2="671" y1="602.6406" y2="602.6406"/><line style="stroke: #A80036; stroke-width: 1.5;" x1="561" x2="671" y1="610.6406" y2="610.6406"/><!--class Eficacia--><rect fill="#FFA500" filter="url(#ftkm9fnkp5yj6)" height="48" id="Eficacia" style="stroke: #A80036; stroke-width: 1.5;" width="75" x="358.5" y="246.6406"/><rect fill="#FFA500" height="32" style="stroke: #A80036; stroke-width: 1.5;" width="75" x="358.5" y="246.6406"/><ellipse cx="373.5" cy="262.6406" fill="#ADD1B2" rx="11" ry="11" style="stroke: #A80036; stroke-width: 1.0;"/><path d="M376.2656,258.5156 Q376.4219,258.2969 376.6094,258.1875 Q376.7969,258.0781 377.0156,258.0781 Q377.3906,258.0781 377.625,258.3359 Q377.8594,258.5938 377.8594,259.2031 L377.8594,260.6563 Q377.8594,261.2656 377.625,261.5313 Q377.3906,261.7969 377.0156,261.7969 Q376.6719,261.7969 376.4688,261.5938 Q376.2656,261.4063 376.1563,260.8906 Q376.1094,260.5313 375.9219,260.3438 Q375.5938,259.9688 374.9844,259.75 Q374.375,259.5313 373.75,259.5313 Q372.9844,259.5313 372.3516,259.8594 Q371.7188,260.1875 371.2266,260.9375 Q370.7344,261.6875 370.7344,262.7188 L370.7344,263.8125 Q370.7344,265.0469 371.625,265.8672 Q372.5156,266.6875 374.1094,266.6875 Q375.0469,266.6875 375.7031,266.4375 Q376.0938,266.2813 376.5156,265.8438 Q376.7813,265.5781 376.9297,265.5 Q377.0781,265.4219 377.2813,265.4219 Q377.6094,265.4219 377.8672,265.6797 Q378.125,265.9375 378.125,266.2813 Q378.125,266.625 377.7813,267.0313 Q377.2813,267.6094 376.4844,267.9375 Q375.4063,268.3906 374.1094,268.3906 Q372.5938,268.3906 371.3906,267.7656 Q370.4063,267.2656 369.7188,266.1953 Q369.0313,265.125 369.0313,263.8438 L369.0313,262.6875 Q369.0313,261.3594 369.6484,260.2109 Q370.2656,259.0625 371.3594,258.4453 Q372.4531,257.8281 373.6875,257.8281 Q374.4219,257.8281 375.0703,257.9922 Q375.7188,258.1563 376.2656,258.5156 Z "/><text fill="#000000" font-family="sans-serif" font-size="12" lengthAdjust="spacingAndGlyphs" textLength="43" x="387.5" y="267.5508">Eficacia</text><line style="stroke: #A80036; stroke-width: 1.5;" x1="359.5" x2="432.5" y1="278.6406" y2="278.6406"/><line style="stroke: #A80036; stroke-width: 1.5;" x1="359.5" x2="432.5" y1="286.6406" y2="286.6406"/><!--class Eficiencia--><rect fill="#FFA500" filter="url(#ftkm9fnkp5yj6)" height="48" id="Eficiencia" style="stroke: #A80036; stroke-width: 1.5;" width="85" x="468.5" y="246.6406"/><rect fill="#FFA500" height="32" style="stroke: #A80036; stroke-width: 1.5;" width="85" x="468.5" y="246.6406"/><ellipse cx="483.5" cy="262.6406" fill="#ADD1B2" rx="11" ry="11" style="stroke: #A80036; stroke-width: 1.0;"/><path d="M486.2656,258.5156 Q486.4219,258.2969 486.6094,258.1875 Q486.7969,258.0781 487.0156,258.0781 Q487.3906,258.0781 487.625,258.3359 Q487.8594,258.5938 487.8594,259.2031 L487.8594,260.6563 Q487.8594,261.2656 487.625,261.5313 Q487.3906,261.7969 487.0156,261.7969 Q486.6719,261.7969 486.4688,261.5938 Q486.2656,261.4063 486.1563,260.8906 Q486.1094,260.5313 485.9219,260.3438 Q485.5938,259.9688 484.9844,259.75 Q484.375,259.5313 483.75,259.5313 Q482.9844,259.5313 482.3516,259.8594 Q481.7188,260.1875 481.2266,260.9375 Q480.7344,261.6875 480.7344,262.7188 L480.7344,263.8125 Q480.7344,265.0469 481.625,265.8672 Q482.5156,266.6875 484.1094,266.6875 Q485.0469,266.6875 485.7031,266.4375 Q486.0938,266.2813 486.5156,265.8438 Q486.7813,265.5781 486.9297,265.5 Q487.0781,265.4219 487.2813,265.4219 Q487.6094,265.4219 487.8672,265.6797 Q488.125,265.9375 488.125,266.2813 Q488.125,266.625 487.7813,267.0313 Q487.2813,267.6094 486.4844,267.9375 Q485.4063,268.3906 484.1094,268.3906 Q482.5938,268.3906 481.3906,267.7656 Q480.4063,267.2656 479.7188,266.1953 Q479.0313,265.125 479.0313,263.8438 L479.0313,262.6875 Q479.0313,261.3594 479.6484,260.2109 Q480.2656,259.0625 481.3594,258.4453 Q482.4531,257.8281 483.6875,257.8281 Q484.4219,257.8281 485.0703,257.9922 Q485.7188,258.1563 486.2656,258.5156 Z "/><text fill="#000000" font-family="sans-serif" font-size="12" lengthAdjust="spacingAndGlyphs" textLength="53" x="497.5" y="267.5508">Eficiencia</text><line style="stroke: #A80036; stroke-width: 1.5;" x1="469.5" x2="552.5" y1="278.6406" y2="278.6406"/><line style="stroke: #A80036; stroke-width: 1.5;" x1="469.5" x2="552.5" y1="286.6406" y2="286.6406"/><!--class Ambito--><rect fill="#0000FF" filter="url(#ftkm9fnkp5yj6)" height="48" id="Ambito" style="stroke: #A80036; stroke-width: 1.5;" width="70" x="369" y="354.6406"/><rect fill="#0000FF" height="32" style="stroke: #A80036; stroke-width: 1.5;" width="70" x="369" y="354.6406"/><ellipse cx="384" cy="370.6406" fill="#ADD1B2" rx="11" ry="11" style="stroke: #A80036; stroke-width: 1.0;"/><path d="M386.7656,366.5156 Q386.9219,366.2969 387.1094,366.1875 Q387.2969,366.0781 387.5156,366.0781 Q387.8906,366.0781 388.125,366.3359 Q388.3594,366.5938 388.3594,367.2031 L388.3594,368.6563 Q388.3594,369.2656 388.125,369.5313 Q387.8906,369.7969 387.5156,369.7969 Q387.1719,369.7969 386.9688,369.5938 Q386.7656,369.4063 386.6563,368.8906 Q386.6094,368.5313 386.4219,368.3438 Q386.0938,367.9688 385.4844,367.75 Q384.875,367.5313 384.25,367.5313 Q383.4844,367.5313 382.8516,367.8594 Q382.2188,368.1875 381.7266,368.9375 Q381.2344,369.6875 381.2344,370.7188 L381.2344,371.8125 Q381.2344,373.0469 382.125,373.8672 Q383.0156,374.6875 384.6094,374.6875 Q385.5469,374.6875 386.2031,374.4375 Q386.5938,374.2813 387.0156,373.8438 Q387.2813,373.5781 387.4297,373.5 Q387.5781,373.4219 387.7813,373.4219 Q388.1094,373.4219 388.3672,373.6797 Q388.625,373.9375 388.625,374.2813 Q388.625,374.625 388.2813,375.0313 Q387.7813,375.6094 386.9844,375.9375 Q385.9063,376.3906 384.6094,376.3906 Q383.0938,376.3906 381.8906,375.7656 Q380.9063,375.2656 380.2188,374.1953 Q379.5313,373.125 379.5313,371.8438 L379.5313,370.6875 Q379.5313,369.3594 380.1484,368.2109 Q380.7656,367.0625 381.8594,366.4453 Q382.9531,365.8281 384.1875,365.8281 Q384.9219,365.8281 385.5703,365.9922 Q386.2188,366.1563 386.7656,366.5156 Z "/><text fill="#000000" font-family="sans-serif" font-size="12" lengthAdjust="spacingAndGlyphs" textLength="38" x="398" y="375.5508">Ambito</text><line style="stroke: #A80036; stroke-width: 1.5;" x1="370" x2="438" y1="386.6406" y2="386.6406"/><line style="stroke: #A80036; stroke-width: 1.5;" x1="370" x2="438" y1="394.6406" y2="394.6406"/><!--class Tiempo--><rect fill="#0000FF" filter="url(#ftkm9fnkp5yj6)" height="48" id="Tiempo" style="stroke: #A80036; stroke-width: 1.5;" width="74" x="474" y="354.6406"/><rect fill="#0000FF" height="32" style="stroke: #A80036; stroke-width: 1.5;" width="74" x="474" y="354.6406"/><ellipse cx="489" cy="370.6406" fill="#ADD1B2" rx="11" ry="11" style="stroke: #A80036; stroke-width: 1.0;"/><path d="M491.7656,366.5156 Q491.9219,366.2969 492.1094,366.1875 Q492.2969,366.0781 492.5156,366.0781 Q492.8906,366.0781 493.125,366.3359 Q493.3594,366.5938 493.3594,367.2031 L493.3594,368.6563 Q493.3594,369.2656 493.125,369.5313 Q492.8906,369.7969 492.5156,369.7969 Q492.1719,369.7969 491.9688,369.5938 Q491.7656,369.4063 491.6563,368.8906 Q491.6094,368.5313 491.4219,368.3438 Q491.0938,367.9688 490.4844,367.75 Q489.875,367.5313 489.25,367.5313 Q488.4844,367.5313 487.8516,367.8594 Q487.2188,368.1875 486.7266,368.9375 Q486.2344,369.6875 486.2344,370.7188 L486.2344,371.8125 Q486.2344,373.0469 487.125,373.8672 Q488.0156,374.6875 489.6094,374.6875 Q490.5469,374.6875 491.2031,374.4375 Q491.5938,374.2813 492.0156,373.8438 Q492.2813,373.5781 492.4297,373.5 Q492.5781,373.4219 492.7813,373.4219 Q493.1094,373.4219 493.3672,373.6797 Q493.625,373.9375 493.625,374.2813 Q493.625,374.625 493.2813,375.0313 Q492.7813,375.6094 491.9844,375.9375 Q490.9063,376.3906 489.6094,376.3906 Q488.0938,376.3906 486.8906,375.7656 Q485.9063,375.2656 485.2188,374.1953 Q484.5313,373.125 484.5313,371.8438 L484.5313,370.6875 Q484.5313,369.3594 485.1484,368.2109 Q485.7656,367.0625 486.8594,366.4453 Q487.9531,365.8281 489.1875,365.8281 Q489.9219,365.8281 490.5703,365.9922 Q491.2188,366.1563 491.7656,366.5156 Z "/><text fill="#000000" font-family="sans-serif" font-size="12" lengthAdjust="spacingAndGlyphs" textLength="42" x="503" y="375.5508">Tiempo</text><line style="stroke: #A80036; stroke-width: 1.5;" x1="475" x2="547" y1="386.6406" y2="386.6406"/><line style="stroke: #A80036; stroke-width: 1.5;" x1="475" x2="547" y1="394.6406" y2="394.6406"/><!--class Coste--><rect fill="#0000FF" filter="url(#ftkm9fnkp5yj6)" height="48" id="Coste" style="stroke: #A80036; stroke-width: 1.5;" width="65" x="583.5" y="354.6406"/><rect fill="#0000FF" height="32" style="stroke: #A80036; stroke-width: 1.5;" width="65" x="583.5" y="354.6406"/><ellipse cx="598.5" cy="370.6406" fill="#ADD1B2" rx="11" ry="11" style="stroke: #A80036; stroke-width: 1.0;"/><path d="M601.2656,366.5156 Q601.4219,366.2969 601.6094,366.1875 Q601.7969,366.0781 602.0156,366.0781 Q602.3906,366.0781 602.625,366.3359 Q602.8594,366.5938 602.8594,367.2031 L602.8594,368.6563 Q602.8594,369.2656 602.625,369.5313 Q602.3906,369.7969 602.0156,369.7969 Q601.6719,369.7969 601.4688,369.5938 Q601.2656,369.4063 601.1563,368.8906 Q601.1094,368.5313 600.9219,368.3438 Q600.5938,367.9688 599.9844,367.75 Q599.375,367.5313 598.75,367.5313 Q597.9844,367.5313 597.3516,367.8594 Q596.7188,368.1875 596.2266,368.9375 Q595.7344,369.6875 595.7344,370.7188 L595.7344,371.8125 Q595.7344,373.0469 596.625,373.8672 Q597.5156,374.6875 599.1094,374.6875 Q600.0469,374.6875 600.7031,374.4375 Q601.0938,374.2813 601.5156,373.8438 Q601.7813,373.5781 601.9297,373.5 Q602.0781,373.4219 602.2813,373.4219 Q602.6094,373.4219 602.8672,373.6797 Q603.125,373.9375 603.125,374.2813 Q603.125,374.625 602.7813,375.0313 Q602.2813,375.6094 601.4844,375.9375 Q600.4063,376.3906 599.1094,376.3906 Q597.5938,376.3906 596.3906,375.7656 Q595.4063,375.2656 594.7188,374.1953 Q594.0313,373.125 594.0313,371.8438 L594.0313,370.6875 Q594.0313,369.3594 594.6484,368.2109 Q595.2656,367.0625 596.3594,366.4453 Q597.4531,365.8281 598.6875,365.8281 Q599.4219,365.8281 600.0703,365.9922 Q600.7188,366.1563 601.2656,366.5156 Z "/><text fill="#000000" font-family="sans-serif" font-size="12" lengthAdjust="spacingAndGlyphs" textLength="33" x="612.5" y="375.5508">Coste</text><line style="stroke: #A80036; stroke-width: 1.5;" x1="584.5" x2="647.5" y1="386.6406" y2="386.6406"/><line style="stroke: #A80036; stroke-width: 1.5;" x1="584.5" x2="647.5" y1="394.6406" y2="394.6406"/><!--class TiempoNoPlanificado--><rect fill="url(#gtkm9fnkp5yj61)" filter="url(#ftkm9fnkp5yj6)" height="48" id="TiempoNoPlanificado" style="stroke: #A80036; stroke-width: 1.5;" width="154" x="196" y="462.6406"/><rect fill="url(#gtkm9fnkp5yj61)" height="32" style="stroke: #A80036; stroke-width: 1.5;" width="154" x="196" y="462.6406"/><ellipse cx="211" cy="478.6406" fill="#ADD1B2" rx="11" ry="11" style="stroke: #A80036; stroke-width: 1.0;"/><path d="M213.7656,474.5156 Q213.9219,474.2969 214.1094,474.1875 Q214.2969,474.0781 214.5156,474.0781 Q214.8906,474.0781 215.125,474.3359 Q215.3594,474.5938 215.3594,475.2031 L215.3594,476.6563 Q215.3594,477.2656 215.125,477.5313 Q214.8906,477.7969 214.5156,477.7969 Q214.1719,477.7969 213.9688,477.5938 Q213.7656,477.4063 213.6563,476.8906 Q213.6094,476.5313 213.4219,476.3438 Q213.0938,475.9688 212.4844,475.75 Q211.875,475.5313 211.25,475.5313 Q210.4844,475.5313 209.8516,475.8594 Q209.2188,476.1875 208.7266,476.9375 Q208.2344,477.6875 208.2344,478.7188 L208.2344,479.8125 Q208.2344,481.0469 209.125,481.8672 Q210.0156,482.6875 211.6094,482.6875 Q212.5469,482.6875 213.2031,482.4375 Q213.5938,482.2813 214.0156,481.8438 Q214.2813,481.5781 214.4297,481.5 Q214.5781,481.4219 214.7813,481.4219 Q215.1094,481.4219 215.3672,481.6797 Q215.625,481.9375 215.625,482.2813 Q215.625,482.625 215.2813,483.0313 Q214.7813,483.6094 213.9844,483.9375 Q212.9063,484.3906 211.6094,484.3906 Q210.0938,484.3906 208.8906,483.7656 Q207.9063,483.2656 207.2188,482.1953 Q206.5313,481.125 206.5313,479.8438 L206.5313,478.6875 Q206.5313,477.3594 207.1484,476.2109 Q207.7656,475.0625 208.8594,474.4453 Q209.9531,473.8281 211.1875,473.8281 Q211.9219,473.8281 212.5703,473.9922 Q213.2188,474.1563 213.7656,474.5156 Z "/><text fill="#000000" font-family="sans-serif" font-size="12" lengthAdjust="spacingAndGlyphs" textLength="122" x="225" y="483.5508">Tiempo no planificado</text><line style="stroke: #A80036; stroke-width: 1.5;" x1="197" x2="349" y1="494.6406" y2="494.6406"/><line style="stroke: #A80036; stroke-width: 1.5;" x1="197" x2="349" y1="502.6406" y2="502.6406"/><!--class AmbitoNoPlanificado--><rect fill="url(#gtkm9fnkp5yj61)" filter="url(#ftkm9fnkp5yj6)" height="48" id="AmbitoNoPlanificado" style="stroke: #A80036; stroke-width: 1.5;" width="150" x="6" y="462.6406"/><rect fill="url(#gtkm9fnkp5yj61)" height="32" style="stroke: #A80036; stroke-width: 1.5;" width="150" x="6" y="462.6406"/><ellipse cx="21" cy="478.6406" fill="#ADD1B2" rx="11" ry="11" style="stroke: #A80036; stroke-width: 1.0;"/><path d="M23.7656,474.5156 Q23.9219,474.2969 24.1094,474.1875 Q24.2969,474.0781 24.5156,474.0781 Q24.8906,474.0781 25.125,474.3359 Q25.3594,474.5938 25.3594,475.2031 L25.3594,476.6563 Q25.3594,477.2656 25.125,477.5313 Q24.8906,477.7969 24.5156,477.7969 Q24.1719,477.7969 23.9688,477.5938 Q23.7656,477.4063 23.6563,476.8906 Q23.6094,476.5313 23.4219,476.3438 Q23.0938,475.9688 22.4844,475.75 Q21.875,475.5313 21.25,475.5313 Q20.4844,475.5313 19.8516,475.8594 Q19.2188,476.1875 18.7266,476.9375 Q18.2344,477.6875 18.2344,478.7188 L18.2344,479.8125 Q18.2344,481.0469 19.125,481.8672 Q20.0156,482.6875 21.6094,482.6875 Q22.5469,482.6875 23.2031,482.4375 Q23.5938,482.2813 24.0156,481.8438 Q24.2813,481.5781 24.4297,481.5 Q24.5781,481.4219 24.7813,481.4219 Q25.1094,481.4219 25.3672,481.6797 Q25.625,481.9375 25.625,482.2813 Q25.625,482.625 25.2813,483.0313 Q24.7813,483.6094 23.9844,483.9375 Q22.9063,484.3906 21.6094,484.3906 Q20.0938,484.3906 18.8906,483.7656 Q17.9063,483.2656 17.2188,482.1953 Q16.5313,481.125 16.5313,479.8438 L16.5313,478.6875 Q16.5313,477.3594 17.1484,476.2109 Q17.7656,475.0625 18.8594,474.4453 Q19.9531,473.8281 21.1875,473.8281 Q21.9219,473.8281 22.5703,473.9922 Q23.2188,474.1563 23.7656,474.5156 Z "/><text fill="#000000" font-family="sans-serif" font-size="12" lengthAdjust="spacingAndGlyphs" textLength="118" x="35" y="483.5508">Ámbito no planificado</text><line style="stroke: #A80036; stroke-width: 1.5;" x1="7" x2="155" y1="494.6406" y2="494.6406"/><line style="stroke: #A80036; stroke-width: 1.5;" x1="7" x2="155" y1="502.6406" y2="502.6406"/><!--class CosteNoPlanificado--><rect fill="url(#gtkm9fnkp5yj61)" filter="url(#ftkm9fnkp5yj6)" height="48" id="CosteNoPlanificado" style="stroke: #A80036; stroke-width: 1.5;" width="145" x="395.5" y="462.6406"/><rect fill="url(#gtkm9fnkp5yj61)" height="32" style="stroke: #A80036; stroke-width: 1.5;" width="145" x="395.5" y="462.6406"/><ellipse cx="410.5" cy="478.6406" fill="#ADD1B2" rx="11" ry="11" style="stroke: #A80036; stroke-width: 1.0;"/><path d="M413.2656,474.5156 Q413.4219,474.2969 413.6094,474.1875 Q413.7969,474.0781 414.0156,474.0781 Q414.3906,474.0781 414.625,474.3359 Q414.8594,474.5938 414.8594,475.2031 L414.8594,476.6563 Q414.8594,477.2656 414.625,477.5313 Q414.3906,477.7969 414.0156,477.7969 Q413.6719,477.7969 413.4688,477.5938 Q413.2656,477.4063 413.1563,476.8906 Q413.1094,476.5313 412.9219,476.3438 Q412.5938,475.9688 411.9844,475.75 Q411.375,475.5313 410.75,475.5313 Q409.9844,475.5313 409.3516,475.8594 Q408.7188,476.1875 408.2266,476.9375 Q407.7344,477.6875 407.7344,478.7188 L407.7344,479.8125 Q407.7344,481.0469 408.625,481.8672 Q409.5156,482.6875 411.1094,482.6875 Q412.0469,482.6875 412.7031,482.4375 Q413.0938,482.2813 413.5156,481.8438 Q413.7813,481.5781 413.9297,481.5 Q414.0781,481.4219 414.2813,481.4219 Q414.6094,481.4219 414.8672,481.6797 Q415.125,481.9375 415.125,482.2813 Q415.125,482.625 414.7813,483.0313 Q414.2813,483.6094 413.4844,483.9375 Q412.4063,484.3906 411.1094,484.3906 Q409.5938,484.3906 408.3906,483.7656 Q407.4063,483.2656 406.7188,482.1953 Q406.0313,481.125 406.0313,479.8438 L406.0313,478.6875 Q406.0313,477.3594 406.6484,476.2109 Q407.2656,475.0625 408.3594,474.4453 Q409.4531,473.8281 410.6875,473.8281 Q411.4219,473.8281 412.0703,473.9922 Q412.7188,474.1563 413.2656,474.5156 Z "/><text fill="#000000" font-family="sans-serif" font-size="12" lengthAdjust="spacingAndGlyphs" textLength="113" x="424.5" y="483.5508">Coste no planificado</text><line style="stroke: #A80036; stroke-width: 1.5;" x1="396.5" x2="539.5" y1="494.6406" y2="494.6406"/><line style="stroke: #A80036; stroke-width: 1.5;" x1="396.5" x2="539.5" y1="502.6406" y2="502.6406"/><!--link ProyectoSoftware to ProductoSoftware--><path d="M616.847,85.1236 C643.056,99.7456 674.634,117.3626 700.88,132.0056 " fill="none" id="ProyectoSoftware-ProductoSoftware" style="stroke: #A80036; stroke-width: 1.0;"/><polygon fill="#A80036" points="712.526,138.5026,706.6159,130.6241,708.1598,136.0662,702.7177,137.61,712.526,138.5026" style="stroke: #A80036; stroke-width: 1.0;"/><line style="stroke: #A80036; stroke-width: 1.0;" x1="708.1598" x2="701.173" y1="136.0662" y2="132.1686"/><polygon fill="#A80036" points="605.227,78.6406,608.5177,85.0571,615.7062,84.4875,612.4156,78.071,605.227,78.6406" style="stroke: #A80036; stroke-width: 1.0;"/><!--link ProyectoSoftware to Variable--><path d="M574.59,91.6136 C586.221,131.1226 604.789,194.1936 616.417,233.6926 " fill="none" id="ProyectoSoftware-Variable" style="stroke: #A80036; stroke-width: 1.0;"/><polygon fill="#A80036" points="620.146,246.3606,621.4415,236.5973,618.734,241.5641,613.7672,238.8566,620.146,246.3606" style="stroke: #A80036; stroke-width: 1.0;"/><line style="stroke: #A80036; stroke-width: 1.0;" x1="618.734" x2="616.475" y1="241.5641" y2="233.8896"/><polygon fill="#A80036" points="570.862,78.9496,568.7195,85.8351,574.2512,90.4611,576.3938,83.5756,570.862,78.9496" style="stroke: #A80036; stroke-width: 1.0;"/><!--link ProyectoSoftware to Efectividad--><path d="M546.532,90.5756 C540.776,102.0876 534.374,114.8916 528.608,126.4246 " fill="none" id="ProyectoSoftware-Efectividad" style="stroke: #A80036; stroke-width: 1.0;"/><polygon fill="#A80036" points="522.661,138.3186,530.2639,132.058,524.8973,133.8466,523.1087,128.4799,522.661,138.3186" style="stroke: #A80036; stroke-width: 1.0;"/><line style="stroke: #A80036; stroke-width: 1.0;" x1="524.8973" x2="528.4745" y1="133.8466" y2="126.6916"/><polygon fill="#A80036" points="552.5,78.6406,546.239,82.2183,547.1334,89.3738,553.3944,85.796,552.5,78.6406" style="stroke: #A80036; stroke-width: 1.0;"/><!--link ProyectoSoftware to ProyectoNoPlanificado--><path d="M512.156,89.9906 C412.67,155.9046 197.372,298.5506 112.961,354.4766 " fill="none" id="ProyectoSoftware-ProyectoNoPlanificado" style="stroke: #A80036; stroke-width: 1.0;"/><polygon fill="none" points="508.509,84.0096,529.048,78.7976,516.242,95.6796,508.509,84.0096" style="stroke: #A80036; stroke-width: 1.0;"/><!--link ProductoSoftware to Calidad--><path d="M750.382,199.9656 C744.311,248.6526 728.992,336.5866 693,402.6406 C682.837,421.2916 667.534,438.9866 653.241,453.2086 " fill="none" id="ProductoSoftware-Calidad" style="stroke: #A80036; stroke-width: 1.0;"/><polygon fill="#A80036" points="643.583,462.4686,652.8475,459.1267,647.1919,459.008,647.3106,453.3524,643.583,462.4686" style="stroke: #A80036; stroke-width: 1.0;"/><line style="stroke: #A80036; stroke-width: 1.0;" x1="647.1919" x2="652.966" y1="459.008" y2="453.4716"/><polygon fill="#A80036" points="751.92,186.7536,747.2532,192.251,750.5327,198.6732,755.1996,193.1758,751.92,186.7536" style="stroke: #A80036; stroke-width: 1.0;"/><!--link Calidad to Mantenibilidad--><path d="M616,523.9789 C616,534.647 616,546.3178 616,557.0044 " fill="none" id="Calidad-Mantenibilidad" style="stroke: #A80036; stroke-width: 1.0;"/><polygon fill="#A80036" points="616,570.319,620,561.319,616,565.319,612,561.319,616,570.319" style="stroke: #A80036; stroke-width: 1.0;"/><line style="stroke: #A80036; stroke-width: 1.0;" x1="616" x2="616" y1="565.319" y2="557.3191"/><polygon fill="#A80036" points="616,510.6406,612,516.6406,616,522.6406,620,516.6406,616,510.6406" style="stroke: #A80036; stroke-width: 1.0;"/><!--link Efectividad to Eficacia--><path d="M476.101,195.8086 C461.886,208.9106 445.481,224.0316 431.233,237.1646 " fill="none" id="Efectividad-Eficacia" style="stroke: #A80036; stroke-width: 1.0;"/><polygon fill="#A80036" points="421.302,246.3186,430.6307,243.1603,424.9786,242.93,425.2089,237.2778,421.302,246.3186" style="stroke: #A80036; stroke-width: 1.0;"/><line style="stroke: #A80036; stroke-width: 1.0;" x1="424.9786" x2="430.8605" y1="242.93" y2="237.5081"/><polygon fill="#A80036" points="486.047,186.6406,478.9243,187.7663,477.2239,194.7741,484.3466,193.6484,486.047,186.6406" style="stroke: #A80036; stroke-width: 1.0;"/><!--link Efectividad to Eficiencia--><path d="M511,199.9786 C511,210.6466 511,222.3176 511,233.0046 " fill="none" id="Efectividad-Eficiencia" style="stroke: #A80036; stroke-width: 1.0;"/><polygon fill="#A80036" points="511,246.3186,515,237.3186,511,241.3186,507,237.3186,511,246.3186" style="stroke: #A80036; stroke-width: 1.0;"/><line style="stroke: #A80036; stroke-width: 1.0;" x1="511" x2="511" y1="241.3186" y2="233.3186"/><polygon fill="#A80036" points="511,186.6406,507,192.6406,511,198.6406,515,192.6406,511,186.6406" style="stroke: #A80036; stroke-width: 1.0;"/><!--link Eficacia to Ambito--><path d="M397.736,294.6406 C398.944,310.6436 400.562,332.0866 401.851,349.1686 " fill="none" id="Eficacia-Ambito" style="stroke: #A80036; stroke-width: 1.0;"/><polygon fill="#A80036" points="402.24,354.3186,405.5526,345.0436,401.8644,349.3328,397.5752,345.6446,402.24,354.3186" style="stroke: #A80036; stroke-width: 1.0;"/><!--link Eficiencia to Tiempo--><path d="M511,294.6406 C511,310.6436 511,332.0866 511,349.1686 " fill="none" id="Eficiencia-Tiempo" style="stroke: #A80036; stroke-width: 1.0;"/><polygon fill="#A80036" points="511,354.3186,515,345.3186,511,349.3186,507,345.3186,511,354.3186" style="stroke: #A80036; stroke-width: 1.0;"/><!--link Eficiencia to Coste--><path d="M533.783,294.6406 C550.045,311.0576 571.978,333.1996 589.101,350.4846 " fill="none" id="Eficiencia-Coste" style="stroke: #A80036; stroke-width: 1.0;"/><polygon fill="#A80036" points="592.898,354.3186,589.4071,345.1092,589.3796,350.766,583.7229,350.7386,592.898,354.3186" style="stroke: #A80036; stroke-width: 1.0;"/><!--link Variable to Tiempo--><path d="M586.976,308.2136 C570.249,323.4996 551.307,340.8076 536.522,354.3186 " fill="none" id="Variable-Tiempo" style="stroke: #A80036; stroke-width: 1.0;"/><polygon fill="none" points="582.343,302.9646,601.83,294.6406,591.788,313.2996,582.343,302.9646" style="stroke: #A80036; stroke-width: 1.0;"/><!--link Variable to Ambito--><path d="M570.21,298.6346 C528.922,318.2606 474.326,344.2116 439.181,360.9176 " fill="none" id="Variable-Ambito" style="stroke: #A80036; stroke-width: 1.0;"/><polygon fill="none" points="567.343,292.2476,588.411,289.9836,573.353,304.8916,567.343,292.2476" style="stroke: #A80036; stroke-width: 1.0;"/><!--link Variable to Coste--><path d="M622.535,314.6646 C621.129,328.2196 619.628,342.6786 618.42,354.3186 " fill="none" id="Variable-Coste" style="stroke: #A80036; stroke-width: 1.0;"/><polygon fill="none" points="615.586,313.8116,624.613,294.6406,629.511,315.2566,615.586,313.8116" style="stroke: #A80036; stroke-width: 1.0;"/><!--link Variable to Calidad--><path d="M651.412,312.6656 C663.711,338.4316 674.406,372.3976 666,402.6406 C659.873,424.6836 646.145,446.7306 634.621,462.5566 " fill="none" id="Variable-Calidad" style="stroke: #A80036; stroke-width: 1.0;"/><polygon fill="none" points="645.107,315.7156,641.983,294.7576,657.495,309.1926,645.107,315.7156" style="stroke: #A80036; stroke-width: 1.0;"/><!--link Tiempo to Calidad--><path d="M533.783,402.6406 C550.045,419.0576 571.978,441.1996 589.101,458.4846 " fill="none" id="Tiempo-Calidad" style="stroke: #A80036; stroke-width: 1.0;"/><polygon fill="#A80036" points="592.898,462.3186,589.4071,453.1092,589.3796,458.766,583.7229,458.7386,592.898,462.3186" style="stroke: #A80036; stroke-width: 1.0;"/><!--link Ambito to Calidad--><path d="M439.007,397.1446 C475.962,415.6216 534.222,444.7516 573.717,464.4996 " fill="none" id="Ambito-Calidad" style="stroke: #A80036; stroke-width: 1.0;"/><polygon fill="#A80036" points="578.438,466.8596,572.179,459.2554,573.9664,464.6224,568.5994,466.4099,578.438,466.8596" style="stroke: #A80036; stroke-width: 1.0;"/><!--link Coste to Calidad--><path d="M616,402.6406 C616,418.6436 616,440.0866 616,457.1686 " fill="none" id="Coste-Calidad" style="stroke: #A80036; stroke-width: 1.0;"/><polygon fill="#A80036" points="616,462.3186,620,453.3186,616,457.3186,612,453.3186,616,462.3186" style="stroke: #A80036; stroke-width: 1.0;"/><!--link Tiempo to TiempoNoPlanificado--><path d="M455.367,404.4186 C415.966,421.9666 363.482,445.3416 324.936,462.5096 " fill="none" id="Tiempo-TiempoNoPlanificado" style="stroke: #A80036; stroke-width: 1.0;"/><polygon fill="none" points="452.695,397.9456,473.813,396.2026,458.391,410.7346,452.695,397.9456" style="stroke: #A80036; stroke-width: 1.0;"/><!--link Ambito to AmbitoNoPlanificado--><path d="M350.1,402.4886 C274.783,430.0236 206.66,450.5336 156.237,464.9456 " fill="none" id="Ambito-AmbitoNoPlanificado" style="stroke: #A80036; stroke-width: 1.0;"/><polygon fill="none" points="347.685,395.9186,368.871,395.5346,352.549,409.0466,347.685,395.9186" style="stroke: #A80036; stroke-width: 1.0;"/><!--link Coste to CosteNoPlanificado--><path d="M567.488,414.3856 C545.444,430.1736 519.962,448.4246 500.306,462.5026 " fill="none" id="Coste-CosteNoPlanificado" style="stroke: #A80036; stroke-width: 1.0;"/><polygon fill="none" points="563.55,408.5956,583.886,402.6406,571.702,419.9776,563.55,408.5956" style="stroke: #A80036; stroke-width: 1.0;"/><!--link ProyectoNoPlanificado to TiempoNoPlanificado--><path d="M120.312,402.6406 C151.38,419.5296 193.595,442.4776 225.764,459.9636 " fill="none" id="ProyectoNoPlanificado-TiempoNoPlanificado" style="stroke: #A80036; stroke-width: 1.0;"/><polygon fill="#A80036" points="230.434,462.5026,224.438,454.6893,226.0414,460.1142,220.6165,461.7175,230.434,462.5026" style="stroke: #A80036; stroke-width: 1.0;"/><!--link ProyectoNoPlanificado to AmbitoNoPlanificado--><path d="M78.651,402.6406 C79.1039,418.6436 79.7107,440.0866 80.1942,457.1686 " fill="none" id="ProyectoNoPlanificado-AmbitoNoPlanificado" style="stroke: #A80036; stroke-width: 1.0;"/><polygon fill="#A80036" points="80.34,462.3186,84.0838,453.2091,80.1986,457.3206,76.087,453.4354,80.34,462.3186" style="stroke: #A80036; stroke-width: 1.0;"/><!--link ProyectoNoPlanificado to CosteNoPlanificado--><path d="M149.532,399.0826 C217.714,417.6146 320.109,445.4446 390.274,464.5146 " fill="none" id="ProyectoNoPlanificado-CosteNoPlanificado" style="stroke: #A80036; stroke-width: 1.0;"/><polygon fill="#A80036" points="395.269,465.8726,387.6334,459.6518,390.4441,464.561,385.5349,467.3717,395.269,465.8726" style="stroke: #A80036; stroke-width: 1.0;"/><!--
@startuml

title Proyecto Software no efectivo por mala disciplina/metodología

class "Proyecto Software" as ProyectoSoftware #GreenYellow
ProyectoSoftware *-down-> ProductoSoftware
ProyectoSoftware *-down-> Variable
ProyectoSoftware *-down-> Efectividad

class "Proyecto No Efectivo" as ProyectoNoPlanificado #GreenYellow|red
note right {
    tarde, mal y caro!?!??!
}

ProyectoSoftware <|-down- ProyectoNoPlanificado


class "Producto Software" as ProductoSoftware #GreenYellow
ProductoSoftware *-down-> Calidad

class Calidad #CornflowerBlue
Calidad *-down-> Mantenibilidad

class Mantenibilidad #CornflowerBlue

class Efectividad #orange
class Eficacia #orange
class Eficiencia #orange
Efectividad *-down-> Eficacia
Efectividad *-down-> Eficiencia

Eficacia -down-> Ambito
Eficiencia -down-> Tiempo
Eficiencia -down-> Coste

class Variable #blue
class Tiempo #blue
class "Ámbito" as Ambito #blue
class Coste #blue

Variable <|-down- Tiempo
Variable <|-down- Ambito
Variable <|-down- Coste
Variable <|-down- Calidad

Tiempo -down-> Calidad
Ambito -down-> Calidad
Coste -down-> Calidad

class "Tiempo no planificado" as TiempoNoPlanificado #blue|red
class "Ámbito no planificado" as AmbitoNoPlanificado #blue|red
class "Coste no planificado" as CosteNoPlanificado #blue|red

Tiempo <|-down- TiempoNoPlanificado
Ambito <|-down- AmbitoNoPlanificado
Coste <|-down- CosteNoPlanificado

ProyectoNoPlanificado  -down-> TiempoNoPlanificado
ProyectoNoPlanificado  -down-> AmbitoNoPlanificado
ProyectoNoPlanificado  -down-> CosteNoPlanificado
@enduml

PlantUML version 1.2019.05(Sat Apr 20 18:45:36 CEST 2019)
(GPL source distribution)
Java Runtime: Java(TM) SE Runtime Environment
JVM: Java HotSpot(TM) 64-Bit Server VM
Java Version: 1.8.0_211-b12
Operating System: Windows 10
OS Version: 10.0
Default Encoding: windows-1252
Language: es
Country: ES
--></g></svg>