<?xml version="1.0" encoding="UTF-8" standalone="no"?><svg xmlns="http://www.w3.org/2000/svg" xmlns:xlink="http://www.w3.org/1999/xlink" contentScriptType="application/ecmascript" contentStyleType="text/css" height="629px" preserveAspectRatio="none" style="width:1157px;height:629px;" version="1.1" viewBox="0 0 1157 629" width="1157px" zoomAndPan="magnify"><defs><filter height="300%" id="f1pyn4p1q1bypg" width="300%" x="-1" y="-1"><feGaussianBlur result="blurOut" stdDeviation="2.0"/><feColorMatrix in="blurOut" result="blurOut2" type="matrix" values="0 0 0 0 0 0 0 0 0 0 0 0 0 0 0 0 0 0 .4 0"/><feOffset dx="4.0" dy="4.0" in="blurOut2" result="blurOut3"/><feBlend in="SourceGraphic" in2="blurOut3" mode="normal"/></filter><linearGradient id="g1pyn4p1q1bypg0" x1="0%" x2="100%" y1="50%" y2="50%"><stop offset="0%" stop-color="#ADFF2F"/><stop offset="100%" stop-color="#008000"/></linearGradient><linearGradient id="g1pyn4p1q1bypg1" x1="0%" x2="100%" y1="50%" y2="50%"><stop offset="0%" stop-color="#ADFF2F"/><stop offset="100%" stop-color="#FF0000"/></linearGradient><linearGradient id="g1pyn4p1q1bypg2" x1="0%" x2="100%" y1="50%" y2="50%"><stop offset="0%" stop-color="#0000FF"/><stop offset="100%" stop-color="#008000"/></linearGradient><linearGradient id="g1pyn4p1q1bypg3" x1="0%" x2="100%" y1="50%" y2="50%"><stop offset="0%" stop-color="#0000FF"/><stop offset="100%" stop-color="#FF0000"/></linearGradient></defs><g><text fill="#000000" font-family="sans-serif" font-size="18" lengthAdjust="spacingAndGlyphs" textLength="147" x="508.5" y="18.6855">Proyecto Software</text><!--class ProyectoSoftware--><rect fill="#ADFF2F" filter="url(#f1pyn4p1q1bypg)" height="48" id="ProyectoSoftware" style="stroke: #A80036; stroke-width: 1.5;" width="130" x="514.5" y="30.6406"/><rect fill="#ADFF2F" height="32" style="stroke: #A80036; stroke-width: 1.5;" width="130" x="514.5" y="30.6406"/><ellipse cx="529.5" cy="46.6406" fill="#ADD1B2" rx="11" ry="11" style="stroke: #A80036; stroke-width: 1.0;"/><path d="M532.2656,42.5156 Q532.4219,42.2969 532.6094,42.1875 Q532.7969,42.0781 533.0156,42.0781 Q533.3906,42.0781 533.625,42.3359 Q533.8594,42.5938 533.8594,43.2031 L533.8594,44.6563 Q533.8594,45.2656 533.625,45.5313 Q533.3906,45.7969 533.0156,45.7969 Q532.6719,45.7969 532.4688,45.5938 Q532.2656,45.4063 532.1563,44.8906 Q532.1094,44.5313 531.9219,44.3438 Q531.5938,43.9688 530.9844,43.75 Q530.375,43.5313 529.75,43.5313 Q528.9844,43.5313 528.3516,43.8594 Q527.7188,44.1875 527.2266,44.9375 Q526.7344,45.6875 526.7344,46.7188 L526.7344,47.8125 Q526.7344,49.0469 527.625,49.8672 Q528.5156,50.6875 530.1094,50.6875 Q531.0469,50.6875 531.7031,50.4375 Q532.0938,50.2813 532.5156,49.8438 Q532.7813,49.5781 532.9297,49.5 Q533.0781,49.4219 533.2813,49.4219 Q533.6094,49.4219 533.8672,49.6797 Q534.125,49.9375 534.125,50.2813 Q534.125,50.625 533.7813,51.0313 Q533.2813,51.6094 532.4844,51.9375 Q531.4063,52.3906 530.1094,52.3906 Q528.5938,52.3906 527.3906,51.7656 Q526.4063,51.2656 525.7188,50.1953 Q525.0313,49.125 525.0313,47.8438 L525.0313,46.6875 Q525.0313,45.3594 525.6484,44.2109 Q526.2656,43.0625 527.3594,42.4453 Q528.4531,41.8281 529.6875,41.8281 Q530.4219,41.8281 531.0703,41.9922 Q531.7188,42.1563 532.2656,42.5156 Z "/><text fill="#000000" font-family="sans-serif" font-size="12" lengthAdjust="spacingAndGlyphs" textLength="98" x="543.5" y="51.5508">Proyecto Software</text><line style="stroke: #A80036; stroke-width: 1.5;" x1="515.5" x2="643.5" y1="62.6406" y2="62.6406"/><line style="stroke: #A80036; stroke-width: 1.5;" x1="515.5" x2="643.5" y1="70.6406" y2="70.6406"/><!--class ProductoSoftware--><rect fill="#ADFF2F" filter="url(#f1pyn4p1q1bypg)" height="48" id="ProductoSoftware" style="stroke: #A80036; stroke-width: 1.5;" width="129" x="374" y="138.6406"/><rect fill="#ADFF2F" height="32" style="stroke: #A80036; stroke-width: 1.5;" width="129" x="374" y="138.6406"/><ellipse cx="389" cy="154.6406" fill="#ADD1B2" rx="11" ry="11" style="stroke: #A80036; stroke-width: 1.0;"/><path d="M391.7656,150.5156 Q391.9219,150.2969 392.1094,150.1875 Q392.2969,150.0781 392.5156,150.0781 Q392.8906,150.0781 393.125,150.3359 Q393.3594,150.5938 393.3594,151.2031 L393.3594,152.6563 Q393.3594,153.2656 393.125,153.5313 Q392.8906,153.7969 392.5156,153.7969 Q392.1719,153.7969 391.9688,153.5938 Q391.7656,153.4063 391.6563,152.8906 Q391.6094,152.5313 391.4219,152.3438 Q391.0938,151.9688 390.4844,151.75 Q389.875,151.5313 389.25,151.5313 Q388.4844,151.5313 387.8516,151.8594 Q387.2188,152.1875 386.7266,152.9375 Q386.2344,153.6875 386.2344,154.7188 L386.2344,155.8125 Q386.2344,157.0469 387.125,157.8672 Q388.0156,158.6875 389.6094,158.6875 Q390.5469,158.6875 391.2031,158.4375 Q391.5938,158.2813 392.0156,157.8438 Q392.2813,157.5781 392.4297,157.5 Q392.5781,157.4219 392.7813,157.4219 Q393.1094,157.4219 393.3672,157.6797 Q393.625,157.9375 393.625,158.2813 Q393.625,158.625 393.2813,159.0313 Q392.7813,159.6094 391.9844,159.9375 Q390.9063,160.3906 389.6094,160.3906 Q388.0938,160.3906 386.8906,159.7656 Q385.9063,159.2656 385.2188,158.1953 Q384.5313,157.125 384.5313,155.8438 L384.5313,154.6875 Q384.5313,153.3594 385.1484,152.2109 Q385.7656,151.0625 386.8594,150.4453 Q387.9531,149.8281 389.1875,149.8281 Q389.9219,149.8281 390.5703,149.9922 Q391.2188,150.1563 391.7656,150.5156 Z "/><text fill="#000000" font-family="sans-serif" font-size="12" lengthAdjust="spacingAndGlyphs" textLength="97" x="403" y="159.5508">ProductoSoftware</text><line style="stroke: #A80036; stroke-width: 1.5;" x1="375" x2="502" y1="170.6406" y2="170.6406"/><line style="stroke: #A80036; stroke-width: 1.5;" x1="375" x2="502" y1="178.6406" y2="178.6406"/><!--class Variable--><rect fill="#0000FF" filter="url(#f1pyn4p1q1bypg)" height="48" id="Variable" style="stroke: #A80036; stroke-width: 1.5;" width="77" x="605" y="246.6406"/><rect fill="#0000FF" height="32" style="stroke: #A80036; stroke-width: 1.5;" width="77" x="605" y="246.6406"/><ellipse cx="620" cy="262.6406" fill="#ADD1B2" rx="11" ry="11" style="stroke: #A80036; stroke-width: 1.0;"/><path d="M622.7656,258.5156 Q622.9219,258.2969 623.1094,258.1875 Q623.2969,258.0781 623.5156,258.0781 Q623.8906,258.0781 624.125,258.3359 Q624.3594,258.5938 624.3594,259.2031 L624.3594,260.6563 Q624.3594,261.2656 624.125,261.5313 Q623.8906,261.7969 623.5156,261.7969 Q623.1719,261.7969 622.9688,261.5938 Q622.7656,261.4063 622.6563,260.8906 Q622.6094,260.5313 622.4219,260.3438 Q622.0938,259.9688 621.4844,259.75 Q620.875,259.5313 620.25,259.5313 Q619.4844,259.5313 618.8516,259.8594 Q618.2188,260.1875 617.7266,260.9375 Q617.2344,261.6875 617.2344,262.7188 L617.2344,263.8125 Q617.2344,265.0469 618.125,265.8672 Q619.0156,266.6875 620.6094,266.6875 Q621.5469,266.6875 622.2031,266.4375 Q622.5938,266.2813 623.0156,265.8438 Q623.2813,265.5781 623.4297,265.5 Q623.5781,265.4219 623.7813,265.4219 Q624.1094,265.4219 624.3672,265.6797 Q624.625,265.9375 624.625,266.2813 Q624.625,266.625 624.2813,267.0313 Q623.7813,267.6094 622.9844,267.9375 Q621.9063,268.3906 620.6094,268.3906 Q619.0938,268.3906 617.8906,267.7656 Q616.9063,267.2656 616.2188,266.1953 Q615.5313,265.125 615.5313,263.8438 L615.5313,262.6875 Q615.5313,261.3594 616.1484,260.2109 Q616.7656,259.0625 617.8594,258.4453 Q618.9531,257.8281 620.1875,257.8281 Q620.9219,257.8281 621.5703,257.9922 Q622.2188,258.1563 622.7656,258.5156 Z "/><text fill="#000000" font-family="sans-serif" font-size="12" lengthAdjust="spacingAndGlyphs" textLength="45" x="634" y="267.5508">Variable</text><line style="stroke: #A80036; stroke-width: 1.5;" x1="606" x2="681" y1="278.6406" y2="278.6406"/><line style="stroke: #A80036; stroke-width: 1.5;" x1="606" x2="681" y1="286.6406" y2="286.6406"/><!--class Efectividad--><rect fill="#FFA500" filter="url(#f1pyn4p1q1bypg)" height="48" id="Efectividad" style="stroke: #A80036; stroke-width: 1.5;" width="91" x="633" y="138.6406"/><rect fill="#FFA500" height="32" style="stroke: #A80036; stroke-width: 1.5;" width="91" x="633" y="138.6406"/><ellipse cx="648" cy="154.6406" fill="#ADD1B2" rx="11" ry="11" style="stroke: #A80036; stroke-width: 1.0;"/><path d="M650.7656,150.5156 Q650.9219,150.2969 651.1094,150.1875 Q651.2969,150.0781 651.5156,150.0781 Q651.8906,150.0781 652.125,150.3359 Q652.3594,150.5938 652.3594,151.2031 L652.3594,152.6563 Q652.3594,153.2656 652.125,153.5313 Q651.8906,153.7969 651.5156,153.7969 Q651.1719,153.7969 650.9688,153.5938 Q650.7656,153.4063 650.6563,152.8906 Q650.6094,152.5313 650.4219,152.3438 Q650.0938,151.9688 649.4844,151.75 Q648.875,151.5313 648.25,151.5313 Q647.4844,151.5313 646.8516,151.8594 Q646.2188,152.1875 645.7266,152.9375 Q645.2344,153.6875 645.2344,154.7188 L645.2344,155.8125 Q645.2344,157.0469 646.125,157.8672 Q647.0156,158.6875 648.6094,158.6875 Q649.5469,158.6875 650.2031,158.4375 Q650.5938,158.2813 651.0156,157.8438 Q651.2813,157.5781 651.4297,157.5 Q651.5781,157.4219 651.7813,157.4219 Q652.1094,157.4219 652.3672,157.6797 Q652.625,157.9375 652.625,158.2813 Q652.625,158.625 652.2813,159.0313 Q651.7813,159.6094 650.9844,159.9375 Q649.9063,160.3906 648.6094,160.3906 Q647.0938,160.3906 645.8906,159.7656 Q644.9063,159.2656 644.2188,158.1953 Q643.5313,157.125 643.5313,155.8438 L643.5313,154.6875 Q643.5313,153.3594 644.1484,152.2109 Q644.7656,151.0625 645.8594,150.4453 Q646.9531,149.8281 648.1875,149.8281 Q648.9219,149.8281 649.5703,149.9922 Q650.2188,150.1563 650.7656,150.5156 Z "/><text fill="#000000" font-family="sans-serif" font-size="12" lengthAdjust="spacingAndGlyphs" textLength="59" x="662" y="159.5508">Efectividad</text><line style="stroke: #A80036; stroke-width: 1.5;" x1="634" x2="723" y1="170.6406" y2="170.6406"/><line style="stroke: #A80036; stroke-width: 1.5;" x1="634" x2="723" y1="178.6406" y2="178.6406"/><!--class ProyectoPlanificado--><rect fill="url(#g1pyn4p1q1bypg0)" filter="url(#f1pyn4p1q1bypg)" height="48" id="ProyectoPlanificado" style="stroke: #A80036; stroke-width: 1.5;" width="124" x="847.5" y="354.6406"/><rect fill="url(#g1pyn4p1q1bypg0)" height="32" style="stroke: #A80036; stroke-width: 1.5;" width="124" x="847.5" y="354.6406"/><ellipse cx="862.5" cy="370.6406" fill="#ADD1B2" rx="11" ry="11" style="stroke: #A80036; stroke-width: 1.0;"/><path d="M865.2656,366.5156 Q865.4219,366.2969 865.6094,366.1875 Q865.7969,366.0781 866.0156,366.0781 Q866.3906,366.0781 866.625,366.3359 Q866.8594,366.5938 866.8594,367.2031 L866.8594,368.6563 Q866.8594,369.2656 866.625,369.5313 Q866.3906,369.7969 866.0156,369.7969 Q865.6719,369.7969 865.4688,369.5938 Q865.2656,369.4063 865.1563,368.8906 Q865.1094,368.5313 864.9219,368.3438 Q864.5938,367.9688 863.9844,367.75 Q863.375,367.5313 862.75,367.5313 Q861.9844,367.5313 861.3516,367.8594 Q860.7188,368.1875 860.2266,368.9375 Q859.7344,369.6875 859.7344,370.7188 L859.7344,371.8125 Q859.7344,373.0469 860.625,373.8672 Q861.5156,374.6875 863.1094,374.6875 Q864.0469,374.6875 864.7031,374.4375 Q865.0938,374.2813 865.5156,373.8438 Q865.7813,373.5781 865.9297,373.5 Q866.0781,373.4219 866.2813,373.4219 Q866.6094,373.4219 866.8672,373.6797 Q867.125,373.9375 867.125,374.2813 Q867.125,374.625 866.7813,375.0313 Q866.2813,375.6094 865.4844,375.9375 Q864.4063,376.3906 863.1094,376.3906 Q861.5938,376.3906 860.3906,375.7656 Q859.4063,375.2656 858.7188,374.1953 Q858.0313,373.125 858.0313,371.8438 L858.0313,370.6875 Q858.0313,369.3594 858.6484,368.2109 Q859.2656,367.0625 860.3594,366.4453 Q861.4531,365.8281 862.6875,365.8281 Q863.4219,365.8281 864.0703,365.9922 Q864.7188,366.1563 865.2656,366.5156 Z "/><text fill="#000000" font-family="sans-serif" font-size="12" lengthAdjust="spacingAndGlyphs" textLength="92" x="876.5" y="375.5508">Proyecto Efectivo</text><line style="stroke: #A80036; stroke-width: 1.5;" x1="848.5" x2="970.5" y1="386.6406" y2="386.6406"/><line style="stroke: #A80036; stroke-width: 1.5;" x1="848.5" x2="970.5" y1="394.6406" y2="394.6406"/><!--class ProyectoNoPlanificado--><rect fill="url(#g1pyn4p1q1bypg1)" filter="url(#f1pyn4p1q1bypg)" height="48" id="ProyectoNoPlanificado" style="stroke: #A80036; stroke-width: 1.5;" width="143" x="28" y="354.6406"/><rect fill="url(#g1pyn4p1q1bypg1)" height="32" style="stroke: #A80036; stroke-width: 1.5;" width="143" x="28" y="354.6406"/><ellipse cx="43" cy="370.6406" fill="#ADD1B2" rx="11" ry="11" style="stroke: #A80036; stroke-width: 1.0;"/><path d="M45.7656,366.5156 Q45.9219,366.2969 46.1094,366.1875 Q46.2969,366.0781 46.5156,366.0781 Q46.8906,366.0781 47.125,366.3359 Q47.3594,366.5938 47.3594,367.2031 L47.3594,368.6563 Q47.3594,369.2656 47.125,369.5313 Q46.8906,369.7969 46.5156,369.7969 Q46.1719,369.7969 45.9688,369.5938 Q45.7656,369.4063 45.6563,368.8906 Q45.6094,368.5313 45.4219,368.3438 Q45.0938,367.9688 44.4844,367.75 Q43.875,367.5313 43.25,367.5313 Q42.4844,367.5313 41.8516,367.8594 Q41.2188,368.1875 40.7266,368.9375 Q40.2344,369.6875 40.2344,370.7188 L40.2344,371.8125 Q40.2344,373.0469 41.125,373.8672 Q42.0156,374.6875 43.6094,374.6875 Q44.5469,374.6875 45.2031,374.4375 Q45.5938,374.2813 46.0156,373.8438 Q46.2813,373.5781 46.4297,373.5 Q46.5781,373.4219 46.7813,373.4219 Q47.1094,373.4219 47.3672,373.6797 Q47.625,373.9375 47.625,374.2813 Q47.625,374.625 47.2813,375.0313 Q46.7813,375.6094 45.9844,375.9375 Q44.9063,376.3906 43.6094,376.3906 Q42.0938,376.3906 40.8906,375.7656 Q39.9063,375.2656 39.2188,374.1953 Q38.5313,373.125 38.5313,371.8438 L38.5313,370.6875 Q38.5313,369.3594 39.1484,368.2109 Q39.7656,367.0625 40.8594,366.4453 Q41.9531,365.8281 43.1875,365.8281 Q43.9219,365.8281 44.5703,365.9922 Q45.2188,366.1563 45.7656,366.5156 Z "/><text fill="#000000" font-family="sans-serif" font-size="12" lengthAdjust="spacingAndGlyphs" textLength="111" x="57" y="375.5508">Proyecto No Efectivo</text><line style="stroke: #A80036; stroke-width: 1.5;" x1="29" x2="170" y1="386.6406" y2="386.6406"/><line style="stroke: #A80036; stroke-width: 1.5;" x1="29" x2="170" y1="394.6406" y2="394.6406"/><path d="M206,365.6406 L206,374.6406 L171.264,378.6406 L206,382.6406 L206,391.9922 A0,0 0 0 0 206,391.9922 L355,391.9922 A0,0 0 0 0 355,391.9922 L355,375.6406 L345,365.6406 L206,365.6406 A0,0 0 0 0 206,365.6406 " fill="#FBFB77" filter="url(#f1pyn4p1q1bypg)" style="stroke: #A80036; stroke-width: 1.0;"/><path d="M345,365.6406 L345,375.6406 L355,375.6406 L345,365.6406 " fill="#FBFB77" style="stroke: #A80036; stroke-width: 1.0;"/><text fill="#000000" font-family="sans-serif" font-size="13" lengthAdjust="spacingAndGlyphs" textLength="128" x="212" y="384.1357">tarde, mal y caro!?!??!</text><!--class Calidad--><rect fill="#6495ED" filter="url(#f1pyn4p1q1bypg)" height="48" id="Calidad" style="stroke: #A80036; stroke-width: 1.5;" width="75" x="561" y="462.6406"/><rect fill="#6495ED" height="32" style="stroke: #A80036; stroke-width: 1.5;" width="75" x="561" y="462.6406"/><ellipse cx="576" cy="478.6406" fill="#ADD1B2" rx="11" ry="11" style="stroke: #A80036; stroke-width: 1.0;"/><path d="M578.7656,474.5156 Q578.9219,474.2969 579.1094,474.1875 Q579.2969,474.0781 579.5156,474.0781 Q579.8906,474.0781 580.125,474.3359 Q580.3594,474.5938 580.3594,475.2031 L580.3594,476.6563 Q580.3594,477.2656 580.125,477.5313 Q579.8906,477.7969 579.5156,477.7969 Q579.1719,477.7969 578.9688,477.5938 Q578.7656,477.4063 578.6563,476.8906 Q578.6094,476.5313 578.4219,476.3438 Q578.0938,475.9688 577.4844,475.75 Q576.875,475.5313 576.25,475.5313 Q575.4844,475.5313 574.8516,475.8594 Q574.2188,476.1875 573.7266,476.9375 Q573.2344,477.6875 573.2344,478.7188 L573.2344,479.8125 Q573.2344,481.0469 574.125,481.8672 Q575.0156,482.6875 576.6094,482.6875 Q577.5469,482.6875 578.2031,482.4375 Q578.5938,482.2813 579.0156,481.8438 Q579.2813,481.5781 579.4297,481.5 Q579.5781,481.4219 579.7813,481.4219 Q580.1094,481.4219 580.3672,481.6797 Q580.625,481.9375 580.625,482.2813 Q580.625,482.625 580.2813,483.0313 Q579.7813,483.6094 578.9844,483.9375 Q577.9063,484.3906 576.6094,484.3906 Q575.0938,484.3906 573.8906,483.7656 Q572.9063,483.2656 572.2188,482.1953 Q571.5313,481.125 571.5313,479.8438 L571.5313,478.6875 Q571.5313,477.3594 572.1484,476.2109 Q572.7656,475.0625 573.8594,474.4453 Q574.9531,473.8281 576.1875,473.8281 Q576.9219,473.8281 577.5703,473.9922 Q578.2188,474.1563 578.7656,474.5156 Z "/><text fill="#000000" font-family="sans-serif" font-size="12" lengthAdjust="spacingAndGlyphs" textLength="43" x="590" y="483.5508">Calidad</text><line style="stroke: #A80036; stroke-width: 1.5;" x1="562" x2="635" y1="494.6406" y2="494.6406"/><line style="stroke: #A80036; stroke-width: 1.5;" x1="562" x2="635" y1="502.6406" y2="502.6406"/><!--class Mantenibilidad--><rect fill="#6495ED" filter="url(#f1pyn4p1q1bypg)" height="48" id="Mantenibilidad" style="stroke: #A80036; stroke-width: 1.5;" width="112" x="542.5" y="570.6406"/><rect fill="#6495ED" height="32" style="stroke: #A80036; stroke-width: 1.5;" width="112" x="542.5" y="570.6406"/><ellipse cx="557.5" cy="586.6406" fill="#ADD1B2" rx="11" ry="11" style="stroke: #A80036; stroke-width: 1.0;"/><path d="M560.2656,582.5156 Q560.4219,582.2969 560.6094,582.1875 Q560.7969,582.0781 561.0156,582.0781 Q561.3906,582.0781 561.625,582.3359 Q561.8594,582.5938 561.8594,583.2031 L561.8594,584.6563 Q561.8594,585.2656 561.625,585.5313 Q561.3906,585.7969 561.0156,585.7969 Q560.6719,585.7969 560.4688,585.5938 Q560.2656,585.4063 560.1563,584.8906 Q560.1094,584.5313 559.9219,584.3438 Q559.5938,583.9688 558.9844,583.75 Q558.375,583.5313 557.75,583.5313 Q556.9844,583.5313 556.3516,583.8594 Q555.7188,584.1875 555.2266,584.9375 Q554.7344,585.6875 554.7344,586.7188 L554.7344,587.8125 Q554.7344,589.0469 555.625,589.8672 Q556.5156,590.6875 558.1094,590.6875 Q559.0469,590.6875 559.7031,590.4375 Q560.0938,590.2813 560.5156,589.8438 Q560.7813,589.5781 560.9297,589.5 Q561.0781,589.4219 561.2813,589.4219 Q561.6094,589.4219 561.8672,589.6797 Q562.125,589.9375 562.125,590.2813 Q562.125,590.625 561.7813,591.0313 Q561.2813,591.6094 560.4844,591.9375 Q559.4063,592.3906 558.1094,592.3906 Q556.5938,592.3906 555.3906,591.7656 Q554.4063,591.2656 553.7188,590.1953 Q553.0313,589.125 553.0313,587.8438 L553.0313,586.6875 Q553.0313,585.3594 553.6484,584.2109 Q554.2656,583.0625 555.3594,582.4453 Q556.4531,581.8281 557.6875,581.8281 Q558.4219,581.8281 559.0703,581.9922 Q559.7188,582.1563 560.2656,582.5156 Z "/><text fill="#000000" font-family="sans-serif" font-size="12" lengthAdjust="spacingAndGlyphs" textLength="80" x="571.5" y="591.5508">Mantenibilidad</text><line style="stroke: #A80036; stroke-width: 1.5;" x1="543.5" x2="653.5" y1="602.6406" y2="602.6406"/><line style="stroke: #A80036; stroke-width: 1.5;" x1="543.5" x2="653.5" y1="610.6406" y2="610.6406"/><!--class Eficacia--><rect fill="#FFA500" filter="url(#f1pyn4p1q1bypg)" height="48" id="Eficacia" style="stroke: #A80036; stroke-width: 1.5;" width="75" x="728" y="246.6406"/><rect fill="#FFA500" height="32" style="stroke: #A80036; stroke-width: 1.5;" width="75" x="728" y="246.6406"/><ellipse cx="743" cy="262.6406" fill="#ADD1B2" rx="11" ry="11" style="stroke: #A80036; stroke-width: 1.0;"/><path d="M745.7656,258.5156 Q745.9219,258.2969 746.1094,258.1875 Q746.2969,258.0781 746.5156,258.0781 Q746.8906,258.0781 747.125,258.3359 Q747.3594,258.5938 747.3594,259.2031 L747.3594,260.6563 Q747.3594,261.2656 747.125,261.5313 Q746.8906,261.7969 746.5156,261.7969 Q746.1719,261.7969 745.9688,261.5938 Q745.7656,261.4063 745.6563,260.8906 Q745.6094,260.5313 745.4219,260.3438 Q745.0938,259.9688 744.4844,259.75 Q743.875,259.5313 743.25,259.5313 Q742.4844,259.5313 741.8516,259.8594 Q741.2188,260.1875 740.7266,260.9375 Q740.2344,261.6875 740.2344,262.7188 L740.2344,263.8125 Q740.2344,265.0469 741.125,265.8672 Q742.0156,266.6875 743.6094,266.6875 Q744.5469,266.6875 745.2031,266.4375 Q745.5938,266.2813 746.0156,265.8438 Q746.2813,265.5781 746.4297,265.5 Q746.5781,265.4219 746.7813,265.4219 Q747.1094,265.4219 747.3672,265.6797 Q747.625,265.9375 747.625,266.2813 Q747.625,266.625 747.2813,267.0313 Q746.7813,267.6094 745.9844,267.9375 Q744.9063,268.3906 743.6094,268.3906 Q742.0938,268.3906 740.8906,267.7656 Q739.9063,267.2656 739.2188,266.1953 Q738.5313,265.125 738.5313,263.8438 L738.5313,262.6875 Q738.5313,261.3594 739.1484,260.2109 Q739.7656,259.0625 740.8594,258.4453 Q741.9531,257.8281 743.1875,257.8281 Q743.9219,257.8281 744.5703,257.9922 Q745.2188,258.1563 745.7656,258.5156 Z "/><text fill="#000000" font-family="sans-serif" font-size="12" lengthAdjust="spacingAndGlyphs" textLength="43" x="757" y="267.5508">Eficacia</text><line style="stroke: #A80036; stroke-width: 1.5;" x1="729" x2="802" y1="278.6406" y2="278.6406"/><line style="stroke: #A80036; stroke-width: 1.5;" x1="729" x2="802" y1="286.6406" y2="286.6406"/><!--class Eficiencia--><rect fill="#FFA500" filter="url(#f1pyn4p1q1bypg)" height="48" id="Eficiencia" style="stroke: #A80036; stroke-width: 1.5;" width="85" x="485" y="246.6406"/><rect fill="#FFA500" height="32" style="stroke: #A80036; stroke-width: 1.5;" width="85" x="485" y="246.6406"/><ellipse cx="500" cy="262.6406" fill="#ADD1B2" rx="11" ry="11" style="stroke: #A80036; stroke-width: 1.0;"/><path d="M502.7656,258.5156 Q502.9219,258.2969 503.1094,258.1875 Q503.2969,258.0781 503.5156,258.0781 Q503.8906,258.0781 504.125,258.3359 Q504.3594,258.5938 504.3594,259.2031 L504.3594,260.6563 Q504.3594,261.2656 504.125,261.5313 Q503.8906,261.7969 503.5156,261.7969 Q503.1719,261.7969 502.9688,261.5938 Q502.7656,261.4063 502.6563,260.8906 Q502.6094,260.5313 502.4219,260.3438 Q502.0938,259.9688 501.4844,259.75 Q500.875,259.5313 500.25,259.5313 Q499.4844,259.5313 498.8516,259.8594 Q498.2188,260.1875 497.7266,260.9375 Q497.2344,261.6875 497.2344,262.7188 L497.2344,263.8125 Q497.2344,265.0469 498.125,265.8672 Q499.0156,266.6875 500.6094,266.6875 Q501.5469,266.6875 502.2031,266.4375 Q502.5938,266.2813 503.0156,265.8438 Q503.2813,265.5781 503.4297,265.5 Q503.5781,265.4219 503.7813,265.4219 Q504.1094,265.4219 504.3672,265.6797 Q504.625,265.9375 504.625,266.2813 Q504.625,266.625 504.2813,267.0313 Q503.7813,267.6094 502.9844,267.9375 Q501.9063,268.3906 500.6094,268.3906 Q499.0938,268.3906 497.8906,267.7656 Q496.9063,267.2656 496.2188,266.1953 Q495.5313,265.125 495.5313,263.8438 L495.5313,262.6875 Q495.5313,261.3594 496.1484,260.2109 Q496.7656,259.0625 497.8594,258.4453 Q498.9531,257.8281 500.1875,257.8281 Q500.9219,257.8281 501.5703,257.9922 Q502.2188,258.1563 502.7656,258.5156 Z "/><text fill="#000000" font-family="sans-serif" font-size="12" lengthAdjust="spacingAndGlyphs" textLength="53" x="514" y="267.5508">Eficiencia</text><line style="stroke: #A80036; stroke-width: 1.5;" x1="486" x2="569" y1="278.6406" y2="278.6406"/><line style="stroke: #A80036; stroke-width: 1.5;" x1="486" x2="569" y1="286.6406" y2="286.6406"/><!--class Ambito--><rect fill="#0000FF" filter="url(#f1pyn4p1q1bypg)" height="48" id="Ambito" style="stroke: #A80036; stroke-width: 1.5;" width="70" x="742.5" y="354.6406"/><rect fill="#0000FF" height="32" style="stroke: #A80036; stroke-width: 1.5;" width="70" x="742.5" y="354.6406"/><ellipse cx="757.5" cy="370.6406" fill="#ADD1B2" rx="11" ry="11" style="stroke: #A80036; stroke-width: 1.0;"/><path d="M760.2656,366.5156 Q760.4219,366.2969 760.6094,366.1875 Q760.7969,366.0781 761.0156,366.0781 Q761.3906,366.0781 761.625,366.3359 Q761.8594,366.5938 761.8594,367.2031 L761.8594,368.6563 Q761.8594,369.2656 761.625,369.5313 Q761.3906,369.7969 761.0156,369.7969 Q760.6719,369.7969 760.4688,369.5938 Q760.2656,369.4063 760.1563,368.8906 Q760.1094,368.5313 759.9219,368.3438 Q759.5938,367.9688 758.9844,367.75 Q758.375,367.5313 757.75,367.5313 Q756.9844,367.5313 756.3516,367.8594 Q755.7188,368.1875 755.2266,368.9375 Q754.7344,369.6875 754.7344,370.7188 L754.7344,371.8125 Q754.7344,373.0469 755.625,373.8672 Q756.5156,374.6875 758.1094,374.6875 Q759.0469,374.6875 759.7031,374.4375 Q760.0938,374.2813 760.5156,373.8438 Q760.7813,373.5781 760.9297,373.5 Q761.0781,373.4219 761.2813,373.4219 Q761.6094,373.4219 761.8672,373.6797 Q762.125,373.9375 762.125,374.2813 Q762.125,374.625 761.7813,375.0313 Q761.2813,375.6094 760.4844,375.9375 Q759.4063,376.3906 758.1094,376.3906 Q756.5938,376.3906 755.3906,375.7656 Q754.4063,375.2656 753.7188,374.1953 Q753.0313,373.125 753.0313,371.8438 L753.0313,370.6875 Q753.0313,369.3594 753.6484,368.2109 Q754.2656,367.0625 755.3594,366.4453 Q756.4531,365.8281 757.6875,365.8281 Q758.4219,365.8281 759.0703,365.9922 Q759.7188,366.1563 760.2656,366.5156 Z "/><text fill="#000000" font-family="sans-serif" font-size="12" lengthAdjust="spacingAndGlyphs" textLength="38" x="771.5" y="375.5508">Ambito</text><line style="stroke: #A80036; stroke-width: 1.5;" x1="743.5" x2="811.5" y1="386.6406" y2="386.6406"/><line style="stroke: #A80036; stroke-width: 1.5;" x1="743.5" x2="811.5" y1="394.6406" y2="394.6406"/><!--class Tiempo--><rect fill="#0000FF" filter="url(#f1pyn4p1q1bypg)" height="48" id="Tiempo" style="stroke: #A80036; stroke-width: 1.5;" width="74" x="562.5" y="354.6406"/><rect fill="#0000FF" height="32" style="stroke: #A80036; stroke-width: 1.5;" width="74" x="562.5" y="354.6406"/><ellipse cx="577.5" cy="370.6406" fill="#ADD1B2" rx="11" ry="11" style="stroke: #A80036; stroke-width: 1.0;"/><path d="M580.2656,366.5156 Q580.4219,366.2969 580.6094,366.1875 Q580.7969,366.0781 581.0156,366.0781 Q581.3906,366.0781 581.625,366.3359 Q581.8594,366.5938 581.8594,367.2031 L581.8594,368.6563 Q581.8594,369.2656 581.625,369.5313 Q581.3906,369.7969 581.0156,369.7969 Q580.6719,369.7969 580.4688,369.5938 Q580.2656,369.4063 580.1563,368.8906 Q580.1094,368.5313 579.9219,368.3438 Q579.5938,367.9688 578.9844,367.75 Q578.375,367.5313 577.75,367.5313 Q576.9844,367.5313 576.3516,367.8594 Q575.7188,368.1875 575.2266,368.9375 Q574.7344,369.6875 574.7344,370.7188 L574.7344,371.8125 Q574.7344,373.0469 575.625,373.8672 Q576.5156,374.6875 578.1094,374.6875 Q579.0469,374.6875 579.7031,374.4375 Q580.0938,374.2813 580.5156,373.8438 Q580.7813,373.5781 580.9297,373.5 Q581.0781,373.4219 581.2813,373.4219 Q581.6094,373.4219 581.8672,373.6797 Q582.125,373.9375 582.125,374.2813 Q582.125,374.625 581.7813,375.0313 Q581.2813,375.6094 580.4844,375.9375 Q579.4063,376.3906 578.1094,376.3906 Q576.5938,376.3906 575.3906,375.7656 Q574.4063,375.2656 573.7188,374.1953 Q573.0313,373.125 573.0313,371.8438 L573.0313,370.6875 Q573.0313,369.3594 573.6484,368.2109 Q574.2656,367.0625 575.3594,366.4453 Q576.4531,365.8281 577.6875,365.8281 Q578.4219,365.8281 579.0703,365.9922 Q579.7188,366.1563 580.2656,366.5156 Z "/><text fill="#000000" font-family="sans-serif" font-size="12" lengthAdjust="spacingAndGlyphs" textLength="42" x="591.5" y="375.5508">Tiempo</text><line style="stroke: #A80036; stroke-width: 1.5;" x1="563.5" x2="635.5" y1="386.6406" y2="386.6406"/><line style="stroke: #A80036; stroke-width: 1.5;" x1="563.5" x2="635.5" y1="394.6406" y2="394.6406"/><!--class Coste--><rect fill="#0000FF" filter="url(#f1pyn4p1q1bypg)" height="48" id="Coste" style="stroke: #A80036; stroke-width: 1.5;" width="65" x="462" y="354.6406"/><rect fill="#0000FF" height="32" style="stroke: #A80036; stroke-width: 1.5;" width="65" x="462" y="354.6406"/><ellipse cx="477" cy="370.6406" fill="#ADD1B2" rx="11" ry="11" style="stroke: #A80036; stroke-width: 1.0;"/><path d="M479.7656,366.5156 Q479.9219,366.2969 480.1094,366.1875 Q480.2969,366.0781 480.5156,366.0781 Q480.8906,366.0781 481.125,366.3359 Q481.3594,366.5938 481.3594,367.2031 L481.3594,368.6563 Q481.3594,369.2656 481.125,369.5313 Q480.8906,369.7969 480.5156,369.7969 Q480.1719,369.7969 479.9688,369.5938 Q479.7656,369.4063 479.6563,368.8906 Q479.6094,368.5313 479.4219,368.3438 Q479.0938,367.9688 478.4844,367.75 Q477.875,367.5313 477.25,367.5313 Q476.4844,367.5313 475.8516,367.8594 Q475.2188,368.1875 474.7266,368.9375 Q474.2344,369.6875 474.2344,370.7188 L474.2344,371.8125 Q474.2344,373.0469 475.125,373.8672 Q476.0156,374.6875 477.6094,374.6875 Q478.5469,374.6875 479.2031,374.4375 Q479.5938,374.2813 480.0156,373.8438 Q480.2813,373.5781 480.4297,373.5 Q480.5781,373.4219 480.7813,373.4219 Q481.1094,373.4219 481.3672,373.6797 Q481.625,373.9375 481.625,374.2813 Q481.625,374.625 481.2813,375.0313 Q480.7813,375.6094 479.9844,375.9375 Q478.9063,376.3906 477.6094,376.3906 Q476.0938,376.3906 474.8906,375.7656 Q473.9063,375.2656 473.2188,374.1953 Q472.5313,373.125 472.5313,371.8438 L472.5313,370.6875 Q472.5313,369.3594 473.1484,368.2109 Q473.7656,367.0625 474.8594,366.4453 Q475.9531,365.8281 477.1875,365.8281 Q477.9219,365.8281 478.5703,365.9922 Q479.2188,366.1563 479.7656,366.5156 Z "/><text fill="#000000" font-family="sans-serif" font-size="12" lengthAdjust="spacingAndGlyphs" textLength="33" x="491" y="375.5508">Coste</text><line style="stroke: #A80036; stroke-width: 1.5;" x1="463" x2="526" y1="386.6406" y2="386.6406"/><line style="stroke: #A80036; stroke-width: 1.5;" x1="463" x2="526" y1="394.6406" y2="394.6406"/><!--class TiempoPlanificado--><rect fill="url(#g1pyn4p1q1bypg2)" filter="url(#f1pyn4p1q1bypg)" height="48" id="TiempoPlanificado" style="stroke: #A80036; stroke-width: 1.5;" width="137" x="841" y="462.6406"/><rect fill="url(#g1pyn4p1q1bypg2)" height="32" style="stroke: #A80036; stroke-width: 1.5;" width="137" x="841" y="462.6406"/><ellipse cx="856" cy="478.6406" fill="#ADD1B2" rx="11" ry="11" style="stroke: #A80036; stroke-width: 1.0;"/><path d="M858.7656,474.5156 Q858.9219,474.2969 859.1094,474.1875 Q859.2969,474.0781 859.5156,474.0781 Q859.8906,474.0781 860.125,474.3359 Q860.3594,474.5938 860.3594,475.2031 L860.3594,476.6563 Q860.3594,477.2656 860.125,477.5313 Q859.8906,477.7969 859.5156,477.7969 Q859.1719,477.7969 858.9688,477.5938 Q858.7656,477.4063 858.6563,476.8906 Q858.6094,476.5313 858.4219,476.3438 Q858.0938,475.9688 857.4844,475.75 Q856.875,475.5313 856.25,475.5313 Q855.4844,475.5313 854.8516,475.8594 Q854.2188,476.1875 853.7266,476.9375 Q853.2344,477.6875 853.2344,478.7188 L853.2344,479.8125 Q853.2344,481.0469 854.125,481.8672 Q855.0156,482.6875 856.6094,482.6875 Q857.5469,482.6875 858.2031,482.4375 Q858.5938,482.2813 859.0156,481.8438 Q859.2813,481.5781 859.4297,481.5 Q859.5781,481.4219 859.7813,481.4219 Q860.1094,481.4219 860.3672,481.6797 Q860.625,481.9375 860.625,482.2813 Q860.625,482.625 860.2813,483.0313 Q859.7813,483.6094 858.9844,483.9375 Q857.9063,484.3906 856.6094,484.3906 Q855.0938,484.3906 853.8906,483.7656 Q852.9063,483.2656 852.2188,482.1953 Q851.5313,481.125 851.5313,479.8438 L851.5313,478.6875 Q851.5313,477.3594 852.1484,476.2109 Q852.7656,475.0625 853.8594,474.4453 Q854.9531,473.8281 856.1875,473.8281 Q856.9219,473.8281 857.5703,473.9922 Q858.2188,474.1563 858.7656,474.5156 Z "/><text fill="#000000" font-family="sans-serif" font-size="12" lengthAdjust="spacingAndGlyphs" textLength="105" x="870" y="483.5508">Tiempo planificado</text><line style="stroke: #A80036; stroke-width: 1.5;" x1="842" x2="977" y1="494.6406" y2="494.6406"/><line style="stroke: #A80036; stroke-width: 1.5;" x1="842" x2="977" y1="502.6406" y2="502.6406"/><!--class TiempoNoPlanificado--><rect fill="url(#g1pyn4p1q1bypg3)" filter="url(#f1pyn4p1q1bypg)" height="48" id="TiempoNoPlanificado" style="stroke: #A80036; stroke-width: 1.5;" width="154" x="186.5" y="462.6406"/><rect fill="url(#g1pyn4p1q1bypg3)" height="32" style="stroke: #A80036; stroke-width: 1.5;" width="154" x="186.5" y="462.6406"/><ellipse cx="201.5" cy="478.6406" fill="#ADD1B2" rx="11" ry="11" style="stroke: #A80036; stroke-width: 1.0;"/><path d="M204.2656,474.5156 Q204.4219,474.2969 204.6094,474.1875 Q204.7969,474.0781 205.0156,474.0781 Q205.3906,474.0781 205.625,474.3359 Q205.8594,474.5938 205.8594,475.2031 L205.8594,476.6563 Q205.8594,477.2656 205.625,477.5313 Q205.3906,477.7969 205.0156,477.7969 Q204.6719,477.7969 204.4688,477.5938 Q204.2656,477.4063 204.1563,476.8906 Q204.1094,476.5313 203.9219,476.3438 Q203.5938,475.9688 202.9844,475.75 Q202.375,475.5313 201.75,475.5313 Q200.9844,475.5313 200.3516,475.8594 Q199.7188,476.1875 199.2266,476.9375 Q198.7344,477.6875 198.7344,478.7188 L198.7344,479.8125 Q198.7344,481.0469 199.625,481.8672 Q200.5156,482.6875 202.1094,482.6875 Q203.0469,482.6875 203.7031,482.4375 Q204.0938,482.2813 204.5156,481.8438 Q204.7813,481.5781 204.9297,481.5 Q205.0781,481.4219 205.2813,481.4219 Q205.6094,481.4219 205.8672,481.6797 Q206.125,481.9375 206.125,482.2813 Q206.125,482.625 205.7813,483.0313 Q205.2813,483.6094 204.4844,483.9375 Q203.4063,484.3906 202.1094,484.3906 Q200.5938,484.3906 199.3906,483.7656 Q198.4063,483.2656 197.7188,482.1953 Q197.0313,481.125 197.0313,479.8438 L197.0313,478.6875 Q197.0313,477.3594 197.6484,476.2109 Q198.2656,475.0625 199.3594,474.4453 Q200.4531,473.8281 201.6875,473.8281 Q202.4219,473.8281 203.0703,473.9922 Q203.7188,474.1563 204.2656,474.5156 Z "/><text fill="#000000" font-family="sans-serif" font-size="12" lengthAdjust="spacingAndGlyphs" textLength="122" x="215.5" y="483.5508">Tiempo no planificado</text><line style="stroke: #A80036; stroke-width: 1.5;" x1="187.5" x2="339.5" y1="494.6406" y2="494.6406"/><line style="stroke: #A80036; stroke-width: 1.5;" x1="187.5" x2="339.5" y1="502.6406" y2="502.6406"/><!--class AmbitoPlanificado--><rect fill="url(#g1pyn4p1q1bypg2)" filter="url(#f1pyn4p1q1bypg)" height="48" id="AmbitoPlanificado" style="stroke: #A80036; stroke-width: 1.5;" width="133" x="1013" y="462.6406"/><rect fill="url(#g1pyn4p1q1bypg2)" height="32" style="stroke: #A80036; stroke-width: 1.5;" width="133" x="1013" y="462.6406"/><ellipse cx="1028" cy="478.6406" fill="#ADD1B2" rx="11" ry="11" style="stroke: #A80036; stroke-width: 1.0;"/><path d="M1030.7656,474.5156 Q1030.9219,474.2969 1031.1094,474.1875 Q1031.2969,474.0781 1031.5156,474.0781 Q1031.8906,474.0781 1032.125,474.3359 Q1032.3594,474.5938 1032.3594,475.2031 L1032.3594,476.6563 Q1032.3594,477.2656 1032.125,477.5313 Q1031.8906,477.7969 1031.5156,477.7969 Q1031.1719,477.7969 1030.9688,477.5938 Q1030.7656,477.4063 1030.6563,476.8906 Q1030.6094,476.5313 1030.4219,476.3438 Q1030.0938,475.9688 1029.4844,475.75 Q1028.875,475.5313 1028.25,475.5313 Q1027.4844,475.5313 1026.8516,475.8594 Q1026.2188,476.1875 1025.7266,476.9375 Q1025.2344,477.6875 1025.2344,478.7188 L1025.2344,479.8125 Q1025.2344,481.0469 1026.125,481.8672 Q1027.0156,482.6875 1028.6094,482.6875 Q1029.5469,482.6875 1030.2031,482.4375 Q1030.5938,482.2813 1031.0156,481.8438 Q1031.2813,481.5781 1031.4297,481.5 Q1031.5781,481.4219 1031.7813,481.4219 Q1032.1094,481.4219 1032.3672,481.6797 Q1032.625,481.9375 1032.625,482.2813 Q1032.625,482.625 1032.2813,483.0313 Q1031.7813,483.6094 1030.9844,483.9375 Q1029.9063,484.3906 1028.6094,484.3906 Q1027.0938,484.3906 1025.8906,483.7656 Q1024.9063,483.2656 1024.2188,482.1953 Q1023.5313,481.125 1023.5313,479.8438 L1023.5313,478.6875 Q1023.5313,477.3594 1024.1484,476.2109 Q1024.7656,475.0625 1025.8594,474.4453 Q1026.9531,473.8281 1028.1875,473.8281 Q1028.9219,473.8281 1029.5703,473.9922 Q1030.2188,474.1563 1030.7656,474.5156 Z "/><text fill="#000000" font-family="sans-serif" font-size="12" lengthAdjust="spacingAndGlyphs" textLength="101" x="1042" y="483.5508">Ámbito planificado</text><line style="stroke: #A80036; stroke-width: 1.5;" x1="1014" x2="1145" y1="494.6406" y2="494.6406"/><line style="stroke: #A80036; stroke-width: 1.5;" x1="1014" x2="1145" y1="502.6406" y2="502.6406"/><!--class AmbitoNoPlanificado--><rect fill="url(#g1pyn4p1q1bypg3)" filter="url(#f1pyn4p1q1bypg)" height="48" id="AmbitoNoPlanificado" style="stroke: #A80036; stroke-width: 1.5;" width="150" x="375.5" y="462.6406"/><rect fill="url(#g1pyn4p1q1bypg3)" height="32" style="stroke: #A80036; stroke-width: 1.5;" width="150" x="375.5" y="462.6406"/><ellipse cx="390.5" cy="478.6406" fill="#ADD1B2" rx="11" ry="11" style="stroke: #A80036; stroke-width: 1.0;"/><path d="M393.2656,474.5156 Q393.4219,474.2969 393.6094,474.1875 Q393.7969,474.0781 394.0156,474.0781 Q394.3906,474.0781 394.625,474.3359 Q394.8594,474.5938 394.8594,475.2031 L394.8594,476.6563 Q394.8594,477.2656 394.625,477.5313 Q394.3906,477.7969 394.0156,477.7969 Q393.6719,477.7969 393.4688,477.5938 Q393.2656,477.4063 393.1563,476.8906 Q393.1094,476.5313 392.9219,476.3438 Q392.5938,475.9688 391.9844,475.75 Q391.375,475.5313 390.75,475.5313 Q389.9844,475.5313 389.3516,475.8594 Q388.7188,476.1875 388.2266,476.9375 Q387.7344,477.6875 387.7344,478.7188 L387.7344,479.8125 Q387.7344,481.0469 388.625,481.8672 Q389.5156,482.6875 391.1094,482.6875 Q392.0469,482.6875 392.7031,482.4375 Q393.0938,482.2813 393.5156,481.8438 Q393.7813,481.5781 393.9297,481.5 Q394.0781,481.4219 394.2813,481.4219 Q394.6094,481.4219 394.8672,481.6797 Q395.125,481.9375 395.125,482.2813 Q395.125,482.625 394.7813,483.0313 Q394.2813,483.6094 393.4844,483.9375 Q392.4063,484.3906 391.1094,484.3906 Q389.5938,484.3906 388.3906,483.7656 Q387.4063,483.2656 386.7188,482.1953 Q386.0313,481.125 386.0313,479.8438 L386.0313,478.6875 Q386.0313,477.3594 386.6484,476.2109 Q387.2656,475.0625 388.3594,474.4453 Q389.4531,473.8281 390.6875,473.8281 Q391.4219,473.8281 392.0703,473.9922 Q392.7188,474.1563 393.2656,474.5156 Z "/><text fill="#000000" font-family="sans-serif" font-size="12" lengthAdjust="spacingAndGlyphs" textLength="118" x="404.5" y="483.5508">Ámbito no planificado</text><line style="stroke: #A80036; stroke-width: 1.5;" x1="376.5" x2="524.5" y1="494.6406" y2="494.6406"/><line style="stroke: #A80036; stroke-width: 1.5;" x1="376.5" x2="524.5" y1="502.6406" y2="502.6406"/><!--class CostePlanificado--><rect fill="url(#g1pyn4p1q1bypg2)" filter="url(#f1pyn4p1q1bypg)" height="48" id="CostePlanificado" style="stroke: #A80036; stroke-width: 1.5;" width="135" x="671" y="462.6406"/><rect fill="url(#g1pyn4p1q1bypg2)" height="32" style="stroke: #A80036; stroke-width: 1.5;" width="135" x="671" y="462.6406"/><ellipse cx="686" cy="478.6406" fill="#ADD1B2" rx="11" ry="11" style="stroke: #A80036; stroke-width: 1.0;"/><path d="M688.7656,474.5156 Q688.9219,474.2969 689.1094,474.1875 Q689.2969,474.0781 689.5156,474.0781 Q689.8906,474.0781 690.125,474.3359 Q690.3594,474.5938 690.3594,475.2031 L690.3594,476.6563 Q690.3594,477.2656 690.125,477.5313 Q689.8906,477.7969 689.5156,477.7969 Q689.1719,477.7969 688.9688,477.5938 Q688.7656,477.4063 688.6563,476.8906 Q688.6094,476.5313 688.4219,476.3438 Q688.0938,475.9688 687.4844,475.75 Q686.875,475.5313 686.25,475.5313 Q685.4844,475.5313 684.8516,475.8594 Q684.2188,476.1875 683.7266,476.9375 Q683.2344,477.6875 683.2344,478.7188 L683.2344,479.8125 Q683.2344,481.0469 684.125,481.8672 Q685.0156,482.6875 686.6094,482.6875 Q687.5469,482.6875 688.2031,482.4375 Q688.5938,482.2813 689.0156,481.8438 Q689.2813,481.5781 689.4297,481.5 Q689.5781,481.4219 689.7813,481.4219 Q690.1094,481.4219 690.3672,481.6797 Q690.625,481.9375 690.625,482.2813 Q690.625,482.625 690.2813,483.0313 Q689.7813,483.6094 688.9844,483.9375 Q687.9063,484.3906 686.6094,484.3906 Q685.0938,484.3906 683.8906,483.7656 Q682.9063,483.2656 682.2188,482.1953 Q681.5313,481.125 681.5313,479.8438 L681.5313,478.6875 Q681.5313,477.3594 682.1484,476.2109 Q682.7656,475.0625 683.8594,474.4453 Q684.9531,473.8281 686.1875,473.8281 Q686.9219,473.8281 687.5703,473.9922 Q688.2188,474.1563 688.7656,474.5156 Z "/><text fill="#000000" font-family="sans-serif" font-size="12" lengthAdjust="spacingAndGlyphs" textLength="103" x="700" y="483.5508">Costes planificado</text><line style="stroke: #A80036; stroke-width: 1.5;" x1="672" x2="805" y1="494.6406" y2="494.6406"/><line style="stroke: #A80036; stroke-width: 1.5;" x1="672" x2="805" y1="502.6406" y2="502.6406"/><!--class CosteNoPlanificado--><rect fill="url(#g1pyn4p1q1bypg3)" filter="url(#f1pyn4p1q1bypg)" height="48" id="CosteNoPlanificado" style="stroke: #A80036; stroke-width: 1.5;" width="145" x="6" y="462.6406"/><rect fill="url(#g1pyn4p1q1bypg3)" height="32" style="stroke: #A80036; stroke-width: 1.5;" width="145" x="6" y="462.6406"/><ellipse cx="21" cy="478.6406" fill="#ADD1B2" rx="11" ry="11" style="stroke: #A80036; stroke-width: 1.0;"/><path d="M23.7656,474.5156 Q23.9219,474.2969 24.1094,474.1875 Q24.2969,474.0781 24.5156,474.0781 Q24.8906,474.0781 25.125,474.3359 Q25.3594,474.5938 25.3594,475.2031 L25.3594,476.6563 Q25.3594,477.2656 25.125,477.5313 Q24.8906,477.7969 24.5156,477.7969 Q24.1719,477.7969 23.9688,477.5938 Q23.7656,477.4063 23.6563,476.8906 Q23.6094,476.5313 23.4219,476.3438 Q23.0938,475.9688 22.4844,475.75 Q21.875,475.5313 21.25,475.5313 Q20.4844,475.5313 19.8516,475.8594 Q19.2188,476.1875 18.7266,476.9375 Q18.2344,477.6875 18.2344,478.7188 L18.2344,479.8125 Q18.2344,481.0469 19.125,481.8672 Q20.0156,482.6875 21.6094,482.6875 Q22.5469,482.6875 23.2031,482.4375 Q23.5938,482.2813 24.0156,481.8438 Q24.2813,481.5781 24.4297,481.5 Q24.5781,481.4219 24.7813,481.4219 Q25.1094,481.4219 25.3672,481.6797 Q25.625,481.9375 25.625,482.2813 Q25.625,482.625 25.2813,483.0313 Q24.7813,483.6094 23.9844,483.9375 Q22.9063,484.3906 21.6094,484.3906 Q20.0938,484.3906 18.8906,483.7656 Q17.9063,483.2656 17.2188,482.1953 Q16.5313,481.125 16.5313,479.8438 L16.5313,478.6875 Q16.5313,477.3594 17.1484,476.2109 Q17.7656,475.0625 18.8594,474.4453 Q19.9531,473.8281 21.1875,473.8281 Q21.9219,473.8281 22.5703,473.9922 Q23.2188,474.1563 23.7656,474.5156 Z "/><text fill="#000000" font-family="sans-serif" font-size="12" lengthAdjust="spacingAndGlyphs" textLength="113" x="35" y="483.5508">Coste no planificado</text><line style="stroke: #A80036; stroke-width: 1.5;" x1="7" x2="150" y1="494.6406" y2="494.6406"/><line style="stroke: #A80036; stroke-width: 1.5;" x1="7" x2="150" y1="502.6406" y2="502.6406"/><!--link ProyectoSoftware to ProductoSoftware--><path d="M538.221,86.6726 C519.865,100.4726 498.296,116.6876 479.923,130.5006 " fill="none" id="ProyectoSoftware-ProductoSoftware" style="stroke: #A80036; stroke-width: 1.0;"/><polygon fill="#A80036" points="469.522,138.3186,479.1196,136.1081,473.5187,135.3142,474.3125,129.7134,469.522,138.3186" style="stroke: #A80036; stroke-width: 1.0;"/><line style="stroke: #A80036; stroke-width: 1.0;" x1="473.5187" x2="479.913" y1="135.3142" y2="130.5076"/><polygon fill="#A80036" points="548.905,78.6406,541.7054,79.0485,539.3129,85.8512,546.5125,85.4433,548.905,78.6406" style="stroke: #A80036; stroke-width: 1.0;"/><!--link ProyectoSoftware to Variable--><path d="M588.826,91.7416 C595.791,118.1416 605.75,154.7566 615.5,186.6406 C620.267,202.2286 625.951,219.3136 630.948,233.9096 " fill="none" id="ProyectoSoftware-Variable" style="stroke: #A80036; stroke-width: 1.0;"/><polygon fill="#A80036" points="635.298,246.5006,636.1393,236.6878,633.665,241.7748,628.578,239.3005,635.298,246.5006" style="stroke: #A80036; stroke-width: 1.0;"/><line style="stroke: #A80036; stroke-width: 1.0;" x1="633.665" x2="631.0525" y1="241.7748" y2="234.2136"/><polygon fill="#A80036" points="585.474,78.9466,583.125,85.7644,588.5149,90.5549,590.8639,83.7372,585.474,78.9466" style="stroke: #A80036; stroke-width: 1.0;"/><!--link ProyectoSoftware to Efectividad--><path d="M609.971,88.2666 C621.9,101.0386 635.568,115.6726 647.543,128.4946 " fill="none" id="ProyectoSoftware-Efectividad" style="stroke: #A80036; stroke-width: 1.0;"/><polygon fill="#A80036" points="656.719,138.3186,653.4991,129.011,653.3061,134.6645,647.6526,134.4716,656.719,138.3186" style="stroke: #A80036; stroke-width: 1.0;"/><line style="stroke: #A80036; stroke-width: 1.0;" x1="653.3061" x2="647.845" y1="134.6645" y2="128.8181"/><polygon fill="#A80036" points="600.982,78.6406,602.1542,85.7558,609.1729,87.4104,608.0007,80.2952,600.982,78.6406" style="stroke: #A80036; stroke-width: 1.0;"/><!--link ProyectoSoftware to ProyectoPlanificado--><path d="M658.852,87.1996 C686.741,100.5546 717.163,117.8756 741.5,138.6406 C816.737,202.8346 874.831,307.9046 898.245,354.3326 " fill="none" id="ProyectoSoftware-ProyectoPlanificado" style="stroke: #A80036; stroke-width: 1.0;"/><polygon fill="none" points="655.785,93.4946,640.519,78.7986,661.617,80.7676,655.785,93.4946" style="stroke: #A80036; stroke-width: 1.0;"/><!--link ProyectoSoftware to ProyectoNoPlanificado--><path d="M495.252,78.3626 C451.912,92.1436 399.338,112.2166 356.5,138.6406 C255.119,201.1776 158.7,307.5826 118.79,354.3826 " fill="none" id="ProyectoSoftware-ProyectoNoPlanificado" style="stroke: #A80036; stroke-width: 1.0;"/><polygon fill="none" points="493.274,71.6476,514.447,72.4726,497.38,85.0316,493.274,71.6476" style="stroke: #A80036; stroke-width: 1.0;"/><!--link ProductoSoftware to Calidad--><path d="M428.938,199.7126 C417.946,249.4166 405.98,339.9236 444.5,402.6406 C456.564,422.2836 508.467,447.8146 548.722,465.3436 " fill="none" id="ProductoSoftware-Calidad" style="stroke: #A80036; stroke-width: 1.0;"/><polygon fill="#A80036" points="560.784,470.5116,554.0866,463.2904,556.1881,468.5425,550.936,470.6439,560.784,470.5116" style="stroke: #A80036; stroke-width: 1.0;"/><line style="stroke: #A80036; stroke-width: 1.0;" x1="556.1881" x2="548.835" y1="468.5425" y2="465.3921"/><polygon fill="#A80036" points="431.97,186.8326,426.7017,191.7565,429.2206,198.5134,434.4889,193.5895,431.97,186.8326" style="stroke: #A80036; stroke-width: 1.0;"/><!--link Calidad to Mantenibilidad--><path d="M598.5,523.9789 C598.5,534.647 598.5,546.3178 598.5,557.0044 " fill="none" id="Calidad-Mantenibilidad" style="stroke: #A80036; stroke-width: 1.0;"/><polygon fill="#A80036" points="598.5,570.319,602.5,561.319,598.5,565.319,594.5,561.319,598.5,570.319" style="stroke: #A80036; stroke-width: 1.0;"/><line style="stroke: #A80036; stroke-width: 1.0;" x1="598.5" x2="598.5" y1="565.319" y2="557.3191"/><polygon fill="#A80036" points="598.5,510.6406,594.5,516.6406,598.5,522.6406,602.5,516.6406,598.5,510.6406" style="stroke: #A80036; stroke-width: 1.0;"/><!--link Efectividad to Eficacia--><path d="M705.654,196.7246 C715.971,209.2946 727.723,223.6136 738.065,236.2146 " fill="none" id="Efectividad-Eficacia" style="stroke: #A80036; stroke-width: 1.0;"/><polygon fill="#A80036" points="746.359,246.3186,743.7412,236.824,743.1869,242.4537,737.5573,241.8994,746.359,246.3186" style="stroke: #A80036; stroke-width: 1.0;"/><line style="stroke: #A80036; stroke-width: 1.0;" x1="743.1869" x2="738.111" y1="242.4537" y2="236.2701"/><polygon fill="#A80036" points="697.378,186.6406,698.0925,193.8162,704.991,195.9165,704.2765,188.7409,697.378,186.6406" style="stroke: #A80036; stroke-width: 1.0;"/><!--link Efectividad to Eficiencia--><path d="M634.898,194.2486 C614.878,208.3026 591.192,224.9296 571.165,238.9886 " fill="none" id="Efectividad-Eficiencia" style="stroke: #A80036; stroke-width: 1.0;"/><polygon fill="#A80036" points="560.461,246.5026,570.1253,244.605,564.5532,243.6296,565.5285,238.0575,560.461,246.5026" style="stroke: #A80036; stroke-width: 1.0;"/><line style="stroke: #A80036; stroke-width: 1.0;" x1="564.5532" x2="571.1015" y1="243.6296" y2="239.0326"/><polygon fill="#A80036" points="645.735,186.6406,638.526,186.8138,635.9131,193.5349,643.1222,193.3617,645.735,186.6406" style="stroke: #A80036; stroke-width: 1.0;"/><!--link Eficacia to Ambito--><path d="M768.104,294.6406 C769.915,310.6436 772.343,332.0866 774.277,349.1686 " fill="none" id="Eficacia-Ambito" style="stroke: #A80036; stroke-width: 1.0;"/><polygon fill="#A80036" points="774.86,354.3186,777.8215,344.9256,774.2972,349.3504,769.8724,345.8261,774.86,354.3186" style="stroke: #A80036; stroke-width: 1.0;"/><!--link Eficiencia to Tiempo--><path d="M543.123,294.6406 C554.18,310.9196 569.061,332.8276 580.758,350.0486 " fill="none" id="Eficiencia-Tiempo" style="stroke: #A80036; stroke-width: 1.0;"/><polygon fill="#A80036" points="583.659,354.3186,581.9096,344.6264,580.849,350.1829,575.2925,349.1224,583.659,354.3186" style="stroke: #A80036; stroke-width: 1.0;"/><!--link Eficiencia to Coste--><path d="M520.339,294.6406 C515.358,310.6436 508.682,332.0866 503.364,349.1686 " fill="none" id="Eficiencia-Coste" style="stroke: #A80036; stroke-width: 1.0;"/><polygon fill="#A80036" points="501.76,354.3186,508.2556,346.9154,503.247,349.5449,500.6176,344.5363,501.76,354.3186" style="stroke: #A80036; stroke-width: 1.0;"/><!--link Variable to Tiempo--><path d="M626.243,313.2156 C620.444,327.1836 614.185,342.2626 609.181,354.3186 " fill="none" id="Variable-Tiempo" style="stroke: #A80036; stroke-width: 1.0;"/><polygon fill="none" points="619.82,310.4296,633.953,294.6406,632.75,315.7966,619.82,310.4296" style="stroke: #A80036; stroke-width: 1.0;"/><!--link Variable to Ambito--><path d="M688.548,307.2756 C708.158,322.7876 730.588,340.5306 748.018,354.3186 " fill="none" id="Variable-Ambito" style="stroke: #A80036; stroke-width: 1.0;"/><polygon fill="none" points="683.919,312.5396,672.576,294.6406,692.605,301.5596,683.919,312.5396" style="stroke: #A80036; stroke-width: 1.0;"/><!--link Variable to Coste--><path d="M594.66,306.3856 C572.467,322.1736 546.813,340.4246 527.025,354.5026 " fill="none" id="Variable-Coste" style="stroke: #A80036; stroke-width: 1.0;"/><polygon fill="none" points="590.815,300.5306,611.169,294.6406,598.93,311.9386,590.815,300.5306" style="stroke: #A80036; stroke-width: 1.0;"/><!--link Variable to Calidad--><path d="M654.547,314.6916 C659.321,340.6706 662.084,374.1466 653.5,402.6406 C646.769,424.9856 631.842,446.8446 619.235,462.5176 " fill="none" id="Variable-Calidad" style="stroke: #A80036; stroke-width: 1.0;"/><polygon fill="none" points="647.654,315.9346,650.27,294.9066,661.338,312.9756,647.654,315.9346" style="stroke: #A80036; stroke-width: 1.0;"/><!--link Tiempo to Calidad--><path d="M599.283,402.6406 C599.132,418.6436 598.93,440.0866 598.769,457.1686 " fill="none" id="Tiempo-Calidad" style="stroke: #A80036; stroke-width: 1.0;"/><polygon fill="#A80036" points="598.72,462.3186,602.8047,453.3567,598.7671,457.3188,594.805,453.2813,598.72,462.3186" style="stroke: #A80036; stroke-width: 1.0;"/><!--link Ambito to Calidad--><path d="M742.135,400.5826 C713.002,417.8346 671.611,442.3466 640.739,460.6276 " fill="none" id="Ambito-Calidad" style="stroke: #A80036; stroke-width: 1.0;"/><polygon fill="#A80036" points="636.263,463.2786,646.0454,462.1361,640.5656,460.7316,641.9701,455.2519,636.263,463.2786" style="stroke: #A80036; stroke-width: 1.0;"/><!--link Coste to Calidad--><path d="M517.066,402.6406 C533.173,419.0576 554.897,441.1996 571.857,458.4846 " fill="none" id="Coste-Calidad" style="stroke: #A80036; stroke-width: 1.0;"/><polygon fill="#A80036" points="575.618,462.3186,572.1699,453.0931,572.1162,458.7497,566.4596,458.696,575.618,462.3186" style="stroke: #A80036; stroke-width: 1.0;"/><!--link Tiempo to TiempoPlanificado--><path d="M655.646,398.8386 C708.074,416.7656 786.398,443.5476 842.165,462.6166 " fill="none" id="Tiempo-TiempoPlanificado" style="stroke: #A80036; stroke-width: 1.0;"/><polygon fill="none" points="653.245,405.4156,636.585,392.3216,657.774,392.1686,653.245,405.4156" style="stroke: #A80036; stroke-width: 1.0;"/><!--link Tiempo to TiempoNoPlanificado--><path d="M543.411,402.5646 C464.835,430.1986 393.207,450.8886 340.553,465.3196 " fill="none" id="Tiempo-TiempoNoPlanificado" style="stroke: #A80036; stroke-width: 1.0;"/><polygon fill="none" points="541.248,395.9046,562.437,395.7836,545.947,409.0916,541.248,395.9046" style="stroke: #A80036; stroke-width: 1.0;"/><!--link Ambito to AmbitoPlanificado--><path d="M831.216,402.9076 C902.111,429.9986 966.17,450.8466 1012.83,465.4196 " fill="none" id="Ambito-AmbitoPlanificado" style="stroke: #A80036; stroke-width: 1.0;"/><polygon fill="none" points="828.682,409.4326,812.553,395.6906,833.732,396.3756,828.682,409.4326" style="stroke: #A80036; stroke-width: 1.0;"/><!--link Ambito to AmbitoNoPlanificado--><path d="M722.973,397.3156 C667.718,415.2276 581.978,443.0206 521.459,462.6386 " fill="none" id="Ambito-AmbitoNoPlanificado" style="stroke: #A80036; stroke-width: 1.0;"/><polygon fill="none" points="721.011,390.5936,742.195,391.0856,725.328,403.9116,721.011,390.5936" style="stroke: #A80036; stroke-width: 1.0;"/><!--link Coste to CostePlanificado--><path d="M545.687,403.0486 C601.504,427.7606 648.422,447.7606 683.558,462.5986 " fill="none" id="Coste-CostePlanificado" style="stroke: #A80036; stroke-width: 1.0;"/><polygon fill="none" points="542.691,409.3776,527.255,394.8606,548.375,396.5836,542.691,409.3776" style="stroke: #A80036; stroke-width: 1.0;"/><!--link Coste to CosteNoPlanificado--><path d="M442.127,392.9596 C377.72,409.3426 265.057,438.0106 168.5,462.6406 C162.874,464.0756 157.051,465.5616 151.197,467.0566 " fill="none" id="Coste-CosteNoPlanificado" style="stroke: #A80036; stroke-width: 1.0;"/><polygon fill="none" points="440.536,386.1416,461.644,387.9956,443.987,399.7096,440.536,386.1416" style="stroke: #A80036; stroke-width: 1.0;"/><!--link ProyectoPlanificado to TiempoPlanificado--><path d="M909.5,402.6406 C909.5,418.6436 909.5,440.0866 909.5,457.1686 " fill="none" id="ProyectoPlanificado-TiempoPlanificado" style="stroke: #A80036; stroke-width: 1.0;"/><polygon fill="#A80036" points="909.5,462.3186,913.5,453.3186,909.5,457.3186,905.5,453.3186,909.5,462.3186" style="stroke: #A80036; stroke-width: 1.0;"/><!--link ProyectoPlanificado to AmbitoPlanificado--><path d="M946.387,402.6406 C973.361,419.4596 1009.97,442.2896 1037.97,459.7476 " fill="none" id="ProyectoPlanificado-AmbitoPlanificado" style="stroke: #A80036; stroke-width: 1.0;"/><polygon fill="#A80036" points="1042.39,462.5026,1036.8657,454.349,1038.146,459.8591,1032.6359,461.1394,1042.39,462.5026" style="stroke: #A80036; stroke-width: 1.0;"/><!--link ProyectoPlanificado to CostePlanificado--><path d="M872.396,402.6406 C845.263,419.4596 808.435,442.2896 780.27,459.7476 " fill="none" id="ProyectoPlanificado-CostePlanificado" style="stroke: #A80036; stroke-width: 1.0;"/><polygon fill="#A80036" points="775.827,462.5026,785.584,461.161,780.0768,459.8684,781.3694,454.3612,775.827,462.5026" style="stroke: #A80036; stroke-width: 1.0;"/><!--link ProyectoNoPlanificado to TiempoNoPlanificado--><path d="M135.086,402.6406 C161.108,419.4596 196.428,442.2896 223.44,459.7476 " fill="none" id="ProyectoNoPlanificado-TiempoNoPlanificado" style="stroke: #A80036; stroke-width: 1.0;"/><polygon fill="#A80036" points="227.701,462.5026,222.3145,454.2573,223.502,459.7881,217.9712,460.9756,227.701,462.5026" style="stroke: #A80036; stroke-width: 1.0;"/><!--link ProyectoNoPlanificado to AmbitoNoPlanificado--><path d="M171.377,401.3466 C229.219,418.8146 310.457,443.3486 370.383,461.4456 " fill="none" id="ProyectoNoPlanificado-AmbitoNoPlanificado" style="stroke: #A80036; stroke-width: 1.0;"/><polygon fill="#A80036" points="375.386,462.9566,367.9267,456.5255,370.5995,461.5111,365.6139,464.1839,375.386,462.9566" style="stroke: #A80036; stroke-width: 1.0;"/><!--link ProyectoNoPlanificado to CosteNoPlanificado--><path d="M94.9433,402.6406 C91.773,418.6436 87.5248,440.0866 84.1407,457.1686 " fill="none" id="ProyectoNoPlanificado-CosteNoPlanificado" style="stroke: #A80036; stroke-width: 1.0;"/><polygon fill="#A80036" points="83.1203,462.3186,88.7927,454.2673,84.0917,457.4139,80.9451,452.713,83.1203,462.3186" style="stroke: #A80036; stroke-width: 1.0;"/><!--
@startuml

title Proyecto Software

class "Proyecto Software" as ProyectoSoftware #GreenYellow
ProyectoSoftware *-down-> ProductoSoftware
ProyectoSoftware *-down-> Variable
ProyectoSoftware *-down-> Efectividad

class "Proyecto Efectivo" as ProyectoPlanificado #GreenYellow|green
class "Proyecto No Efectivo" as ProyectoNoPlanificado #GreenYellow|red
note right {
    tarde, mal y caro!?!??!
}
ProyectoSoftware <|-down- ProyectoPlanificado
ProyectoSoftware <|-down- ProyectoNoPlanificado


class "Producto Software" as ProductoSoftware #GreenYellow
ProductoSoftware *-down-> Calidad

class Calidad #CornflowerBlue
Calidad *-down-> Mantenibilidad

class Mantenibilidad #CornflowerBlue

class Efectividad #orange
class Eficacia #orange
class Eficiencia #orange
Efectividad *-down-> Eficacia
Efectividad *-down-> Eficiencia

Eficacia -down-> Ambito
Eficiencia -down-> Tiempo
Eficiencia -down-> Coste

class Variable #blue
class Tiempo #blue
class "Ámbito" as Ambito #blue
class Coste #blue

Variable <|-down- Tiempo
Variable <|-down- Ambito
Variable <|-down- Coste
Variable <|-down- Calidad

Tiempo -down-> Calidad
Ambito -down-> Calidad
Coste -down-> Calidad

class "Tiempo planificado" as TiempoPlanificado #blue|green
class "Tiempo no planificado" as TiempoNoPlanificado #blue|red
class "Ámbito planificado" as AmbitoPlanificado #blue|green
class "Ámbito no planificado" as AmbitoNoPlanificado #blue|red
class "Costes planificado" as CostePlanificado #blue|green
class "Coste no planificado" as CosteNoPlanificado #blue|red

Tiempo <|-down- TiempoPlanificado
Tiempo <|-down- TiempoNoPlanificado
Ambito <|-down- AmbitoPlanificado
Ambito <|-down- AmbitoNoPlanificado
Coste <|-down- CostePlanificado
Coste <|-down- CosteNoPlanificado

ProyectoPlanificado  -down-> TiempoPlanificado
ProyectoPlanificado  -down-> AmbitoPlanificado
ProyectoPlanificado  -down-> CostePlanificado
ProyectoNoPlanificado  -down-> TiempoNoPlanificado
ProyectoNoPlanificado  -down-> AmbitoNoPlanificado
ProyectoNoPlanificado  -down-> CosteNoPlanificado
@enduml

PlantUML version 1.2019.05(Sat Apr 20 18:45:36 CEST 2019)
(GPL source distribution)
Java Runtime: Java(TM) SE Runtime Environment
JVM: Java HotSpot(TM) 64-Bit Server VM
Java Version: 1.8.0_211-b12
Operating System: Windows 10
OS Version: 10.0
Default Encoding: windows-1252
Language: es
Country: ES
--></g></svg>