<?xml version="1.0" encoding="UTF-8" standalone="no"?><svg xmlns="http://www.w3.org/2000/svg" xmlns:xlink="http://www.w3.org/1999/xlink" contentScriptType="application/ecmascript" contentStyleType="text/css" height="294px" preserveAspectRatio="none" style="width:435px;height:294px;" version="1.1" viewBox="0 0 435 294" width="435px" zoomAndPan="magnify"><defs><filter height="300%" id="f1wo8h5swteejb" width="300%" x="-1" y="-1"><feGaussianBlur result="blurOut" stdDeviation="2.0"/><feColorMatrix in="blurOut" result="blurOut2" type="matrix" values="0 0 0 0 0 0 0 0 0 0 0 0 0 0 0 0 0 0 .4 0"/><feOffset dx="4.0" dy="4.0" in="blurOut2" result="blurOut3"/><feBlend in="SourceGraphic" in2="blurOut3" mode="normal"/></filter><linearGradient id="g1wo8h5swteejb0" x1="0%" x2="100%" y1="50%" y2="50%"><stop offset="0%" stop-color="#800080"/><stop offset="100%" stop-color="#008000"/></linearGradient><linearGradient id="g1wo8h5swteejb1" x1="0%" x2="100%" y1="50%" y2="50%"><stop offset="0%" stop-color="#800080"/><stop offset="100%" stop-color="#FF0000"/></linearGradient></defs><g><!--entity A--><ellipse cx="51.5" cy="18" fill="#FEFECE" filter="url(#f1wo8h5swteejb)" rx="8" ry="8" style="stroke: #A80036; stroke-width: 2.0;"/><path d="M51.5,26 L51.5,53 M38.5,34 L64.5,34 M51.5,53 L38.5,68 M51.5,53 L64.5,68 " fill="none" filter="url(#f1wo8h5swteejb)" style="stroke: #A80036; stroke-width: 2.0;"/><text fill="#000000" font-family="sans-serif" font-size="14" lengthAdjust="spacingAndGlyphs" textLength="48" x="27.5" y="89.5332">Usuario</text><!--entity B--><ellipse cx="269.5" cy="18" fill="#FEFECE" filter="url(#f1wo8h5swteejb)" rx="8" ry="8" style="stroke: #A80036; stroke-width: 2.0;"/><path d="M269.5,26 L269.5,53 M256.5,34 L282.5,34 M269.5,53 L256.5,68 M269.5,53 L282.5,68 " fill="none" filter="url(#f1wo8h5swteejb)" style="stroke: #A80036; stroke-width: 2.0;"/><text fill="#000000" font-family="sans-serif" font-size="14" lengthAdjust="spacingAndGlyphs" textLength="44" x="247.5" y="89.5332">Cliente</text><!--entity C--><ellipse cx="372.5" cy="18" fill="#FEFECE" filter="url(#f1wo8h5swteejb)" rx="8" ry="8" style="stroke: #A80036; stroke-width: 2.0;"/><path d="M372.5,26 L372.5,53 M359.5,34 L385.5,34 M372.5,53 L359.5,68 M372.5,53 L385.5,68 " fill="none" filter="url(#f1wo8h5swteejb)" style="stroke: #A80036; stroke-width: 2.0;"/><text fill="#000000" font-family="sans-serif" font-size="14" lengthAdjust="spacingAndGlyphs" textLength="86" x="329.5" y="89.5332">Desorrallador</text><rect fill="#800080" filter="url(#f1wo8h5swteejb)" height="35.0938" style="stroke: #A80036; stroke-width: 1.5;" width="94" x="112.5" y="33"/><text fill="#000000" font-family="sans-serif" font-size="12" lengthAdjust="spacingAndGlyphs" textLength="80" x="119.5" y="47.457">Mantenibilidad</text><line style="stroke: #A80036; stroke-width: 1.5;" x1="113.5" x2="205.5" y1="52.0938" y2="52.0938"/><rect fill="url(#g1wo8h5swteejb0)" filter="url(#f1wo8h5swteejb)" height="35.0938" style="stroke: #A80036; stroke-width: 1.5;" width="64" x="14.5" y="153"/><text fill="#000000" font-family="sans-serif" font-size="12" lengthAdjust="spacingAndGlyphs" textLength="50" x="21.5" y="167.457">Fortaleza</text><line style="stroke: #A80036; stroke-width: 1.5;" x1="15.5" x2="77.5" y1="172.0938" y2="172.0938"/><rect fill="url(#g1wo8h5swteejb1)" filter="url(#f1wo8h5swteejb)" height="35.0938" style="stroke: #A80036; stroke-width: 1.5;" width="79" x="6" y="248"/><text fill="#000000" font-family="sans-serif" font-size="12" lengthAdjust="spacingAndGlyphs" textLength="65" x="13" y="262.457">Fragibilidad</text><line style="stroke: #A80036; stroke-width: 1.5;" x1="7" x2="84" y1="267.0938" y2="267.0938"/><rect fill="url(#g1wo8h5swteejb0)" filter="url(#f1wo8h5swteejb)" height="35.0938" style="stroke: #A80036; stroke-width: 1.5;" width="88" x="113.5" y="153"/><text fill="#000000" font-family="sans-serif" font-size="12" lengthAdjust="spacingAndGlyphs" textLength="74" x="120.5" y="167.457">Reusabilidad</text><line style="stroke: #A80036; stroke-width: 1.5;" x1="114.5" x2="200.5" y1="172.0938" y2="172.0938"/><rect fill="url(#g1wo8h5swteejb1)" filter="url(#f1wo8h5swteejb)" height="35.0938" style="stroke: #A80036; stroke-width: 1.5;" width="79" x="120" y="248"/><text fill="#000000" font-family="sans-serif" font-size="12" lengthAdjust="spacingAndGlyphs" textLength="65" x="127" y="262.457">Inmobilidad</text><line style="stroke: #A80036; stroke-width: 1.5;" x1="121" x2="198" y1="267.0938" y2="267.0938"/><rect fill="url(#g1wo8h5swteejb0)" filter="url(#f1wo8h5swteejb)" height="35.0938" style="stroke: #A80036; stroke-width: 1.5;" width="53" x="348" y="153"/><text fill="#000000" font-family="sans-serif" font-size="12" lengthAdjust="spacingAndGlyphs" textLength="39" x="355" y="167.457">Fluidez</text><line style="stroke: #A80036; stroke-width: 1.5;" x1="349" x2="400" y1="172.0938" y2="172.0938"/><rect fill="url(#g1wo8h5swteejb1)" filter="url(#f1wo8h5swteejb)" height="35.0938" style="stroke: #A80036; stroke-width: 1.5;" width="91" x="333" y="248"/><text fill="#000000" font-family="sans-serif" font-size="12" lengthAdjust="spacingAndGlyphs" textLength="77" x="340" y="262.457">Viscosibilidad</text><line style="stroke: #A80036; stroke-width: 1.5;" x1="334" x2="423" y1="267.0938" y2="267.0938"/><rect fill="url(#g1wo8h5swteejb0)" filter="url(#f1wo8h5swteejb)" height="35.0938" style="stroke: #A80036; stroke-width: 1.5;" width="76" x="236.5" y="153"/><text fill="#000000" font-family="sans-serif" font-size="12" lengthAdjust="spacingAndGlyphs" textLength="62" x="243.5" y="167.457">Flexibilidad</text><line style="stroke: #A80036; stroke-width: 1.5;" x1="237.5" x2="311.5" y1="172.0938" y2="172.0938"/><rect fill="url(#g1wo8h5swteejb1)" filter="url(#f1wo8h5swteejb)" height="35.0938" style="stroke: #A80036; stroke-width: 1.5;" width="55" x="243" y="248"/><text fill="#000000" font-family="sans-serif" font-size="12" lengthAdjust="spacingAndGlyphs" textLength="41" x="250" y="262.457">Rigidez</text><line style="stroke: #A80036; stroke-width: 1.5;" x1="244" x2="297" y1="267.0938" y2="267.0938"/><!--link Mantenibilidad to Flexibilidad--><path d="M184.979,77.644 C207.378,100.627 239.295,133.376 258.35,152.928 " fill="none" id="Mantenibilidad-Flexibilidad" style="stroke: #A80036; stroke-width: 1.0;"/><polygon fill="#A80036" points="175.733,68.156,177.0559,75.2447,184.1081,76.75,182.7852,69.6613,175.733,68.156" style="stroke: #A80036; stroke-width: 1.0;"/><!--link Mantenibilidad to Fortaleza--><path d="M134.464,77.644 C112.455,100.627 81.093,133.376 62.3693,152.928 " fill="none" id="Mantenibilidad-Fortaleza" style="stroke: #A80036; stroke-width: 1.0;"/><polygon fill="#A80036" points="143.55,68.156,136.5111,69.7226,135.25,76.8226,142.2889,75.256,143.55,68.156" style="stroke: #A80036; stroke-width: 1.0;"/><!--link Mantenibilidad to Reusabilidad--><path d="M158.993,81.435 C158.608,104.113 158.094,134.428 157.781,152.928 " fill="none" id="Mantenibilidad-Reusabilidad" style="stroke: #A80036; stroke-width: 1.0;"/><polygon fill="#A80036" points="159.218,68.156,155.1164,74.087,159.0136,80.1543,163.1152,74.2233,159.218,68.156" style="stroke: #A80036; stroke-width: 1.0;"/><!--link Mantenibilidad to Fluidez--><path d="M198.304,74.969 C208.403,80.949 219.31,87.296 229.5,93 C270.355,115.869 318.577,140.935 347.828,155.932 " fill="none" id="Mantenibilidad-Fluidez" style="stroke: #A80036; stroke-width: 1.0;"/><polygon fill="#A80036" points="186.911,68.178,190.0165,74.6861,197.2184,74.3226,194.1129,67.8145,186.911,68.178" style="stroke: #A80036; stroke-width: 1.0;"/><!--link A to Fortaleza--><path d="M49.7372,93.102 C48.8656,113.672 47.8627,137.34 47.2071,152.814 " fill="none" id="A-Fortaleza" style="stroke: #A80036; stroke-width: 1.0;"/><!--link A to Flexibilidad--><path d="M75.6293,77.743 C81.4643,83.222 87.9251,88.647 94.5,93 C139.66,122.895 198.42,145.235 236.303,157.828 " fill="none" id="A-Flexibilidad" style="stroke: #A80036; stroke-width: 1.0;"/><!--link Fortaleza to Fragibilidad--><path d="M46.2633,193.5134 C46.1043,208.2966 45.8957,227.6995 45.7367,242.4833 " fill="none" id="Fortaleza-Fragibilidad" style="stroke: #A80036; stroke-width: 1.0;"/><polygon fill="#A80036" points="45.6806,247.7038,49.7773,238.7474,45.7345,242.7041,41.7778,238.6612,45.6806,247.7038" style="stroke: #A80036; stroke-width: 1.0;"/><polygon fill="#A80036" points="46.3212,188.1265,42.2245,197.0829,46.2673,193.1262,50.224,197.1691,46.3212,188.1265" style="stroke: #A80036; stroke-width: 1.0;"/><!--link B to Reusabilidad--><path d="M247.372,74.813 C225.57,97.784 192.795,132.315 173.433,152.713 " fill="none" id="B-Reusabilidad" style="stroke: #A80036; stroke-width: 1.0;"/><!--link B to Flexibilidad--><path d="M271.263,93.102 C272.134,113.672 273.137,137.34 273.793,152.814 " fill="none" id="B-Flexibilidad" style="stroke: #A80036; stroke-width: 1.0;"/><!--link Reusabilidad to Inmobilidad--><path d="M157.973,193.5134 C158.291,208.2966 158.709,227.6995 159.027,242.4833 " fill="none" id="Reusabilidad-Inmobilidad" style="stroke: #A80036; stroke-width: 1.0;"/><polygon fill="#A80036" points="159.139,247.7038,162.9442,238.6197,159.0313,242.705,154.946,238.7921,159.139,247.7038" style="stroke: #A80036; stroke-width: 1.0;"/><polygon fill="#A80036" points="157.858,188.1265,154.0526,197.2105,157.9656,193.1253,162.0507,197.0384,157.858,188.1265" style="stroke: #A80036; stroke-width: 1.0;"/><!--link C to Flexibilidad--><path d="M337.949,93.102 C320.866,113.672 301.209,137.34 288.358,152.814 " fill="none" id="C-Flexibilidad" style="stroke: #A80036; stroke-width: 1.0;"/><!--link C to Fluidez--><path d="M373.205,93.102 C373.554,113.672 373.955,137.34 374.217,152.814 " fill="none" id="C-Fluidez" style="stroke: #A80036; stroke-width: 1.0;"/><!--link Fluidez to Viscosibilidad--><path d="M375.447,193.5134 C376.083,208.2966 376.917,227.6995 377.553,242.4833 " fill="none" id="Fluidez-Viscosibilidad" style="stroke: #A80036; stroke-width: 1.0;"/><polygon fill="#A80036" points="377.778,247.7038,381.3873,238.5401,377.563,242.7084,373.3947,238.8841,377.778,247.7038" style="stroke: #A80036; stroke-width: 1.0;"/><polygon fill="#A80036" points="375.215,188.1265,371.6055,197.2901,375.4299,193.1219,379.5981,196.9463,375.215,188.1265" style="stroke: #A80036; stroke-width: 1.0;"/><!--link Flexibilidad to Rigidez--><path d="M273.553,193.5134 C272.917,208.2966 272.083,227.6995 271.447,242.4833 " fill="none" id="Flexibilidad-Rigidez" style="stroke: #A80036; stroke-width: 1.0;"/><polygon fill="#A80036" points="271.222,247.7038,275.6053,238.8841,271.437,242.7084,267.6127,238.5401,271.222,247.7038" style="stroke: #A80036; stroke-width: 1.0;"/><polygon fill="#A80036" points="273.785,188.1265,269.4019,196.9463,273.5701,193.1219,277.3945,197.2901,273.785,188.1265" style="stroke: #A80036; stroke-width: 1.0;"/><!--
@startuml

allowmixing

actor :Usuario: as A
actor :Cliente: as B
actor :Desorrallador: as C

object Mantenibilidad #purple
object Fortaleza #purple|green
object Fragibilidad #purple|red
object Reusabilidad #purple|green
object Inmobilidad #purple|red
object Fluidez #purple|green
object Viscosibilidad #purple|red
object Flexibilidad #purple|green
object Rigidez #purple|red


Mantenibilidad *- -Flexibilidad
Mantenibilidad *- -Fortaleza
Mantenibilidad *- - Reusabilidad
Mantenibilidad *- -Fluidez

A - -Fortaleza
A - -Flexibilidad
Fortaleza <- ->Fragibilidad

B - - Reusabilidad
B - -Flexibilidad
Reusabilidad <- ->Inmobilidad

C - -Flexibilidad
C - -Fluidez
Fluidez <- -> Viscosibilidad
Flexibilidad <- -> Rigidez

@enduml

PlantUML version 1.2019.05(Sat Apr 20 18:45:36 CEST 2019)
(GPL source distribution)
Java Runtime: Java(TM) SE Runtime Environment
JVM: Java HotSpot(TM) 64-Bit Server VM
Java Version: 1.8.0_211-b12
Operating System: Windows 10
OS Version: 10.0
Default Encoding: windows-1252
Language: es
Country: ES
--></g></svg>