<?xml version="1.0" encoding="UTF-8" standalone="no"?><svg xmlns="http://www.w3.org/2000/svg" xmlns:xlink="http://www.w3.org/1999/xlink" contentScriptType="application/ecmascript" contentStyleType="text/css" height="737px" preserveAspectRatio="none" style="width:1068px;height:737px;" version="1.1" viewBox="0 0 1068 737" width="1068px" zoomAndPan="magnify"><defs><filter height="300%" id="f19qsebzkmikk4" width="300%" x="-1" y="-1"><feGaussianBlur result="blurOut" stdDeviation="2.0"/><feColorMatrix in="blurOut" result="blurOut2" type="matrix" values="0 0 0 0 0 0 0 0 0 0 0 0 0 0 0 0 0 0 .4 0"/><feOffset dx="4.0" dy="4.0" in="blurOut2" result="blurOut3"/><feBlend in="SourceGraphic" in2="blurOut3" mode="normal"/></filter><linearGradient id="g19qsebzkmikk40" x1="0%" x2="100%" y1="50%" y2="50%"><stop offset="0%" stop-color="#ADFF2F"/><stop offset="100%" stop-color="#FF0000"/></linearGradient><linearGradient id="g19qsebzkmikk41" x1="0%" x2="100%" y1="50%" y2="50%"><stop offset="0%" stop-color="#ADFF2F"/><stop offset="100%" stop-color="#008000"/></linearGradient><linearGradient id="g19qsebzkmikk42" x1="0%" x2="100%" y1="50%" y2="50%"><stop offset="0%" stop-color="#6495ED"/><stop offset="100%" stop-color="#FF0000"/></linearGradient><linearGradient id="g19qsebzkmikk43" x1="0%" x2="100%" y1="50%" y2="50%"><stop offset="0%" stop-color="#6495ED"/><stop offset="100%" stop-color="#008000"/></linearGradient></defs><g><text fill="#000000" font-family="sans-serif" font-size="18" lengthAdjust="spacingAndGlyphs" textLength="148" x="463.5" y="18.6855">Producto Software</text><!--class ProductoSoftware--><rect fill="#ADFF2F" filter="url(#f19qsebzkmikk4)" height="48" id="ProductoSoftware" style="stroke: #A80036; stroke-width: 1.5;" width="132" x="666.5" y="30.6406"/><rect fill="#ADFF2F" height="32" style="stroke: #A80036; stroke-width: 1.5;" width="132" x="666.5" y="30.6406"/><ellipse cx="681.5" cy="46.6406" fill="#ADD1B2" rx="11" ry="11" style="stroke: #A80036; stroke-width: 1.0;"/><path d="M684.2656,42.5156 Q684.4219,42.2969 684.6094,42.1875 Q684.7969,42.0781 685.0156,42.0781 Q685.3906,42.0781 685.625,42.3359 Q685.8594,42.5938 685.8594,43.2031 L685.8594,44.6563 Q685.8594,45.2656 685.625,45.5313 Q685.3906,45.7969 685.0156,45.7969 Q684.6719,45.7969 684.4688,45.5938 Q684.2656,45.4063 684.1563,44.8906 Q684.1094,44.5313 683.9219,44.3438 Q683.5938,43.9688 682.9844,43.75 Q682.375,43.5313 681.75,43.5313 Q680.9844,43.5313 680.3516,43.8594 Q679.7188,44.1875 679.2266,44.9375 Q678.7344,45.6875 678.7344,46.7188 L678.7344,47.8125 Q678.7344,49.0469 679.625,49.8672 Q680.5156,50.6875 682.1094,50.6875 Q683.0469,50.6875 683.7031,50.4375 Q684.0938,50.2813 684.5156,49.8438 Q684.7813,49.5781 684.9297,49.5 Q685.0781,49.4219 685.2813,49.4219 Q685.6094,49.4219 685.8672,49.6797 Q686.125,49.9375 686.125,50.2813 Q686.125,50.625 685.7813,51.0313 Q685.2813,51.6094 684.4844,51.9375 Q683.4063,52.3906 682.1094,52.3906 Q680.5938,52.3906 679.3906,51.7656 Q678.4063,51.2656 677.7188,50.1953 Q677.0313,49.125 677.0313,47.8438 L677.0313,46.6875 Q677.0313,45.3594 677.6484,44.2109 Q678.2656,43.0625 679.3594,42.4453 Q680.4531,41.8281 681.6875,41.8281 Q682.4219,41.8281 683.0703,41.9922 Q683.7188,42.1563 684.2656,42.5156 Z "/><text fill="#000000" font-family="sans-serif" font-size="12" lengthAdjust="spacingAndGlyphs" textLength="100" x="695.5" y="51.5508">Producto Software</text><line style="stroke: #A80036; stroke-width: 1.5;" x1="667.5" x2="797.5" y1="62.6406" y2="62.6406"/><line style="stroke: #A80036; stroke-width: 1.5;" x1="667.5" x2="797.5" y1="70.6406" y2="70.6406"/><!--class Calidad--><rect fill="#6495ED" filter="url(#f19qsebzkmikk4)" height="48" id="Calidad" style="stroke: #A80036; stroke-width: 1.5;" width="75" x="695" y="138.6406"/><rect fill="#6495ED" height="32" style="stroke: #A80036; stroke-width: 1.5;" width="75" x="695" y="138.6406"/><ellipse cx="710" cy="154.6406" fill="#ADD1B2" rx="11" ry="11" style="stroke: #A80036; stroke-width: 1.0;"/><path d="M712.7656,150.5156 Q712.9219,150.2969 713.1094,150.1875 Q713.2969,150.0781 713.5156,150.0781 Q713.8906,150.0781 714.125,150.3359 Q714.3594,150.5938 714.3594,151.2031 L714.3594,152.6563 Q714.3594,153.2656 714.125,153.5313 Q713.8906,153.7969 713.5156,153.7969 Q713.1719,153.7969 712.9688,153.5938 Q712.7656,153.4063 712.6563,152.8906 Q712.6094,152.5313 712.4219,152.3438 Q712.0938,151.9688 711.4844,151.75 Q710.875,151.5313 710.25,151.5313 Q709.4844,151.5313 708.8516,151.8594 Q708.2188,152.1875 707.7266,152.9375 Q707.2344,153.6875 707.2344,154.7188 L707.2344,155.8125 Q707.2344,157.0469 708.125,157.8672 Q709.0156,158.6875 710.6094,158.6875 Q711.5469,158.6875 712.2031,158.4375 Q712.5938,158.2813 713.0156,157.8438 Q713.2813,157.5781 713.4297,157.5 Q713.5781,157.4219 713.7813,157.4219 Q714.1094,157.4219 714.3672,157.6797 Q714.625,157.9375 714.625,158.2813 Q714.625,158.625 714.2813,159.0313 Q713.7813,159.6094 712.9844,159.9375 Q711.9063,160.3906 710.6094,160.3906 Q709.0938,160.3906 707.8906,159.7656 Q706.9063,159.2656 706.2188,158.1953 Q705.5313,157.125 705.5313,155.8438 L705.5313,154.6875 Q705.5313,153.3594 706.1484,152.2109 Q706.7656,151.0625 707.8594,150.4453 Q708.9531,149.8281 710.1875,149.8281 Q710.9219,149.8281 711.5703,149.9922 Q712.2188,150.1563 712.7656,150.5156 Z "/><text fill="#000000" font-family="sans-serif" font-size="12" lengthAdjust="spacingAndGlyphs" textLength="43" x="724" y="159.5508">Calidad</text><line style="stroke: #A80036; stroke-width: 1.5;" x1="696" x2="769" y1="170.6406" y2="170.6406"/><line style="stroke: #A80036; stroke-width: 1.5;" x1="696" x2="769" y1="178.6406" y2="178.6406"/><!--class Efectividad--><rect fill="#FFA500" filter="url(#f19qsebzkmikk4)" height="48" id="Efectividad" style="stroke: #A80036; stroke-width: 1.5;" width="91" x="749" y="246.6406"/><rect fill="#FFA500" height="32" style="stroke: #A80036; stroke-width: 1.5;" width="91" x="749" y="246.6406"/><ellipse cx="764" cy="262.6406" fill="#ADD1B2" rx="11" ry="11" style="stroke: #A80036; stroke-width: 1.0;"/><path d="M766.7656,258.5156 Q766.9219,258.2969 767.1094,258.1875 Q767.2969,258.0781 767.5156,258.0781 Q767.8906,258.0781 768.125,258.3359 Q768.3594,258.5938 768.3594,259.2031 L768.3594,260.6563 Q768.3594,261.2656 768.125,261.5313 Q767.8906,261.7969 767.5156,261.7969 Q767.1719,261.7969 766.9688,261.5938 Q766.7656,261.4063 766.6563,260.8906 Q766.6094,260.5313 766.4219,260.3438 Q766.0938,259.9688 765.4844,259.75 Q764.875,259.5313 764.25,259.5313 Q763.4844,259.5313 762.8516,259.8594 Q762.2188,260.1875 761.7266,260.9375 Q761.2344,261.6875 761.2344,262.7188 L761.2344,263.8125 Q761.2344,265.0469 762.125,265.8672 Q763.0156,266.6875 764.6094,266.6875 Q765.5469,266.6875 766.2031,266.4375 Q766.5938,266.2813 767.0156,265.8438 Q767.2813,265.5781 767.4297,265.5 Q767.5781,265.4219 767.7813,265.4219 Q768.1094,265.4219 768.3672,265.6797 Q768.625,265.9375 768.625,266.2813 Q768.625,266.625 768.2813,267.0313 Q767.7813,267.6094 766.9844,267.9375 Q765.9063,268.3906 764.6094,268.3906 Q763.0938,268.3906 761.8906,267.7656 Q760.9063,267.2656 760.2188,266.1953 Q759.5313,265.125 759.5313,263.8438 L759.5313,262.6875 Q759.5313,261.3594 760.1484,260.2109 Q760.7656,259.0625 761.8594,258.4453 Q762.9531,257.8281 764.1875,257.8281 Q764.9219,257.8281 765.5703,257.9922 Q766.2188,258.1563 766.7656,258.5156 Z "/><text fill="#000000" font-family="sans-serif" font-size="12" lengthAdjust="spacingAndGlyphs" textLength="59" x="778" y="267.5508">Efectividad</text><line style="stroke: #A80036; stroke-width: 1.5;" x1="750" x2="839" y1="278.6406" y2="278.6406"/><line style="stroke: #A80036; stroke-width: 1.5;" x1="750" x2="839" y1="286.6406" y2="286.6406"/><!--class Mantenibilidad--><rect fill="#6495ED" filter="url(#f19qsebzkmikk4)" height="48" id="Mantenibilidad" style="stroke: #A80036; stroke-width: 1.5;" width="112" x="609.5" y="354.6406"/><rect fill="#6495ED" height="32" style="stroke: #A80036; stroke-width: 1.5;" width="112" x="609.5" y="354.6406"/><ellipse cx="624.5" cy="370.6406" fill="#ADD1B2" rx="11" ry="11" style="stroke: #A80036; stroke-width: 1.0;"/><path d="M627.2656,366.5156 Q627.4219,366.2969 627.6094,366.1875 Q627.7969,366.0781 628.0156,366.0781 Q628.3906,366.0781 628.625,366.3359 Q628.8594,366.5938 628.8594,367.2031 L628.8594,368.6563 Q628.8594,369.2656 628.625,369.5313 Q628.3906,369.7969 628.0156,369.7969 Q627.6719,369.7969 627.4688,369.5938 Q627.2656,369.4063 627.1563,368.8906 Q627.1094,368.5313 626.9219,368.3438 Q626.5938,367.9688 625.9844,367.75 Q625.375,367.5313 624.75,367.5313 Q623.9844,367.5313 623.3516,367.8594 Q622.7188,368.1875 622.2266,368.9375 Q621.7344,369.6875 621.7344,370.7188 L621.7344,371.8125 Q621.7344,373.0469 622.625,373.8672 Q623.5156,374.6875 625.1094,374.6875 Q626.0469,374.6875 626.7031,374.4375 Q627.0938,374.2813 627.5156,373.8438 Q627.7813,373.5781 627.9297,373.5 Q628.0781,373.4219 628.2813,373.4219 Q628.6094,373.4219 628.8672,373.6797 Q629.125,373.9375 629.125,374.2813 Q629.125,374.625 628.7813,375.0313 Q628.2813,375.6094 627.4844,375.9375 Q626.4063,376.3906 625.1094,376.3906 Q623.5938,376.3906 622.3906,375.7656 Q621.4063,375.2656 620.7188,374.1953 Q620.0313,373.125 620.0313,371.8438 L620.0313,370.6875 Q620.0313,369.3594 620.6484,368.2109 Q621.2656,367.0625 622.3594,366.4453 Q623.4531,365.8281 624.6875,365.8281 Q625.4219,365.8281 626.0703,365.9922 Q626.7188,366.1563 627.2656,366.5156 Z "/><text fill="#000000" font-family="sans-serif" font-size="12" lengthAdjust="spacingAndGlyphs" textLength="80" x="638.5" y="375.5508">Mantenibilidad</text><line style="stroke: #A80036; stroke-width: 1.5;" x1="610.5" x2="720.5" y1="386.6406" y2="386.6406"/><line style="stroke: #A80036; stroke-width: 1.5;" x1="610.5" x2="720.5" y1="394.6406" y2="394.6406"/><!--class ProductoSoftwareBajaCalidad--><rect fill="url(#g19qsebzkmikk40)" filter="url(#f19qsebzkmikk4)" height="48" id="ProductoSoftwareBajaCalidad" style="stroke: #A80036; stroke-width: 1.5;" width="196" x="446.5" y="246.6406"/><rect fill="url(#g19qsebzkmikk40)" height="32" style="stroke: #A80036; stroke-width: 1.5;" width="196" x="446.5" y="246.6406"/><ellipse cx="461.5" cy="262.6406" fill="#ADD1B2" rx="11" ry="11" style="stroke: #A80036; stroke-width: 1.0;"/><path d="M464.2656,258.5156 Q464.4219,258.2969 464.6094,258.1875 Q464.7969,258.0781 465.0156,258.0781 Q465.3906,258.0781 465.625,258.3359 Q465.8594,258.5938 465.8594,259.2031 L465.8594,260.6563 Q465.8594,261.2656 465.625,261.5313 Q465.3906,261.7969 465.0156,261.7969 Q464.6719,261.7969 464.4688,261.5938 Q464.2656,261.4063 464.1563,260.8906 Q464.1094,260.5313 463.9219,260.3438 Q463.5938,259.9688 462.9844,259.75 Q462.375,259.5313 461.75,259.5313 Q460.9844,259.5313 460.3516,259.8594 Q459.7188,260.1875 459.2266,260.9375 Q458.7344,261.6875 458.7344,262.7188 L458.7344,263.8125 Q458.7344,265.0469 459.625,265.8672 Q460.5156,266.6875 462.1094,266.6875 Q463.0469,266.6875 463.7031,266.4375 Q464.0938,266.2813 464.5156,265.8438 Q464.7813,265.5781 464.9297,265.5 Q465.0781,265.4219 465.2813,265.4219 Q465.6094,265.4219 465.8672,265.6797 Q466.125,265.9375 466.125,266.2813 Q466.125,266.625 465.7813,267.0313 Q465.2813,267.6094 464.4844,267.9375 Q463.4063,268.3906 462.1094,268.3906 Q460.5938,268.3906 459.3906,267.7656 Q458.4063,267.2656 457.7188,266.1953 Q457.0313,265.125 457.0313,263.8438 L457.0313,262.6875 Q457.0313,261.3594 457.6484,260.2109 Q458.2656,259.0625 459.3594,258.4453 Q460.4531,257.8281 461.6875,257.8281 Q462.4219,257.8281 463.0703,257.9922 Q463.7188,258.1563 464.2656,258.5156 Z "/><text fill="#000000" font-family="sans-serif" font-size="12" lengthAdjust="spacingAndGlyphs" textLength="164" x="475.5" y="267.5508">Producto Software No Efectivo</text><line style="stroke: #A80036; stroke-width: 1.5;" x1="447.5" x2="641.5" y1="278.6406" y2="278.6406"/><line style="stroke: #A80036; stroke-width: 1.5;" x1="447.5" x2="641.5" y1="286.6406" y2="286.6406"/><!--class ProductoSoftwareAltaCalidad--><rect fill="url(#g19qsebzkmikk41)" filter="url(#f19qsebzkmikk4)" height="48" id="ProductoSoftwareAltaCalidad" style="stroke: #A80036; stroke-width: 1.5;" width="177" x="880" y="138.6406"/><rect fill="url(#g19qsebzkmikk41)" height="32" style="stroke: #A80036; stroke-width: 1.5;" width="177" x="880" y="138.6406"/><ellipse cx="895" cy="154.6406" fill="#ADD1B2" rx="11" ry="11" style="stroke: #A80036; stroke-width: 1.0;"/><path d="M897.7656,150.5156 Q897.9219,150.2969 898.1094,150.1875 Q898.2969,150.0781 898.5156,150.0781 Q898.8906,150.0781 899.125,150.3359 Q899.3594,150.5938 899.3594,151.2031 L899.3594,152.6563 Q899.3594,153.2656 899.125,153.5313 Q898.8906,153.7969 898.5156,153.7969 Q898.1719,153.7969 897.9688,153.5938 Q897.7656,153.4063 897.6563,152.8906 Q897.6094,152.5313 897.4219,152.3438 Q897.0938,151.9688 896.4844,151.75 Q895.875,151.5313 895.25,151.5313 Q894.4844,151.5313 893.8516,151.8594 Q893.2188,152.1875 892.7266,152.9375 Q892.2344,153.6875 892.2344,154.7188 L892.2344,155.8125 Q892.2344,157.0469 893.125,157.8672 Q894.0156,158.6875 895.6094,158.6875 Q896.5469,158.6875 897.2031,158.4375 Q897.5938,158.2813 898.0156,157.8438 Q898.2813,157.5781 898.4297,157.5 Q898.5781,157.4219 898.7813,157.4219 Q899.1094,157.4219 899.3672,157.6797 Q899.625,157.9375 899.625,158.2813 Q899.625,158.625 899.2813,159.0313 Q898.7813,159.6094 897.9844,159.9375 Q896.9063,160.3906 895.6094,160.3906 Q894.0938,160.3906 892.8906,159.7656 Q891.9063,159.2656 891.2188,158.1953 Q890.5313,157.125 890.5313,155.8438 L890.5313,154.6875 Q890.5313,153.3594 891.1484,152.2109 Q891.7656,151.0625 892.8594,150.4453 Q893.9531,149.8281 895.1875,149.8281 Q895.9219,149.8281 896.5703,149.9922 Q897.2188,150.1563 897.7656,150.5156 Z "/><text fill="#000000" font-family="sans-serif" font-size="12" lengthAdjust="spacingAndGlyphs" textLength="145" x="909" y="159.5508">Producto Software Efectivo</text><line style="stroke: #A80036; stroke-width: 1.5;" x1="881" x2="1056" y1="170.6406" y2="170.6406"/><line style="stroke: #A80036; stroke-width: 1.5;" x1="881" x2="1056" y1="178.6406" y2="178.6406"/><!--class BajaMantenibilidad--><rect fill="url(#g19qsebzkmikk42)" filter="url(#f19qsebzkmikk4)" height="48" id="BajaMantenibilidad" style="stroke: #A80036; stroke-width: 1.5;" width="137" x="475" y="462.6406"/><rect fill="url(#g19qsebzkmikk42)" height="32" style="stroke: #A80036; stroke-width: 1.5;" width="137" x="475" y="462.6406"/><ellipse cx="490" cy="478.6406" fill="#ADD1B2" rx="11" ry="11" style="stroke: #A80036; stroke-width: 1.0;"/><path d="M492.7656,474.5156 Q492.9219,474.2969 493.1094,474.1875 Q493.2969,474.0781 493.5156,474.0781 Q493.8906,474.0781 494.125,474.3359 Q494.3594,474.5938 494.3594,475.2031 L494.3594,476.6563 Q494.3594,477.2656 494.125,477.5313 Q493.8906,477.7969 493.5156,477.7969 Q493.1719,477.7969 492.9688,477.5938 Q492.7656,477.4063 492.6563,476.8906 Q492.6094,476.5313 492.4219,476.3438 Q492.0938,475.9688 491.4844,475.75 Q490.875,475.5313 490.25,475.5313 Q489.4844,475.5313 488.8516,475.8594 Q488.2188,476.1875 487.7266,476.9375 Q487.2344,477.6875 487.2344,478.7188 L487.2344,479.8125 Q487.2344,481.0469 488.125,481.8672 Q489.0156,482.6875 490.6094,482.6875 Q491.5469,482.6875 492.2031,482.4375 Q492.5938,482.2813 493.0156,481.8438 Q493.2813,481.5781 493.4297,481.5 Q493.5781,481.4219 493.7813,481.4219 Q494.1094,481.4219 494.3672,481.6797 Q494.625,481.9375 494.625,482.2813 Q494.625,482.625 494.2813,483.0313 Q493.7813,483.6094 492.9844,483.9375 Q491.9063,484.3906 490.6094,484.3906 Q489.0938,484.3906 487.8906,483.7656 Q486.9063,483.2656 486.2188,482.1953 Q485.5313,481.125 485.5313,479.8438 L485.5313,478.6875 Q485.5313,477.3594 486.1484,476.2109 Q486.7656,475.0625 487.8594,474.4453 Q488.9531,473.8281 490.1875,473.8281 Q490.9219,473.8281 491.5703,473.9922 Q492.2188,474.1563 492.7656,474.5156 Z "/><text fill="#000000" font-family="sans-serif" font-size="12" lengthAdjust="spacingAndGlyphs" textLength="105" x="504" y="483.5508">BajaMantenibilidad</text><line style="stroke: #A80036; stroke-width: 1.5;" x1="476" x2="611" y1="494.6406" y2="494.6406"/><line style="stroke: #A80036; stroke-width: 1.5;" x1="476" x2="611" y1="502.6406" y2="502.6406"/><!--class AltaMantenibilidad--><rect fill="url(#g19qsebzkmikk43)" filter="url(#f19qsebzkmikk4)" height="48" id="AltaMantenibilidad" style="stroke: #A80036; stroke-width: 1.5;" width="132" x="730.5" y="570.6406"/><rect fill="url(#g19qsebzkmikk43)" height="32" style="stroke: #A80036; stroke-width: 1.5;" width="132" x="730.5" y="570.6406"/><ellipse cx="745.5" cy="586.6406" fill="#ADD1B2" rx="11" ry="11" style="stroke: #A80036; stroke-width: 1.0;"/><path d="M748.2656,582.5156 Q748.4219,582.2969 748.6094,582.1875 Q748.7969,582.0781 749.0156,582.0781 Q749.3906,582.0781 749.625,582.3359 Q749.8594,582.5938 749.8594,583.2031 L749.8594,584.6563 Q749.8594,585.2656 749.625,585.5313 Q749.3906,585.7969 749.0156,585.7969 Q748.6719,585.7969 748.4688,585.5938 Q748.2656,585.4063 748.1563,584.8906 Q748.1094,584.5313 747.9219,584.3438 Q747.5938,583.9688 746.9844,583.75 Q746.375,583.5313 745.75,583.5313 Q744.9844,583.5313 744.3516,583.8594 Q743.7188,584.1875 743.2266,584.9375 Q742.7344,585.6875 742.7344,586.7188 L742.7344,587.8125 Q742.7344,589.0469 743.625,589.8672 Q744.5156,590.6875 746.1094,590.6875 Q747.0469,590.6875 747.7031,590.4375 Q748.0938,590.2813 748.5156,589.8438 Q748.7813,589.5781 748.9297,589.5 Q749.0781,589.4219 749.2813,589.4219 Q749.6094,589.4219 749.8672,589.6797 Q750.125,589.9375 750.125,590.2813 Q750.125,590.625 749.7813,591.0313 Q749.2813,591.6094 748.4844,591.9375 Q747.4063,592.3906 746.1094,592.3906 Q744.5938,592.3906 743.3906,591.7656 Q742.4063,591.2656 741.7188,590.1953 Q741.0313,589.125 741.0313,587.8438 L741.0313,586.6875 Q741.0313,585.3594 741.6484,584.2109 Q742.2656,583.0625 743.3594,582.4453 Q744.4531,581.8281 745.6875,581.8281 Q746.4219,581.8281 747.0703,581.9922 Q747.7188,582.1563 748.2656,582.5156 Z "/><text fill="#000000" font-family="sans-serif" font-size="12" lengthAdjust="spacingAndGlyphs" textLength="100" x="759.5" y="591.5508">AltaMantenibilidad</text><line style="stroke: #A80036; stroke-width: 1.5;" x1="731.5" x2="861.5" y1="602.6406" y2="602.6406"/><line style="stroke: #A80036; stroke-width: 1.5;" x1="731.5" x2="861.5" y1="610.6406" y2="610.6406"/><!--class Eficacia--><rect fill="#FFA500" filter="url(#f19qsebzkmikk4)" height="48" id="Eficacia" style="stroke: #A80036; stroke-width: 1.5;" width="75" x="757" y="354.6406"/><rect fill="#FFA500" height="32" style="stroke: #A80036; stroke-width: 1.5;" width="75" x="757" y="354.6406"/><ellipse cx="772" cy="370.6406" fill="#ADD1B2" rx="11" ry="11" style="stroke: #A80036; stroke-width: 1.0;"/><path d="M774.7656,366.5156 Q774.9219,366.2969 775.1094,366.1875 Q775.2969,366.0781 775.5156,366.0781 Q775.8906,366.0781 776.125,366.3359 Q776.3594,366.5938 776.3594,367.2031 L776.3594,368.6563 Q776.3594,369.2656 776.125,369.5313 Q775.8906,369.7969 775.5156,369.7969 Q775.1719,369.7969 774.9688,369.5938 Q774.7656,369.4063 774.6563,368.8906 Q774.6094,368.5313 774.4219,368.3438 Q774.0938,367.9688 773.4844,367.75 Q772.875,367.5313 772.25,367.5313 Q771.4844,367.5313 770.8516,367.8594 Q770.2188,368.1875 769.7266,368.9375 Q769.2344,369.6875 769.2344,370.7188 L769.2344,371.8125 Q769.2344,373.0469 770.125,373.8672 Q771.0156,374.6875 772.6094,374.6875 Q773.5469,374.6875 774.2031,374.4375 Q774.5938,374.2813 775.0156,373.8438 Q775.2813,373.5781 775.4297,373.5 Q775.5781,373.4219 775.7813,373.4219 Q776.1094,373.4219 776.3672,373.6797 Q776.625,373.9375 776.625,374.2813 Q776.625,374.625 776.2813,375.0313 Q775.7813,375.6094 774.9844,375.9375 Q773.9063,376.3906 772.6094,376.3906 Q771.0938,376.3906 769.8906,375.7656 Q768.9063,375.2656 768.2188,374.1953 Q767.5313,373.125 767.5313,371.8438 L767.5313,370.6875 Q767.5313,369.3594 768.1484,368.2109 Q768.7656,367.0625 769.8594,366.4453 Q770.9531,365.8281 772.1875,365.8281 Q772.9219,365.8281 773.5703,365.9922 Q774.2188,366.1563 774.7656,366.5156 Z "/><text fill="#000000" font-family="sans-serif" font-size="12" lengthAdjust="spacingAndGlyphs" textLength="43" x="786" y="375.5508">Eficacia</text><line style="stroke: #A80036; stroke-width: 1.5;" x1="758" x2="831" y1="386.6406" y2="386.6406"/><line style="stroke: #A80036; stroke-width: 1.5;" x1="758" x2="831" y1="394.6406" y2="394.6406"/><!--class Eficiencia--><rect fill="#FFA500" filter="url(#f19qsebzkmikk4)" height="48" id="Eficiencia" style="stroke: #A80036; stroke-width: 1.5;" width="85" x="867" y="354.6406"/><rect fill="#FFA500" height="32" style="stroke: #A80036; stroke-width: 1.5;" width="85" x="867" y="354.6406"/><ellipse cx="882" cy="370.6406" fill="#ADD1B2" rx="11" ry="11" style="stroke: #A80036; stroke-width: 1.0;"/><path d="M884.7656,366.5156 Q884.9219,366.2969 885.1094,366.1875 Q885.2969,366.0781 885.5156,366.0781 Q885.8906,366.0781 886.125,366.3359 Q886.3594,366.5938 886.3594,367.2031 L886.3594,368.6563 Q886.3594,369.2656 886.125,369.5313 Q885.8906,369.7969 885.5156,369.7969 Q885.1719,369.7969 884.9688,369.5938 Q884.7656,369.4063 884.6563,368.8906 Q884.6094,368.5313 884.4219,368.3438 Q884.0938,367.9688 883.4844,367.75 Q882.875,367.5313 882.25,367.5313 Q881.4844,367.5313 880.8516,367.8594 Q880.2188,368.1875 879.7266,368.9375 Q879.2344,369.6875 879.2344,370.7188 L879.2344,371.8125 Q879.2344,373.0469 880.125,373.8672 Q881.0156,374.6875 882.6094,374.6875 Q883.5469,374.6875 884.2031,374.4375 Q884.5938,374.2813 885.0156,373.8438 Q885.2813,373.5781 885.4297,373.5 Q885.5781,373.4219 885.7813,373.4219 Q886.1094,373.4219 886.3672,373.6797 Q886.625,373.9375 886.625,374.2813 Q886.625,374.625 886.2813,375.0313 Q885.7813,375.6094 884.9844,375.9375 Q883.9063,376.3906 882.6094,376.3906 Q881.0938,376.3906 879.8906,375.7656 Q878.9063,375.2656 878.2188,374.1953 Q877.5313,373.125 877.5313,371.8438 L877.5313,370.6875 Q877.5313,369.3594 878.1484,368.2109 Q878.7656,367.0625 879.8594,366.4453 Q880.9531,365.8281 882.1875,365.8281 Q882.9219,365.8281 883.5703,365.9922 Q884.2188,366.1563 884.7656,366.5156 Z "/><text fill="#000000" font-family="sans-serif" font-size="12" lengthAdjust="spacingAndGlyphs" textLength="53" x="896" y="375.5508">Eficiencia</text><line style="stroke: #A80036; stroke-width: 1.5;" x1="868" x2="951" y1="386.6406" y2="386.6406"/><line style="stroke: #A80036; stroke-width: 1.5;" x1="868" x2="951" y1="394.6406" y2="394.6406"/><!--class Usabilidad--><rect fill="#6495ED" filter="url(#f19qsebzkmikk4)" height="48" id="Usabilidad" style="stroke: #A80036; stroke-width: 1.5;" width="92" x="718.5" y="462.6406"/><rect fill="#6495ED" height="32" style="stroke: #A80036; stroke-width: 1.5;" width="92" x="718.5" y="462.6406"/><ellipse cx="733.5" cy="478.6406" fill="#ADD1B2" rx="11" ry="11" style="stroke: #A80036; stroke-width: 1.0;"/><path d="M736.2656,474.5156 Q736.4219,474.2969 736.6094,474.1875 Q736.7969,474.0781 737.0156,474.0781 Q737.3906,474.0781 737.625,474.3359 Q737.8594,474.5938 737.8594,475.2031 L737.8594,476.6563 Q737.8594,477.2656 737.625,477.5313 Q737.3906,477.7969 737.0156,477.7969 Q736.6719,477.7969 736.4688,477.5938 Q736.2656,477.4063 736.1563,476.8906 Q736.1094,476.5313 735.9219,476.3438 Q735.5938,475.9688 734.9844,475.75 Q734.375,475.5313 733.75,475.5313 Q732.9844,475.5313 732.3516,475.8594 Q731.7188,476.1875 731.2266,476.9375 Q730.7344,477.6875 730.7344,478.7188 L730.7344,479.8125 Q730.7344,481.0469 731.625,481.8672 Q732.5156,482.6875 734.1094,482.6875 Q735.0469,482.6875 735.7031,482.4375 Q736.0938,482.2813 736.5156,481.8438 Q736.7813,481.5781 736.9297,481.5 Q737.0781,481.4219 737.2813,481.4219 Q737.6094,481.4219 737.8672,481.6797 Q738.125,481.9375 738.125,482.2813 Q738.125,482.625 737.7813,483.0313 Q737.2813,483.6094 736.4844,483.9375 Q735.4063,484.3906 734.1094,484.3906 Q732.5938,484.3906 731.3906,483.7656 Q730.4063,483.2656 729.7188,482.1953 Q729.0313,481.125 729.0313,479.8438 L729.0313,478.6875 Q729.0313,477.3594 729.6484,476.2109 Q730.2656,475.0625 731.3594,474.4453 Q732.4531,473.8281 733.6875,473.8281 Q734.4219,473.8281 735.0703,473.9922 Q735.7188,474.1563 736.2656,474.5156 Z "/><text fill="#000000" font-family="sans-serif" font-size="12" lengthAdjust="spacingAndGlyphs" textLength="60" x="747.5" y="483.5508">Usabilidad</text><line style="stroke: #A80036; stroke-width: 1.5;" x1="719.5" x2="809.5" y1="494.6406" y2="494.6406"/><line style="stroke: #A80036; stroke-width: 1.5;" x1="719.5" x2="809.5" y1="502.6406" y2="502.6406"/><!--class Escalabilidad--><rect fill="#6495ED" filter="url(#f19qsebzkmikk4)" height="48" id="Escalabilidad" style="stroke: #A80036; stroke-width: 1.5;" width="107" x="846" y="462.6406"/><rect fill="#6495ED" height="32" style="stroke: #A80036; stroke-width: 1.5;" width="107" x="846" y="462.6406"/><ellipse cx="861" cy="478.6406" fill="#ADD1B2" rx="11" ry="11" style="stroke: #A80036; stroke-width: 1.0;"/><path d="M863.7656,474.5156 Q863.9219,474.2969 864.1094,474.1875 Q864.2969,474.0781 864.5156,474.0781 Q864.8906,474.0781 865.125,474.3359 Q865.3594,474.5938 865.3594,475.2031 L865.3594,476.6563 Q865.3594,477.2656 865.125,477.5313 Q864.8906,477.7969 864.5156,477.7969 Q864.1719,477.7969 863.9688,477.5938 Q863.7656,477.4063 863.6563,476.8906 Q863.6094,476.5313 863.4219,476.3438 Q863.0938,475.9688 862.4844,475.75 Q861.875,475.5313 861.25,475.5313 Q860.4844,475.5313 859.8516,475.8594 Q859.2188,476.1875 858.7266,476.9375 Q858.2344,477.6875 858.2344,478.7188 L858.2344,479.8125 Q858.2344,481.0469 859.125,481.8672 Q860.0156,482.6875 861.6094,482.6875 Q862.5469,482.6875 863.2031,482.4375 Q863.5938,482.2813 864.0156,481.8438 Q864.2813,481.5781 864.4297,481.5 Q864.5781,481.4219 864.7813,481.4219 Q865.1094,481.4219 865.3672,481.6797 Q865.625,481.9375 865.625,482.2813 Q865.625,482.625 865.2813,483.0313 Q864.7813,483.6094 863.9844,483.9375 Q862.9063,484.3906 861.6094,484.3906 Q860.0938,484.3906 858.8906,483.7656 Q857.9063,483.2656 857.2188,482.1953 Q856.5313,481.125 856.5313,479.8438 L856.5313,478.6875 Q856.5313,477.3594 857.1484,476.2109 Q857.7656,475.0625 858.8594,474.4453 Q859.9531,473.8281 861.1875,473.8281 Q861.9219,473.8281 862.5703,473.9922 Q863.2188,474.1563 863.7656,474.5156 Z "/><text fill="#000000" font-family="sans-serif" font-size="12" lengthAdjust="spacingAndGlyphs" textLength="75" x="875" y="483.5508">Escalabilidad</text><line style="stroke: #A80036; stroke-width: 1.5;" x1="847" x2="952" y1="494.6406" y2="494.6406"/><line style="stroke: #A80036; stroke-width: 1.5;" x1="847" x2="952" y1="502.6406" y2="502.6406"/><!--class ComplejidadArbitraria--><rect fill="#FF0000" filter="url(#f19qsebzkmikk4)" height="48" id="ComplejidadArbitraria" style="stroke: #A80036; stroke-width: 1.5;" width="155" x="6" y="570.6406"/><rect fill="#FF0000" height="32" style="stroke: #A80036; stroke-width: 1.5;" width="155" x="6" y="570.6406"/><ellipse cx="21" cy="586.6406" fill="#ADD1B2" rx="11" ry="11" style="stroke: #A80036; stroke-width: 1.0;"/><path d="M23.7656,582.5156 Q23.9219,582.2969 24.1094,582.1875 Q24.2969,582.0781 24.5156,582.0781 Q24.8906,582.0781 25.125,582.3359 Q25.3594,582.5938 25.3594,583.2031 L25.3594,584.6563 Q25.3594,585.2656 25.125,585.5313 Q24.8906,585.7969 24.5156,585.7969 Q24.1719,585.7969 23.9688,585.5938 Q23.7656,585.4063 23.6563,584.8906 Q23.6094,584.5313 23.4219,584.3438 Q23.0938,583.9688 22.4844,583.75 Q21.875,583.5313 21.25,583.5313 Q20.4844,583.5313 19.8516,583.8594 Q19.2188,584.1875 18.7266,584.9375 Q18.2344,585.6875 18.2344,586.7188 L18.2344,587.8125 Q18.2344,589.0469 19.125,589.8672 Q20.0156,590.6875 21.6094,590.6875 Q22.5469,590.6875 23.2031,590.4375 Q23.5938,590.2813 24.0156,589.8438 Q24.2813,589.5781 24.4297,589.5 Q24.5781,589.4219 24.7813,589.4219 Q25.1094,589.4219 25.3672,589.6797 Q25.625,589.9375 25.625,590.2813 Q25.625,590.625 25.2813,591.0313 Q24.7813,591.6094 23.9844,591.9375 Q22.9063,592.3906 21.6094,592.3906 Q20.0938,592.3906 18.8906,591.7656 Q17.9063,591.2656 17.2188,590.1953 Q16.5313,589.125 16.5313,587.8438 L16.5313,586.6875 Q16.5313,585.3594 17.1484,584.2109 Q17.7656,583.0625 18.8594,582.4453 Q19.9531,581.8281 21.1875,581.8281 Q21.9219,581.8281 22.5703,581.9922 Q23.2188,582.1563 23.7656,582.5156 Z "/><text fill="#000000" font-family="sans-serif" font-size="12" lengthAdjust="spacingAndGlyphs" textLength="123" x="35" y="591.5508">Complejidad Arbitraria</text><line style="stroke: #A80036; stroke-width: 1.5;" x1="7" x2="160" y1="602.6406" y2="602.6406"/><line style="stroke: #A80036; stroke-width: 1.5;" x1="7" x2="160" y1="610.6406" y2="610.6406"/><path d="M196.5,581.6406 L196.5,590.6406 L161.061,594.6406 L196.5,598.6406 L196.5,607.9922 A0,0 0 0 0 196.5,607.9922 L336.5,607.9922 A0,0 0 0 0 336.5,607.9922 L336.5,591.6406 L326.5,581.6406 L196.5,581.6406 A0,0 0 0 0 196.5,581.6406 " fill="#FBFB77" filter="url(#f19qsebzkmikk4)" style="stroke: #A80036; stroke-width: 1.0;"/><path d="M326.5,581.6406 L326.5,591.6406 L336.5,591.6406 L326.5,581.6406 " fill="#FBFB77" style="stroke: #A80036; stroke-width: 1.0;"/><text fill="#000000" font-family="sans-serif" font-size="13" lengthAdjust="spacingAndGlyphs" textLength="119" x="202.5" y="600.1357">Enemigo público nº1</text><!--class Viscosidad--><rect fill="url(#g19qsebzkmikk42)" filter="url(#f19qsebzkmikk4)" height="48" id="Viscosidad" style="stroke: #A80036; stroke-width: 1.5;" width="93" x="372" y="570.6406"/><rect fill="url(#g19qsebzkmikk42)" height="32" style="stroke: #A80036; stroke-width: 1.5;" width="93" x="372" y="570.6406"/><ellipse cx="387" cy="586.6406" fill="#ADD1B2" rx="11" ry="11" style="stroke: #A80036; stroke-width: 1.0;"/><path d="M389.7656,582.5156 Q389.9219,582.2969 390.1094,582.1875 Q390.2969,582.0781 390.5156,582.0781 Q390.8906,582.0781 391.125,582.3359 Q391.3594,582.5938 391.3594,583.2031 L391.3594,584.6563 Q391.3594,585.2656 391.125,585.5313 Q390.8906,585.7969 390.5156,585.7969 Q390.1719,585.7969 389.9688,585.5938 Q389.7656,585.4063 389.6563,584.8906 Q389.6094,584.5313 389.4219,584.3438 Q389.0938,583.9688 388.4844,583.75 Q387.875,583.5313 387.25,583.5313 Q386.4844,583.5313 385.8516,583.8594 Q385.2188,584.1875 384.7266,584.9375 Q384.2344,585.6875 384.2344,586.7188 L384.2344,587.8125 Q384.2344,589.0469 385.125,589.8672 Q386.0156,590.6875 387.6094,590.6875 Q388.5469,590.6875 389.2031,590.4375 Q389.5938,590.2813 390.0156,589.8438 Q390.2813,589.5781 390.4297,589.5 Q390.5781,589.4219 390.7813,589.4219 Q391.1094,589.4219 391.3672,589.6797 Q391.625,589.9375 391.625,590.2813 Q391.625,590.625 391.2813,591.0313 Q390.7813,591.6094 389.9844,591.9375 Q388.9063,592.3906 387.6094,592.3906 Q386.0938,592.3906 384.8906,591.7656 Q383.9063,591.2656 383.2188,590.1953 Q382.5313,589.125 382.5313,587.8438 L382.5313,586.6875 Q382.5313,585.3594 383.1484,584.2109 Q383.7656,583.0625 384.8594,582.4453 Q385.9531,581.8281 387.1875,581.8281 Q387.9219,581.8281 388.5703,581.9922 Q389.2188,582.1563 389.7656,582.5156 Z "/><text fill="#000000" font-family="sans-serif" font-size="12" lengthAdjust="spacingAndGlyphs" textLength="61" x="401" y="591.5508">Viscosidad</text><line style="stroke: #A80036; stroke-width: 1.5;" x1="373" x2="464" y1="602.6406" y2="602.6406"/><line style="stroke: #A80036; stroke-width: 1.5;" x1="373" x2="464" y1="610.6406" y2="610.6406"/><!--class Rigidez--><rect fill="url(#g19qsebzkmikk42)" filter="url(#f19qsebzkmikk4)" height="48" id="Rigidez" style="stroke: #A80036; stroke-width: 1.5;" width="73" x="622" y="570.6406"/><rect fill="url(#g19qsebzkmikk42)" height="32" style="stroke: #A80036; stroke-width: 1.5;" width="73" x="622" y="570.6406"/><ellipse cx="637" cy="586.6406" fill="#ADD1B2" rx="11" ry="11" style="stroke: #A80036; stroke-width: 1.0;"/><path d="M639.7656,582.5156 Q639.9219,582.2969 640.1094,582.1875 Q640.2969,582.0781 640.5156,582.0781 Q640.8906,582.0781 641.125,582.3359 Q641.3594,582.5938 641.3594,583.2031 L641.3594,584.6563 Q641.3594,585.2656 641.125,585.5313 Q640.8906,585.7969 640.5156,585.7969 Q640.1719,585.7969 639.9688,585.5938 Q639.7656,585.4063 639.6563,584.8906 Q639.6094,584.5313 639.4219,584.3438 Q639.0938,583.9688 638.4844,583.75 Q637.875,583.5313 637.25,583.5313 Q636.4844,583.5313 635.8516,583.8594 Q635.2188,584.1875 634.7266,584.9375 Q634.2344,585.6875 634.2344,586.7188 L634.2344,587.8125 Q634.2344,589.0469 635.125,589.8672 Q636.0156,590.6875 637.6094,590.6875 Q638.5469,590.6875 639.2031,590.4375 Q639.5938,590.2813 640.0156,589.8438 Q640.2813,589.5781 640.4297,589.5 Q640.5781,589.4219 640.7813,589.4219 Q641.1094,589.4219 641.3672,589.6797 Q641.625,589.9375 641.625,590.2813 Q641.625,590.625 641.2813,591.0313 Q640.7813,591.6094 639.9844,591.9375 Q638.9063,592.3906 637.6094,592.3906 Q636.0938,592.3906 634.8906,591.7656 Q633.9063,591.2656 633.2188,590.1953 Q632.5313,589.125 632.5313,587.8438 L632.5313,586.6875 Q632.5313,585.3594 633.1484,584.2109 Q633.7656,583.0625 634.8594,582.4453 Q635.9531,581.8281 637.1875,581.8281 Q637.9219,581.8281 638.5703,581.9922 Q639.2188,582.1563 639.7656,582.5156 Z "/><text fill="#000000" font-family="sans-serif" font-size="12" lengthAdjust="spacingAndGlyphs" textLength="41" x="651" y="591.5508">Rigidez</text><line style="stroke: #A80036; stroke-width: 1.5;" x1="623" x2="694" y1="602.6406" y2="602.6406"/><line style="stroke: #A80036; stroke-width: 1.5;" x1="623" x2="694" y1="610.6406" y2="610.6406"/><!--class Fragilidad--><rect fill="url(#g19qsebzkmikk42)" filter="url(#f19qsebzkmikk4)" height="48" id="Fragilidad" style="stroke: #A80036; stroke-width: 1.5;" width="87" x="500" y="570.6406"/><rect fill="url(#g19qsebzkmikk42)" height="32" style="stroke: #A80036; stroke-width: 1.5;" width="87" x="500" y="570.6406"/><ellipse cx="515" cy="586.6406" fill="#ADD1B2" rx="11" ry="11" style="stroke: #A80036; stroke-width: 1.0;"/><path d="M517.7656,582.5156 Q517.9219,582.2969 518.1094,582.1875 Q518.2969,582.0781 518.5156,582.0781 Q518.8906,582.0781 519.125,582.3359 Q519.3594,582.5938 519.3594,583.2031 L519.3594,584.6563 Q519.3594,585.2656 519.125,585.5313 Q518.8906,585.7969 518.5156,585.7969 Q518.1719,585.7969 517.9688,585.5938 Q517.7656,585.4063 517.6563,584.8906 Q517.6094,584.5313 517.4219,584.3438 Q517.0938,583.9688 516.4844,583.75 Q515.875,583.5313 515.25,583.5313 Q514.4844,583.5313 513.8516,583.8594 Q513.2188,584.1875 512.7266,584.9375 Q512.2344,585.6875 512.2344,586.7188 L512.2344,587.8125 Q512.2344,589.0469 513.125,589.8672 Q514.0156,590.6875 515.6094,590.6875 Q516.5469,590.6875 517.2031,590.4375 Q517.5938,590.2813 518.0156,589.8438 Q518.2813,589.5781 518.4297,589.5 Q518.5781,589.4219 518.7813,589.4219 Q519.1094,589.4219 519.3672,589.6797 Q519.625,589.9375 519.625,590.2813 Q519.625,590.625 519.2813,591.0313 Q518.7813,591.6094 517.9844,591.9375 Q516.9063,592.3906 515.6094,592.3906 Q514.0938,592.3906 512.8906,591.7656 Q511.9063,591.2656 511.2188,590.1953 Q510.5313,589.125 510.5313,587.8438 L510.5313,586.6875 Q510.5313,585.3594 511.1484,584.2109 Q511.7656,583.0625 512.8594,582.4453 Q513.9531,581.8281 515.1875,581.8281 Q515.9219,581.8281 516.5703,581.9922 Q517.2188,582.1563 517.7656,582.5156 Z "/><text fill="#000000" font-family="sans-serif" font-size="12" lengthAdjust="spacingAndGlyphs" textLength="55" x="529" y="591.5508">Fragilidad</text><line style="stroke: #A80036; stroke-width: 1.5;" x1="501" x2="586" y1="602.6406" y2="602.6406"/><line style="stroke: #A80036; stroke-width: 1.5;" x1="501" x2="586" y1="610.6406" y2="610.6406"/><!--class Inmovilidad--><rect fill="url(#g19qsebzkmikk42)" filter="url(#f19qsebzkmikk4)" height="48" id="Inmovilidad" style="stroke: #A80036; stroke-width: 1.5;" width="95" x="898" y="570.6406"/><rect fill="url(#g19qsebzkmikk42)" height="32" style="stroke: #A80036; stroke-width: 1.5;" width="95" x="898" y="570.6406"/><ellipse cx="913" cy="586.6406" fill="#ADD1B2" rx="11" ry="11" style="stroke: #A80036; stroke-width: 1.0;"/><path d="M915.7656,582.5156 Q915.9219,582.2969 916.1094,582.1875 Q916.2969,582.0781 916.5156,582.0781 Q916.8906,582.0781 917.125,582.3359 Q917.3594,582.5938 917.3594,583.2031 L917.3594,584.6563 Q917.3594,585.2656 917.125,585.5313 Q916.8906,585.7969 916.5156,585.7969 Q916.1719,585.7969 915.9688,585.5938 Q915.7656,585.4063 915.6563,584.8906 Q915.6094,584.5313 915.4219,584.3438 Q915.0938,583.9688 914.4844,583.75 Q913.875,583.5313 913.25,583.5313 Q912.4844,583.5313 911.8516,583.8594 Q911.2188,584.1875 910.7266,584.9375 Q910.2344,585.6875 910.2344,586.7188 L910.2344,587.8125 Q910.2344,589.0469 911.125,589.8672 Q912.0156,590.6875 913.6094,590.6875 Q914.5469,590.6875 915.2031,590.4375 Q915.5938,590.2813 916.0156,589.8438 Q916.2813,589.5781 916.4297,589.5 Q916.5781,589.4219 916.7813,589.4219 Q917.1094,589.4219 917.3672,589.6797 Q917.625,589.9375 917.625,590.2813 Q917.625,590.625 917.2813,591.0313 Q916.7813,591.6094 915.9844,591.9375 Q914.9063,592.3906 913.6094,592.3906 Q912.0938,592.3906 910.8906,591.7656 Q909.9063,591.2656 909.2188,590.1953 Q908.5313,589.125 908.5313,587.8438 L908.5313,586.6875 Q908.5313,585.3594 909.1484,584.2109 Q909.7656,583.0625 910.8594,582.4453 Q911.9531,581.8281 913.1875,581.8281 Q913.9219,581.8281 914.5703,581.9922 Q915.2188,582.1563 915.7656,582.5156 Z "/><text fill="#000000" font-family="sans-serif" font-size="12" lengthAdjust="spacingAndGlyphs" textLength="63" x="927" y="591.5508">Inmovilidad</text><line style="stroke: #A80036; stroke-width: 1.5;" x1="899" x2="992" y1="602.6406" y2="602.6406"/><line style="stroke: #A80036; stroke-width: 1.5;" x1="899" x2="992" y1="610.6406" y2="610.6406"/><!--class Limpieza--><rect fill="url(#g19qsebzkmikk43)" filter="url(#f19qsebzkmikk4)" height="48" id="Limpieza" style="stroke: #A80036; stroke-width: 1.5;" width="82" x="401.5" y="678.6406"/><rect fill="url(#g19qsebzkmikk43)" height="32" style="stroke: #A80036; stroke-width: 1.5;" width="82" x="401.5" y="678.6406"/><ellipse cx="416.5" cy="694.6406" fill="#ADD1B2" rx="11" ry="11" style="stroke: #A80036; stroke-width: 1.0;"/><path d="M419.2656,690.5156 Q419.4219,690.2969 419.6094,690.1875 Q419.7969,690.0781 420.0156,690.0781 Q420.3906,690.0781 420.625,690.3359 Q420.8594,690.5938 420.8594,691.2031 L420.8594,692.6563 Q420.8594,693.2656 420.625,693.5313 Q420.3906,693.7969 420.0156,693.7969 Q419.6719,693.7969 419.4688,693.5938 Q419.2656,693.4063 419.1563,692.8906 Q419.1094,692.5313 418.9219,692.3438 Q418.5938,691.9688 417.9844,691.75 Q417.375,691.5313 416.75,691.5313 Q415.9844,691.5313 415.3516,691.8594 Q414.7188,692.1875 414.2266,692.9375 Q413.7344,693.6875 413.7344,694.7188 L413.7344,695.8125 Q413.7344,697.0469 414.625,697.8672 Q415.5156,698.6875 417.1094,698.6875 Q418.0469,698.6875 418.7031,698.4375 Q419.0938,698.2813 419.5156,697.8438 Q419.7813,697.5781 419.9297,697.5 Q420.0781,697.4219 420.2813,697.4219 Q420.6094,697.4219 420.8672,697.6797 Q421.125,697.9375 421.125,698.2813 Q421.125,698.625 420.7813,699.0313 Q420.2813,699.6094 419.4844,699.9375 Q418.4063,700.3906 417.1094,700.3906 Q415.5938,700.3906 414.3906,699.7656 Q413.4063,699.2656 412.7188,698.1953 Q412.0313,697.125 412.0313,695.8438 L412.0313,694.6875 Q412.0313,693.3594 412.6484,692.2109 Q413.2656,691.0625 414.3594,690.4453 Q415.4531,689.8281 416.6875,689.8281 Q417.4219,689.8281 418.0703,689.9922 Q418.7188,690.1563 419.2656,690.5156 Z "/><text fill="#000000" font-family="sans-serif" font-size="12" lengthAdjust="spacingAndGlyphs" textLength="50" x="430.5" y="699.5508">Limpieza</text><line style="stroke: #A80036; stroke-width: 1.5;" x1="402.5" x2="482.5" y1="710.6406" y2="710.6406"/><line style="stroke: #A80036; stroke-width: 1.5;" x1="402.5" x2="482.5" y1="718.6406" y2="718.6406"/><!--class Flexibilidad--><rect fill="url(#g19qsebzkmikk43)" filter="url(#f19qsebzkmikk4)" height="48" id="Flexibilidad" style="stroke: #A80036; stroke-width: 1.5;" width="94" x="704.5" y="678.6406"/><rect fill="url(#g19qsebzkmikk43)" height="32" style="stroke: #A80036; stroke-width: 1.5;" width="94" x="704.5" y="678.6406"/><ellipse cx="719.5" cy="694.6406" fill="#ADD1B2" rx="11" ry="11" style="stroke: #A80036; stroke-width: 1.0;"/><path d="M722.2656,690.5156 Q722.4219,690.2969 722.6094,690.1875 Q722.7969,690.0781 723.0156,690.0781 Q723.3906,690.0781 723.625,690.3359 Q723.8594,690.5938 723.8594,691.2031 L723.8594,692.6563 Q723.8594,693.2656 723.625,693.5313 Q723.3906,693.7969 723.0156,693.7969 Q722.6719,693.7969 722.4688,693.5938 Q722.2656,693.4063 722.1563,692.8906 Q722.1094,692.5313 721.9219,692.3438 Q721.5938,691.9688 720.9844,691.75 Q720.375,691.5313 719.75,691.5313 Q718.9844,691.5313 718.3516,691.8594 Q717.7188,692.1875 717.2266,692.9375 Q716.7344,693.6875 716.7344,694.7188 L716.7344,695.8125 Q716.7344,697.0469 717.625,697.8672 Q718.5156,698.6875 720.1094,698.6875 Q721.0469,698.6875 721.7031,698.4375 Q722.0938,698.2813 722.5156,697.8438 Q722.7813,697.5781 722.9297,697.5 Q723.0781,697.4219 723.2813,697.4219 Q723.6094,697.4219 723.8672,697.6797 Q724.125,697.9375 724.125,698.2813 Q724.125,698.625 723.7813,699.0313 Q723.2813,699.6094 722.4844,699.9375 Q721.4063,700.3906 720.1094,700.3906 Q718.5938,700.3906 717.3906,699.7656 Q716.4063,699.2656 715.7188,698.1953 Q715.0313,697.125 715.0313,695.8438 L715.0313,694.6875 Q715.0313,693.3594 715.6484,692.2109 Q716.2656,691.0625 717.3594,690.4453 Q718.4531,689.8281 719.6875,689.8281 Q720.4219,689.8281 721.0703,689.9922 Q721.7188,690.1563 722.2656,690.5156 Z "/><text fill="#000000" font-family="sans-serif" font-size="12" lengthAdjust="spacingAndGlyphs" textLength="62" x="733.5" y="699.5508">Flexibilidad</text><line style="stroke: #A80036; stroke-width: 1.5;" x1="705.5" x2="797.5" y1="710.6406" y2="710.6406"/><line style="stroke: #A80036; stroke-width: 1.5;" x1="705.5" x2="797.5" y1="718.6406" y2="718.6406"/><!--class Robustez--><rect fill="url(#g19qsebzkmikk43)" filter="url(#f19qsebzkmikk4)" height="48" id="Robustez" style="stroke: #A80036; stroke-width: 1.5;" width="84" x="521.5" y="678.6406"/><rect fill="url(#g19qsebzkmikk43)" height="32" style="stroke: #A80036; stroke-width: 1.5;" width="84" x="521.5" y="678.6406"/><ellipse cx="536.5" cy="694.6406" fill="#ADD1B2" rx="11" ry="11" style="stroke: #A80036; stroke-width: 1.0;"/><path d="M539.2656,690.5156 Q539.4219,690.2969 539.6094,690.1875 Q539.7969,690.0781 540.0156,690.0781 Q540.3906,690.0781 540.625,690.3359 Q540.8594,690.5938 540.8594,691.2031 L540.8594,692.6563 Q540.8594,693.2656 540.625,693.5313 Q540.3906,693.7969 540.0156,693.7969 Q539.6719,693.7969 539.4688,693.5938 Q539.2656,693.4063 539.1563,692.8906 Q539.1094,692.5313 538.9219,692.3438 Q538.5938,691.9688 537.9844,691.75 Q537.375,691.5313 536.75,691.5313 Q535.9844,691.5313 535.3516,691.8594 Q534.7188,692.1875 534.2266,692.9375 Q533.7344,693.6875 533.7344,694.7188 L533.7344,695.8125 Q533.7344,697.0469 534.625,697.8672 Q535.5156,698.6875 537.1094,698.6875 Q538.0469,698.6875 538.7031,698.4375 Q539.0938,698.2813 539.5156,697.8438 Q539.7813,697.5781 539.9297,697.5 Q540.0781,697.4219 540.2813,697.4219 Q540.6094,697.4219 540.8672,697.6797 Q541.125,697.9375 541.125,698.2813 Q541.125,698.625 540.7813,699.0313 Q540.2813,699.6094 539.4844,699.9375 Q538.4063,700.3906 537.1094,700.3906 Q535.5938,700.3906 534.3906,699.7656 Q533.4063,699.2656 532.7188,698.1953 Q532.0313,697.125 532.0313,695.8438 L532.0313,694.6875 Q532.0313,693.3594 532.6484,692.2109 Q533.2656,691.0625 534.3594,690.4453 Q535.4531,689.8281 536.6875,689.8281 Q537.4219,689.8281 538.0703,689.9922 Q538.7188,690.1563 539.2656,690.5156 Z "/><text fill="#000000" font-family="sans-serif" font-size="12" lengthAdjust="spacingAndGlyphs" textLength="52" x="550.5" y="699.5508">Robustez</text><line style="stroke: #A80036; stroke-width: 1.5;" x1="522.5" x2="604.5" y1="710.6406" y2="710.6406"/><line style="stroke: #A80036; stroke-width: 1.5;" x1="522.5" x2="604.5" y1="718.6406" y2="718.6406"/><!--class Reusabilidad--><rect fill="url(#g19qsebzkmikk43)" filter="url(#f19qsebzkmikk4)" height="48" id="Reusabilidad" style="stroke: #A80036; stroke-width: 1.5;" width="106" x="872.5" y="678.6406"/><rect fill="url(#g19qsebzkmikk43)" height="32" style="stroke: #A80036; stroke-width: 1.5;" width="106" x="872.5" y="678.6406"/><ellipse cx="887.5" cy="694.6406" fill="#ADD1B2" rx="11" ry="11" style="stroke: #A80036; stroke-width: 1.0;"/><path d="M890.2656,690.5156 Q890.4219,690.2969 890.6094,690.1875 Q890.7969,690.0781 891.0156,690.0781 Q891.3906,690.0781 891.625,690.3359 Q891.8594,690.5938 891.8594,691.2031 L891.8594,692.6563 Q891.8594,693.2656 891.625,693.5313 Q891.3906,693.7969 891.0156,693.7969 Q890.6719,693.7969 890.4688,693.5938 Q890.2656,693.4063 890.1563,692.8906 Q890.1094,692.5313 889.9219,692.3438 Q889.5938,691.9688 888.9844,691.75 Q888.375,691.5313 887.75,691.5313 Q886.9844,691.5313 886.3516,691.8594 Q885.7188,692.1875 885.2266,692.9375 Q884.7344,693.6875 884.7344,694.7188 L884.7344,695.8125 Q884.7344,697.0469 885.625,697.8672 Q886.5156,698.6875 888.1094,698.6875 Q889.0469,698.6875 889.7031,698.4375 Q890.0938,698.2813 890.5156,697.8438 Q890.7813,697.5781 890.9297,697.5 Q891.0781,697.4219 891.2813,697.4219 Q891.6094,697.4219 891.8672,697.6797 Q892.125,697.9375 892.125,698.2813 Q892.125,698.625 891.7813,699.0313 Q891.2813,699.6094 890.4844,699.9375 Q889.4063,700.3906 888.1094,700.3906 Q886.5938,700.3906 885.3906,699.7656 Q884.4063,699.2656 883.7188,698.1953 Q883.0313,697.125 883.0313,695.8438 L883.0313,694.6875 Q883.0313,693.3594 883.6484,692.2109 Q884.2656,691.0625 885.3594,690.4453 Q886.4531,689.8281 887.6875,689.8281 Q888.4219,689.8281 889.0703,689.9922 Q889.7188,690.1563 890.2656,690.5156 Z "/><text fill="#000000" font-family="sans-serif" font-size="12" lengthAdjust="spacingAndGlyphs" textLength="74" x="901.5" y="699.5508">Reusabilidad</text><line style="stroke: #A80036; stroke-width: 1.5;" x1="873.5" x2="977.5" y1="710.6406" y2="710.6406"/><line style="stroke: #A80036; stroke-width: 1.5;" x1="873.5" x2="977.5" y1="718.6406" y2="718.6406"/><!--link ProductoSoftware to Calidad--><path d="M732.5,91.9786 C732.5,102.6466 732.5,114.3176 732.5,125.0046 " fill="none" id="ProductoSoftware-Calidad" style="stroke: #A80036; stroke-width: 1.0;"/><polygon fill="#A80036" points="732.5,138.3186,736.5,129.3186,732.5,133.3186,728.5,129.3186,732.5,138.3186" style="stroke: #A80036; stroke-width: 1.0;"/><line style="stroke: #A80036; stroke-width: 1.0;" x1="732.5" x2="732.5" y1="133.3186" y2="125.3186"/><polygon fill="#A80036" points="732.5,78.6406,728.5,84.6406,732.5,90.6406,736.5,84.6406,732.5,78.6406" style="stroke: #A80036; stroke-width: 1.0;"/><!--link Calidad to Efectividad--><path d="M752.662,198.1106 C759.585,209.9476 767.334,223.1956 774.264,235.0426 " fill="none" id="Calidad-Efectividad" style="stroke: #A80036; stroke-width: 1.0;"/><polygon fill="#A80036" points="780.859,246.3186,779.7682,236.5304,778.3348,242.0026,772.8625,240.5691,780.859,246.3186" style="stroke: #A80036; stroke-width: 1.0;"/><line style="stroke: #A80036; stroke-width: 1.0;" x1="778.3348" x2="774.2955" y1="242.0026" y2="235.0976"/><polygon fill="#A80036" points="745.953,186.6406,745.5293,193.8393,752.0112,196.9991,752.4349,189.8005,745.953,186.6406" style="stroke: #A80036; stroke-width: 1.0;"/><!--link Calidad to Mantenibilidad--><path d="M721.237,199.6136 C708.841,239.2086 689.035,302.4686 676.674,341.9506 " fill="none" id="Calidad-Mantenibilidad" style="stroke: #A80036; stroke-width: 1.0;"/><polygon fill="#A80036" points="672.789,354.3606,679.2955,346.967,674.283,349.589,671.6609,344.5766,672.789,354.3606" style="stroke: #A80036; stroke-width: 1.0;"/><line style="stroke: #A80036; stroke-width: 1.0;" x1="674.283" x2="676.673" y1="349.589" y2="341.9541"/><polygon fill="#A80036" points="725.202,186.9496,719.5919,191.4803,721.6164,198.4014,727.2265,193.8707,725.202,186.9496" style="stroke: #A80036; stroke-width: 1.0;"/><!--link ProductoSoftware to ProductoSoftwareBajaCalidad--><path d="M698.616,94.2106 C659.692,138.5176 597.073,209.7966 564.952,246.3606 " fill="none" id="ProductoSoftware-ProductoSoftwareBajaCalidad" style="stroke: #A80036; stroke-width: 1.0;"/><polygon fill="none" points="693.564,89.3556,712.023,78.9496,704.082,98.5956,693.564,89.3556" style="stroke: #A80036; stroke-width: 1.0;"/><!--link ProductoSoftware to ProductoSoftwareAltaCalidad--><path d="M802.161,86.9286 C838.953,103.4546 883.325,123.3846 916.984,138.5026 " fill="none" id="ProductoSoftware-ProductoSoftwareAltaCalidad" style="stroke: #A80036; stroke-width: 1.0;"/><polygon fill="none" points="799.085,93.2206,783.708,78.6406,804.821,80.4496,799.085,93.2206" style="stroke: #A80036; stroke-width: 1.0;"/><!--link ProductoSoftwareBajaCalidad to BajaMantenibilidad--><path d="M544.391,294.9496 C544.206,334.5066 543.832,414.6346 543.632,457.3426 " fill="none" id="ProductoSoftwareBajaCalidad-BajaMantenibilidad" style="stroke: #A80036; stroke-width: 1.0;"/><polygon fill="#A80036" points="543.609,462.3606,547.6527,453.3802,543.6333,457.3607,539.6528,453.3413,543.609,462.3606" style="stroke: #A80036; stroke-width: 1.0;"/><!--link ProductoSoftwareAltaCalidad to AltaMantenibilidad--><path d="M976.553,187.0326 C995.475,246.5106 1036.4,406.1916 970.5,510.6406 C958.376,529.8556 910.172,552.0346 867.568,568.6286 " fill="none" id="ProductoSoftwareAltaCalidad-AltaMantenibilidad" style="stroke: #A80036; stroke-width: 1.0;"/><polygon fill="#A80036" points="862.669,570.5226,872.5059,571.0078,867.3326,568.7195,869.6209,563.5462,862.669,570.5226" style="stroke: #A80036; stroke-width: 1.0;"/><!--link Efectividad to Eficacia--><path d="M794.5,307.9786 C794.5,318.6466 794.5,330.3176 794.5,341.0046 " fill="none" id="Efectividad-Eficacia" style="stroke: #A80036; stroke-width: 1.0;"/><polygon fill="#A80036" points="794.5,354.3186,798.5,345.3186,794.5,349.3186,790.5,345.3186,794.5,354.3186" style="stroke: #A80036; stroke-width: 1.0;"/><line style="stroke: #A80036; stroke-width: 1.0;" x1="794.5" x2="794.5" y1="349.3186" y2="341.3186"/><polygon fill="#A80036" points="794.5,294.6406,790.5,300.6406,794.5,306.6406,798.5,300.6406,794.5,294.6406" style="stroke: #A80036; stroke-width: 1.0;"/><!--link Efectividad to Eficiencia--><path d="M829.399,303.8086 C843.614,316.9106 860.019,332.0316 874.267,345.1646 " fill="none" id="Efectividad-Eficiencia" style="stroke: #A80036; stroke-width: 1.0;"/><polygon fill="#A80036" points="884.198,354.3186,880.2911,345.2778,880.5214,350.93,874.8693,351.1603,884.198,354.3186" style="stroke: #A80036; stroke-width: 1.0;"/><line style="stroke: #A80036; stroke-width: 1.0;" x1="880.5214" x2="874.6395" y1="350.93" y2="345.5081"/><polygon fill="#A80036" points="819.453,294.6406,821.1534,301.6484,828.2761,302.7741,826.5757,295.7663,819.453,294.6406" style="stroke: #A80036; stroke-width: 1.0;"/><!--link Efectividad to Mantenibilidad--><path d="M766.509,294.6406 C746.279,311.2646 718.904,333.7586 697.755,351.1366 " fill="none" id="Efectividad-Mantenibilidad" style="stroke: #A80036; stroke-width: 1.0;"/><polygon fill="#A80036" points="693.882,354.3186,703.375,351.6951,697.745,351.1442,698.2959,345.5142,693.882,354.3186" style="stroke: #A80036; stroke-width: 1.0;"/><!--link Eficacia to Usabilidad--><path d="M782.46,422.1806 C778.585,435.8756 774.434,450.5406 771.1,462.3186 " fill="none" id="Eficacia-Usabilidad" style="stroke: #A80036; stroke-width: 1.0;"/><polygon fill="none" points="775.808,419.9786,787.99,402.6406,789.279,423.7916,775.808,419.9786" style="stroke: #A80036; stroke-width: 1.0;"/><!--link Eficacia to Escalabilidad--><path d="M831.429,416.9206 C846.396,432.0316 863.221,449.0156 876.398,462.3186 " fill="none" id="Eficacia-Escalabilidad" style="stroke: #A80036; stroke-width: 1.0;"/><polygon fill="none" points="826.385,421.7766,817.283,402.6406,836.332,411.9236,826.385,421.7766" style="stroke: #A80036; stroke-width: 1.0;"/><!--link Mantenibilidad to BajaMantenibilidad--><path d="M623.677,415.9786 C606.018,431.3216 585.972,448.7386 570.342,462.3186 " fill="none" id="Mantenibilidad-BajaMantenibilidad" style="stroke: #A80036; stroke-width: 1.0;"/><polygon fill="none" points="619.339,410.4746,639.028,402.6406,628.521,421.0426,619.339,410.4746" style="stroke: #A80036; stroke-width: 1.0;"/><!--link Mantenibilidad to AltaMantenibilidad--><path d="M670.499,423.1146 C675.126,449.9426 683.921,484.1666 700.5,510.6406 C715.585,534.7286 739.843,555.6156 760.2,570.4116 " fill="none" id="Mantenibilidad-AltaMantenibilidad" style="stroke: #A80036; stroke-width: 1.0;"/><polygon fill="none" points="663.534,423.8666,667.563,403.0636,677.387,421.8386,663.534,423.8666" style="stroke: #A80036; stroke-width: 1.0;"/><!--link BajaMantenibilidad to ComplejidadArbitraria--><path d="M461.907,505.8526 C387.886,522.4566 275.783,547.8046 178.5,570.6406 C177.008,570.9906 175.503,571.3446 173.988,571.7026 " fill="none" id="BajaMantenibilidad-ComplejidadArbitraria" style="stroke: #A80036; stroke-width: 1.0;"/><polygon fill="#A80036" points="161.246,574.7246,170.9262,576.5396,166.111,573.5707,169.0799,568.7556,161.246,574.7246" style="stroke: #A80036; stroke-width: 1.0;"/><line style="stroke: #A80036; stroke-width: 1.0;" x1="166.111" x2="173.895" y1="573.5707" y2="571.7246"/><polygon fill="#A80036" points="474.817,502.9596,468.0872,500.3692,463.1077,505.585,469.8375,508.1754,474.817,502.9596" style="stroke: #A80036; stroke-width: 1.0;"/><!--link BajaMantenibilidad to Viscosidad--><path d="M506.371,519.1256 C490.487,532.5956 471.971,548.2976 456.042,561.8046 " fill="none" id="BajaMantenibilidad-Viscosidad" style="stroke: #A80036; stroke-width: 1.0;"/><polygon fill="#A80036" points="446.002,570.3186,455.4533,567.5485,449.8154,567.0848,450.2792,561.447,446.002,570.3186" style="stroke: #A80036; stroke-width: 1.0;"/><line style="stroke: #A80036; stroke-width: 1.0;" x1="449.8154" x2="455.917" y1="567.0848" y2="561.9111"/><polygon fill="#A80036" points="516.377,510.6406,509.2138,511.4705,507.2247,518.4018,514.3879,517.572,516.377,510.6406" style="stroke: #A80036; stroke-width: 1.0;"/><!--link BajaMantenibilidad to Rigidez--><path d="M578.399,519.8086 C592.614,532.9106 609.019,548.0316 623.267,561.1646 " fill="none" id="BajaMantenibilidad-Rigidez" style="stroke: #A80036; stroke-width: 1.0;"/><polygon fill="#A80036" points="633.198,570.3186,629.2911,561.2778,629.5214,566.93,623.8693,567.1603,633.198,570.3186" style="stroke: #A80036; stroke-width: 1.0;"/><line style="stroke: #A80036; stroke-width: 1.0;" x1="629.5214" x2="623.6395" y1="566.93" y2="561.5081"/><polygon fill="#A80036" points="568.453,510.6406,570.1534,517.6484,577.2761,518.7741,575.5757,511.7663,568.453,510.6406" style="stroke: #A80036; stroke-width: 1.0;"/><!--link BajaMantenibilidad to Fragilidad--><path d="M543.5,523.9786 C543.5,534.6466 543.5,546.3176 543.5,557.0046 " fill="none" id="BajaMantenibilidad-Fragilidad" style="stroke: #A80036; stroke-width: 1.0;"/><polygon fill="#A80036" points="543.5,570.3186,547.5,561.3186,543.5,565.3186,539.5,561.3186,543.5,570.3186" style="stroke: #A80036; stroke-width: 1.0;"/><line style="stroke: #A80036; stroke-width: 1.0;" x1="543.5" x2="543.5" y1="565.3186" y2="557.3186"/><polygon fill="#A80036" points="543.5,510.6406,539.5,516.6406,543.5,522.6406,547.5,516.6406,543.5,510.6406" style="stroke: #A80036; stroke-width: 1.0;"/><!--link BajaMantenibilidad to Inmovilidad--><path d="M625.035,505.5416 C693.434,521.0926 793.462,545.0826 879.5,570.6406 C881.354,571.1916 883.233,571.7626 885.126,572.3496 " fill="none" id="BajaMantenibilidad-Inmovilidad" style="stroke: #A80036; stroke-width: 1.0;"/><polygon fill="#A80036" points="897.727,576.4056,890.3854,569.8405,892.9675,574.8737,887.9343,577.4558,897.727,576.4056" style="stroke: #A80036; stroke-width: 1.0;"/><line style="stroke: #A80036; stroke-width: 1.0;" x1="892.9675" x2="885.352" y1="574.8737" y2="572.4226"/><polygon fill="#A80036" points="612.216,502.6416,617.1854,507.8671,623.9202,505.2897,618.9508,500.0643,612.216,502.6416" style="stroke: #A80036; stroke-width: 1.0;"/><!--link AltaMantenibilidad to Limpieza--><path d="M717.282,617.7096 C637.713,639.9351 524.013,671.8814 503.5,678.6406 C501.081,679.4376 498.617,680.2721 496.133,681.1315 " fill="none" id="AltaMantenibilidad-Limpieza" style="stroke: #A80036; stroke-width: 1.0;"/><polygon fill="#A80036" points="483.676,685.576,493.4968,686.319,488.3852,683.8958,490.8084,678.7842,483.676,685.576" style="stroke: #A80036; stroke-width: 1.0;"/><line style="stroke: #A80036; stroke-width: 1.0;" x1="488.3852" x2="495.92" y1="683.8958" y2="681.2073"/><polygon fill="#A80036" points="730.231,614.0936,723.3763,611.8545,718.6731,617.3207,725.5277,619.5598,730.231,614.0936" style="stroke: #A80036; stroke-width: 1.0;"/><!--link AltaMantenibilidad to Flexibilidad--><path d="M781.471,631.0422 C776.669,642.3527 771.356,654.8695 766.552,666.1839 " fill="none" id="AltaMantenibilidad-Flexibilidad" style="stroke: #A80036; stroke-width: 1.0;"/><polygon fill="#A80036" points="761.401,678.319,768.6001,671.5979,763.355,673.7166,761.2363,668.4715,761.401,678.319" style="stroke: #A80036; stroke-width: 1.0;"/><line style="stroke: #A80036; stroke-width: 1.0;" x1="763.355" x2="766.481" y1="673.7166" y2="666.3527"/><polygon fill="#A80036" points="786.736,618.6406,780.7095,622.6006,782.0469,629.6866,788.0734,625.7266,786.736,618.6406" style="stroke: #A80036; stroke-width: 1.0;"/><!--link AltaMantenibilidad to Robustez--><path d="M734.005,624.0716 C697.848,640.5207 652.78,661.024 618.06,676.8192 " fill="none" id="AltaMantenibilidad-Robustez" style="stroke: #A80036; stroke-width: 1.0;"/><polygon fill="#A80036" points="605.773,682.4093,615.6215,682.3227,610.324,680.3385,612.3082,675.041,605.773,682.4093" style="stroke: #A80036; stroke-width: 1.0;"/><line style="stroke: #A80036; stroke-width: 1.0;" x1="610.324" x2="617.6055" y1="680.3385" y2="677.026"/><polygon fill="#A80036" points="745.942,618.6406,738.8241,617.4847,735.0195,623.6105,742.1374,624.7664,745.942,618.6406" style="stroke: #A80036; stroke-width: 1.0;"/><!--link AltaMantenibilidad to Reusabilidad--><path d="M834.541,626.8991 C850.978,640.4052 870.187,656.1898 886.707,669.7641 " fill="none" id="AltaMantenibilidad-Reusabilidad" style="stroke: #A80036; stroke-width: 1.0;"/><polygon fill="#A80036" points="897.118,678.319,892.7044,669.5145,893.2551,675.1444,887.6251,675.6951,897.118,678.319" style="stroke: #A80036; stroke-width: 1.0;"/><line style="stroke: #A80036; stroke-width: 1.0;" x1="893.2551" x2="887.074" y1="675.1444" y2="670.0657"/><polygon fill="#A80036" points="824.491,618.6406,826.5876,625.5402,833.7628,626.2586,831.6662,619.359,824.491,618.6406" style="stroke: #A80036; stroke-width: 1.0;"/><!--link Viscosidad to Limpieza--><path d="M424.869,623.7716 C428.332,639.0655 432.604,657.9329 436.075,673.2652 " fill="none" id="Viscosidad-Limpieza" style="stroke: #A80036; stroke-width: 1.0;"/><polygon fill="#A80036" points="437.22,678.319,439.1334,668.6578,436.1157,673.4425,431.331,670.4247,437.22,678.319" style="stroke: #A80036; stroke-width: 1.0;"/><polygon fill="#A80036" points="423.708,618.6406,421.7915,628.3012,424.8108,623.5175,429.5945,626.5368,423.708,618.6406" style="stroke: #A80036; stroke-width: 1.0;"/><!--link Rigidez to Flexibilidad--><path d="M682.03,622.4596 C695.959,638.3359 713.561,658.3981 727.561,674.3555 " fill="none" id="Rigidez-Flexibilidad" style="stroke: #A80036; stroke-width: 1.0;"/><polygon fill="#A80036" points="731.039,678.319,728.1103,668.9157,727.7415,674.5605,722.0967,674.1917,731.039,678.319" style="stroke: #A80036; stroke-width: 1.0;"/><polygon fill="#A80036" points="678.68,618.6406,681.6081,628.0441,681.9773,622.3993,687.6221,622.7685,678.68,618.6406" style="stroke: #A80036; stroke-width: 1.0;"/><!--link Fragilidad to Robustez--><path d="M548.808,623.7716 C551.693,639.0655 555.253,657.9329 558.146,673.2652 " fill="none" id="Fragilidad-Robustez" style="stroke: #A80036; stroke-width: 1.0;"/><polygon fill="#A80036" points="559.1,678.319,561.3616,668.7334,558.1728,673.4058,553.5004,670.2169,559.1,678.319" style="stroke: #A80036; stroke-width: 1.0;"/><polygon fill="#A80036" points="547.84,618.6406,545.5784,628.2263,548.7672,623.5539,553.4396,626.7427,547.84,618.6406" style="stroke: #A80036; stroke-width: 1.0;"/><!--link Inmovilidad to Reusabilidad--><path d="M940.192,623.7716 C937.307,639.0655 933.747,657.9329 930.854,673.2652 " fill="none" id="Inmovilidad-Reusabilidad" style="stroke: #A80036; stroke-width: 1.0;"/><polygon fill="#A80036" points="929.9,678.319,935.4996,670.2169,930.8272,673.4058,927.6384,668.7334,929.9,678.319" style="stroke: #A80036; stroke-width: 1.0;"/><polygon fill="#A80036" points="941.16,618.6406,935.5604,626.7427,940.2328,623.5539,943.4216,628.2263,941.16,618.6406" style="stroke: #A80036; stroke-width: 1.0;"/><!--
@startuml

title Producto Software

class "Producto Software" as ProductoSoftware #GreenYellow
ProductoSoftware *-down-> Calidad
class Calidad #CornflowerBlue
Calidad *-down-> Efectividad
Calidad *-down-> Mantenibilidad

class "Producto Software No Efectivo" as ProductoSoftwareBajaCalidad #GreenYellow|red
class "Producto Software Efectivo" as ProductoSoftwareAltaCalidad #GreenYellow|green
ProductoSoftware <|-down- ProductoSoftwareBajaCalidad
ProductoSoftware <|-down- ProductoSoftwareAltaCalidad

ProductoSoftwareBajaCalidad - -> BajaMantenibilidad
ProductoSoftwareAltaCalidad - -> AltaMantenibilidad

class Efectividad #orange
Efectividad *-down-> Eficacia
Efectividad *-down-> Eficiencia

Efectividad - -> Mantenibilidad

class Eficiencia #orange
class Eficacia #orange
class Usabilidad #CornflowerBlue
class Escalabilidad #CornflowerBlue
Eficacia <|-down- Usabilidad
Eficacia <|-down- Escalabilidad

class Mantenibilidad #CornflowerBlue
class "Alta Mantenibilidad" as AltaMantenibilidad #CornflowerBlue|green
class "Baja Mantenniblidad" as BajaMantenibilidad  #CornflowerBlue|red
Mantenibilidad <|-down- BajaMantenibilidad
Mantenibilidad <|-down- AltaMantenibilidad

class "Complejidad Arbitraria" as ComplejidadArbitraria  #red
note left {
Enemigo público nº1
}
BajaMantenibilidad *-down-> ComplejidadArbitraria

class Viscosidad #CornflowerBlue|red
class Rigidez #CornflowerBlue|red
class Fragilidad #CornflowerBlue|red
class Inmovilidad #CornflowerBlue|red

BajaMantenibilidad *-down-> Viscosidad
BajaMantenibilidad *-down-> Rigidez
BajaMantenibilidad *-down-> Fragilidad
BajaMantenibilidad *-down-> Inmovilidad

class Limpieza #CornflowerBlue|green
class Flexibilidad #CornflowerBlue|green
class Robustez #CornflowerBlue|green
class Reusabilidad #CornflowerBlue|green

AltaMantenibilidad *-down-> Limpieza
AltaMantenibilidad *-down-> Flexibilidad
AltaMantenibilidad *-down-> Robustez
AltaMantenibilidad *-down-> Reusabilidad

Viscosidad <- -> Limpieza
Rigidez <- -> Flexibilidad
Fragilidad <- -> Robustez
Inmovilidad <- -> Reusabilidad
@enduml

PlantUML version 1.2019.05(Sat Apr 20 18:45:36 CEST 2019)
(GPL source distribution)
Java Runtime: Java(TM) SE Runtime Environment
JVM: Java HotSpot(TM) 64-Bit Server VM
Java Version: 1.8.0_211-b12
Operating System: Windows 10
OS Version: 10.0
Default Encoding: windows-1252
Language: es
Country: ES
--></g></svg>