<?xml version="1.0" encoding="UTF-8" standalone="no"?><svg xmlns="http://www.w3.org/2000/svg" xmlns:xlink="http://www.w3.org/1999/xlink" contentScriptType="application/ecmascript" contentStyleType="text/css" height="629px" preserveAspectRatio="none" style="width:462px;height:629px;" version="1.1" viewBox="0 0 462 629" width="462px" zoomAndPan="magnify"><defs><filter height="300%" id="f7t4jerrh1gh7" width="300%" x="-1" y="-1"><feGaussianBlur result="blurOut" stdDeviation="2.0"/><feColorMatrix in="blurOut" result="blurOut2" type="matrix" values="0 0 0 0 0 0 0 0 0 0 0 0 0 0 0 0 0 0 .4 0"/><feOffset dx="4.0" dy="4.0" in="blurOut2" result="blurOut3"/><feBlend in="SourceGraphic" in2="blurOut3" mode="normal"/></filter></defs><g><text fill="#000000" font-family="sans-serif" font-size="18" lengthAdjust="spacingAndGlyphs" textLength="276" x="97" y="18.6855">Variables de un Proyecto Software</text><!--class ProyectoSoftware--><rect fill="#ADFF2F" filter="url(#f7t4jerrh1gh7)" height="48" id="ProyectoSoftware" style="stroke: #A80036; stroke-width: 1.5;" width="130" x="170.5" y="30.6406"/><rect fill="#ADFF2F" height="32" style="stroke: #A80036; stroke-width: 1.5;" width="130" x="170.5" y="30.6406"/><ellipse cx="185.5" cy="46.6406" fill="#ADD1B2" rx="11" ry="11" style="stroke: #A80036; stroke-width: 1.0;"/><path d="M188.2656,42.5156 Q188.4219,42.2969 188.6094,42.1875 Q188.7969,42.0781 189.0156,42.0781 Q189.3906,42.0781 189.625,42.3359 Q189.8594,42.5938 189.8594,43.2031 L189.8594,44.6563 Q189.8594,45.2656 189.625,45.5313 Q189.3906,45.7969 189.0156,45.7969 Q188.6719,45.7969 188.4688,45.5938 Q188.2656,45.4063 188.1563,44.8906 Q188.1094,44.5313 187.9219,44.3438 Q187.5938,43.9688 186.9844,43.75 Q186.375,43.5313 185.75,43.5313 Q184.9844,43.5313 184.3516,43.8594 Q183.7188,44.1875 183.2266,44.9375 Q182.7344,45.6875 182.7344,46.7188 L182.7344,47.8125 Q182.7344,49.0469 183.625,49.8672 Q184.5156,50.6875 186.1094,50.6875 Q187.0469,50.6875 187.7031,50.4375 Q188.0938,50.2813 188.5156,49.8438 Q188.7813,49.5781 188.9297,49.5 Q189.0781,49.4219 189.2813,49.4219 Q189.6094,49.4219 189.8672,49.6797 Q190.125,49.9375 190.125,50.2813 Q190.125,50.625 189.7813,51.0313 Q189.2813,51.6094 188.4844,51.9375 Q187.4063,52.3906 186.1094,52.3906 Q184.5938,52.3906 183.3906,51.7656 Q182.4063,51.2656 181.7188,50.1953 Q181.0313,49.125 181.0313,47.8438 L181.0313,46.6875 Q181.0313,45.3594 181.6484,44.2109 Q182.2656,43.0625 183.3594,42.4453 Q184.4531,41.8281 185.6875,41.8281 Q186.4219,41.8281 187.0703,41.9922 Q187.7188,42.1563 188.2656,42.5156 Z "/><text fill="#000000" font-family="sans-serif" font-size="12" lengthAdjust="spacingAndGlyphs" textLength="98" x="199.5" y="51.5508">Proyecto Software</text><line style="stroke: #A80036; stroke-width: 1.5;" x1="171.5" x2="299.5" y1="62.6406" y2="62.6406"/><line style="stroke: #A80036; stroke-width: 1.5;" x1="171.5" x2="299.5" y1="70.6406" y2="70.6406"/><!--class ProductoSoftware--><rect fill="#ADFF2F" filter="url(#f7t4jerrh1gh7)" height="48" id="ProductoSoftware" style="stroke: #A80036; stroke-width: 1.5;" width="129" x="6" y="138.6406"/><rect fill="#ADFF2F" height="32" style="stroke: #A80036; stroke-width: 1.5;" width="129" x="6" y="138.6406"/><ellipse cx="21" cy="154.6406" fill="#ADD1B2" rx="11" ry="11" style="stroke: #A80036; stroke-width: 1.0;"/><path d="M23.7656,150.5156 Q23.9219,150.2969 24.1094,150.1875 Q24.2969,150.0781 24.5156,150.0781 Q24.8906,150.0781 25.125,150.3359 Q25.3594,150.5938 25.3594,151.2031 L25.3594,152.6563 Q25.3594,153.2656 25.125,153.5313 Q24.8906,153.7969 24.5156,153.7969 Q24.1719,153.7969 23.9688,153.5938 Q23.7656,153.4063 23.6563,152.8906 Q23.6094,152.5313 23.4219,152.3438 Q23.0938,151.9688 22.4844,151.75 Q21.875,151.5313 21.25,151.5313 Q20.4844,151.5313 19.8516,151.8594 Q19.2188,152.1875 18.7266,152.9375 Q18.2344,153.6875 18.2344,154.7188 L18.2344,155.8125 Q18.2344,157.0469 19.125,157.8672 Q20.0156,158.6875 21.6094,158.6875 Q22.5469,158.6875 23.2031,158.4375 Q23.5938,158.2813 24.0156,157.8438 Q24.2813,157.5781 24.4297,157.5 Q24.5781,157.4219 24.7813,157.4219 Q25.1094,157.4219 25.3672,157.6797 Q25.625,157.9375 25.625,158.2813 Q25.625,158.625 25.2813,159.0313 Q24.7813,159.6094 23.9844,159.9375 Q22.9063,160.3906 21.6094,160.3906 Q20.0938,160.3906 18.8906,159.7656 Q17.9063,159.2656 17.2188,158.1953 Q16.5313,157.125 16.5313,155.8438 L16.5313,154.6875 Q16.5313,153.3594 17.1484,152.2109 Q17.7656,151.0625 18.8594,150.4453 Q19.9531,149.8281 21.1875,149.8281 Q21.9219,149.8281 22.5703,149.9922 Q23.2188,150.1563 23.7656,150.5156 Z "/><text fill="#000000" font-family="sans-serif" font-size="12" lengthAdjust="spacingAndGlyphs" textLength="97" x="35" y="159.5508">ProductoSoftware</text><line style="stroke: #A80036; stroke-width: 1.5;" x1="7" x2="134" y1="170.6406" y2="170.6406"/><line style="stroke: #A80036; stroke-width: 1.5;" x1="7" x2="134" y1="178.6406" y2="178.6406"/><!--class Variable--><rect fill="#0000FF" filter="url(#f7t4jerrh1gh7)" height="48" id="Variable" style="stroke: #A80036; stroke-width: 1.5;" width="77" x="244" y="246.6406"/><rect fill="#0000FF" height="32" style="stroke: #A80036; stroke-width: 1.5;" width="77" x="244" y="246.6406"/><ellipse cx="259" cy="262.6406" fill="#ADD1B2" rx="11" ry="11" style="stroke: #A80036; stroke-width: 1.0;"/><path d="M261.7656,258.5156 Q261.9219,258.2969 262.1094,258.1875 Q262.2969,258.0781 262.5156,258.0781 Q262.8906,258.0781 263.125,258.3359 Q263.3594,258.5938 263.3594,259.2031 L263.3594,260.6563 Q263.3594,261.2656 263.125,261.5313 Q262.8906,261.7969 262.5156,261.7969 Q262.1719,261.7969 261.9688,261.5938 Q261.7656,261.4063 261.6563,260.8906 Q261.6094,260.5313 261.4219,260.3438 Q261.0938,259.9688 260.4844,259.75 Q259.875,259.5313 259.25,259.5313 Q258.4844,259.5313 257.8516,259.8594 Q257.2188,260.1875 256.7266,260.9375 Q256.2344,261.6875 256.2344,262.7188 L256.2344,263.8125 Q256.2344,265.0469 257.125,265.8672 Q258.0156,266.6875 259.6094,266.6875 Q260.5469,266.6875 261.2031,266.4375 Q261.5938,266.2813 262.0156,265.8438 Q262.2813,265.5781 262.4297,265.5 Q262.5781,265.4219 262.7813,265.4219 Q263.1094,265.4219 263.3672,265.6797 Q263.625,265.9375 263.625,266.2813 Q263.625,266.625 263.2813,267.0313 Q262.7813,267.6094 261.9844,267.9375 Q260.9063,268.3906 259.6094,268.3906 Q258.0938,268.3906 256.8906,267.7656 Q255.9063,267.2656 255.2188,266.1953 Q254.5313,265.125 254.5313,263.8438 L254.5313,262.6875 Q254.5313,261.3594 255.1484,260.2109 Q255.7656,259.0625 256.8594,258.4453 Q257.9531,257.8281 259.1875,257.8281 Q259.9219,257.8281 260.5703,257.9922 Q261.2188,258.1563 261.7656,258.5156 Z "/><text fill="#000000" font-family="sans-serif" font-size="12" lengthAdjust="spacingAndGlyphs" textLength="45" x="273" y="267.5508">Variable</text><line style="stroke: #A80036; stroke-width: 1.5;" x1="245" x2="320" y1="278.6406" y2="278.6406"/><line style="stroke: #A80036; stroke-width: 1.5;" x1="245" x2="320" y1="286.6406" y2="286.6406"/><!--class Efectividad--><rect fill="#FFA500" filter="url(#f7t4jerrh1gh7)" height="48" id="Efectividad" style="stroke: #A80036; stroke-width: 1.5;" width="91" x="289" y="138.6406"/><rect fill="#FFA500" height="32" style="stroke: #A80036; stroke-width: 1.5;" width="91" x="289" y="138.6406"/><ellipse cx="304" cy="154.6406" fill="#ADD1B2" rx="11" ry="11" style="stroke: #A80036; stroke-width: 1.0;"/><path d="M306.7656,150.5156 Q306.9219,150.2969 307.1094,150.1875 Q307.2969,150.0781 307.5156,150.0781 Q307.8906,150.0781 308.125,150.3359 Q308.3594,150.5938 308.3594,151.2031 L308.3594,152.6563 Q308.3594,153.2656 308.125,153.5313 Q307.8906,153.7969 307.5156,153.7969 Q307.1719,153.7969 306.9688,153.5938 Q306.7656,153.4063 306.6563,152.8906 Q306.6094,152.5313 306.4219,152.3438 Q306.0938,151.9688 305.4844,151.75 Q304.875,151.5313 304.25,151.5313 Q303.4844,151.5313 302.8516,151.8594 Q302.2188,152.1875 301.7266,152.9375 Q301.2344,153.6875 301.2344,154.7188 L301.2344,155.8125 Q301.2344,157.0469 302.125,157.8672 Q303.0156,158.6875 304.6094,158.6875 Q305.5469,158.6875 306.2031,158.4375 Q306.5938,158.2813 307.0156,157.8438 Q307.2813,157.5781 307.4297,157.5 Q307.5781,157.4219 307.7813,157.4219 Q308.1094,157.4219 308.3672,157.6797 Q308.625,157.9375 308.625,158.2813 Q308.625,158.625 308.2813,159.0313 Q307.7813,159.6094 306.9844,159.9375 Q305.9063,160.3906 304.6094,160.3906 Q303.0938,160.3906 301.8906,159.7656 Q300.9063,159.2656 300.2188,158.1953 Q299.5313,157.125 299.5313,155.8438 L299.5313,154.6875 Q299.5313,153.3594 300.1484,152.2109 Q300.7656,151.0625 301.8594,150.4453 Q302.9531,149.8281 304.1875,149.8281 Q304.9219,149.8281 305.5703,149.9922 Q306.2188,150.1563 306.7656,150.5156 Z "/><text fill="#000000" font-family="sans-serif" font-size="12" lengthAdjust="spacingAndGlyphs" textLength="59" x="318" y="159.5508">Efectividad</text><line style="stroke: #A80036; stroke-width: 1.5;" x1="290" x2="379" y1="170.6406" y2="170.6406"/><line style="stroke: #A80036; stroke-width: 1.5;" x1="290" x2="379" y1="178.6406" y2="178.6406"/><!--class Calidad--><rect fill="#6495ED" filter="url(#f7t4jerrh1gh7)" height="48" id="Calidad" style="stroke: #A80036; stroke-width: 1.5;" width="75" x="205" y="462.6406"/><rect fill="#6495ED" height="32" style="stroke: #A80036; stroke-width: 1.5;" width="75" x="205" y="462.6406"/><ellipse cx="220" cy="478.6406" fill="#ADD1B2" rx="11" ry="11" style="stroke: #A80036; stroke-width: 1.0;"/><path d="M222.7656,474.5156 Q222.9219,474.2969 223.1094,474.1875 Q223.2969,474.0781 223.5156,474.0781 Q223.8906,474.0781 224.125,474.3359 Q224.3594,474.5938 224.3594,475.2031 L224.3594,476.6563 Q224.3594,477.2656 224.125,477.5313 Q223.8906,477.7969 223.5156,477.7969 Q223.1719,477.7969 222.9688,477.5938 Q222.7656,477.4063 222.6563,476.8906 Q222.6094,476.5313 222.4219,476.3438 Q222.0938,475.9688 221.4844,475.75 Q220.875,475.5313 220.25,475.5313 Q219.4844,475.5313 218.8516,475.8594 Q218.2188,476.1875 217.7266,476.9375 Q217.2344,477.6875 217.2344,478.7188 L217.2344,479.8125 Q217.2344,481.0469 218.125,481.8672 Q219.0156,482.6875 220.6094,482.6875 Q221.5469,482.6875 222.2031,482.4375 Q222.5938,482.2813 223.0156,481.8438 Q223.2813,481.5781 223.4297,481.5 Q223.5781,481.4219 223.7813,481.4219 Q224.1094,481.4219 224.3672,481.6797 Q224.625,481.9375 224.625,482.2813 Q224.625,482.625 224.2813,483.0313 Q223.7813,483.6094 222.9844,483.9375 Q221.9063,484.3906 220.6094,484.3906 Q219.0938,484.3906 217.8906,483.7656 Q216.9063,483.2656 216.2188,482.1953 Q215.5313,481.125 215.5313,479.8438 L215.5313,478.6875 Q215.5313,477.3594 216.1484,476.2109 Q216.7656,475.0625 217.8594,474.4453 Q218.9531,473.8281 220.1875,473.8281 Q220.9219,473.8281 221.5703,473.9922 Q222.2188,474.1563 222.7656,474.5156 Z "/><text fill="#000000" font-family="sans-serif" font-size="12" lengthAdjust="spacingAndGlyphs" textLength="43" x="234" y="483.5508">Calidad</text><line style="stroke: #A80036; stroke-width: 1.5;" x1="206" x2="279" y1="494.6406" y2="494.6406"/><line style="stroke: #A80036; stroke-width: 1.5;" x1="206" x2="279" y1="502.6406" y2="502.6406"/><!--class Mantenibilidad--><rect fill="#6495ED" filter="url(#f7t4jerrh1gh7)" height="48" id="Mantenibilidad" style="stroke: #A80036; stroke-width: 1.5;" width="112" x="186.5" y="570.6406"/><rect fill="#6495ED" height="32" style="stroke: #A80036; stroke-width: 1.5;" width="112" x="186.5" y="570.6406"/><ellipse cx="201.5" cy="586.6406" fill="#ADD1B2" rx="11" ry="11" style="stroke: #A80036; stroke-width: 1.0;"/><path d="M204.2656,582.5156 Q204.4219,582.2969 204.6094,582.1875 Q204.7969,582.0781 205.0156,582.0781 Q205.3906,582.0781 205.625,582.3359 Q205.8594,582.5938 205.8594,583.2031 L205.8594,584.6563 Q205.8594,585.2656 205.625,585.5313 Q205.3906,585.7969 205.0156,585.7969 Q204.6719,585.7969 204.4688,585.5938 Q204.2656,585.4063 204.1563,584.8906 Q204.1094,584.5313 203.9219,584.3438 Q203.5938,583.9688 202.9844,583.75 Q202.375,583.5313 201.75,583.5313 Q200.9844,583.5313 200.3516,583.8594 Q199.7188,584.1875 199.2266,584.9375 Q198.7344,585.6875 198.7344,586.7188 L198.7344,587.8125 Q198.7344,589.0469 199.625,589.8672 Q200.5156,590.6875 202.1094,590.6875 Q203.0469,590.6875 203.7031,590.4375 Q204.0938,590.2813 204.5156,589.8438 Q204.7813,589.5781 204.9297,589.5 Q205.0781,589.4219 205.2813,589.4219 Q205.6094,589.4219 205.8672,589.6797 Q206.125,589.9375 206.125,590.2813 Q206.125,590.625 205.7813,591.0313 Q205.2813,591.6094 204.4844,591.9375 Q203.4063,592.3906 202.1094,592.3906 Q200.5938,592.3906 199.3906,591.7656 Q198.4063,591.2656 197.7188,590.1953 Q197.0313,589.125 197.0313,587.8438 L197.0313,586.6875 Q197.0313,585.3594 197.6484,584.2109 Q198.2656,583.0625 199.3594,582.4453 Q200.4531,581.8281 201.6875,581.8281 Q202.4219,581.8281 203.0703,581.9922 Q203.7188,582.1563 204.2656,582.5156 Z "/><text fill="#000000" font-family="sans-serif" font-size="12" lengthAdjust="spacingAndGlyphs" textLength="80" x="215.5" y="591.5508">Mantenibilidad</text><line style="stroke: #A80036; stroke-width: 1.5;" x1="187.5" x2="297.5" y1="602.6406" y2="602.6406"/><line style="stroke: #A80036; stroke-width: 1.5;" x1="187.5" x2="297.5" y1="610.6406" y2="610.6406"/><!--class Eficacia--><rect fill="#FFA500" filter="url(#f7t4jerrh1gh7)" height="48" id="Eficacia" style="stroke: #A80036; stroke-width: 1.5;" width="75" x="367" y="246.6406"/><rect fill="#FFA500" height="32" style="stroke: #A80036; stroke-width: 1.5;" width="75" x="367" y="246.6406"/><ellipse cx="382" cy="262.6406" fill="#ADD1B2" rx="11" ry="11" style="stroke: #A80036; stroke-width: 1.0;"/><path d="M384.7656,258.5156 Q384.9219,258.2969 385.1094,258.1875 Q385.2969,258.0781 385.5156,258.0781 Q385.8906,258.0781 386.125,258.3359 Q386.3594,258.5938 386.3594,259.2031 L386.3594,260.6563 Q386.3594,261.2656 386.125,261.5313 Q385.8906,261.7969 385.5156,261.7969 Q385.1719,261.7969 384.9688,261.5938 Q384.7656,261.4063 384.6563,260.8906 Q384.6094,260.5313 384.4219,260.3438 Q384.0938,259.9688 383.4844,259.75 Q382.875,259.5313 382.25,259.5313 Q381.4844,259.5313 380.8516,259.8594 Q380.2188,260.1875 379.7266,260.9375 Q379.2344,261.6875 379.2344,262.7188 L379.2344,263.8125 Q379.2344,265.0469 380.125,265.8672 Q381.0156,266.6875 382.6094,266.6875 Q383.5469,266.6875 384.2031,266.4375 Q384.5938,266.2813 385.0156,265.8438 Q385.2813,265.5781 385.4297,265.5 Q385.5781,265.4219 385.7813,265.4219 Q386.1094,265.4219 386.3672,265.6797 Q386.625,265.9375 386.625,266.2813 Q386.625,266.625 386.2813,267.0313 Q385.7813,267.6094 384.9844,267.9375 Q383.9063,268.3906 382.6094,268.3906 Q381.0938,268.3906 379.8906,267.7656 Q378.9063,267.2656 378.2188,266.1953 Q377.5313,265.125 377.5313,263.8438 L377.5313,262.6875 Q377.5313,261.3594 378.1484,260.2109 Q378.7656,259.0625 379.8594,258.4453 Q380.9531,257.8281 382.1875,257.8281 Q382.9219,257.8281 383.5703,257.9922 Q384.2188,258.1563 384.7656,258.5156 Z "/><text fill="#000000" font-family="sans-serif" font-size="12" lengthAdjust="spacingAndGlyphs" textLength="43" x="396" y="267.5508">Eficacia</text><line style="stroke: #A80036; stroke-width: 1.5;" x1="368" x2="441" y1="278.6406" y2="278.6406"/><line style="stroke: #A80036; stroke-width: 1.5;" x1="368" x2="441" y1="286.6406" y2="286.6406"/><!--class Eficiencia--><rect fill="#FFA500" filter="url(#f7t4jerrh1gh7)" height="48" id="Eficiencia" style="stroke: #A80036; stroke-width: 1.5;" width="85" x="124" y="246.6406"/><rect fill="#FFA500" height="32" style="stroke: #A80036; stroke-width: 1.5;" width="85" x="124" y="246.6406"/><ellipse cx="139" cy="262.6406" fill="#ADD1B2" rx="11" ry="11" style="stroke: #A80036; stroke-width: 1.0;"/><path d="M141.7656,258.5156 Q141.9219,258.2969 142.1094,258.1875 Q142.2969,258.0781 142.5156,258.0781 Q142.8906,258.0781 143.125,258.3359 Q143.3594,258.5938 143.3594,259.2031 L143.3594,260.6563 Q143.3594,261.2656 143.125,261.5313 Q142.8906,261.7969 142.5156,261.7969 Q142.1719,261.7969 141.9688,261.5938 Q141.7656,261.4063 141.6563,260.8906 Q141.6094,260.5313 141.4219,260.3438 Q141.0938,259.9688 140.4844,259.75 Q139.875,259.5313 139.25,259.5313 Q138.4844,259.5313 137.8516,259.8594 Q137.2188,260.1875 136.7266,260.9375 Q136.2344,261.6875 136.2344,262.7188 L136.2344,263.8125 Q136.2344,265.0469 137.125,265.8672 Q138.0156,266.6875 139.6094,266.6875 Q140.5469,266.6875 141.2031,266.4375 Q141.5938,266.2813 142.0156,265.8438 Q142.2813,265.5781 142.4297,265.5 Q142.5781,265.4219 142.7813,265.4219 Q143.1094,265.4219 143.3672,265.6797 Q143.625,265.9375 143.625,266.2813 Q143.625,266.625 143.2813,267.0313 Q142.7813,267.6094 141.9844,267.9375 Q140.9063,268.3906 139.6094,268.3906 Q138.0938,268.3906 136.8906,267.7656 Q135.9063,267.2656 135.2188,266.1953 Q134.5313,265.125 134.5313,263.8438 L134.5313,262.6875 Q134.5313,261.3594 135.1484,260.2109 Q135.7656,259.0625 136.8594,258.4453 Q137.9531,257.8281 139.1875,257.8281 Q139.9219,257.8281 140.5703,257.9922 Q141.2188,258.1563 141.7656,258.5156 Z "/><text fill="#000000" font-family="sans-serif" font-size="12" lengthAdjust="spacingAndGlyphs" textLength="53" x="153" y="267.5508">Eficiencia</text><line style="stroke: #A80036; stroke-width: 1.5;" x1="125" x2="208" y1="278.6406" y2="278.6406"/><line style="stroke: #A80036; stroke-width: 1.5;" x1="125" x2="208" y1="286.6406" y2="286.6406"/><!--class Ambito--><rect fill="#0000FF" filter="url(#f7t4jerrh1gh7)" height="48" id="Ambito" style="stroke: #A80036; stroke-width: 1.5;" width="70" x="381.5" y="354.6406"/><rect fill="#0000FF" height="32" style="stroke: #A80036; stroke-width: 1.5;" width="70" x="381.5" y="354.6406"/><ellipse cx="396.5" cy="370.6406" fill="#ADD1B2" rx="11" ry="11" style="stroke: #A80036; stroke-width: 1.0;"/><path d="M399.2656,366.5156 Q399.4219,366.2969 399.6094,366.1875 Q399.7969,366.0781 400.0156,366.0781 Q400.3906,366.0781 400.625,366.3359 Q400.8594,366.5938 400.8594,367.2031 L400.8594,368.6563 Q400.8594,369.2656 400.625,369.5313 Q400.3906,369.7969 400.0156,369.7969 Q399.6719,369.7969 399.4688,369.5938 Q399.2656,369.4063 399.1563,368.8906 Q399.1094,368.5313 398.9219,368.3438 Q398.5938,367.9688 397.9844,367.75 Q397.375,367.5313 396.75,367.5313 Q395.9844,367.5313 395.3516,367.8594 Q394.7188,368.1875 394.2266,368.9375 Q393.7344,369.6875 393.7344,370.7188 L393.7344,371.8125 Q393.7344,373.0469 394.625,373.8672 Q395.5156,374.6875 397.1094,374.6875 Q398.0469,374.6875 398.7031,374.4375 Q399.0938,374.2813 399.5156,373.8438 Q399.7813,373.5781 399.9297,373.5 Q400.0781,373.4219 400.2813,373.4219 Q400.6094,373.4219 400.8672,373.6797 Q401.125,373.9375 401.125,374.2813 Q401.125,374.625 400.7813,375.0313 Q400.2813,375.6094 399.4844,375.9375 Q398.4063,376.3906 397.1094,376.3906 Q395.5938,376.3906 394.3906,375.7656 Q393.4063,375.2656 392.7188,374.1953 Q392.0313,373.125 392.0313,371.8438 L392.0313,370.6875 Q392.0313,369.3594 392.6484,368.2109 Q393.2656,367.0625 394.3594,366.4453 Q395.4531,365.8281 396.6875,365.8281 Q397.4219,365.8281 398.0703,365.9922 Q398.7188,366.1563 399.2656,366.5156 Z "/><text fill="#000000" font-family="sans-serif" font-size="12" lengthAdjust="spacingAndGlyphs" textLength="38" x="410.5" y="375.5508">Ambito</text><line style="stroke: #A80036; stroke-width: 1.5;" x1="382.5" x2="450.5" y1="386.6406" y2="386.6406"/><line style="stroke: #A80036; stroke-width: 1.5;" x1="382.5" x2="450.5" y1="394.6406" y2="394.6406"/><!--class Tiempo--><rect fill="#0000FF" filter="url(#f7t4jerrh1gh7)" height="48" id="Tiempo" style="stroke: #A80036; stroke-width: 1.5;" width="74" x="100.5" y="354.6406"/><rect fill="#0000FF" height="32" style="stroke: #A80036; stroke-width: 1.5;" width="74" x="100.5" y="354.6406"/><ellipse cx="115.5" cy="370.6406" fill="#ADD1B2" rx="11" ry="11" style="stroke: #A80036; stroke-width: 1.0;"/><path d="M118.2656,366.5156 Q118.4219,366.2969 118.6094,366.1875 Q118.7969,366.0781 119.0156,366.0781 Q119.3906,366.0781 119.625,366.3359 Q119.8594,366.5938 119.8594,367.2031 L119.8594,368.6563 Q119.8594,369.2656 119.625,369.5313 Q119.3906,369.7969 119.0156,369.7969 Q118.6719,369.7969 118.4688,369.5938 Q118.2656,369.4063 118.1563,368.8906 Q118.1094,368.5313 117.9219,368.3438 Q117.5938,367.9688 116.9844,367.75 Q116.375,367.5313 115.75,367.5313 Q114.9844,367.5313 114.3516,367.8594 Q113.7188,368.1875 113.2266,368.9375 Q112.7344,369.6875 112.7344,370.7188 L112.7344,371.8125 Q112.7344,373.0469 113.625,373.8672 Q114.5156,374.6875 116.1094,374.6875 Q117.0469,374.6875 117.7031,374.4375 Q118.0938,374.2813 118.5156,373.8438 Q118.7813,373.5781 118.9297,373.5 Q119.0781,373.4219 119.2813,373.4219 Q119.6094,373.4219 119.8672,373.6797 Q120.125,373.9375 120.125,374.2813 Q120.125,374.625 119.7813,375.0313 Q119.2813,375.6094 118.4844,375.9375 Q117.4063,376.3906 116.1094,376.3906 Q114.5938,376.3906 113.3906,375.7656 Q112.4063,375.2656 111.7188,374.1953 Q111.0313,373.125 111.0313,371.8438 L111.0313,370.6875 Q111.0313,369.3594 111.6484,368.2109 Q112.2656,367.0625 113.3594,366.4453 Q114.4531,365.8281 115.6875,365.8281 Q116.4219,365.8281 117.0703,365.9922 Q117.7188,366.1563 118.2656,366.5156 Z "/><text fill="#000000" font-family="sans-serif" font-size="12" lengthAdjust="spacingAndGlyphs" textLength="42" x="129.5" y="375.5508">Tiempo</text><line style="stroke: #A80036; stroke-width: 1.5;" x1="101.5" x2="173.5" y1="386.6406" y2="386.6406"/><line style="stroke: #A80036; stroke-width: 1.5;" x1="101.5" x2="173.5" y1="394.6406" y2="394.6406"/><!--class Coste--><rect fill="#0000FF" filter="url(#f7t4jerrh1gh7)" height="48" id="Coste" style="stroke: #A80036; stroke-width: 1.5;" width="65" x="210" y="354.6406"/><rect fill="#0000FF" height="32" style="stroke: #A80036; stroke-width: 1.5;" width="65" x="210" y="354.6406"/><ellipse cx="225" cy="370.6406" fill="#ADD1B2" rx="11" ry="11" style="stroke: #A80036; stroke-width: 1.0;"/><path d="M227.7656,366.5156 Q227.9219,366.2969 228.1094,366.1875 Q228.2969,366.0781 228.5156,366.0781 Q228.8906,366.0781 229.125,366.3359 Q229.3594,366.5938 229.3594,367.2031 L229.3594,368.6563 Q229.3594,369.2656 229.125,369.5313 Q228.8906,369.7969 228.5156,369.7969 Q228.1719,369.7969 227.9688,369.5938 Q227.7656,369.4063 227.6563,368.8906 Q227.6094,368.5313 227.4219,368.3438 Q227.0938,367.9688 226.4844,367.75 Q225.875,367.5313 225.25,367.5313 Q224.4844,367.5313 223.8516,367.8594 Q223.2188,368.1875 222.7266,368.9375 Q222.2344,369.6875 222.2344,370.7188 L222.2344,371.8125 Q222.2344,373.0469 223.125,373.8672 Q224.0156,374.6875 225.6094,374.6875 Q226.5469,374.6875 227.2031,374.4375 Q227.5938,374.2813 228.0156,373.8438 Q228.2813,373.5781 228.4297,373.5 Q228.5781,373.4219 228.7813,373.4219 Q229.1094,373.4219 229.3672,373.6797 Q229.625,373.9375 229.625,374.2813 Q229.625,374.625 229.2813,375.0313 Q228.7813,375.6094 227.9844,375.9375 Q226.9063,376.3906 225.6094,376.3906 Q224.0938,376.3906 222.8906,375.7656 Q221.9063,375.2656 221.2188,374.1953 Q220.5313,373.125 220.5313,371.8438 L220.5313,370.6875 Q220.5313,369.3594 221.1484,368.2109 Q221.7656,367.0625 222.8594,366.4453 Q223.9531,365.8281 225.1875,365.8281 Q225.9219,365.8281 226.5703,365.9922 Q227.2188,366.1563 227.7656,366.5156 Z "/><text fill="#000000" font-family="sans-serif" font-size="12" lengthAdjust="spacingAndGlyphs" textLength="33" x="239" y="375.5508">Coste</text><line style="stroke: #A80036; stroke-width: 1.5;" x1="211" x2="274" y1="386.6406" y2="386.6406"/><line style="stroke: #A80036; stroke-width: 1.5;" x1="211" x2="274" y1="394.6406" y2="394.6406"/><!--link ProyectoSoftware to ProductoSoftware--><path d="M188.558,85.7976 C166.368,100.0526 139.934,117.0346 117.71,131.3116 " fill="none" id="ProyectoSoftware-ProductoSoftware" style="stroke: #A80036; stroke-width: 1.0;"/><polygon fill="#A80036" points="106.517,138.5026,116.251,137.003,110.7236,135.7999,111.9266,130.2724,106.517,138.5026" style="stroke: #A80036; stroke-width: 1.0;"/><line style="stroke: #A80036; stroke-width: 1.0;" x1="110.7236" x2="117.4545" y1="135.7999" y2="131.4756"/><polygon fill="#A80036" points="199.697,78.6406,192.4869,78.518,189.6006,85.1262,196.8107,85.2489,199.697,78.6406" style="stroke: #A80036; stroke-width: 1.0;"/><!--link ProyectoSoftware to Variable--><path d="M243.463,91.8986 C252.128,131.3496 265.897,194.0456 274.555,233.4646 " fill="none" id="ProyectoSoftware-Variable" style="stroke: #A80036; stroke-width: 1.0;"/><polygon fill="#A80036" points="277.387,246.3606,279.3633,236.7121,276.3145,241.477,271.5495,238.4282,277.387,246.3606" style="stroke: #A80036; stroke-width: 1.0;"/><line style="stroke: #A80036; stroke-width: 1.0;" x1="276.3145" x2="274.598" y1="241.477" y2="233.6626"/><polygon fill="#A80036" points="240.619,78.9496,237.9999,85.6683,243.1944,90.67,245.8135,83.9514,240.619,78.9496" style="stroke: #A80036; stroke-width: 1.0;"/><!--link ProyectoSoftware to Efectividad--><path d="M265.971,88.2666 C277.9,101.0386 291.568,115.6726 303.543,128.4946 " fill="none" id="ProyectoSoftware-Efectividad" style="stroke: #A80036; stroke-width: 1.0;"/><polygon fill="#A80036" points="312.719,138.3186,309.4991,129.011,309.3061,134.6645,303.6526,134.4716,312.719,138.3186" style="stroke: #A80036; stroke-width: 1.0;"/><line style="stroke: #A80036; stroke-width: 1.0;" x1="309.3061" x2="303.845" y1="134.6645" y2="128.8181"/><polygon fill="#A80036" points="256.982,78.6406,258.1542,85.7558,265.1729,87.4104,264.0007,80.2952,256.982,78.6406" style="stroke: #A80036; stroke-width: 1.0;"/><!--link ProductoSoftware to Calidad--><path d="M61.9184,199.9226 C52.2612,249.8726 42.6692,340.6646 82.5,402.6406 C107.017,440.7896 155.047,462.3446 192.114,473.8676 " fill="none" id="ProductoSoftware-Calidad" style="stroke: #A80036; stroke-width: 1.0;"/><polygon fill="#A80036" points="204.711,477.5366,197.1881,471.18,199.9104,476.1388,194.9516,478.861,204.711,477.5366" style="stroke: #A80036; stroke-width: 1.0;"/><line style="stroke: #A80036; stroke-width: 1.0;" x1="199.9104" x2="192.23" y1="476.1388" y2="473.9021"/><polygon fill="#A80036" points="64.6029,186.9746,59.4683,192.0379,62.1673,198.7248,67.3018,193.6616,64.6029,186.9746" style="stroke: #A80036; stroke-width: 1.0;"/><!--link Calidad to Mantenibilidad--><path d="M242.5,523.9789 C242.5,534.647 242.5,546.3178 242.5,557.0044 " fill="none" id="Calidad-Mantenibilidad" style="stroke: #A80036; stroke-width: 1.0;"/><polygon fill="#A80036" points="242.5,570.319,246.5,561.319,242.5,565.319,238.5,561.319,242.5,570.319" style="stroke: #A80036; stroke-width: 1.0;"/><line style="stroke: #A80036; stroke-width: 1.0;" x1="242.5" x2="242.5" y1="565.319" y2="557.3191"/><polygon fill="#A80036" points="242.5,510.6406,238.5,516.6406,242.5,522.6406,246.5,516.6406,242.5,510.6406" style="stroke: #A80036; stroke-width: 1.0;"/><!--link Efectividad to Eficacia--><path d="M356.957,197.6476 C364.908,209.6866 373.854,223.2336 381.822,235.3006 " fill="none" id="Efectividad-Eficacia" style="stroke: #A80036; stroke-width: 1.0;"/><polygon fill="#A80036" points="389.099,246.3186,387.4772,236.6042,386.3437,242.1463,380.8015,241.0128,389.099,246.3186" style="stroke: #A80036; stroke-width: 1.0;"/><line style="stroke: #A80036; stroke-width: 1.0;" x1="386.3437" x2="381.935" y1="242.1463" y2="235.4711"/><polygon fill="#A80036" points="349.689,186.6406,349.6576,193.8517,356.3018,196.6541,356.3333,189.4431,349.689,186.6406" style="stroke: #A80036; stroke-width: 1.0;"/><!--link Efectividad to Eficiencia--><path d="M286.705,193.7976 C264.008,208.1176 236.95,225.1906 214.258,239.5076 " fill="none" id="Efectividad-Eficiencia" style="stroke: #A80036; stroke-width: 1.0;"/><polygon fill="#A80036" points="203.172,246.5026,212.9181,245.0837,207.4008,243.8349,208.6497,238.3176,203.172,246.5026" style="stroke: #A80036; stroke-width: 1.0;"/><line style="stroke: #A80036; stroke-width: 1.0;" x1="207.4008" x2="214.1665" y1="243.8349" y2="239.5656"/><polygon fill="#A80036" points="298.047,186.6406,290.8382,186.4591,287.898,193.0436,295.1068,193.2251,298.047,186.6406" style="stroke: #A80036; stroke-width: 1.0;"/><!--link Eficacia to Ambito--><path d="M407.104,294.6406 C408.915,310.6436 411.343,332.0866 413.277,349.1686 " fill="none" id="Eficacia-Ambito" style="stroke: #A80036; stroke-width: 1.0;"/><polygon fill="#A80036" points="413.86,354.3186,416.8215,344.9256,413.2972,349.3504,408.8724,345.8261,413.86,354.3186" style="stroke: #A80036; stroke-width: 1.0;"/><!--link Eficiencia to Tiempo--><path d="M160.207,294.6406 C155.829,310.6436 149.963,332.0866 145.29,349.1686 " fill="none" id="Eficiencia-Tiempo" style="stroke: #A80036; stroke-width: 1.0;"/><polygon fill="#A80036" points="143.88,354.3186,150.1119,346.6921,145.1986,349.4956,142.3951,344.5823,143.88,354.3186" style="stroke: #A80036; stroke-width: 1.0;"/><!--link Eficiencia to Coste--><path d="M182.991,294.6406 C194.662,310.9196 210.37,332.8276 222.717,350.0486 " fill="none" id="Eficiencia-Coste" style="stroke: #A80036; stroke-width: 1.0;"/><polygon fill="#A80036" points="225.779,354.3186,223.7852,344.6737,222.8654,350.2553,217.2838,349.3355,225.779,354.3186" style="stroke: #A80036; stroke-width: 1.0;"/><!--link Variable to Tiempo--><path d="M234.652,306.6196 C213.128,322.3536 188.314,340.4936 169.151,354.5026 " fill="none" id="Variable-Tiempo" style="stroke: #A80036; stroke-width: 1.0;"/><polygon fill="none" points="230.76,300.7936,251.037,294.6406,239.022,312.0956,230.76,300.7936" style="stroke: #A80036; stroke-width: 1.0;"/><!--link Variable to Ambito--><path d="M327.548,307.2756 C347.158,322.7876 369.588,340.5306 387.018,354.3186 " fill="none" id="Variable-Ambito" style="stroke: #A80036; stroke-width: 1.0;"/><polygon fill="none" points="322.919,312.5396,311.576,294.6406,331.605,301.5596,322.919,312.5396" style="stroke: #A80036; stroke-width: 1.0;"/><!--link Variable to Coste--><path d="M266.629,313.6976 C261.41,327.5296 255.798,342.4016 251.301,354.3186 " fill="none" id="Variable-Coste" style="stroke: #A80036; stroke-width: 1.0;"/><polygon fill="none" points="260.21,310.8816,273.821,294.6406,273.309,315.8246,260.21,310.8816" style="stroke: #A80036; stroke-width: 1.0;"/><!--link Variable to Calidad--><path d="M293.104,314.5636 C297.718,340.4956 300.469,373.9686 292.5,402.6406 C286.373,424.6836 272.645,446.7306 261.121,462.5566 " fill="none" id="Variable-Calidad" style="stroke: #A80036; stroke-width: 1.0;"/><polygon fill="none" points="286.218,315.8326,288.984,294.8236,299.923,312.9726,286.218,315.8326" style="stroke: #A80036; stroke-width: 1.0;"/><!--link Tiempo to Calidad--><path d="M160.283,402.6406 C176.545,419.0576 198.478,441.1996 215.601,458.4846 " fill="none" id="Tiempo-Calidad" style="stroke: #A80036; stroke-width: 1.0;"/><polygon fill="#A80036" points="219.398,462.3186,215.9071,453.1092,215.8796,458.766,210.2229,458.7386,219.398,462.3186" style="stroke: #A80036; stroke-width: 1.0;"/><!--link Ambito to Calidad--><path d="M381.289,401.0916 C353.273,418.1586 313.991,442.0886 284.366,460.1356 " fill="none" id="Ambito-Calidad" style="stroke: #A80036; stroke-width: 1.0;"/><polygon fill="#A80036" points="280.068,462.7546,289.8354,461.4904,284.3386,460.1543,285.6748,454.6575,280.068,462.7546" style="stroke: #A80036; stroke-width: 1.0;"/><!--link Coste to Calidad--><path d="M242.5,402.6406 C242.5,418.6436 242.5,440.0866 242.5,457.1686 " fill="none" id="Coste-Calidad" style="stroke: #A80036; stroke-width: 1.0;"/><polygon fill="#A80036" points="242.5,462.3186,246.5,453.3186,242.5,457.3186,238.5,453.3186,242.5,462.3186" style="stroke: #A80036; stroke-width: 1.0;"/><!--
@startuml

title Variables de un Proyecto Software

class "Proyecto Software" as ProyectoSoftware #GreenYellow
ProyectoSoftware *-down-> ProductoSoftware
ProyectoSoftware *-down-> Variable
ProyectoSoftware *-down-> Efectividad

class "Producto Software" as ProductoSoftware #GreenYellow
ProductoSoftware *-down-> Calidad

class Calidad #CornflowerBlue
Calidad *-down-> Mantenibilidad

class Mantenibilidad #CornflowerBlue

class Efectividad #orange
class Eficacia #orange
class Eficiencia #orange
Efectividad *-down-> Eficacia
Efectividad *-down-> Eficiencia

Eficacia -down-> Ambito
Eficiencia -down-> Tiempo
Eficiencia -down-> Coste

class Variable #blue
class Tiempo #blue
class "Ámbito" as Ambito #blue
class Coste #blue

Variable <|-down- Tiempo
Variable <|-down- Ambito
Variable <|-down- Coste
Variable <|-down- Calidad

Tiempo -down-> Calidad
Ambito -down-> Calidad
Coste -down-> Calidad

@enduml

PlantUML version 1.2019.05(Sat Apr 20 18:45:36 CEST 2019)
(GPL source distribution)
Java Runtime: Java(TM) SE Runtime Environment
JVM: Java HotSpot(TM) 64-Bit Server VM
Java Version: 1.8.0_211-b12
Operating System: Windows 10
OS Version: 10.0
Default Encoding: windows-1252
Language: es
Country: ES
--></g></svg>