<?xml version="1.0" encoding="UTF-8" standalone="no"?><svg xmlns="http://www.w3.org/2000/svg" xmlns:xlink="http://www.w3.org/1999/xlink" contentScriptType="application/ecmascript" contentStyleType="text/css" height="607px" preserveAspectRatio="none" style="width:676px;height:607px;" version="1.1" viewBox="0 0 676 607" width="676px" zoomAndPan="magnify"><defs><filter height="300%" id="f13vi2g4c3dh1x" width="300%" x="-1" y="-1"><feGaussianBlur result="blurOut" stdDeviation="2.0"/><feColorMatrix in="blurOut" result="blurOut2" type="matrix" values="0 0 0 0 0 0 0 0 0 0 0 0 0 0 0 0 0 0 .4 0"/><feOffset dx="4.0" dy="4.0" in="blurOut2" result="blurOut3"/><feBlend in="SourceGraphic" in2="blurOut3" mode="normal"/></filter></defs><g><!--class ProductoSoftware--><rect fill="#FEFECE" filter="url(#f13vi2g4c3dh1x)" height="48" id="ProductoSoftware" style="stroke: #A80036; stroke-width: 1.5;" width="132" x="277" y="116"/><ellipse cx="292" cy="132" fill="#ADD1B2" rx="11" ry="11" style="stroke: #A80036; stroke-width: 1.0;"/><path d="M294.7656,127.875 Q294.9219,127.6563 295.1094,127.5469 Q295.2969,127.4375 295.5156,127.4375 Q295.8906,127.4375 296.125,127.6953 Q296.3594,127.9531 296.3594,128.5625 L296.3594,130.0156 Q296.3594,130.625 296.125,130.8906 Q295.8906,131.1563 295.5156,131.1563 Q295.1719,131.1563 294.9688,130.9531 Q294.7656,130.7656 294.6563,130.25 Q294.6094,129.8906 294.4219,129.7031 Q294.0938,129.3281 293.4844,129.1094 Q292.875,128.8906 292.25,128.8906 Q291.4844,128.8906 290.8516,129.2188 Q290.2188,129.5469 289.7266,130.2969 Q289.2344,131.0469 289.2344,132.0781 L289.2344,133.1719 Q289.2344,134.4063 290.125,135.2266 Q291.0156,136.0469 292.6094,136.0469 Q293.5469,136.0469 294.2031,135.7969 Q294.5938,135.6406 295.0156,135.2031 Q295.2813,134.9375 295.4297,134.8594 Q295.5781,134.7813 295.7813,134.7813 Q296.1094,134.7813 296.3672,135.0391 Q296.625,135.2969 296.625,135.6406 Q296.625,135.9844 296.2813,136.3906 Q295.7813,136.9688 294.9844,137.2969 Q293.9063,137.75 292.6094,137.75 Q291.0938,137.75 289.8906,137.125 Q288.9063,136.625 288.2188,135.5547 Q287.5313,134.4844 287.5313,133.2031 L287.5313,132.0469 Q287.5313,130.7188 288.1484,129.5703 Q288.7656,128.4219 289.8594,127.8047 Q290.9531,127.1875 292.1875,127.1875 Q292.9219,127.1875 293.5703,127.3516 Q294.2188,127.5156 294.7656,127.875 Z "/><text fill="#000000" font-family="sans-serif" font-size="12" lengthAdjust="spacingAndGlyphs" textLength="100" x="306" y="136.9102">Producto Software</text><line style="stroke: #A80036; stroke-width: 1.5;" x1="278" x2="408" y1="148" y2="148"/><line style="stroke: #A80036; stroke-width: 1.5;" x1="278" x2="408" y1="156" y2="156"/><!--class Calidad--><rect fill="#0000FF" filter="url(#f13vi2g4c3dh1x)" height="48" id="Calidad" style="stroke: #A80036; stroke-width: 1.5;" width="75" x="305.5" y="224"/><rect fill="#0000FF" height="32" style="stroke: #A80036; stroke-width: 1.5;" width="75" x="305.5" y="224"/><ellipse cx="320.5" cy="240" fill="#ADD1B2" rx="11" ry="11" style="stroke: #A80036; stroke-width: 1.0;"/><path d="M323.2656,235.875 Q323.4219,235.6563 323.6094,235.5469 Q323.7969,235.4375 324.0156,235.4375 Q324.3906,235.4375 324.625,235.6953 Q324.8594,235.9531 324.8594,236.5625 L324.8594,238.0156 Q324.8594,238.625 324.625,238.8906 Q324.3906,239.1563 324.0156,239.1563 Q323.6719,239.1563 323.4688,238.9531 Q323.2656,238.7656 323.1563,238.25 Q323.1094,237.8906 322.9219,237.7031 Q322.5938,237.3281 321.9844,237.1094 Q321.375,236.8906 320.75,236.8906 Q319.9844,236.8906 319.3516,237.2188 Q318.7188,237.5469 318.2266,238.2969 Q317.7344,239.0469 317.7344,240.0781 L317.7344,241.1719 Q317.7344,242.4063 318.625,243.2266 Q319.5156,244.0469 321.1094,244.0469 Q322.0469,244.0469 322.7031,243.7969 Q323.0938,243.6406 323.5156,243.2031 Q323.7813,242.9375 323.9297,242.8594 Q324.0781,242.7813 324.2813,242.7813 Q324.6094,242.7813 324.8672,243.0391 Q325.125,243.2969 325.125,243.6406 Q325.125,243.9844 324.7813,244.3906 Q324.2813,244.9688 323.4844,245.2969 Q322.4063,245.75 321.1094,245.75 Q319.5938,245.75 318.3906,245.125 Q317.4063,244.625 316.7188,243.5547 Q316.0313,242.4844 316.0313,241.2031 L316.0313,240.0469 Q316.0313,238.7188 316.6484,237.5703 Q317.2656,236.4219 318.3594,235.8047 Q319.4531,235.1875 320.6875,235.1875 Q321.4219,235.1875 322.0703,235.3516 Q322.7188,235.5156 323.2656,235.875 Z "/><text fill="#000000" font-family="sans-serif" font-size="12" lengthAdjust="spacingAndGlyphs" textLength="43" x="334.5" y="244.9102">Calidad</text><line style="stroke: #A80036; stroke-width: 1.5;" x1="306.5" x2="379.5" y1="256" y2="256"/><line style="stroke: #A80036; stroke-width: 1.5;" x1="306.5" x2="379.5" y1="264" y2="264"/><!--class Efectividad--><rect fill="#FFA500" filter="url(#f13vi2g4c3dh1x)" height="48" id="Efectividad" style="stroke: #A80036; stroke-width: 1.5;" width="91" x="347.5" y="332"/><rect fill="#FFA500" height="32" style="stroke: #A80036; stroke-width: 1.5;" width="91" x="347.5" y="332"/><ellipse cx="362.5" cy="348" fill="#ADD1B2" rx="11" ry="11" style="stroke: #A80036; stroke-width: 1.0;"/><path d="M365.2656,343.875 Q365.4219,343.6563 365.6094,343.5469 Q365.7969,343.4375 366.0156,343.4375 Q366.3906,343.4375 366.625,343.6953 Q366.8594,343.9531 366.8594,344.5625 L366.8594,346.0156 Q366.8594,346.625 366.625,346.8906 Q366.3906,347.1563 366.0156,347.1563 Q365.6719,347.1563 365.4688,346.9531 Q365.2656,346.7656 365.1563,346.25 Q365.1094,345.8906 364.9219,345.7031 Q364.5938,345.3281 363.9844,345.1094 Q363.375,344.8906 362.75,344.8906 Q361.9844,344.8906 361.3516,345.2188 Q360.7188,345.5469 360.2266,346.2969 Q359.7344,347.0469 359.7344,348.0781 L359.7344,349.1719 Q359.7344,350.4063 360.625,351.2266 Q361.5156,352.0469 363.1094,352.0469 Q364.0469,352.0469 364.7031,351.7969 Q365.0938,351.6406 365.5156,351.2031 Q365.7813,350.9375 365.9297,350.8594 Q366.0781,350.7813 366.2813,350.7813 Q366.6094,350.7813 366.8672,351.0391 Q367.125,351.2969 367.125,351.6406 Q367.125,351.9844 366.7813,352.3906 Q366.2813,352.9688 365.4844,353.2969 Q364.4063,353.75 363.1094,353.75 Q361.5938,353.75 360.3906,353.125 Q359.4063,352.625 358.7188,351.5547 Q358.0313,350.4844 358.0313,349.2031 L358.0313,348.0469 Q358.0313,346.7188 358.6484,345.5703 Q359.2656,344.4219 360.3594,343.8047 Q361.4531,343.1875 362.6875,343.1875 Q363.4219,343.1875 364.0703,343.3516 Q364.7188,343.5156 365.2656,343.875 Z "/><text fill="#000000" font-family="sans-serif" font-size="12" lengthAdjust="spacingAndGlyphs" textLength="59" x="376.5" y="352.9102">Efectividad</text><line style="stroke: #A80036; stroke-width: 1.5;" x1="348.5" x2="437.5" y1="364" y2="364"/><line style="stroke: #A80036; stroke-width: 1.5;" x1="348.5" x2="437.5" y1="372" y2="372"/><!--class Mantenibilidad--><rect fill="#FEFECE" filter="url(#f13vi2g4c3dh1x)" height="48" id="Mantenibilidad" style="stroke: #A80036; stroke-width: 1.5;" width="112" x="468" y="440"/><ellipse cx="483" cy="456" fill="#ADD1B2" rx="11" ry="11" style="stroke: #A80036; stroke-width: 1.0;"/><path d="M485.7656,451.875 Q485.9219,451.6563 486.1094,451.5469 Q486.2969,451.4375 486.5156,451.4375 Q486.8906,451.4375 487.125,451.6953 Q487.3594,451.9531 487.3594,452.5625 L487.3594,454.0156 Q487.3594,454.625 487.125,454.8906 Q486.8906,455.1563 486.5156,455.1563 Q486.1719,455.1563 485.9688,454.9531 Q485.7656,454.7656 485.6563,454.25 Q485.6094,453.8906 485.4219,453.7031 Q485.0938,453.3281 484.4844,453.1094 Q483.875,452.8906 483.25,452.8906 Q482.4844,452.8906 481.8516,453.2188 Q481.2188,453.5469 480.7266,454.2969 Q480.2344,455.0469 480.2344,456.0781 L480.2344,457.1719 Q480.2344,458.4063 481.125,459.2266 Q482.0156,460.0469 483.6094,460.0469 Q484.5469,460.0469 485.2031,459.7969 Q485.5938,459.6406 486.0156,459.2031 Q486.2813,458.9375 486.4297,458.8594 Q486.5781,458.7813 486.7813,458.7813 Q487.1094,458.7813 487.3672,459.0391 Q487.625,459.2969 487.625,459.6406 Q487.625,459.9844 487.2813,460.3906 Q486.7813,460.9688 485.9844,461.2969 Q484.9063,461.75 483.6094,461.75 Q482.0938,461.75 480.8906,461.125 Q479.9063,460.625 479.2188,459.5547 Q478.5313,458.4844 478.5313,457.2031 L478.5313,456.0469 Q478.5313,454.7188 479.1484,453.5703 Q479.7656,452.4219 480.8594,451.8047 Q481.9531,451.1875 483.1875,451.1875 Q483.9219,451.1875 484.5703,451.3516 Q485.2188,451.5156 485.7656,451.875 Z "/><text fill="#000000" font-family="sans-serif" font-size="12" lengthAdjust="spacingAndGlyphs" textLength="80" x="497" y="460.9102">Mantenibilidad</text><line style="stroke: #A80036; stroke-width: 1.5;" x1="469" x2="579" y1="472" y2="472"/><line style="stroke: #A80036; stroke-width: 1.5;" x1="469" x2="579" y1="480" y2="480"/><!--class ProyectoSoftware--><rect fill="#FEFECE" filter="url(#f13vi2g4c3dh1x)" height="48" id="ProyectoSoftware" style="stroke: #A80036; stroke-width: 1.5;" width="130" x="208" y="8"/><ellipse cx="223" cy="24" fill="#ADD1B2" rx="11" ry="11" style="stroke: #A80036; stroke-width: 1.0;"/><path d="M225.7656,19.875 Q225.9219,19.6563 226.1094,19.5469 Q226.2969,19.4375 226.5156,19.4375 Q226.8906,19.4375 227.125,19.6953 Q227.3594,19.9531 227.3594,20.5625 L227.3594,22.0156 Q227.3594,22.625 227.125,22.8906 Q226.8906,23.1563 226.5156,23.1563 Q226.1719,23.1563 225.9688,22.9531 Q225.7656,22.7656 225.6563,22.25 Q225.6094,21.8906 225.4219,21.7031 Q225.0938,21.3281 224.4844,21.1094 Q223.875,20.8906 223.25,20.8906 Q222.4844,20.8906 221.8516,21.2188 Q221.2188,21.5469 220.7266,22.2969 Q220.2344,23.0469 220.2344,24.0781 L220.2344,25.1719 Q220.2344,26.4063 221.125,27.2266 Q222.0156,28.0469 223.6094,28.0469 Q224.5469,28.0469 225.2031,27.7969 Q225.5938,27.6406 226.0156,27.2031 Q226.2813,26.9375 226.4297,26.8594 Q226.5781,26.7813 226.7813,26.7813 Q227.1094,26.7813 227.3672,27.0391 Q227.625,27.2969 227.625,27.6406 Q227.625,27.9844 227.2813,28.3906 Q226.7813,28.9688 225.9844,29.2969 Q224.9063,29.75 223.6094,29.75 Q222.0938,29.75 220.8906,29.125 Q219.9063,28.625 219.2188,27.5547 Q218.5313,26.4844 218.5313,25.2031 L218.5313,24.0469 Q218.5313,22.7188 219.1484,21.5703 Q219.7656,20.4219 220.8594,19.8047 Q221.9531,19.1875 223.1875,19.1875 Q223.9219,19.1875 224.5703,19.3516 Q225.2188,19.5156 225.7656,19.875 Z "/><text fill="#000000" font-family="sans-serif" font-size="12" lengthAdjust="spacingAndGlyphs" textLength="98" x="237" y="28.9102">Proyecto Software</text><line style="stroke: #A80036; stroke-width: 1.5;" x1="209" x2="337" y1="40" y2="40"/><line style="stroke: #A80036; stroke-width: 1.5;" x1="209" x2="337" y1="48" y2="48"/><!--class Variable--><rect fill="#0000FF" filter="url(#f13vi2g4c3dh1x)" height="48" id="Variable" style="stroke: #A80036; stroke-width: 1.5;" width="77" x="164.5" y="116"/><rect fill="#0000FF" height="32" style="stroke: #A80036; stroke-width: 1.5;" width="77" x="164.5" y="116"/><ellipse cx="179.5" cy="132" fill="#ADD1B2" rx="11" ry="11" style="stroke: #A80036; stroke-width: 1.0;"/><path d="M182.2656,127.875 Q182.4219,127.6563 182.6094,127.5469 Q182.7969,127.4375 183.0156,127.4375 Q183.3906,127.4375 183.625,127.6953 Q183.8594,127.9531 183.8594,128.5625 L183.8594,130.0156 Q183.8594,130.625 183.625,130.8906 Q183.3906,131.1563 183.0156,131.1563 Q182.6719,131.1563 182.4688,130.9531 Q182.2656,130.7656 182.1563,130.25 Q182.1094,129.8906 181.9219,129.7031 Q181.5938,129.3281 180.9844,129.1094 Q180.375,128.8906 179.75,128.8906 Q178.9844,128.8906 178.3516,129.2188 Q177.7188,129.5469 177.2266,130.2969 Q176.7344,131.0469 176.7344,132.0781 L176.7344,133.1719 Q176.7344,134.4063 177.625,135.2266 Q178.5156,136.0469 180.1094,136.0469 Q181.0469,136.0469 181.7031,135.7969 Q182.0938,135.6406 182.5156,135.2031 Q182.7813,134.9375 182.9297,134.8594 Q183.0781,134.7813 183.2813,134.7813 Q183.6094,134.7813 183.8672,135.0391 Q184.125,135.2969 184.125,135.6406 Q184.125,135.9844 183.7813,136.3906 Q183.2813,136.9688 182.4844,137.2969 Q181.4063,137.75 180.1094,137.75 Q178.5938,137.75 177.3906,137.125 Q176.4063,136.625 175.7188,135.5547 Q175.0313,134.4844 175.0313,133.2031 L175.0313,132.0469 Q175.0313,130.7188 175.6484,129.5703 Q176.2656,128.4219 177.3594,127.8047 Q178.4531,127.1875 179.6875,127.1875 Q180.4219,127.1875 181.0703,127.3516 Q181.7188,127.5156 182.2656,127.875 Z "/><text fill="#000000" font-family="sans-serif" font-size="12" lengthAdjust="spacingAndGlyphs" textLength="45" x="193.5" y="136.9102">Variable</text><line style="stroke: #A80036; stroke-width: 1.5;" x1="165.5" x2="240.5" y1="148" y2="148"/><line style="stroke: #A80036; stroke-width: 1.5;" x1="165.5" x2="240.5" y1="156" y2="156"/><!--class Eficacia--><rect fill="#FFA500" filter="url(#f13vi2g4c3dh1x)" height="48" id="Eficacia" style="stroke: #A80036; stroke-width: 1.5;" width="75" x="165.5" y="440"/><rect fill="#FFA500" height="32" style="stroke: #A80036; stroke-width: 1.5;" width="75" x="165.5" y="440"/><ellipse cx="180.5" cy="456" fill="#ADD1B2" rx="11" ry="11" style="stroke: #A80036; stroke-width: 1.0;"/><path d="M183.2656,451.875 Q183.4219,451.6563 183.6094,451.5469 Q183.7969,451.4375 184.0156,451.4375 Q184.3906,451.4375 184.625,451.6953 Q184.8594,451.9531 184.8594,452.5625 L184.8594,454.0156 Q184.8594,454.625 184.625,454.8906 Q184.3906,455.1563 184.0156,455.1563 Q183.6719,455.1563 183.4688,454.9531 Q183.2656,454.7656 183.1563,454.25 Q183.1094,453.8906 182.9219,453.7031 Q182.5938,453.3281 181.9844,453.1094 Q181.375,452.8906 180.75,452.8906 Q179.9844,452.8906 179.3516,453.2188 Q178.7188,453.5469 178.2266,454.2969 Q177.7344,455.0469 177.7344,456.0781 L177.7344,457.1719 Q177.7344,458.4063 178.625,459.2266 Q179.5156,460.0469 181.1094,460.0469 Q182.0469,460.0469 182.7031,459.7969 Q183.0938,459.6406 183.5156,459.2031 Q183.7813,458.9375 183.9297,458.8594 Q184.0781,458.7813 184.2813,458.7813 Q184.6094,458.7813 184.8672,459.0391 Q185.125,459.2969 185.125,459.6406 Q185.125,459.9844 184.7813,460.3906 Q184.2813,460.9688 183.4844,461.2969 Q182.4063,461.75 181.1094,461.75 Q179.5938,461.75 178.3906,461.125 Q177.4063,460.625 176.7188,459.5547 Q176.0313,458.4844 176.0313,457.2031 L176.0313,456.0469 Q176.0313,454.7188 176.6484,453.5703 Q177.2656,452.4219 178.3594,451.8047 Q179.4531,451.1875 180.6875,451.1875 Q181.4219,451.1875 182.0703,451.3516 Q182.7188,451.5156 183.2656,451.875 Z "/><text fill="#000000" font-family="sans-serif" font-size="12" lengthAdjust="spacingAndGlyphs" textLength="43" x="194.5" y="460.9102">Eficacia</text><line style="stroke: #A80036; stroke-width: 1.5;" x1="166.5" x2="239.5" y1="472" y2="472"/><line style="stroke: #A80036; stroke-width: 1.5;" x1="166.5" x2="239.5" y1="480" y2="480"/><!--class Eficiencia--><rect fill="#FFA500" filter="url(#f13vi2g4c3dh1x)" height="48" id="Eficiencia" style="stroke: #A80036; stroke-width: 1.5;" width="85" x="347.5" y="440"/><rect fill="#FFA500" height="32" style="stroke: #A80036; stroke-width: 1.5;" width="85" x="347.5" y="440"/><ellipse cx="362.5" cy="456" fill="#ADD1B2" rx="11" ry="11" style="stroke: #A80036; stroke-width: 1.0;"/><path d="M365.2656,451.875 Q365.4219,451.6563 365.6094,451.5469 Q365.7969,451.4375 366.0156,451.4375 Q366.3906,451.4375 366.625,451.6953 Q366.8594,451.9531 366.8594,452.5625 L366.8594,454.0156 Q366.8594,454.625 366.625,454.8906 Q366.3906,455.1563 366.0156,455.1563 Q365.6719,455.1563 365.4688,454.9531 Q365.2656,454.7656 365.1563,454.25 Q365.1094,453.8906 364.9219,453.7031 Q364.5938,453.3281 363.9844,453.1094 Q363.375,452.8906 362.75,452.8906 Q361.9844,452.8906 361.3516,453.2188 Q360.7188,453.5469 360.2266,454.2969 Q359.7344,455.0469 359.7344,456.0781 L359.7344,457.1719 Q359.7344,458.4063 360.625,459.2266 Q361.5156,460.0469 363.1094,460.0469 Q364.0469,460.0469 364.7031,459.7969 Q365.0938,459.6406 365.5156,459.2031 Q365.7813,458.9375 365.9297,458.8594 Q366.0781,458.7813 366.2813,458.7813 Q366.6094,458.7813 366.8672,459.0391 Q367.125,459.2969 367.125,459.6406 Q367.125,459.9844 366.7813,460.3906 Q366.2813,460.9688 365.4844,461.2969 Q364.4063,461.75 363.1094,461.75 Q361.5938,461.75 360.3906,461.125 Q359.4063,460.625 358.7188,459.5547 Q358.0313,458.4844 358.0313,457.2031 L358.0313,456.0469 Q358.0313,454.7188 358.6484,453.5703 Q359.2656,452.4219 360.3594,451.8047 Q361.4531,451.1875 362.6875,451.1875 Q363.4219,451.1875 364.0703,451.3516 Q364.7188,451.5156 365.2656,451.875 Z "/><text fill="#000000" font-family="sans-serif" font-size="12" lengthAdjust="spacingAndGlyphs" textLength="53" x="376.5" y="460.9102">Eficiencia</text><line style="stroke: #A80036; stroke-width: 1.5;" x1="348.5" x2="431.5" y1="472" y2="472"/><line style="stroke: #A80036; stroke-width: 1.5;" x1="348.5" x2="431.5" y1="480" y2="480"/><!--class Ambito--><rect fill="#0000FF" filter="url(#f13vi2g4c3dh1x)" height="48" id="Ambito" style="stroke: #A80036; stroke-width: 1.5;" width="70" x="6" y="548"/><rect fill="#0000FF" height="32" style="stroke: #A80036; stroke-width: 1.5;" width="70" x="6" y="548"/><ellipse cx="21" cy="564" fill="#ADD1B2" rx="11" ry="11" style="stroke: #A80036; stroke-width: 1.0;"/><path d="M23.7656,559.875 Q23.9219,559.6563 24.1094,559.5469 Q24.2969,559.4375 24.5156,559.4375 Q24.8906,559.4375 25.125,559.6953 Q25.3594,559.9531 25.3594,560.5625 L25.3594,562.0156 Q25.3594,562.625 25.125,562.8906 Q24.8906,563.1563 24.5156,563.1563 Q24.1719,563.1563 23.9688,562.9531 Q23.7656,562.7656 23.6563,562.25 Q23.6094,561.8906 23.4219,561.7031 Q23.0938,561.3281 22.4844,561.1094 Q21.875,560.8906 21.25,560.8906 Q20.4844,560.8906 19.8516,561.2188 Q19.2188,561.5469 18.7266,562.2969 Q18.2344,563.0469 18.2344,564.0781 L18.2344,565.1719 Q18.2344,566.4063 19.125,567.2266 Q20.0156,568.0469 21.6094,568.0469 Q22.5469,568.0469 23.2031,567.7969 Q23.5938,567.6406 24.0156,567.2031 Q24.2813,566.9375 24.4297,566.8594 Q24.5781,566.7813 24.7813,566.7813 Q25.1094,566.7813 25.3672,567.0391 Q25.625,567.2969 25.625,567.6406 Q25.625,567.9844 25.2813,568.3906 Q24.7813,568.9688 23.9844,569.2969 Q22.9063,569.75 21.6094,569.75 Q20.0938,569.75 18.8906,569.125 Q17.9063,568.625 17.2188,567.5547 Q16.5313,566.4844 16.5313,565.2031 L16.5313,564.0469 Q16.5313,562.7188 17.1484,561.5703 Q17.7656,560.4219 18.8594,559.8047 Q19.9531,559.1875 21.1875,559.1875 Q21.9219,559.1875 22.5703,559.3516 Q23.2188,559.5156 23.7656,559.875 Z "/><text fill="#000000" font-family="sans-serif" font-size="12" lengthAdjust="spacingAndGlyphs" textLength="38" x="35" y="568.9102">Ambito</text><line style="stroke: #A80036; stroke-width: 1.5;" x1="7" x2="75" y1="580" y2="580"/><line style="stroke: #A80036; stroke-width: 1.5;" x1="7" x2="75" y1="588" y2="588"/><!--class Tiempo--><rect fill="#0000FF" filter="url(#f13vi2g4c3dh1x)" height="48" id="Tiempo" style="stroke: #A80036; stroke-width: 1.5;" width="74" x="257" y="548"/><rect fill="#0000FF" height="32" style="stroke: #A80036; stroke-width: 1.5;" width="74" x="257" y="548"/><ellipse cx="272" cy="564" fill="#ADD1B2" rx="11" ry="11" style="stroke: #A80036; stroke-width: 1.0;"/><path d="M274.7656,559.875 Q274.9219,559.6563 275.1094,559.5469 Q275.2969,559.4375 275.5156,559.4375 Q275.8906,559.4375 276.125,559.6953 Q276.3594,559.9531 276.3594,560.5625 L276.3594,562.0156 Q276.3594,562.625 276.125,562.8906 Q275.8906,563.1563 275.5156,563.1563 Q275.1719,563.1563 274.9688,562.9531 Q274.7656,562.7656 274.6563,562.25 Q274.6094,561.8906 274.4219,561.7031 Q274.0938,561.3281 273.4844,561.1094 Q272.875,560.8906 272.25,560.8906 Q271.4844,560.8906 270.8516,561.2188 Q270.2188,561.5469 269.7266,562.2969 Q269.2344,563.0469 269.2344,564.0781 L269.2344,565.1719 Q269.2344,566.4063 270.125,567.2266 Q271.0156,568.0469 272.6094,568.0469 Q273.5469,568.0469 274.2031,567.7969 Q274.5938,567.6406 275.0156,567.2031 Q275.2813,566.9375 275.4297,566.8594 Q275.5781,566.7813 275.7813,566.7813 Q276.1094,566.7813 276.3672,567.0391 Q276.625,567.2969 276.625,567.6406 Q276.625,567.9844 276.2813,568.3906 Q275.7813,568.9688 274.9844,569.2969 Q273.9063,569.75 272.6094,569.75 Q271.0938,569.75 269.8906,569.125 Q268.9063,568.625 268.2188,567.5547 Q267.5313,566.4844 267.5313,565.2031 L267.5313,564.0469 Q267.5313,562.7188 268.1484,561.5703 Q268.7656,560.4219 269.8594,559.8047 Q270.9531,559.1875 272.1875,559.1875 Q272.9219,559.1875 273.5703,559.3516 Q274.2188,559.5156 274.7656,559.875 Z "/><text fill="#000000" font-family="sans-serif" font-size="12" lengthAdjust="spacingAndGlyphs" textLength="42" x="286" y="568.9102">Tiempo</text><line style="stroke: #A80036; stroke-width: 1.5;" x1="258" x2="330" y1="580" y2="580"/><line style="stroke: #A80036; stroke-width: 1.5;" x1="258" x2="330" y1="588" y2="588"/><!--class Coste--><rect fill="#0000FF" filter="url(#f13vi2g4c3dh1x)" height="48" id="Coste" style="stroke: #A80036; stroke-width: 1.5;" width="65" x="600.5" y="548"/><rect fill="#0000FF" height="32" style="stroke: #A80036; stroke-width: 1.5;" width="65" x="600.5" y="548"/><ellipse cx="615.5" cy="564" fill="#ADD1B2" rx="11" ry="11" style="stroke: #A80036; stroke-width: 1.0;"/><path d="M618.2656,559.875 Q618.4219,559.6563 618.6094,559.5469 Q618.7969,559.4375 619.0156,559.4375 Q619.3906,559.4375 619.625,559.6953 Q619.8594,559.9531 619.8594,560.5625 L619.8594,562.0156 Q619.8594,562.625 619.625,562.8906 Q619.3906,563.1563 619.0156,563.1563 Q618.6719,563.1563 618.4688,562.9531 Q618.2656,562.7656 618.1563,562.25 Q618.1094,561.8906 617.9219,561.7031 Q617.5938,561.3281 616.9844,561.1094 Q616.375,560.8906 615.75,560.8906 Q614.9844,560.8906 614.3516,561.2188 Q613.7188,561.5469 613.2266,562.2969 Q612.7344,563.0469 612.7344,564.0781 L612.7344,565.1719 Q612.7344,566.4063 613.625,567.2266 Q614.5156,568.0469 616.1094,568.0469 Q617.0469,568.0469 617.7031,567.7969 Q618.0938,567.6406 618.5156,567.2031 Q618.7813,566.9375 618.9297,566.8594 Q619.0781,566.7813 619.2813,566.7813 Q619.6094,566.7813 619.8672,567.0391 Q620.125,567.2969 620.125,567.6406 Q620.125,567.9844 619.7813,568.3906 Q619.2813,568.9688 618.4844,569.2969 Q617.4063,569.75 616.1094,569.75 Q614.5938,569.75 613.3906,569.125 Q612.4063,568.625 611.7188,567.5547 Q611.0313,566.4844 611.0313,565.2031 L611.0313,564.0469 Q611.0313,562.7188 611.6484,561.5703 Q612.2656,560.4219 613.3594,559.8047 Q614.4531,559.1875 615.6875,559.1875 Q616.4219,559.1875 617.0703,559.3516 Q617.7188,559.5156 618.2656,559.875 Z "/><text fill="#000000" font-family="sans-serif" font-size="12" lengthAdjust="spacingAndGlyphs" textLength="33" x="629.5" y="568.9102">Coste</text><line style="stroke: #A80036; stroke-width: 1.5;" x1="601.5" x2="664.5" y1="580" y2="580"/><line style="stroke: #A80036; stroke-width: 1.5;" x1="601.5" x2="664.5" y1="588" y2="588"/><!--link ProductoSoftware to Calidad--><path d="M343,177.338 C343,188.006 343,199.677 343,210.364 " fill="none" id="ProductoSoftware-Calidad" style="stroke: #A80036; stroke-width: 1.0;"/><polygon fill="#A80036" points="343,223.678,347,214.678,343,218.678,339,214.678,343,223.678" style="stroke: #A80036; stroke-width: 1.0;"/><line style="stroke: #A80036; stroke-width: 1.0;" x1="343" x2="343" y1="218.678" y2="210.678"/><polygon fill="#A80036" points="343,164,339,170,343,176,347,170,343,164" style="stroke: #A80036; stroke-width: 1.0;"/><!--link Calidad to Efectividad--><path d="M359.479,283.935 C364.909,295.447 370.949,308.251 376.389,319.784 " fill="none" id="Calidad-Efectividad" style="stroke: #A80036; stroke-width: 1.0;"/><polygon fill="#A80036" points="381.999,331.678,381.7772,321.8316,379.8659,327.1558,374.5418,325.2445,381.999,331.678" style="stroke: #A80036; stroke-width: 1.0;"/><line style="stroke: #A80036; stroke-width: 1.0;" x1="379.8659" x2="376.453" y1="327.1558" y2="319.921"/><polygon fill="#A80036" points="353.849,272,352.7906,279.133,358.9678,282.8535,360.0262,275.7205,353.849,272" style="stroke: #A80036; stroke-width: 1.0;"/><!--link Calidad to Mantenibilidad--><path d="M391.532,277.463 C413.16,291.84 437.801,310.743 456,332 C480.457,360.567 499.22,399.433 510.781,427.401 " fill="none" id="Calidad-Mantenibilidad" style="stroke: #A80036; stroke-width: 1.0;"/><polygon fill="#A80036" points="515.725,439.785,516.1018,429.9434,513.8706,435.1416,508.6724,432.9104,515.725,439.785" style="stroke: #A80036; stroke-width: 1.0;"/><line style="stroke: #A80036; stroke-width: 1.0;" x1="513.8706" x2="510.9045" y1="435.1416" y2="427.7115"/><polygon fill="#A80036" points="380.547,270.369,383.4174,276.9842,390.6277,276.8789,387.7573,270.2637,380.547,270.369" style="stroke: #A80036; stroke-width: 1.0;"/><!--link Efectividad to Mantenibilidad--><path d="M421.425,380 C441.969,396.624 469.768,419.118 491.245,436.496 " fill="none" id="Efectividad-Mantenibilidad" style="stroke: #A80036; stroke-width: 1.0;"/><polygon fill="#A80036" points="495.178,439.678,490.6982,430.9069,491.2913,436.5326,485.6656,437.1257,495.178,439.678" style="stroke: #A80036; stroke-width: 1.0;"/><!--link ProyectoSoftware to ProductoSoftware--><path d="M295.457,67.007 C303.408,79.046 312.354,92.593 320.322,104.66 " fill="none" id="ProyectoSoftware-ProductoSoftware" style="stroke: #A80036; stroke-width: 1.0;"/><polygon fill="#A80036" points="327.599,115.678,325.9772,105.9636,324.8437,111.5057,319.3015,110.3721,327.599,115.678" style="stroke: #A80036; stroke-width: 1.0;"/><line style="stroke: #A80036; stroke-width: 1.0;" x1="324.8437" x2="320.435" y1="111.5057" y2="104.8305"/><polygon fill="#A80036" points="288.189,56,288.1576,63.211,294.8018,66.0135,294.8333,58.8025,288.189,56" style="stroke: #A80036; stroke-width: 1.0;"/><!--link ProyectoSoftware to Variable--><path d="M250.543,67.007 C242.592,79.046 233.646,92.593 225.678,104.66 " fill="none" id="ProyectoSoftware-Variable" style="stroke: #A80036; stroke-width: 1.0;"/><polygon fill="#A80036" points="218.401,115.678,226.6985,110.3721,221.1563,111.5057,220.0228,105.9636,218.401,115.678" style="stroke: #A80036; stroke-width: 1.0;"/><line style="stroke: #A80036; stroke-width: 1.0;" x1="221.1563" x2="225.565" y1="111.5057" y2="104.8305"/><polygon fill="#A80036" points="257.811,56,251.1667,58.8025,251.1982,66.0135,257.8424,63.211,257.811,56" style="stroke: #A80036; stroke-width: 1.0;"/><!--link Efectividad to Eficacia--><path d="M340.074,386.527 C312.529,401.894 279.07,420.561 252.104,435.605 " fill="none" id="Efectividad-Eficacia" style="stroke: #A80036; stroke-width: 1.0;"/><polygon fill="#A80036" points="240.6,442.023,250.4084,441.1309,244.9663,439.5868,246.5105,434.1448,240.6,442.023" style="stroke: #A80036; stroke-width: 1.0;"/><line style="stroke: #A80036; stroke-width: 1.0;" x1="244.9663" x2="251.953" y1="439.5868" y2="435.6895"/><polygon fill="#A80036" points="351.773,380,344.5844,379.4303,341.2938,385.8469,348.4823,386.4165,351.773,380" style="stroke: #A80036; stroke-width: 1.0;"/><!--link Efectividad to Eficiencia--><path d="M391.972,393.338 C391.67,404.006 391.339,415.677 391.037,426.364 " fill="none" id="Efectividad-Eficiencia" style="stroke: #A80036; stroke-width: 1.0;"/><polygon fill="#A80036" points="390.66,439.678,394.9126,430.7946,390.8012,434.68,386.9158,430.5686,390.66,439.678" style="stroke: #A80036; stroke-width: 1.0;"/><line style="stroke: #A80036; stroke-width: 1.0;" x1="390.8012" x2="391.028" y1="434.68" y2="426.6835"/><polygon fill="#A80036" points="392.349,380,388.1805,385.8842,392.0088,391.9952,396.1773,386.111,392.349,380" style="stroke: #A80036; stroke-width: 1.0;"/><!--link Eficacia to Ambito--><path d="M167.848,488 C142.055,504.8773 107.014,527.8055 80.2968,545.2873 " fill="none" id="Eficacia-Ambito" style="stroke: #A80036; stroke-width: 1.0;"/><polygon fill="#A80036" points="76.083,548.0445,85.8042,546.4641,80.267,545.3069,81.4241,539.7697,76.083,548.0445" style="stroke: #A80036; stroke-width: 1.0;"/><!--link Eficiencia to Tiempo--><path d="M369.169,488 C354.302,504.4168 334.249,526.5588 318.594,543.8444 " fill="none" id="Eficiencia-Tiempo" style="stroke: #A80036; stroke-width: 1.0;"/><polygon fill="#A80036" points="315.121,547.6784,324.1275,543.6931,318.4776,543.9725,318.1981,538.3226,315.121,547.6784" style="stroke: #A80036; stroke-width: 1.0;"/><!--link Eficiencia to Coste--><path d="M432.605,483.585 C478.702,503.6933 551.493,535.4454 595.496,554.6403 " fill="none" id="Eficiencia-Coste" style="stroke: #A80036; stroke-width: 1.0;"/><polygon fill="#A80036" points="600.189,556.6874,593.5401,549.4216,595.6064,554.6876,590.3404,556.7538,600.189,556.6874" style="stroke: #A80036; stroke-width: 1.0;"/><!--link Variable to Tiempo--><path d="M180.185,182.509 C145.908,251.004 90.9084,389.871 148,488 C171.24,527.9449 221.669,550.2436 256.711,561.4348 " fill="none" id="Variable-Tiempo" style="stroke: #A80036; stroke-width: 1.0;"/><polygon fill="none" points="174.168,178.908,189.602,164.389,186.59,185.364,174.168,178.908" style="stroke: #A80036; stroke-width: 1.0;"/><!--link Variable to Ambito--><path d="M166.909,179.732 C156.05,192.991 144.928,208.426 137,224 C79.1547,337.637 52.5394,490.513 44.1136,547.9308 " fill="none" id="Variable-Ambito" style="stroke: #A80036; stroke-width: 1.0;"/><polygon fill="none" points="161.896,174.825,180.261,164.254,172.497,183.97,161.896,174.825" style="stroke: #A80036; stroke-width: 1.0;"/><!--link Variable to Coste--><path d="M260.637,164.814 C313.426,186.742 385.244,216.915 398,224 C471.082,264.592 491.952,273.838 552,332 C595.098,373.744 614.026,383.079 633,440 C645.011,476.032 641.351,520.8008 637.355,547.5742 " fill="none" id="Variable-Coste" style="stroke: #A80036; stroke-width: 1.0;"/><polygon fill="none" points="257.641,171.15,241.847,157.023,263.003,158.217,257.641,171.15" style="stroke: #A80036; stroke-width: 1.0;"/><!--link Variable to Calidad--><path d="M249.449,176.168 C270.081,191.79 293.804,209.752 312.198,223.678 " fill="none" id="Variable-Calidad" style="stroke: #A80036; stroke-width: 1.0;"/><polygon fill="none" points="245.098,181.654,233.378,164,253.549,170.492,245.098,181.654" style="stroke: #A80036; stroke-width: 1.0;"/><!--link Tiempo to Calidad--><path d="M297.43,547.9214 C303.78,505.2678 317.83,411.216 330,332 C332.786,313.867 335.972,293.516 338.493,277.504 " fill="none" id="Tiempo-Calidad" style="stroke: #A80036; stroke-width: 1.0;"/><polygon fill="#A80036" points="339.321,272.249,333.9686,280.5165,338.5426,277.188,341.8711,281.762,339.321,272.249" style="stroke: #A80036; stroke-width: 1.0;"/><!--link Ambito to Calidad--><path d="M58.8111,547.6365 C79.4655,520.9203 114.921,476.204 148,440 C204.049,378.657 274.8,311.741 313.818,275.664 " fill="none" id="Ambito-Calidad" style="stroke: #A80036; stroke-width: 1.0;"/><polygon fill="#A80036" points="317.494,272.27,308.1682,275.4368,313.8205,275.662,313.5954,281.3144,317.494,272.27" style="stroke: #A80036; stroke-width: 1.0;"/><!--link Coste to Calidad--><path d="M630.278,547.9647 C626.312,520.7688 617.214,474.837 598,440 C566.407,382.718 549.769,371.991 498,332 C463.003,304.965 417.976,281.948 385.48,267.059 " fill="none" id="Coste-Calidad" style="stroke: #A80036; stroke-width: 1.0;"/><polygon fill="#A80036" points="380.779,264.921,387.3155,272.2881,385.3304,266.991,390.6275,265.0059,380.779,264.921" style="stroke: #A80036; stroke-width: 1.0;"/><!--
@startuml

class "Producto Software" as ProductoSoftware
ProductoSoftware *-down-> Calidad
class Calidad #brown
Calidad *-down-> Efectividad
Calidad *-down-> Mantenibilidad

Efectividad - -> Mantenibilidad

class "Proyecto Software" as ProyectoSoftware
ProyectoSoftware *-down-> ProductoSoftware
ProyectoSoftware *-down-> Variable

class Efectividad #orange
Efectividad *-down-> Eficacia
Efectividad *-down-> Eficiencia
class Eficacia #orange
class Eficiencia #orange
Eficacia -down-> Ambito
Eficiencia -down-> Tiempo
Eficiencia -down-> Coste

class Variable #blue
class Tiempo #blue
class "Ámbito" as Ambito #blue
class Coste #blue
class Calidad #blue

Variable <|-down- Tiempo
Variable <|-down- Ambito
Variable <|-down- Coste
Variable <|-down- Calidad

Tiempo -down-> Calidad
Ambito -down-> Calidad
Coste -down-> Calidad

@enduml

PlantUML version 1.2019.05(Sat Apr 20 18:45:36 CEST 2019)
(GPL source distribution)
Java Runtime: Java(TM) SE Runtime Environment
JVM: Java HotSpot(TM) 64-Bit Server VM
Java Version: 1.8.0_211-b12
Operating System: Windows 10
OS Version: 10.0
Default Encoding: windows-1252
Language: es
Country: ES
--></g></svg>