<?xml version="1.0" encoding="UTF-8" standalone="no"?><svg xmlns="http://www.w3.org/2000/svg" xmlns:xlink="http://www.w3.org/1999/xlink" contentScriptType="application/ecmascript" contentStyleType="text/css" height="391px" preserveAspectRatio="none" style="width:716px;height:391px;" version="1.1" viewBox="0 0 716 391" width="716px" zoomAndPan="magnify"><defs><filter height="300%" id="fita00uq1k85a" width="300%" x="-1" y="-1"><feGaussianBlur result="blurOut" stdDeviation="2.0"/><feColorMatrix in="blurOut" result="blurOut2" type="matrix" values="0 0 0 0 0 0 0 0 0 0 0 0 0 0 0 0 0 0 .4 0"/><feOffset dx="4.0" dy="4.0" in="blurOut2" result="blurOut3"/><feBlend in="SourceGraphic" in2="blurOut3" mode="normal"/></filter></defs><g><!--class Patron--><rect fill="#FEFECE" filter="url(#fita00uq1k85a)" height="48" id="Patron" style="stroke: #A80036; stroke-width: 1.5;" width="68" x="344.5" y="8"/><ellipse cx="359.5" cy="24" fill="#A9DCDF" rx="11" ry="11" style="stroke: #A80036; stroke-width: 1.0;"/><path d="M361.6875,25.7656 L357.5469,25.7656 L357.125,26.7969 L357.5469,26.7969 Q358.1563,26.7969 358.4219,27.0313 Q358.6875,27.2656 358.6875,27.6563 Q358.6875,28.0313 358.4219,28.2656 Q358.1563,28.5 357.5469,28.5 L355.25,28.5 Q354.6406,28.5 354.3828,28.2656 Q354.125,28.0313 354.125,27.6406 Q354.125,27.2656 354.3984,27.0234 Q354.6719,26.7813 355.2969,26.7969 L357.9688,20.1406 L356.8594,20.1406 Q356.25,20.1406 355.9844,19.9063 Q355.7188,19.6719 355.7188,19.2813 Q355.7188,18.9063 355.9844,18.6719 Q356.25,18.4375 356.8594,18.4375 L360.5313,18.4375 L363.9219,26.7969 Q364.5156,26.7969 364.7031,26.9375 Q365.0938,27.2031 365.0938,27.6563 Q365.0938,28.0313 364.8359,28.2656 Q364.5781,28.5 363.9688,28.5 L361.6719,28.5 Q361.0625,28.5 360.7969,28.2656 Q360.5313,28.0313 360.5313,27.6406 Q360.5313,27.2656 360.7969,27.0313 Q361.0625,26.7969 361.6719,26.7969 L362.0938,26.7969 L361.6875,25.7656 Z M360.9688,24.0625 L359.6094,20.6875 L358.2344,24.0625 L360.9688,24.0625 Z "/><text fill="#000000" font-family="sans-serif" font-size="12" font-style="italic" lengthAdjust="spacingAndGlyphs" textLength="36" x="373.5" y="28.9102">Patrón</text><line style="stroke: #A80036; stroke-width: 1.5;" x1="345.5" x2="411.5" y1="40" y2="40"/><line style="stroke: #A80036; stroke-width: 1.5;" x1="345.5" x2="411.5" y1="48" y2="48"/><!--class Problema--><rect fill="#FEFECE" filter="url(#fita00uq1k85a)" height="48" id="Problema" style="stroke: #A80036; stroke-width: 1.5;" width="203" x="38" y="8"/><ellipse cx="53" cy="24" fill="#ADD1B2" rx="11" ry="11" style="stroke: #A80036; stroke-width: 1.0;"/><path d="M55.7656,19.875 Q55.9219,19.6563 56.1094,19.5469 Q56.2969,19.4375 56.5156,19.4375 Q56.8906,19.4375 57.125,19.6953 Q57.3594,19.9531 57.3594,20.5625 L57.3594,22.0156 Q57.3594,22.625 57.125,22.8906 Q56.8906,23.1563 56.5156,23.1563 Q56.1719,23.1563 55.9688,22.9531 Q55.7656,22.7656 55.6563,22.25 Q55.6094,21.8906 55.4219,21.7031 Q55.0938,21.3281 54.4844,21.1094 Q53.875,20.8906 53.25,20.8906 Q52.4844,20.8906 51.8516,21.2188 Q51.2188,21.5469 50.7266,22.2969 Q50.2344,23.0469 50.2344,24.0781 L50.2344,25.1719 Q50.2344,26.4063 51.125,27.2266 Q52.0156,28.0469 53.6094,28.0469 Q54.5469,28.0469 55.2031,27.7969 Q55.5938,27.6406 56.0156,27.2031 Q56.2813,26.9375 56.4297,26.8594 Q56.5781,26.7813 56.7813,26.7813 Q57.1094,26.7813 57.3672,27.0391 Q57.625,27.2969 57.625,27.6406 Q57.625,27.9844 57.2813,28.3906 Q56.7813,28.9688 55.9844,29.2969 Q54.9063,29.75 53.6094,29.75 Q52.0938,29.75 50.8906,29.125 Q49.9063,28.625 49.2188,27.5547 Q48.5313,26.4844 48.5313,25.2031 L48.5313,24.0469 Q48.5313,22.7188 49.1484,21.5703 Q49.7656,20.4219 50.8594,19.8047 Q51.9531,19.1875 53.1875,19.1875 Q53.9219,19.1875 54.5703,19.3516 Q55.2188,19.5156 55.7656,19.875 Z "/><text fill="#000000" font-family="sans-serif" font-size="12" lengthAdjust="spacingAndGlyphs" textLength="171" x="67" y="28.9102">Problema de Diseño/Rediseño</text><line style="stroke: #A80036; stroke-width: 1.5;" x1="39" x2="240" y1="40" y2="40"/><line style="stroke: #A80036; stroke-width: 1.5;" x1="39" x2="240" y1="48" y2="48"/><!--class ProblemaRecurrente--><rect fill="#FEFECE" filter="url(#fita00uq1k85a)" height="48" id="ProblemaRecurrente" style="stroke: #A80036; stroke-width: 1.5;" width="267" x="6" y="116"/><ellipse cx="21" cy="132" fill="#ADD1B2" rx="11" ry="11" style="stroke: #A80036; stroke-width: 1.0;"/><path d="M23.7656,127.875 Q23.9219,127.6563 24.1094,127.5469 Q24.2969,127.4375 24.5156,127.4375 Q24.8906,127.4375 25.125,127.6953 Q25.3594,127.9531 25.3594,128.5625 L25.3594,130.0156 Q25.3594,130.625 25.125,130.8906 Q24.8906,131.1563 24.5156,131.1563 Q24.1719,131.1563 23.9688,130.9531 Q23.7656,130.7656 23.6563,130.25 Q23.6094,129.8906 23.4219,129.7031 Q23.0938,129.3281 22.4844,129.1094 Q21.875,128.8906 21.25,128.8906 Q20.4844,128.8906 19.8516,129.2188 Q19.2188,129.5469 18.7266,130.2969 Q18.2344,131.0469 18.2344,132.0781 L18.2344,133.1719 Q18.2344,134.4063 19.125,135.2266 Q20.0156,136.0469 21.6094,136.0469 Q22.5469,136.0469 23.2031,135.7969 Q23.5938,135.6406 24.0156,135.2031 Q24.2813,134.9375 24.4297,134.8594 Q24.5781,134.7813 24.7813,134.7813 Q25.1094,134.7813 25.3672,135.0391 Q25.625,135.2969 25.625,135.6406 Q25.625,135.9844 25.2813,136.3906 Q24.7813,136.9688 23.9844,137.2969 Q22.9063,137.75 21.6094,137.75 Q20.0938,137.75 18.8906,137.125 Q17.9063,136.625 17.2188,135.5547 Q16.5313,134.4844 16.5313,133.2031 L16.5313,132.0469 Q16.5313,130.7188 17.1484,129.5703 Q17.7656,128.4219 18.8594,127.8047 Q19.9531,127.1875 21.1875,127.1875 Q21.9219,127.1875 22.5703,127.3516 Q23.2188,127.5156 23.7656,127.875 Z "/><text fill="#000000" font-family="sans-serif" font-size="12" lengthAdjust="spacingAndGlyphs" textLength="235" x="35" y="136.9102">Problema de Diseño/Rediseño Recurrente</text><line style="stroke: #A80036; stroke-width: 1.5;" x1="7" x2="272" y1="148" y2="148"/><line style="stroke: #A80036; stroke-width: 1.5;" x1="7" x2="272" y1="156" y2="156"/><!--class Solucion--><rect fill="#FEFECE" filter="url(#fita00uq1k85a)" height="48" id="Solucion" style="stroke: #A80036; stroke-width: 1.5;" width="140" x="308.5" y="116"/><ellipse cx="323.5" cy="132" fill="#ADD1B2" rx="11" ry="11" style="stroke: #A80036; stroke-width: 1.0;"/><path d="M326.2656,127.875 Q326.4219,127.6563 326.6094,127.5469 Q326.7969,127.4375 327.0156,127.4375 Q327.3906,127.4375 327.625,127.6953 Q327.8594,127.9531 327.8594,128.5625 L327.8594,130.0156 Q327.8594,130.625 327.625,130.8906 Q327.3906,131.1563 327.0156,131.1563 Q326.6719,131.1563 326.4688,130.9531 Q326.2656,130.7656 326.1563,130.25 Q326.1094,129.8906 325.9219,129.7031 Q325.5938,129.3281 324.9844,129.1094 Q324.375,128.8906 323.75,128.8906 Q322.9844,128.8906 322.3516,129.2188 Q321.7188,129.5469 321.2266,130.2969 Q320.7344,131.0469 320.7344,132.0781 L320.7344,133.1719 Q320.7344,134.4063 321.625,135.2266 Q322.5156,136.0469 324.1094,136.0469 Q325.0469,136.0469 325.7031,135.7969 Q326.0938,135.6406 326.5156,135.2031 Q326.7813,134.9375 326.9297,134.8594 Q327.0781,134.7813 327.2813,134.7813 Q327.6094,134.7813 327.8672,135.0391 Q328.125,135.2969 328.125,135.6406 Q328.125,135.9844 327.7813,136.3906 Q327.2813,136.9688 326.4844,137.2969 Q325.4063,137.75 324.1094,137.75 Q322.5938,137.75 321.3906,137.125 Q320.4063,136.625 319.7188,135.5547 Q319.0313,134.4844 319.0313,133.2031 L319.0313,132.0469 Q319.0313,130.7188 319.6484,129.5703 Q320.2656,128.4219 321.3594,127.8047 Q322.4531,127.1875 323.6875,127.1875 Q324.4219,127.1875 325.0703,127.3516 Q325.7188,127.5156 326.2656,127.875 Z "/><text fill="#000000" font-family="sans-serif" font-size="12" lengthAdjust="spacingAndGlyphs" textLength="108" x="337.5" y="136.9102">Solución de Diseño</text><line style="stroke: #A80036; stroke-width: 1.5;" x1="309.5" x2="447.5" y1="148" y2="148"/><line style="stroke: #A80036; stroke-width: 1.5;" x1="309.5" x2="447.5" y1="156" y2="156"/><!--class Consecuencia--><rect fill="#FEFECE" filter="url(#fita00uq1k85a)" height="48" id="Consecuencia" style="stroke: #A80036; stroke-width: 1.5;" width="112" x="483.5" y="116"/><ellipse cx="498.5" cy="132" fill="#ADD1B2" rx="11" ry="11" style="stroke: #A80036; stroke-width: 1.0;"/><path d="M501.2656,127.875 Q501.4219,127.6563 501.6094,127.5469 Q501.7969,127.4375 502.0156,127.4375 Q502.3906,127.4375 502.625,127.6953 Q502.8594,127.9531 502.8594,128.5625 L502.8594,130.0156 Q502.8594,130.625 502.625,130.8906 Q502.3906,131.1563 502.0156,131.1563 Q501.6719,131.1563 501.4688,130.9531 Q501.2656,130.7656 501.1563,130.25 Q501.1094,129.8906 500.9219,129.7031 Q500.5938,129.3281 499.9844,129.1094 Q499.375,128.8906 498.75,128.8906 Q497.9844,128.8906 497.3516,129.2188 Q496.7188,129.5469 496.2266,130.2969 Q495.7344,131.0469 495.7344,132.0781 L495.7344,133.1719 Q495.7344,134.4063 496.625,135.2266 Q497.5156,136.0469 499.1094,136.0469 Q500.0469,136.0469 500.7031,135.7969 Q501.0938,135.6406 501.5156,135.2031 Q501.7813,134.9375 501.9297,134.8594 Q502.0781,134.7813 502.2813,134.7813 Q502.6094,134.7813 502.8672,135.0391 Q503.125,135.2969 503.125,135.6406 Q503.125,135.9844 502.7813,136.3906 Q502.2813,136.9688 501.4844,137.2969 Q500.4063,137.75 499.1094,137.75 Q497.5938,137.75 496.3906,137.125 Q495.4063,136.625 494.7188,135.5547 Q494.0313,134.4844 494.0313,133.2031 L494.0313,132.0469 Q494.0313,130.7188 494.6484,129.5703 Q495.2656,128.4219 496.3594,127.8047 Q497.4531,127.1875 498.6875,127.1875 Q499.4219,127.1875 500.0703,127.3516 Q500.7188,127.5156 501.2656,127.875 Z "/><text fill="#000000" font-family="sans-serif" font-size="12" lengthAdjust="spacingAndGlyphs" textLength="80" x="512.5" y="136.9102">Consecuencia</text><line style="stroke: #A80036; stroke-width: 1.5;" x1="484.5" x2="594.5" y1="148" y2="148"/><line style="stroke: #A80036; stroke-width: 1.5;" x1="484.5" x2="594.5" y1="156" y2="156"/><!--class Caracteristica--><rect fill="#FEFECE" filter="url(#fita00uq1k85a)" height="48" id="Caracteristica" style="stroke: #A80036; stroke-width: 1.5;" width="107" x="325" y="224"/><ellipse cx="340" cy="240" fill="#A9DCDF" rx="11" ry="11" style="stroke: #A80036; stroke-width: 1.0;"/><path d="M342.1875,241.7656 L338.0469,241.7656 L337.625,242.7969 L338.0469,242.7969 Q338.6563,242.7969 338.9219,243.0313 Q339.1875,243.2656 339.1875,243.6563 Q339.1875,244.0313 338.9219,244.2656 Q338.6563,244.5 338.0469,244.5 L335.75,244.5 Q335.1406,244.5 334.8828,244.2656 Q334.625,244.0313 334.625,243.6406 Q334.625,243.2656 334.8984,243.0234 Q335.1719,242.7813 335.7969,242.7969 L338.4688,236.1406 L337.3594,236.1406 Q336.75,236.1406 336.4844,235.9063 Q336.2188,235.6719 336.2188,235.2813 Q336.2188,234.9063 336.4844,234.6719 Q336.75,234.4375 337.3594,234.4375 L341.0313,234.4375 L344.4219,242.7969 Q345.0156,242.7969 345.2031,242.9375 Q345.5938,243.2031 345.5938,243.6563 Q345.5938,244.0313 345.3359,244.2656 Q345.0781,244.5 344.4688,244.5 L342.1719,244.5 Q341.5625,244.5 341.2969,244.2656 Q341.0313,244.0313 341.0313,243.6406 Q341.0313,243.2656 341.2969,243.0313 Q341.5625,242.7969 342.1719,242.7969 L342.5938,242.7969 L342.1875,241.7656 Z M341.4688,240.0625 L340.1094,236.6875 L338.7344,240.0625 L341.4688,240.0625 Z "/><text fill="#000000" font-family="sans-serif" font-size="12" font-style="italic" lengthAdjust="spacingAndGlyphs" textLength="75" x="354" y="244.9102">Caracteristica</text><line style="stroke: #A80036; stroke-width: 1.5;" x1="326" x2="431" y1="256" y2="256"/><line style="stroke: #A80036; stroke-width: 1.5;" x1="326" x2="431" y1="264" y2="264"/><!--class Seguridad--><rect fill="#FEFECE" filter="url(#fita00uq1k85a)" height="48" id="Seguridad" style="stroke: #A80036; stroke-width: 1.5;" width="89" x="78" y="332"/><ellipse cx="93" cy="348" fill="#ADD1B2" rx="11" ry="11" style="stroke: #A80036; stroke-width: 1.0;"/><path d="M95.7656,343.875 Q95.9219,343.6563 96.1094,343.5469 Q96.2969,343.4375 96.5156,343.4375 Q96.8906,343.4375 97.125,343.6953 Q97.3594,343.9531 97.3594,344.5625 L97.3594,346.0156 Q97.3594,346.625 97.125,346.8906 Q96.8906,347.1563 96.5156,347.1563 Q96.1719,347.1563 95.9688,346.9531 Q95.7656,346.7656 95.6563,346.25 Q95.6094,345.8906 95.4219,345.7031 Q95.0938,345.3281 94.4844,345.1094 Q93.875,344.8906 93.25,344.8906 Q92.4844,344.8906 91.8516,345.2188 Q91.2188,345.5469 90.7266,346.2969 Q90.2344,347.0469 90.2344,348.0781 L90.2344,349.1719 Q90.2344,350.4063 91.125,351.2266 Q92.0156,352.0469 93.6094,352.0469 Q94.5469,352.0469 95.2031,351.7969 Q95.5938,351.6406 96.0156,351.2031 Q96.2813,350.9375 96.4297,350.8594 Q96.5781,350.7813 96.7813,350.7813 Q97.1094,350.7813 97.3672,351.0391 Q97.625,351.2969 97.625,351.6406 Q97.625,351.9844 97.2813,352.3906 Q96.7813,352.9688 95.9844,353.2969 Q94.9063,353.75 93.6094,353.75 Q92.0938,353.75 90.8906,353.125 Q89.9063,352.625 89.2188,351.5547 Q88.5313,350.4844 88.5313,349.2031 L88.5313,348.0469 Q88.5313,346.7188 89.1484,345.5703 Q89.7656,344.4219 90.8594,343.8047 Q91.9531,343.1875 93.1875,343.1875 Q93.9219,343.1875 94.5703,343.3516 Q95.2188,343.5156 95.7656,343.875 Z "/><text fill="#000000" font-family="sans-serif" font-size="12" lengthAdjust="spacingAndGlyphs" textLength="57" x="107" y="352.9102">Seguridad</text><line style="stroke: #A80036; stroke-width: 1.5;" x1="79" x2="166" y1="364" y2="364"/><line style="stroke: #A80036; stroke-width: 1.5;" x1="79" x2="166" y1="372" y2="372"/><!--class Interoperabiliad--><rect fill="#FEFECE" filter="url(#fita00uq1k85a)" height="48" id="Interoperabiliad" style="stroke: #A80036; stroke-width: 1.5;" width="118" x="202.5" y="332"/><ellipse cx="217.5" cy="348" fill="#ADD1B2" rx="11" ry="11" style="stroke: #A80036; stroke-width: 1.0;"/><path d="M220.2656,343.875 Q220.4219,343.6563 220.6094,343.5469 Q220.7969,343.4375 221.0156,343.4375 Q221.3906,343.4375 221.625,343.6953 Q221.8594,343.9531 221.8594,344.5625 L221.8594,346.0156 Q221.8594,346.625 221.625,346.8906 Q221.3906,347.1563 221.0156,347.1563 Q220.6719,347.1563 220.4688,346.9531 Q220.2656,346.7656 220.1563,346.25 Q220.1094,345.8906 219.9219,345.7031 Q219.5938,345.3281 218.9844,345.1094 Q218.375,344.8906 217.75,344.8906 Q216.9844,344.8906 216.3516,345.2188 Q215.7188,345.5469 215.2266,346.2969 Q214.7344,347.0469 214.7344,348.0781 L214.7344,349.1719 Q214.7344,350.4063 215.625,351.2266 Q216.5156,352.0469 218.1094,352.0469 Q219.0469,352.0469 219.7031,351.7969 Q220.0938,351.6406 220.5156,351.2031 Q220.7813,350.9375 220.9297,350.8594 Q221.0781,350.7813 221.2813,350.7813 Q221.6094,350.7813 221.8672,351.0391 Q222.125,351.2969 222.125,351.6406 Q222.125,351.9844 221.7813,352.3906 Q221.2813,352.9688 220.4844,353.2969 Q219.4063,353.75 218.1094,353.75 Q216.5938,353.75 215.3906,353.125 Q214.4063,352.625 213.7188,351.5547 Q213.0313,350.4844 213.0313,349.2031 L213.0313,348.0469 Q213.0313,346.7188 213.6484,345.5703 Q214.2656,344.4219 215.3594,343.8047 Q216.4531,343.1875 217.6875,343.1875 Q218.4219,343.1875 219.0703,343.3516 Q219.7188,343.5156 220.2656,343.875 Z "/><text fill="#000000" font-family="sans-serif" font-size="12" lengthAdjust="spacingAndGlyphs" textLength="86" x="231.5" y="352.9102">Interoperabiliad</text><line style="stroke: #A80036; stroke-width: 1.5;" x1="203.5" x2="319.5" y1="364" y2="364"/><line style="stroke: #A80036; stroke-width: 1.5;" x1="203.5" x2="319.5" y1="372" y2="372"/><!--class Mantenibilidad--><rect fill="#FEFECE" filter="url(#fita00uq1k85a)" height="48" id="Mantenibilidad" style="stroke: #A80036; stroke-width: 1.5;" width="112" x="355.5" y="332"/><ellipse cx="370.5" cy="348" fill="#ADD1B2" rx="11" ry="11" style="stroke: #A80036; stroke-width: 1.0;"/><path d="M373.2656,343.875 Q373.4219,343.6563 373.6094,343.5469 Q373.7969,343.4375 374.0156,343.4375 Q374.3906,343.4375 374.625,343.6953 Q374.8594,343.9531 374.8594,344.5625 L374.8594,346.0156 Q374.8594,346.625 374.625,346.8906 Q374.3906,347.1563 374.0156,347.1563 Q373.6719,347.1563 373.4688,346.9531 Q373.2656,346.7656 373.1563,346.25 Q373.1094,345.8906 372.9219,345.7031 Q372.5938,345.3281 371.9844,345.1094 Q371.375,344.8906 370.75,344.8906 Q369.9844,344.8906 369.3516,345.2188 Q368.7188,345.5469 368.2266,346.2969 Q367.7344,347.0469 367.7344,348.0781 L367.7344,349.1719 Q367.7344,350.4063 368.625,351.2266 Q369.5156,352.0469 371.1094,352.0469 Q372.0469,352.0469 372.7031,351.7969 Q373.0938,351.6406 373.5156,351.2031 Q373.7813,350.9375 373.9297,350.8594 Q374.0781,350.7813 374.2813,350.7813 Q374.6094,350.7813 374.8672,351.0391 Q375.125,351.2969 375.125,351.6406 Q375.125,351.9844 374.7813,352.3906 Q374.2813,352.9688 373.4844,353.2969 Q372.4063,353.75 371.1094,353.75 Q369.5938,353.75 368.3906,353.125 Q367.4063,352.625 366.7188,351.5547 Q366.0313,350.4844 366.0313,349.2031 L366.0313,348.0469 Q366.0313,346.7188 366.6484,345.5703 Q367.2656,344.4219 368.3594,343.8047 Q369.4531,343.1875 370.6875,343.1875 Q371.4219,343.1875 372.0703,343.3516 Q372.7188,343.5156 373.2656,343.875 Z "/><text fill="#000000" font-family="sans-serif" font-size="12" lengthAdjust="spacingAndGlyphs" textLength="80" x="384.5" y="352.9102">Mantenibilidad</text><line style="stroke: #A80036; stroke-width: 1.5;" x1="356.5" x2="466.5" y1="364" y2="364"/><line style="stroke: #A80036; stroke-width: 1.5;" x1="356.5" x2="466.5" y1="372" y2="372"/><!--class Compromiso--><rect fill="#FEFECE" filter="url(#fita00uq1k85a)" height="48" id="Compromiso" style="stroke: #A80036; stroke-width: 1.5;" width="105" x="487" y="224"/><ellipse cx="502" cy="240" fill="#ADD1B2" rx="11" ry="11" style="stroke: #A80036; stroke-width: 1.0;"/><path d="M504.7656,235.875 Q504.9219,235.6563 505.1094,235.5469 Q505.2969,235.4375 505.5156,235.4375 Q505.8906,235.4375 506.125,235.6953 Q506.3594,235.9531 506.3594,236.5625 L506.3594,238.0156 Q506.3594,238.625 506.125,238.8906 Q505.8906,239.1563 505.5156,239.1563 Q505.1719,239.1563 504.9688,238.9531 Q504.7656,238.7656 504.6563,238.25 Q504.6094,237.8906 504.4219,237.7031 Q504.0938,237.3281 503.4844,237.1094 Q502.875,236.8906 502.25,236.8906 Q501.4844,236.8906 500.8516,237.2188 Q500.2188,237.5469 499.7266,238.2969 Q499.2344,239.0469 499.2344,240.0781 L499.2344,241.1719 Q499.2344,242.4063 500.125,243.2266 Q501.0156,244.0469 502.6094,244.0469 Q503.5469,244.0469 504.2031,243.7969 Q504.5938,243.6406 505.0156,243.2031 Q505.2813,242.9375 505.4297,242.8594 Q505.5781,242.7813 505.7813,242.7813 Q506.1094,242.7813 506.3672,243.0391 Q506.625,243.2969 506.625,243.6406 Q506.625,243.9844 506.2813,244.3906 Q505.7813,244.9688 504.9844,245.2969 Q503.9063,245.75 502.6094,245.75 Q501.0938,245.75 499.8906,245.125 Q498.9063,244.625 498.2188,243.5547 Q497.5313,242.4844 497.5313,241.2031 L497.5313,240.0469 Q497.5313,238.7188 498.1484,237.5703 Q498.7656,236.4219 499.8594,235.8047 Q500.9531,235.1875 502.1875,235.1875 Q502.9219,235.1875 503.5703,235.3516 Q504.2188,235.5156 504.7656,235.875 Z "/><text fill="#000000" font-family="sans-serif" font-size="12" lengthAdjust="spacingAndGlyphs" textLength="73" x="516" y="244.9102">Compromiso</text><line style="stroke: #A80036; stroke-width: 1.5;" x1="488" x2="591" y1="256" y2="256"/><line style="stroke: #A80036; stroke-width: 1.5;" x1="488" x2="591" y1="264" y2="264"/><!--class Ventaja--><rect fill="#FEFECE" filter="url(#fita00uq1k85a)" height="48" id="Ventaja" style="stroke: #A80036; stroke-width: 1.5;" width="73" x="503" y="332"/><ellipse cx="518" cy="348" fill="#ADD1B2" rx="11" ry="11" style="stroke: #A80036; stroke-width: 1.0;"/><path d="M520.7656,343.875 Q520.9219,343.6563 521.1094,343.5469 Q521.2969,343.4375 521.5156,343.4375 Q521.8906,343.4375 522.125,343.6953 Q522.3594,343.9531 522.3594,344.5625 L522.3594,346.0156 Q522.3594,346.625 522.125,346.8906 Q521.8906,347.1563 521.5156,347.1563 Q521.1719,347.1563 520.9688,346.9531 Q520.7656,346.7656 520.6563,346.25 Q520.6094,345.8906 520.4219,345.7031 Q520.0938,345.3281 519.4844,345.1094 Q518.875,344.8906 518.25,344.8906 Q517.4844,344.8906 516.8516,345.2188 Q516.2188,345.5469 515.7266,346.2969 Q515.2344,347.0469 515.2344,348.0781 L515.2344,349.1719 Q515.2344,350.4063 516.125,351.2266 Q517.0156,352.0469 518.6094,352.0469 Q519.5469,352.0469 520.2031,351.7969 Q520.5938,351.6406 521.0156,351.2031 Q521.2813,350.9375 521.4297,350.8594 Q521.5781,350.7813 521.7813,350.7813 Q522.1094,350.7813 522.3672,351.0391 Q522.625,351.2969 522.625,351.6406 Q522.625,351.9844 522.2813,352.3906 Q521.7813,352.9688 520.9844,353.2969 Q519.9063,353.75 518.6094,353.75 Q517.0938,353.75 515.8906,353.125 Q514.9063,352.625 514.2188,351.5547 Q513.5313,350.4844 513.5313,349.2031 L513.5313,348.0469 Q513.5313,346.7188 514.1484,345.5703 Q514.7656,344.4219 515.8594,343.8047 Q516.9531,343.1875 518.1875,343.1875 Q518.9219,343.1875 519.5703,343.3516 Q520.2188,343.5156 520.7656,343.875 Z "/><text fill="#000000" font-family="sans-serif" font-size="12" lengthAdjust="spacingAndGlyphs" textLength="41" x="532" y="352.9102">Ventaja</text><line style="stroke: #A80036; stroke-width: 1.5;" x1="504" x2="575" y1="364" y2="364"/><line style="stroke: #A80036; stroke-width: 1.5;" x1="504" x2="575" y1="372" y2="372"/><!--class Desventaja--><rect fill="#FEFECE" filter="url(#fita00uq1k85a)" height="48" id="Desventaja" style="stroke: #A80036; stroke-width: 1.5;" width="94" x="611.5" y="332"/><ellipse cx="626.5" cy="348" fill="#ADD1B2" rx="11" ry="11" style="stroke: #A80036; stroke-width: 1.0;"/><path d="M629.2656,343.875 Q629.4219,343.6563 629.6094,343.5469 Q629.7969,343.4375 630.0156,343.4375 Q630.3906,343.4375 630.625,343.6953 Q630.8594,343.9531 630.8594,344.5625 L630.8594,346.0156 Q630.8594,346.625 630.625,346.8906 Q630.3906,347.1563 630.0156,347.1563 Q629.6719,347.1563 629.4688,346.9531 Q629.2656,346.7656 629.1563,346.25 Q629.1094,345.8906 628.9219,345.7031 Q628.5938,345.3281 627.9844,345.1094 Q627.375,344.8906 626.75,344.8906 Q625.9844,344.8906 625.3516,345.2188 Q624.7188,345.5469 624.2266,346.2969 Q623.7344,347.0469 623.7344,348.0781 L623.7344,349.1719 Q623.7344,350.4063 624.625,351.2266 Q625.5156,352.0469 627.1094,352.0469 Q628.0469,352.0469 628.7031,351.7969 Q629.0938,351.6406 629.5156,351.2031 Q629.7813,350.9375 629.9297,350.8594 Q630.0781,350.7813 630.2813,350.7813 Q630.6094,350.7813 630.8672,351.0391 Q631.125,351.2969 631.125,351.6406 Q631.125,351.9844 630.7813,352.3906 Q630.2813,352.9688 629.4844,353.2969 Q628.4063,353.75 627.1094,353.75 Q625.5938,353.75 624.3906,353.125 Q623.4063,352.625 622.7188,351.5547 Q622.0313,350.4844 622.0313,349.2031 L622.0313,348.0469 Q622.0313,346.7188 622.6484,345.5703 Q623.2656,344.4219 624.3594,343.8047 Q625.4531,343.1875 626.6875,343.1875 Q627.4219,343.1875 628.0703,343.3516 Q628.7188,343.5156 629.2656,343.875 Z "/><text fill="#000000" font-family="sans-serif" font-size="12" lengthAdjust="spacingAndGlyphs" textLength="62" x="640.5" y="352.9102">Desventaja</text><line style="stroke: #A80036; stroke-width: 1.5;" x1="612.5" x2="704.5" y1="364" y2="364"/><line style="stroke: #A80036; stroke-width: 1.5;" x1="612.5" x2="704.5" y1="372" y2="372"/><!--link Problema to ProblemaRecurrente--><path d="M139.5,76.024 C139.5,89.579 139.5,104.038 139.5,115.678 " fill="none" id="Problema-ProblemaRecurrente" style="stroke: #A80036; stroke-width: 1.0;"/><polygon fill="none" points="132.5,76,139.5,56,146.5,76,132.5,76" style="stroke: #A80036; stroke-width: 1.0;"/><!--link Patron to ProblemaRecurrente--><path d="M344.257,48.187 C305.698,65.289 242.427,93.35 196.409,113.76 " fill="none" id="Patron-ProblemaRecurrente" style="stroke: #A80036; stroke-width: 1.0;"/><polygon fill="#A80036" points="191.73,115.835,201.5789,115.8433,196.3008,113.8082,198.3359,108.5301,191.73,115.835" style="stroke: #A80036; stroke-width: 1.0;"/><!--link Patron to Solucion--><path d="M378.5,56 C378.5,72.003 378.5,93.446 378.5,110.528 " fill="none" id="Patron-Solucion" style="stroke: #A80036; stroke-width: 1.0;"/><polygon fill="#A80036" points="378.5,115.678,382.5,106.678,378.5,110.678,374.5,106.678,378.5,115.678" style="stroke: #A80036; stroke-width: 1.0;"/><!--link Patron to Consecuencia--><path d="M412.644,55.48 C438.228,72.324 473.289,95.408 500.068,113.039 " fill="none" id="Patron-Consecuencia" style="stroke: #A80036; stroke-width: 1.0;"/><polygon fill="#A80036" points="504.292,115.82,498.9736,107.5305,500.1156,113.0709,494.5752,114.2129,504.292,115.82" style="stroke: #A80036; stroke-width: 1.0;"/><text fill="#000000" font-family="sans-serif" font-size="13" lengthAdjust="spacingAndGlyphs" textLength="5" x="489.6293" y="105.114">*</text><!--link Solucion to Caracteristica--><path d="M378.5,177.338 C378.5,188.006 378.5,199.677 378.5,210.364 " fill="none" id="Solucion-Caracteristica" style="stroke: #A80036; stroke-width: 1.0;"/><polygon fill="#A80036" points="378.5,223.678,382.5,214.678,378.5,218.678,374.5,214.678,378.5,223.678" style="stroke: #A80036; stroke-width: 1.0;"/><line style="stroke: #A80036; stroke-width: 1.0;" x1="378.5" x2="378.5" y1="218.678" y2="210.678"/><polygon fill="#A80036" points="378.5,164,374.5,170,378.5,176,382.5,170,378.5,164" style="stroke: #A80036; stroke-width: 1.0;"/><text fill="#000000" font-family="sans-serif" font-size="13" lengthAdjust="spacingAndGlyphs" textLength="5" x="372.8906" y="213.3375">*</text><!--link Caracteristica to Seguridad--><path d="M306.13,278.966 C261.416,297.48 205.458,320.6503 167.139,336.5168 " fill="none" id="Caracteristica-Seguridad" style="stroke: #A80036; stroke-width: 1.0;"/><polygon fill="none" points="303.677,272.405,324.834,271.221,309.033,285.3399,303.677,272.405" style="stroke: #A80036; stroke-width: 1.0;"/><!--link Caracteristica to Interoperabiliad--><path d="M338.131,285.5733 C321.26,300.8589 302.155,318.1673 287.242,331.6784 " fill="none" id="Caracteristica-Interoperabiliad" style="stroke: #A80036; stroke-width: 1.0;"/><polygon fill="none" points="333.591,280.2411,353.113,272,342.991,290.6163,333.591,280.2411" style="stroke: #A80036; stroke-width: 1.0;"/><!--link Caracteristica to Mantenibilidad--><path d="M391.744,291.5399 C396.007,305.2345 400.572,319.8995 404.24,331.6784 " fill="none" id="Caracteristica-Mantenibilidad" style="stroke: #A80036; stroke-width: 1.0;"/><polygon fill="none" points="384.922,293.1772,385.661,272,398.289,289.0157,384.922,293.1772" style="stroke: #A80036; stroke-width: 1.0;"/><!--link Consecuencia to Compromiso--><path d="M539.5,177.338 C539.5,188.006 539.5,199.677 539.5,210.364 " fill="none" id="Consecuencia-Compromiso" style="stroke: #A80036; stroke-width: 1.0;"/><polygon fill="#A80036" points="539.5,223.678,543.5,214.678,539.5,218.678,535.5,214.678,539.5,223.678" style="stroke: #A80036; stroke-width: 1.0;"/><line style="stroke: #A80036; stroke-width: 1.0;" x1="539.5" x2="539.5" y1="218.678" y2="210.678"/><polygon fill="#A80036" points="539.5,164,535.5,170,539.5,176,543.5,170,539.5,164" style="stroke: #A80036; stroke-width: 1.0;"/><!--link Compromiso to Ventaja--><path d="M539.5,285.3383 C539.5,296.0064 539.5,307.6772 539.5,318.3638 " fill="none" id="Compromiso-Ventaja" style="stroke: #A80036; stroke-width: 1.0;"/><polygon fill="#A80036" points="539.5,331.6784,543.5,322.6784,539.5,326.6784,535.5,322.6784,539.5,331.6784" style="stroke: #A80036; stroke-width: 1.0;"/><line style="stroke: #A80036; stroke-width: 1.0;" x1="539.5" x2="539.5" y1="326.6784" y2="318.6785"/><polygon fill="#A80036" points="539.5,272,535.5,278,539.5,284,543.5,278,539.5,272" style="stroke: #A80036; stroke-width: 1.0;"/><!--link Compromiso to Desventaja--><path d="M575.102,280.7125 C590.038,294.0167 607.383,309.4671 622.374,322.8207 " fill="none" id="Compromiso-Desventaja" style="stroke: #A80036; stroke-width: 1.0;"/><polygon fill="#A80036" points="632.318,331.6784,628.2583,322.7052,628.5845,328.3526,622.937,328.6788,632.318,331.6784" style="stroke: #A80036; stroke-width: 1.0;"/><line style="stroke: #A80036; stroke-width: 1.0;" x1="628.5845" x2="622.6105" y1="328.3526" y2="323.0316"/><polygon fill="#A80036" points="565.321,272,567.1405,278.9778,574.2813,279.982,572.4618,273.0042,565.321,272" style="stroke: #A80036; stroke-width: 1.0;"/><!--link Caracteristica to Compromiso--><path d="M437.376,248 C453.825,248 470.274,248 486.723,248 " fill="none" id="Caracteristica-Compromiso" style="stroke: #A80036; stroke-width: 1.0;"/><polygon fill="#A80036" points="432.271,248,441.271,252,437.271,248,441.271,244,432.271,248" style="stroke: #A80036; stroke-width: 1.0;"/><text fill="#000000" font-family="sans-serif" font-size="13" lengthAdjust="spacingAndGlyphs" textLength="5" x="439.8324" y="244.4437">*</text><!--
@startuml
skinparam packageStyle rect

abstract class "Patrón" as Patron
class "Problema de Diseño/Rediseño" as Problema
class "Problema de Diseño/Rediseño Recurrente" as ProblemaRecurrente
class "Solución de Diseño" as Solucion
class Consecuencia
abstract class Caracteristica

Problema <|-down- ProblemaRecurrente
Patron -down-> ProblemaRecurrente
Patron -down-> Solucion
Patron -down-> "*" Consecuencia
Solucion *-down-> "*" Caracteristica
Caracteristica <|-down- Seguridad
Caracteristica <|-down- Interoperabiliad
Caracteristica <|-down- Mantenibilidad
Consecuencia *-down-> Compromiso
Compromiso *-down-> Ventaja
Compromiso *-down-> Desventaja
Compromiso -left-> "*" Caracteristica
@enduml

PlantUML version 1.2019.05(Sat Apr 20 18:45:36 CEST 2019)
(GPL source distribution)
Java Runtime: Java(TM) SE Runtime Environment
JVM: Java HotSpot(TM) 64-Bit Server VM
Java Version: 1.8.0_211-b12
Operating System: Windows 10
OS Version: 10.0
Default Encoding: windows-1252
Language: es
Country: ES
--></g></svg>