<?xml version="1.0" encoding="UTF-8" standalone="no"?><svg xmlns="http://www.w3.org/2000/svg" xmlns:xlink="http://www.w3.org/1999/xlink" contentScriptType="application/ecmascript" contentStyleType="text/css" height="595px" preserveAspectRatio="none" style="width:792px;height:595px;" version="1.1" viewBox="0 0 792 595" width="792px" zoomAndPan="magnify"><defs><filter height="300%" id="f1m4d6lt45s0ob" width="300%" x="-1" y="-1"><feGaussianBlur result="blurOut" stdDeviation="2.0"/><feColorMatrix in="blurOut" result="blurOut2" type="matrix" values="0 0 0 0 0 0 0 0 0 0 0 0 0 0 0 0 0 0 .4 0"/><feOffset dx="4.0" dy="4.0" in="blurOut2" result="blurOut3"/><feBlend in="SourceGraphic" in2="blurOut3" mode="normal"/></filter></defs><g><!--cluster efectividad--><!--cluster modularizacion--><!--cluster capacidades--><!--class Eficacia--><rect fill="#008000" filter="url(#f1m4d6lt45s0ob)" height="48" id="Eficacia" style="stroke: #A80036; stroke-width: 1.5;" width="75" x="586.5" y="536"/><rect fill="#008000" height="32" style="stroke: #A80036; stroke-width: 1.5;" width="75" x="586.5" y="536"/><ellipse cx="601.5" cy="552" fill="#ADD1B2" rx="11" ry="11" style="stroke: #A80036; stroke-width: 1.0;"/><path d="M604.2656,547.875 Q604.4219,547.6563 604.6094,547.5469 Q604.7969,547.4375 605.0156,547.4375 Q605.3906,547.4375 605.625,547.6953 Q605.8594,547.9531 605.8594,548.5625 L605.8594,550.0156 Q605.8594,550.625 605.625,550.8906 Q605.3906,551.1563 605.0156,551.1563 Q604.6719,551.1563 604.4688,550.9531 Q604.2656,550.7656 604.1563,550.25 Q604.1094,549.8906 603.9219,549.7031 Q603.5938,549.3281 602.9844,549.1094 Q602.375,548.8906 601.75,548.8906 Q600.9844,548.8906 600.3516,549.2188 Q599.7188,549.5469 599.2266,550.2969 Q598.7344,551.0469 598.7344,552.0781 L598.7344,553.1719 Q598.7344,554.4063 599.625,555.2266 Q600.5156,556.0469 602.1094,556.0469 Q603.0469,556.0469 603.7031,555.7969 Q604.0938,555.6406 604.5156,555.2031 Q604.7813,554.9375 604.9297,554.8594 Q605.0781,554.7813 605.2813,554.7813 Q605.6094,554.7813 605.8672,555.0391 Q606.125,555.2969 606.125,555.6406 Q606.125,555.9844 605.7813,556.3906 Q605.2813,556.9688 604.4844,557.2969 Q603.4063,557.75 602.1094,557.75 Q600.5938,557.75 599.3906,557.125 Q598.4063,556.625 597.7188,555.5547 Q597.0313,554.4844 597.0313,553.2031 L597.0313,552.0469 Q597.0313,550.7188 597.6484,549.5703 Q598.2656,548.4219 599.3594,547.8047 Q600.4531,547.1875 601.6875,547.1875 Q602.4219,547.1875 603.0703,547.3516 Q603.7188,547.5156 604.2656,547.875 Z "/><text fill="#000000" font-family="sans-serif" font-size="12" lengthAdjust="spacingAndGlyphs" textLength="43" x="615.5" y="556.9102">Eficacia</text><line style="stroke: #A80036; stroke-width: 1.5;" x1="587.5" x2="660.5" y1="568" y2="568"/><line style="stroke: #A80036; stroke-width: 1.5;" x1="587.5" x2="660.5" y1="576" y2="576"/><!--class Eficiencia--><rect fill="#008000" filter="url(#f1m4d6lt45s0ob)" height="48" id="Eficiencia" style="stroke: #A80036; stroke-width: 1.5;" width="85" x="696.5" y="536"/><rect fill="#008000" height="32" style="stroke: #A80036; stroke-width: 1.5;" width="85" x="696.5" y="536"/><ellipse cx="711.5" cy="552" fill="#ADD1B2" rx="11" ry="11" style="stroke: #A80036; stroke-width: 1.0;"/><path d="M714.2656,547.875 Q714.4219,547.6563 714.6094,547.5469 Q714.7969,547.4375 715.0156,547.4375 Q715.3906,547.4375 715.625,547.6953 Q715.8594,547.9531 715.8594,548.5625 L715.8594,550.0156 Q715.8594,550.625 715.625,550.8906 Q715.3906,551.1563 715.0156,551.1563 Q714.6719,551.1563 714.4688,550.9531 Q714.2656,550.7656 714.1563,550.25 Q714.1094,549.8906 713.9219,549.7031 Q713.5938,549.3281 712.9844,549.1094 Q712.375,548.8906 711.75,548.8906 Q710.9844,548.8906 710.3516,549.2188 Q709.7188,549.5469 709.2266,550.2969 Q708.7344,551.0469 708.7344,552.0781 L708.7344,553.1719 Q708.7344,554.4063 709.625,555.2266 Q710.5156,556.0469 712.1094,556.0469 Q713.0469,556.0469 713.7031,555.7969 Q714.0938,555.6406 714.5156,555.2031 Q714.7813,554.9375 714.9297,554.8594 Q715.0781,554.7813 715.2813,554.7813 Q715.6094,554.7813 715.8672,555.0391 Q716.125,555.2969 716.125,555.6406 Q716.125,555.9844 715.7813,556.3906 Q715.2813,556.9688 714.4844,557.2969 Q713.4063,557.75 712.1094,557.75 Q710.5938,557.75 709.3906,557.125 Q708.4063,556.625 707.7188,555.5547 Q707.0313,554.4844 707.0313,553.2031 L707.0313,552.0469 Q707.0313,550.7188 707.6484,549.5703 Q708.2656,548.4219 709.3594,547.8047 Q710.4531,547.1875 711.6875,547.1875 Q712.4219,547.1875 713.0703,547.3516 Q713.7188,547.5156 714.2656,547.875 Z "/><text fill="#000000" font-family="sans-serif" font-size="12" lengthAdjust="spacingAndGlyphs" textLength="53" x="725.5" y="556.9102">Eficiencia</text><line style="stroke: #A80036; stroke-width: 1.5;" x1="697.5" x2="780.5" y1="568" y2="568"/><line style="stroke: #A80036; stroke-width: 1.5;" x1="697.5" x2="780.5" y1="576" y2="576"/><!--class Equilibrio--><rect fill="#008000" filter="url(#f1m4d6lt45s0ob)" height="48" id="Equilibrio" style="stroke: #A80036; stroke-width: 1.5;" width="84" x="623" y="428"/><rect fill="#008000" height="32" style="stroke: #A80036; stroke-width: 1.5;" width="84" x="623" y="428"/><ellipse cx="638" cy="444" fill="#ADD1B2" rx="11" ry="11" style="stroke: #A80036; stroke-width: 1.0;"/><path d="M640.7656,439.875 Q640.9219,439.6563 641.1094,439.5469 Q641.2969,439.4375 641.5156,439.4375 Q641.8906,439.4375 642.125,439.6953 Q642.3594,439.9531 642.3594,440.5625 L642.3594,442.0156 Q642.3594,442.625 642.125,442.8906 Q641.8906,443.1563 641.5156,443.1563 Q641.1719,443.1563 640.9688,442.9531 Q640.7656,442.7656 640.6563,442.25 Q640.6094,441.8906 640.4219,441.7031 Q640.0938,441.3281 639.4844,441.1094 Q638.875,440.8906 638.25,440.8906 Q637.4844,440.8906 636.8516,441.2188 Q636.2188,441.5469 635.7266,442.2969 Q635.2344,443.0469 635.2344,444.0781 L635.2344,445.1719 Q635.2344,446.4063 636.125,447.2266 Q637.0156,448.0469 638.6094,448.0469 Q639.5469,448.0469 640.2031,447.7969 Q640.5938,447.6406 641.0156,447.2031 Q641.2813,446.9375 641.4297,446.8594 Q641.5781,446.7813 641.7813,446.7813 Q642.1094,446.7813 642.3672,447.0391 Q642.625,447.2969 642.625,447.6406 Q642.625,447.9844 642.2813,448.3906 Q641.7813,448.9688 640.9844,449.2969 Q639.9063,449.75 638.6094,449.75 Q637.0938,449.75 635.8906,449.125 Q634.9063,448.625 634.2188,447.5547 Q633.5313,446.4844 633.5313,445.2031 L633.5313,444.0469 Q633.5313,442.7188 634.1484,441.5703 Q634.7656,440.4219 635.8594,439.8047 Q636.9531,439.1875 638.1875,439.1875 Q638.9219,439.1875 639.5703,439.3516 Q640.2188,439.5156 640.7656,439.875 Z "/><text fill="#000000" font-family="sans-serif" font-size="12" lengthAdjust="spacingAndGlyphs" textLength="52" x="652" y="448.9102">Equilibrio</text><line style="stroke: #A80036; stroke-width: 1.5;" x1="624" x2="706" y1="460" y2="460"/><line style="stroke: #A80036; stroke-width: 1.5;" x1="624" x2="706" y1="468" y2="468"/><!--class Efectividad--><rect fill="#008000" filter="url(#f1m4d6lt45s0ob)" height="48" id="Efectividad" style="stroke: #A80036; stroke-width: 1.5;" width="91" x="602.5" y="320"/><rect fill="#008000" height="32" style="stroke: #A80036; stroke-width: 1.5;" width="91" x="602.5" y="320"/><ellipse cx="617.5" cy="336" fill="#ADD1B2" rx="11" ry="11" style="stroke: #A80036; stroke-width: 1.0;"/><path d="M620.2656,331.875 Q620.4219,331.6563 620.6094,331.5469 Q620.7969,331.4375 621.0156,331.4375 Q621.3906,331.4375 621.625,331.6953 Q621.8594,331.9531 621.8594,332.5625 L621.8594,334.0156 Q621.8594,334.625 621.625,334.8906 Q621.3906,335.1563 621.0156,335.1563 Q620.6719,335.1563 620.4688,334.9531 Q620.2656,334.7656 620.1563,334.25 Q620.1094,333.8906 619.9219,333.7031 Q619.5938,333.3281 618.9844,333.1094 Q618.375,332.8906 617.75,332.8906 Q616.9844,332.8906 616.3516,333.2188 Q615.7188,333.5469 615.2266,334.2969 Q614.7344,335.0469 614.7344,336.0781 L614.7344,337.1719 Q614.7344,338.4063 615.625,339.2266 Q616.5156,340.0469 618.1094,340.0469 Q619.0469,340.0469 619.7031,339.7969 Q620.0938,339.6406 620.5156,339.2031 Q620.7813,338.9375 620.9297,338.8594 Q621.0781,338.7813 621.2813,338.7813 Q621.6094,338.7813 621.8672,339.0391 Q622.125,339.2969 622.125,339.6406 Q622.125,339.9844 621.7813,340.3906 Q621.2813,340.9688 620.4844,341.2969 Q619.4063,341.75 618.1094,341.75 Q616.5938,341.75 615.3906,341.125 Q614.4063,340.625 613.7188,339.5547 Q613.0313,338.4844 613.0313,337.2031 L613.0313,336.0469 Q613.0313,334.7188 613.6484,333.5703 Q614.2656,332.4219 615.3594,331.8047 Q616.4531,331.1875 617.6875,331.1875 Q618.4219,331.1875 619.0703,331.3516 Q619.7188,331.5156 620.2656,331.875 Z "/><text fill="#000000" font-family="sans-serif" font-size="12" lengthAdjust="spacingAndGlyphs" textLength="59" x="631.5" y="340.9102">Efectividad</text><line style="stroke: #A80036; stroke-width: 1.5;" x1="603.5" x2="692.5" y1="352" y2="352"/><line style="stroke: #A80036; stroke-width: 1.5;" x1="603.5" x2="692.5" y1="360" y2="360"/><!--class Solucion--><rect fill="#008000" filter="url(#f1m4d6lt45s0ob)" height="48" id="Solucion" style="stroke: #A80036; stroke-width: 1.5;" width="80" x="608" y="212"/><rect fill="#008000" height="32" style="stroke: #A80036; stroke-width: 1.5;" width="80" x="608" y="212"/><ellipse cx="623" cy="228" fill="#ADD1B2" rx="11" ry="11" style="stroke: #A80036; stroke-width: 1.0;"/><path d="M625.7656,223.875 Q625.9219,223.6563 626.1094,223.5469 Q626.2969,223.4375 626.5156,223.4375 Q626.8906,223.4375 627.125,223.6953 Q627.3594,223.9531 627.3594,224.5625 L627.3594,226.0156 Q627.3594,226.625 627.125,226.8906 Q626.8906,227.1563 626.5156,227.1563 Q626.1719,227.1563 625.9688,226.9531 Q625.7656,226.7656 625.6563,226.25 Q625.6094,225.8906 625.4219,225.7031 Q625.0938,225.3281 624.4844,225.1094 Q623.875,224.8906 623.25,224.8906 Q622.4844,224.8906 621.8516,225.2188 Q621.2188,225.5469 620.7266,226.2969 Q620.2344,227.0469 620.2344,228.0781 L620.2344,229.1719 Q620.2344,230.4063 621.125,231.2266 Q622.0156,232.0469 623.6094,232.0469 Q624.5469,232.0469 625.2031,231.7969 Q625.5938,231.6406 626.0156,231.2031 Q626.2813,230.9375 626.4297,230.8594 Q626.5781,230.7813 626.7813,230.7813 Q627.1094,230.7813 627.3672,231.0391 Q627.625,231.2969 627.625,231.6406 Q627.625,231.9844 627.2813,232.3906 Q626.7813,232.9688 625.9844,233.2969 Q624.9063,233.75 623.6094,233.75 Q622.0938,233.75 620.8906,233.125 Q619.9063,232.625 619.2188,231.5547 Q618.5313,230.4844 618.5313,229.2031 L618.5313,228.0469 Q618.5313,226.7188 619.1484,225.5703 Q619.7656,224.4219 620.8594,223.8047 Q621.9531,223.1875 623.1875,223.1875 Q623.9219,223.1875 624.5703,223.3516 Q625.2188,223.5156 625.7656,223.875 Z "/><text fill="#000000" font-family="sans-serif" font-size="12" lengthAdjust="spacingAndGlyphs" textLength="48" x="637" y="232.9102">Solución</text><line style="stroke: #A80036; stroke-width: 1.5;" x1="609" x2="687" y1="244" y2="244"/><line style="stroke: #A80036; stroke-width: 1.5;" x1="609" x2="687" y1="252" y2="252"/><!--class Capacidad--><rect fill="#FF0000" filter="url(#f1m4d6lt45s0ob)" height="48" id="Capacidad" style="stroke: #A80036; stroke-width: 1.5;" width="131" x="205.5" y="104"/><rect fill="#FF0000" height="32" style="stroke: #A80036; stroke-width: 1.5;" width="131" x="205.5" y="104"/><ellipse cx="220.5" cy="120" fill="#ADD1B2" rx="11" ry="11" style="stroke: #A80036; stroke-width: 1.0;"/><path d="M223.2656,115.875 Q223.4219,115.6563 223.6094,115.5469 Q223.7969,115.4375 224.0156,115.4375 Q224.3906,115.4375 224.625,115.6953 Q224.8594,115.9531 224.8594,116.5625 L224.8594,118.0156 Q224.8594,118.625 224.625,118.8906 Q224.3906,119.1563 224.0156,119.1563 Q223.6719,119.1563 223.4688,118.9531 Q223.2656,118.7656 223.1563,118.25 Q223.1094,117.8906 222.9219,117.7031 Q222.5938,117.3281 221.9844,117.1094 Q221.375,116.8906 220.75,116.8906 Q219.9844,116.8906 219.3516,117.2188 Q218.7188,117.5469 218.2266,118.2969 Q217.7344,119.0469 217.7344,120.0781 L217.7344,121.1719 Q217.7344,122.4063 218.625,123.2266 Q219.5156,124.0469 221.1094,124.0469 Q222.0469,124.0469 222.7031,123.7969 Q223.0938,123.6406 223.5156,123.2031 Q223.7813,122.9375 223.9297,122.8594 Q224.0781,122.7813 224.2813,122.7813 Q224.6094,122.7813 224.8672,123.0391 Q225.125,123.2969 225.125,123.6406 Q225.125,123.9844 224.7813,124.3906 Q224.2813,124.9688 223.4844,125.2969 Q222.4063,125.75 221.1094,125.75 Q219.5938,125.75 218.3906,125.125 Q217.4063,124.625 216.7188,123.5547 Q216.0313,122.4844 216.0313,121.2031 L216.0313,120.0469 Q216.0313,118.7188 216.6484,117.5703 Q217.2656,116.4219 218.3594,115.8047 Q219.4531,115.1875 220.6875,115.1875 Q221.4219,115.1875 222.0703,115.3516 Q222.7188,115.5156 223.2656,115.875 Z "/><text fill="#000000" font-family="sans-serif" font-size="12" lengthAdjust="spacingAndGlyphs" textLength="99" x="234.5" y="124.9102">Capacidad Mental</text><line style="stroke: #A80036; stroke-width: 1.5;" x1="206.5" x2="335.5" y1="136" y2="136"/><line style="stroke: #A80036; stroke-width: 1.5;" x1="206.5" x2="335.5" y1="144" y2="144"/><!--class Limitacion--><rect fill="#FF0000" filter="url(#f1m4d6lt45s0ob)" height="48" id="Limitacion" style="stroke: #A80036; stroke-width: 1.5;" width="89" x="62.5" y="320"/><rect fill="#FF0000" height="32" style="stroke: #A80036; stroke-width: 1.5;" width="89" x="62.5" y="320"/><ellipse cx="77.5" cy="336" fill="#ADD1B2" rx="11" ry="11" style="stroke: #A80036; stroke-width: 1.0;"/><path d="M80.2656,331.875 Q80.4219,331.6563 80.6094,331.5469 Q80.7969,331.4375 81.0156,331.4375 Q81.3906,331.4375 81.625,331.6953 Q81.8594,331.9531 81.8594,332.5625 L81.8594,334.0156 Q81.8594,334.625 81.625,334.8906 Q81.3906,335.1563 81.0156,335.1563 Q80.6719,335.1563 80.4688,334.9531 Q80.2656,334.7656 80.1563,334.25 Q80.1094,333.8906 79.9219,333.7031 Q79.5938,333.3281 78.9844,333.1094 Q78.375,332.8906 77.75,332.8906 Q76.9844,332.8906 76.3516,333.2188 Q75.7188,333.5469 75.2266,334.2969 Q74.7344,335.0469 74.7344,336.0781 L74.7344,337.1719 Q74.7344,338.4063 75.625,339.2266 Q76.5156,340.0469 78.1094,340.0469 Q79.0469,340.0469 79.7031,339.7969 Q80.0938,339.6406 80.5156,339.2031 Q80.7813,338.9375 80.9297,338.8594 Q81.0781,338.7813 81.2813,338.7813 Q81.6094,338.7813 81.8672,339.0391 Q82.125,339.2969 82.125,339.6406 Q82.125,339.9844 81.7813,340.3906 Q81.2813,340.9688 80.4844,341.2969 Q79.4063,341.75 78.1094,341.75 Q76.5938,341.75 75.3906,341.125 Q74.4063,340.625 73.7188,339.5547 Q73.0313,338.4844 73.0313,337.2031 L73.0313,336.0469 Q73.0313,334.7188 73.6484,333.5703 Q74.2656,332.4219 75.3594,331.8047 Q76.4531,331.1875 77.6875,331.1875 Q78.4219,331.1875 79.0703,331.3516 Q79.7188,331.5156 80.2656,331.875 Z "/><text fill="#000000" font-family="sans-serif" font-size="12" lengthAdjust="spacingAndGlyphs" textLength="57" x="91.5" y="340.9102">Limitación</text><line style="stroke: #A80036; stroke-width: 1.5;" x1="63.5" x2="150.5" y1="352" y2="352"/><line style="stroke: #A80036; stroke-width: 1.5;" x1="63.5" x2="150.5" y1="360" y2="360"/><!--class CapacidadCuantitativa--><rect fill="#FF0000" filter="url(#f1m4d6lt45s0ob)" height="48" id="CapacidadCuantitativa" style="stroke: #A80036; stroke-width: 1.5;" width="198" x="172" y="212"/><rect fill="#FF0000" height="32" style="stroke: #A80036; stroke-width: 1.5;" width="198" x="172" y="212"/><ellipse cx="187" cy="228" fill="#ADD1B2" rx="11" ry="11" style="stroke: #A80036; stroke-width: 1.0;"/><path d="M189.7656,223.875 Q189.9219,223.6563 190.1094,223.5469 Q190.2969,223.4375 190.5156,223.4375 Q190.8906,223.4375 191.125,223.6953 Q191.3594,223.9531 191.3594,224.5625 L191.3594,226.0156 Q191.3594,226.625 191.125,226.8906 Q190.8906,227.1563 190.5156,227.1563 Q190.1719,227.1563 189.9688,226.9531 Q189.7656,226.7656 189.6563,226.25 Q189.6094,225.8906 189.4219,225.7031 Q189.0938,225.3281 188.4844,225.1094 Q187.875,224.8906 187.25,224.8906 Q186.4844,224.8906 185.8516,225.2188 Q185.2188,225.5469 184.7266,226.2969 Q184.2344,227.0469 184.2344,228.0781 L184.2344,229.1719 Q184.2344,230.4063 185.125,231.2266 Q186.0156,232.0469 187.6094,232.0469 Q188.5469,232.0469 189.2031,231.7969 Q189.5938,231.6406 190.0156,231.2031 Q190.2813,230.9375 190.4297,230.8594 Q190.5781,230.7813 190.7813,230.7813 Q191.1094,230.7813 191.3672,231.0391 Q191.625,231.2969 191.625,231.6406 Q191.625,231.9844 191.2813,232.3906 Q190.7813,232.9688 189.9844,233.2969 Q188.9063,233.75 187.6094,233.75 Q186.0938,233.75 184.8906,233.125 Q183.9063,232.625 183.2188,231.5547 Q182.5313,230.4844 182.5313,229.2031 L182.5313,228.0469 Q182.5313,226.7188 183.1484,225.5703 Q183.7656,224.4219 184.8594,223.8047 Q185.9531,223.1875 187.1875,223.1875 Q187.9219,223.1875 188.5703,223.3516 Q189.2188,223.5156 189.7656,223.875 Z "/><text fill="#000000" font-family="sans-serif" font-size="12" lengthAdjust="spacingAndGlyphs" textLength="166" x="201" y="232.9102">Capacidad Mental Cuantitativa</text><line style="stroke: #A80036; stroke-width: 1.5;" x1="173" x2="369" y1="244" y2="244"/><line style="stroke: #A80036; stroke-width: 1.5;" x1="173" x2="369" y1="252" y2="252"/><!--class MagicoMiller--><rect fill="#FF0000" filter="url(#f1m4d6lt45s0ob)" height="48" id="MagicoMiller" style="stroke: #A80036; stroke-width: 1.5;" width="168" x="187" y="320"/><rect fill="#FF0000" height="32" style="stroke: #A80036; stroke-width: 1.5;" width="168" x="187" y="320"/><ellipse cx="202" cy="336" fill="#ADD1B2" rx="11" ry="11" style="stroke: #A80036; stroke-width: 1.0;"/><path d="M204.7656,331.875 Q204.9219,331.6563 205.1094,331.5469 Q205.2969,331.4375 205.5156,331.4375 Q205.8906,331.4375 206.125,331.6953 Q206.3594,331.9531 206.3594,332.5625 L206.3594,334.0156 Q206.3594,334.625 206.125,334.8906 Q205.8906,335.1563 205.5156,335.1563 Q205.1719,335.1563 204.9688,334.9531 Q204.7656,334.7656 204.6563,334.25 Q204.6094,333.8906 204.4219,333.7031 Q204.0938,333.3281 203.4844,333.1094 Q202.875,332.8906 202.25,332.8906 Q201.4844,332.8906 200.8516,333.2188 Q200.2188,333.5469 199.7266,334.2969 Q199.2344,335.0469 199.2344,336.0781 L199.2344,337.1719 Q199.2344,338.4063 200.125,339.2266 Q201.0156,340.0469 202.6094,340.0469 Q203.5469,340.0469 204.2031,339.7969 Q204.5938,339.6406 205.0156,339.2031 Q205.2813,338.9375 205.4297,338.8594 Q205.5781,338.7813 205.7813,338.7813 Q206.1094,338.7813 206.3672,339.0391 Q206.625,339.2969 206.625,339.6406 Q206.625,339.9844 206.2813,340.3906 Q205.7813,340.9688 204.9844,341.2969 Q203.9063,341.75 202.6094,341.75 Q201.0938,341.75 199.8906,341.125 Q198.9063,340.625 198.2188,339.5547 Q197.5313,338.4844 197.5313,337.2031 L197.5313,336.0469 Q197.5313,334.7188 198.1484,333.5703 Q198.7656,332.4219 199.8594,331.8047 Q200.9531,331.1875 202.1875,331.1875 Q202.9219,331.1875 203.5703,331.3516 Q204.2188,331.5156 204.7656,331.875 Z "/><text fill="#000000" font-family="sans-serif" font-size="12" lengthAdjust="spacingAndGlyphs" textLength="136" x="216" y="340.9102">Número Mágico de Miller</text><line style="stroke: #A80036; stroke-width: 1.5;" x1="188" x2="354" y1="352" y2="352"/><line style="stroke: #A80036; stroke-width: 1.5;" x1="188" x2="354" y1="360" y2="360"/><!--class EnfoqueVisual--><rect fill="#FF0000" filter="url(#f1m4d6lt45s0ob)" height="48" id="EnfoqueVisual" style="stroke: #A80036; stroke-width: 1.5;" width="115" x="390.5" y="320"/><rect fill="#FF0000" height="32" style="stroke: #A80036; stroke-width: 1.5;" width="115" x="390.5" y="320"/><ellipse cx="405.5" cy="336" fill="#ADD1B2" rx="11" ry="11" style="stroke: #A80036; stroke-width: 1.0;"/><path d="M408.2656,331.875 Q408.4219,331.6563 408.6094,331.5469 Q408.7969,331.4375 409.0156,331.4375 Q409.3906,331.4375 409.625,331.6953 Q409.8594,331.9531 409.8594,332.5625 L409.8594,334.0156 Q409.8594,334.625 409.625,334.8906 Q409.3906,335.1563 409.0156,335.1563 Q408.6719,335.1563 408.4688,334.9531 Q408.2656,334.7656 408.1563,334.25 Q408.1094,333.8906 407.9219,333.7031 Q407.5938,333.3281 406.9844,333.1094 Q406.375,332.8906 405.75,332.8906 Q404.9844,332.8906 404.3516,333.2188 Q403.7188,333.5469 403.2266,334.2969 Q402.7344,335.0469 402.7344,336.0781 L402.7344,337.1719 Q402.7344,338.4063 403.625,339.2266 Q404.5156,340.0469 406.1094,340.0469 Q407.0469,340.0469 407.7031,339.7969 Q408.0938,339.6406 408.5156,339.2031 Q408.7813,338.9375 408.9297,338.8594 Q409.0781,338.7813 409.2813,338.7813 Q409.6094,338.7813 409.8672,339.0391 Q410.125,339.2969 410.125,339.6406 Q410.125,339.9844 409.7813,340.3906 Q409.2813,340.9688 408.4844,341.2969 Q407.4063,341.75 406.1094,341.75 Q404.5938,341.75 403.3906,341.125 Q402.4063,340.625 401.7188,339.5547 Q401.0313,338.4844 401.0313,337.2031 L401.0313,336.0469 Q401.0313,334.7188 401.6484,333.5703 Q402.2656,332.4219 403.3594,331.8047 Q404.4531,331.1875 405.6875,331.1875 Q406.4219,331.1875 407.0703,331.3516 Q407.7188,331.5156 408.2656,331.875 Z "/><text fill="#000000" font-family="sans-serif" font-size="12" lengthAdjust="spacingAndGlyphs" textLength="83" x="419.5" y="340.9102">Enfoque Visual</text><line style="stroke: #A80036; stroke-width: 1.5;" x1="391.5" x2="504.5" y1="352" y2="352"/><line style="stroke: #A80036; stroke-width: 1.5;" x1="391.5" x2="504.5" y1="360" y2="360"/><!--class Tamanyo--><rect fill="#FFFFFF" filter="url(#f1m4d6lt45s0ob)" height="48" id="Tamanyo" style="stroke: #A80036; stroke-width: 1.5;" width="78" x="248" y="428"/><rect fill="#FFFFFF" height="32" style="stroke: #A80036; stroke-width: 1.5;" width="78" x="248" y="428"/><ellipse cx="263" cy="444" fill="#ADD1B2" rx="11" ry="11" style="stroke: #A80036; stroke-width: 1.0;"/><path d="M265.7656,439.875 Q265.9219,439.6563 266.1094,439.5469 Q266.2969,439.4375 266.5156,439.4375 Q266.8906,439.4375 267.125,439.6953 Q267.3594,439.9531 267.3594,440.5625 L267.3594,442.0156 Q267.3594,442.625 267.125,442.8906 Q266.8906,443.1563 266.5156,443.1563 Q266.1719,443.1563 265.9688,442.9531 Q265.7656,442.7656 265.6563,442.25 Q265.6094,441.8906 265.4219,441.7031 Q265.0938,441.3281 264.4844,441.1094 Q263.875,440.8906 263.25,440.8906 Q262.4844,440.8906 261.8516,441.2188 Q261.2188,441.5469 260.7266,442.2969 Q260.2344,443.0469 260.2344,444.0781 L260.2344,445.1719 Q260.2344,446.4063 261.125,447.2266 Q262.0156,448.0469 263.6094,448.0469 Q264.5469,448.0469 265.2031,447.7969 Q265.5938,447.6406 266.0156,447.2031 Q266.2813,446.9375 266.4297,446.8594 Q266.5781,446.7813 266.7813,446.7813 Q267.1094,446.7813 267.3672,447.0391 Q267.625,447.2969 267.625,447.6406 Q267.625,447.9844 267.2813,448.3906 Q266.7813,448.9688 265.9844,449.2969 Q264.9063,449.75 263.6094,449.75 Q262.0938,449.75 260.8906,449.125 Q259.9063,448.625 259.2188,447.5547 Q258.5313,446.4844 258.5313,445.2031 L258.5313,444.0469 Q258.5313,442.7188 259.1484,441.5703 Q259.7656,440.4219 260.8594,439.8047 Q261.9531,439.1875 263.1875,439.1875 Q263.9219,439.1875 264.5703,439.3516 Q265.2188,439.5156 265.7656,439.875 Z "/><text fill="#000000" font-family="sans-serif" font-size="12" lengthAdjust="spacingAndGlyphs" textLength="46" x="277" y="448.9102">Tamaño</text><line style="stroke: #A80036; stroke-width: 1.5;" x1="249" x2="325" y1="460" y2="460"/><line style="stroke: #A80036; stroke-width: 1.5;" x1="249" x2="325" y1="468" y2="468"/><!--link Solucion to Efectividad--><path d="M648,273.338 C648,284.006 648,295.677 648,306.364 " fill="none" id="Solucion-Efectividad" style="stroke: #A80036; stroke-width: 1.0;"/><polygon fill="#A80036" points="648,319.678,652,310.678,648,314.678,644,310.678,648,319.678" style="stroke: #A80036; stroke-width: 1.0;"/><line style="stroke: #A80036; stroke-width: 1.0;" x1="648" x2="648" y1="314.678" y2="306.678"/><polygon fill="#A80036" points="648,260,644,266,648,272,652,266,648,260" style="stroke: #A80036; stroke-width: 1.0;"/><!--link Equilibrio to Eficacia--><path d="M656.104,476 C649.861,492.141 641.477,513.816 634.842,530.9688 " fill="none" id="Equilibrio-Eficacia" style="stroke: #A80036; stroke-width: 1.0;"/><polygon fill="#A80036" points="633.021,535.6784,639.9979,528.7269,634.8244,531.0149,632.5363,525.8415,633.021,535.6784" style="stroke: #A80036; stroke-width: 1.0;"/><!--link Equilibrio to Eficiencia--><path d="M681.057,476 C692.421,492.279 707.716,514.187 719.737,531.4076 " fill="none" id="Equilibrio-Eficiencia" style="stroke: #A80036; stroke-width: 1.0;"/><polygon fill="#A80036" points="722.719,535.6784,720.8472,526.009,719.857,531.5786,714.2875,530.5883,722.719,535.6784" style="stroke: #A80036; stroke-width: 1.0;"/><!--link Efectividad to Eficacia--><path d="M625.441,379.463 C617.302,393.851 609.112,411.124 605,428 C595.748,465.972 594.635,480.231 605.995,523.3184 " fill="none" id="Efectividad-Eficacia" style="stroke: #A80036; stroke-width: 1.0;"/><polygon fill="#A80036" points="609.437,535.9373,610.9271,526.2018,608.121,531.1136,603.2092,528.3074,609.437,535.9373" style="stroke: #A80036; stroke-width: 1.0;"/><line style="stroke: #A80036; stroke-width: 1.0;" x1="608.121" x2="606.0155" y1="531.1136" y2="523.3956"/><polygon fill="#A80036" points="632.176,368.127,625.6724,371.2421,626.0465,378.4435,632.5501,375.3284,632.176,368.127" style="stroke: #A80036; stroke-width: 1.0;"/><!--link Efectividad to Eficiencia--><path d="M686.356,377.191 C700.56,391.274 715.308,408.933 724,428 C737.584,457.799 740.67,495.204 740.749,522.4073 " fill="none" id="Efectividad-Eficiencia" style="stroke: #A80036; stroke-width: 1.0;"/><polygon fill="#A80036" points="740.556,535.6087,744.6872,526.6682,740.6291,530.6092,736.6881,526.5512,740.556,535.6087" style="stroke: #A80036; stroke-width: 1.0;"/><line style="stroke: #A80036; stroke-width: 1.0;" x1="740.6291" x2="740.7465" y1="530.6092" y2="522.6101"/><polygon fill="#A80036" points="676.69,368.038,678.2965,375.0679,685.4035,376.2887,683.797,369.2588,676.69,368.038" style="stroke: #A80036; stroke-width: 1.0;"/><!--link Efectividad to Equilibrio--><path d="M653.753,380.869 C655.496,391.737 657.411,403.681 659.16,414.584 " fill="none" id="Efectividad-Equilibrio" style="stroke: #A80036; stroke-width: 1.0;"/><polygon fill="#A80036" points="661.26,427.678,663.7845,418.1582,660.4683,422.7411,655.8854,419.4249,661.26,427.678" style="stroke: #A80036; stroke-width: 1.0;"/><line style="stroke: #A80036; stroke-width: 1.0;" x1="660.4683" x2="659.201" y1="422.7411" y2="414.8425"/><polygon fill="#A80036" points="651.689,368,648.6896,374.5577,653.5893,379.8486,656.5887,373.2909,651.689,368" style="stroke: #A80036; stroke-width: 1.0;"/><!--link Efectividad to Tamanyo--><path d="M602.279,358.425 C532.336,378.962 399.663,417.919 330.855,438.123 " fill="none" id="Efectividad-Tamanyo" style="stroke: #A80036; stroke-width: 1.0;"/><polygon fill="#A80036" points="326.013,439.545,335.7754,440.8474,330.8105,438.1363,333.5215,433.1714,326.013,439.545" style="stroke: #A80036; stroke-width: 1.0;"/><!--link Limitacion to Tamanyo--><path d="M146.057,368 C174.736,384.889 213.704,407.837 243.397,425.323 " fill="none" id="Limitacion-Tamanyo" style="stroke: #A80036; stroke-width: 1.0;"/><polygon fill="#A80036" points="247.709,427.862,241.9834,419.8484,243.4005,425.3249,237.924,426.742,247.709,427.862" style="stroke: #A80036; stroke-width: 1.0;"/><!--link Capacidad to CapacidadCuantitativa--><path d="M271,172.024 C271,185.579 271,200.038 271,211.678 " fill="none" id="Capacidad-CapacidadCuantitativa" style="stroke: #A80036; stroke-width: 1.0;"/><polygon fill="none" points="264,172,271,152,278,172,264,172" style="stroke: #A80036; stroke-width: 1.0;"/><!--link CapacidadCuantitativa to Limitacion--><path d="M224.343,267.157 C202.287,281.412 176.013,298.394 153.924,312.671 " fill="none" id="CapacidadCuantitativa-Limitacion" style="stroke: #A80036; stroke-width: 1.0;"/><polygon fill="#A80036" points="142.799,319.862,152.5288,318.3353,146.9981,317.1476,148.1858,311.6169,142.799,319.862" style="stroke: #A80036; stroke-width: 1.0;"/><line style="stroke: #A80036; stroke-width: 1.0;" x1="146.9981" x2="153.717" y1="317.1476" y2="312.805"/><polygon fill="#A80036" points="235.414,260,228.2036,259.8969,225.3353,266.513,232.5456,266.6161,235.414,260" style="stroke: #A80036; stroke-width: 1.0;"/><!--link CapacidadCuantitativa to MagicoMiller--><path d="M271,280.024 C271,293.579 271,308.038 271,319.678 " fill="none" id="CapacidadCuantitativa-MagicoMiller" style="stroke: #A80036; stroke-width: 1.0;"/><polygon fill="none" points="264,280,271,260,278,280,264,280" style="stroke: #A80036; stroke-width: 1.0;"/><!--link CapacidadCuantitativa to EnfoqueVisual--><path d="M326.691,270.352 C353.574,286.451 385.161,305.368 409.363,319.862 " fill="none" id="CapacidadCuantitativa-EnfoqueVisual" style="stroke: #A80036; stroke-width: 1.0;"/><polygon fill="none" points="322.968,276.282,309.406,260,330.161,264.271,322.968,276.282" style="stroke: #A80036; stroke-width: 1.0;"/><!--
@startuml
together efectividad {

class Eficacia #green

class Eficiencia #green

class Equilibrio #green

class Efectividad #green

class "Solución" as Solucion #green

}

Solucion *-down-> Efectividad

Equilibrio - -> Eficacia
Equilibrio - -> Eficiencia

Efectividad *-down-> Eficacia
Efectividad *-down-> Eficiencia
Efectividad *-down-> Equilibrio

together modularizacion {

together capacidades {

class "Capacidad Mental" as Capacidad #red

class "Limitación" as Limitacion #red

class "Capacidad Mental Cuantitativa" as CapacidadCuantitativa #red

class "Número Mágico de Miller" as MagicoMiller #red

class "Enfoque Visual" as EnfoqueVisual #red

class "Tamaño" as Tamanyo #white
}

Efectividad - -> Tamanyo
Limitacion - -> Tamanyo

Capacidad<|-down- CapacidadCuantitativa
CapacidadCuantitativa *-down-> Limitacion

CapacidadCuantitativa <|-down- MagicoMiller

CapacidadCuantitativa <|-down- EnfoqueVisual

@enduml

PlantUML version 1.2019.05(Sat Apr 20 18:45:36 CEST 2019)
(GPL source distribution)
Java Runtime: Java(TM) SE Runtime Environment
JVM: Java HotSpot(TM) 64-Bit Server VM
Java Version: 1.8.0_211-b12
Operating System: Windows 10
OS Version: 10.0
Default Encoding: windows-1252
Language: es
Country: ES
--></g></svg>