<?xml version="1.0" encoding="UTF-8" standalone="no"?><svg xmlns="http://www.w3.org/2000/svg" xmlns:xlink="http://www.w3.org/1999/xlink" contentScriptType="application/ecmascript" contentStyleType="text/css" height="551px" preserveAspectRatio="none" style="width:774px;height:551px;" version="1.1" viewBox="0 0 774 551" width="774px" zoomAndPan="magnify"><defs><filter height="300%" id="f1by2kwayhlc4p" width="300%" x="-1" y="-1"><feGaussianBlur result="blurOut" stdDeviation="2.0"/><feColorMatrix in="blurOut" result="blurOut2" type="matrix" values="0 0 0 0 0 0 0 0 0 0 0 0 0 0 0 0 0 0 .4 0"/><feOffset dx="4.0" dy="4.0" in="blurOut2" result="blurOut3"/><feBlend in="SourceGraphic" in2="blurOut3" mode="normal"/></filter></defs><g><!--cluster sistemas--><!--cluster capacidades--><!--class Sistema--><rect fill="#FFA500" filter="url(#f1by2kwayhlc4p)" height="48" id="Sistema" style="stroke: #A80036; stroke-width: 1.5;" width="78" x="685" y="60"/><rect fill="#FFA500" height="32" style="stroke: #A80036; stroke-width: 1.5;" width="78" x="685" y="60"/><ellipse cx="700" cy="76" fill="#ADD1B2" rx="11" ry="11" style="stroke: #A80036; stroke-width: 1.0;"/><path d="M702.7656,71.875 Q702.9219,71.6563 703.1094,71.5469 Q703.2969,71.4375 703.5156,71.4375 Q703.8906,71.4375 704.125,71.6953 Q704.3594,71.9531 704.3594,72.5625 L704.3594,74.0156 Q704.3594,74.625 704.125,74.8906 Q703.8906,75.1563 703.5156,75.1563 Q703.1719,75.1563 702.9688,74.9531 Q702.7656,74.7656 702.6563,74.25 Q702.6094,73.8906 702.4219,73.7031 Q702.0938,73.3281 701.4844,73.1094 Q700.875,72.8906 700.25,72.8906 Q699.4844,72.8906 698.8516,73.2188 Q698.2188,73.5469 697.7266,74.2969 Q697.2344,75.0469 697.2344,76.0781 L697.2344,77.1719 Q697.2344,78.4063 698.125,79.2266 Q699.0156,80.0469 700.6094,80.0469 Q701.5469,80.0469 702.2031,79.7969 Q702.5938,79.6406 703.0156,79.2031 Q703.2813,78.9375 703.4297,78.8594 Q703.5781,78.7813 703.7813,78.7813 Q704.1094,78.7813 704.3672,79.0391 Q704.625,79.2969 704.625,79.6406 Q704.625,79.9844 704.2813,80.3906 Q703.7813,80.9688 702.9844,81.2969 Q701.9063,81.75 700.6094,81.75 Q699.0938,81.75 697.8906,81.125 Q696.9063,80.625 696.2188,79.5547 Q695.5313,78.4844 695.5313,77.2031 L695.5313,76.0469 Q695.5313,74.7188 696.1484,73.5703 Q696.7656,72.4219 697.8594,71.8047 Q698.9531,71.1875 700.1875,71.1875 Q700.9219,71.1875 701.5703,71.3516 Q702.2188,71.5156 702.7656,71.875 Z "/><text fill="#000000" font-family="sans-serif" font-size="12" lengthAdjust="spacingAndGlyphs" textLength="46" x="714" y="80.9102">Sistema</text><line style="stroke: #A80036; stroke-width: 1.5;" x1="686" x2="762" y1="92" y2="92"/><line style="stroke: #A80036; stroke-width: 1.5;" x1="686" x2="762" y1="100" y2="100"/><!--class Capacidad--><rect fill="#FF0000" filter="url(#f1by2kwayhlc4p)" height="48" id="Capacidad" style="stroke: #A80036; stroke-width: 1.5;" width="131" x="467.5" y="60"/><rect fill="#FF0000" height="32" style="stroke: #A80036; stroke-width: 1.5;" width="131" x="467.5" y="60"/><ellipse cx="482.5" cy="76" fill="#ADD1B2" rx="11" ry="11" style="stroke: #A80036; stroke-width: 1.0;"/><path d="M485.2656,71.875 Q485.4219,71.6563 485.6094,71.5469 Q485.7969,71.4375 486.0156,71.4375 Q486.3906,71.4375 486.625,71.6953 Q486.8594,71.9531 486.8594,72.5625 L486.8594,74.0156 Q486.8594,74.625 486.625,74.8906 Q486.3906,75.1563 486.0156,75.1563 Q485.6719,75.1563 485.4688,74.9531 Q485.2656,74.7656 485.1563,74.25 Q485.1094,73.8906 484.9219,73.7031 Q484.5938,73.3281 483.9844,73.1094 Q483.375,72.8906 482.75,72.8906 Q481.9844,72.8906 481.3516,73.2188 Q480.7188,73.5469 480.2266,74.2969 Q479.7344,75.0469 479.7344,76.0781 L479.7344,77.1719 Q479.7344,78.4063 480.625,79.2266 Q481.5156,80.0469 483.1094,80.0469 Q484.0469,80.0469 484.7031,79.7969 Q485.0938,79.6406 485.5156,79.2031 Q485.7813,78.9375 485.9297,78.8594 Q486.0781,78.7813 486.2813,78.7813 Q486.6094,78.7813 486.8672,79.0391 Q487.125,79.2969 487.125,79.6406 Q487.125,79.9844 486.7813,80.3906 Q486.2813,80.9688 485.4844,81.2969 Q484.4063,81.75 483.1094,81.75 Q481.5938,81.75 480.3906,81.125 Q479.4063,80.625 478.7188,79.5547 Q478.0313,78.4844 478.0313,77.2031 L478.0313,76.0469 Q478.0313,74.7188 478.6484,73.5703 Q479.2656,72.4219 480.3594,71.8047 Q481.4531,71.1875 482.6875,71.1875 Q483.4219,71.1875 484.0703,71.3516 Q484.7188,71.5156 485.2656,71.875 Z "/><text fill="#000000" font-family="sans-serif" font-size="12" lengthAdjust="spacingAndGlyphs" textLength="99" x="496.5" y="80.9102">Capacidad Mental</text><line style="stroke: #A80036; stroke-width: 1.5;" x1="468.5" x2="597.5" y1="92" y2="92"/><line style="stroke: #A80036; stroke-width: 1.5;" x1="468.5" x2="597.5" y1="100" y2="100"/><!--class Limitacion--><rect fill="#FF0000" filter="url(#f1by2kwayhlc4p)" height="48" id="Limitacion" style="stroke: #A80036; stroke-width: 1.5;" width="89" x="38.5" y="276"/><rect fill="#FF0000" height="32" style="stroke: #A80036; stroke-width: 1.5;" width="89" x="38.5" y="276"/><ellipse cx="53.5" cy="292" fill="#ADD1B2" rx="11" ry="11" style="stroke: #A80036; stroke-width: 1.0;"/><path d="M56.2656,287.875 Q56.4219,287.6563 56.6094,287.5469 Q56.7969,287.4375 57.0156,287.4375 Q57.3906,287.4375 57.625,287.6953 Q57.8594,287.9531 57.8594,288.5625 L57.8594,290.0156 Q57.8594,290.625 57.625,290.8906 Q57.3906,291.1563 57.0156,291.1563 Q56.6719,291.1563 56.4688,290.9531 Q56.2656,290.7656 56.1563,290.25 Q56.1094,289.8906 55.9219,289.7031 Q55.5938,289.3281 54.9844,289.1094 Q54.375,288.8906 53.75,288.8906 Q52.9844,288.8906 52.3516,289.2188 Q51.7188,289.5469 51.2266,290.2969 Q50.7344,291.0469 50.7344,292.0781 L50.7344,293.1719 Q50.7344,294.4063 51.625,295.2266 Q52.5156,296.0469 54.1094,296.0469 Q55.0469,296.0469 55.7031,295.7969 Q56.0938,295.6406 56.5156,295.2031 Q56.7813,294.9375 56.9297,294.8594 Q57.0781,294.7813 57.2813,294.7813 Q57.6094,294.7813 57.8672,295.0391 Q58.125,295.2969 58.125,295.6406 Q58.125,295.9844 57.7813,296.3906 Q57.2813,296.9688 56.4844,297.2969 Q55.4063,297.75 54.1094,297.75 Q52.5938,297.75 51.3906,297.125 Q50.4063,296.625 49.7188,295.5547 Q49.0313,294.4844 49.0313,293.2031 L49.0313,292.0469 Q49.0313,290.7188 49.6484,289.5703 Q50.2656,288.4219 51.3594,287.8047 Q52.4531,287.1875 53.6875,287.1875 Q54.4219,287.1875 55.0703,287.3516 Q55.7188,287.5156 56.2656,287.875 Z "/><text fill="#000000" font-family="sans-serif" font-size="12" lengthAdjust="spacingAndGlyphs" textLength="57" x="67.5" y="296.9102">Limitación</text><line style="stroke: #A80036; stroke-width: 1.5;" x1="39.5" x2="126.5" y1="308" y2="308"/><line style="stroke: #A80036; stroke-width: 1.5;" x1="39.5" x2="126.5" y1="316" y2="316"/><!--class CapacidadCuantitativa--><rect fill="#FF0000" filter="url(#f1by2kwayhlc4p)" height="48" id="CapacidadCuantitativa" style="stroke: #A80036; stroke-width: 1.5;" width="198" x="204" y="168"/><rect fill="#FF0000" height="32" style="stroke: #A80036; stroke-width: 1.5;" width="198" x="204" y="168"/><ellipse cx="219" cy="184" fill="#ADD1B2" rx="11" ry="11" style="stroke: #A80036; stroke-width: 1.0;"/><path d="M221.7656,179.875 Q221.9219,179.6563 222.1094,179.5469 Q222.2969,179.4375 222.5156,179.4375 Q222.8906,179.4375 223.125,179.6953 Q223.3594,179.9531 223.3594,180.5625 L223.3594,182.0156 Q223.3594,182.625 223.125,182.8906 Q222.8906,183.1563 222.5156,183.1563 Q222.1719,183.1563 221.9688,182.9531 Q221.7656,182.7656 221.6563,182.25 Q221.6094,181.8906 221.4219,181.7031 Q221.0938,181.3281 220.4844,181.1094 Q219.875,180.8906 219.25,180.8906 Q218.4844,180.8906 217.8516,181.2188 Q217.2188,181.5469 216.7266,182.2969 Q216.2344,183.0469 216.2344,184.0781 L216.2344,185.1719 Q216.2344,186.4063 217.125,187.2266 Q218.0156,188.0469 219.6094,188.0469 Q220.5469,188.0469 221.2031,187.7969 Q221.5938,187.6406 222.0156,187.2031 Q222.2813,186.9375 222.4297,186.8594 Q222.5781,186.7813 222.7813,186.7813 Q223.1094,186.7813 223.3672,187.0391 Q223.625,187.2969 223.625,187.6406 Q223.625,187.9844 223.2813,188.3906 Q222.7813,188.9688 221.9844,189.2969 Q220.9063,189.75 219.6094,189.75 Q218.0938,189.75 216.8906,189.125 Q215.9063,188.625 215.2188,187.5547 Q214.5313,186.4844 214.5313,185.2031 L214.5313,184.0469 Q214.5313,182.7188 215.1484,181.5703 Q215.7656,180.4219 216.8594,179.8047 Q217.9531,179.1875 219.1875,179.1875 Q219.9219,179.1875 220.5703,179.3516 Q221.2188,179.5156 221.7656,179.875 Z "/><text fill="#000000" font-family="sans-serif" font-size="12" lengthAdjust="spacingAndGlyphs" textLength="166" x="233" y="188.9102">Capacidad Mental Cuantitativa</text><line style="stroke: #A80036; stroke-width: 1.5;" x1="205" x2="401" y1="200" y2="200"/><line style="stroke: #A80036; stroke-width: 1.5;" x1="205" x2="401" y1="208" y2="208"/><!--class MagicoMiller--><rect fill="#FF0000" filter="url(#f1by2kwayhlc4p)" height="48" id="MagicoMiller" style="stroke: #A80036; stroke-width: 1.5;" width="168" x="163" y="276"/><rect fill="#FF0000" height="32" style="stroke: #A80036; stroke-width: 1.5;" width="168" x="163" y="276"/><ellipse cx="178" cy="292" fill="#ADD1B2" rx="11" ry="11" style="stroke: #A80036; stroke-width: 1.0;"/><path d="M180.7656,287.875 Q180.9219,287.6563 181.1094,287.5469 Q181.2969,287.4375 181.5156,287.4375 Q181.8906,287.4375 182.125,287.6953 Q182.3594,287.9531 182.3594,288.5625 L182.3594,290.0156 Q182.3594,290.625 182.125,290.8906 Q181.8906,291.1563 181.5156,291.1563 Q181.1719,291.1563 180.9688,290.9531 Q180.7656,290.7656 180.6563,290.25 Q180.6094,289.8906 180.4219,289.7031 Q180.0938,289.3281 179.4844,289.1094 Q178.875,288.8906 178.25,288.8906 Q177.4844,288.8906 176.8516,289.2188 Q176.2188,289.5469 175.7266,290.2969 Q175.2344,291.0469 175.2344,292.0781 L175.2344,293.1719 Q175.2344,294.4063 176.125,295.2266 Q177.0156,296.0469 178.6094,296.0469 Q179.5469,296.0469 180.2031,295.7969 Q180.5938,295.6406 181.0156,295.2031 Q181.2813,294.9375 181.4297,294.8594 Q181.5781,294.7813 181.7813,294.7813 Q182.1094,294.7813 182.3672,295.0391 Q182.625,295.2969 182.625,295.6406 Q182.625,295.9844 182.2813,296.3906 Q181.7813,296.9688 180.9844,297.2969 Q179.9063,297.75 178.6094,297.75 Q177.0938,297.75 175.8906,297.125 Q174.9063,296.625 174.2188,295.5547 Q173.5313,294.4844 173.5313,293.2031 L173.5313,292.0469 Q173.5313,290.7188 174.1484,289.5703 Q174.7656,288.4219 175.8594,287.8047 Q176.9531,287.1875 178.1875,287.1875 Q178.9219,287.1875 179.5703,287.3516 Q180.2188,287.5156 180.7656,287.875 Z "/><text fill="#000000" font-family="sans-serif" font-size="12" lengthAdjust="spacingAndGlyphs" textLength="136" x="192" y="296.9102">Número Mágico de Miller</text><line style="stroke: #A80036; stroke-width: 1.5;" x1="164" x2="330" y1="308" y2="308"/><line style="stroke: #A80036; stroke-width: 1.5;" x1="164" x2="330" y1="316" y2="316"/><!--class EnfoqueVisual--><rect fill="#FF0000" filter="url(#f1by2kwayhlc4p)" height="48" id="EnfoqueVisual" style="stroke: #A80036; stroke-width: 1.5;" width="115" x="366.5" y="276"/><rect fill="#FF0000" height="32" style="stroke: #A80036; stroke-width: 1.5;" width="115" x="366.5" y="276"/><ellipse cx="381.5" cy="292" fill="#ADD1B2" rx="11" ry="11" style="stroke: #A80036; stroke-width: 1.0;"/><path d="M384.2656,287.875 Q384.4219,287.6563 384.6094,287.5469 Q384.7969,287.4375 385.0156,287.4375 Q385.3906,287.4375 385.625,287.6953 Q385.8594,287.9531 385.8594,288.5625 L385.8594,290.0156 Q385.8594,290.625 385.625,290.8906 Q385.3906,291.1563 385.0156,291.1563 Q384.6719,291.1563 384.4688,290.9531 Q384.2656,290.7656 384.1563,290.25 Q384.1094,289.8906 383.9219,289.7031 Q383.5938,289.3281 382.9844,289.1094 Q382.375,288.8906 381.75,288.8906 Q380.9844,288.8906 380.3516,289.2188 Q379.7188,289.5469 379.2266,290.2969 Q378.7344,291.0469 378.7344,292.0781 L378.7344,293.1719 Q378.7344,294.4063 379.625,295.2266 Q380.5156,296.0469 382.1094,296.0469 Q383.0469,296.0469 383.7031,295.7969 Q384.0938,295.6406 384.5156,295.2031 Q384.7813,294.9375 384.9297,294.8594 Q385.0781,294.7813 385.2813,294.7813 Q385.6094,294.7813 385.8672,295.0391 Q386.125,295.2969 386.125,295.6406 Q386.125,295.9844 385.7813,296.3906 Q385.2813,296.9688 384.4844,297.2969 Q383.4063,297.75 382.1094,297.75 Q380.5938,297.75 379.3906,297.125 Q378.4063,296.625 377.7188,295.5547 Q377.0313,294.4844 377.0313,293.2031 L377.0313,292.0469 Q377.0313,290.7188 377.6484,289.5703 Q378.2656,288.4219 379.3594,287.8047 Q380.4531,287.1875 381.6875,287.1875 Q382.4219,287.1875 383.0703,287.3516 Q383.7188,287.5156 384.2656,287.875 Z "/><text fill="#000000" font-family="sans-serif" font-size="12" lengthAdjust="spacingAndGlyphs" textLength="83" x="395.5" y="296.9102">Enfoque Visual</text><line style="stroke: #A80036; stroke-width: 1.5;" x1="367.5" x2="480.5" y1="308" y2="308"/><line style="stroke: #A80036; stroke-width: 1.5;" x1="367.5" x2="480.5" y1="316" y2="316"/><!--class CapacidadCualitativa--><rect fill="#FF0000" filter="url(#f1by2kwayhlc4p)" height="48" id="CapacidadCualitativa" style="stroke: #A80036; stroke-width: 1.5;" width="191" x="437.5" y="168"/><rect fill="#FF0000" height="32" style="stroke: #A80036; stroke-width: 1.5;" width="191" x="437.5" y="168"/><ellipse cx="452.5" cy="184" fill="#ADD1B2" rx="11" ry="11" style="stroke: #A80036; stroke-width: 1.0;"/><path d="M455.2656,179.875 Q455.4219,179.6563 455.6094,179.5469 Q455.7969,179.4375 456.0156,179.4375 Q456.3906,179.4375 456.625,179.6953 Q456.8594,179.9531 456.8594,180.5625 L456.8594,182.0156 Q456.8594,182.625 456.625,182.8906 Q456.3906,183.1563 456.0156,183.1563 Q455.6719,183.1563 455.4688,182.9531 Q455.2656,182.7656 455.1563,182.25 Q455.1094,181.8906 454.9219,181.7031 Q454.5938,181.3281 453.9844,181.1094 Q453.375,180.8906 452.75,180.8906 Q451.9844,180.8906 451.3516,181.2188 Q450.7188,181.5469 450.2266,182.2969 Q449.7344,183.0469 449.7344,184.0781 L449.7344,185.1719 Q449.7344,186.4063 450.625,187.2266 Q451.5156,188.0469 453.1094,188.0469 Q454.0469,188.0469 454.7031,187.7969 Q455.0938,187.6406 455.5156,187.2031 Q455.7813,186.9375 455.9297,186.8594 Q456.0781,186.7813 456.2813,186.7813 Q456.6094,186.7813 456.8672,187.0391 Q457.125,187.2969 457.125,187.6406 Q457.125,187.9844 456.7813,188.3906 Q456.2813,188.9688 455.4844,189.2969 Q454.4063,189.75 453.1094,189.75 Q451.5938,189.75 450.3906,189.125 Q449.4063,188.625 448.7188,187.5547 Q448.0313,186.4844 448.0313,185.2031 L448.0313,184.0469 Q448.0313,182.7188 448.6484,181.5703 Q449.2656,180.4219 450.3594,179.8047 Q451.4531,179.1875 452.6875,179.1875 Q453.4219,179.1875 454.0703,179.3516 Q454.7188,179.5156 455.2656,179.875 Z "/><text fill="#000000" font-family="sans-serif" font-size="12" lengthAdjust="spacingAndGlyphs" textLength="159" x="466.5" y="188.9102">Capacidad Mental Cualitativa</text><line style="stroke: #A80036; stroke-width: 1.5;" x1="438.5" x2="627.5" y1="200" y2="200"/><line style="stroke: #A80036; stroke-width: 1.5;" x1="438.5" x2="627.5" y1="208" y2="208"/><!--class Abstraccion--><rect fill="#FF0000" filter="url(#f1by2kwayhlc4p)" height="48" id="Abstraccion" style="stroke: #A80036; stroke-width: 1.5;" width="96" x="384" y="492"/><rect fill="#FF0000" height="32" style="stroke: #A80036; stroke-width: 1.5;" width="96" x="384" y="492"/><ellipse cx="399" cy="508" fill="#ADD1B2" rx="11" ry="11" style="stroke: #A80036; stroke-width: 1.0;"/><path d="M401.7656,503.875 Q401.9219,503.6563 402.1094,503.5469 Q402.2969,503.4375 402.5156,503.4375 Q402.8906,503.4375 403.125,503.6953 Q403.3594,503.9531 403.3594,504.5625 L403.3594,506.0156 Q403.3594,506.625 403.125,506.8906 Q402.8906,507.1563 402.5156,507.1563 Q402.1719,507.1563 401.9688,506.9531 Q401.7656,506.7656 401.6563,506.25 Q401.6094,505.8906 401.4219,505.7031 Q401.0938,505.3281 400.4844,505.1094 Q399.875,504.8906 399.25,504.8906 Q398.4844,504.8906 397.8516,505.2188 Q397.2188,505.5469 396.7266,506.2969 Q396.2344,507.0469 396.2344,508.0781 L396.2344,509.1719 Q396.2344,510.4063 397.125,511.2266 Q398.0156,512.0469 399.6094,512.0469 Q400.5469,512.0469 401.2031,511.7969 Q401.5938,511.6406 402.0156,511.2031 Q402.2813,510.9375 402.4297,510.8594 Q402.5781,510.7813 402.7813,510.7813 Q403.1094,510.7813 403.3672,511.0391 Q403.625,511.2969 403.625,511.6406 Q403.625,511.9844 403.2813,512.3906 Q402.7813,512.9688 401.9844,513.2969 Q400.9063,513.75 399.6094,513.75 Q398.0938,513.75 396.8906,513.125 Q395.9063,512.625 395.2188,511.5547 Q394.5313,510.4844 394.5313,509.2031 L394.5313,508.0469 Q394.5313,506.7188 395.1484,505.5703 Q395.7656,504.4219 396.8594,503.8047 Q397.9531,503.1875 399.1875,503.1875 Q399.9219,503.1875 400.5703,503.3516 Q401.2188,503.5156 401.7656,503.875 Z "/><text fill="#000000" font-family="sans-serif" font-size="12" lengthAdjust="spacingAndGlyphs" textLength="64" x="413" y="512.9102">Abstracción</text><line style="stroke: #A80036; stroke-width: 1.5;" x1="385" x2="479" y1="524" y2="524"/><line style="stroke: #A80036; stroke-width: 1.5;" x1="385" x2="479" y1="532" y2="532"/><!--class Encapsulacion--><rect fill="#FF0000" filter="url(#f1by2kwayhlc4p)" height="48" id="Encapsulacion" style="stroke: #A80036; stroke-width: 1.5;" width="114" x="515" y="492"/><rect fill="#FF0000" height="32" style="stroke: #A80036; stroke-width: 1.5;" width="114" x="515" y="492"/><ellipse cx="530" cy="508" fill="#ADD1B2" rx="11" ry="11" style="stroke: #A80036; stroke-width: 1.0;"/><path d="M532.7656,503.875 Q532.9219,503.6563 533.1094,503.5469 Q533.2969,503.4375 533.5156,503.4375 Q533.8906,503.4375 534.125,503.6953 Q534.3594,503.9531 534.3594,504.5625 L534.3594,506.0156 Q534.3594,506.625 534.125,506.8906 Q533.8906,507.1563 533.5156,507.1563 Q533.1719,507.1563 532.9688,506.9531 Q532.7656,506.7656 532.6563,506.25 Q532.6094,505.8906 532.4219,505.7031 Q532.0938,505.3281 531.4844,505.1094 Q530.875,504.8906 530.25,504.8906 Q529.4844,504.8906 528.8516,505.2188 Q528.2188,505.5469 527.7266,506.2969 Q527.2344,507.0469 527.2344,508.0781 L527.2344,509.1719 Q527.2344,510.4063 528.125,511.2266 Q529.0156,512.0469 530.6094,512.0469 Q531.5469,512.0469 532.2031,511.7969 Q532.5938,511.6406 533.0156,511.2031 Q533.2813,510.9375 533.4297,510.8594 Q533.5781,510.7813 533.7813,510.7813 Q534.1094,510.7813 534.3672,511.0391 Q534.625,511.2969 534.625,511.6406 Q534.625,511.9844 534.2813,512.3906 Q533.7813,512.9688 532.9844,513.2969 Q531.9063,513.75 530.6094,513.75 Q529.0938,513.75 527.8906,513.125 Q526.9063,512.625 526.2188,511.5547 Q525.5313,510.4844 525.5313,509.2031 L525.5313,508.0469 Q525.5313,506.7188 526.1484,505.5703 Q526.7656,504.4219 527.8594,503.8047 Q528.9531,503.1875 530.1875,503.1875 Q530.9219,503.1875 531.5703,503.3516 Q532.2188,503.5156 532.7656,503.875 Z "/><text fill="#000000" font-family="sans-serif" font-size="12" lengthAdjust="spacingAndGlyphs" textLength="82" x="544" y="512.9102">Encapsulación</text><line style="stroke: #A80036; stroke-width: 1.5;" x1="516" x2="628" y1="524" y2="524"/><line style="stroke: #A80036; stroke-width: 1.5;" x1="516" x2="628" y1="532" y2="532"/><!--class Modularizacion--><rect fill="#FF0000" filter="url(#f1by2kwayhlc4p)" height="48" id="Modularizacion" style="stroke: #A80036; stroke-width: 1.5;" width="114" x="515" y="384"/><rect fill="#FF0000" height="32" style="stroke: #A80036; stroke-width: 1.5;" width="114" x="515" y="384"/><ellipse cx="530" cy="400" fill="#ADD1B2" rx="11" ry="11" style="stroke: #A80036; stroke-width: 1.0;"/><path d="M532.7656,395.875 Q532.9219,395.6563 533.1094,395.5469 Q533.2969,395.4375 533.5156,395.4375 Q533.8906,395.4375 534.125,395.6953 Q534.3594,395.9531 534.3594,396.5625 L534.3594,398.0156 Q534.3594,398.625 534.125,398.8906 Q533.8906,399.1563 533.5156,399.1563 Q533.1719,399.1563 532.9688,398.9531 Q532.7656,398.7656 532.6563,398.25 Q532.6094,397.8906 532.4219,397.7031 Q532.0938,397.3281 531.4844,397.1094 Q530.875,396.8906 530.25,396.8906 Q529.4844,396.8906 528.8516,397.2188 Q528.2188,397.5469 527.7266,398.2969 Q527.2344,399.0469 527.2344,400.0781 L527.2344,401.1719 Q527.2344,402.4063 528.125,403.2266 Q529.0156,404.0469 530.6094,404.0469 Q531.5469,404.0469 532.2031,403.7969 Q532.5938,403.6406 533.0156,403.2031 Q533.2813,402.9375 533.4297,402.8594 Q533.5781,402.7813 533.7813,402.7813 Q534.1094,402.7813 534.3672,403.0391 Q534.625,403.2969 534.625,403.6406 Q534.625,403.9844 534.2813,404.3906 Q533.7813,404.9688 532.9844,405.2969 Q531.9063,405.75 530.6094,405.75 Q529.0938,405.75 527.8906,405.125 Q526.9063,404.625 526.2188,403.5547 Q525.5313,402.4844 525.5313,401.2031 L525.5313,400.0469 Q525.5313,398.7188 526.1484,397.5703 Q526.7656,396.4219 527.8594,395.8047 Q528.9531,395.1875 530.1875,395.1875 Q530.9219,395.1875 531.5703,395.3516 Q532.2188,395.5156 532.7656,395.875 Z "/><text fill="#000000" font-family="sans-serif" font-size="12" lengthAdjust="spacingAndGlyphs" textLength="82" x="544" y="404.9102">Modularización</text><line style="stroke: #A80036; stroke-width: 1.5;" x1="516" x2="628" y1="416" y2="416"/><line style="stroke: #A80036; stroke-width: 1.5;" x1="516" x2="628" y1="424" y2="424"/><!--class Jeraquizacion--><rect fill="#FF0000" filter="url(#f1by2kwayhlc4p)" height="48" id="Jeraquizacion" style="stroke: #A80036; stroke-width: 1.5;" width="112" x="517" y="276"/><rect fill="#FF0000" height="32" style="stroke: #A80036; stroke-width: 1.5;" width="112" x="517" y="276"/><ellipse cx="532" cy="292" fill="#ADD1B2" rx="11" ry="11" style="stroke: #A80036; stroke-width: 1.0;"/><path d="M534.7656,287.875 Q534.9219,287.6563 535.1094,287.5469 Q535.2969,287.4375 535.5156,287.4375 Q535.8906,287.4375 536.125,287.6953 Q536.3594,287.9531 536.3594,288.5625 L536.3594,290.0156 Q536.3594,290.625 536.125,290.8906 Q535.8906,291.1563 535.5156,291.1563 Q535.1719,291.1563 534.9688,290.9531 Q534.7656,290.7656 534.6563,290.25 Q534.6094,289.8906 534.4219,289.7031 Q534.0938,289.3281 533.4844,289.1094 Q532.875,288.8906 532.25,288.8906 Q531.4844,288.8906 530.8516,289.2188 Q530.2188,289.5469 529.7266,290.2969 Q529.2344,291.0469 529.2344,292.0781 L529.2344,293.1719 Q529.2344,294.4063 530.125,295.2266 Q531.0156,296.0469 532.6094,296.0469 Q533.5469,296.0469 534.2031,295.7969 Q534.5938,295.6406 535.0156,295.2031 Q535.2813,294.9375 535.4297,294.8594 Q535.5781,294.7813 535.7813,294.7813 Q536.1094,294.7813 536.3672,295.0391 Q536.625,295.2969 536.625,295.6406 Q536.625,295.9844 536.2813,296.3906 Q535.7813,296.9688 534.9844,297.2969 Q533.9063,297.75 532.6094,297.75 Q531.0938,297.75 529.8906,297.125 Q528.9063,296.625 528.2188,295.5547 Q527.5313,294.4844 527.5313,293.2031 L527.5313,292.0469 Q527.5313,290.7188 528.1484,289.5703 Q528.7656,288.4219 529.8594,287.8047 Q530.9531,287.1875 532.1875,287.1875 Q532.9219,287.1875 533.5703,287.3516 Q534.2188,287.5156 534.7656,287.875 Z "/><text fill="#000000" font-family="sans-serif" font-size="12" lengthAdjust="spacingAndGlyphs" textLength="80" x="546" y="296.9102">Jerarquización</text><line style="stroke: #A80036; stroke-width: 1.5;" x1="518" x2="628" y1="308" y2="308"/><line style="stroke: #A80036; stroke-width: 1.5;" x1="518" x2="628" y1="316" y2="316"/><!--link Capacidad to Sistema--><path d="M611.784,84 C631.758,84 651.731,84 671.705,84 " fill="none" id="Capacidad-Sistema" style="stroke: #A80036; stroke-width: 1.0;"/><polygon fill="#A80036" points="684.83,84,675.83,80,679.83,84,675.83,88,684.83,84" style="stroke: #A80036; stroke-width: 1.0;"/><line style="stroke: #A80036; stroke-width: 1.0;" x1="679.83" x2="671.83" y1="84" y2="84"/><polygon fill="#A80036" points="598.656,84,604.656,88,610.656,84,604.656,80,598.656,84" style="stroke: #A80036; stroke-width: 1.0;"/><!--link Capacidad to CapacidadCuantitativa--><path d="M464.617,116.516 C428.857,132.996 385.859,152.813 353.206,167.862 " fill="none" id="Capacidad-CapacidadCuantitativa" style="stroke: #A80036; stroke-width: 1.0;"/><polygon fill="none" points="462,110.014,483.093,108,467.86,122.729,462,110.014" style="stroke: #A80036; stroke-width: 1.0;"/><!--link CapacidadCuantitativa to Limitacion--><path d="M243.288,221.77 C210.953,237.35 171.229,256.49 139.417,271.817 " fill="none" id="CapacidadCuantitativa-Limitacion" style="stroke: #A80036; stroke-width: 1.0;"/><polygon fill="#A80036" points="127.645,277.489,137.4892,277.1859,132.1494,275.3187,134.0167,269.9789,127.645,277.489" style="stroke: #A80036; stroke-width: 1.0;"/><line style="stroke: #A80036; stroke-width: 1.0;" x1="132.1494" x2="139.356" y1="275.3187" y2="271.847"/><polygon fill="#A80036" points="255.263,216,248.1214,215.0009,244.4524,221.2088,251.594,222.2079,255.263,216" style="stroke: #A80036; stroke-width: 1.0;"/><!--link CapacidadCuantitativa to MagicoMiller--><path d="M281.29,234.094 C273.84,248.196 265.763,263.484 259.321,275.678 " fill="none" id="CapacidadCuantitativa-MagicoMiller" style="stroke: #A80036; stroke-width: 1.0;"/><polygon fill="none" points="275.317,230.414,290.849,216,287.696,236.954,275.317,230.414" style="stroke: #A80036; stroke-width: 1.0;"/><!--link CapacidadCuantitativa to EnfoqueVisual--><path d="M344.481,229.338 C361.995,244.681 381.876,262.098 397.378,275.678 " fill="none" id="CapacidadCuantitativa-EnfoqueVisual" style="stroke: #A80036; stroke-width: 1.0;"/><polygon fill="none" points="339.686,234.445,329.255,216,348.912,223.914,339.686,234.445" style="stroke: #A80036; stroke-width: 1.0;"/><!--link Capacidad to CapacidadCualitativa--><path d="M533,128.024 C533,141.579 533,156.038 533,167.678 " fill="none" id="Capacidad-CapacidadCualitativa" style="stroke: #A80036; stroke-width: 1.0;"/><polygon fill="none" points="526,128,533,108,540,128,526,128" style="stroke: #A80036; stroke-width: 1.0;"/><!--link CapacidadCuantitativa to CapacidadCualitativa--><path d="M407.469,192 C417.398,192 427.327,192 437.256,192 " fill="none" id="CapacidadCuantitativa-CapacidadCualitativa" style="stroke: #A80036; stroke-width: 1.0;"/><polygon fill="#A80036" points="402.277,192,411.277,196,407.277,192,411.277,188,402.277,192" style="stroke: #A80036; stroke-width: 1.0;"/><!--link CapacidadCualitativa to Jeraquizacion--><path d="M546.359,228.402 C550.581,239.59 555.249,251.96 559.482,263.178 " fill="none" id="CapacidadCualitativa-Jeraquizacion" style="stroke: #A80036; stroke-width: 1.0;"/><polygon fill="#A80036" points="564.199,275.678,564.7637,265.8453,562.4336,271,557.279,268.6699,564.199,275.678" style="stroke: #A80036; stroke-width: 1.0;"/><line style="stroke: #A80036; stroke-width: 1.0;" x1="562.4336" x2="559.61" y1="271" y2="263.5155"/><polygon fill="#A80036" points="541.679,216,540.0551,223.0259,545.9159,227.2271,547.5398,220.2013,541.679,216" style="stroke: #A80036; stroke-width: 1.0;"/><!--link Modularizacion to Abstraccion--><path d="M531.014,440.032 C512.873,453.768 491.572,469.895 473.385,483.6658 " fill="none" id="Modularizacion-Abstraccion" style="stroke: #A80036; stroke-width: 1.0;"/><polygon fill="#A80036" points="462.802,491.6784,472.3919,489.4348,466.7883,488.6603,467.5629,483.0567,462.802,491.6784" style="stroke: #A80036; stroke-width: 1.0;"/><line style="stroke: #A80036; stroke-width: 1.0;" x1="466.7883" x2="473.1665" y1="488.6603" y2="483.8311"/><polygon fill="#A80036" points="541.622,432,534.4239,432.4328,532.0549,439.2436,539.253,438.8108,541.622,432" style="stroke: #A80036; stroke-width: 1.0;"/><!--link Modularizacion to Encapsulacion--><path d="M572,445.338 C572,456.006 572,467.677 572,478.3638 " fill="none" id="Modularizacion-Encapsulacion" style="stroke: #A80036; stroke-width: 1.0;"/><polygon fill="#A80036" points="572,491.6784,576,482.6784,572,486.6784,568,482.6784,572,491.6784" style="stroke: #A80036; stroke-width: 1.0;"/><line style="stroke: #A80036; stroke-width: 1.0;" x1="572" x2="572" y1="486.6784" y2="478.6785"/><polygon fill="#A80036" points="572,432,568,438,572,444,576,438,572,432" style="stroke: #A80036; stroke-width: 1.0;"/><!--link Jeraquizacion to Modularizacion--><path d="M572.657,337.338 C572.557,348.006 572.446,359.677 572.346,370.364 " fill="none" id="Jeraquizacion-Modularizacion" style="stroke: #A80036; stroke-width: 1.0;"/><polygon fill="#A80036" points="572.22,383.678,576.3049,374.7162,572.2673,378.6782,568.3052,374.6406,572.22,383.678" style="stroke: #A80036; stroke-width: 1.0;"/><line style="stroke: #A80036; stroke-width: 1.0;" x1="572.2673" x2="572.343" y1="378.6782" y2="370.679"/><polygon fill="#A80036" points="572.783,324,568.7265,329.9619,572.6696,335.9995,576.7261,330.0375,572.783,324" style="stroke: #A80036; stroke-width: 1.0;"/><!--
@startuml

together sistemas {

class Sistema #orange

}

together capacidades {

class "Capacidad Mental" as Capacidad #red

class "Limitación" as Limitacion #red

class "Capacidad Mental Cuantitativa" as CapacidadCuantitativa #red

class "Número Mágico de Miller" as MagicoMiller #red

class "Enfoque Visual" as EnfoqueVisual #red

class "Capacidad Mental Cualitativa" as CapacidadCualitativa #red

class "Abstracción" as Abstraccion #red

class "Encapsulación" as Encapsulacion #red

class "Modularización" as Modularizacion #red

class "Jerarquización" as Jeraquizacion #red

}

Capacidad *-right-> Sistema

Capacidad<|-down- CapacidadCuantitativa
CapacidadCuantitativa *-down-> Limitacion

CapacidadCuantitativa <|-down- MagicoMiller

CapacidadCuantitativa <|-down- EnfoqueVisual

Capacidad<|-down- CapacidadCualitativa
CapacidadCualitativa -left-> CapacidadCuantitativa

CapacidadCualitativa *-down-> Jeraquizacion
Modularizacion *-down-> Abstraccion
Modularizacion *-down-> Encapsulacion
Jeraquizacion *-down-> Modularizacion


@enduml

PlantUML version 1.2019.05(Sat Apr 20 18:45:36 CEST 2019)
(GPL source distribution)
Java Runtime: Java(TM) SE Runtime Environment
JVM: Java HotSpot(TM) 64-Bit Server VM
Java Version: 1.8.0_211-b12
Operating System: Windows 10
OS Version: 10.0
Default Encoding: windows-1252
Language: es
Country: ES
--></g></svg>