<?xml version="1.0" encoding="UTF-8" standalone="no"?><svg xmlns="http://www.w3.org/2000/svg" xmlns:xlink="http://www.w3.org/1999/xlink" contentScriptType="application/ecmascript" contentStyleType="text/css" height="214px" preserveAspectRatio="none" style="width:318px;height:214px;" version="1.1" viewBox="0 0 318 214" width="318px" zoomAndPan="magnify"><defs><filter height="300%" id="f1kycpntr592g8" width="300%" x="-1" y="-1"><feGaussianBlur result="blurOut" stdDeviation="2.0"/><feColorMatrix in="blurOut" result="blurOut2" type="matrix" values="0 0 0 0 0 0 0 0 0 0 0 0 0 0 0 0 0 0 .4 0"/><feOffset dx="4.0" dy="4.0" in="blurOut2" result="blurOut3"/><feBlend in="SourceGraphic" in2="blurOut3" mode="normal"/></filter></defs><g><!--cluster coleccion--><polygon fill="#FFFFFF" filter="url(#f1kycpntr592g8)" points="22,24,96,24,103,47.6094,296,47.6094,296,111,22,111,22,24" style="stroke: #000000; stroke-width: 1.5;"/><line style="stroke: #000000; stroke-width: 1.5;" x1="22" x2="103" y1="47.6094" y2="47.6094"/><text fill="#000000" font-family="sans-serif" font-size="14" font-weight="bold" lengthAdjust="spacingAndGlyphs" textLength="68" x="26" y="40.5332">coleccion</text><rect fill="#FEFECE" filter="url(#f1kycpntr592g8)" height="35.0938" style="stroke: #A80036; stroke-width: 1.5;" width="57" x="38.5" y="60"/><text fill="#000000" font-family="sans-serif" font-size="12" lengthAdjust="spacingAndGlyphs" textLength="43" x="45.5" y="74.457">Objeto1</text><line style="stroke: #A80036; stroke-width: 1.5;" x1="39.5" x2="94.5" y1="79.0938" y2="79.0938"/><rect fill="#FEFECE" filter="url(#f1kycpntr592g8)" height="35.0938" style="stroke: #A80036; stroke-width: 1.5;" width="57" x="130.5" y="60"/><text fill="#000000" font-family="sans-serif" font-size="12" lengthAdjust="spacingAndGlyphs" textLength="43" x="137.5" y="74.457">Objeto2</text><line style="stroke: #A80036; stroke-width: 1.5;" x1="131.5" x2="186.5" y1="79.0938" y2="79.0938"/><rect fill="#FEFECE" filter="url(#f1kycpntr592g8)" height="35.0938" style="stroke: #A80036; stroke-width: 1.5;" width="57" x="222.5" y="60"/><text fill="#000000" font-family="sans-serif" font-size="12" lengthAdjust="spacingAndGlyphs" textLength="43" x="229.5" y="74.457">Objeto3</text><line style="stroke: #A80036; stroke-width: 1.5;" x1="223.5" x2="278.5" y1="79.0938" y2="79.0938"/><!--class Clase--><rect fill="#FEFECE" filter="url(#f1kycpntr592g8)" height="48" id="Clase" style="stroke: #A80036; stroke-width: 1.5;" width="65" x="126.5" y="155"/><ellipse cx="141.5" cy="171" fill="#ADD1B2" rx="11" ry="11" style="stroke: #A80036; stroke-width: 1.0;"/><path d="M144.2656,166.875 Q144.4219,166.6563 144.6094,166.5469 Q144.7969,166.4375 145.0156,166.4375 Q145.3906,166.4375 145.625,166.6953 Q145.8594,166.9531 145.8594,167.5625 L145.8594,169.0156 Q145.8594,169.625 145.625,169.8906 Q145.3906,170.1563 145.0156,170.1563 Q144.6719,170.1563 144.4688,169.9531 Q144.2656,169.7656 144.1563,169.25 Q144.1094,168.8906 143.9219,168.7031 Q143.5938,168.3281 142.9844,168.1094 Q142.375,167.8906 141.75,167.8906 Q140.9844,167.8906 140.3516,168.2188 Q139.7188,168.5469 139.2266,169.2969 Q138.7344,170.0469 138.7344,171.0781 L138.7344,172.1719 Q138.7344,173.4063 139.625,174.2266 Q140.5156,175.0469 142.1094,175.0469 Q143.0469,175.0469 143.7031,174.7969 Q144.0938,174.6406 144.5156,174.2031 Q144.7813,173.9375 144.9297,173.8594 Q145.0781,173.7813 145.2813,173.7813 Q145.6094,173.7813 145.8672,174.0391 Q146.125,174.2969 146.125,174.6406 Q146.125,174.9844 145.7813,175.3906 Q145.2813,175.9688 144.4844,176.2969 Q143.4063,176.75 142.1094,176.75 Q140.5938,176.75 139.3906,176.125 Q138.4063,175.625 137.7188,174.5547 Q137.0313,173.4844 137.0313,172.2031 L137.0313,171.0469 Q137.0313,169.7188 137.6484,168.5703 Q138.2656,167.4219 139.3594,166.8047 Q140.4531,166.1875 141.6875,166.1875 Q142.4219,166.1875 143.0703,166.3516 Q143.7188,166.5156 144.2656,166.875 Z "/><text fill="#000000" font-family="sans-serif" font-size="12" lengthAdjust="spacingAndGlyphs" textLength="33" x="155.5" y="175.9102">Clase</text><line style="stroke: #A80036; stroke-width: 1.5;" x1="127.5" x2="190.5" y1="187" y2="187"/><line style="stroke: #A80036; stroke-width: 1.5;" x1="127.5" x2="190.5" y1="195" y2="195"/><!--link Objeto1 to Clase--><path d="M82.6065,95.379 C96.6189,110.5335 117.442,133.0538 133.81,150.7567 " fill="none" id="Objeto1-Clase" style="stroke: #A80036; stroke-width: 1.0; stroke-dasharray: 7.0,7.0;"/><polygon fill="#A80036" points="137.443,154.6854,134.2701,145.3616,134.0486,151.0142,128.3961,150.7927,137.443,154.6854" style="stroke: #A80036; stroke-width: 1.0;"/><!--link Objeto2 to Clase--><path d="M159,95.379 C159,110.1514 159,131.923 159,149.4089 " fill="none" id="Objeto2-Clase" style="stroke: #A80036; stroke-width: 1.0; stroke-dasharray: 7.0,7.0;"/><polygon fill="#A80036" points="159,154.6854,163,145.6854,159,149.6854,155,145.6854,159,154.6854" style="stroke: #A80036; stroke-width: 1.0;"/><!--link Objeto3 to Clase--><path d="M235.393,95.379 C221.381,110.5335 200.558,133.0538 184.19,150.7567 " fill="none" id="Objeto3-Clase" style="stroke: #A80036; stroke-width: 1.0; stroke-dasharray: 7.0,7.0;"/><polygon fill="#A80036" points="180.557,154.6854,189.6039,150.7927,183.9514,151.0142,183.7299,145.3616,180.557,154.6854" style="stroke: #A80036; stroke-width: 1.0;"/><!--
@startuml

class Clase

package coleccion {
object Objeto1
object Objeto2
object Objeto3
}

Clase <.down. Objeto1
Clase <.down. Objeto2
Clase <.down. Objeto3
@enduml

PlantUML version 1.2019.05(Sat Apr 20 18:45:36 CEST 2019)
(GPL source distribution)
Java Runtime: Java(TM) SE Runtime Environment
JVM: Java HotSpot(TM) 64-Bit Server VM
Java Version: 1.8.0_211-b12
Operating System: Windows 10
OS Version: 10.0
Default Encoding: windows-1252
Language: es
Country: ES
--></g></svg>