<?xml version="1.0" encoding="UTF-8" standalone="no"?><svg xmlns="http://www.w3.org/2000/svg" xmlns:xlink="http://www.w3.org/1999/xlink" contentScriptType="application/ecmascript" contentStyleType="text/css" height="680px" preserveAspectRatio="none" style="width:666px;height:680px;" version="1.1" viewBox="0 0 666 680" width="666px" zoomAndPan="magnify"><defs><filter height="300%" id="feglsr5a5u9qh" width="300%" x="-1" y="-1"><feGaussianBlur result="blurOut" stdDeviation="2.0"/><feColorMatrix in="blurOut" result="blurOut2" type="matrix" values="0 0 0 0 0 0 0 0 0 0 0 0 0 0 0 0 0 0 .4 0"/><feOffset dx="4.0" dy="4.0" in="blurOut2" result="blurOut3"/><feBlend in="SourceGraphic" in2="blurOut3" mode="normal"/></filter></defs><g><!--cluster grafos--><polygon fill="#FFFFFF" filter="url(#feglsr5a5u9qh)" points="22,24.5,73,24.5,80,48.1094,552,48.1094,552,434.5,22,434.5,22,24.5" style="stroke: #000000; stroke-width: 1.5;"/><line style="stroke: #000000; stroke-width: 1.5;" x1="22" x2="80" y1="48.1094" y2="48.1094"/><text fill="#000000" font-family="sans-serif" font-size="14" font-weight="bold" lengthAdjust="spacingAndGlyphs" textLength="45" x="26" y="41.0332">grafos</text><!--cluster jerarquias--><polygon fill="#FFFFFF" filter="url(#feglsr5a5u9qh)" points="136,68.5,213,68.5,220,92.1094,528,92.1094,528,410.5,136,410.5,136,68.5" style="stroke: #000000; stroke-width: 1.5;"/><line style="stroke: #000000; stroke-width: 1.5;" x1="136" x2="220" y1="92.1094" y2="92.1094"/><text fill="#000000" font-family="sans-serif" font-size="14" font-weight="bold" lengthAdjust="spacingAndGlyphs" textLength="71" x="140" y="85.0332">jerarquias</text><!--cluster arboles--><polygon fill="#FFFFFF" filter="url(#feglsr5a5u9qh)" points="253,112.5,312,112.5,319,136.1094,504,136.1094,504,386.5,253,386.5,253,112.5" style="stroke: #000000; stroke-width: 1.5;"/><line style="stroke: #000000; stroke-width: 1.5;" x1="253" x2="319" y1="136.1094" y2="136.1094"/><text fill="#000000" font-family="sans-serif" font-size="14" font-weight="bold" lengthAdjust="spacingAndGlyphs" textLength="53" x="257" y="129.0332">arboles</text><!--cluster secuencias--><polygon fill="#FFFFFF" filter="url(#feglsr5a5u9qh)" points="366,156.5,452,156.5,459,180.1094,480,180.1094,480,243.5,366,243.5,366,156.5" style="stroke: #000000; stroke-width: 1.5;"/><line style="stroke: #000000; stroke-width: 1.5;" x1="366" x2="459" y1="180.1094" y2="180.1094"/><text fill="#000000" font-family="sans-serif" font-size="14" font-weight="bold" lengthAdjust="spacingAndGlyphs" textLength="80" x="370" y="173.0332">secuencias</text><rect fill="#FEFECE" filter="url(#feglsr5a5u9qh)" height="35.0938" style="stroke: #A80036; stroke-width: 1.5;" width="21" x="38.5" y="192.5"/><text fill="#000000" font-family="sans-serif" font-size="12" lengthAdjust="spacingAndGlyphs" textLength="7" x="45.5" y="206.957">A</text><line style="stroke: #A80036; stroke-width: 1.5;" x1="39.5" x2="58.5" y1="211.5938" y2="211.5938"/><rect fill="#FEFECE" filter="url(#feglsr5a5u9qh)" height="35.0938" style="stroke: #A80036; stroke-width: 1.5;" width="22" x="95" y="192.5"/><text fill="#000000" font-family="sans-serif" font-size="12" lengthAdjust="spacingAndGlyphs" textLength="8" x="102" y="206.957">B</text><line style="stroke: #A80036; stroke-width: 1.5;" x1="96" x2="116" y1="211.5938" y2="211.5938"/><rect fill="#FEFECE" filter="url(#feglsr5a5u9qh)" height="35.0938" style="stroke: #A80036; stroke-width: 1.5;" width="22" x="38" y="335.5"/><text fill="#000000" font-family="sans-serif" font-size="12" lengthAdjust="spacingAndGlyphs" textLength="8" x="45" y="349.957">K</text><line style="stroke: #A80036; stroke-width: 1.5;" x1="39" x2="59" y1="354.5938" y2="354.5938"/><rect fill="#FEFECE" filter="url(#feglsr5a5u9qh)" height="35.0938" style="stroke: #A80036; stroke-width: 1.5;" width="23" x="152.5" y="192.5"/><text fill="#000000" font-family="sans-serif" font-size="12" lengthAdjust="spacingAndGlyphs" textLength="9" x="159.5" y="206.957">C</text><line style="stroke: #A80036; stroke-width: 1.5;" x1="153.5" x2="174.5" y1="211.5938" y2="211.5938"/><rect fill="#FEFECE" filter="url(#feglsr5a5u9qh)" height="35.0938" style="stroke: #A80036; stroke-width: 1.5;" width="23" x="210.5" y="192.5"/><text fill="#000000" font-family="sans-serif" font-size="12" lengthAdjust="spacingAndGlyphs" textLength="9" x="217.5" y="206.957">D</text><line style="stroke: #A80036; stroke-width: 1.5;" x1="211.5" x2="232.5" y1="211.5938" y2="211.5938"/><rect fill="#FEFECE" filter="url(#feglsr5a5u9qh)" height="35.0938" style="stroke: #A80036; stroke-width: 1.5;" width="20" x="154" y="335.5"/><text fill="#000000" font-family="sans-serif" font-size="12" lengthAdjust="spacingAndGlyphs" textLength="6" x="161" y="349.957">J</text><line style="stroke: #A80036; stroke-width: 1.5;" x1="155" x2="173" y1="354.5938" y2="354.5938"/><rect fill="#FEFECE" filter="url(#feglsr5a5u9qh)" height="35.0938" style="stroke: #A80036; stroke-width: 1.5;" width="22" x="269" y="192.5"/><text fill="#000000" font-family="sans-serif" font-size="12" lengthAdjust="spacingAndGlyphs" textLength="8" x="276" y="206.957">E</text><line style="stroke: #A80036; stroke-width: 1.5;" x1="270" x2="290" y1="211.5938" y2="211.5938"/><rect fill="#FEFECE" filter="url(#feglsr5a5u9qh)" height="35.0938" style="stroke: #A80036; stroke-width: 1.5;" width="21" x="326.5" y="192.5"/><text fill="#000000" font-family="sans-serif" font-size="12" lengthAdjust="spacingAndGlyphs" textLength="7" x="333.5" y="206.957">F</text><line style="stroke: #A80036; stroke-width: 1.5;" x1="327.5" x2="346.5" y1="211.5938" y2="211.5938"/><rect fill="#FEFECE" filter="url(#feglsr5a5u9qh)" height="35.0938" style="stroke: #A80036; stroke-width: 1.5;" width="17" x="271.5" y="335.5"/><text fill="#000000" font-family="sans-serif" font-size="12" lengthAdjust="spacingAndGlyphs" textLength="3" x="278.5" y="349.957">I</text><line style="stroke: #A80036; stroke-width: 1.5;" x1="272.5" x2="287.5" y1="354.5938" y2="354.5938"/><rect fill="#FEFECE" filter="url(#feglsr5a5u9qh)" height="35.0938" style="stroke: #A80036; stroke-width: 1.5;" width="23" x="440.5" y="192.5"/><text fill="#000000" font-family="sans-serif" font-size="12" lengthAdjust="spacingAndGlyphs" textLength="9" x="447.5" y="206.957">G</text><line style="stroke: #A80036; stroke-width: 1.5;" x1="441.5" x2="462.5" y1="211.5938" y2="211.5938"/><rect fill="#FEFECE" filter="url(#feglsr5a5u9qh)" height="35.0938" style="stroke: #A80036; stroke-width: 1.5;" width="23" x="382.5" y="192.5"/><text fill="#000000" font-family="sans-serif" font-size="12" lengthAdjust="spacingAndGlyphs" textLength="9" x="389.5" y="206.957">H</text><line style="stroke: #A80036; stroke-width: 1.5;" x1="383.5" x2="404.5" y1="211.5938" y2="211.5938"/><!--class Secuencia--><rect fill="#FEFECE" filter="url(#feglsr5a5u9qh)" height="75.6719" id="Secuencia" style="stroke: #A80036; stroke-width: 1.5;" width="90" x="565" y="594"/><ellipse cx="580" cy="610" fill="#ADD1B2" rx="11" ry="11" style="stroke: #A80036; stroke-width: 1.0;"/><path d="M582.7656,605.875 Q582.9219,605.6563 583.1094,605.5469 Q583.2969,605.4375 583.5156,605.4375 Q583.8906,605.4375 584.125,605.6953 Q584.3594,605.9531 584.3594,606.5625 L584.3594,608.0156 Q584.3594,608.625 584.125,608.8906 Q583.8906,609.1563 583.5156,609.1563 Q583.1719,609.1563 582.9688,608.9531 Q582.7656,608.7656 582.6563,608.25 Q582.6094,607.8906 582.4219,607.7031 Q582.0938,607.3281 581.4844,607.1094 Q580.875,606.8906 580.25,606.8906 Q579.4844,606.8906 578.8516,607.2188 Q578.2188,607.5469 577.7266,608.2969 Q577.2344,609.0469 577.2344,610.0781 L577.2344,611.1719 Q577.2344,612.4063 578.125,613.2266 Q579.0156,614.0469 580.6094,614.0469 Q581.5469,614.0469 582.2031,613.7969 Q582.5938,613.6406 583.0156,613.2031 Q583.2813,612.9375 583.4297,612.8594 Q583.5781,612.7813 583.7813,612.7813 Q584.1094,612.7813 584.3672,613.0391 Q584.625,613.2969 584.625,613.6406 Q584.625,613.9844 584.2813,614.3906 Q583.7813,614.9688 582.9844,615.2969 Q581.9063,615.75 580.6094,615.75 Q579.0938,615.75 577.8906,615.125 Q576.9063,614.625 576.2188,613.5547 Q575.5313,612.4844 575.5313,611.2031 L575.5313,610.0469 Q575.5313,608.7188 576.1484,607.5703 Q576.7656,606.4219 577.8594,605.8047 Q578.9531,605.1875 580.1875,605.1875 Q580.9219,605.1875 581.5703,605.3516 Q582.2188,605.5156 582.7656,605.875 Z "/><text fill="#000000" font-family="sans-serif" font-size="12" lengthAdjust="spacingAndGlyphs" textLength="58" x="594" y="614.9102">Secuencia</text><line style="stroke: #A80036; stroke-width: 1.5;" x1="566" x2="654" y1="626" y2="626"/><text fill="#000000" font-family="sans-serif" font-size="11" lengthAdjust="spacingAndGlyphs" textLength="70" x="571" y="641.4189">0..1 anteriores</text><text fill="#000000" font-family="sans-serif" font-size="11" lengthAdjust="spacingAndGlyphs" textLength="70" x="571" y="655.2549">0..1 siguientes</text><line style="stroke: #A80036; stroke-width: 1.5;" x1="566" x2="654" y1="661.6719" y2="661.6719"/><!--class Arbol--><rect fill="#FEFECE" filter="url(#feglsr5a5u9qh)" height="75.6719" id="Arbol" style="stroke: #A80036; stroke-width: 1.5;" width="83" x="568.5" y="458"/><ellipse cx="593.85" cy="474" fill="#ADD1B2" rx="11" ry="11" style="stroke: #A80036; stroke-width: 1.0;"/><path d="M596.6156,469.875 Q596.7719,469.6563 596.9594,469.5469 Q597.1469,469.4375 597.3656,469.4375 Q597.7406,469.4375 597.975,469.6953 Q598.2094,469.9531 598.2094,470.5625 L598.2094,472.0156 Q598.2094,472.625 597.975,472.8906 Q597.7406,473.1563 597.3656,473.1563 Q597.0219,473.1563 596.8188,472.9531 Q596.6156,472.7656 596.5063,472.25 Q596.4594,471.8906 596.2719,471.7031 Q595.9438,471.3281 595.3344,471.1094 Q594.725,470.8906 594.1,470.8906 Q593.3344,470.8906 592.7016,471.2188 Q592.0688,471.5469 591.5766,472.2969 Q591.0844,473.0469 591.0844,474.0781 L591.0844,475.1719 Q591.0844,476.4063 591.975,477.2266 Q592.8656,478.0469 594.4594,478.0469 Q595.3969,478.0469 596.0531,477.7969 Q596.4438,477.6406 596.8656,477.2031 Q597.1313,476.9375 597.2797,476.8594 Q597.4281,476.7813 597.6313,476.7813 Q597.9594,476.7813 598.2172,477.0391 Q598.475,477.2969 598.475,477.6406 Q598.475,477.9844 598.1313,478.3906 Q597.6313,478.9688 596.8344,479.2969 Q595.7563,479.75 594.4594,479.75 Q592.9438,479.75 591.7406,479.125 Q590.7563,478.625 590.0688,477.5547 Q589.3813,476.4844 589.3813,475.2031 L589.3813,474.0469 Q589.3813,472.7188 589.9984,471.5703 Q590.6156,470.4219 591.7094,469.8047 Q592.8031,469.1875 594.0375,469.1875 Q594.7719,469.1875 595.4203,469.3516 Q596.0688,469.5156 596.6156,469.875 Z "/><text fill="#000000" font-family="sans-serif" font-size="12" lengthAdjust="spacingAndGlyphs" textLength="28" x="610.15" y="478.9102">Árbol</text><line style="stroke: #A80036; stroke-width: 1.5;" x1="569.5" x2="650.5" y1="490" y2="490"/><text fill="#000000" font-family="sans-serif" font-size="11" lengthAdjust="spacingAndGlyphs" textLength="70" x="574.5" y="505.4189">0..1 anteriores</text><text fill="#000000" font-family="sans-serif" font-size="11" lengthAdjust="spacingAndGlyphs" textLength="71" x="574.5" y="519.2549">0..N siguientes</text><line style="stroke: #A80036; stroke-width: 1.5;" x1="569.5" x2="650.5" y1="525.6719" y2="525.6719"/><!--class Grafo--><rect fill="#FEFECE" filter="url(#feglsr5a5u9qh)" height="75.6719" id="Grafo" style="stroke: #A80036; stroke-width: 1.5;" width="83" x="568.5" y="172"/><ellipse cx="592.95" cy="188" fill="#ADD1B2" rx="11" ry="11" style="stroke: #A80036; stroke-width: 1.0;"/><path d="M595.7156,183.875 Q595.8719,183.6563 596.0594,183.5469 Q596.2469,183.4375 596.4656,183.4375 Q596.8406,183.4375 597.075,183.6953 Q597.3094,183.9531 597.3094,184.5625 L597.3094,186.0156 Q597.3094,186.625 597.075,186.8906 Q596.8406,187.1563 596.4656,187.1563 Q596.1219,187.1563 595.9188,186.9531 Q595.7156,186.7656 595.6063,186.25 Q595.5594,185.8906 595.3719,185.7031 Q595.0438,185.3281 594.4344,185.1094 Q593.825,184.8906 593.2,184.8906 Q592.4344,184.8906 591.8016,185.2188 Q591.1688,185.5469 590.6766,186.2969 Q590.1844,187.0469 590.1844,188.0781 L590.1844,189.1719 Q590.1844,190.4063 591.075,191.2266 Q591.9656,192.0469 593.5594,192.0469 Q594.4969,192.0469 595.1531,191.7969 Q595.5438,191.6406 595.9656,191.2031 Q596.2313,190.9375 596.3797,190.8594 Q596.5281,190.7813 596.7313,190.7813 Q597.0594,190.7813 597.3172,191.0391 Q597.575,191.2969 597.575,191.6406 Q597.575,191.9844 597.2313,192.3906 Q596.7313,192.9688 595.9344,193.2969 Q594.8563,193.75 593.5594,193.75 Q592.0438,193.75 590.8406,193.125 Q589.8563,192.625 589.1688,191.5547 Q588.4813,190.4844 588.4813,189.2031 L588.4813,188.0469 Q588.4813,186.7188 589.0984,185.5703 Q589.7156,184.4219 590.8094,183.8047 Q591.9031,183.1875 593.1375,183.1875 Q593.8719,183.1875 594.5203,183.3516 Q595.1688,183.5156 595.7156,183.875 Z "/><text fill="#000000" font-family="sans-serif" font-size="12" lengthAdjust="spacingAndGlyphs" textLength="30" x="609.05" y="192.9102">Grafo</text><line style="stroke: #A80036; stroke-width: 1.5;" x1="569.5" x2="650.5" y1="204" y2="204"/><text fill="#000000" font-family="sans-serif" font-size="11" lengthAdjust="spacingAndGlyphs" textLength="71" x="574.5" y="219.4189">0..N anteriores</text><text fill="#000000" font-family="sans-serif" font-size="11" lengthAdjust="spacingAndGlyphs" textLength="71" x="574.5" y="233.2549">0..N siguientes</text><line style="stroke: #A80036; stroke-width: 1.5;" x1="569.5" x2="650.5" y1="239.6719" y2="239.6719"/><!--class Jerarquia--><rect fill="#FEFECE" filter="url(#feglsr5a5u9qh)" height="89.5078" id="Jerarquia" style="stroke: #A80036; stroke-width: 1.5;" width="84" x="568" y="308"/><ellipse cx="583" cy="324" fill="#ADD1B2" rx="11" ry="11" style="stroke: #A80036; stroke-width: 1.0;"/><path d="M585.7656,319.875 Q585.9219,319.6563 586.1094,319.5469 Q586.2969,319.4375 586.5156,319.4375 Q586.8906,319.4375 587.125,319.6953 Q587.3594,319.9531 587.3594,320.5625 L587.3594,322.0156 Q587.3594,322.625 587.125,322.8906 Q586.8906,323.1563 586.5156,323.1563 Q586.1719,323.1563 585.9688,322.9531 Q585.7656,322.7656 585.6563,322.25 Q585.6094,321.8906 585.4219,321.7031 Q585.0938,321.3281 584.4844,321.1094 Q583.875,320.8906 583.25,320.8906 Q582.4844,320.8906 581.8516,321.2188 Q581.2188,321.5469 580.7266,322.2969 Q580.2344,323.0469 580.2344,324.0781 L580.2344,325.1719 Q580.2344,326.4063 581.125,327.2266 Q582.0156,328.0469 583.6094,328.0469 Q584.5469,328.0469 585.2031,327.7969 Q585.5938,327.6406 586.0156,327.2031 Q586.2813,326.9375 586.4297,326.8594 Q586.5781,326.7813 586.7813,326.7813 Q587.1094,326.7813 587.3672,327.0391 Q587.625,327.2969 587.625,327.6406 Q587.625,327.9844 587.2813,328.3906 Q586.7813,328.9688 585.9844,329.2969 Q584.9063,329.75 583.6094,329.75 Q582.0938,329.75 580.8906,329.125 Q579.9063,328.625 579.2188,327.5547 Q578.5313,326.4844 578.5313,325.2031 L578.5313,324.0469 Q578.5313,322.7188 579.1484,321.5703 Q579.7656,320.4219 580.8594,319.8047 Q581.9531,319.1875 583.1875,319.1875 Q583.9219,319.1875 584.5703,319.3516 Q585.2188,319.5156 585.7656,319.875 Z "/><text fill="#000000" font-family="sans-serif" font-size="12" lengthAdjust="spacingAndGlyphs" textLength="52" x="597" y="328.9102">Jerarquía</text><line style="stroke: #A80036; stroke-width: 1.5;" x1="569" x2="651" y1="340" y2="340"/><text fill="#000000" font-family="sans-serif" font-size="11" lengthAdjust="spacingAndGlyphs" textLength="71" x="574" y="355.4189">0..N anteriores</text><text fill="#000000" font-family="sans-serif" font-size="11" lengthAdjust="spacingAndGlyphs" textLength="71" x="574" y="369.2549">0..N siguientes</text><text fill="#000000" font-family="sans-serif" font-size="11" lengthAdjust="spacingAndGlyphs" textLength="45" x="574" y="383.0908">sin ciclos</text><line style="stroke: #A80036; stroke-width: 1.5;" x1="569" x2="651" y1="389.5078" y2="389.5078"/><!--link Grafo to Jerarquia--><path d="M610,268.09 C610,281.372 610,295.314 610,307.934 " fill="none" id="Grafo-Jerarquia" style="stroke: #A80036; stroke-width: 1.0;"/><polygon fill="none" points="603,268.046,610,248.046,617,268.046,603,268.046" style="stroke: #A80036; stroke-width: 1.0;"/><!--link Jerarquia to Arbol--><path d="M610,418.666 C610,431.995 610,445.604 610,457.57 " fill="none" id="Jerarquia-Arbol" style="stroke: #A80036; stroke-width: 1.0;"/><polygon fill="none" points="603,418.226,610,398.226,617,418.226,603,418.226" style="stroke: #A80036; stroke-width: 1.0;"/><!--link Arbol to Secuencia--><path d="M610,554.535 C610,567.86 610,581.6949 610,593.8737 " fill="none" id="Arbol-Secuencia" style="stroke: #A80036; stroke-width: 1.0;"/><polygon fill="none" points="603,554.327,610,534.326,617,554.326,603,554.327" style="stroke: #A80036; stroke-width: 1.0;"/><!--link A to B--><!--link A to K--><!--link C to D--><!--link C to J--><!--link E to F--><!--link E to I--><!--
@startuml

class Secuencia {
    0..1 anteriores
    0..1 siguientes
}

class "Árbol" as Arbol {
    0..1 anteriores
    0..N siguientes
}

class Grafo {
    0..N anteriores
    0..N siguientes
}
class "Jerarquía" as Jerarquia {
    0..N anteriores
    0..N siguientes
    sin ciclos
}

Grafo <|-down- Jerarquia
Jerarquia <|-down- Arbol
Arbol <|-down- Secuencia

package grafos {
    object A
    object B
    package jerarquias {
        object C
        object D
        package arboles {
            object E
            object F
            package secuencias {
                object G
                object H
            }
            object I
        }
        object J
    }
    object K
}
@enduml

PlantUML version 1.2019.05(Sat Apr 20 18:45:36 CEST 2019)
(GPL source distribution)
Java Runtime: Java(TM) SE Runtime Environment
JVM: Java HotSpot(TM) 64-Bit Server VM
Java Version: 1.8.0_211-b12
Operating System: Windows 10
OS Version: 10.0
Default Encoding: windows-1252
Language: es
Country: ES
--></g></svg>