<?xml version="1.0" encoding="UTF-8" standalone="no"?><svg xmlns="http://www.w3.org/2000/svg" xmlns:xlink="http://www.w3.org/1999/xlink" contentScriptType="application/ecmascript" contentStyleType="text/css" height="244px" preserveAspectRatio="none" style="width:134px;height:244px;" version="1.1" viewBox="0 0 134 244" width="134px" zoomAndPan="magnify"><defs><filter height="300%" id="f10b17zxyo8yva" width="300%" x="-1" y="-1"><feGaussianBlur result="blurOut" stdDeviation="2.0"/><feColorMatrix in="blurOut" result="blurOut2" type="matrix" values="0 0 0 0 0 0 0 0 0 0 0 0 0 0 0 0 0 0 .4 0"/><feOffset dx="4.0" dy="4.0" in="blurOut2" result="blurOut3"/><feBlend in="SourceGraphic" in2="blurOut3" mode="normal"/></filter></defs><g><!--class B--><rect fill="#FEFECE" filter="url(#f10b17zxyo8yva)" height="89.5078" id="B" style="stroke: #A80036; stroke-width: 1.5;" width="40" x="6.5" y="8"/><ellipse cx="21.5" cy="24" fill="#ADD1B2" rx="11" ry="11" style="stroke: #A80036; stroke-width: 1.0;"/><path d="M24.2656,19.875 Q24.4219,19.6563 24.6094,19.5469 Q24.7969,19.4375 25.0156,19.4375 Q25.3906,19.4375 25.625,19.6953 Q25.8594,19.9531 25.8594,20.5625 L25.8594,22.0156 Q25.8594,22.625 25.625,22.8906 Q25.3906,23.1563 25.0156,23.1563 Q24.6719,23.1563 24.4688,22.9531 Q24.2656,22.7656 24.1563,22.25 Q24.1094,21.8906 23.9219,21.7031 Q23.5938,21.3281 22.9844,21.1094 Q22.375,20.8906 21.75,20.8906 Q20.9844,20.8906 20.3516,21.2188 Q19.7188,21.5469 19.2266,22.2969 Q18.7344,23.0469 18.7344,24.0781 L18.7344,25.1719 Q18.7344,26.4063 19.625,27.2266 Q20.5156,28.0469 22.1094,28.0469 Q23.0469,28.0469 23.7031,27.7969 Q24.0938,27.6406 24.5156,27.2031 Q24.7813,26.9375 24.9297,26.8594 Q25.0781,26.7813 25.2813,26.7813 Q25.6094,26.7813 25.8672,27.0391 Q26.125,27.2969 26.125,27.6406 Q26.125,27.9844 25.7813,28.3906 Q25.2813,28.9688 24.4844,29.2969 Q23.4063,29.75 22.1094,29.75 Q20.5938,29.75 19.3906,29.125 Q18.4063,28.625 17.7188,27.5547 Q17.0313,26.4844 17.0313,25.2031 L17.0313,24.0469 Q17.0313,22.7188 17.6484,21.5703 Q18.2656,20.4219 19.3594,19.8047 Q20.4531,19.1875 21.6875,19.1875 Q22.4219,19.1875 23.0703,19.3516 Q23.7188,19.5156 24.2656,19.875 Z "/><text fill="#000000" font-family="sans-serif" font-size="12" lengthAdjust="spacingAndGlyphs" textLength="8" x="35.5" y="28.9102">B</text><line style="stroke: #A80036; stroke-width: 1.5;" x1="7.5" x2="45.5" y1="40" y2="40"/><text fill="#000000" font-family="sans-serif" font-size="11" lengthAdjust="spacingAndGlyphs" textLength="6" x="12.5" y="55.4189">q</text><text fill="#000000" font-family="sans-serif" font-size="11" lengthAdjust="spacingAndGlyphs" textLength="4" x="12.5" y="69.2549">r</text><text fill="#000000" font-family="sans-serif" font-size="11" lengthAdjust="spacingAndGlyphs" textLength="6" x="12.5" y="83.0908">s</text><line style="stroke: #A80036; stroke-width: 1.5;" x1="7.5" x2="45.5" y1="89.5078" y2="89.5078"/><!--class C--><rect fill="#FEFECE" filter="url(#f10b17zxyo8yva)" height="89.5078" id="C" style="stroke: #A80036; stroke-width: 1.5;" width="41" x="82" y="8"/><ellipse cx="97" cy="24" fill="#ADD1B2" rx="11" ry="11" style="stroke: #A80036; stroke-width: 1.0;"/><path d="M99.7656,19.875 Q99.9219,19.6563 100.1094,19.5469 Q100.2969,19.4375 100.5156,19.4375 Q100.8906,19.4375 101.125,19.6953 Q101.3594,19.9531 101.3594,20.5625 L101.3594,22.0156 Q101.3594,22.625 101.125,22.8906 Q100.8906,23.1563 100.5156,23.1563 Q100.1719,23.1563 99.9688,22.9531 Q99.7656,22.7656 99.6563,22.25 Q99.6094,21.8906 99.4219,21.7031 Q99.0938,21.3281 98.4844,21.1094 Q97.875,20.8906 97.25,20.8906 Q96.4844,20.8906 95.8516,21.2188 Q95.2188,21.5469 94.7266,22.2969 Q94.2344,23.0469 94.2344,24.0781 L94.2344,25.1719 Q94.2344,26.4063 95.125,27.2266 Q96.0156,28.0469 97.6094,28.0469 Q98.5469,28.0469 99.2031,27.7969 Q99.5938,27.6406 100.0156,27.2031 Q100.2813,26.9375 100.4297,26.8594 Q100.5781,26.7813 100.7813,26.7813 Q101.1094,26.7813 101.3672,27.0391 Q101.625,27.2969 101.625,27.6406 Q101.625,27.9844 101.2813,28.3906 Q100.7813,28.9688 99.9844,29.2969 Q98.9063,29.75 97.6094,29.75 Q96.0938,29.75 94.8906,29.125 Q93.9063,28.625 93.2188,27.5547 Q92.5313,26.4844 92.5313,25.2031 L92.5313,24.0469 Q92.5313,22.7188 93.1484,21.5703 Q93.7656,20.4219 94.8594,19.8047 Q95.9531,19.1875 97.1875,19.1875 Q97.9219,19.1875 98.5703,19.3516 Q99.2188,19.5156 99.7656,19.875 Z "/><text fill="#000000" font-family="sans-serif" font-size="12" lengthAdjust="spacingAndGlyphs" textLength="9" x="111" y="28.9102">C</text><line style="stroke: #A80036; stroke-width: 1.5;" x1="83" x2="122" y1="40" y2="40"/><text fill="#000000" font-family="sans-serif" font-size="11" lengthAdjust="spacingAndGlyphs" textLength="6" x="88" y="55.4189">p</text><text fill="#000000" font-family="sans-serif" font-size="11" lengthAdjust="spacingAndGlyphs" textLength="6" x="88" y="69.2549">s</text><text fill="#000000" font-family="sans-serif" font-size="11" lengthAdjust="spacingAndGlyphs" textLength="6" x="88" y="83.0908">q</text><line style="stroke: #A80036; stroke-width: 1.5;" x1="83" x2="122" y1="89.5078" y2="89.5078"/><!--class D--><rect fill="#FEFECE" filter="url(#f10b17zxyo8yva)" height="75.6719" id="D" style="stroke: #A80036; stroke-width: 1.5;" width="41" x="6" y="158"/><ellipse cx="21" cy="174" fill="#ADD1B2" rx="11" ry="11" style="stroke: #A80036; stroke-width: 1.0;"/><path d="M23.7656,169.875 Q23.9219,169.6563 24.1094,169.5469 Q24.2969,169.4375 24.5156,169.4375 Q24.8906,169.4375 25.125,169.6953 Q25.3594,169.9531 25.3594,170.5625 L25.3594,172.0156 Q25.3594,172.625 25.125,172.8906 Q24.8906,173.1563 24.5156,173.1563 Q24.1719,173.1563 23.9688,172.9531 Q23.7656,172.7656 23.6563,172.25 Q23.6094,171.8906 23.4219,171.7031 Q23.0938,171.3281 22.4844,171.1094 Q21.875,170.8906 21.25,170.8906 Q20.4844,170.8906 19.8516,171.2188 Q19.2188,171.5469 18.7266,172.2969 Q18.2344,173.0469 18.2344,174.0781 L18.2344,175.1719 Q18.2344,176.4063 19.125,177.2266 Q20.0156,178.0469 21.6094,178.0469 Q22.5469,178.0469 23.2031,177.7969 Q23.5938,177.6406 24.0156,177.2031 Q24.2813,176.9375 24.4297,176.8594 Q24.5781,176.7813 24.7813,176.7813 Q25.1094,176.7813 25.3672,177.0391 Q25.625,177.2969 25.625,177.6406 Q25.625,177.9844 25.2813,178.3906 Q24.7813,178.9688 23.9844,179.2969 Q22.9063,179.75 21.6094,179.75 Q20.0938,179.75 18.8906,179.125 Q17.9063,178.625 17.2188,177.5547 Q16.5313,176.4844 16.5313,175.2031 L16.5313,174.0469 Q16.5313,172.7188 17.1484,171.5703 Q17.7656,170.4219 18.8594,169.8047 Q19.9531,169.1875 21.1875,169.1875 Q21.9219,169.1875 22.5703,169.3516 Q23.2188,169.5156 23.7656,169.875 Z "/><text fill="#000000" font-family="sans-serif" font-size="12" lengthAdjust="spacingAndGlyphs" textLength="9" x="35" y="178.9102">D</text><line style="stroke: #A80036; stroke-width: 1.5;" x1="7" x2="46" y1="190" y2="190"/><text fill="#000000" font-family="sans-serif" font-size="11" lengthAdjust="spacingAndGlyphs" textLength="6" x="12" y="205.4189">p</text><text fill="#000000" font-family="sans-serif" font-size="11" lengthAdjust="spacingAndGlyphs" textLength="6" x="12" y="219.2549">o</text><line style="stroke: #A80036; stroke-width: 1.5;" x1="7" x2="46" y1="225.6719" y2="225.6719"/><!--link B to C--><!--link B to D--><!--
@startuml

class B {
q
r
s
}

class C {
p
s
q
}

class D {
p
o
}

@enduml

PlantUML version 1.2019.05(Sat Apr 20 18:45:36 CEST 2019)
(GPL source distribution)
Java Runtime: Java(TM) SE Runtime Environment
JVM: Java HotSpot(TM) 64-Bit Server VM
Java Version: 1.8.0_211-b12
Operating System: Windows 10
OS Version: 10.0
Default Encoding: windows-1252
Language: es
Country: ES
--></g></svg>