<?xml version="1.0" encoding="UTF-8" standalone="no"?><svg xmlns="http://www.w3.org/2000/svg" xmlns:xlink="http://www.w3.org/1999/xlink" contentScriptType="application/ecmascript" contentStyleType="text/css" height="175px" preserveAspectRatio="none" style="width:102px;height:175px;" version="1.1" viewBox="0 0 102 175" width="102px" zoomAndPan="magnify"><defs><filter height="300%" id="f69qui0a7ix2b" width="300%" x="-1" y="-1"><feGaussianBlur result="blurOut" stdDeviation="2.0"/><feColorMatrix in="blurOut" result="blurOut2" type="matrix" values="0 0 0 0 0 0 0 0 0 0 0 0 0 0 0 0 0 0 .4 0"/><feOffset dx="4.0" dy="4.0" in="blurOut2" result="blurOut3"/><feBlend in="SourceGraphic" in2="blurOut3" mode="normal"/></filter></defs><g><!--class Conjunto--><rect fill="#FEFECE" filter="url(#f69qui0a7ix2b)" height="48" id="Conjunto" style="stroke: #A80036; stroke-width: 1.5;" width="82" x="7.5" y="8"/><ellipse cx="22.5" cy="24" fill="#ADD1B2" rx="11" ry="11" style="stroke: #A80036; stroke-width: 1.0;"/><path d="M25.2656,19.875 Q25.4219,19.6563 25.6094,19.5469 Q25.7969,19.4375 26.0156,19.4375 Q26.3906,19.4375 26.625,19.6953 Q26.8594,19.9531 26.8594,20.5625 L26.8594,22.0156 Q26.8594,22.625 26.625,22.8906 Q26.3906,23.1563 26.0156,23.1563 Q25.6719,23.1563 25.4688,22.9531 Q25.2656,22.7656 25.1563,22.25 Q25.1094,21.8906 24.9219,21.7031 Q24.5938,21.3281 23.9844,21.1094 Q23.375,20.8906 22.75,20.8906 Q21.9844,20.8906 21.3516,21.2188 Q20.7188,21.5469 20.2266,22.2969 Q19.7344,23.0469 19.7344,24.0781 L19.7344,25.1719 Q19.7344,26.4063 20.625,27.2266 Q21.5156,28.0469 23.1094,28.0469 Q24.0469,28.0469 24.7031,27.7969 Q25.0938,27.6406 25.5156,27.2031 Q25.7813,26.9375 25.9297,26.8594 Q26.0781,26.7813 26.2813,26.7813 Q26.6094,26.7813 26.8672,27.0391 Q27.125,27.2969 27.125,27.6406 Q27.125,27.9844 26.7813,28.3906 Q26.2813,28.9688 25.4844,29.2969 Q24.4063,29.75 23.1094,29.75 Q21.5938,29.75 20.3906,29.125 Q19.4063,28.625 18.7188,27.5547 Q18.0313,26.4844 18.0313,25.2031 L18.0313,24.0469 Q18.0313,22.7188 18.6484,21.5703 Q19.2656,20.4219 20.3594,19.8047 Q21.4531,19.1875 22.6875,19.1875 Q23.4219,19.1875 24.0703,19.3516 Q24.7188,19.5156 25.2656,19.875 Z "/><text fill="#000000" font-family="sans-serif" font-size="12" lengthAdjust="spacingAndGlyphs" textLength="50" x="36.5" y="28.9102">Conjunto</text><line style="stroke: #A80036; stroke-width: 1.5;" x1="8.5" x2="88.5" y1="40" y2="40"/><line style="stroke: #A80036; stroke-width: 1.5;" x1="8.5" x2="88.5" y1="48" y2="48"/><!--class Elemento--><rect fill="#FEFECE" filter="url(#f69qui0a7ix2b)" height="48" id="Elemento" style="stroke: #A80036; stroke-width: 1.5;" width="85" x="6" y="116"/><ellipse cx="21" cy="132" fill="#ADD1B2" rx="11" ry="11" style="stroke: #A80036; stroke-width: 1.0;"/><path d="M23.7656,127.875 Q23.9219,127.6563 24.1094,127.5469 Q24.2969,127.4375 24.5156,127.4375 Q24.8906,127.4375 25.125,127.6953 Q25.3594,127.9531 25.3594,128.5625 L25.3594,130.0156 Q25.3594,130.625 25.125,130.8906 Q24.8906,131.1563 24.5156,131.1563 Q24.1719,131.1563 23.9688,130.9531 Q23.7656,130.7656 23.6563,130.25 Q23.6094,129.8906 23.4219,129.7031 Q23.0938,129.3281 22.4844,129.1094 Q21.875,128.8906 21.25,128.8906 Q20.4844,128.8906 19.8516,129.2188 Q19.2188,129.5469 18.7266,130.2969 Q18.2344,131.0469 18.2344,132.0781 L18.2344,133.1719 Q18.2344,134.4063 19.125,135.2266 Q20.0156,136.0469 21.6094,136.0469 Q22.5469,136.0469 23.2031,135.7969 Q23.5938,135.6406 24.0156,135.2031 Q24.2813,134.9375 24.4297,134.8594 Q24.5781,134.7813 24.7813,134.7813 Q25.1094,134.7813 25.3672,135.0391 Q25.625,135.2969 25.625,135.6406 Q25.625,135.9844 25.2813,136.3906 Q24.7813,136.9688 23.9844,137.2969 Q22.9063,137.75 21.6094,137.75 Q20.0938,137.75 18.8906,137.125 Q17.9063,136.625 17.2188,135.5547 Q16.5313,134.4844 16.5313,133.2031 L16.5313,132.0469 Q16.5313,130.7188 17.1484,129.5703 Q17.7656,128.4219 18.8594,127.8047 Q19.9531,127.1875 21.1875,127.1875 Q21.9219,127.1875 22.5703,127.3516 Q23.2188,127.5156 23.7656,127.875 Z "/><text fill="#000000" font-family="sans-serif" font-size="12" lengthAdjust="spacingAndGlyphs" textLength="53" x="35" y="136.9102">Elemento</text><line style="stroke: #A80036; stroke-width: 1.5;" x1="7" x2="90" y1="148" y2="148"/><line style="stroke: #A80036; stroke-width: 1.5;" x1="7" x2="90" y1="156" y2="156"/><!--link Conjunto to Elemento--><path d="M48.5,69.3383 C48.5,80.0064 48.5,91.6772 48.5,102.3638 " fill="none" id="Conjunto-Elemento" style="stroke: #A80036; stroke-width: 1.0;"/><polygon fill="#A80036" points="48.5,115.6784,52.5,106.6784,48.5,110.6784,44.5,106.6784,48.5,115.6784" style="stroke: #A80036; stroke-width: 1.0;"/><line style="stroke: #A80036; stroke-width: 1.0;" x1="48.5" x2="48.5001" y1="110.6784" y2="102.6785"/><polygon fill="#A80036" points="48.5,56,44.5,62,48.5,68,52.5,62,48.5,56" style="stroke: #A80036; stroke-width: 1.0;"/><!--
@startuml

class Conjunto
class Elemento

Conjunto *-down-> Elemento
@enduml

PlantUML version 1.2019.05(Sat Apr 20 18:45:36 CEST 2019)
(GPL source distribution)
Java Runtime: Java(TM) SE Runtime Environment
JVM: Java HotSpot(TM) 64-Bit Server VM
Java Version: 1.8.0_211-b12
Operating System: Windows 10
OS Version: 10.0
Default Encoding: windows-1252
Language: es
Country: ES
--></g></svg>