<?xml version="1.0" encoding="UTF-8" standalone="no"?><svg xmlns="http://www.w3.org/2000/svg" xmlns:xlink="http://www.w3.org/1999/xlink" contentScriptType="application/ecmascript" contentStyleType="text/css" height="443px" preserveAspectRatio="none" style="width:244px;height:443px;" version="1.1" viewBox="0 0 244 443" width="244px" zoomAndPan="magnify"><defs><filter height="300%" id="f181wh9mzxcvgx" width="300%" x="-1" y="-1"><feGaussianBlur result="blurOut" stdDeviation="2.0"/><feColorMatrix in="blurOut" result="blurOut2" type="matrix" values="0 0 0 0 0 0 0 0 0 0 0 0 0 0 0 0 0 0 .4 0"/><feOffset dx="4.0" dy="4.0" in="blurOut2" result="blurOut3"/><feBlend in="SourceGraphic" in2="blurOut3" mode="normal"/></filter></defs><g><!--cluster efectividad--><!--class Eficacia--><rect fill="#008000" filter="url(#f181wh9mzxcvgx)" height="48" id="Eficacia" style="stroke: #A80036; stroke-width: 1.5;" width="75" x="38.5" y="384"/><rect fill="#008000" height="32" style="stroke: #A80036; stroke-width: 1.5;" width="75" x="38.5" y="384"/><ellipse cx="53.5" cy="400" fill="#ADD1B2" rx="11" ry="11" style="stroke: #A80036; stroke-width: 1.0;"/><path d="M56.2656,395.875 Q56.4219,395.6563 56.6094,395.5469 Q56.7969,395.4375 57.0156,395.4375 Q57.3906,395.4375 57.625,395.6953 Q57.8594,395.9531 57.8594,396.5625 L57.8594,398.0156 Q57.8594,398.625 57.625,398.8906 Q57.3906,399.1563 57.0156,399.1563 Q56.6719,399.1563 56.4688,398.9531 Q56.2656,398.7656 56.1563,398.25 Q56.1094,397.8906 55.9219,397.7031 Q55.5938,397.3281 54.9844,397.1094 Q54.375,396.8906 53.75,396.8906 Q52.9844,396.8906 52.3516,397.2188 Q51.7188,397.5469 51.2266,398.2969 Q50.7344,399.0469 50.7344,400.0781 L50.7344,401.1719 Q50.7344,402.4063 51.625,403.2266 Q52.5156,404.0469 54.1094,404.0469 Q55.0469,404.0469 55.7031,403.7969 Q56.0938,403.6406 56.5156,403.2031 Q56.7813,402.9375 56.9297,402.8594 Q57.0781,402.7813 57.2813,402.7813 Q57.6094,402.7813 57.8672,403.0391 Q58.125,403.2969 58.125,403.6406 Q58.125,403.9844 57.7813,404.3906 Q57.2813,404.9688 56.4844,405.2969 Q55.4063,405.75 54.1094,405.75 Q52.5938,405.75 51.3906,405.125 Q50.4063,404.625 49.7188,403.5547 Q49.0313,402.4844 49.0313,401.2031 L49.0313,400.0469 Q49.0313,398.7188 49.6484,397.5703 Q50.2656,396.4219 51.3594,395.8047 Q52.4531,395.1875 53.6875,395.1875 Q54.4219,395.1875 55.0703,395.3516 Q55.7188,395.5156 56.2656,395.875 Z "/><text fill="#000000" font-family="sans-serif" font-size="12" lengthAdjust="spacingAndGlyphs" textLength="43" x="67.5" y="404.9102">Eficacia</text><line style="stroke: #A80036; stroke-width: 1.5;" x1="39.5" x2="112.5" y1="416" y2="416"/><line style="stroke: #A80036; stroke-width: 1.5;" x1="39.5" x2="112.5" y1="424" y2="424"/><!--class Eficiencia--><rect fill="#008000" filter="url(#f181wh9mzxcvgx)" height="48" id="Eficiencia" style="stroke: #A80036; stroke-width: 1.5;" width="85" x="148.5" y="384"/><rect fill="#008000" height="32" style="stroke: #A80036; stroke-width: 1.5;" width="85" x="148.5" y="384"/><ellipse cx="163.5" cy="400" fill="#ADD1B2" rx="11" ry="11" style="stroke: #A80036; stroke-width: 1.0;"/><path d="M166.2656,395.875 Q166.4219,395.6563 166.6094,395.5469 Q166.7969,395.4375 167.0156,395.4375 Q167.3906,395.4375 167.625,395.6953 Q167.8594,395.9531 167.8594,396.5625 L167.8594,398.0156 Q167.8594,398.625 167.625,398.8906 Q167.3906,399.1563 167.0156,399.1563 Q166.6719,399.1563 166.4688,398.9531 Q166.2656,398.7656 166.1563,398.25 Q166.1094,397.8906 165.9219,397.7031 Q165.5938,397.3281 164.9844,397.1094 Q164.375,396.8906 163.75,396.8906 Q162.9844,396.8906 162.3516,397.2188 Q161.7188,397.5469 161.2266,398.2969 Q160.7344,399.0469 160.7344,400.0781 L160.7344,401.1719 Q160.7344,402.4063 161.625,403.2266 Q162.5156,404.0469 164.1094,404.0469 Q165.0469,404.0469 165.7031,403.7969 Q166.0938,403.6406 166.5156,403.2031 Q166.7813,402.9375 166.9297,402.8594 Q167.0781,402.7813 167.2813,402.7813 Q167.6094,402.7813 167.8672,403.0391 Q168.125,403.2969 168.125,403.6406 Q168.125,403.9844 167.7813,404.3906 Q167.2813,404.9688 166.4844,405.2969 Q165.4063,405.75 164.1094,405.75 Q162.5938,405.75 161.3906,405.125 Q160.4063,404.625 159.7188,403.5547 Q159.0313,402.4844 159.0313,401.2031 L159.0313,400.0469 Q159.0313,398.7188 159.6484,397.5703 Q160.2656,396.4219 161.3594,395.8047 Q162.4531,395.1875 163.6875,395.1875 Q164.4219,395.1875 165.0703,395.3516 Q165.7188,395.5156 166.2656,395.875 Z "/><text fill="#000000" font-family="sans-serif" font-size="12" lengthAdjust="spacingAndGlyphs" textLength="53" x="177.5" y="404.9102">Eficiencia</text><line style="stroke: #A80036; stroke-width: 1.5;" x1="149.5" x2="232.5" y1="416" y2="416"/><line style="stroke: #A80036; stroke-width: 1.5;" x1="149.5" x2="232.5" y1="424" y2="424"/><!--class Equilibrio--><rect fill="#008000" filter="url(#f181wh9mzxcvgx)" height="48" id="Equilibrio" style="stroke: #A80036; stroke-width: 1.5;" width="84" x="93" y="276"/><rect fill="#008000" height="32" style="stroke: #A80036; stroke-width: 1.5;" width="84" x="93" y="276"/><ellipse cx="108" cy="292" fill="#ADD1B2" rx="11" ry="11" style="stroke: #A80036; stroke-width: 1.0;"/><path d="M110.7656,287.875 Q110.9219,287.6563 111.1094,287.5469 Q111.2969,287.4375 111.5156,287.4375 Q111.8906,287.4375 112.125,287.6953 Q112.3594,287.9531 112.3594,288.5625 L112.3594,290.0156 Q112.3594,290.625 112.125,290.8906 Q111.8906,291.1563 111.5156,291.1563 Q111.1719,291.1563 110.9688,290.9531 Q110.7656,290.7656 110.6563,290.25 Q110.6094,289.8906 110.4219,289.7031 Q110.0938,289.3281 109.4844,289.1094 Q108.875,288.8906 108.25,288.8906 Q107.4844,288.8906 106.8516,289.2188 Q106.2188,289.5469 105.7266,290.2969 Q105.2344,291.0469 105.2344,292.0781 L105.2344,293.1719 Q105.2344,294.4063 106.125,295.2266 Q107.0156,296.0469 108.6094,296.0469 Q109.5469,296.0469 110.2031,295.7969 Q110.5938,295.6406 111.0156,295.2031 Q111.2813,294.9375 111.4297,294.8594 Q111.5781,294.7813 111.7813,294.7813 Q112.1094,294.7813 112.3672,295.0391 Q112.625,295.2969 112.625,295.6406 Q112.625,295.9844 112.2813,296.3906 Q111.7813,296.9688 110.9844,297.2969 Q109.9063,297.75 108.6094,297.75 Q107.0938,297.75 105.8906,297.125 Q104.9063,296.625 104.2188,295.5547 Q103.5313,294.4844 103.5313,293.2031 L103.5313,292.0469 Q103.5313,290.7188 104.1484,289.5703 Q104.7656,288.4219 105.8594,287.8047 Q106.9531,287.1875 108.1875,287.1875 Q108.9219,287.1875 109.5703,287.3516 Q110.2188,287.5156 110.7656,287.875 Z "/><text fill="#000000" font-family="sans-serif" font-size="12" lengthAdjust="spacingAndGlyphs" textLength="52" x="122" y="296.9102">Equilibrio</text><line style="stroke: #A80036; stroke-width: 1.5;" x1="94" x2="176" y1="308" y2="308"/><line style="stroke: #A80036; stroke-width: 1.5;" x1="94" x2="176" y1="316" y2="316"/><!--class Efectividad--><rect fill="#008000" filter="url(#f181wh9mzxcvgx)" height="48" id="Efectividad" style="stroke: #A80036; stroke-width: 1.5;" width="91" x="89.5" y="168"/><rect fill="#008000" height="32" style="stroke: #A80036; stroke-width: 1.5;" width="91" x="89.5" y="168"/><ellipse cx="104.5" cy="184" fill="#ADD1B2" rx="11" ry="11" style="stroke: #A80036; stroke-width: 1.0;"/><path d="M107.2656,179.875 Q107.4219,179.6563 107.6094,179.5469 Q107.7969,179.4375 108.0156,179.4375 Q108.3906,179.4375 108.625,179.6953 Q108.8594,179.9531 108.8594,180.5625 L108.8594,182.0156 Q108.8594,182.625 108.625,182.8906 Q108.3906,183.1563 108.0156,183.1563 Q107.6719,183.1563 107.4688,182.9531 Q107.2656,182.7656 107.1563,182.25 Q107.1094,181.8906 106.9219,181.7031 Q106.5938,181.3281 105.9844,181.1094 Q105.375,180.8906 104.75,180.8906 Q103.9844,180.8906 103.3516,181.2188 Q102.7188,181.5469 102.2266,182.2969 Q101.7344,183.0469 101.7344,184.0781 L101.7344,185.1719 Q101.7344,186.4063 102.625,187.2266 Q103.5156,188.0469 105.1094,188.0469 Q106.0469,188.0469 106.7031,187.7969 Q107.0938,187.6406 107.5156,187.2031 Q107.7813,186.9375 107.9297,186.8594 Q108.0781,186.7813 108.2813,186.7813 Q108.6094,186.7813 108.8672,187.0391 Q109.125,187.2969 109.125,187.6406 Q109.125,187.9844 108.7813,188.3906 Q108.2813,188.9688 107.4844,189.2969 Q106.4063,189.75 105.1094,189.75 Q103.5938,189.75 102.3906,189.125 Q101.4063,188.625 100.7188,187.5547 Q100.0313,186.4844 100.0313,185.2031 L100.0313,184.0469 Q100.0313,182.7188 100.6484,181.5703 Q101.2656,180.4219 102.3594,179.8047 Q103.4531,179.1875 104.6875,179.1875 Q105.4219,179.1875 106.0703,179.3516 Q106.7188,179.5156 107.2656,179.875 Z "/><text fill="#000000" font-family="sans-serif" font-size="12" lengthAdjust="spacingAndGlyphs" textLength="59" x="118.5" y="188.9102">Efectividad</text><line style="stroke: #A80036; stroke-width: 1.5;" x1="90.5" x2="179.5" y1="200" y2="200"/><line style="stroke: #A80036; stroke-width: 1.5;" x1="90.5" x2="179.5" y1="208" y2="208"/><!--class Solucion--><rect fill="#008000" filter="url(#f181wh9mzxcvgx)" height="48" id="Solucion" style="stroke: #A80036; stroke-width: 1.5;" width="80" x="95" y="60"/><rect fill="#008000" height="32" style="stroke: #A80036; stroke-width: 1.5;" width="80" x="95" y="60"/><ellipse cx="110" cy="76" fill="#ADD1B2" rx="11" ry="11" style="stroke: #A80036; stroke-width: 1.0;"/><path d="M112.7656,71.875 Q112.9219,71.6563 113.1094,71.5469 Q113.2969,71.4375 113.5156,71.4375 Q113.8906,71.4375 114.125,71.6953 Q114.3594,71.9531 114.3594,72.5625 L114.3594,74.0156 Q114.3594,74.625 114.125,74.8906 Q113.8906,75.1563 113.5156,75.1563 Q113.1719,75.1563 112.9688,74.9531 Q112.7656,74.7656 112.6563,74.25 Q112.6094,73.8906 112.4219,73.7031 Q112.0938,73.3281 111.4844,73.1094 Q110.875,72.8906 110.25,72.8906 Q109.4844,72.8906 108.8516,73.2188 Q108.2188,73.5469 107.7266,74.2969 Q107.2344,75.0469 107.2344,76.0781 L107.2344,77.1719 Q107.2344,78.4063 108.125,79.2266 Q109.0156,80.0469 110.6094,80.0469 Q111.5469,80.0469 112.2031,79.7969 Q112.5938,79.6406 113.0156,79.2031 Q113.2813,78.9375 113.4297,78.8594 Q113.5781,78.7813 113.7813,78.7813 Q114.1094,78.7813 114.3672,79.0391 Q114.625,79.2969 114.625,79.6406 Q114.625,79.9844 114.2813,80.3906 Q113.7813,80.9688 112.9844,81.2969 Q111.9063,81.75 110.6094,81.75 Q109.0938,81.75 107.8906,81.125 Q106.9063,80.625 106.2188,79.5547 Q105.5313,78.4844 105.5313,77.2031 L105.5313,76.0469 Q105.5313,74.7188 106.1484,73.5703 Q106.7656,72.4219 107.8594,71.8047 Q108.9531,71.1875 110.1875,71.1875 Q110.9219,71.1875 111.5703,71.3516 Q112.2188,71.5156 112.7656,71.875 Z "/><text fill="#000000" font-family="sans-serif" font-size="12" lengthAdjust="spacingAndGlyphs" textLength="48" x="124" y="80.9102">Solución</text><line style="stroke: #A80036; stroke-width: 1.5;" x1="96" x2="174" y1="92" y2="92"/><line style="stroke: #A80036; stroke-width: 1.5;" x1="96" x2="174" y1="100" y2="100"/><!--link Solucion to Efectividad--><path d="M135,121.338 C135,132.006 135,143.677 135,154.364 " fill="none" id="Solucion-Efectividad" style="stroke: #A80036; stroke-width: 1.0;"/><polygon fill="#A80036" points="135,167.678,139,158.678,135,162.678,131,158.678,135,167.678" style="stroke: #A80036; stroke-width: 1.0;"/><line style="stroke: #A80036; stroke-width: 1.0;" x1="135" x2="135" y1="162.678" y2="154.678"/><polygon fill="#A80036" points="135,108,131,114,135,120,139,114,135,108" style="stroke: #A80036; stroke-width: 1.0;"/><!--link Equilibrio to Eficacia--><path d="M122.198,324 C113.214,340.141 101.1495,361.816 91.6023,378.9688 " fill="none" id="Equilibrio-Eficacia" style="stroke: #A80036; stroke-width: 1.0;"/><polygon fill="#A80036" points="88.9809,383.6784,96.853,377.7598,91.4126,379.3096,89.8629,373.8691,88.9809,383.6784" style="stroke: #A80036; stroke-width: 1.0;"/><!--link Equilibrio to Eficiencia--><path d="M147.151,324 C155.678,340.141 167.129,361.816 176.191,378.9688 " fill="none" id="Equilibrio-Eficiencia" style="stroke: #A80036; stroke-width: 1.0;"/><polygon fill="#A80036" points="178.679,383.6784,178.0122,373.8521,176.3436,379.2573,170.9384,377.5888,178.679,383.6784" style="stroke: #A80036; stroke-width: 1.0;"/><!--link Efectividad to Eficacia--><path d="M103.5667,226.313 C92.2535,240.501 80.8455,257.936 75,276 C65.042,306.773 66.4561,343.782 69.6807,370.6026 " fill="none" id="Efectividad-Eficacia" style="stroke: #A80036; stroke-width: 1.0;"/><polygon fill="#A80036" points="71.4813,383.6123,74.2095,374.1489,70.7958,378.6595,66.2851,375.2457,71.4813,383.6123" style="stroke: #A80036; stroke-width: 1.0;"/><line style="stroke: #A80036; stroke-width: 1.0;" x1="70.7958" x2="69.699" y1="378.6595" y2="370.7351"/><polygon fill="#A80036" points="112.106,216.139,105.1847,218.1627,104.3907,225.33,111.312,223.3063,112.106,216.139" style="stroke: #A80036; stroke-width: 1.0;"/><!--link Efectividad to Eficiencia--><path d="M166.433,226.313 C177.746,240.501 189.155,257.936 195,276 C204.962,306.786 202.622,343.794 198.573,370.6106 " fill="none" id="Efectividad-Eficiencia" style="stroke: #A80036; stroke-width: 1.0;"/><polygon fill="#A80036" points="196.356,383.618,201.8113,375.418,197.1961,378.6891,193.925,374.0739,196.356,383.618" style="stroke: #A80036; stroke-width: 1.0;"/><line style="stroke: #A80036; stroke-width: 1.0;" x1="197.1961" x2="198.5405" y1="378.6891" y2="370.8028"/><polygon fill="#A80036" points="157.894,216.139,158.688,223.3063,165.6094,225.3299,164.8153,218.1627,157.894,216.139" style="stroke: #A80036; stroke-width: 1.0;"/><!--link Efectividad to Equilibrio--><path d="M135,229.338 C135,240.006 135,251.677 135,262.364 " fill="none" id="Efectividad-Equilibrio" style="stroke: #A80036; stroke-width: 1.0;"/><polygon fill="#A80036" points="135,275.678,139,266.678,135,270.678,131,266.678,135,275.678" style="stroke: #A80036; stroke-width: 1.0;"/><line style="stroke: #A80036; stroke-width: 1.0;" x1="135" x2="135" y1="270.678" y2="262.678"/><polygon fill="#A80036" points="135,216,131,222,135,228,139,222,135,216" style="stroke: #A80036; stroke-width: 1.0;"/><!--
@startuml

together efectividad {

class Eficacia #green

class Eficiencia #green

class Equilibrio #green

class Efectividad #green

class "Solución" as Solucion #green

}

Solucion *-down-> Efectividad

Equilibrio - -> Eficacia
Equilibrio - -> Eficiencia

Efectividad *-down-> Eficacia
Efectividad *-down-> Eficiencia
Efectividad *-down-> Equilibrio

@enduml

PlantUML version 1.2019.05(Sat Apr 20 18:45:36 CEST 2019)
(GPL source distribution)
Java Runtime: Java(TM) SE Runtime Environment
JVM: Java HotSpot(TM) 64-Bit Server VM
Java Version: 1.8.0_211-b12
Operating System: Windows 10
OS Version: 10.0
Default Encoding: windows-1252
Language: es
Country: ES
--></g></svg>