<?xml version="1.0" encoding="UTF-8" standalone="no"?><svg xmlns="http://www.w3.org/2000/svg" xmlns:xlink="http://www.w3.org/1999/xlink" contentScriptType="application/ecmascript" contentStyleType="text/css" height="366px" preserveAspectRatio="none" style="width:768px;height:366px;" version="1.1" viewBox="0 0 768 366" width="768px" zoomAndPan="magnify"><defs><filter height="300%" id="f1gjmexh9b2x4d" width="300%" x="-1" y="-1"><feGaussianBlur result="blurOut" stdDeviation="2.0"/><feColorMatrix in="blurOut" result="blurOut2" type="matrix" values="0 0 0 0 0 0 0 0 0 0 0 0 0 0 0 0 0 0 .4 0"/><feOffset dx="4.0" dy="4.0" in="blurOut2" result="blurOut3"/><feBlend in="SourceGraphic" in2="blurOut3" mode="normal"/></filter></defs><g><!--cluster personas--><polygon fill="#FFFFFF" filter="url(#f1gjmexh9b2x4d)" points="22,24,94,24,101,47.6094,746,47.6094,746,179,22,179,22,24" style="stroke: #000000; stroke-width: 1.5;"/><line style="stroke: #000000; stroke-width: 1.5;" x1="22" x2="101" y1="47.6094" y2="47.6094"/><text fill="#000000" font-family="sans-serif" font-size="14" font-weight="bold" lengthAdjust="spacingAndGlyphs" textLength="66" x="26" y="40.5332">personas</text><!--cluster mujeres--><polygon fill="#FFFFFF" filter="url(#f1gjmexh9b2x4d)" points="46,68,109,68,116,91.6094,384,91.6094,384,155,46,155,46,68" style="stroke: #000000; stroke-width: 1.5;"/><line style="stroke: #000000; stroke-width: 1.5;" x1="46" x2="116" y1="91.6094" y2="91.6094"/><text fill="#000000" font-family="sans-serif" font-size="14" font-weight="bold" lengthAdjust="spacingAndGlyphs" textLength="57" x="50" y="84.5332">mujeres</text><!--cluster hombres--><polygon fill="#FFFFFF" filter="url(#f1gjmexh9b2x4d)" points="408,68,476,68,483,91.6094,722,91.6094,722,155,408,155,408,68" style="stroke: #000000; stroke-width: 1.5;"/><line style="stroke: #000000; stroke-width: 1.5;" x1="408" x2="483" y1="91.6094" y2="91.6094"/><text fill="#000000" font-family="sans-serif" font-size="14" font-weight="bold" lengthAdjust="spacingAndGlyphs" textLength="62" x="412" y="84.5332">hombres</text><rect fill="#FEFECE" filter="url(#f1gjmexh9b2x4d)" height="35.0938" style="stroke: #A80036; stroke-width: 1.5;" width="28" x="62" y="104"/><text fill="#000000" font-family="sans-serif" font-size="12" lengthAdjust="spacingAndGlyphs" textLength="14" x="69" y="118.457">Tú</text><line style="stroke: #A80036; stroke-width: 1.5;" x1="63" x2="89" y1="123.0938" y2="123.0938"/><rect fill="#FEFECE" filter="url(#f1gjmexh9b2x4d)" height="35.0938" style="stroke: #A80036; stroke-width: 1.5;" width="59" x="125.5" y="104"/><text fill="#000000" font-family="sans-serif" font-size="12" lengthAdjust="spacingAndGlyphs" textLength="45" x="132.5" y="118.457">Ludmila</text><line style="stroke: #A80036; stroke-width: 1.5;" x1="126.5" x2="183.5" y1="123.0938" y2="123.0938"/><rect fill="#FEFECE" filter="url(#f1gjmexh9b2x4d)" height="35.0938" style="stroke: #A80036; stroke-width: 1.5;" width="148" x="220" y="104"/><text fill="#000000" font-family="sans-serif" font-size="12" lengthAdjust="spacingAndGlyphs" textLength="134" x="227" y="118.457">Maria Skłodowska-Curie</text><line style="stroke: #A80036; stroke-width: 1.5;" x1="221" x2="367" y1="123.0938" y2="123.0938"/><rect fill="#FEFECE" filter="url(#f1gjmexh9b2x4d)" height="35.0938" style="stroke: #A80036; stroke-width: 1.5;" width="28" x="424" y="104"/><text fill="#000000" font-family="sans-serif" font-size="12" lengthAdjust="spacingAndGlyphs" textLength="14" x="431" y="118.457">Yo</text><line style="stroke: #A80036; stroke-width: 1.5;" x1="425" x2="451" y1="123.0938" y2="123.0938"/><rect fill="#FEFECE" filter="url(#f1gjmexh9b2x4d)" height="35.0938" style="stroke: #A80036; stroke-width: 1.5;" width="44" x="487" y="104"/><text fill="#000000" font-family="sans-serif" font-size="12" lengthAdjust="spacingAndGlyphs" textLength="30" x="494" y="118.457">Murat</text><line style="stroke: #A80036; stroke-width: 1.5;" x1="488" x2="530" y1="123.0938" y2="123.0938"/><rect fill="#FEFECE" filter="url(#f1gjmexh9b2x4d)" height="35.0938" style="stroke: #A80036; stroke-width: 1.5;" width="139" x="566.5" y="104"/><text fill="#000000" font-family="sans-serif" font-size="12" lengthAdjust="spacingAndGlyphs" textLength="125" x="573.5" y="118.457">Manuel Elkin Patarroyo</text><line style="stroke: #A80036; stroke-width: 1.5;" x1="567.5" x2="704.5" y1="123.0938" y2="123.0938"/><!--class Persona--><rect fill="#FEFECE" filter="url(#f1gjmexh9b2x4d)" height="48" id="Persona" style="stroke: #A80036; stroke-width: 1.5;" width="79" x="308.5" y="307"/><ellipse cx="323.5" cy="323" fill="#ADD1B2" rx="11" ry="11" style="stroke: #A80036; stroke-width: 1.0;"/><path d="M326.2656,318.875 Q326.4219,318.6563 326.6094,318.5469 Q326.7969,318.4375 327.0156,318.4375 Q327.3906,318.4375 327.625,318.6953 Q327.8594,318.9531 327.8594,319.5625 L327.8594,321.0156 Q327.8594,321.625 327.625,321.8906 Q327.3906,322.1563 327.0156,322.1563 Q326.6719,322.1563 326.4688,321.9531 Q326.2656,321.7656 326.1563,321.25 Q326.1094,320.8906 325.9219,320.7031 Q325.5938,320.3281 324.9844,320.1094 Q324.375,319.8906 323.75,319.8906 Q322.9844,319.8906 322.3516,320.2188 Q321.7188,320.5469 321.2266,321.2969 Q320.7344,322.0469 320.7344,323.0781 L320.7344,324.1719 Q320.7344,325.4063 321.625,326.2266 Q322.5156,327.0469 324.1094,327.0469 Q325.0469,327.0469 325.7031,326.7969 Q326.0938,326.6406 326.5156,326.2031 Q326.7813,325.9375 326.9297,325.8594 Q327.0781,325.7813 327.2813,325.7813 Q327.6094,325.7813 327.8672,326.0391 Q328.125,326.2969 328.125,326.6406 Q328.125,326.9844 327.7813,327.3906 Q327.2813,327.9688 326.4844,328.2969 Q325.4063,328.75 324.1094,328.75 Q322.5938,328.75 321.3906,328.125 Q320.4063,327.625 319.7188,326.5547 Q319.0313,325.4844 319.0313,324.2031 L319.0313,323.0469 Q319.0313,321.7188 319.6484,320.5703 Q320.2656,319.4219 321.3594,318.8047 Q322.4531,318.1875 323.6875,318.1875 Q324.4219,318.1875 325.0703,318.3516 Q325.7188,318.5156 326.2656,318.875 Z "/><text fill="#000000" font-family="sans-serif" font-size="12" lengthAdjust="spacingAndGlyphs" textLength="47" x="337.5" y="327.9102">Persona</text><line style="stroke: #A80036; stroke-width: 1.5;" x1="309.5" x2="386.5" y1="339" y2="339"/><line style="stroke: #A80036; stroke-width: 1.5;" x1="309.5" x2="386.5" y1="347" y2="347"/><!--class Mujer--><rect fill="#FEFECE" filter="url(#f1gjmexh9b2x4d)" height="48" id="Mujer" style="stroke: #A80036; stroke-width: 1.5;" width="62" x="193" y="199"/><ellipse cx="208" cy="215" fill="#ADD1B2" rx="11" ry="11" style="stroke: #A80036; stroke-width: 1.0;"/><path d="M210.7656,210.875 Q210.9219,210.6563 211.1094,210.5469 Q211.2969,210.4375 211.5156,210.4375 Q211.8906,210.4375 212.125,210.6953 Q212.3594,210.9531 212.3594,211.5625 L212.3594,213.0156 Q212.3594,213.625 212.125,213.8906 Q211.8906,214.1563 211.5156,214.1563 Q211.1719,214.1563 210.9688,213.9531 Q210.7656,213.7656 210.6563,213.25 Q210.6094,212.8906 210.4219,212.7031 Q210.0938,212.3281 209.4844,212.1094 Q208.875,211.8906 208.25,211.8906 Q207.4844,211.8906 206.8516,212.2188 Q206.2188,212.5469 205.7266,213.2969 Q205.2344,214.0469 205.2344,215.0781 L205.2344,216.1719 Q205.2344,217.4063 206.125,218.2266 Q207.0156,219.0469 208.6094,219.0469 Q209.5469,219.0469 210.2031,218.7969 Q210.5938,218.6406 211.0156,218.2031 Q211.2813,217.9375 211.4297,217.8594 Q211.5781,217.7813 211.7813,217.7813 Q212.1094,217.7813 212.3672,218.0391 Q212.625,218.2969 212.625,218.6406 Q212.625,218.9844 212.2813,219.3906 Q211.7813,219.9688 210.9844,220.2969 Q209.9063,220.75 208.6094,220.75 Q207.0938,220.75 205.8906,220.125 Q204.9063,219.625 204.2188,218.5547 Q203.5313,217.4844 203.5313,216.2031 L203.5313,215.0469 Q203.5313,213.7188 204.1484,212.5703 Q204.7656,211.4219 205.8594,210.8047 Q206.9531,210.1875 208.1875,210.1875 Q208.9219,210.1875 209.5703,210.3516 Q210.2188,210.5156 210.7656,210.875 Z "/><text fill="#000000" font-family="sans-serif" font-size="12" lengthAdjust="spacingAndGlyphs" textLength="30" x="222" y="219.9102">Mujer</text><line style="stroke: #A80036; stroke-width: 1.5;" x1="194" x2="254" y1="231" y2="231"/><line style="stroke: #A80036; stroke-width: 1.5;" x1="194" x2="254" y1="239" y2="239"/><!--class Hombre--><rect fill="#FEFECE" filter="url(#f1gjmexh9b2x4d)" height="48" id="Hombre" style="stroke: #A80036; stroke-width: 1.5;" width="77" x="434.5" y="199"/><ellipse cx="449.5" cy="215" fill="#ADD1B2" rx="11" ry="11" style="stroke: #A80036; stroke-width: 1.0;"/><path d="M452.2656,210.875 Q452.4219,210.6563 452.6094,210.5469 Q452.7969,210.4375 453.0156,210.4375 Q453.3906,210.4375 453.625,210.6953 Q453.8594,210.9531 453.8594,211.5625 L453.8594,213.0156 Q453.8594,213.625 453.625,213.8906 Q453.3906,214.1563 453.0156,214.1563 Q452.6719,214.1563 452.4688,213.9531 Q452.2656,213.7656 452.1563,213.25 Q452.1094,212.8906 451.9219,212.7031 Q451.5938,212.3281 450.9844,212.1094 Q450.375,211.8906 449.75,211.8906 Q448.9844,211.8906 448.3516,212.2188 Q447.7188,212.5469 447.2266,213.2969 Q446.7344,214.0469 446.7344,215.0781 L446.7344,216.1719 Q446.7344,217.4063 447.625,218.2266 Q448.5156,219.0469 450.1094,219.0469 Q451.0469,219.0469 451.7031,218.7969 Q452.0938,218.6406 452.5156,218.2031 Q452.7813,217.9375 452.9297,217.8594 Q453.0781,217.7813 453.2813,217.7813 Q453.6094,217.7813 453.8672,218.0391 Q454.125,218.2969 454.125,218.6406 Q454.125,218.9844 453.7813,219.3906 Q453.2813,219.9688 452.4844,220.2969 Q451.4063,220.75 450.1094,220.75 Q448.5938,220.75 447.3906,220.125 Q446.4063,219.625 445.7188,218.5547 Q445.0313,217.4844 445.0313,216.2031 L445.0313,215.0469 Q445.0313,213.7188 445.6484,212.5703 Q446.2656,211.4219 447.3594,210.8047 Q448.4531,210.1875 449.6875,210.1875 Q450.4219,210.1875 451.0703,210.3516 Q451.7188,210.5156 452.2656,210.875 Z "/><text fill="#000000" font-family="sans-serif" font-size="12" lengthAdjust="spacingAndGlyphs" textLength="45" x="463.5" y="219.9102">Hombre</text><line style="stroke: #A80036; stroke-width: 1.5;" x1="435.5" x2="510.5" y1="231" y2="231"/><line style="stroke: #A80036; stroke-width: 1.5;" x1="435.5" x2="510.5" y1="239" y2="239"/><!--link Mujer to Persona--><path d="M250.906,247 C266.802,260.5888 287.287,278.1 305.34,293.5328 " fill="none" id="Mujer-Persona" style="stroke: #A80036; stroke-width: 1.0;"/><polygon fill="none" points="310.064,288.3619,320.718,306.6784,300.967,299.0036,310.064,288.3619" style="stroke: #A80036; stroke-width: 1.0;"/><!--link Hombre to Persona--><path d="M445.877,247 C429.853,260.5888 409.203,278.1 391.004,293.5328 " fill="none" id="Hombre-Persona" style="stroke: #A80036; stroke-width: 1.0;"/><polygon fill="none" points="395.283,299.082,375.502,306.6784,386.228,288.4043,395.283,299.082" style="stroke: #A80036; stroke-width: 1.0;"/><!--link Tu to Mujer--><path d="M80.1896,139.141 C84.7034,153.757 93.2969,174.574 108,187 C130.425,205.951 162.878,214.641 187.759,218.626 " fill="none" id="Tu-Mujer" style="stroke: #A80036; stroke-width: 1.0; stroke-dasharray: 7.0,7.0;"/><polygon fill="#A80036" points="192.947,219.407,184.6427,214.1118,188.0027,218.6627,183.4518,222.0227,192.947,219.407" style="stroke: #A80036; stroke-width: 1.0;"/><!--link Ludmila to Mujer--><path d="M166.705,139.379 C177.126,154.406 192.569,176.676 204.797,194.309 " fill="none" id="Ludmila-Mujer" style="stroke: #A80036; stroke-width: 1.0; stroke-dasharray: 7.0,7.0;"/><polygon fill="#A80036" points="207.832,198.685,205.989,189.0101,204.9822,194.5767,199.4156,193.5699,207.832,198.685" style="stroke: #A80036; stroke-width: 1.0;"/><!--link MariaSkłodowskaCurie to Mujer--><path d="M282.125,139.379 C271.553,154.406 255.886,176.676 243.481,194.309 " fill="none" id="MariaSkłodowskaCurie-Mujer" style="stroke: #A80036; stroke-width: 1.0; stroke-dasharray: 7.0,7.0;"/><polygon fill="#A80036" points="240.402,198.685,248.8518,193.6253,243.2788,194.5955,242.3086,189.0225,240.402,198.685" style="stroke: #A80036; stroke-width: 1.0;"/><!--link Yo to Hombre--><path d="M443.937,139.379 C449.178,154.279 456.924,176.299 463.102,193.86 " fill="none" id="Yo-Hombre" style="stroke: #A80036; stroke-width: 1.0; stroke-dasharray: 7.0,7.0;"/><polygon fill="#A80036" points="464.799,198.685,465.5872,188.8677,463.1405,193.9681,458.0402,191.5213,464.799,198.685" style="stroke: #A80036; stroke-width: 1.0;"/><!--link Murat to Hombre--><path d="M502.893,139.379 C497.502,154.279 489.535,176.299 483.181,193.86 " fill="none" id="Murat-Hombre" style="stroke: #A80036; stroke-width: 1.0; stroke-dasharray: 7.0,7.0;"/><polygon fill="#A80036" points="481.435,198.685,488.2589,191.5833,483.1365,193.9834,480.7364,188.8609,481.435,198.685" style="stroke: #A80036; stroke-width: 1.0;"/><!--link Manuel to Hombre--><path d="M616.085,139.124 C598.964,152.952 573.266,172.626 549,187 C538.72,193.089 527.201,198.878 516.299,203.932 " fill="none" id="Manuel-Hombre" style="stroke: #A80036; stroke-width: 1.0; stroke-dasharray: 7.0,7.0;"/><polygon fill="#A80036" points="511.671,206.052,521.5192,205.942,516.2171,203.9704,518.1887,198.6682,511.671,206.052" style="stroke: #A80036; stroke-width: 1.0;"/><!--
@startuml

class Persona
class Mujer
class Hombre

Persona <|-up- Mujer
Persona <|-up- Hombre

package personas {

package mujeres {
object "Tú" as Tu
object Ludmila
object "Maria Skłodowska-Curie" as MariaSkłodowskaCurie
}

package hombres {
object Yo
object Murat
object "Manuel Elkin Patarroyo" as Manuel
}

}

Mujer <.down. Tu
Mujer <.down. Ludmila
Mujer <.down. MariaSkłodowskaCurie

Hombre <.down. Yo
Hombre <.down. Murat
Hombre <.down. Manuel

@enduml

PlantUML version 1.2019.05(Sat Apr 20 18:45:36 CEST 2019)
(GPL source distribution)
Java Runtime: Java(TM) SE Runtime Environment
JVM: Java HotSpot(TM) 64-Bit Server VM
Java Version: 1.8.0_211-b12
Operating System: Windows 10
OS Version: 10.0
Default Encoding: windows-1252
Language: es
Country: ES
--></g></svg>