<?xml version="1.0" encoding="UTF-8" standalone="no"?><svg xmlns="http://www.w3.org/2000/svg" xmlns:xlink="http://www.w3.org/1999/xlink" contentScriptType="application/ecmascript" contentStyleType="text/css" height="149px" preserveAspectRatio="none" style="width:251px;height:149px;" version="1.1" viewBox="0 0 251 149" width="251px" zoomAndPan="magnify"><defs><filter height="300%" id="fqkp1gbeyllpx" width="300%" x="-1" y="-1"><feGaussianBlur result="blurOut" stdDeviation="2.0"/><feColorMatrix in="blurOut" result="blurOut2" type="matrix" values="0 0 0 0 0 0 0 0 0 0 0 0 0 0 0 0 0 0 .4 0"/><feOffset dx="4.0" dy="4.0" in="blurOut2" result="blurOut3"/><feBlend in="SourceGraphic" in2="blurOut3" mode="normal"/></filter></defs><g><rect fill="#FEFECE" filter="url(#fqkp1gbeyllpx)" height="35.0938" style="stroke: #A80036; stroke-width: 1.5;" width="88" x="6" y="8"/><text fill="#000000" font-family="sans-serif" font-size="12" lengthAdjust="spacingAndGlyphs" textLength="74" x="13" y="22.457">Parte1/Todo1</text><line style="stroke: #A80036; stroke-width: 1.5;" x1="7" x2="93" y1="27.0938" y2="27.0938"/><rect fill="#FEFECE" filter="url(#fqkp1gbeyllpx)" height="35.0938" style="stroke: #A80036; stroke-width: 1.5;" width="88" x="152" y="8"/><text fill="#000000" font-family="sans-serif" font-size="12" lengthAdjust="spacingAndGlyphs" textLength="74" x="159" y="22.457">Parte2/Todo2</text><line style="stroke: #A80036; stroke-width: 1.5;" x1="153" x2="239" y1="27.0938" y2="27.0938"/><rect fill="#FEFECE" filter="url(#fqkp1gbeyllpx)" height="35.0938" style="stroke: #A80036; stroke-width: 1.5;" width="50" x="13" y="103"/><text fill="#000000" font-family="sans-serif" font-size="12" lengthAdjust="spacingAndGlyphs" textLength="36" x="20" y="117.457">Parte1</text><line style="stroke: #A80036; stroke-width: 1.5;" x1="14" x2="62" y1="122.0938" y2="122.0938"/><rect fill="#FEFECE" filter="url(#fqkp1gbeyllpx)" height="35.0938" style="stroke: #A80036; stroke-width: 1.5;" width="50" x="98" y="103"/><text fill="#000000" font-family="sans-serif" font-size="12" lengthAdjust="spacingAndGlyphs" textLength="36" x="105" y="117.457">Parte3</text><line style="stroke: #A80036; stroke-width: 1.5;" x1="99" x2="147" y1="122.0938" y2="122.0938"/><rect fill="#FEFECE" filter="url(#fqkp1gbeyllpx)" height="35.0938" style="stroke: #A80036; stroke-width: 1.5;" width="50" x="183" y="103"/><text fill="#000000" font-family="sans-serif" font-size="12" lengthAdjust="spacingAndGlyphs" textLength="36" x="190" y="117.457">Parte2</text><line style="stroke: #A80036; stroke-width: 1.5;" x1="184" x2="232" y1="122.0938" y2="122.0938"/><!--link Parte1Todo2 to Parte21--><path d="M46.1659,56.2141 C44.7871,66.9002 43.232,78.9523 41.8516,89.6499 " fill="none" id="Parte1Todo2-Parte21" style="stroke: #A80036; stroke-width: 1.0;"/><polygon fill="#A80036" points="40.1672,102.7038,45.2861,94.2897,40.8071,97.7449,37.3519,93.2659,40.1672,102.7038" style="stroke: #A80036; stroke-width: 1.0;"/><line style="stroke: #A80036; stroke-width: 1.0;" x1="40.8071" x2="41.831" y1="97.7449" y2="89.8107"/><polygon fill="#A80036" points="47.8546,43.1265,43.1196,48.5653,46.3189,55.0278,51.0538,49.5891,47.8546,43.1265" style="stroke: #A80036; stroke-width: 1.0;"/><!--link Parte1Todo2 to Parte4--><path d="M71.1346,53.4249 C80.6963,65.6063 91.979,79.98 101.5751,92.2052 " fill="none" id="Parte1Todo2-Parte4" style="stroke: #A80036; stroke-width: 1.0;"/><polygon fill="#A80036" points="109.816,102.7038,107.4054,93.1545,106.7288,98.7707,101.1125,98.0941,109.816,102.7038" style="stroke: #A80036; stroke-width: 1.0;"/><line style="stroke: #A80036; stroke-width: 1.0;" x1="106.7288" x2="101.7891" y1="98.7707" y2="92.4779"/><polygon fill="#A80036" points="63.0509,43.1265,63.6091,50.316,70.4603,52.5658,69.902,45.3764,63.0509,43.1265" style="stroke: #A80036; stroke-width: 1.0;"/><!--link Parte2Todo3 to Parte4--><path d="M174.865,53.4249 C165.304,65.6063 154.021,79.98 144.425,92.2052 " fill="none" id="Parte2Todo3-Parte4" style="stroke: #A80036; stroke-width: 1.0;"/><polygon fill="#A80036" points="136.184,102.7038,144.8875,98.0942,139.2713,98.7708,138.5947,93.1545,136.184,102.7038" style="stroke: #A80036; stroke-width: 1.0;"/><line style="stroke: #A80036; stroke-width: 1.0;" x1="139.2713" x2="144.211" y1="98.7708" y2="92.4779"/><polygon fill="#A80036" points="182.949,43.1265,176.0978,45.3763,175.5395,52.5657,182.3907,50.316,182.949,43.1265" style="stroke: #A80036; stroke-width: 1.0;"/><!--link Parte2Todo3 to Parte32--><path d="M199.834,56.2141 C201.213,66.9002 202.768,78.9523 204.148,89.6499 " fill="none" id="Parte2Todo3-Parte32" style="stroke: #A80036; stroke-width: 1.0;"/><polygon fill="#A80036" points="205.833,102.7038,208.6484,93.2659,205.1932,97.7449,200.7142,94.2897,205.833,102.7038" style="stroke: #A80036; stroke-width: 1.0;"/><line style="stroke: #A80036; stroke-width: 1.0;" x1="205.1932" x2="204.169" y1="97.7449" y2="89.8107"/><polygon fill="#A80036" points="198.145,43.1265,194.9457,49.589,199.6806,55.0278,202.8799,48.5653,198.145,43.1265" style="stroke: #A80036; stroke-width: 1.0;"/><!--
@startuml

object "Parte1/Todo1" as Parte1Todo2
object "Parte2/Todo2" as Parte2Todo3
object "Parte1" as Parte21
object "Parte3" as Parte4
object "Parte2" as Parte32

Parte1Todo2 *-down-> Parte21
Parte1Todo2 *-down-> Parte4
Parte2Todo3 *-down-> Parte4
Parte2Todo3 *-down-> Parte32

@enduml

PlantUML version 1.2019.05(Sat Apr 20 18:45:36 CEST 2019)
(GPL source distribution)
Java Runtime: Java(TM) SE Runtime Environment
JVM: Java HotSpot(TM) 64-Bit Server VM
Java Version: 1.8.0_211-b12
Operating System: Windows 10
OS Version: 10.0
Default Encoding: windows-1252
Language: es
Country: ES
--></g></svg>