<?xml version="1.0" encoding="UTF-8" standalone="no"?><svg xmlns="http://www.w3.org/2000/svg" xmlns:xlink="http://www.w3.org/1999/xlink" contentScriptType="application/ecmascript" contentStyleType="text/css" height="366px" preserveAspectRatio="none" style="width:652px;height:366px;" version="1.1" viewBox="0 0 652 366" width="652px" zoomAndPan="magnify"><defs><filter height="300%" id="f62p1wiuj0mh9" width="300%" x="-1" y="-1"><feGaussianBlur result="blurOut" stdDeviation="2.0"/><feColorMatrix in="blurOut" result="blurOut2" type="matrix" values="0 0 0 0 0 0 0 0 0 0 0 0 0 0 0 0 0 0 .4 0"/><feOffset dx="4.0" dy="4.0" in="blurOut2" result="blurOut3"/><feBlend in="SourceGraphic" in2="blurOut3" mode="normal"/></filter></defs><g><!--cluster coleccion--><polygon fill="#FFFFFF" filter="url(#f62p1wiuj0mh9)" points="22,24,96,24,103,47.6094,630,47.6094,630,179,22,179,22,24" style="stroke: #000000; stroke-width: 1.5;"/><line style="stroke: #000000; stroke-width: 1.5;" x1="22" x2="103" y1="47.6094" y2="47.6094"/><text fill="#000000" font-family="sans-serif" font-size="14" font-weight="bold" lengthAdjust="spacingAndGlyphs" textLength="68" x="26" y="40.5332">coleccion</text><!--cluster coleccion1--><polygon fill="#FFFFFF" filter="url(#f62p1wiuj0mh9)" points="46,68,128,68,135,91.6094,314,91.6094,314,155,46,155,46,68" style="stroke: #000000; stroke-width: 1.5;"/><line style="stroke: #000000; stroke-width: 1.5;" x1="46" x2="135" y1="91.6094" y2="91.6094"/><text fill="#000000" font-family="sans-serif" font-size="14" font-weight="bold" lengthAdjust="spacingAndGlyphs" textLength="76" x="50" y="84.5332">coleccion1</text><!--cluster coleccion2--><polygon fill="#FFFFFF" filter="url(#f62p1wiuj0mh9)" points="338,68,420,68,427,91.6094,606,91.6094,606,155,338,155,338,68" style="stroke: #000000; stroke-width: 1.5;"/><line style="stroke: #000000; stroke-width: 1.5;" x1="338" x2="427" y1="91.6094" y2="91.6094"/><text fill="#000000" font-family="sans-serif" font-size="14" font-weight="bold" lengthAdjust="spacingAndGlyphs" textLength="76" x="342" y="84.5332">coleccion2</text><rect fill="#FEFECE" filter="url(#f62p1wiuj0mh9)" height="35.0938" style="stroke: #A80036; stroke-width: 1.5;" width="55" x="62.5" y="104"/><text fill="#000000" font-family="sans-serif" font-size="12" lengthAdjust="spacingAndGlyphs" textLength="41" x="69.5" y="118.457">objeto1</text><line style="stroke: #A80036; stroke-width: 1.5;" x1="63.5" x2="116.5" y1="123.0938" y2="123.0938"/><rect fill="#FEFECE" filter="url(#f62p1wiuj0mh9)" height="35.0938" style="stroke: #A80036; stroke-width: 1.5;" width="55" x="152.5" y="104"/><text fill="#000000" font-family="sans-serif" font-size="12" lengthAdjust="spacingAndGlyphs" textLength="41" x="159.5" y="118.457">objeto2</text><line style="stroke: #A80036; stroke-width: 1.5;" x1="153.5" x2="206.5" y1="123.0938" y2="123.0938"/><rect fill="#FEFECE" filter="url(#f62p1wiuj0mh9)" height="35.0938" style="stroke: #A80036; stroke-width: 1.5;" width="55" x="242.5" y="104"/><text fill="#000000" font-family="sans-serif" font-size="12" lengthAdjust="spacingAndGlyphs" textLength="41" x="249.5" y="118.457">objeto3</text><line style="stroke: #A80036; stroke-width: 1.5;" x1="243.5" x2="296.5" y1="123.0938" y2="123.0938"/><rect fill="#FEFECE" filter="url(#f62p1wiuj0mh9)" height="35.0938" style="stroke: #A80036; stroke-width: 1.5;" width="55" x="354.5" y="104"/><text fill="#000000" font-family="sans-serif" font-size="12" lengthAdjust="spacingAndGlyphs" textLength="41" x="361.5" y="118.457">objeto4</text><line style="stroke: #A80036; stroke-width: 1.5;" x1="355.5" x2="408.5" y1="123.0938" y2="123.0938"/><rect fill="#FEFECE" filter="url(#f62p1wiuj0mh9)" height="35.0938" style="stroke: #A80036; stroke-width: 1.5;" width="55" x="444.5" y="104"/><text fill="#000000" font-family="sans-serif" font-size="12" lengthAdjust="spacingAndGlyphs" textLength="41" x="451.5" y="118.457">objeto5</text><line style="stroke: #A80036; stroke-width: 1.5;" x1="445.5" x2="498.5" y1="123.0938" y2="123.0938"/><rect fill="#FEFECE" filter="url(#f62p1wiuj0mh9)" height="35.0938" style="stroke: #A80036; stroke-width: 1.5;" width="55" x="534.5" y="104"/><text fill="#000000" font-family="sans-serif" font-size="12" lengthAdjust="spacingAndGlyphs" textLength="41" x="541.5" y="118.457">objeto6</text><line style="stroke: #A80036; stroke-width: 1.5;" x1="535.5" x2="588.5" y1="123.0938" y2="123.0938"/><!--class ClaseBase--><rect fill="#FEFECE" filter="url(#f62p1wiuj0mh9)" height="48" id="ClaseBase" style="stroke: #A80036; stroke-width: 1.5;" width="90" x="273" y="307"/><ellipse cx="288" cy="323" fill="#ADD1B2" rx="11" ry="11" style="stroke: #A80036; stroke-width: 1.0;"/><path d="M290.7656,318.875 Q290.9219,318.6563 291.1094,318.5469 Q291.2969,318.4375 291.5156,318.4375 Q291.8906,318.4375 292.125,318.6953 Q292.3594,318.9531 292.3594,319.5625 L292.3594,321.0156 Q292.3594,321.625 292.125,321.8906 Q291.8906,322.1563 291.5156,322.1563 Q291.1719,322.1563 290.9688,321.9531 Q290.7656,321.7656 290.6563,321.25 Q290.6094,320.8906 290.4219,320.7031 Q290.0938,320.3281 289.4844,320.1094 Q288.875,319.8906 288.25,319.8906 Q287.4844,319.8906 286.8516,320.2188 Q286.2188,320.5469 285.7266,321.2969 Q285.2344,322.0469 285.2344,323.0781 L285.2344,324.1719 Q285.2344,325.4063 286.125,326.2266 Q287.0156,327.0469 288.6094,327.0469 Q289.5469,327.0469 290.2031,326.7969 Q290.5938,326.6406 291.0156,326.2031 Q291.2813,325.9375 291.4297,325.8594 Q291.5781,325.7813 291.7813,325.7813 Q292.1094,325.7813 292.3672,326.0391 Q292.625,326.2969 292.625,326.6406 Q292.625,326.9844 292.2813,327.3906 Q291.7813,327.9688 290.9844,328.2969 Q289.9063,328.75 288.6094,328.75 Q287.0938,328.75 285.8906,328.125 Q284.9063,327.625 284.2188,326.5547 Q283.5313,325.4844 283.5313,324.2031 L283.5313,323.0469 Q283.5313,321.7188 284.1484,320.5703 Q284.7656,319.4219 285.8594,318.8047 Q286.9531,318.1875 288.1875,318.1875 Q288.9219,318.1875 289.5703,318.3516 Q290.2188,318.5156 290.7656,318.875 Z "/><text fill="#000000" font-family="sans-serif" font-size="12" lengthAdjust="spacingAndGlyphs" textLength="58" x="302" y="327.9102">Clas Base</text><line style="stroke: #A80036; stroke-width: 1.5;" x1="274" x2="362" y1="339" y2="339"/><line style="stroke: #A80036; stroke-width: 1.5;" x1="274" x2="362" y1="347" y2="347"/><!--class ClaseDescendiente1--><rect fill="#FEFECE" filter="url(#f62p1wiuj0mh9)" height="48" id="ClaseDescendiente1" style="stroke: #A80036; stroke-width: 1.5;" width="152" x="134" y="199"/><ellipse cx="149" cy="215" fill="#ADD1B2" rx="11" ry="11" style="stroke: #A80036; stroke-width: 1.0;"/><path d="M151.7656,210.875 Q151.9219,210.6563 152.1094,210.5469 Q152.2969,210.4375 152.5156,210.4375 Q152.8906,210.4375 153.125,210.6953 Q153.3594,210.9531 153.3594,211.5625 L153.3594,213.0156 Q153.3594,213.625 153.125,213.8906 Q152.8906,214.1563 152.5156,214.1563 Q152.1719,214.1563 151.9688,213.9531 Q151.7656,213.7656 151.6563,213.25 Q151.6094,212.8906 151.4219,212.7031 Q151.0938,212.3281 150.4844,212.1094 Q149.875,211.8906 149.25,211.8906 Q148.4844,211.8906 147.8516,212.2188 Q147.2188,212.5469 146.7266,213.2969 Q146.2344,214.0469 146.2344,215.0781 L146.2344,216.1719 Q146.2344,217.4063 147.125,218.2266 Q148.0156,219.0469 149.6094,219.0469 Q150.5469,219.0469 151.2031,218.7969 Q151.5938,218.6406 152.0156,218.2031 Q152.2813,217.9375 152.4297,217.8594 Q152.5781,217.7813 152.7813,217.7813 Q153.1094,217.7813 153.3672,218.0391 Q153.625,218.2969 153.625,218.6406 Q153.625,218.9844 153.2813,219.3906 Q152.7813,219.9688 151.9844,220.2969 Q150.9063,220.75 149.6094,220.75 Q148.0938,220.75 146.8906,220.125 Q145.9063,219.625 145.2188,218.5547 Q144.5313,217.4844 144.5313,216.2031 L144.5313,215.0469 Q144.5313,213.7188 145.1484,212.5703 Q145.7656,211.4219 146.8594,210.8047 Q147.9531,210.1875 149.1875,210.1875 Q149.9219,210.1875 150.5703,210.3516 Q151.2188,210.5156 151.7656,210.875 Z "/><text fill="#000000" font-family="sans-serif" font-size="12" lengthAdjust="spacingAndGlyphs" textLength="120" x="163" y="219.9102">Clase Descendiente1</text><line style="stroke: #A80036; stroke-width: 1.5;" x1="135" x2="285" y1="231" y2="231"/><line style="stroke: #A80036; stroke-width: 1.5;" x1="135" x2="285" y1="239" y2="239"/><!--class ClaseDescendiente2--><rect fill="#FEFECE" filter="url(#f62p1wiuj0mh9)" height="48" id="ClaseDescendiente2" style="stroke: #A80036; stroke-width: 1.5;" width="152" x="351" y="199"/><ellipse cx="366" cy="215" fill="#ADD1B2" rx="11" ry="11" style="stroke: #A80036; stroke-width: 1.0;"/><path d="M368.7656,210.875 Q368.9219,210.6563 369.1094,210.5469 Q369.2969,210.4375 369.5156,210.4375 Q369.8906,210.4375 370.125,210.6953 Q370.3594,210.9531 370.3594,211.5625 L370.3594,213.0156 Q370.3594,213.625 370.125,213.8906 Q369.8906,214.1563 369.5156,214.1563 Q369.1719,214.1563 368.9688,213.9531 Q368.7656,213.7656 368.6563,213.25 Q368.6094,212.8906 368.4219,212.7031 Q368.0938,212.3281 367.4844,212.1094 Q366.875,211.8906 366.25,211.8906 Q365.4844,211.8906 364.8516,212.2188 Q364.2188,212.5469 363.7266,213.2969 Q363.2344,214.0469 363.2344,215.0781 L363.2344,216.1719 Q363.2344,217.4063 364.125,218.2266 Q365.0156,219.0469 366.6094,219.0469 Q367.5469,219.0469 368.2031,218.7969 Q368.5938,218.6406 369.0156,218.2031 Q369.2813,217.9375 369.4297,217.8594 Q369.5781,217.7813 369.7813,217.7813 Q370.1094,217.7813 370.3672,218.0391 Q370.625,218.2969 370.625,218.6406 Q370.625,218.9844 370.2813,219.3906 Q369.7813,219.9688 368.9844,220.2969 Q367.9063,220.75 366.6094,220.75 Q365.0938,220.75 363.8906,220.125 Q362.9063,219.625 362.2188,218.5547 Q361.5313,217.4844 361.5313,216.2031 L361.5313,215.0469 Q361.5313,213.7188 362.1484,212.5703 Q362.7656,211.4219 363.8594,210.8047 Q364.9531,210.1875 366.1875,210.1875 Q366.9219,210.1875 367.5703,210.3516 Q368.2188,210.5156 368.7656,210.875 Z "/><text fill="#000000" font-family="sans-serif" font-size="12" lengthAdjust="spacingAndGlyphs" textLength="120" x="380" y="219.9102">Clase Descendiente2</text><line style="stroke: #A80036; stroke-width: 1.5;" x1="352" x2="502" y1="231" y2="231"/><line style="stroke: #A80036; stroke-width: 1.5;" x1="352" x2="502" y1="239" y2="239"/><!--link ClaseDescendiente1 to ClaseBase--><path d="M233.434,247 C246.928,260.2439 264.218,277.2136 279.644,292.3538 " fill="none" id="ClaseDescendiente1-ClaseBase" style="stroke: #A80036; stroke-width: 1.0;"/><polygon fill="none" points="284.868,287.6732,294.238,306.6784,275.061,297.6648,284.868,287.6732" style="stroke: #A80036; stroke-width: 1.0;"/><!--link ClaseDescendiente2 to ClaseBase--><path d="M403.349,247 C389.73,260.2439 372.28,277.2136 356.712,292.3538 " fill="none" id="ClaseDescendiente2-ClaseBase" style="stroke: #A80036; stroke-width: 1.0;"/><polygon fill="none" points="361.2,297.7533,341.982,306.6784,351.44,287.7166,361.2,297.7533" style="stroke: #A80036; stroke-width: 1.0;"/><!--link objeto1 to ClaseDescendiente1--><path d="M98.3811,139.173 C106.229,153.409 119.115,173.644 135,187 C138.877,190.26 143.108,193.285 147.522,196.079 " fill="none" id="objeto1-ClaseDescendiente1" style="stroke: #A80036; stroke-width: 1.0; stroke-dasharray: 7.0,7.0;"/><polygon fill="#A80036" points="151.992,198.796,146.38,190.7024,147.7197,196.1984,142.2238,197.538,151.992,198.796" style="stroke: #A80036; stroke-width: 1.0;"/><!--link objeto2 to ClaseDescendiente1--><path d="M185.089,139.379 C189.582,154.279 196.221,176.299 201.516,193.86 " fill="none" id="objeto2-ClaseDescendiente1" style="stroke: #A80036; stroke-width: 1.0; stroke-dasharray: 7.0,7.0;"/><polygon fill="#A80036" points="202.97,198.685,204.2026,188.9136,201.5271,193.8977,196.543,191.2222,202.97,198.685" style="stroke: #A80036; stroke-width: 1.0;"/><!--link objeto3 to ClaseDescendiente1--><path d="M259.822,139.379 C250.76,154.406 237.331,176.676 226.698,194.309 " fill="none" id="objeto3-ClaseDescendiente1" style="stroke: #A80036; stroke-width: 1.0; stroke-dasharray: 7.0,7.0;"/><polygon fill="#A80036" points="224.059,198.685,232.1308,193.0417,226.6401,194.4027,225.2791,188.912,224.059,198.685" style="stroke: #A80036; stroke-width: 1.0;"/><!--link objeto4 to ClaseDescendiente2--><path d="M389.634,139.379 C396.372,154.279 406.331,176.299 414.273,193.86 " fill="none" id="objeto4-ClaseDescendiente2" style="stroke: #A80036; stroke-width: 1.0; stroke-dasharray: 7.0,7.0;"/><polygon fill="#A80036" points="416.456,198.685,416.3926,188.8363,414.3959,194.1291,409.1032,192.1325,416.456,198.685" style="stroke: #A80036; stroke-width: 1.0;"/><!--link objeto5 to ClaseDescendiente2--><path d="M464.366,139.379 C457.628,154.279 447.669,176.299 439.727,193.86 " fill="none" id="objeto5-ClaseDescendiente2" style="stroke: #A80036; stroke-width: 1.0; stroke-dasharray: 7.0,7.0;"/><polygon fill="#A80036" points="437.544,198.685,444.8968,192.1325,439.6041,194.1291,437.6074,188.8363,437.544,198.685" style="stroke: #A80036; stroke-width: 1.0;"/><!--link objeto6 to ClaseDescendiente2--><path d="M553.984,139.152 C546.289,153.571 533.423,174.089 517,187 C512.661,190.411 507.95,193.524 503.033,196.358 " fill="none" id="objeto6-ClaseDescendiente2" style="stroke: #A80036; stroke-width: 1.0; stroke-dasharray: 7.0,7.0;"/><polygon fill="#A80036" points="498.466,198.884,508.2779,198.0311,502.842,196.4653,504.4079,191.0294,498.466,198.884" style="stroke: #A80036; stroke-width: 1.0;"/><!--
@startuml

class "Clas Base" as ClaseBase
class "Clase Descendiente1" as ClaseDescendiente1
class "Clase Descendiente2" as ClaseDescendiente2

ClaseBase <|-up- ClaseDescendiente1
ClaseBase <|-up- ClaseDescendiente2

package coleccion {

package coleccion1 {
object objeto1
object objeto2
object objeto3
}

package coleccion2 {
object objeto4
object objeto5
object objeto6
}

}

ClaseDescendiente1 <.down. objeto1
ClaseDescendiente1 <.down. objeto2
ClaseDescendiente1 <.down. objeto3

ClaseDescendiente2 <.down. objeto4
ClaseDescendiente2 <.down. objeto5
ClaseDescendiente2 <.down. objeto6

@enduml

PlantUML version 1.2019.05(Sat Apr 20 18:45:36 CEST 2019)
(GPL source distribution)
Java Runtime: Java(TM) SE Runtime Environment
JVM: Java HotSpot(TM) 64-Bit Server VM
Java Version: 1.8.0_211-b12
Operating System: Windows 10
OS Version: 10.0
Default Encoding: windows-1252
Language: es
Country: ES
--></g></svg>