<?xml version="1.0" encoding="UTF-8" standalone="no"?><svg xmlns="http://www.w3.org/2000/svg" xmlns:xlink="http://www.w3.org/1999/xlink" contentScriptType="application/ecmascript" contentStyleType="text/css" height="675px" preserveAspectRatio="none" style="width:1027px;height:675px;" version="1.1" viewBox="0 0 1027 675" width="1027px" zoomAndPan="magnify"><defs><filter height="300%" id="f1coibg6av1o5q" width="300%" x="-1" y="-1"><feGaussianBlur result="blurOut" stdDeviation="2.0"/><feColorMatrix in="blurOut" result="blurOut2" type="matrix" values="0 0 0 0 0 0 0 0 0 0 0 0 0 0 0 0 0 0 .4 0"/><feOffset dx="4.0" dy="4.0" in="blurOut2" result="blurOut3"/><feBlend in="SourceGraphic" in2="blurOut3" mode="normal"/></filter></defs><g><!--cluster modularizacion--><!--cluster sistemas--><!--cluster capacidades--><!--class Interfaz--><rect fill="#0000FF" filter="url(#f1coibg6av1o5q)" height="48" id="Interfaz" style="stroke: #A80036; stroke-width: 1.5;" width="71" x="902.5" y="292"/><rect fill="#0000FF" height="32" style="stroke: #A80036; stroke-width: 1.5;" width="71" x="902.5" y="292"/><ellipse cx="917.5" cy="308" fill="#ADD1B2" rx="11" ry="11" style="stroke: #A80036; stroke-width: 1.0;"/><path d="M920.2656,303.875 Q920.4219,303.6563 920.6094,303.5469 Q920.7969,303.4375 921.0156,303.4375 Q921.3906,303.4375 921.625,303.6953 Q921.8594,303.9531 921.8594,304.5625 L921.8594,306.0156 Q921.8594,306.625 921.625,306.8906 Q921.3906,307.1563 921.0156,307.1563 Q920.6719,307.1563 920.4688,306.9531 Q920.2656,306.7656 920.1563,306.25 Q920.1094,305.8906 919.9219,305.7031 Q919.5938,305.3281 918.9844,305.1094 Q918.375,304.8906 917.75,304.8906 Q916.9844,304.8906 916.3516,305.2188 Q915.7188,305.5469 915.2266,306.2969 Q914.7344,307.0469 914.7344,308.0781 L914.7344,309.1719 Q914.7344,310.4063 915.625,311.2266 Q916.5156,312.0469 918.1094,312.0469 Q919.0469,312.0469 919.7031,311.7969 Q920.0938,311.6406 920.5156,311.2031 Q920.7813,310.9375 920.9297,310.8594 Q921.0781,310.7813 921.2813,310.7813 Q921.6094,310.7813 921.8672,311.0391 Q922.125,311.2969 922.125,311.6406 Q922.125,311.9844 921.7813,312.3906 Q921.2813,312.9688 920.4844,313.2969 Q919.4063,313.75 918.1094,313.75 Q916.5938,313.75 915.3906,313.125 Q914.4063,312.625 913.7188,311.5547 Q913.0313,310.4844 913.0313,309.2031 L913.0313,308.0469 Q913.0313,306.7188 913.6484,305.5703 Q914.2656,304.4219 915.3594,303.8047 Q916.4531,303.1875 917.6875,303.1875 Q918.4219,303.1875 919.0703,303.3516 Q919.7188,303.5156 920.2656,303.875 Z "/><text fill="#000000" font-family="sans-serif" font-size="12" lengthAdjust="spacingAndGlyphs" textLength="39" x="931.5" y="312.9102">Interfaz</text><line style="stroke: #A80036; stroke-width: 1.5;" x1="903.5" x2="972.5" y1="324" y2="324"/><line style="stroke: #A80036; stroke-width: 1.5;" x1="903.5" x2="972.5" y1="332" y2="332"/><!--class Implementacion--><rect fill="#0000FF" filter="url(#f1coibg6av1o5q)" height="48" id="Implementacion" style="stroke: #A80036; stroke-width: 1.5;" width="121" x="852.5" y="400"/><rect fill="#0000FF" height="32" style="stroke: #A80036; stroke-width: 1.5;" width="121" x="852.5" y="400"/><ellipse cx="867.5" cy="416" fill="#ADD1B2" rx="11" ry="11" style="stroke: #A80036; stroke-width: 1.0;"/><path d="M870.2656,411.875 Q870.4219,411.6563 870.6094,411.5469 Q870.7969,411.4375 871.0156,411.4375 Q871.3906,411.4375 871.625,411.6953 Q871.8594,411.9531 871.8594,412.5625 L871.8594,414.0156 Q871.8594,414.625 871.625,414.8906 Q871.3906,415.1563 871.0156,415.1563 Q870.6719,415.1563 870.4688,414.9531 Q870.2656,414.7656 870.1563,414.25 Q870.1094,413.8906 869.9219,413.7031 Q869.5938,413.3281 868.9844,413.1094 Q868.375,412.8906 867.75,412.8906 Q866.9844,412.8906 866.3516,413.2188 Q865.7188,413.5469 865.2266,414.2969 Q864.7344,415.0469 864.7344,416.0781 L864.7344,417.1719 Q864.7344,418.4063 865.625,419.2266 Q866.5156,420.0469 868.1094,420.0469 Q869.0469,420.0469 869.7031,419.7969 Q870.0938,419.6406 870.5156,419.2031 Q870.7813,418.9375 870.9297,418.8594 Q871.0781,418.7813 871.2813,418.7813 Q871.6094,418.7813 871.8672,419.0391 Q872.125,419.2969 872.125,419.6406 Q872.125,419.9844 871.7813,420.3906 Q871.2813,420.9688 870.4844,421.2969 Q869.4063,421.75 868.1094,421.75 Q866.5938,421.75 865.3906,421.125 Q864.4063,420.625 863.7188,419.5547 Q863.0313,418.4844 863.0313,417.2031 L863.0313,416.0469 Q863.0313,414.7188 863.6484,413.5703 Q864.2656,412.4219 865.3594,411.8047 Q866.4531,411.1875 867.6875,411.1875 Q868.4219,411.1875 869.0703,411.3516 Q869.7188,411.5156 870.2656,411.875 Z "/><text fill="#000000" font-family="sans-serif" font-size="12" lengthAdjust="spacingAndGlyphs" textLength="89" x="881.5" y="420.9102">Implementación</text><line style="stroke: #A80036; stroke-width: 1.5;" x1="853.5" x2="972.5" y1="432" y2="432"/><line style="stroke: #A80036; stroke-width: 1.5;" x1="853.5" x2="972.5" y1="440" y2="440"/><!--class Acoplamiento--><rect fill="#0000FF" filter="url(#f1coibg6av1o5q)" height="48" id="Acoplamiento" style="stroke: #A80036; stroke-width: 1.5;" width="107" x="760.5" y="292"/><rect fill="#0000FF" height="32" style="stroke: #A80036; stroke-width: 1.5;" width="107" x="760.5" y="292"/><ellipse cx="775.5" cy="308" fill="#ADD1B2" rx="11" ry="11" style="stroke: #A80036; stroke-width: 1.0;"/><path d="M778.2656,303.875 Q778.4219,303.6563 778.6094,303.5469 Q778.7969,303.4375 779.0156,303.4375 Q779.3906,303.4375 779.625,303.6953 Q779.8594,303.9531 779.8594,304.5625 L779.8594,306.0156 Q779.8594,306.625 779.625,306.8906 Q779.3906,307.1563 779.0156,307.1563 Q778.6719,307.1563 778.4688,306.9531 Q778.2656,306.7656 778.1563,306.25 Q778.1094,305.8906 777.9219,305.7031 Q777.5938,305.3281 776.9844,305.1094 Q776.375,304.8906 775.75,304.8906 Q774.9844,304.8906 774.3516,305.2188 Q773.7188,305.5469 773.2266,306.2969 Q772.7344,307.0469 772.7344,308.0781 L772.7344,309.1719 Q772.7344,310.4063 773.625,311.2266 Q774.5156,312.0469 776.1094,312.0469 Q777.0469,312.0469 777.7031,311.7969 Q778.0938,311.6406 778.5156,311.2031 Q778.7813,310.9375 778.9297,310.8594 Q779.0781,310.7813 779.2813,310.7813 Q779.6094,310.7813 779.8672,311.0391 Q780.125,311.2969 780.125,311.6406 Q780.125,311.9844 779.7813,312.3906 Q779.2813,312.9688 778.4844,313.2969 Q777.4063,313.75 776.1094,313.75 Q774.5938,313.75 773.3906,313.125 Q772.4063,312.625 771.7188,311.5547 Q771.0313,310.4844 771.0313,309.2031 L771.0313,308.0469 Q771.0313,306.7188 771.6484,305.5703 Q772.2656,304.4219 773.3594,303.8047 Q774.4531,303.1875 775.6875,303.1875 Q776.4219,303.1875 777.0703,303.3516 Q777.7188,303.5156 778.2656,303.875 Z "/><text fill="#000000" font-family="sans-serif" font-size="12" lengthAdjust="spacingAndGlyphs" textLength="75" x="789.5" y="312.9102">Acoplamiento</text><line style="stroke: #A80036; stroke-width: 1.5;" x1="761.5" x2="866.5" y1="324" y2="324"/><line style="stroke: #A80036; stroke-width: 1.5;" x1="761.5" x2="866.5" y1="332" y2="332"/><!--class Cohesion--><rect fill="#0000FF" filter="url(#f1coibg6av1o5q)" height="48" id="Cohesion" style="stroke: #A80036; stroke-width: 1.5;" width="86" x="639" y="292"/><rect fill="#0000FF" height="32" style="stroke: #A80036; stroke-width: 1.5;" width="86" x="639" y="292"/><ellipse cx="654" cy="308" fill="#ADD1B2" rx="11" ry="11" style="stroke: #A80036; stroke-width: 1.0;"/><path d="M656.7656,303.875 Q656.9219,303.6563 657.1094,303.5469 Q657.2969,303.4375 657.5156,303.4375 Q657.8906,303.4375 658.125,303.6953 Q658.3594,303.9531 658.3594,304.5625 L658.3594,306.0156 Q658.3594,306.625 658.125,306.8906 Q657.8906,307.1563 657.5156,307.1563 Q657.1719,307.1563 656.9688,306.9531 Q656.7656,306.7656 656.6563,306.25 Q656.6094,305.8906 656.4219,305.7031 Q656.0938,305.3281 655.4844,305.1094 Q654.875,304.8906 654.25,304.8906 Q653.4844,304.8906 652.8516,305.2188 Q652.2188,305.5469 651.7266,306.2969 Q651.2344,307.0469 651.2344,308.0781 L651.2344,309.1719 Q651.2344,310.4063 652.125,311.2266 Q653.0156,312.0469 654.6094,312.0469 Q655.5469,312.0469 656.2031,311.7969 Q656.5938,311.6406 657.0156,311.2031 Q657.2813,310.9375 657.4297,310.8594 Q657.5781,310.7813 657.7813,310.7813 Q658.1094,310.7813 658.3672,311.0391 Q658.625,311.2969 658.625,311.6406 Q658.625,311.9844 658.2813,312.3906 Q657.7813,312.9688 656.9844,313.2969 Q655.9063,313.75 654.6094,313.75 Q653.0938,313.75 651.8906,313.125 Q650.9063,312.625 650.2188,311.5547 Q649.5313,310.4844 649.5313,309.2031 L649.5313,308.0469 Q649.5313,306.7188 650.1484,305.5703 Q650.7656,304.4219 651.8594,303.8047 Q652.9531,303.1875 654.1875,303.1875 Q654.9219,303.1875 655.5703,303.3516 Q656.2188,303.5156 656.7656,303.875 Z "/><text fill="#000000" font-family="sans-serif" font-size="12" lengthAdjust="spacingAndGlyphs" textLength="54" x="668" y="312.9102">Cohesión</text><line style="stroke: #A80036; stroke-width: 1.5;" x1="640" x2="724" y1="324" y2="324"/><line style="stroke: #A80036; stroke-width: 1.5;" x1="640" x2="724" y1="332" y2="332"/><!--class Sistema--><rect fill="#FFA500" filter="url(#f1coibg6av1o5q)" height="48" id="Sistema" style="stroke: #A80036; stroke-width: 1.5;" width="78" x="751" y="60"/><rect fill="#FFA500" height="32" style="stroke: #A80036; stroke-width: 1.5;" width="78" x="751" y="60"/><ellipse cx="766" cy="76" fill="#ADD1B2" rx="11" ry="11" style="stroke: #A80036; stroke-width: 1.0;"/><path d="M768.7656,71.875 Q768.9219,71.6563 769.1094,71.5469 Q769.2969,71.4375 769.5156,71.4375 Q769.8906,71.4375 770.125,71.6953 Q770.3594,71.9531 770.3594,72.5625 L770.3594,74.0156 Q770.3594,74.625 770.125,74.8906 Q769.8906,75.1563 769.5156,75.1563 Q769.1719,75.1563 768.9688,74.9531 Q768.7656,74.7656 768.6563,74.25 Q768.6094,73.8906 768.4219,73.7031 Q768.0938,73.3281 767.4844,73.1094 Q766.875,72.8906 766.25,72.8906 Q765.4844,72.8906 764.8516,73.2188 Q764.2188,73.5469 763.7266,74.2969 Q763.2344,75.0469 763.2344,76.0781 L763.2344,77.1719 Q763.2344,78.4063 764.125,79.2266 Q765.0156,80.0469 766.6094,80.0469 Q767.5469,80.0469 768.2031,79.7969 Q768.5938,79.6406 769.0156,79.2031 Q769.2813,78.9375 769.4297,78.8594 Q769.5781,78.7813 769.7813,78.7813 Q770.1094,78.7813 770.3672,79.0391 Q770.625,79.2969 770.625,79.6406 Q770.625,79.9844 770.2813,80.3906 Q769.7813,80.9688 768.9844,81.2969 Q767.9063,81.75 766.6094,81.75 Q765.0938,81.75 763.8906,81.125 Q762.9063,80.625 762.2188,79.5547 Q761.5313,78.4844 761.5313,77.2031 L761.5313,76.0469 Q761.5313,74.7188 762.1484,73.5703 Q762.7656,72.4219 763.8594,71.8047 Q764.9531,71.1875 766.1875,71.1875 Q766.9219,71.1875 767.5703,71.3516 Q768.2188,71.5156 768.7656,71.875 Z "/><text fill="#000000" font-family="sans-serif" font-size="12" lengthAdjust="spacingAndGlyphs" textLength="46" x="780" y="80.9102">Sistema</text><line style="stroke: #A80036; stroke-width: 1.5;" x1="752" x2="828" y1="92" y2="92"/><line style="stroke: #A80036; stroke-width: 1.5;" x1="752" x2="828" y1="100" y2="100"/><!--class TipoElemento--><rect fill="#FFA500" filter="url(#f1coibg6av1o5q)" height="48" id="TipoElemento" style="stroke: #A80036; stroke-width: 1.5;" width="172" x="728" y="168"/><rect fill="#FFA500" height="32" style="stroke: #A80036; stroke-width: 1.5;" width="172" x="728" y="168"/><ellipse cx="743" cy="184" fill="#ADD1B2" rx="11" ry="11" style="stroke: #A80036; stroke-width: 1.0;"/><path d="M745.7656,179.875 Q745.9219,179.6563 746.1094,179.5469 Q746.2969,179.4375 746.5156,179.4375 Q746.8906,179.4375 747.125,179.6953 Q747.3594,179.9531 747.3594,180.5625 L747.3594,182.0156 Q747.3594,182.625 747.125,182.8906 Q746.8906,183.1563 746.5156,183.1563 Q746.1719,183.1563 745.9688,182.9531 Q745.7656,182.7656 745.6563,182.25 Q745.6094,181.8906 745.4219,181.7031 Q745.0938,181.3281 744.4844,181.1094 Q743.875,180.8906 743.25,180.8906 Q742.4844,180.8906 741.8516,181.2188 Q741.2188,181.5469 740.7266,182.2969 Q740.2344,183.0469 740.2344,184.0781 L740.2344,185.1719 Q740.2344,186.4063 741.125,187.2266 Q742.0156,188.0469 743.6094,188.0469 Q744.5469,188.0469 745.2031,187.7969 Q745.5938,187.6406 746.0156,187.2031 Q746.2813,186.9375 746.4297,186.8594 Q746.5781,186.7813 746.7813,186.7813 Q747.1094,186.7813 747.3672,187.0391 Q747.625,187.2969 747.625,187.6406 Q747.625,187.9844 747.2813,188.3906 Q746.7813,188.9688 745.9844,189.2969 Q744.9063,189.75 743.6094,189.75 Q742.0938,189.75 740.8906,189.125 Q739.9063,188.625 739.2188,187.5547 Q738.5313,186.4844 738.5313,185.2031 L738.5313,184.0469 Q738.5313,182.7188 739.1484,181.5703 Q739.7656,180.4219 740.8594,179.8047 Q741.9531,179.1875 743.1875,179.1875 Q743.9219,179.1875 744.5703,179.3516 Q745.2188,179.5156 745.7656,179.875 Z "/><text fill="#000000" font-family="sans-serif" font-size="12" lengthAdjust="spacingAndGlyphs" textLength="140" x="757" y="188.9102">Tipo de Elemento/Modulo</text><line style="stroke: #A80036; stroke-width: 1.5;" x1="729" x2="899" y1="200" y2="200"/><line style="stroke: #A80036; stroke-width: 1.5;" x1="729" x2="899" y1="208" y2="208"/><!--class Capacidad--><rect fill="#FF0000" filter="url(#f1coibg6av1o5q)" height="48" id="Capacidad" style="stroke: #A80036; stroke-width: 1.5;" width="131" x="421.5" y="168"/><rect fill="#FF0000" height="32" style="stroke: #A80036; stroke-width: 1.5;" width="131" x="421.5" y="168"/><ellipse cx="436.5" cy="184" fill="#ADD1B2" rx="11" ry="11" style="stroke: #A80036; stroke-width: 1.0;"/><path d="M439.2656,179.875 Q439.4219,179.6563 439.6094,179.5469 Q439.7969,179.4375 440.0156,179.4375 Q440.3906,179.4375 440.625,179.6953 Q440.8594,179.9531 440.8594,180.5625 L440.8594,182.0156 Q440.8594,182.625 440.625,182.8906 Q440.3906,183.1563 440.0156,183.1563 Q439.6719,183.1563 439.4688,182.9531 Q439.2656,182.7656 439.1563,182.25 Q439.1094,181.8906 438.9219,181.7031 Q438.5938,181.3281 437.9844,181.1094 Q437.375,180.8906 436.75,180.8906 Q435.9844,180.8906 435.3516,181.2188 Q434.7188,181.5469 434.2266,182.2969 Q433.7344,183.0469 433.7344,184.0781 L433.7344,185.1719 Q433.7344,186.4063 434.625,187.2266 Q435.5156,188.0469 437.1094,188.0469 Q438.0469,188.0469 438.7031,187.7969 Q439.0938,187.6406 439.5156,187.2031 Q439.7813,186.9375 439.9297,186.8594 Q440.0781,186.7813 440.2813,186.7813 Q440.6094,186.7813 440.8672,187.0391 Q441.125,187.2969 441.125,187.6406 Q441.125,187.9844 440.7813,188.3906 Q440.2813,188.9688 439.4844,189.2969 Q438.4063,189.75 437.1094,189.75 Q435.5938,189.75 434.3906,189.125 Q433.4063,188.625 432.7188,187.5547 Q432.0313,186.4844 432.0313,185.2031 L432.0313,184.0469 Q432.0313,182.7188 432.6484,181.5703 Q433.2656,180.4219 434.3594,179.8047 Q435.4531,179.1875 436.6875,179.1875 Q437.4219,179.1875 438.0703,179.3516 Q438.7188,179.5156 439.2656,179.875 Z "/><text fill="#000000" font-family="sans-serif" font-size="12" lengthAdjust="spacingAndGlyphs" textLength="99" x="450.5" y="188.9102">Capacidad Mental</text><line style="stroke: #A80036; stroke-width: 1.5;" x1="422.5" x2="551.5" y1="200" y2="200"/><line style="stroke: #A80036; stroke-width: 1.5;" x1="422.5" x2="551.5" y1="208" y2="208"/><!--class Limitacion--><rect fill="#FF0000" filter="url(#f1coibg6av1o5q)" height="48" id="Limitacion" style="stroke: #A80036; stroke-width: 1.5;" width="89" x="183.5" y="400"/><rect fill="#FF0000" height="32" style="stroke: #A80036; stroke-width: 1.5;" width="89" x="183.5" y="400"/><ellipse cx="198.5" cy="416" fill="#ADD1B2" rx="11" ry="11" style="stroke: #A80036; stroke-width: 1.0;"/><path d="M201.2656,411.875 Q201.4219,411.6563 201.6094,411.5469 Q201.7969,411.4375 202.0156,411.4375 Q202.3906,411.4375 202.625,411.6953 Q202.8594,411.9531 202.8594,412.5625 L202.8594,414.0156 Q202.8594,414.625 202.625,414.8906 Q202.3906,415.1563 202.0156,415.1563 Q201.6719,415.1563 201.4688,414.9531 Q201.2656,414.7656 201.1563,414.25 Q201.1094,413.8906 200.9219,413.7031 Q200.5938,413.3281 199.9844,413.1094 Q199.375,412.8906 198.75,412.8906 Q197.9844,412.8906 197.3516,413.2188 Q196.7188,413.5469 196.2266,414.2969 Q195.7344,415.0469 195.7344,416.0781 L195.7344,417.1719 Q195.7344,418.4063 196.625,419.2266 Q197.5156,420.0469 199.1094,420.0469 Q200.0469,420.0469 200.7031,419.7969 Q201.0938,419.6406 201.5156,419.2031 Q201.7813,418.9375 201.9297,418.8594 Q202.0781,418.7813 202.2813,418.7813 Q202.6094,418.7813 202.8672,419.0391 Q203.125,419.2969 203.125,419.6406 Q203.125,419.9844 202.7813,420.3906 Q202.2813,420.9688 201.4844,421.2969 Q200.4063,421.75 199.1094,421.75 Q197.5938,421.75 196.3906,421.125 Q195.4063,420.625 194.7188,419.5547 Q194.0313,418.4844 194.0313,417.2031 L194.0313,416.0469 Q194.0313,414.7188 194.6484,413.5703 Q195.2656,412.4219 196.3594,411.8047 Q197.4531,411.1875 198.6875,411.1875 Q199.4219,411.1875 200.0703,411.3516 Q200.7188,411.5156 201.2656,411.875 Z "/><text fill="#000000" font-family="sans-serif" font-size="12" lengthAdjust="spacingAndGlyphs" textLength="57" x="212.5" y="420.9102">Limitación</text><line style="stroke: #A80036; stroke-width: 1.5;" x1="184.5" x2="271.5" y1="432" y2="432"/><line style="stroke: #A80036; stroke-width: 1.5;" x1="184.5" x2="271.5" y1="440" y2="440"/><!--class CapacidadCuantitativa--><rect fill="#FF0000" filter="url(#f1coibg6av1o5q)" height="48" id="CapacidadCuantitativa" style="stroke: #A80036; stroke-width: 1.5;" width="198" x="158" y="292"/><rect fill="#FF0000" height="32" style="stroke: #A80036; stroke-width: 1.5;" width="198" x="158" y="292"/><ellipse cx="173" cy="308" fill="#ADD1B2" rx="11" ry="11" style="stroke: #A80036; stroke-width: 1.0;"/><path d="M175.7656,303.875 Q175.9219,303.6563 176.1094,303.5469 Q176.2969,303.4375 176.5156,303.4375 Q176.8906,303.4375 177.125,303.6953 Q177.3594,303.9531 177.3594,304.5625 L177.3594,306.0156 Q177.3594,306.625 177.125,306.8906 Q176.8906,307.1563 176.5156,307.1563 Q176.1719,307.1563 175.9688,306.9531 Q175.7656,306.7656 175.6563,306.25 Q175.6094,305.8906 175.4219,305.7031 Q175.0938,305.3281 174.4844,305.1094 Q173.875,304.8906 173.25,304.8906 Q172.4844,304.8906 171.8516,305.2188 Q171.2188,305.5469 170.7266,306.2969 Q170.2344,307.0469 170.2344,308.0781 L170.2344,309.1719 Q170.2344,310.4063 171.125,311.2266 Q172.0156,312.0469 173.6094,312.0469 Q174.5469,312.0469 175.2031,311.7969 Q175.5938,311.6406 176.0156,311.2031 Q176.2813,310.9375 176.4297,310.8594 Q176.5781,310.7813 176.7813,310.7813 Q177.1094,310.7813 177.3672,311.0391 Q177.625,311.2969 177.625,311.6406 Q177.625,311.9844 177.2813,312.3906 Q176.7813,312.9688 175.9844,313.2969 Q174.9063,313.75 173.6094,313.75 Q172.0938,313.75 170.8906,313.125 Q169.9063,312.625 169.2188,311.5547 Q168.5313,310.4844 168.5313,309.2031 L168.5313,308.0469 Q168.5313,306.7188 169.1484,305.5703 Q169.7656,304.4219 170.8594,303.8047 Q171.9531,303.1875 173.1875,303.1875 Q173.9219,303.1875 174.5703,303.3516 Q175.2188,303.5156 175.7656,303.875 Z "/><text fill="#000000" font-family="sans-serif" font-size="12" lengthAdjust="spacingAndGlyphs" textLength="166" x="187" y="312.9102">Capacidad Mental Cuantitativa</text><line style="stroke: #A80036; stroke-width: 1.5;" x1="159" x2="355" y1="324" y2="324"/><line style="stroke: #A80036; stroke-width: 1.5;" x1="159" x2="355" y1="332" y2="332"/><!--class MagicoMiller--><rect fill="#FF0000" filter="url(#f1coibg6av1o5q)" height="48" id="MagicoMiller" style="stroke: #A80036; stroke-width: 1.5;" width="168" x="115" y="508"/><rect fill="#FF0000" height="32" style="stroke: #A80036; stroke-width: 1.5;" width="168" x="115" y="508"/><ellipse cx="130" cy="524" fill="#ADD1B2" rx="11" ry="11" style="stroke: #A80036; stroke-width: 1.0;"/><path d="M132.7656,519.875 Q132.9219,519.6563 133.1094,519.5469 Q133.2969,519.4375 133.5156,519.4375 Q133.8906,519.4375 134.125,519.6953 Q134.3594,519.9531 134.3594,520.5625 L134.3594,522.0156 Q134.3594,522.625 134.125,522.8906 Q133.8906,523.1563 133.5156,523.1563 Q133.1719,523.1563 132.9688,522.9531 Q132.7656,522.7656 132.6563,522.25 Q132.6094,521.8906 132.4219,521.7031 Q132.0938,521.3281 131.4844,521.1094 Q130.875,520.8906 130.25,520.8906 Q129.4844,520.8906 128.8516,521.2188 Q128.2188,521.5469 127.7266,522.2969 Q127.2344,523.0469 127.2344,524.0781 L127.2344,525.1719 Q127.2344,526.4063 128.125,527.2266 Q129.0156,528.0469 130.6094,528.0469 Q131.5469,528.0469 132.2031,527.7969 Q132.5938,527.6406 133.0156,527.2031 Q133.2813,526.9375 133.4297,526.8594 Q133.5781,526.7813 133.7813,526.7813 Q134.1094,526.7813 134.3672,527.0391 Q134.625,527.2969 134.625,527.6406 Q134.625,527.9844 134.2813,528.3906 Q133.7813,528.9688 132.9844,529.2969 Q131.9063,529.75 130.6094,529.75 Q129.0938,529.75 127.8906,529.125 Q126.9063,528.625 126.2188,527.5547 Q125.5313,526.4844 125.5313,525.2031 L125.5313,524.0469 Q125.5313,522.7188 126.1484,521.5703 Q126.7656,520.4219 127.8594,519.8047 Q128.9531,519.1875 130.1875,519.1875 Q130.9219,519.1875 131.5703,519.3516 Q132.2188,519.5156 132.7656,519.875 Z "/><text fill="#000000" font-family="sans-serif" font-size="12" lengthAdjust="spacingAndGlyphs" textLength="136" x="144" y="528.9102">Número Mágico de Miller</text><line style="stroke: #A80036; stroke-width: 1.5;" x1="116" x2="282" y1="540" y2="540"/><line style="stroke: #A80036; stroke-width: 1.5;" x1="116" x2="282" y1="548" y2="548"/><!--class EnfoqueVisual--><rect fill="#FF0000" filter="url(#f1coibg6av1o5q)" height="48" id="EnfoqueVisual" style="stroke: #A80036; stroke-width: 1.5;" width="115" x="318.5" y="508"/><rect fill="#FF0000" height="32" style="stroke: #A80036; stroke-width: 1.5;" width="115" x="318.5" y="508"/><ellipse cx="333.5" cy="524" fill="#ADD1B2" rx="11" ry="11" style="stroke: #A80036; stroke-width: 1.0;"/><path d="M336.2656,519.875 Q336.4219,519.6563 336.6094,519.5469 Q336.7969,519.4375 337.0156,519.4375 Q337.3906,519.4375 337.625,519.6953 Q337.8594,519.9531 337.8594,520.5625 L337.8594,522.0156 Q337.8594,522.625 337.625,522.8906 Q337.3906,523.1563 337.0156,523.1563 Q336.6719,523.1563 336.4688,522.9531 Q336.2656,522.7656 336.1563,522.25 Q336.1094,521.8906 335.9219,521.7031 Q335.5938,521.3281 334.9844,521.1094 Q334.375,520.8906 333.75,520.8906 Q332.9844,520.8906 332.3516,521.2188 Q331.7188,521.5469 331.2266,522.2969 Q330.7344,523.0469 330.7344,524.0781 L330.7344,525.1719 Q330.7344,526.4063 331.625,527.2266 Q332.5156,528.0469 334.1094,528.0469 Q335.0469,528.0469 335.7031,527.7969 Q336.0938,527.6406 336.5156,527.2031 Q336.7813,526.9375 336.9297,526.8594 Q337.0781,526.7813 337.2813,526.7813 Q337.6094,526.7813 337.8672,527.0391 Q338.125,527.2969 338.125,527.6406 Q338.125,527.9844 337.7813,528.3906 Q337.2813,528.9688 336.4844,529.2969 Q335.4063,529.75 334.1094,529.75 Q332.5938,529.75 331.3906,529.125 Q330.4063,528.625 329.7188,527.5547 Q329.0313,526.4844 329.0313,525.2031 L329.0313,524.0469 Q329.0313,522.7188 329.6484,521.5703 Q330.2656,520.4219 331.3594,519.8047 Q332.4531,519.1875 333.6875,519.1875 Q334.4219,519.1875 335.0703,519.3516 Q335.7188,519.5156 336.2656,519.875 Z "/><text fill="#000000" font-family="sans-serif" font-size="12" lengthAdjust="spacingAndGlyphs" textLength="83" x="347.5" y="528.9102">Enfoque Visual</text><line style="stroke: #A80036; stroke-width: 1.5;" x1="319.5" x2="432.5" y1="540" y2="540"/><line style="stroke: #A80036; stroke-width: 1.5;" x1="319.5" x2="432.5" y1="548" y2="548"/><!--class X--><rect fill="#FF0000" filter="url(#f1coibg6av1o5q)" height="48" id="X" style="stroke: #A80036; stroke-width: 1.5;" width="41" x="38.5" y="508"/><rect fill="#FF0000" height="32" style="stroke: #A80036; stroke-width: 1.5;" width="41" x="38.5" y="508"/><ellipse cx="53.5" cy="524" fill="#ADD1B2" rx="11" ry="11" style="stroke: #A80036; stroke-width: 1.0;"/><path d="M56.2656,519.875 Q56.4219,519.6563 56.6094,519.5469 Q56.7969,519.4375 57.0156,519.4375 Q57.3906,519.4375 57.625,519.6953 Q57.8594,519.9531 57.8594,520.5625 L57.8594,522.0156 Q57.8594,522.625 57.625,522.8906 Q57.3906,523.1563 57.0156,523.1563 Q56.6719,523.1563 56.4688,522.9531 Q56.2656,522.7656 56.1563,522.25 Q56.1094,521.8906 55.9219,521.7031 Q55.5938,521.3281 54.9844,521.1094 Q54.375,520.8906 53.75,520.8906 Q52.9844,520.8906 52.3516,521.2188 Q51.7188,521.5469 51.2266,522.2969 Q50.7344,523.0469 50.7344,524.0781 L50.7344,525.1719 Q50.7344,526.4063 51.625,527.2266 Q52.5156,528.0469 54.1094,528.0469 Q55.0469,528.0469 55.7031,527.7969 Q56.0938,527.6406 56.5156,527.2031 Q56.7813,526.9375 56.9297,526.8594 Q57.0781,526.7813 57.2813,526.7813 Q57.6094,526.7813 57.8672,527.0391 Q58.125,527.2969 58.125,527.6406 Q58.125,527.9844 57.7813,528.3906 Q57.2813,528.9688 56.4844,529.2969 Q55.4063,529.75 54.1094,529.75 Q52.5938,529.75 51.3906,529.125 Q50.4063,528.625 49.7188,527.5547 Q49.0313,526.4844 49.0313,525.2031 L49.0313,524.0469 Q49.0313,522.7188 49.6484,521.5703 Q50.2656,520.4219 51.3594,519.8047 Q52.4531,519.1875 53.6875,519.1875 Q54.4219,519.1875 55.0703,519.3516 Q55.7188,519.5156 56.2656,519.875 Z "/><text fill="#000000" font-family="sans-serif" font-size="12" lengthAdjust="spacingAndGlyphs" textLength="9" x="67.5" y="528.9102">...</text><line style="stroke: #A80036; stroke-width: 1.5;" x1="39.5" x2="78.5" y1="540" y2="540"/><line style="stroke: #A80036; stroke-width: 1.5;" x1="39.5" x2="78.5" y1="548" y2="548"/><!--class CapacidadCualitativa--><rect fill="#FF0000" filter="url(#f1coibg6av1o5q)" height="48" id="CapacidadCualitativa" style="stroke: #A80036; stroke-width: 1.5;" width="191" x="391.5" y="292"/><rect fill="#FF0000" height="32" style="stroke: #A80036; stroke-width: 1.5;" width="191" x="391.5" y="292"/><ellipse cx="406.5" cy="308" fill="#ADD1B2" rx="11" ry="11" style="stroke: #A80036; stroke-width: 1.0;"/><path d="M409.2656,303.875 Q409.4219,303.6563 409.6094,303.5469 Q409.7969,303.4375 410.0156,303.4375 Q410.3906,303.4375 410.625,303.6953 Q410.8594,303.9531 410.8594,304.5625 L410.8594,306.0156 Q410.8594,306.625 410.625,306.8906 Q410.3906,307.1563 410.0156,307.1563 Q409.6719,307.1563 409.4688,306.9531 Q409.2656,306.7656 409.1563,306.25 Q409.1094,305.8906 408.9219,305.7031 Q408.5938,305.3281 407.9844,305.1094 Q407.375,304.8906 406.75,304.8906 Q405.9844,304.8906 405.3516,305.2188 Q404.7188,305.5469 404.2266,306.2969 Q403.7344,307.0469 403.7344,308.0781 L403.7344,309.1719 Q403.7344,310.4063 404.625,311.2266 Q405.5156,312.0469 407.1094,312.0469 Q408.0469,312.0469 408.7031,311.7969 Q409.0938,311.6406 409.5156,311.2031 Q409.7813,310.9375 409.9297,310.8594 Q410.0781,310.7813 410.2813,310.7813 Q410.6094,310.7813 410.8672,311.0391 Q411.125,311.2969 411.125,311.6406 Q411.125,311.9844 410.7813,312.3906 Q410.2813,312.9688 409.4844,313.2969 Q408.4063,313.75 407.1094,313.75 Q405.5938,313.75 404.3906,313.125 Q403.4063,312.625 402.7188,311.5547 Q402.0313,310.4844 402.0313,309.2031 L402.0313,308.0469 Q402.0313,306.7188 402.6484,305.5703 Q403.2656,304.4219 404.3594,303.8047 Q405.4531,303.1875 406.6875,303.1875 Q407.4219,303.1875 408.0703,303.3516 Q408.7188,303.5156 409.2656,303.875 Z "/><text fill="#000000" font-family="sans-serif" font-size="12" lengthAdjust="spacingAndGlyphs" textLength="159" x="420.5" y="312.9102">Capacidad Mental Cualitativa</text><line style="stroke: #A80036; stroke-width: 1.5;" x1="392.5" x2="581.5" y1="324" y2="324"/><line style="stroke: #A80036; stroke-width: 1.5;" x1="392.5" x2="581.5" y1="332" y2="332"/><!--class Abstraccion--><rect fill="#FF0000" filter="url(#f1coibg6av1o5q)" height="48" id="Abstraccion" style="stroke: #A80036; stroke-width: 1.5;" width="96" x="338" y="616"/><rect fill="#FF0000" height="32" style="stroke: #A80036; stroke-width: 1.5;" width="96" x="338" y="616"/><ellipse cx="353" cy="632" fill="#ADD1B2" rx="11" ry="11" style="stroke: #A80036; stroke-width: 1.0;"/><path d="M355.7656,627.875 Q355.9219,627.6563 356.1094,627.5469 Q356.2969,627.4375 356.5156,627.4375 Q356.8906,627.4375 357.125,627.6953 Q357.3594,627.9531 357.3594,628.5625 L357.3594,630.0156 Q357.3594,630.625 357.125,630.8906 Q356.8906,631.1563 356.5156,631.1563 Q356.1719,631.1563 355.9688,630.9531 Q355.7656,630.7656 355.6563,630.25 Q355.6094,629.8906 355.4219,629.7031 Q355.0938,629.3281 354.4844,629.1094 Q353.875,628.8906 353.25,628.8906 Q352.4844,628.8906 351.8516,629.2188 Q351.2188,629.5469 350.7266,630.2969 Q350.2344,631.0469 350.2344,632.0781 L350.2344,633.1719 Q350.2344,634.4063 351.125,635.2266 Q352.0156,636.0469 353.6094,636.0469 Q354.5469,636.0469 355.2031,635.7969 Q355.5938,635.6406 356.0156,635.2031 Q356.2813,634.9375 356.4297,634.8594 Q356.5781,634.7813 356.7813,634.7813 Q357.1094,634.7813 357.3672,635.0391 Q357.625,635.2969 357.625,635.6406 Q357.625,635.9844 357.2813,636.3906 Q356.7813,636.9688 355.9844,637.2969 Q354.9063,637.75 353.6094,637.75 Q352.0938,637.75 350.8906,637.125 Q349.9063,636.625 349.2188,635.5547 Q348.5313,634.4844 348.5313,633.2031 L348.5313,632.0469 Q348.5313,630.7188 349.1484,629.5703 Q349.7656,628.4219 350.8594,627.8047 Q351.9531,627.1875 353.1875,627.1875 Q353.9219,627.1875 354.5703,627.3516 Q355.2188,627.5156 355.7656,627.875 Z "/><text fill="#000000" font-family="sans-serif" font-size="12" lengthAdjust="spacingAndGlyphs" textLength="64" x="367" y="636.9102">Abstracción</text><line style="stroke: #A80036; stroke-width: 1.5;" x1="339" x2="433" y1="648" y2="648"/><line style="stroke: #A80036; stroke-width: 1.5;" x1="339" x2="433" y1="656" y2="656"/><!--class Encapsulacion--><rect fill="#FF0000" filter="url(#f1coibg6av1o5q)" height="48" id="Encapsulacion" style="stroke: #A80036; stroke-width: 1.5;" width="114" x="469" y="616"/><rect fill="#FF0000" height="32" style="stroke: #A80036; stroke-width: 1.5;" width="114" x="469" y="616"/><ellipse cx="484" cy="632" fill="#ADD1B2" rx="11" ry="11" style="stroke: #A80036; stroke-width: 1.0;"/><path d="M486.7656,627.875 Q486.9219,627.6563 487.1094,627.5469 Q487.2969,627.4375 487.5156,627.4375 Q487.8906,627.4375 488.125,627.6953 Q488.3594,627.9531 488.3594,628.5625 L488.3594,630.0156 Q488.3594,630.625 488.125,630.8906 Q487.8906,631.1563 487.5156,631.1563 Q487.1719,631.1563 486.9688,630.9531 Q486.7656,630.7656 486.6563,630.25 Q486.6094,629.8906 486.4219,629.7031 Q486.0938,629.3281 485.4844,629.1094 Q484.875,628.8906 484.25,628.8906 Q483.4844,628.8906 482.8516,629.2188 Q482.2188,629.5469 481.7266,630.2969 Q481.2344,631.0469 481.2344,632.0781 L481.2344,633.1719 Q481.2344,634.4063 482.125,635.2266 Q483.0156,636.0469 484.6094,636.0469 Q485.5469,636.0469 486.2031,635.7969 Q486.5938,635.6406 487.0156,635.2031 Q487.2813,634.9375 487.4297,634.8594 Q487.5781,634.7813 487.7813,634.7813 Q488.1094,634.7813 488.3672,635.0391 Q488.625,635.2969 488.625,635.6406 Q488.625,635.9844 488.2813,636.3906 Q487.7813,636.9688 486.9844,637.2969 Q485.9063,637.75 484.6094,637.75 Q483.0938,637.75 481.8906,637.125 Q480.9063,636.625 480.2188,635.5547 Q479.5313,634.4844 479.5313,633.2031 L479.5313,632.0469 Q479.5313,630.7188 480.1484,629.5703 Q480.7656,628.4219 481.8594,627.8047 Q482.9531,627.1875 484.1875,627.1875 Q484.9219,627.1875 485.5703,627.3516 Q486.2188,627.5156 486.7656,627.875 Z "/><text fill="#000000" font-family="sans-serif" font-size="12" lengthAdjust="spacingAndGlyphs" textLength="82" x="498" y="636.9102">Encapsulación</text><line style="stroke: #A80036; stroke-width: 1.5;" x1="470" x2="582" y1="648" y2="648"/><line style="stroke: #A80036; stroke-width: 1.5;" x1="470" x2="582" y1="656" y2="656"/><!--class Modularizacion--><rect fill="#FF0000" filter="url(#f1coibg6av1o5q)" height="48" id="Modularizacion" style="stroke: #A80036; stroke-width: 1.5;" width="114" x="469" y="508"/><rect fill="#FF0000" height="32" style="stroke: #A80036; stroke-width: 1.5;" width="114" x="469" y="508"/><ellipse cx="484" cy="524" fill="#ADD1B2" rx="11" ry="11" style="stroke: #A80036; stroke-width: 1.0;"/><path d="M486.7656,519.875 Q486.9219,519.6563 487.1094,519.5469 Q487.2969,519.4375 487.5156,519.4375 Q487.8906,519.4375 488.125,519.6953 Q488.3594,519.9531 488.3594,520.5625 L488.3594,522.0156 Q488.3594,522.625 488.125,522.8906 Q487.8906,523.1563 487.5156,523.1563 Q487.1719,523.1563 486.9688,522.9531 Q486.7656,522.7656 486.6563,522.25 Q486.6094,521.8906 486.4219,521.7031 Q486.0938,521.3281 485.4844,521.1094 Q484.875,520.8906 484.25,520.8906 Q483.4844,520.8906 482.8516,521.2188 Q482.2188,521.5469 481.7266,522.2969 Q481.2344,523.0469 481.2344,524.0781 L481.2344,525.1719 Q481.2344,526.4063 482.125,527.2266 Q483.0156,528.0469 484.6094,528.0469 Q485.5469,528.0469 486.2031,527.7969 Q486.5938,527.6406 487.0156,527.2031 Q487.2813,526.9375 487.4297,526.8594 Q487.5781,526.7813 487.7813,526.7813 Q488.1094,526.7813 488.3672,527.0391 Q488.625,527.2969 488.625,527.6406 Q488.625,527.9844 488.2813,528.3906 Q487.7813,528.9688 486.9844,529.2969 Q485.9063,529.75 484.6094,529.75 Q483.0938,529.75 481.8906,529.125 Q480.9063,528.625 480.2188,527.5547 Q479.5313,526.4844 479.5313,525.2031 L479.5313,524.0469 Q479.5313,522.7188 480.1484,521.5703 Q480.7656,520.4219 481.8594,519.8047 Q482.9531,519.1875 484.1875,519.1875 Q484.9219,519.1875 485.5703,519.3516 Q486.2188,519.5156 486.7656,519.875 Z "/><text fill="#000000" font-family="sans-serif" font-size="12" lengthAdjust="spacingAndGlyphs" textLength="82" x="498" y="528.9102">Modularización</text><line style="stroke: #A80036; stroke-width: 1.5;" x1="470" x2="582" y1="540" y2="540"/><line style="stroke: #A80036; stroke-width: 1.5;" x1="470" x2="582" y1="548" y2="548"/><!--class Jeraquizacion--><rect fill="#FF0000" filter="url(#f1coibg6av1o5q)" height="48" id="Jeraquizacion" style="stroke: #A80036; stroke-width: 1.5;" width="112" x="470" y="400"/><rect fill="#FF0000" height="32" style="stroke: #A80036; stroke-width: 1.5;" width="112" x="470" y="400"/><ellipse cx="485" cy="416" fill="#ADD1B2" rx="11" ry="11" style="stroke: #A80036; stroke-width: 1.0;"/><path d="M487.7656,411.875 Q487.9219,411.6563 488.1094,411.5469 Q488.2969,411.4375 488.5156,411.4375 Q488.8906,411.4375 489.125,411.6953 Q489.3594,411.9531 489.3594,412.5625 L489.3594,414.0156 Q489.3594,414.625 489.125,414.8906 Q488.8906,415.1563 488.5156,415.1563 Q488.1719,415.1563 487.9688,414.9531 Q487.7656,414.7656 487.6563,414.25 Q487.6094,413.8906 487.4219,413.7031 Q487.0938,413.3281 486.4844,413.1094 Q485.875,412.8906 485.25,412.8906 Q484.4844,412.8906 483.8516,413.2188 Q483.2188,413.5469 482.7266,414.2969 Q482.2344,415.0469 482.2344,416.0781 L482.2344,417.1719 Q482.2344,418.4063 483.125,419.2266 Q484.0156,420.0469 485.6094,420.0469 Q486.5469,420.0469 487.2031,419.7969 Q487.5938,419.6406 488.0156,419.2031 Q488.2813,418.9375 488.4297,418.8594 Q488.5781,418.7813 488.7813,418.7813 Q489.1094,418.7813 489.3672,419.0391 Q489.625,419.2969 489.625,419.6406 Q489.625,419.9844 489.2813,420.3906 Q488.7813,420.9688 487.9844,421.2969 Q486.9063,421.75 485.6094,421.75 Q484.0938,421.75 482.8906,421.125 Q481.9063,420.625 481.2188,419.5547 Q480.5313,418.4844 480.5313,417.2031 L480.5313,416.0469 Q480.5313,414.7188 481.1484,413.5703 Q481.7656,412.4219 482.8594,411.8047 Q483.9531,411.1875 485.1875,411.1875 Q485.9219,411.1875 486.5703,411.3516 Q487.2188,411.5156 487.7656,411.875 Z "/><text fill="#000000" font-family="sans-serif" font-size="12" lengthAdjust="spacingAndGlyphs" textLength="80" x="499" y="420.9102">Jerarquización</text><line style="stroke: #A80036; stroke-width: 1.5;" x1="471" x2="581" y1="432" y2="432"/><line style="stroke: #A80036; stroke-width: 1.5;" x1="471" x2="581" y1="440" y2="440"/><!--link Sistema to TipoElemento--><path d="M798.121,120.869 C800.609,131.858 803.346,143.947 805.837,154.947 " fill="none" id="Sistema-TipoElemento" style="stroke: #A80036; stroke-width: 1.0;"/><polygon fill="#A80036" points="808.72,167.678,810.6345,158.017,807.6162,162.8014,802.8319,159.7831,808.72,167.678" style="stroke: #A80036; stroke-width: 1.0;"/><line style="stroke: #A80036; stroke-width: 1.0;" x1="807.6162" x2="805.849" y1="162.8014" y2="154.9995"/><polygon fill="#A80036" points="795.208,108,792.6314,114.7351,797.8574,119.7039,800.434,112.9688,795.208,108" style="stroke: #A80036; stroke-width: 1.0;"/><!--link Interfaz to Implementacion--><path d="M921.849,340 C915.644,356.003 910.346,377.446 908.266,394.528 " fill="none" id="Interfaz-Implementacion" style="stroke: #A80036; stroke-width: 1.0;"/><polygon fill="#A80036" points="907.726,399.678,912.6427,391.1442,908.2474,394.7053,904.6864,390.3099,907.726,399.678" style="stroke: #A80036; stroke-width: 1.0;"/><!--link Implementacion to Interfaz--><path d="M929.908,399.678 C936.243,383.604 941.526,362.154 943.447,345.131 " fill="none" id="Implementacion-Interfaz" style="stroke: #A80036; stroke-width: 1.0;"/><polygon fill="#A80036" points="943.932,340,939.1012,348.5827,943.4605,344.9777,947.0655,349.3371,943.932,340" style="stroke: #A80036; stroke-width: 1.0;"/><!--link Interfaz to Abstraccion--><path d="M910.175,340.304 C854.281,386.269 723.156,489.877 600,556 C571.372,571.37 492.377,600.8394 438.801,620.2076 " fill="none" id="Interfaz-Abstraccion" style="stroke: #A80036; stroke-width: 1.0;"/><polygon fill="#A80036" points="434.022,621.933,443.8454,622.6405,438.7251,620.2358,441.1298,615.1155,434.022,621.933" style="stroke: #A80036; stroke-width: 1.0;"/><!--link Implementacion to Encapsulacion--><path d="M903.055,448.112 C889.189,477.583 861.257,528.061 822,556 C751.792,605.9662 652.399,625.921 588.564,633.8451 " fill="none" id="Implementacion-Encapsulacion" style="stroke: #A80036; stroke-width: 1.0;"/><polygon fill="#A80036" points="583.266,634.4853,592.681,637.3764,588.2299,633.8853,591.721,629.4342,583.266,634.4853" style="stroke: #A80036; stroke-width: 1.0;"/><!--link Acoplamiento to Modularizacion--><path d="M793.533,340.076 C763.857,372.553 706.057,432.213 648,472 C629.314,484.805 607.427,496.324 587.389,505.713 " fill="none" id="Acoplamiento-Modularizacion" style="stroke: #A80036; stroke-width: 1.0;"/><polygon fill="#A80036" points="582.609,507.929,592.4566,507.7736,587.1454,505.8265,589.0926,500.5153,582.609,507.929" style="stroke: #A80036; stroke-width: 1.0;"/><!--link Acoplamiento to Jeraquizacion--><path d="M760.167,336.813 C710.959,354.925 638.243,381.688 586.924,400.577 " fill="none" id="Acoplamiento-Jeraquizacion" style="stroke: #A80036; stroke-width: 1.0;"/><polygon fill="#A80036" points="582.026,402.379,591.8537,403.0244,586.7183,400.6521,589.0906,395.5167,582.026,402.379" style="stroke: #A80036; stroke-width: 1.0;"/><!--link Cohesion to Modularizacion--><path d="M673.118,340.01 C660.088,371.885 633.545,430.259 599,472 C589.012,484.068 576.232,495.393 564.164,504.83 " fill="none" id="Cohesion-Modularizacion" style="stroke: #A80036; stroke-width: 1.0;"/><polygon fill="#A80036" points="560.104,507.957,569.6754,505.6359,564.0658,504.9067,564.795,499.2971,560.104,507.957" style="stroke: #A80036; stroke-width: 1.0;"/><!--link Cohesion to Jeraquizacion--><path d="M648.15,340 C623.5,356.75 590.077,379.461 564.424,396.892 " fill="none" id="Cohesion-Jeraquizacion" style="stroke: #A80036; stroke-width: 1.0;"/><polygon fill="#A80036" points="560.053,399.862,569.7452,398.1126,564.1887,397.052,565.2493,391.4955,560.053,399.862" style="stroke: #A80036; stroke-width: 1.0;"/><!--link TipoElemento to Acoplamiento--><path d="M814,229.416 C814,244.914 814,262.954 814,278.464 " fill="none" id="TipoElemento-Acoplamiento" style="stroke: #A80036; stroke-width: 1.0;"/><polygon fill="#A80036" points="814,291.852,818,282.852,814,286.852,810,282.852,814,291.852" style="stroke: #A80036; stroke-width: 1.0;"/><line style="stroke: #A80036; stroke-width: 1.0;" x1="814" x2="814" y1="286.852" y2="278.852"/><polygon fill="#A80036" points="814,216.234,810,222.234,814,228.234,818,222.234,814,216.234" style="stroke: #A80036; stroke-width: 1.0;"/><!--link TipoElemento to Cohesion--><path d="M771.077,224.327 C761.574,231.785 751.739,239.93 743,248 C731.675,258.459 720.081,270.729 710.084,281.891 " fill="none" id="TipoElemento-Cohesion" style="stroke: #A80036; stroke-width: 1.0;"/><polygon fill="#A80036" points="701.406,291.746,710.356,287.6354,704.7105,287.9937,704.3523,282.3482,701.406,291.746" style="stroke: #A80036; stroke-width: 1.0;"/><line style="stroke: #A80036; stroke-width: 1.0;" x1="704.7105" x2="709.9975" y1="287.9937" y2="281.989"/><polygon fill="#A80036" points="781.588,216.239,774.3935,216.7282,772.078,223.5574,779.2725,223.0682,781.588,216.239" style="stroke: #A80036; stroke-width: 1.0;"/><!--link TipoElemento to Interfaz--><path d="M857.615,224.1 C867.011,231.524 876.627,239.711 885,248 C895.198,258.095 905.258,270.129 913.827,281.195 " fill="none" id="TipoElemento-Interfaz" style="stroke: #A80036; stroke-width: 1.0;"/><polygon fill="#A80036" points="921.85,291.83,919.623,282.2362,918.8388,287.8385,913.2365,287.0542,921.85,291.83" style="stroke: #A80036; stroke-width: 1.0;"/><line style="stroke: #A80036; stroke-width: 1.0;" x1="918.8388" x2="914.021" y1="287.8385" y2="281.452"/><polygon fill="#A80036" points="847.179,216.079,849.4983,222.907,856.693,223.3922,854.3738,216.5643,847.179,216.079" style="stroke: #A80036; stroke-width: 1.0;"/><!--link TipoElemento to Implementacion--><path d="M912.892,201.283 C942.789,208.974 972.551,222.948 991,248 C1015.25,280.924 1006.06,301.985 991,340 C983.308,359.418 968.684,376.942 954.159,390.83 " fill="none" id="TipoElemento-Implementacion" style="stroke: #A80036; stroke-width: 1.0;"/><polygon fill="#A80036" points="944.205,399.841,953.5616,396.7663,947.9117,396.4854,948.1926,390.8355,944.205,399.841" style="stroke: #A80036; stroke-width: 1.0;"/><line style="stroke: #A80036; stroke-width: 1.0;" x1="947.9117" x2="953.8425" y1="396.4854" y2="391.116"/><polygon fill="#A80036" points="900.103,198.358,905.0601,203.5951,911.8009,201.0336,906.8438,195.7965,900.103,198.358" style="stroke: #A80036; stroke-width: 1.0;"/><!--link Capacidad to Sistema--><path d="M564.947,163.731 C619.436,144.669 690.687,119.743 738.279,103.094 " fill="none" id="Capacidad-Sistema" style="stroke: #A80036; stroke-width: 1.0;"/><polygon fill="#A80036" points="750.699,98.749,740.883,97.9452,745.9795,100.4,743.5246,105.4965,750.699,98.749" style="stroke: #A80036; stroke-width: 1.0;"/><line style="stroke: #A80036; stroke-width: 1.0;" x1="745.9795" x2="738.4275" y1="100.4" y2="103.042"/><polygon fill="#A80036" points="552.538,168.072,559.5223,169.8662,563.8648,164.1091,556.8804,162.315,552.538,168.072" style="stroke: #A80036; stroke-width: 1.0;"/><!--link Capacidad to CapacidadCuantitativa--><path d="M419.247,225.061 C404.251,232.411 388.51,240.325 374,248 C347.619,261.954 318.494,278.628 295.902,291.851 " fill="none" id="Capacidad-CapacidadCuantitativa" style="stroke: #A80036; stroke-width: 1.0;"/><polygon fill="none" points="416.643,218.544,437.693,216.114,422.753,231.141,416.643,218.544" style="stroke: #A80036; stroke-width: 1.0;"/><!--link CapacidadCuantitativa to Limitacion--><path d="M247.187,352.869 C244.18,363.858 240.873,375.947 237.863,386.947 " fill="none" id="CapacidadCuantitativa-Limitacion" style="stroke: #A80036; stroke-width: 1.0;"/><polygon fill="#A80036" points="234.38,399.678,240.6128,392.0522,235.6992,394.8552,232.8962,389.9416,234.38,399.678" style="stroke: #A80036; stroke-width: 1.0;"/><line style="stroke: #A80036; stroke-width: 1.0;" x1="235.6992" x2="237.811" y1="394.8552" y2="387.1395"/><polygon fill="#A80036" points="250.707,340,245.2657,344.7321,247.541,351.5748,252.9823,346.8427,250.707,340" style="stroke: #A80036; stroke-width: 1.0;"/><!--link Limitacion to MagicoMiller--><path d="M216.362,467.54 C212.615,481.235 208.603,495.9 205.38,507.678 " fill="none" id="Limitacion-MagicoMiller" style="stroke: #A80036; stroke-width: 1.0;"/><polygon fill="none" points="209.678,465.444,221.707,448,223.181,469.139,209.678,465.444" style="stroke: #A80036; stroke-width: 1.0;"/><!--link Limitacion to EnfoqueVisual--><path d="M276.512,459.745 C298.556,475.533 324.038,493.784 343.694,507.862 " fill="none" id="Limitacion-EnfoqueVisual" style="stroke: #A80036; stroke-width: 1.0;"/><polygon fill="none" points="272.298,465.337,260.114,448,280.45,453.955,272.298,465.337" style="stroke: #A80036; stroke-width: 1.0;"/><!--link Limitacion to X--><path d="M174.315,458.672 C142.153,478.845 103.0906,503.346 79.6804,518.029 " fill="none" id="Limitacion-X" style="stroke: #A80036; stroke-width: 1.0;"/><polygon fill="none" points="170.667,452.697,191.33,448,178.106,464.558,170.667,452.697" style="stroke: #A80036; stroke-width: 1.0;"/><!--link Capacidad to CapacidadCualitativa--><path d="M487,236.275 C487,255.008 487,276.185 487,291.852 " fill="none" id="Capacidad-CapacidadCualitativa" style="stroke: #A80036; stroke-width: 1.0;"/><polygon fill="none" points="480,236.234,487,216.234,494,236.234,480,236.234" style="stroke: #A80036; stroke-width: 1.0;"/><!--link CapacidadCuantitativa to CapacidadCualitativa--><path d="M361.469,316 C371.398,316 381.327,316 391.256,316 " fill="none" id="CapacidadCuantitativa-CapacidadCualitativa" style="stroke: #A80036; stroke-width: 1.0;"/><polygon fill="#A80036" points="356.277,316,365.277,320,361.277,316,365.277,312,356.277,316" style="stroke: #A80036; stroke-width: 1.0;"/><!--link CapacidadCualitativa to Jeraquizacion--><path d="M500.025,352.402 C504.142,363.59 508.693,375.96 512.82,387.178 " fill="none" id="CapacidadCualitativa-Jeraquizacion" style="stroke: #A80036; stroke-width: 1.0;"/><polygon fill="#A80036" points="517.419,399.678,518.0658,389.8504,515.6927,394.9855,510.5577,392.6124,517.419,399.678" style="stroke: #A80036; stroke-width: 1.0;"/><line style="stroke: #A80036; stroke-width: 1.0;" x1="515.6927" x2="512.9305" y1="394.9855" y2="387.478"/><polygon fill="#A80036" points="495.462,340,493.7797,347.0121,499.6055,351.262,501.2877,344.2498,495.462,340" style="stroke: #A80036; stroke-width: 1.0;"/><!--link Modularizacion to Abstraccion--><path d="M485.014,564.032 C466.873,577.768 445.572,593.895 427.385,607.6658 " fill="none" id="Modularizacion-Abstraccion" style="stroke: #A80036; stroke-width: 1.0;"/><polygon fill="#A80036" points="416.802,615.6784,426.3919,613.4348,420.7883,612.6603,421.5629,607.0567,416.802,615.6784" style="stroke: #A80036; stroke-width: 1.0;"/><line style="stroke: #A80036; stroke-width: 1.0;" x1="420.7883" x2="427.1665" y1="612.6603" y2="607.8311"/><polygon fill="#A80036" points="495.622,556,488.4239,556.4328,486.0549,563.2436,493.253,562.8108,495.622,556" style="stroke: #A80036; stroke-width: 1.0;"/><!--link Modularizacion to Encapsulacion--><path d="M526,569.338 C526,580.006 526,591.677 526,602.3638 " fill="none" id="Modularizacion-Encapsulacion" style="stroke: #A80036; stroke-width: 1.0;"/><polygon fill="#A80036" points="526,615.6784,530,606.6784,526,610.6784,522,606.6784,526,615.6784" style="stroke: #A80036; stroke-width: 1.0;"/><line style="stroke: #A80036; stroke-width: 1.0;" x1="526" x2="526" y1="610.6784" y2="602.6785"/><polygon fill="#A80036" points="526,556,522,562,526,568,530,562,526,556" style="stroke: #A80036; stroke-width: 1.0;"/><!--link Jeraquizacion to Modularizacion--><path d="M526,461.338 C526,472.006 526,483.677 526,494.364 " fill="none" id="Jeraquizacion-Modularizacion" style="stroke: #A80036; stroke-width: 1.0;"/><polygon fill="#A80036" points="526,507.678,530,498.678,526,502.678,522,498.678,526,507.678" style="stroke: #A80036; stroke-width: 1.0;"/><line style="stroke: #A80036; stroke-width: 1.0;" x1="526" x2="526" y1="502.678" y2="494.678"/><polygon fill="#A80036" points="526,448,522,454,526,460,530,454,526,448" style="stroke: #A80036; stroke-width: 1.0;"/><!--
@startuml

together modularizacion {

class Interfaz #blue

class "Implementación" as Implementacion #blue

class Acoplamiento #blue

class "Cohesión" as Cohesion #blue

}

together sistemas {

class Sistema #orange

class "Tipo de Elemento/Modulo" as TipoElemento #orange

}

Sistema *-down-> TipoElemento

together capacidades {

class "Capacidad Mental" as Capacidad #red

class "Limitación" as Limitacion #red

class "Capacidad Mental Cuantitativa" as CapacidadCuantitativa #red

class "Número Mágico de Miller" as MagicoMiller #red

class "Enfoque Visual" as EnfoqueVisual #red

class "..." as X #red

class "Capacidad Mental Cualitativa" as CapacidadCualitativa #red

class "Abstracción" as Abstraccion #red

class "Encapsulación" as Encapsulacion #red

class "Modularización" as Modularizacion #red

class "Jerarquización" as Jeraquizacion #red

}

Interfaz - -> Implementacion
Interfaz - -> Abstraccion

Implementacion - -> Interfaz
Implementacion - -> Encapsulacion

Acoplamiento - -> Modularizacion
Acoplamiento - -> Jeraquizacion

Cohesion - -> Modularizacion
Cohesion - -> Jeraquizacion

TipoElemento *- -> Acoplamiento
TipoElemento *- -> Cohesion
TipoElemento *- -> Interfaz
TipoElemento *- -> Implementacion

Capacidad *-right-> Sistema

Capacidad<|-down- CapacidadCuantitativa
CapacidadCuantitativa *-down-> Limitacion

Limitacion <|-down- MagicoMiller

Limitacion <|-down- EnfoqueVisual

Limitacion <|-down- X

Capacidad<|-down- CapacidadCualitativa
CapacidadCualitativa -left-> CapacidadCuantitativa

CapacidadCualitativa *-down-> Jeraquizacion
Modularizacion *-down-> Abstraccion
Modularizacion *-down-> Encapsulacion
Jeraquizacion *-down-> Modularizacion

@enduml

PlantUML version 1.2019.05(Sat Apr 20 18:45:36 CEST 2019)
(GPL source distribution)
Java Runtime: Java(TM) SE Runtime Environment
JVM: Java HotSpot(TM) 64-Bit Server VM
Java Version: 1.8.0_211-b12
Operating System: Windows 10
OS Version: 10.0
Default Encoding: windows-1252
Language: es
Country: ES
--></g></svg>