<?xml version="1.0" encoding="UTF-8" standalone="no"?><svg xmlns="http://www.w3.org/2000/svg" xmlns:xlink="http://www.w3.org/1999/xlink" contentScriptType="application/ecmascript" contentStyleType="text/css" height="459px" preserveAspectRatio="none" style="width:425px;height:459px;" version="1.1" viewBox="0 0 425 459" width="425px" zoomAndPan="magnify"><defs><filter height="300%" id="f1memaxm2mq8ow" width="300%" x="-1" y="-1"><feGaussianBlur result="blurOut" stdDeviation="2.0"/><feColorMatrix in="blurOut" result="blurOut2" type="matrix" values="0 0 0 0 0 0 0 0 0 0 0 0 0 0 0 0 0 0 .4 0"/><feOffset dx="4.0" dy="4.0" in="blurOut2" result="blurOut3"/><feBlend in="SourceGraphic" in2="blurOut3" mode="normal"/></filter></defs><g><!--cluster sistemas--><!--cluster modularizacion--><!--class Sistema--><rect fill="#FFA500" filter="url(#f1memaxm2mq8ow)" height="48" id="Sistema" style="stroke: #A80036; stroke-width: 1.5;" width="78" x="211" y="60"/><rect fill="#FFA500" height="32" style="stroke: #A80036; stroke-width: 1.5;" width="78" x="211" y="60"/><ellipse cx="226" cy="76" fill="#ADD1B2" rx="11" ry="11" style="stroke: #A80036; stroke-width: 1.0;"/><path d="M228.7656,71.875 Q228.9219,71.6563 229.1094,71.5469 Q229.2969,71.4375 229.5156,71.4375 Q229.8906,71.4375 230.125,71.6953 Q230.3594,71.9531 230.3594,72.5625 L230.3594,74.0156 Q230.3594,74.625 230.125,74.8906 Q229.8906,75.1563 229.5156,75.1563 Q229.1719,75.1563 228.9688,74.9531 Q228.7656,74.7656 228.6563,74.25 Q228.6094,73.8906 228.4219,73.7031 Q228.0938,73.3281 227.4844,73.1094 Q226.875,72.8906 226.25,72.8906 Q225.4844,72.8906 224.8516,73.2188 Q224.2188,73.5469 223.7266,74.2969 Q223.2344,75.0469 223.2344,76.0781 L223.2344,77.1719 Q223.2344,78.4063 224.125,79.2266 Q225.0156,80.0469 226.6094,80.0469 Q227.5469,80.0469 228.2031,79.7969 Q228.5938,79.6406 229.0156,79.2031 Q229.2813,78.9375 229.4297,78.8594 Q229.5781,78.7813 229.7813,78.7813 Q230.1094,78.7813 230.3672,79.0391 Q230.625,79.2969 230.625,79.6406 Q230.625,79.9844 230.2813,80.3906 Q229.7813,80.9688 228.9844,81.2969 Q227.9063,81.75 226.6094,81.75 Q225.0938,81.75 223.8906,81.125 Q222.9063,80.625 222.2188,79.5547 Q221.5313,78.4844 221.5313,77.2031 L221.5313,76.0469 Q221.5313,74.7188 222.1484,73.5703 Q222.7656,72.4219 223.8594,71.8047 Q224.9531,71.1875 226.1875,71.1875 Q226.9219,71.1875 227.5703,71.3516 Q228.2188,71.5156 228.7656,71.875 Z "/><text fill="#000000" font-family="sans-serif" font-size="12" lengthAdjust="spacingAndGlyphs" textLength="46" x="240" y="80.9102">Sistema</text><line style="stroke: #A80036; stroke-width: 1.5;" x1="212" x2="288" y1="92" y2="92"/><line style="stroke: #A80036; stroke-width: 1.5;" x1="212" x2="288" y1="100" y2="100"/><!--class TipoElemento--><rect fill="#FFA500" filter="url(#f1memaxm2mq8ow)" height="48" id="TipoElemento" style="stroke: #A80036; stroke-width: 1.5;" width="172" x="164" y="168"/><rect fill="#FFA500" height="32" style="stroke: #A80036; stroke-width: 1.5;" width="172" x="164" y="168"/><ellipse cx="179" cy="184" fill="#ADD1B2" rx="11" ry="11" style="stroke: #A80036; stroke-width: 1.0;"/><path d="M181.7656,179.875 Q181.9219,179.6563 182.1094,179.5469 Q182.2969,179.4375 182.5156,179.4375 Q182.8906,179.4375 183.125,179.6953 Q183.3594,179.9531 183.3594,180.5625 L183.3594,182.0156 Q183.3594,182.625 183.125,182.8906 Q182.8906,183.1563 182.5156,183.1563 Q182.1719,183.1563 181.9688,182.9531 Q181.7656,182.7656 181.6563,182.25 Q181.6094,181.8906 181.4219,181.7031 Q181.0938,181.3281 180.4844,181.1094 Q179.875,180.8906 179.25,180.8906 Q178.4844,180.8906 177.8516,181.2188 Q177.2188,181.5469 176.7266,182.2969 Q176.2344,183.0469 176.2344,184.0781 L176.2344,185.1719 Q176.2344,186.4063 177.125,187.2266 Q178.0156,188.0469 179.6094,188.0469 Q180.5469,188.0469 181.2031,187.7969 Q181.5938,187.6406 182.0156,187.2031 Q182.2813,186.9375 182.4297,186.8594 Q182.5781,186.7813 182.7813,186.7813 Q183.1094,186.7813 183.3672,187.0391 Q183.625,187.2969 183.625,187.6406 Q183.625,187.9844 183.2813,188.3906 Q182.7813,188.9688 181.9844,189.2969 Q180.9063,189.75 179.6094,189.75 Q178.0938,189.75 176.8906,189.125 Q175.9063,188.625 175.2188,187.5547 Q174.5313,186.4844 174.5313,185.2031 L174.5313,184.0469 Q174.5313,182.7188 175.1484,181.5703 Q175.7656,180.4219 176.8594,179.8047 Q177.9531,179.1875 179.1875,179.1875 Q179.9219,179.1875 180.5703,179.3516 Q181.2188,179.5156 181.7656,179.875 Z "/><text fill="#000000" font-family="sans-serif" font-size="12" lengthAdjust="spacingAndGlyphs" textLength="140" x="193" y="188.9102">Tipo de Elemento/Modulo</text><line style="stroke: #A80036; stroke-width: 1.5;" x1="165" x2="335" y1="200" y2="200"/><line style="stroke: #A80036; stroke-width: 1.5;" x1="165" x2="335" y1="208" y2="208"/><!--class Interfaz--><rect fill="#0000FF" filter="url(#f1memaxm2mq8ow)" height="48" id="Interfaz" style="stroke: #A80036; stroke-width: 1.5;" width="71" x="301.5" y="292"/><rect fill="#0000FF" height="32" style="stroke: #A80036; stroke-width: 1.5;" width="71" x="301.5" y="292"/><ellipse cx="316.5" cy="308" fill="#ADD1B2" rx="11" ry="11" style="stroke: #A80036; stroke-width: 1.0;"/><path d="M319.2656,303.875 Q319.4219,303.6563 319.6094,303.5469 Q319.7969,303.4375 320.0156,303.4375 Q320.3906,303.4375 320.625,303.6953 Q320.8594,303.9531 320.8594,304.5625 L320.8594,306.0156 Q320.8594,306.625 320.625,306.8906 Q320.3906,307.1563 320.0156,307.1563 Q319.6719,307.1563 319.4688,306.9531 Q319.2656,306.7656 319.1563,306.25 Q319.1094,305.8906 318.9219,305.7031 Q318.5938,305.3281 317.9844,305.1094 Q317.375,304.8906 316.75,304.8906 Q315.9844,304.8906 315.3516,305.2188 Q314.7188,305.5469 314.2266,306.2969 Q313.7344,307.0469 313.7344,308.0781 L313.7344,309.1719 Q313.7344,310.4063 314.625,311.2266 Q315.5156,312.0469 317.1094,312.0469 Q318.0469,312.0469 318.7031,311.7969 Q319.0938,311.6406 319.5156,311.2031 Q319.7813,310.9375 319.9297,310.8594 Q320.0781,310.7813 320.2813,310.7813 Q320.6094,310.7813 320.8672,311.0391 Q321.125,311.2969 321.125,311.6406 Q321.125,311.9844 320.7813,312.3906 Q320.2813,312.9688 319.4844,313.2969 Q318.4063,313.75 317.1094,313.75 Q315.5938,313.75 314.3906,313.125 Q313.4063,312.625 312.7188,311.5547 Q312.0313,310.4844 312.0313,309.2031 L312.0313,308.0469 Q312.0313,306.7188 312.6484,305.5703 Q313.2656,304.4219 314.3594,303.8047 Q315.4531,303.1875 316.6875,303.1875 Q317.4219,303.1875 318.0703,303.3516 Q318.7188,303.5156 319.2656,303.875 Z "/><text fill="#000000" font-family="sans-serif" font-size="12" lengthAdjust="spacingAndGlyphs" textLength="39" x="330.5" y="312.9102">Interfaz</text><line style="stroke: #A80036; stroke-width: 1.5;" x1="302.5" x2="371.5" y1="324" y2="324"/><line style="stroke: #A80036; stroke-width: 1.5;" x1="302.5" x2="371.5" y1="332" y2="332"/><!--class Implementacion--><rect fill="#0000FF" filter="url(#f1memaxm2mq8ow)" height="48" id="Implementacion" style="stroke: #A80036; stroke-width: 1.5;" width="121" x="251.5" y="400"/><rect fill="#0000FF" height="32" style="stroke: #A80036; stroke-width: 1.5;" width="121" x="251.5" y="400"/><ellipse cx="266.5" cy="416" fill="#ADD1B2" rx="11" ry="11" style="stroke: #A80036; stroke-width: 1.0;"/><path d="M269.2656,411.875 Q269.4219,411.6563 269.6094,411.5469 Q269.7969,411.4375 270.0156,411.4375 Q270.3906,411.4375 270.625,411.6953 Q270.8594,411.9531 270.8594,412.5625 L270.8594,414.0156 Q270.8594,414.625 270.625,414.8906 Q270.3906,415.1563 270.0156,415.1563 Q269.6719,415.1563 269.4688,414.9531 Q269.2656,414.7656 269.1563,414.25 Q269.1094,413.8906 268.9219,413.7031 Q268.5938,413.3281 267.9844,413.1094 Q267.375,412.8906 266.75,412.8906 Q265.9844,412.8906 265.3516,413.2188 Q264.7188,413.5469 264.2266,414.2969 Q263.7344,415.0469 263.7344,416.0781 L263.7344,417.1719 Q263.7344,418.4063 264.625,419.2266 Q265.5156,420.0469 267.1094,420.0469 Q268.0469,420.0469 268.7031,419.7969 Q269.0938,419.6406 269.5156,419.2031 Q269.7813,418.9375 269.9297,418.8594 Q270.0781,418.7813 270.2813,418.7813 Q270.6094,418.7813 270.8672,419.0391 Q271.125,419.2969 271.125,419.6406 Q271.125,419.9844 270.7813,420.3906 Q270.2813,420.9688 269.4844,421.2969 Q268.4063,421.75 267.1094,421.75 Q265.5938,421.75 264.3906,421.125 Q263.4063,420.625 262.7188,419.5547 Q262.0313,418.4844 262.0313,417.2031 L262.0313,416.0469 Q262.0313,414.7188 262.6484,413.5703 Q263.2656,412.4219 264.3594,411.8047 Q265.4531,411.1875 266.6875,411.1875 Q267.4219,411.1875 268.0703,411.3516 Q268.7188,411.5156 269.2656,411.875 Z "/><text fill="#000000" font-family="sans-serif" font-size="12" lengthAdjust="spacingAndGlyphs" textLength="89" x="280.5" y="420.9102">Implementaci贸n</text><line style="stroke: #A80036; stroke-width: 1.5;" x1="252.5" x2="371.5" y1="432" y2="432"/><line style="stroke: #A80036; stroke-width: 1.5;" x1="252.5" x2="371.5" y1="440" y2="440"/><!--class Acoplamiento--><rect fill="#0000FF" filter="url(#f1memaxm2mq8ow)" height="48" id="Acoplamiento" style="stroke: #A80036; stroke-width: 1.5;" width="107" x="159.5" y="292"/><rect fill="#0000FF" height="32" style="stroke: #A80036; stroke-width: 1.5;" width="107" x="159.5" y="292"/><ellipse cx="174.5" cy="308" fill="#ADD1B2" rx="11" ry="11" style="stroke: #A80036; stroke-width: 1.0;"/><path d="M177.2656,303.875 Q177.4219,303.6563 177.6094,303.5469 Q177.7969,303.4375 178.0156,303.4375 Q178.3906,303.4375 178.625,303.6953 Q178.8594,303.9531 178.8594,304.5625 L178.8594,306.0156 Q178.8594,306.625 178.625,306.8906 Q178.3906,307.1563 178.0156,307.1563 Q177.6719,307.1563 177.4688,306.9531 Q177.2656,306.7656 177.1563,306.25 Q177.1094,305.8906 176.9219,305.7031 Q176.5938,305.3281 175.9844,305.1094 Q175.375,304.8906 174.75,304.8906 Q173.9844,304.8906 173.3516,305.2188 Q172.7188,305.5469 172.2266,306.2969 Q171.7344,307.0469 171.7344,308.0781 L171.7344,309.1719 Q171.7344,310.4063 172.625,311.2266 Q173.5156,312.0469 175.1094,312.0469 Q176.0469,312.0469 176.7031,311.7969 Q177.0938,311.6406 177.5156,311.2031 Q177.7813,310.9375 177.9297,310.8594 Q178.0781,310.7813 178.2813,310.7813 Q178.6094,310.7813 178.8672,311.0391 Q179.125,311.2969 179.125,311.6406 Q179.125,311.9844 178.7813,312.3906 Q178.2813,312.9688 177.4844,313.2969 Q176.4063,313.75 175.1094,313.75 Q173.5938,313.75 172.3906,313.125 Q171.4063,312.625 170.7188,311.5547 Q170.0313,310.4844 170.0313,309.2031 L170.0313,308.0469 Q170.0313,306.7188 170.6484,305.5703 Q171.2656,304.4219 172.3594,303.8047 Q173.4531,303.1875 174.6875,303.1875 Q175.4219,303.1875 176.0703,303.3516 Q176.7188,303.5156 177.2656,303.875 Z "/><text fill="#000000" font-family="sans-serif" font-size="12" lengthAdjust="spacingAndGlyphs" textLength="75" x="188.5" y="312.9102">Acoplamiento</text><line style="stroke: #A80036; stroke-width: 1.5;" x1="160.5" x2="265.5" y1="324" y2="324"/><line style="stroke: #A80036; stroke-width: 1.5;" x1="160.5" x2="265.5" y1="332" y2="332"/><!--class Cohesion--><rect fill="#0000FF" filter="url(#f1memaxm2mq8ow)" height="48" id="Cohesion" style="stroke: #A80036; stroke-width: 1.5;" width="86" x="38" y="292"/><rect fill="#0000FF" height="32" style="stroke: #A80036; stroke-width: 1.5;" width="86" x="38" y="292"/><ellipse cx="53" cy="308" fill="#ADD1B2" rx="11" ry="11" style="stroke: #A80036; stroke-width: 1.0;"/><path d="M55.7656,303.875 Q55.9219,303.6563 56.1094,303.5469 Q56.2969,303.4375 56.5156,303.4375 Q56.8906,303.4375 57.125,303.6953 Q57.3594,303.9531 57.3594,304.5625 L57.3594,306.0156 Q57.3594,306.625 57.125,306.8906 Q56.8906,307.1563 56.5156,307.1563 Q56.1719,307.1563 55.9688,306.9531 Q55.7656,306.7656 55.6563,306.25 Q55.6094,305.8906 55.4219,305.7031 Q55.0938,305.3281 54.4844,305.1094 Q53.875,304.8906 53.25,304.8906 Q52.4844,304.8906 51.8516,305.2188 Q51.2188,305.5469 50.7266,306.2969 Q50.2344,307.0469 50.2344,308.0781 L50.2344,309.1719 Q50.2344,310.4063 51.125,311.2266 Q52.0156,312.0469 53.6094,312.0469 Q54.5469,312.0469 55.2031,311.7969 Q55.5938,311.6406 56.0156,311.2031 Q56.2813,310.9375 56.4297,310.8594 Q56.5781,310.7813 56.7813,310.7813 Q57.1094,310.7813 57.3672,311.0391 Q57.625,311.2969 57.625,311.6406 Q57.625,311.9844 57.2813,312.3906 Q56.7813,312.9688 55.9844,313.2969 Q54.9063,313.75 53.6094,313.75 Q52.0938,313.75 50.8906,313.125 Q49.9063,312.625 49.2188,311.5547 Q48.5313,310.4844 48.5313,309.2031 L48.5313,308.0469 Q48.5313,306.7188 49.1484,305.5703 Q49.7656,304.4219 50.8594,303.8047 Q51.9531,303.1875 53.1875,303.1875 Q53.9219,303.1875 54.5703,303.3516 Q55.2188,303.5156 55.7656,303.875 Z "/><text fill="#000000" font-family="sans-serif" font-size="12" lengthAdjust="spacingAndGlyphs" textLength="54" x="67" y="312.9102">Cohesi贸n</text><line style="stroke: #A80036; stroke-width: 1.5;" x1="39" x2="123" y1="324" y2="324"/><line style="stroke: #A80036; stroke-width: 1.5;" x1="39" x2="123" y1="332" y2="332"/><!--link Sistema to TipoElemento--><path d="M250,121.338 C250,132.006 250,143.677 250,154.364 " fill="none" id="Sistema-TipoElemento" style="stroke: #A80036; stroke-width: 1.0;"/><polygon fill="#A80036" points="250,167.678,254,158.678,250,162.678,246,158.678,250,167.678" style="stroke: #A80036; stroke-width: 1.0;"/><line style="stroke: #A80036; stroke-width: 1.0;" x1="250" x2="250" y1="162.678" y2="154.678"/><polygon fill="#A80036" points="250,108,246,114,250,120,254,114,250,108" style="stroke: #A80036; stroke-width: 1.0;"/><!--link TipoElemento to Acoplamiento--><path d="M239.132,228.833 C234.311,244.733 228.65,263.398 223.832,279.284 " fill="none" id="TipoElemento-Acoplamiento" style="stroke: #A80036; stroke-width: 1.0;"/><polygon fill="#A80036" points="220.02,291.852,226.4599,284.4003,221.4712,287.0672,218.8042,282.0785,220.02,291.852" style="stroke: #A80036; stroke-width: 1.0;"/><line style="stroke: #A80036; stroke-width: 1.0;" x1="221.4712" x2="223.793" y1="287.0672" y2="279.4115"/><polygon fill="#A80036" points="242.953,216.234,237.3839,220.815,239.4706,227.7176,245.0397,223.1366,242.953,216.234" style="stroke: #A80036; stroke-width: 1.0;"/><!--link TipoElemento to Cohesion--><path d="M183.416,222.134 C169.163,229.655 154.613,238.379 142,248 C129.36,257.642 117.193,270.113 107.096,281.676 " fill="none" id="TipoElemento-Cohesion" style="stroke: #A80036; stroke-width: 1.0;"/><polygon fill="#A80036" points="98.4502,291.934,107.3092,287.6307,101.6727,288.111,101.1924,282.4746,98.4502,291.934" style="stroke: #A80036; stroke-width: 1.0;"/><line style="stroke: #A80036; stroke-width: 1.0;" x1="101.6727" x2="106.8281" y1="288.111" y2="281.9935"/><polygon fill="#A80036" points="195.27,216.105,188.1086,215.2595,184.5738,221.5448,191.7351,222.3903,195.27,216.105" style="stroke: #A80036; stroke-width: 1.0;"/><!--link TipoElemento to Interfaz--><path d="M274.318,227.1 C286.286,243.884 300.677,264.064 312.65,280.854 " fill="none" id="TipoElemento-Interfaz" style="stroke: #A80036; stroke-width: 1.0;"/><polygon fill="#A80036" points="320.493,291.852,318.5247,282.2018,317.5901,287.781,312.011,286.8464,320.493,291.852" style="stroke: #A80036; stroke-width: 1.0;"/><line style="stroke: #A80036; stroke-width: 1.0;" x1="317.5901" x2="312.9445" y1="287.781" y2="281.2675"/><polygon fill="#A80036" points="266.569,216.234,266.7962,223.4415,273.5367,226.0039,273.3095,218.7964,266.569,216.234" style="stroke: #A80036; stroke-width: 1.0;"/><!--link TipoElemento to Implementacion--><path d="M348.298,214.125 C364.743,222.062 379.763,232.98 390,248 C413.028,281.788 405.059,301.985 390,340 C382.308,359.418 367.684,376.942 353.159,390.8296 " fill="none" id="TipoElemento-Implementacion" style="stroke: #A80036; stroke-width: 1.0;"/><polygon fill="#A80036" points="343.205,399.8414,352.5616,396.7667,346.9117,396.4858,347.1926,390.8359,343.205,399.8414" style="stroke: #A80036; stroke-width: 1.0;"/><line style="stroke: #A80036; stroke-width: 1.0;" x1="346.9117" x2="352.8425" y1="396.4858" y2="391.1163"/><polygon fill="#A80036" points="336.119,208.857,340.0377,214.9104,347.1326,213.6214,343.214,207.568,336.119,208.857" style="stroke: #A80036; stroke-width: 1.0;"/><!--link Interfaz to Implementacion--><path d="M320.849,340 C314.644,356.003 309.346,377.446 307.266,394.528 " fill="none" id="Interfaz-Implementacion" style="stroke: #A80036; stroke-width: 1.0;"/><polygon fill="#A80036" points="306.726,399.6784,311.642,391.1442,307.247,394.7056,303.6856,390.3106,306.726,399.6784" style="stroke: #A80036; stroke-width: 1.0;"/><!--link Implementacion to Interfaz--><path d="M328.908,399.6784 C335.243,383.6037 340.526,362.154 342.447,345.131 " fill="none" id="Implementacion-Interfaz" style="stroke: #A80036; stroke-width: 1.0;"/><polygon fill="#A80036" points="342.932,340,338.1012,348.5827,342.4605,344.9777,346.0655,349.3371,342.932,340" style="stroke: #A80036; stroke-width: 1.0;"/><!--
@startuml

together sistemas {

class Sistema #orange

class "Tipo de Elemento/Modulo" as TipoElemento #orange

}

together modularizacion {

class Interfaz #blue

class "Implementaci贸n" as Implementacion #blue

class Acoplamiento #blue

class "Cohesi贸n" as Cohesion #blue

}

Sistema *-down-> TipoElemento

TipoElemento *- -> Acoplamiento
TipoElemento *- -> Cohesion
TipoElemento *- -> Interfaz
TipoElemento *- -> Implementacion

Interfaz - -> Implementacion

Implementacion - -> Interfaz

@enduml

PlantUML version 1.2019.05(Sat Apr 20 18:45:36 CEST 2019)
(GPL source distribution)
Java Runtime: Java(TM) SE Runtime Environment
JVM: Java HotSpot(TM) 64-Bit Server VM
Java Version: 1.8.0_211-b12
Operating System: Windows 10
OS Version: 10.0
Default Encoding: windows-1252
Language: es
Country: ES
--></g></svg>