<?xml version="1.0" encoding="UTF-8" standalone="no"?><svg xmlns="http://www.w3.org/2000/svg" xmlns:xlink="http://www.w3.org/1999/xlink" contentScriptType="application/ecmascript" contentStyleType="text/css" height="214px" preserveAspectRatio="none" style="width:382px;height:214px;" version="1.1" viewBox="0 0 382 214" width="382px" zoomAndPan="magnify"><defs><filter height="300%" id="f1takmvrqtb4hg" width="300%" x="-1" y="-1"><feGaussianBlur result="blurOut" stdDeviation="2.0"/><feColorMatrix in="blurOut" result="blurOut2" type="matrix" values="0 0 0 0 0 0 0 0 0 0 0 0 0 0 0 0 0 0 .4 0"/><feOffset dx="4.0" dy="4.0" in="blurOut2" result="blurOut3"/><feBlend in="SourceGraphic" in2="blurOut3" mode="normal"/></filter></defs><g><!--cluster mujeres--><polygon fill="#FFFFFF" filter="url(#f1takmvrqtb4hg)" points="22,24,85,24,92,47.6094,360,47.6094,360,111,22,111,22,24" style="stroke: #000000; stroke-width: 1.5;"/><line style="stroke: #000000; stroke-width: 1.5;" x1="22" x2="92" y1="47.6094" y2="47.6094"/><text fill="#000000" font-family="sans-serif" font-size="14" font-weight="bold" lengthAdjust="spacingAndGlyphs" textLength="57" x="26" y="40.5332">mujeres</text><rect fill="#FEFECE" filter="url(#f1takmvrqtb4hg)" height="35.0938" style="stroke: #A80036; stroke-width: 1.5;" width="59" x="38.5" y="60"/><text fill="#000000" font-family="sans-serif" font-size="12" lengthAdjust="spacingAndGlyphs" textLength="45" x="45.5" y="74.457">Ludmila</text><line style="stroke: #A80036; stroke-width: 1.5;" x1="39.5" x2="96.5" y1="79.0938" y2="79.0938"/><rect fill="#FEFECE" filter="url(#f1takmvrqtb4hg)" height="35.0938" style="stroke: #A80036; stroke-width: 1.5;" width="148" x="133" y="60"/><text fill="#000000" font-family="sans-serif" font-size="12" lengthAdjust="spacingAndGlyphs" textLength="134" x="140" y="74.457">Maria Skłodowska-Curie</text><line style="stroke: #A80036; stroke-width: 1.5;" x1="134" x2="280" y1="79.0938" y2="79.0938"/><rect fill="#FEFECE" filter="url(#f1takmvrqtb4hg)" height="35.0938" style="stroke: #A80036; stroke-width: 1.5;" width="28" x="316" y="60"/><text fill="#000000" font-family="sans-serif" font-size="12" lengthAdjust="spacingAndGlyphs" textLength="14" x="323" y="74.457">Tú</text><line style="stroke: #A80036; stroke-width: 1.5;" x1="317" x2="343" y1="79.0938" y2="79.0938"/><!--class Mujer--><rect fill="#FEFECE" filter="url(#f1takmvrqtb4hg)" height="48" id="Mujer" style="stroke: #A80036; stroke-width: 1.5;" width="62" x="176" y="155"/><ellipse cx="191" cy="171" fill="#ADD1B2" rx="11" ry="11" style="stroke: #A80036; stroke-width: 1.0;"/><path d="M193.7656,166.875 Q193.9219,166.6563 194.1094,166.5469 Q194.2969,166.4375 194.5156,166.4375 Q194.8906,166.4375 195.125,166.6953 Q195.3594,166.9531 195.3594,167.5625 L195.3594,169.0156 Q195.3594,169.625 195.125,169.8906 Q194.8906,170.1563 194.5156,170.1563 Q194.1719,170.1563 193.9688,169.9531 Q193.7656,169.7656 193.6563,169.25 Q193.6094,168.8906 193.4219,168.7031 Q193.0938,168.3281 192.4844,168.1094 Q191.875,167.8906 191.25,167.8906 Q190.4844,167.8906 189.8516,168.2188 Q189.2188,168.5469 188.7266,169.2969 Q188.2344,170.0469 188.2344,171.0781 L188.2344,172.1719 Q188.2344,173.4063 189.125,174.2266 Q190.0156,175.0469 191.6094,175.0469 Q192.5469,175.0469 193.2031,174.7969 Q193.5938,174.6406 194.0156,174.2031 Q194.2813,173.9375 194.4297,173.8594 Q194.5781,173.7813 194.7813,173.7813 Q195.1094,173.7813 195.3672,174.0391 Q195.625,174.2969 195.625,174.6406 Q195.625,174.9844 195.2813,175.3906 Q194.7813,175.9688 193.9844,176.2969 Q192.9063,176.75 191.6094,176.75 Q190.0938,176.75 188.8906,176.125 Q187.9063,175.625 187.2188,174.5547 Q186.5313,173.4844 186.5313,172.2031 L186.5313,171.0469 Q186.5313,169.7188 187.1484,168.5703 Q187.7656,167.4219 188.8594,166.8047 Q189.9531,166.1875 191.1875,166.1875 Q191.9219,166.1875 192.5703,166.3516 Q193.2188,166.5156 193.7656,166.875 Z "/><text fill="#000000" font-family="sans-serif" font-size="12" lengthAdjust="spacingAndGlyphs" textLength="30" x="205" y="175.9102">Mujer</text><line style="stroke: #A80036; stroke-width: 1.5;" x1="177" x2="237" y1="187" y2="187"/><line style="stroke: #A80036; stroke-width: 1.5;" x1="177" x2="237" y1="195" y2="195"/><!--link Ludmila to Mujer--><path d="M86.7058,95.225 C95.4049,102.756 106.016,111.5966 116,119 C133.707,132.1299 154.252,145.5905 171.334,156.3331 " fill="none" id="Ludmila-Mujer" style="stroke: #A80036; stroke-width: 1.0; stroke-dasharray: 7.0,7.0;"/><polygon fill="#A80036" points="175.599,159.0038,170.095,150.8364,171.3616,156.3496,165.8484,157.6162,175.599,159.0038" style="stroke: #A80036; stroke-width: 1.0;"/><!--link MariaSkłodowskaCurie to Mujer--><path d="M207,95.379 C207,110.1514 207,131.923 207,149.4089 " fill="none" id="MariaSkłodowskaCurie-Mujer" style="stroke: #A80036; stroke-width: 1.0; stroke-dasharray: 7.0,7.0;"/><polygon fill="#A80036" points="207,154.6854,211,145.6854,207,149.6854,203,145.6854,207,154.6854" style="stroke: #A80036; stroke-width: 1.0;"/><!--link Tú to Mujer--><path d="M319.108,95.349 C313.632,103.0773 306.558,112.0449 299,119 C282.138,134.5164 260.711,148.5232 242.779,158.9916 " fill="none" id="Tú-Mujer" style="stroke: #A80036; stroke-width: 1.0; stroke-dasharray: 7.0,7.0;"/><polygon fill="#A80036" points="238.3,161.5756,248.0946,160.5428,242.6309,159.077,244.0968,153.6134,238.3,161.5756" style="stroke: #A80036; stroke-width: 1.0;"/><!--
@startuml

class Mujer

package mujeres {
object Ludmila
object "Maria Skłodowska-Curie" as MariaSkłodowskaCurie
object Tú
}

Mujer <.down. Ludmila
Mujer <.down. MariaSkłodowskaCurie
Mujer <.down. Tú

@enduml

PlantUML version 1.2019.05(Sat Apr 20 18:45:36 CEST 2019)
(GPL source distribution)
Java Runtime: Java(TM) SE Runtime Environment
JVM: Java HotSpot(TM) 64-Bit Server VM
Java Version: 1.8.0_211-b12
Operating System: Windows 10
OS Version: 10.0
Default Encoding: windows-1252
Language: es
Country: ES
--></g></svg>