<?xml version="1.0" encoding="UTF-8" standalone="no"?><svg xmlns="http://www.w3.org/2000/svg" xmlns:xlink="http://www.w3.org/1999/xlink" contentScriptType="application/ecmascript" contentStyleType="text/css" height="65px" preserveAspectRatio="none" style="width:399px;height:65px;" version="1.1" viewBox="0 0 399 65" width="399px" zoomAndPan="magnify"><defs><filter height="300%" id="f1pvhnqluj7ueu" width="300%" x="-1" y="-1"><feGaussianBlur result="blurOut" stdDeviation="2.0"/><feColorMatrix in="blurOut" result="blurOut2" type="matrix" values="0 0 0 0 0 0 0 0 0 0 0 0 0 0 0 0 0 0 .4 0"/><feOffset dx="4.0" dy="4.0" in="blurOut2" result="blurOut3"/><feBlend in="SourceGraphic" in2="blurOut3" mode="normal"/></filter></defs><g><rect fill="#FEFECE" filter="url(#f1pvhnqluj7ueu)" height="35.0938" style="stroke: #A80036; stroke-width: 1.5;" width="21" x="6" y="7.9828"/><text fill="#000000" font-family="sans-serif" font-size="12" lengthAdjust="spacingAndGlyphs" textLength="7" x="13" y="22.4398">A</text><line style="stroke: #A80036; stroke-width: 1.5;" x1="7" x2="26" y1="27.0765" y2="27.0765"/><rect fill="#FEFECE" filter="url(#f1pvhnqluj7ueu)" height="35.0938" style="stroke: #A80036; stroke-width: 1.5;" width="22" x="124.5" y="7.9828"/><text fill="#000000" font-family="sans-serif" font-size="12" lengthAdjust="spacingAndGlyphs" textLength="8" x="131.5" y="22.4398">B</text><line style="stroke: #A80036; stroke-width: 1.5;" x1="125.5" x2="145.5" y1="27.0765" y2="27.0765"/><rect fill="#FEFECE" filter="url(#f1pvhnqluj7ueu)" height="35.0938" style="stroke: #A80036; stroke-width: 1.5;" width="23" x="244" y="7.9828"/><text fill="#000000" font-family="sans-serif" font-size="12" lengthAdjust="spacingAndGlyphs" textLength="9" x="251" y="22.4398">C</text><line style="stroke: #A80036; stroke-width: 1.5;" x1="245" x2="266" y1="27.0765" y2="27.0765"/><rect fill="#FEFECE" filter="url(#f1pvhnqluj7ueu)" height="35.0938" style="stroke: #A80036; stroke-width: 1.5;" width="23" x="365" y="7.9828"/><text fill="#000000" font-family="sans-serif" font-size="12" lengthAdjust="spacingAndGlyphs" textLength="9" x="372" y="22.4398">D</text><line style="stroke: #A80036; stroke-width: 1.5;" x1="366" x2="387" y1="27.0765" y2="27.0765"/><!--link A to B--><path d="M27.0605,25.4828 C47.8963,25.4828 94.4219,25.4828 119.215,25.4828 " fill="none" id="A-B" style="stroke: #A80036; stroke-width: 1.0;"/><polygon fill="#A80036" points="124.447,25.4828,115.447,21.4828,119.447,25.4828,115.447,29.4828,124.447,25.4828" style="stroke: #A80036; stroke-width: 1.0;"/><rect fill="none" height="6" style="stroke: #C82930; stroke-width: 1.0;" width="6" x="47.25" y="11.1586"/><text fill="#000000" font-family="sans-serif" font-size="13" lengthAdjust="spacingAndGlyphs" textLength="49" x="57.25" y="18.9779">siguente</text><!--link B to A--><path d="M124.284,34.8176 C118.178,39.2898 110.251,44.1676 102.25,46.4828 C79.6226,53.0301 71.8548,53.1077 49.25,46.4828 C42.9709,44.6426 36.7543,41.1879 31.452,37.6042 " fill="none" id="B-A" style="stroke: #A80036; stroke-width: 1.0;"/><polygon fill="#A80036" points="27.2318,34.5961,32.2389,43.0772,31.3034,37.4982,36.8823,36.5627,27.2318,34.5961" style="stroke: #A80036; stroke-width: 1.0;"/><rect fill="none" height="6" style="stroke: #C82930; stroke-width: 1.0;" width="6" x="52.25" y="35.1586"/><text fill="#000000" font-family="sans-serif" font-size="13" lengthAdjust="spacingAndGlyphs" textLength="39" x="62.25" y="42.9779">anteior</text><!--link B to C--><path d="M146.574,25.4828 C167.612,25.4828 213.479,25.4828 238.458,25.4828 " fill="none" id="B-C" style="stroke: #A80036; stroke-width: 1.0;"/><polygon fill="#A80036" points="243.748,25.4828,234.748,21.4828,238.748,25.4828,234.748,29.4828,243.748,25.4828" style="stroke: #A80036; stroke-width: 1.0;"/><rect fill="none" height="6" style="stroke: #C82930; stroke-width: 1.0;" width="6" x="166.75" y="11.1586"/><text fill="#000000" font-family="sans-serif" font-size="13" lengthAdjust="spacingAndGlyphs" textLength="49" x="176.75" y="18.9779">siguente</text><!--link C to B--><path d="M243.986,35.4739 C238.299,39.7559 231.091,44.2747 223.75,46.4828 C199.49,53.7799 190.983,53.8687 166.75,46.4828 C161.101,44.7611 155.547,41.6393 150.725,38.3199 " fill="none" id="C-B" style="stroke: #A80036; stroke-width: 1.0;"/><polygon fill="#A80036" points="146.52,35.2504,151.43,43.7881,150.5582,38.1988,156.1475,37.327,146.52,35.2504" style="stroke: #A80036; stroke-width: 1.0;"/><rect fill="none" height="6" style="stroke: #C82930; stroke-width: 1.0;" width="6" x="169.75" y="35.1586"/><text fill="#000000" font-family="sans-serif" font-size="13" lengthAdjust="spacingAndGlyphs" textLength="43" x="179.75" y="42.9779">anterior</text><!--link C to D--><path d="M267.102,25.4828 C288.549,25.4828 334.482,25.4828 359.466,25.4828 " fill="none" id="C-D" style="stroke: #A80036; stroke-width: 1.0;"/><polygon fill="#A80036" points="364.755,25.4828,355.755,21.4828,359.755,25.4828,355.755,29.4828,364.755,25.4828" style="stroke: #A80036; stroke-width: 1.0;"/><rect fill="none" height="6" style="stroke: #C82930; stroke-width: 1.0;" width="6" x="287.5" y="11.1586"/><text fill="#000000" font-family="sans-serif" font-size="13" lengthAdjust="spacingAndGlyphs" textLength="49" x="297.5" y="18.9779">siguente</text><!--link D to C--><path d="M364.883,35.4749 C359.148,39.7572 351.886,44.2759 344.5,46.4828 C320.227,53.7361 311.773,53.7361 287.5,46.4828 C281.845,44.7931 276.263,41.7483 271.383,38.492 " fill="none" id="D-C" style="stroke: #A80036; stroke-width: 1.0;"/><polygon fill="#A80036" points="267.117,35.4749,272.1553,43.9375,271.1992,38.362,276.7747,37.4059,267.117,35.4749" style="stroke: #A80036; stroke-width: 1.0;"/><rect fill="none" height="6" style="stroke: #C82930; stroke-width: 1.0;" width="6" x="290.5" y="35.1586"/><text fill="#000000" font-family="sans-serif" font-size="13" lengthAdjust="spacingAndGlyphs" textLength="43" x="300.5" y="42.9779">anterior</text><!--
@startuml

object A
object B
object C
object D


A -right-> B : - siguente
B -right-> A : -anteior
B -right-> C : -siguente
C -right-> B : -anterior
C -right-> D : - siguente
D -right-> C : -anterior

@enduml

PlantUML version 1.2019.05(Sat Apr 20 18:45:36 CEST 2019)
(GPL source distribution)
Java Runtime: Java(TM) SE Runtime Environment
JVM: Java HotSpot(TM) 64-Bit Server VM
Java Version: 1.8.0_211-b12
Operating System: Windows 10
OS Version: 10.0
Default Encoding: windows-1252
Language: es
Country: ES
--></g></svg>