<?xml version="1.0" encoding="UTF-8" standalone="no"?><svg xmlns="http://www.w3.org/2000/svg" xmlns:xlink="http://www.w3.org/1999/xlink" contentScriptType="application/ecmascript" contentStyleType="text/css" height="1015px" preserveAspectRatio="none" style="width:2620px;height:1015px;" version="1.1" viewBox="0 0 2620 1015" width="2620px" zoomAndPan="magnify"><defs><filter height="300%" id="fzxt358jvnsu2" width="300%" x="-1" y="-1"><feGaussianBlur result="blurOut" stdDeviation="2.0"/><feColorMatrix in="blurOut" result="blurOut2" type="matrix" values="0 0 0 0 0 0 0 0 0 0 0 0 0 0 0 0 0 0 .4 0"/><feOffset dx="4.0" dy="4.0" in="blurOut2" result="blurOut3"/><feBlend in="SourceGraphic" in2="blurOut3" mode="normal"/></filter></defs><g><!--cluster efectividad--><!--cluster modularizacion--><!--cluster sistemas--><!--cluster capacidades--><!--cluster sistemasComplejos--><!--class Eficacia--><rect fill="#008000" filter="url(#fzxt358jvnsu2)" height="48" id="Eficacia" style="stroke: #A80036; stroke-width: 1.5;" width="75" x="2414.5" y="956"/><rect fill="#008000" height="32" style="stroke: #A80036; stroke-width: 1.5;" width="75" x="2414.5" y="956"/><ellipse cx="2429.5" cy="972" fill="#ADD1B2" rx="11" ry="11" style="stroke: #A80036; stroke-width: 1.0;"/><path d="M2432.2656,967.875 Q2432.4219,967.6563 2432.6094,967.5469 Q2432.7969,967.4375 2433.0156,967.4375 Q2433.3906,967.4375 2433.625,967.6953 Q2433.8594,967.9531 2433.8594,968.5625 L2433.8594,970.0156 Q2433.8594,970.625 2433.625,970.8906 Q2433.3906,971.1563 2433.0156,971.1563 Q2432.6719,971.1563 2432.4688,970.9531 Q2432.2656,970.7656 2432.1563,970.25 Q2432.1094,969.8906 2431.9219,969.7031 Q2431.5938,969.3281 2430.9844,969.1094 Q2430.375,968.8906 2429.75,968.8906 Q2428.9844,968.8906 2428.3516,969.2188 Q2427.7188,969.5469 2427.2266,970.2969 Q2426.7344,971.0469 2426.7344,972.0781 L2426.7344,973.1719 Q2426.7344,974.4063 2427.625,975.2266 Q2428.5156,976.0469 2430.1094,976.0469 Q2431.0469,976.0469 2431.7031,975.7969 Q2432.0938,975.6406 2432.5156,975.2031 Q2432.7813,974.9375 2432.9297,974.8594 Q2433.0781,974.7813 2433.2813,974.7813 Q2433.6094,974.7813 2433.8672,975.0391 Q2434.125,975.2969 2434.125,975.6406 Q2434.125,975.9844 2433.7813,976.3906 Q2433.2813,976.9688 2432.4844,977.2969 Q2431.4063,977.75 2430.1094,977.75 Q2428.5938,977.75 2427.3906,977.125 Q2426.4063,976.625 2425.7188,975.5547 Q2425.0313,974.4844 2425.0313,973.2031 L2425.0313,972.0469 Q2425.0313,970.7188 2425.6484,969.5703 Q2426.2656,968.4219 2427.3594,967.8047 Q2428.4531,967.1875 2429.6875,967.1875 Q2430.4219,967.1875 2431.0703,967.3516 Q2431.7188,967.5156 2432.2656,967.875 Z "/><text fill="#000000" font-family="sans-serif" font-size="12" lengthAdjust="spacingAndGlyphs" textLength="43" x="2443.5" y="976.9102">Eficacia</text><line style="stroke: #A80036; stroke-width: 1.5;" x1="2415.5" x2="2488.5" y1="988" y2="988"/><line style="stroke: #A80036; stroke-width: 1.5;" x1="2415.5" x2="2488.5" y1="996" y2="996"/><!--class Eficiencia--><rect fill="#008000" filter="url(#fzxt358jvnsu2)" height="48" id="Eficiencia" style="stroke: #A80036; stroke-width: 1.5;" width="85" x="2524.5" y="956"/><rect fill="#008000" height="32" style="stroke: #A80036; stroke-width: 1.5;" width="85" x="2524.5" y="956"/><ellipse cx="2539.5" cy="972" fill="#ADD1B2" rx="11" ry="11" style="stroke: #A80036; stroke-width: 1.0;"/><path d="M2542.2656,967.875 Q2542.4219,967.6563 2542.6094,967.5469 Q2542.7969,967.4375 2543.0156,967.4375 Q2543.3906,967.4375 2543.625,967.6953 Q2543.8594,967.9531 2543.8594,968.5625 L2543.8594,970.0156 Q2543.8594,970.625 2543.625,970.8906 Q2543.3906,971.1563 2543.0156,971.1563 Q2542.6719,971.1563 2542.4688,970.9531 Q2542.2656,970.7656 2542.1563,970.25 Q2542.1094,969.8906 2541.9219,969.7031 Q2541.5938,969.3281 2540.9844,969.1094 Q2540.375,968.8906 2539.75,968.8906 Q2538.9844,968.8906 2538.3516,969.2188 Q2537.7188,969.5469 2537.2266,970.2969 Q2536.7344,971.0469 2536.7344,972.0781 L2536.7344,973.1719 Q2536.7344,974.4063 2537.625,975.2266 Q2538.5156,976.0469 2540.1094,976.0469 Q2541.0469,976.0469 2541.7031,975.7969 Q2542.0938,975.6406 2542.5156,975.2031 Q2542.7813,974.9375 2542.9297,974.8594 Q2543.0781,974.7813 2543.2813,974.7813 Q2543.6094,974.7813 2543.8672,975.0391 Q2544.125,975.2969 2544.125,975.6406 Q2544.125,975.9844 2543.7813,976.3906 Q2543.2813,976.9688 2542.4844,977.2969 Q2541.4063,977.75 2540.1094,977.75 Q2538.5938,977.75 2537.3906,977.125 Q2536.4063,976.625 2535.7188,975.5547 Q2535.0313,974.4844 2535.0313,973.2031 L2535.0313,972.0469 Q2535.0313,970.7188 2535.6484,969.5703 Q2536.2656,968.4219 2537.3594,967.8047 Q2538.4531,967.1875 2539.6875,967.1875 Q2540.4219,967.1875 2541.0703,967.3516 Q2541.7188,967.5156 2542.2656,967.875 Z "/><text fill="#000000" font-family="sans-serif" font-size="12" lengthAdjust="spacingAndGlyphs" textLength="53" x="2553.5" y="976.9102">Eficiencia</text><line style="stroke: #A80036; stroke-width: 1.5;" x1="2525.5" x2="2608.5" y1="988" y2="988"/><line style="stroke: #A80036; stroke-width: 1.5;" x1="2525.5" x2="2608.5" y1="996" y2="996"/><!--class Equilibrio--><rect fill="#008000" filter="url(#fzxt358jvnsu2)" height="48" id="Equilibrio" style="stroke: #A80036; stroke-width: 1.5;" width="84" x="2451" y="848"/><rect fill="#008000" height="32" style="stroke: #A80036; stroke-width: 1.5;" width="84" x="2451" y="848"/><ellipse cx="2466" cy="864" fill="#ADD1B2" rx="11" ry="11" style="stroke: #A80036; stroke-width: 1.0;"/><path d="M2468.7656,859.875 Q2468.9219,859.6563 2469.1094,859.5469 Q2469.2969,859.4375 2469.5156,859.4375 Q2469.8906,859.4375 2470.125,859.6953 Q2470.3594,859.9531 2470.3594,860.5625 L2470.3594,862.0156 Q2470.3594,862.625 2470.125,862.8906 Q2469.8906,863.1563 2469.5156,863.1563 Q2469.1719,863.1563 2468.9688,862.9531 Q2468.7656,862.7656 2468.6563,862.25 Q2468.6094,861.8906 2468.4219,861.7031 Q2468.0938,861.3281 2467.4844,861.1094 Q2466.875,860.8906 2466.25,860.8906 Q2465.4844,860.8906 2464.8516,861.2188 Q2464.2188,861.5469 2463.7266,862.2969 Q2463.2344,863.0469 2463.2344,864.0781 L2463.2344,865.1719 Q2463.2344,866.4063 2464.125,867.2266 Q2465.0156,868.0469 2466.6094,868.0469 Q2467.5469,868.0469 2468.2031,867.7969 Q2468.5938,867.6406 2469.0156,867.2031 Q2469.2813,866.9375 2469.4297,866.8594 Q2469.5781,866.7813 2469.7813,866.7813 Q2470.1094,866.7813 2470.3672,867.0391 Q2470.625,867.2969 2470.625,867.6406 Q2470.625,867.9844 2470.2813,868.3906 Q2469.7813,868.9688 2468.9844,869.2969 Q2467.9063,869.75 2466.6094,869.75 Q2465.0938,869.75 2463.8906,869.125 Q2462.9063,868.625 2462.2188,867.5547 Q2461.5313,866.4844 2461.5313,865.2031 L2461.5313,864.0469 Q2461.5313,862.7188 2462.1484,861.5703 Q2462.7656,860.4219 2463.8594,859.8047 Q2464.9531,859.1875 2466.1875,859.1875 Q2466.9219,859.1875 2467.5703,859.3516 Q2468.2188,859.5156 2468.7656,859.875 Z "/><text fill="#000000" font-family="sans-serif" font-size="12" lengthAdjust="spacingAndGlyphs" textLength="52" x="2480" y="868.9102">Equilibrio</text><line style="stroke: #A80036; stroke-width: 1.5;" x1="2452" x2="2534" y1="880" y2="880"/><line style="stroke: #A80036; stroke-width: 1.5;" x1="2452" x2="2534" y1="888" y2="888"/><!--class Efectividad--><rect fill="#008000" filter="url(#fzxt358jvnsu2)" height="48" id="Efectividad" style="stroke: #A80036; stroke-width: 1.5;" width="91" x="2430.5" y="740"/><rect fill="#008000" height="32" style="stroke: #A80036; stroke-width: 1.5;" width="91" x="2430.5" y="740"/><ellipse cx="2445.5" cy="756" fill="#ADD1B2" rx="11" ry="11" style="stroke: #A80036; stroke-width: 1.0;"/><path d="M2448.2656,751.875 Q2448.4219,751.6563 2448.6094,751.5469 Q2448.7969,751.4375 2449.0156,751.4375 Q2449.3906,751.4375 2449.625,751.6953 Q2449.8594,751.9531 2449.8594,752.5625 L2449.8594,754.0156 Q2449.8594,754.625 2449.625,754.8906 Q2449.3906,755.1563 2449.0156,755.1563 Q2448.6719,755.1563 2448.4688,754.9531 Q2448.2656,754.7656 2448.1563,754.25 Q2448.1094,753.8906 2447.9219,753.7031 Q2447.5938,753.3281 2446.9844,753.1094 Q2446.375,752.8906 2445.75,752.8906 Q2444.9844,752.8906 2444.3516,753.2188 Q2443.7188,753.5469 2443.2266,754.2969 Q2442.7344,755.0469 2442.7344,756.0781 L2442.7344,757.1719 Q2442.7344,758.4063 2443.625,759.2266 Q2444.5156,760.0469 2446.1094,760.0469 Q2447.0469,760.0469 2447.7031,759.7969 Q2448.0938,759.6406 2448.5156,759.2031 Q2448.7813,758.9375 2448.9297,758.8594 Q2449.0781,758.7813 2449.2813,758.7813 Q2449.6094,758.7813 2449.8672,759.0391 Q2450.125,759.2969 2450.125,759.6406 Q2450.125,759.9844 2449.7813,760.3906 Q2449.2813,760.9688 2448.4844,761.2969 Q2447.4063,761.75 2446.1094,761.75 Q2444.5938,761.75 2443.3906,761.125 Q2442.4063,760.625 2441.7188,759.5547 Q2441.0313,758.4844 2441.0313,757.2031 L2441.0313,756.0469 Q2441.0313,754.7188 2441.6484,753.5703 Q2442.2656,752.4219 2443.3594,751.8047 Q2444.4531,751.1875 2445.6875,751.1875 Q2446.4219,751.1875 2447.0703,751.3516 Q2447.7188,751.5156 2448.2656,751.875 Z "/><text fill="#000000" font-family="sans-serif" font-size="12" lengthAdjust="spacingAndGlyphs" textLength="59" x="2459.5" y="760.9102">Efectividad</text><line style="stroke: #A80036; stroke-width: 1.5;" x1="2431.5" x2="2520.5" y1="772" y2="772"/><line style="stroke: #A80036; stroke-width: 1.5;" x1="2431.5" x2="2520.5" y1="780" y2="780"/><!--class Solucion--><rect fill="#008000" filter="url(#fzxt358jvnsu2)" height="48" id="Solucion" style="stroke: #A80036; stroke-width: 1.5;" width="80" x="2417" y="632"/><rect fill="#008000" height="32" style="stroke: #A80036; stroke-width: 1.5;" width="80" x="2417" y="632"/><ellipse cx="2432" cy="648" fill="#ADD1B2" rx="11" ry="11" style="stroke: #A80036; stroke-width: 1.0;"/><path d="M2434.7656,643.875 Q2434.9219,643.6563 2435.1094,643.5469 Q2435.2969,643.4375 2435.5156,643.4375 Q2435.8906,643.4375 2436.125,643.6953 Q2436.3594,643.9531 2436.3594,644.5625 L2436.3594,646.0156 Q2436.3594,646.625 2436.125,646.8906 Q2435.8906,647.1563 2435.5156,647.1563 Q2435.1719,647.1563 2434.9688,646.9531 Q2434.7656,646.7656 2434.6563,646.25 Q2434.6094,645.8906 2434.4219,645.7031 Q2434.0938,645.3281 2433.4844,645.1094 Q2432.875,644.8906 2432.25,644.8906 Q2431.4844,644.8906 2430.8516,645.2188 Q2430.2188,645.5469 2429.7266,646.2969 Q2429.2344,647.0469 2429.2344,648.0781 L2429.2344,649.1719 Q2429.2344,650.4063 2430.125,651.2266 Q2431.0156,652.0469 2432.6094,652.0469 Q2433.5469,652.0469 2434.2031,651.7969 Q2434.5938,651.6406 2435.0156,651.2031 Q2435.2813,650.9375 2435.4297,650.8594 Q2435.5781,650.7813 2435.7813,650.7813 Q2436.1094,650.7813 2436.3672,651.0391 Q2436.625,651.2969 2436.625,651.6406 Q2436.625,651.9844 2436.2813,652.3906 Q2435.7813,652.9688 2434.9844,653.2969 Q2433.9063,653.75 2432.6094,653.75 Q2431.0938,653.75 2429.8906,653.125 Q2428.9063,652.625 2428.2188,651.5547 Q2427.5313,650.4844 2427.5313,649.2031 L2427.5313,648.0469 Q2427.5313,646.7188 2428.1484,645.5703 Q2428.7656,644.4219 2429.8594,643.8047 Q2430.9531,643.1875 2432.1875,643.1875 Q2432.9219,643.1875 2433.5703,643.3516 Q2434.2188,643.5156 2434.7656,643.875 Z "/><text fill="#000000" font-family="sans-serif" font-size="12" lengthAdjust="spacingAndGlyphs" textLength="48" x="2446" y="652.9102">Solución</text><line style="stroke: #A80036; stroke-width: 1.5;" x1="2418" x2="2496" y1="664" y2="664"/><line style="stroke: #A80036; stroke-width: 1.5;" x1="2418" x2="2496" y1="672" y2="672"/><!--class Interfaz--><rect fill="#0000FF" filter="url(#fzxt358jvnsu2)" height="48" id="Interfaz" style="stroke: #A80036; stroke-width: 1.5;" width="71" x="1423.5" y="400"/><rect fill="#0000FF" height="32" style="stroke: #A80036; stroke-width: 1.5;" width="71" x="1423.5" y="400"/><ellipse cx="1438.5" cy="416" fill="#ADD1B2" rx="11" ry="11" style="stroke: #A80036; stroke-width: 1.0;"/><path d="M1441.2656,411.875 Q1441.4219,411.6563 1441.6094,411.5469 Q1441.7969,411.4375 1442.0156,411.4375 Q1442.3906,411.4375 1442.625,411.6953 Q1442.8594,411.9531 1442.8594,412.5625 L1442.8594,414.0156 Q1442.8594,414.625 1442.625,414.8906 Q1442.3906,415.1563 1442.0156,415.1563 Q1441.6719,415.1563 1441.4688,414.9531 Q1441.2656,414.7656 1441.1563,414.25 Q1441.1094,413.8906 1440.9219,413.7031 Q1440.5938,413.3281 1439.9844,413.1094 Q1439.375,412.8906 1438.75,412.8906 Q1437.9844,412.8906 1437.3516,413.2188 Q1436.7188,413.5469 1436.2266,414.2969 Q1435.7344,415.0469 1435.7344,416.0781 L1435.7344,417.1719 Q1435.7344,418.4063 1436.625,419.2266 Q1437.5156,420.0469 1439.1094,420.0469 Q1440.0469,420.0469 1440.7031,419.7969 Q1441.0938,419.6406 1441.5156,419.2031 Q1441.7813,418.9375 1441.9297,418.8594 Q1442.0781,418.7813 1442.2813,418.7813 Q1442.6094,418.7813 1442.8672,419.0391 Q1443.125,419.2969 1443.125,419.6406 Q1443.125,419.9844 1442.7813,420.3906 Q1442.2813,420.9688 1441.4844,421.2969 Q1440.4063,421.75 1439.1094,421.75 Q1437.5938,421.75 1436.3906,421.125 Q1435.4063,420.625 1434.7188,419.5547 Q1434.0313,418.4844 1434.0313,417.2031 L1434.0313,416.0469 Q1434.0313,414.7188 1434.6484,413.5703 Q1435.2656,412.4219 1436.3594,411.8047 Q1437.4531,411.1875 1438.6875,411.1875 Q1439.4219,411.1875 1440.0703,411.3516 Q1440.7188,411.5156 1441.2656,411.875 Z "/><text fill="#000000" font-family="sans-serif" font-size="12" lengthAdjust="spacingAndGlyphs" textLength="39" x="1452.5" y="420.9102">Interfaz</text><line style="stroke: #A80036; stroke-width: 1.5;" x1="1424.5" x2="1493.5" y1="432" y2="432"/><line style="stroke: #A80036; stroke-width: 1.5;" x1="1424.5" x2="1493.5" y1="440" y2="440"/><!--class Implementacion--><rect fill="#0000FF" filter="url(#fzxt358jvnsu2)" height="48" id="Implementacion" style="stroke: #A80036; stroke-width: 1.5;" width="121" x="1423.5" y="508"/><rect fill="#0000FF" height="32" style="stroke: #A80036; stroke-width: 1.5;" width="121" x="1423.5" y="508"/><ellipse cx="1438.5" cy="524" fill="#ADD1B2" rx="11" ry="11" style="stroke: #A80036; stroke-width: 1.0;"/><path d="M1441.2656,519.875 Q1441.4219,519.6563 1441.6094,519.5469 Q1441.7969,519.4375 1442.0156,519.4375 Q1442.3906,519.4375 1442.625,519.6953 Q1442.8594,519.9531 1442.8594,520.5625 L1442.8594,522.0156 Q1442.8594,522.625 1442.625,522.8906 Q1442.3906,523.1563 1442.0156,523.1563 Q1441.6719,523.1563 1441.4688,522.9531 Q1441.2656,522.7656 1441.1563,522.25 Q1441.1094,521.8906 1440.9219,521.7031 Q1440.5938,521.3281 1439.9844,521.1094 Q1439.375,520.8906 1438.75,520.8906 Q1437.9844,520.8906 1437.3516,521.2188 Q1436.7188,521.5469 1436.2266,522.2969 Q1435.7344,523.0469 1435.7344,524.0781 L1435.7344,525.1719 Q1435.7344,526.4063 1436.625,527.2266 Q1437.5156,528.0469 1439.1094,528.0469 Q1440.0469,528.0469 1440.7031,527.7969 Q1441.0938,527.6406 1441.5156,527.2031 Q1441.7813,526.9375 1441.9297,526.8594 Q1442.0781,526.7813 1442.2813,526.7813 Q1442.6094,526.7813 1442.8672,527.0391 Q1443.125,527.2969 1443.125,527.6406 Q1443.125,527.9844 1442.7813,528.3906 Q1442.2813,528.9688 1441.4844,529.2969 Q1440.4063,529.75 1439.1094,529.75 Q1437.5938,529.75 1436.3906,529.125 Q1435.4063,528.625 1434.7188,527.5547 Q1434.0313,526.4844 1434.0313,525.2031 L1434.0313,524.0469 Q1434.0313,522.7188 1434.6484,521.5703 Q1435.2656,520.4219 1436.3594,519.8047 Q1437.4531,519.1875 1438.6875,519.1875 Q1439.4219,519.1875 1440.0703,519.3516 Q1440.7188,519.5156 1441.2656,519.875 Z "/><text fill="#000000" font-family="sans-serif" font-size="12" lengthAdjust="spacingAndGlyphs" textLength="89" x="1452.5" y="528.9102">Implementación</text><line style="stroke: #A80036; stroke-width: 1.5;" x1="1424.5" x2="1543.5" y1="540" y2="540"/><line style="stroke: #A80036; stroke-width: 1.5;" x1="1424.5" x2="1543.5" y1="548" y2="548"/><!--class Acoplamiento--><rect fill="#0000FF" filter="url(#fzxt358jvnsu2)" height="48" id="Acoplamiento" style="stroke: #A80036; stroke-width: 1.5;" width="107" x="1529.5" y="400"/><rect fill="#0000FF" height="32" style="stroke: #A80036; stroke-width: 1.5;" width="107" x="1529.5" y="400"/><ellipse cx="1544.5" cy="416" fill="#ADD1B2" rx="11" ry="11" style="stroke: #A80036; stroke-width: 1.0;"/><path d="M1547.2656,411.875 Q1547.4219,411.6563 1547.6094,411.5469 Q1547.7969,411.4375 1548.0156,411.4375 Q1548.3906,411.4375 1548.625,411.6953 Q1548.8594,411.9531 1548.8594,412.5625 L1548.8594,414.0156 Q1548.8594,414.625 1548.625,414.8906 Q1548.3906,415.1563 1548.0156,415.1563 Q1547.6719,415.1563 1547.4688,414.9531 Q1547.2656,414.7656 1547.1563,414.25 Q1547.1094,413.8906 1546.9219,413.7031 Q1546.5938,413.3281 1545.9844,413.1094 Q1545.375,412.8906 1544.75,412.8906 Q1543.9844,412.8906 1543.3516,413.2188 Q1542.7188,413.5469 1542.2266,414.2969 Q1541.7344,415.0469 1541.7344,416.0781 L1541.7344,417.1719 Q1541.7344,418.4063 1542.625,419.2266 Q1543.5156,420.0469 1545.1094,420.0469 Q1546.0469,420.0469 1546.7031,419.7969 Q1547.0938,419.6406 1547.5156,419.2031 Q1547.7813,418.9375 1547.9297,418.8594 Q1548.0781,418.7813 1548.2813,418.7813 Q1548.6094,418.7813 1548.8672,419.0391 Q1549.125,419.2969 1549.125,419.6406 Q1549.125,419.9844 1548.7813,420.3906 Q1548.2813,420.9688 1547.4844,421.2969 Q1546.4063,421.75 1545.1094,421.75 Q1543.5938,421.75 1542.3906,421.125 Q1541.4063,420.625 1540.7188,419.5547 Q1540.0313,418.4844 1540.0313,417.2031 L1540.0313,416.0469 Q1540.0313,414.7188 1540.6484,413.5703 Q1541.2656,412.4219 1542.3594,411.8047 Q1543.4531,411.1875 1544.6875,411.1875 Q1545.4219,411.1875 1546.0703,411.3516 Q1546.7188,411.5156 1547.2656,411.875 Z "/><text fill="#000000" font-family="sans-serif" font-size="12" lengthAdjust="spacingAndGlyphs" textLength="75" x="1558.5" y="420.9102">Acoplamiento</text><line style="stroke: #A80036; stroke-width: 1.5;" x1="1530.5" x2="1635.5" y1="432" y2="432"/><line style="stroke: #A80036; stroke-width: 1.5;" x1="1530.5" x2="1635.5" y1="440" y2="440"/><!--class Cohesion--><rect fill="#0000FF" filter="url(#fzxt358jvnsu2)" height="48" id="Cohesion" style="stroke: #A80036; stroke-width: 1.5;" width="86" x="1672" y="400"/><rect fill="#0000FF" height="32" style="stroke: #A80036; stroke-width: 1.5;" width="86" x="1672" y="400"/><ellipse cx="1687" cy="416" fill="#ADD1B2" rx="11" ry="11" style="stroke: #A80036; stroke-width: 1.0;"/><path d="M1689.7656,411.875 Q1689.9219,411.6563 1690.1094,411.5469 Q1690.2969,411.4375 1690.5156,411.4375 Q1690.8906,411.4375 1691.125,411.6953 Q1691.3594,411.9531 1691.3594,412.5625 L1691.3594,414.0156 Q1691.3594,414.625 1691.125,414.8906 Q1690.8906,415.1563 1690.5156,415.1563 Q1690.1719,415.1563 1689.9688,414.9531 Q1689.7656,414.7656 1689.6563,414.25 Q1689.6094,413.8906 1689.4219,413.7031 Q1689.0938,413.3281 1688.4844,413.1094 Q1687.875,412.8906 1687.25,412.8906 Q1686.4844,412.8906 1685.8516,413.2188 Q1685.2188,413.5469 1684.7266,414.2969 Q1684.2344,415.0469 1684.2344,416.0781 L1684.2344,417.1719 Q1684.2344,418.4063 1685.125,419.2266 Q1686.0156,420.0469 1687.6094,420.0469 Q1688.5469,420.0469 1689.2031,419.7969 Q1689.5938,419.6406 1690.0156,419.2031 Q1690.2813,418.9375 1690.4297,418.8594 Q1690.5781,418.7813 1690.7813,418.7813 Q1691.1094,418.7813 1691.3672,419.0391 Q1691.625,419.2969 1691.625,419.6406 Q1691.625,419.9844 1691.2813,420.3906 Q1690.7813,420.9688 1689.9844,421.2969 Q1688.9063,421.75 1687.6094,421.75 Q1686.0938,421.75 1684.8906,421.125 Q1683.9063,420.625 1683.2188,419.5547 Q1682.5313,418.4844 1682.5313,417.2031 L1682.5313,416.0469 Q1682.5313,414.7188 1683.1484,413.5703 Q1683.7656,412.4219 1684.8594,411.8047 Q1685.9531,411.1875 1687.1875,411.1875 Q1687.9219,411.1875 1688.5703,411.3516 Q1689.2188,411.5156 1689.7656,411.875 Z "/><text fill="#000000" font-family="sans-serif" font-size="12" lengthAdjust="spacingAndGlyphs" textLength="54" x="1701" y="420.9102">Cohesión</text><line style="stroke: #A80036; stroke-width: 1.5;" x1="1673" x2="1757" y1="432" y2="432"/><line style="stroke: #A80036; stroke-width: 1.5;" x1="1673" x2="1757" y1="440" y2="440"/><!--class TipoElemento--><rect fill="#FFA500" filter="url(#fzxt358jvnsu2)" height="48" id="TipoElemento" style="stroke: #A80036; stroke-width: 1.5;" width="172" x="1195" y="292"/><rect fill="#FFA500" height="32" style="stroke: #A80036; stroke-width: 1.5;" width="172" x="1195" y="292"/><ellipse cx="1210" cy="308" fill="#ADD1B2" rx="11" ry="11" style="stroke: #A80036; stroke-width: 1.0;"/><path d="M1212.7656,303.875 Q1212.9219,303.6563 1213.1094,303.5469 Q1213.2969,303.4375 1213.5156,303.4375 Q1213.8906,303.4375 1214.125,303.6953 Q1214.3594,303.9531 1214.3594,304.5625 L1214.3594,306.0156 Q1214.3594,306.625 1214.125,306.8906 Q1213.8906,307.1563 1213.5156,307.1563 Q1213.1719,307.1563 1212.9688,306.9531 Q1212.7656,306.7656 1212.6563,306.25 Q1212.6094,305.8906 1212.4219,305.7031 Q1212.0938,305.3281 1211.4844,305.1094 Q1210.875,304.8906 1210.25,304.8906 Q1209.4844,304.8906 1208.8516,305.2188 Q1208.2188,305.5469 1207.7266,306.2969 Q1207.2344,307.0469 1207.2344,308.0781 L1207.2344,309.1719 Q1207.2344,310.4063 1208.125,311.2266 Q1209.0156,312.0469 1210.6094,312.0469 Q1211.5469,312.0469 1212.2031,311.7969 Q1212.5938,311.6406 1213.0156,311.2031 Q1213.2813,310.9375 1213.4297,310.8594 Q1213.5781,310.7813 1213.7813,310.7813 Q1214.1094,310.7813 1214.3672,311.0391 Q1214.625,311.2969 1214.625,311.6406 Q1214.625,311.9844 1214.2813,312.3906 Q1213.7813,312.9688 1212.9844,313.2969 Q1211.9063,313.75 1210.6094,313.75 Q1209.0938,313.75 1207.8906,313.125 Q1206.9063,312.625 1206.2188,311.5547 Q1205.5313,310.4844 1205.5313,309.2031 L1205.5313,308.0469 Q1205.5313,306.7188 1206.1484,305.5703 Q1206.7656,304.4219 1207.8594,303.8047 Q1208.9531,303.1875 1210.1875,303.1875 Q1210.9219,303.1875 1211.5703,303.3516 Q1212.2188,303.5156 1212.7656,303.875 Z "/><text fill="#000000" font-family="sans-serif" font-size="12" lengthAdjust="spacingAndGlyphs" textLength="140" x="1224" y="312.9102">Tipo de Elemento/Modulo</text><line style="stroke: #A80036; stroke-width: 1.5;" x1="1196" x2="1366" y1="324" y2="324"/><line style="stroke: #A80036; stroke-width: 1.5;" x1="1196" x2="1366" y1="332" y2="332"/><!--class Relacion--><rect fill="#FFA500" filter="url(#fzxt358jvnsu2)" height="48" id="Relacion" style="stroke: #A80036; stroke-width: 1.5;" width="81" x="1054.5" y="168"/><rect fill="#FFA500" height="32" style="stroke: #A80036; stroke-width: 1.5;" width="81" x="1054.5" y="168"/><ellipse cx="1069.5" cy="184" fill="#ADD1B2" rx="11" ry="11" style="stroke: #A80036; stroke-width: 1.0;"/><path d="M1072.2656,179.875 Q1072.4219,179.6563 1072.6094,179.5469 Q1072.7969,179.4375 1073.0156,179.4375 Q1073.3906,179.4375 1073.625,179.6953 Q1073.8594,179.9531 1073.8594,180.5625 L1073.8594,182.0156 Q1073.8594,182.625 1073.625,182.8906 Q1073.3906,183.1563 1073.0156,183.1563 Q1072.6719,183.1563 1072.4688,182.9531 Q1072.2656,182.7656 1072.1563,182.25 Q1072.1094,181.8906 1071.9219,181.7031 Q1071.5938,181.3281 1070.9844,181.1094 Q1070.375,180.8906 1069.75,180.8906 Q1068.9844,180.8906 1068.3516,181.2188 Q1067.7188,181.5469 1067.2266,182.2969 Q1066.7344,183.0469 1066.7344,184.0781 L1066.7344,185.1719 Q1066.7344,186.4063 1067.625,187.2266 Q1068.5156,188.0469 1070.1094,188.0469 Q1071.0469,188.0469 1071.7031,187.7969 Q1072.0938,187.6406 1072.5156,187.2031 Q1072.7813,186.9375 1072.9297,186.8594 Q1073.0781,186.7813 1073.2813,186.7813 Q1073.6094,186.7813 1073.8672,187.0391 Q1074.125,187.2969 1074.125,187.6406 Q1074.125,187.9844 1073.7813,188.3906 Q1073.2813,188.9688 1072.4844,189.2969 Q1071.4063,189.75 1070.1094,189.75 Q1068.5938,189.75 1067.3906,189.125 Q1066.4063,188.625 1065.7188,187.5547 Q1065.0313,186.4844 1065.0313,185.2031 L1065.0313,184.0469 Q1065.0313,182.7188 1065.6484,181.5703 Q1066.2656,180.4219 1067.3594,179.8047 Q1068.4531,179.1875 1069.6875,179.1875 Q1070.4219,179.1875 1071.0703,179.3516 Q1071.7188,179.5156 1072.2656,179.875 Z "/><text fill="#000000" font-family="sans-serif" font-size="12" lengthAdjust="spacingAndGlyphs" textLength="49" x="1083.5" y="188.9102">Relación</text><line style="stroke: #A80036; stroke-width: 1.5;" x1="1055.5" x2="1134.5" y1="200" y2="200"/><line style="stroke: #A80036; stroke-width: 1.5;" x1="1055.5" x2="1134.5" y1="208" y2="208"/><!--class Elemento--><rect fill="#FFA500" filter="url(#fzxt358jvnsu2)" height="48" id="Elemento" style="stroke: #A80036; stroke-width: 1.5;" width="128" x="1056" y="400"/><rect fill="#FFA500" height="32" style="stroke: #A80036; stroke-width: 1.5;" width="128" x="1056" y="400"/><ellipse cx="1071" cy="416" fill="#ADD1B2" rx="11" ry="11" style="stroke: #A80036; stroke-width: 1.0;"/><path d="M1073.7656,411.875 Q1073.9219,411.6563 1074.1094,411.5469 Q1074.2969,411.4375 1074.5156,411.4375 Q1074.8906,411.4375 1075.125,411.6953 Q1075.3594,411.9531 1075.3594,412.5625 L1075.3594,414.0156 Q1075.3594,414.625 1075.125,414.8906 Q1074.8906,415.1563 1074.5156,415.1563 Q1074.1719,415.1563 1073.9688,414.9531 Q1073.7656,414.7656 1073.6563,414.25 Q1073.6094,413.8906 1073.4219,413.7031 Q1073.0938,413.3281 1072.4844,413.1094 Q1071.875,412.8906 1071.25,412.8906 Q1070.4844,412.8906 1069.8516,413.2188 Q1069.2188,413.5469 1068.7266,414.2969 Q1068.2344,415.0469 1068.2344,416.0781 L1068.2344,417.1719 Q1068.2344,418.4063 1069.125,419.2266 Q1070.0156,420.0469 1071.6094,420.0469 Q1072.5469,420.0469 1073.2031,419.7969 Q1073.5938,419.6406 1074.0156,419.2031 Q1074.2813,418.9375 1074.4297,418.8594 Q1074.5781,418.7813 1074.7813,418.7813 Q1075.1094,418.7813 1075.3672,419.0391 Q1075.625,419.2969 1075.625,419.6406 Q1075.625,419.9844 1075.2813,420.3906 Q1074.7813,420.9688 1073.9844,421.2969 Q1072.9063,421.75 1071.6094,421.75 Q1070.0938,421.75 1068.8906,421.125 Q1067.9063,420.625 1067.2188,419.5547 Q1066.5313,418.4844 1066.5313,417.2031 L1066.5313,416.0469 Q1066.5313,414.7188 1067.1484,413.5703 Q1067.7656,412.4219 1068.8594,411.8047 Q1069.9531,411.1875 1071.1875,411.1875 Q1071.9219,411.1875 1072.5703,411.3516 Q1073.2188,411.5156 1073.7656,411.875 Z "/><text fill="#000000" font-family="sans-serif" font-size="12" lengthAdjust="spacingAndGlyphs" textLength="96" x="1085" y="420.9102">Elemento/Módulo</text><line style="stroke: #A80036; stroke-width: 1.5;" x1="1057" x2="1183" y1="432" y2="432"/><line style="stroke: #A80036; stroke-width: 1.5;" x1="1057" x2="1183" y1="440" y2="440"/><!--class Colaboracion--><rect fill="#FFA500" filter="url(#fzxt358jvnsu2)" height="48" id="Colaboracion" style="stroke: #A80036; stroke-width: 1.5;" width="106" x="1017" y="292"/><rect fill="#FFA500" height="32" style="stroke: #A80036; stroke-width: 1.5;" width="106" x="1017" y="292"/><ellipse cx="1032" cy="308" fill="#ADD1B2" rx="11" ry="11" style="stroke: #A80036; stroke-width: 1.0;"/><path d="M1034.7656,303.875 Q1034.9219,303.6563 1035.1094,303.5469 Q1035.2969,303.4375 1035.5156,303.4375 Q1035.8906,303.4375 1036.125,303.6953 Q1036.3594,303.9531 1036.3594,304.5625 L1036.3594,306.0156 Q1036.3594,306.625 1036.125,306.8906 Q1035.8906,307.1563 1035.5156,307.1563 Q1035.1719,307.1563 1034.9688,306.9531 Q1034.7656,306.7656 1034.6563,306.25 Q1034.6094,305.8906 1034.4219,305.7031 Q1034.0938,305.3281 1033.4844,305.1094 Q1032.875,304.8906 1032.25,304.8906 Q1031.4844,304.8906 1030.8516,305.2188 Q1030.2188,305.5469 1029.7266,306.2969 Q1029.2344,307.0469 1029.2344,308.0781 L1029.2344,309.1719 Q1029.2344,310.4063 1030.125,311.2266 Q1031.0156,312.0469 1032.6094,312.0469 Q1033.5469,312.0469 1034.2031,311.7969 Q1034.5938,311.6406 1035.0156,311.2031 Q1035.2813,310.9375 1035.4297,310.8594 Q1035.5781,310.7813 1035.7813,310.7813 Q1036.1094,310.7813 1036.3672,311.0391 Q1036.625,311.2969 1036.625,311.6406 Q1036.625,311.9844 1036.2813,312.3906 Q1035.7813,312.9688 1034.9844,313.2969 Q1033.9063,313.75 1032.6094,313.75 Q1031.0938,313.75 1029.8906,313.125 Q1028.9063,312.625 1028.2188,311.5547 Q1027.5313,310.4844 1027.5313,309.2031 L1027.5313,308.0469 Q1027.5313,306.7188 1028.1484,305.5703 Q1028.7656,304.4219 1029.8594,303.8047 Q1030.9531,303.1875 1032.1875,303.1875 Q1032.9219,303.1875 1033.5703,303.3516 Q1034.2188,303.5156 1034.7656,303.875 Z "/><text fill="#000000" font-family="sans-serif" font-size="12" lengthAdjust="spacingAndGlyphs" textLength="74" x="1046" y="312.9102">Colaboración</text><line style="stroke: #A80036; stroke-width: 1.5;" x1="1018" x2="1122" y1="324" y2="324"/><line style="stroke: #A80036; stroke-width: 1.5;" x1="1018" x2="1122" y1="332" y2="332"/><!--class Sistema--><rect fill="#FFA500" filter="url(#fzxt358jvnsu2)" height="48" id="Sistema" style="stroke: #A80036; stroke-width: 1.5;" width="78" x="1056" y="60"/><rect fill="#FFA500" height="32" style="stroke: #A80036; stroke-width: 1.5;" width="78" x="1056" y="60"/><ellipse cx="1071" cy="76" fill="#ADD1B2" rx="11" ry="11" style="stroke: #A80036; stroke-width: 1.0;"/><path d="M1073.7656,71.875 Q1073.9219,71.6563 1074.1094,71.5469 Q1074.2969,71.4375 1074.5156,71.4375 Q1074.8906,71.4375 1075.125,71.6953 Q1075.3594,71.9531 1075.3594,72.5625 L1075.3594,74.0156 Q1075.3594,74.625 1075.125,74.8906 Q1074.8906,75.1563 1074.5156,75.1563 Q1074.1719,75.1563 1073.9688,74.9531 Q1073.7656,74.7656 1073.6563,74.25 Q1073.6094,73.8906 1073.4219,73.7031 Q1073.0938,73.3281 1072.4844,73.1094 Q1071.875,72.8906 1071.25,72.8906 Q1070.4844,72.8906 1069.8516,73.2188 Q1069.2188,73.5469 1068.7266,74.2969 Q1068.2344,75.0469 1068.2344,76.0781 L1068.2344,77.1719 Q1068.2344,78.4063 1069.125,79.2266 Q1070.0156,80.0469 1071.6094,80.0469 Q1072.5469,80.0469 1073.2031,79.7969 Q1073.5938,79.6406 1074.0156,79.2031 Q1074.2813,78.9375 1074.4297,78.8594 Q1074.5781,78.7813 1074.7813,78.7813 Q1075.1094,78.7813 1075.3672,79.0391 Q1075.625,79.2969 1075.625,79.6406 Q1075.625,79.9844 1075.2813,80.3906 Q1074.7813,80.9688 1073.9844,81.2969 Q1072.9063,81.75 1071.6094,81.75 Q1070.0938,81.75 1068.8906,81.125 Q1067.9063,80.625 1067.2188,79.5547 Q1066.5313,78.4844 1066.5313,77.2031 L1066.5313,76.0469 Q1066.5313,74.7188 1067.1484,73.5703 Q1067.7656,72.4219 1068.8594,71.8047 Q1069.9531,71.1875 1071.1875,71.1875 Q1071.9219,71.1875 1072.5703,71.3516 Q1073.2188,71.5156 1073.7656,71.875 Z "/><text fill="#000000" font-family="sans-serif" font-size="12" lengthAdjust="spacingAndGlyphs" textLength="46" x="1085" y="80.9102">Sistema</text><line style="stroke: #A80036; stroke-width: 1.5;" x1="1057" x2="1133" y1="92" y2="92"/><line style="stroke: #A80036; stroke-width: 1.5;" x1="1057" x2="1133" y1="100" y2="100"/><!--class Capacidad--><rect fill="#FF0000" filter="url(#fzxt358jvnsu2)" height="48" id="Capacidad" style="stroke: #A80036; stroke-width: 1.5;" width="131" x="1844.5" y="292"/><rect fill="#FF0000" height="32" style="stroke: #A80036; stroke-width: 1.5;" width="131" x="1844.5" y="292"/><ellipse cx="1859.5" cy="308" fill="#ADD1B2" rx="11" ry="11" style="stroke: #A80036; stroke-width: 1.0;"/><path d="M1862.2656,303.875 Q1862.4219,303.6563 1862.6094,303.5469 Q1862.7969,303.4375 1863.0156,303.4375 Q1863.3906,303.4375 1863.625,303.6953 Q1863.8594,303.9531 1863.8594,304.5625 L1863.8594,306.0156 Q1863.8594,306.625 1863.625,306.8906 Q1863.3906,307.1563 1863.0156,307.1563 Q1862.6719,307.1563 1862.4688,306.9531 Q1862.2656,306.7656 1862.1563,306.25 Q1862.1094,305.8906 1861.9219,305.7031 Q1861.5938,305.3281 1860.9844,305.1094 Q1860.375,304.8906 1859.75,304.8906 Q1858.9844,304.8906 1858.3516,305.2188 Q1857.7188,305.5469 1857.2266,306.2969 Q1856.7344,307.0469 1856.7344,308.0781 L1856.7344,309.1719 Q1856.7344,310.4063 1857.625,311.2266 Q1858.5156,312.0469 1860.1094,312.0469 Q1861.0469,312.0469 1861.7031,311.7969 Q1862.0938,311.6406 1862.5156,311.2031 Q1862.7813,310.9375 1862.9297,310.8594 Q1863.0781,310.7813 1863.2813,310.7813 Q1863.6094,310.7813 1863.8672,311.0391 Q1864.125,311.2969 1864.125,311.6406 Q1864.125,311.9844 1863.7813,312.3906 Q1863.2813,312.9688 1862.4844,313.2969 Q1861.4063,313.75 1860.1094,313.75 Q1858.5938,313.75 1857.3906,313.125 Q1856.4063,312.625 1855.7188,311.5547 Q1855.0313,310.4844 1855.0313,309.2031 L1855.0313,308.0469 Q1855.0313,306.7188 1855.6484,305.5703 Q1856.2656,304.4219 1857.3594,303.8047 Q1858.4531,303.1875 1859.6875,303.1875 Q1860.4219,303.1875 1861.0703,303.3516 Q1861.7188,303.5156 1862.2656,303.875 Z "/><text fill="#000000" font-family="sans-serif" font-size="12" lengthAdjust="spacingAndGlyphs" textLength="99" x="1873.5" y="312.9102">Capacidad Mental</text><line style="stroke: #A80036; stroke-width: 1.5;" x1="1845.5" x2="1974.5" y1="324" y2="324"/><line style="stroke: #A80036; stroke-width: 1.5;" x1="1845.5" x2="1974.5" y1="332" y2="332"/><!--class Limitacion--><rect fill="#FF0000" filter="url(#fzxt358jvnsu2)" height="48" id="Limitacion" style="stroke: #A80036; stroke-width: 1.5;" width="89" x="2095.5" y="508"/><rect fill="#FF0000" height="32" style="stroke: #A80036; stroke-width: 1.5;" width="89" x="2095.5" y="508"/><ellipse cx="2110.5" cy="524" fill="#ADD1B2" rx="11" ry="11" style="stroke: #A80036; stroke-width: 1.0;"/><path d="M2113.2656,519.875 Q2113.4219,519.6563 2113.6094,519.5469 Q2113.7969,519.4375 2114.0156,519.4375 Q2114.3906,519.4375 2114.625,519.6953 Q2114.8594,519.9531 2114.8594,520.5625 L2114.8594,522.0156 Q2114.8594,522.625 2114.625,522.8906 Q2114.3906,523.1563 2114.0156,523.1563 Q2113.6719,523.1563 2113.4688,522.9531 Q2113.2656,522.7656 2113.1563,522.25 Q2113.1094,521.8906 2112.9219,521.7031 Q2112.5938,521.3281 2111.9844,521.1094 Q2111.375,520.8906 2110.75,520.8906 Q2109.9844,520.8906 2109.3516,521.2188 Q2108.7188,521.5469 2108.2266,522.2969 Q2107.7344,523.0469 2107.7344,524.0781 L2107.7344,525.1719 Q2107.7344,526.4063 2108.625,527.2266 Q2109.5156,528.0469 2111.1094,528.0469 Q2112.0469,528.0469 2112.7031,527.7969 Q2113.0938,527.6406 2113.5156,527.2031 Q2113.7813,526.9375 2113.9297,526.8594 Q2114.0781,526.7813 2114.2813,526.7813 Q2114.6094,526.7813 2114.8672,527.0391 Q2115.125,527.2969 2115.125,527.6406 Q2115.125,527.9844 2114.7813,528.3906 Q2114.2813,528.9688 2113.4844,529.2969 Q2112.4063,529.75 2111.1094,529.75 Q2109.5938,529.75 2108.3906,529.125 Q2107.4063,528.625 2106.7188,527.5547 Q2106.0313,526.4844 2106.0313,525.2031 L2106.0313,524.0469 Q2106.0313,522.7188 2106.6484,521.5703 Q2107.2656,520.4219 2108.3594,519.8047 Q2109.4531,519.1875 2110.6875,519.1875 Q2111.4219,519.1875 2112.0703,519.3516 Q2112.7188,519.5156 2113.2656,519.875 Z "/><text fill="#000000" font-family="sans-serif" font-size="12" lengthAdjust="spacingAndGlyphs" textLength="57" x="2124.5" y="528.9102">Limitación</text><line style="stroke: #A80036; stroke-width: 1.5;" x1="2096.5" x2="2183.5" y1="540" y2="540"/><line style="stroke: #A80036; stroke-width: 1.5;" x1="2096.5" x2="2183.5" y1="548" y2="548"/><!--class CapacidadCuantitativa--><rect fill="#FF0000" filter="url(#fzxt358jvnsu2)" height="48" id="CapacidadCuantitativa" style="stroke: #A80036; stroke-width: 1.5;" width="198" x="2041" y="400"/><rect fill="#FF0000" height="32" style="stroke: #A80036; stroke-width: 1.5;" width="198" x="2041" y="400"/><ellipse cx="2056" cy="416" fill="#ADD1B2" rx="11" ry="11" style="stroke: #A80036; stroke-width: 1.0;"/><path d="M2058.7656,411.875 Q2058.9219,411.6563 2059.1094,411.5469 Q2059.2969,411.4375 2059.5156,411.4375 Q2059.8906,411.4375 2060.125,411.6953 Q2060.3594,411.9531 2060.3594,412.5625 L2060.3594,414.0156 Q2060.3594,414.625 2060.125,414.8906 Q2059.8906,415.1563 2059.5156,415.1563 Q2059.1719,415.1563 2058.9688,414.9531 Q2058.7656,414.7656 2058.6563,414.25 Q2058.6094,413.8906 2058.4219,413.7031 Q2058.0938,413.3281 2057.4844,413.1094 Q2056.875,412.8906 2056.25,412.8906 Q2055.4844,412.8906 2054.8516,413.2188 Q2054.2188,413.5469 2053.7266,414.2969 Q2053.2344,415.0469 2053.2344,416.0781 L2053.2344,417.1719 Q2053.2344,418.4063 2054.125,419.2266 Q2055.0156,420.0469 2056.6094,420.0469 Q2057.5469,420.0469 2058.2031,419.7969 Q2058.5938,419.6406 2059.0156,419.2031 Q2059.2813,418.9375 2059.4297,418.8594 Q2059.5781,418.7813 2059.7813,418.7813 Q2060.1094,418.7813 2060.3672,419.0391 Q2060.625,419.2969 2060.625,419.6406 Q2060.625,419.9844 2060.2813,420.3906 Q2059.7813,420.9688 2058.9844,421.2969 Q2057.9063,421.75 2056.6094,421.75 Q2055.0938,421.75 2053.8906,421.125 Q2052.9063,420.625 2052.2188,419.5547 Q2051.5313,418.4844 2051.5313,417.2031 L2051.5313,416.0469 Q2051.5313,414.7188 2052.1484,413.5703 Q2052.7656,412.4219 2053.8594,411.8047 Q2054.9531,411.1875 2056.1875,411.1875 Q2056.9219,411.1875 2057.5703,411.3516 Q2058.2188,411.5156 2058.7656,411.875 Z "/><text fill="#000000" font-family="sans-serif" font-size="12" lengthAdjust="spacingAndGlyphs" textLength="166" x="2070" y="420.9102">Capacidad Mental Cuantitativa</text><line style="stroke: #A80036; stroke-width: 1.5;" x1="2042" x2="2238" y1="432" y2="432"/><line style="stroke: #A80036; stroke-width: 1.5;" x1="2042" x2="2238" y1="440" y2="440"/><!--class MagicoMiller--><rect fill="#FF0000" filter="url(#fzxt358jvnsu2)" height="48" id="MagicoMiller" style="stroke: #A80036; stroke-width: 1.5;" width="168" x="2190" y="632"/><rect fill="#FF0000" height="32" style="stroke: #A80036; stroke-width: 1.5;" width="168" x="2190" y="632"/><ellipse cx="2205" cy="648" fill="#ADD1B2" rx="11" ry="11" style="stroke: #A80036; stroke-width: 1.0;"/><path d="M2207.7656,643.875 Q2207.9219,643.6563 2208.1094,643.5469 Q2208.2969,643.4375 2208.5156,643.4375 Q2208.8906,643.4375 2209.125,643.6953 Q2209.3594,643.9531 2209.3594,644.5625 L2209.3594,646.0156 Q2209.3594,646.625 2209.125,646.8906 Q2208.8906,647.1563 2208.5156,647.1563 Q2208.1719,647.1563 2207.9688,646.9531 Q2207.7656,646.7656 2207.6563,646.25 Q2207.6094,645.8906 2207.4219,645.7031 Q2207.0938,645.3281 2206.4844,645.1094 Q2205.875,644.8906 2205.25,644.8906 Q2204.4844,644.8906 2203.8516,645.2188 Q2203.2188,645.5469 2202.7266,646.2969 Q2202.2344,647.0469 2202.2344,648.0781 L2202.2344,649.1719 Q2202.2344,650.4063 2203.125,651.2266 Q2204.0156,652.0469 2205.6094,652.0469 Q2206.5469,652.0469 2207.2031,651.7969 Q2207.5938,651.6406 2208.0156,651.2031 Q2208.2813,650.9375 2208.4297,650.8594 Q2208.5781,650.7813 2208.7813,650.7813 Q2209.1094,650.7813 2209.3672,651.0391 Q2209.625,651.2969 2209.625,651.6406 Q2209.625,651.9844 2209.2813,652.3906 Q2208.7813,652.9688 2207.9844,653.2969 Q2206.9063,653.75 2205.6094,653.75 Q2204.0938,653.75 2202.8906,653.125 Q2201.9063,652.625 2201.2188,651.5547 Q2200.5313,650.4844 2200.5313,649.2031 L2200.5313,648.0469 Q2200.5313,646.7188 2201.1484,645.5703 Q2201.7656,644.4219 2202.8594,643.8047 Q2203.9531,643.1875 2205.1875,643.1875 Q2205.9219,643.1875 2206.5703,643.3516 Q2207.2188,643.5156 2207.7656,643.875 Z "/><text fill="#000000" font-family="sans-serif" font-size="12" lengthAdjust="spacingAndGlyphs" textLength="136" x="2219" y="652.9102">Número Mágico de Miller</text><line style="stroke: #A80036; stroke-width: 1.5;" x1="2191" x2="2357" y1="664" y2="664"/><line style="stroke: #A80036; stroke-width: 1.5;" x1="2191" x2="2357" y1="672" y2="672"/><!--class EnfoqueVisual--><rect fill="#FF0000" filter="url(#fzxt358jvnsu2)" height="48" id="EnfoqueVisual" style="stroke: #A80036; stroke-width: 1.5;" width="115" x="1963.5" y="632"/><rect fill="#FF0000" height="32" style="stroke: #A80036; stroke-width: 1.5;" width="115" x="1963.5" y="632"/><ellipse cx="1978.5" cy="648" fill="#ADD1B2" rx="11" ry="11" style="stroke: #A80036; stroke-width: 1.0;"/><path d="M1981.2656,643.875 Q1981.4219,643.6563 1981.6094,643.5469 Q1981.7969,643.4375 1982.0156,643.4375 Q1982.3906,643.4375 1982.625,643.6953 Q1982.8594,643.9531 1982.8594,644.5625 L1982.8594,646.0156 Q1982.8594,646.625 1982.625,646.8906 Q1982.3906,647.1563 1982.0156,647.1563 Q1981.6719,647.1563 1981.4688,646.9531 Q1981.2656,646.7656 1981.1563,646.25 Q1981.1094,645.8906 1980.9219,645.7031 Q1980.5938,645.3281 1979.9844,645.1094 Q1979.375,644.8906 1978.75,644.8906 Q1977.9844,644.8906 1977.3516,645.2188 Q1976.7188,645.5469 1976.2266,646.2969 Q1975.7344,647.0469 1975.7344,648.0781 L1975.7344,649.1719 Q1975.7344,650.4063 1976.625,651.2266 Q1977.5156,652.0469 1979.1094,652.0469 Q1980.0469,652.0469 1980.7031,651.7969 Q1981.0938,651.6406 1981.5156,651.2031 Q1981.7813,650.9375 1981.9297,650.8594 Q1982.0781,650.7813 1982.2813,650.7813 Q1982.6094,650.7813 1982.8672,651.0391 Q1983.125,651.2969 1983.125,651.6406 Q1983.125,651.9844 1982.7813,652.3906 Q1982.2813,652.9688 1981.4844,653.2969 Q1980.4063,653.75 1979.1094,653.75 Q1977.5938,653.75 1976.3906,653.125 Q1975.4063,652.625 1974.7188,651.5547 Q1974.0313,650.4844 1974.0313,649.2031 L1974.0313,648.0469 Q1974.0313,646.7188 1974.6484,645.5703 Q1975.2656,644.4219 1976.3594,643.8047 Q1977.4531,643.1875 1978.6875,643.1875 Q1979.4219,643.1875 1980.0703,643.3516 Q1980.7188,643.5156 1981.2656,643.875 Z "/><text fill="#000000" font-family="sans-serif" font-size="12" lengthAdjust="spacingAndGlyphs" textLength="83" x="1992.5" y="652.9102">Enfoque Visual</text><line style="stroke: #A80036; stroke-width: 1.5;" x1="1964.5" x2="2077.5" y1="664" y2="664"/><line style="stroke: #A80036; stroke-width: 1.5;" x1="1964.5" x2="2077.5" y1="672" y2="672"/><!--class X--><rect fill="#FF0000" filter="url(#fzxt358jvnsu2)" height="48" id="X" style="stroke: #A80036; stroke-width: 1.5;" width="41" x="2113.5" y="632"/><rect fill="#FF0000" height="32" style="stroke: #A80036; stroke-width: 1.5;" width="41" x="2113.5" y="632"/><ellipse cx="2128.5" cy="648" fill="#ADD1B2" rx="11" ry="11" style="stroke: #A80036; stroke-width: 1.0;"/><path d="M2131.2656,643.875 Q2131.4219,643.6563 2131.6094,643.5469 Q2131.7969,643.4375 2132.0156,643.4375 Q2132.3906,643.4375 2132.625,643.6953 Q2132.8594,643.9531 2132.8594,644.5625 L2132.8594,646.0156 Q2132.8594,646.625 2132.625,646.8906 Q2132.3906,647.1563 2132.0156,647.1563 Q2131.6719,647.1563 2131.4688,646.9531 Q2131.2656,646.7656 2131.1563,646.25 Q2131.1094,645.8906 2130.9219,645.7031 Q2130.5938,645.3281 2129.9844,645.1094 Q2129.375,644.8906 2128.75,644.8906 Q2127.9844,644.8906 2127.3516,645.2188 Q2126.7188,645.5469 2126.2266,646.2969 Q2125.7344,647.0469 2125.7344,648.0781 L2125.7344,649.1719 Q2125.7344,650.4063 2126.625,651.2266 Q2127.5156,652.0469 2129.1094,652.0469 Q2130.0469,652.0469 2130.7031,651.7969 Q2131.0938,651.6406 2131.5156,651.2031 Q2131.7813,650.9375 2131.9297,650.8594 Q2132.0781,650.7813 2132.2813,650.7813 Q2132.6094,650.7813 2132.8672,651.0391 Q2133.125,651.2969 2133.125,651.6406 Q2133.125,651.9844 2132.7813,652.3906 Q2132.2813,652.9688 2131.4844,653.2969 Q2130.4063,653.75 2129.1094,653.75 Q2127.5938,653.75 2126.3906,653.125 Q2125.4063,652.625 2124.7188,651.5547 Q2124.0313,650.4844 2124.0313,649.2031 L2124.0313,648.0469 Q2124.0313,646.7188 2124.6484,645.5703 Q2125.2656,644.4219 2126.3594,643.8047 Q2127.4531,643.1875 2128.6875,643.1875 Q2129.4219,643.1875 2130.0703,643.3516 Q2130.7188,643.5156 2131.2656,643.875 Z "/><text fill="#000000" font-family="sans-serif" font-size="12" lengthAdjust="spacingAndGlyphs" textLength="9" x="2142.5" y="652.9102">...</text><line style="stroke: #A80036; stroke-width: 1.5;" x1="2114.5" x2="2153.5" y1="664" y2="664"/><line style="stroke: #A80036; stroke-width: 1.5;" x1="2114.5" x2="2153.5" y1="672" y2="672"/><!--class CapacidadCualitativa--><rect fill="#FF0000" filter="url(#fzxt358jvnsu2)" height="48" id="CapacidadCualitativa" style="stroke: #A80036; stroke-width: 1.5;" width="191" x="1814.5" y="400"/><rect fill="#FF0000" height="32" style="stroke: #A80036; stroke-width: 1.5;" width="191" x="1814.5" y="400"/><ellipse cx="1829.5" cy="416" fill="#ADD1B2" rx="11" ry="11" style="stroke: #A80036; stroke-width: 1.0;"/><path d="M1832.2656,411.875 Q1832.4219,411.6563 1832.6094,411.5469 Q1832.7969,411.4375 1833.0156,411.4375 Q1833.3906,411.4375 1833.625,411.6953 Q1833.8594,411.9531 1833.8594,412.5625 L1833.8594,414.0156 Q1833.8594,414.625 1833.625,414.8906 Q1833.3906,415.1563 1833.0156,415.1563 Q1832.6719,415.1563 1832.4688,414.9531 Q1832.2656,414.7656 1832.1563,414.25 Q1832.1094,413.8906 1831.9219,413.7031 Q1831.5938,413.3281 1830.9844,413.1094 Q1830.375,412.8906 1829.75,412.8906 Q1828.9844,412.8906 1828.3516,413.2188 Q1827.7188,413.5469 1827.2266,414.2969 Q1826.7344,415.0469 1826.7344,416.0781 L1826.7344,417.1719 Q1826.7344,418.4063 1827.625,419.2266 Q1828.5156,420.0469 1830.1094,420.0469 Q1831.0469,420.0469 1831.7031,419.7969 Q1832.0938,419.6406 1832.5156,419.2031 Q1832.7813,418.9375 1832.9297,418.8594 Q1833.0781,418.7813 1833.2813,418.7813 Q1833.6094,418.7813 1833.8672,419.0391 Q1834.125,419.2969 1834.125,419.6406 Q1834.125,419.9844 1833.7813,420.3906 Q1833.2813,420.9688 1832.4844,421.2969 Q1831.4063,421.75 1830.1094,421.75 Q1828.5938,421.75 1827.3906,421.125 Q1826.4063,420.625 1825.7188,419.5547 Q1825.0313,418.4844 1825.0313,417.2031 L1825.0313,416.0469 Q1825.0313,414.7188 1825.6484,413.5703 Q1826.2656,412.4219 1827.3594,411.8047 Q1828.4531,411.1875 1829.6875,411.1875 Q1830.4219,411.1875 1831.0703,411.3516 Q1831.7188,411.5156 1832.2656,411.875 Z "/><text fill="#000000" font-family="sans-serif" font-size="12" lengthAdjust="spacingAndGlyphs" textLength="159" x="1843.5" y="420.9102">Capacidad Mental Cualitativa</text><line style="stroke: #A80036; stroke-width: 1.5;" x1="1815.5" x2="2004.5" y1="432" y2="432"/><line style="stroke: #A80036; stroke-width: 1.5;" x1="1815.5" x2="2004.5" y1="440" y2="440"/><!--class Abstraccion--><rect fill="#FF0000" filter="url(#fzxt358jvnsu2)" height="48" id="Abstraccion" style="stroke: #A80036; stroke-width: 1.5;" width="96" x="1963" y="740"/><rect fill="#FF0000" height="32" style="stroke: #A80036; stroke-width: 1.5;" width="96" x="1963" y="740"/><ellipse cx="1978" cy="756" fill="#ADD1B2" rx="11" ry="11" style="stroke: #A80036; stroke-width: 1.0;"/><path d="M1980.7656,751.875 Q1980.9219,751.6563 1981.1094,751.5469 Q1981.2969,751.4375 1981.5156,751.4375 Q1981.8906,751.4375 1982.125,751.6953 Q1982.3594,751.9531 1982.3594,752.5625 L1982.3594,754.0156 Q1982.3594,754.625 1982.125,754.8906 Q1981.8906,755.1563 1981.5156,755.1563 Q1981.1719,755.1563 1980.9688,754.9531 Q1980.7656,754.7656 1980.6563,754.25 Q1980.6094,753.8906 1980.4219,753.7031 Q1980.0938,753.3281 1979.4844,753.1094 Q1978.875,752.8906 1978.25,752.8906 Q1977.4844,752.8906 1976.8516,753.2188 Q1976.2188,753.5469 1975.7266,754.2969 Q1975.2344,755.0469 1975.2344,756.0781 L1975.2344,757.1719 Q1975.2344,758.4063 1976.125,759.2266 Q1977.0156,760.0469 1978.6094,760.0469 Q1979.5469,760.0469 1980.2031,759.7969 Q1980.5938,759.6406 1981.0156,759.2031 Q1981.2813,758.9375 1981.4297,758.8594 Q1981.5781,758.7813 1981.7813,758.7813 Q1982.1094,758.7813 1982.3672,759.0391 Q1982.625,759.2969 1982.625,759.6406 Q1982.625,759.9844 1982.2813,760.3906 Q1981.7813,760.9688 1980.9844,761.2969 Q1979.9063,761.75 1978.6094,761.75 Q1977.0938,761.75 1975.8906,761.125 Q1974.9063,760.625 1974.2188,759.5547 Q1973.5313,758.4844 1973.5313,757.2031 L1973.5313,756.0469 Q1973.5313,754.7188 1974.1484,753.5703 Q1974.7656,752.4219 1975.8594,751.8047 Q1976.9531,751.1875 1978.1875,751.1875 Q1978.9219,751.1875 1979.5703,751.3516 Q1980.2188,751.5156 1980.7656,751.875 Z "/><text fill="#000000" font-family="sans-serif" font-size="12" lengthAdjust="spacingAndGlyphs" textLength="64" x="1992" y="760.9102">Abstracción</text><line style="stroke: #A80036; stroke-width: 1.5;" x1="1964" x2="2058" y1="772" y2="772"/><line style="stroke: #A80036; stroke-width: 1.5;" x1="1964" x2="2058" y1="780" y2="780"/><!--class Encapsulacion--><rect fill="#FF0000" filter="url(#fzxt358jvnsu2)" height="48" id="Encapsulacion" style="stroke: #A80036; stroke-width: 1.5;" width="114" x="1814" y="740"/><rect fill="#FF0000" height="32" style="stroke: #A80036; stroke-width: 1.5;" width="114" x="1814" y="740"/><ellipse cx="1829" cy="756" fill="#ADD1B2" rx="11" ry="11" style="stroke: #A80036; stroke-width: 1.0;"/><path d="M1831.7656,751.875 Q1831.9219,751.6563 1832.1094,751.5469 Q1832.2969,751.4375 1832.5156,751.4375 Q1832.8906,751.4375 1833.125,751.6953 Q1833.3594,751.9531 1833.3594,752.5625 L1833.3594,754.0156 Q1833.3594,754.625 1833.125,754.8906 Q1832.8906,755.1563 1832.5156,755.1563 Q1832.1719,755.1563 1831.9688,754.9531 Q1831.7656,754.7656 1831.6563,754.25 Q1831.6094,753.8906 1831.4219,753.7031 Q1831.0938,753.3281 1830.4844,753.1094 Q1829.875,752.8906 1829.25,752.8906 Q1828.4844,752.8906 1827.8516,753.2188 Q1827.2188,753.5469 1826.7266,754.2969 Q1826.2344,755.0469 1826.2344,756.0781 L1826.2344,757.1719 Q1826.2344,758.4063 1827.125,759.2266 Q1828.0156,760.0469 1829.6094,760.0469 Q1830.5469,760.0469 1831.2031,759.7969 Q1831.5938,759.6406 1832.0156,759.2031 Q1832.2813,758.9375 1832.4297,758.8594 Q1832.5781,758.7813 1832.7813,758.7813 Q1833.1094,758.7813 1833.3672,759.0391 Q1833.625,759.2969 1833.625,759.6406 Q1833.625,759.9844 1833.2813,760.3906 Q1832.7813,760.9688 1831.9844,761.2969 Q1830.9063,761.75 1829.6094,761.75 Q1828.0938,761.75 1826.8906,761.125 Q1825.9063,760.625 1825.2188,759.5547 Q1824.5313,758.4844 1824.5313,757.2031 L1824.5313,756.0469 Q1824.5313,754.7188 1825.1484,753.5703 Q1825.7656,752.4219 1826.8594,751.8047 Q1827.9531,751.1875 1829.1875,751.1875 Q1829.9219,751.1875 1830.5703,751.3516 Q1831.2188,751.5156 1831.7656,751.875 Z "/><text fill="#000000" font-family="sans-serif" font-size="12" lengthAdjust="spacingAndGlyphs" textLength="82" x="1843" y="760.9102">Encapsulación</text><line style="stroke: #A80036; stroke-width: 1.5;" x1="1815" x2="1927" y1="772" y2="772"/><line style="stroke: #A80036; stroke-width: 1.5;" x1="1815" x2="1927" y1="780" y2="780"/><!--class Modularizacion--><rect fill="#FF0000" filter="url(#fzxt358jvnsu2)" height="48" id="Modularizacion" style="stroke: #A80036; stroke-width: 1.5;" width="114" x="1814" y="632"/><rect fill="#FF0000" height="32" style="stroke: #A80036; stroke-width: 1.5;" width="114" x="1814" y="632"/><ellipse cx="1829" cy="648" fill="#ADD1B2" rx="11" ry="11" style="stroke: #A80036; stroke-width: 1.0;"/><path d="M1831.7656,643.875 Q1831.9219,643.6563 1832.1094,643.5469 Q1832.2969,643.4375 1832.5156,643.4375 Q1832.8906,643.4375 1833.125,643.6953 Q1833.3594,643.9531 1833.3594,644.5625 L1833.3594,646.0156 Q1833.3594,646.625 1833.125,646.8906 Q1832.8906,647.1563 1832.5156,647.1563 Q1832.1719,647.1563 1831.9688,646.9531 Q1831.7656,646.7656 1831.6563,646.25 Q1831.6094,645.8906 1831.4219,645.7031 Q1831.0938,645.3281 1830.4844,645.1094 Q1829.875,644.8906 1829.25,644.8906 Q1828.4844,644.8906 1827.8516,645.2188 Q1827.2188,645.5469 1826.7266,646.2969 Q1826.2344,647.0469 1826.2344,648.0781 L1826.2344,649.1719 Q1826.2344,650.4063 1827.125,651.2266 Q1828.0156,652.0469 1829.6094,652.0469 Q1830.5469,652.0469 1831.2031,651.7969 Q1831.5938,651.6406 1832.0156,651.2031 Q1832.2813,650.9375 1832.4297,650.8594 Q1832.5781,650.7813 1832.7813,650.7813 Q1833.1094,650.7813 1833.3672,651.0391 Q1833.625,651.2969 1833.625,651.6406 Q1833.625,651.9844 1833.2813,652.3906 Q1832.7813,652.9688 1831.9844,653.2969 Q1830.9063,653.75 1829.6094,653.75 Q1828.0938,653.75 1826.8906,653.125 Q1825.9063,652.625 1825.2188,651.5547 Q1824.5313,650.4844 1824.5313,649.2031 L1824.5313,648.0469 Q1824.5313,646.7188 1825.1484,645.5703 Q1825.7656,644.4219 1826.8594,643.8047 Q1827.9531,643.1875 1829.1875,643.1875 Q1829.9219,643.1875 1830.5703,643.3516 Q1831.2188,643.5156 1831.7656,643.875 Z "/><text fill="#000000" font-family="sans-serif" font-size="12" lengthAdjust="spacingAndGlyphs" textLength="82" x="1843" y="652.9102">Modularización</text><line style="stroke: #A80036; stroke-width: 1.5;" x1="1815" x2="1927" y1="664" y2="664"/><line style="stroke: #A80036; stroke-width: 1.5;" x1="1815" x2="1927" y1="672" y2="672"/><!--class Jeraquizacion--><rect fill="#FF0000" filter="url(#fzxt358jvnsu2)" height="48" id="Jeraquizacion" style="stroke: #A80036; stroke-width: 1.5;" width="112" x="1815" y="508"/><rect fill="#FF0000" height="32" style="stroke: #A80036; stroke-width: 1.5;" width="112" x="1815" y="508"/><ellipse cx="1830" cy="524" fill="#ADD1B2" rx="11" ry="11" style="stroke: #A80036; stroke-width: 1.0;"/><path d="M1832.7656,519.875 Q1832.9219,519.6563 1833.1094,519.5469 Q1833.2969,519.4375 1833.5156,519.4375 Q1833.8906,519.4375 1834.125,519.6953 Q1834.3594,519.9531 1834.3594,520.5625 L1834.3594,522.0156 Q1834.3594,522.625 1834.125,522.8906 Q1833.8906,523.1563 1833.5156,523.1563 Q1833.1719,523.1563 1832.9688,522.9531 Q1832.7656,522.7656 1832.6563,522.25 Q1832.6094,521.8906 1832.4219,521.7031 Q1832.0938,521.3281 1831.4844,521.1094 Q1830.875,520.8906 1830.25,520.8906 Q1829.4844,520.8906 1828.8516,521.2188 Q1828.2188,521.5469 1827.7266,522.2969 Q1827.2344,523.0469 1827.2344,524.0781 L1827.2344,525.1719 Q1827.2344,526.4063 1828.125,527.2266 Q1829.0156,528.0469 1830.6094,528.0469 Q1831.5469,528.0469 1832.2031,527.7969 Q1832.5938,527.6406 1833.0156,527.2031 Q1833.2813,526.9375 1833.4297,526.8594 Q1833.5781,526.7813 1833.7813,526.7813 Q1834.1094,526.7813 1834.3672,527.0391 Q1834.625,527.2969 1834.625,527.6406 Q1834.625,527.9844 1834.2813,528.3906 Q1833.7813,528.9688 1832.9844,529.2969 Q1831.9063,529.75 1830.6094,529.75 Q1829.0938,529.75 1827.8906,529.125 Q1826.9063,528.625 1826.2188,527.5547 Q1825.5313,526.4844 1825.5313,525.2031 L1825.5313,524.0469 Q1825.5313,522.7188 1826.1484,521.5703 Q1826.7656,520.4219 1827.8594,519.8047 Q1828.9531,519.1875 1830.1875,519.1875 Q1830.9219,519.1875 1831.5703,519.3516 Q1832.2188,519.5156 1832.7656,519.875 Z "/><text fill="#000000" font-family="sans-serif" font-size="12" lengthAdjust="spacingAndGlyphs" textLength="80" x="1844" y="528.9102">Jerarquización</text><line style="stroke: #A80036; stroke-width: 1.5;" x1="1816" x2="1926" y1="540" y2="540"/><line style="stroke: #A80036; stroke-width: 1.5;" x1="1816" x2="1926" y1="548" y2="548"/><!--class SeparacionAsuntos--><rect fill="#FFFF00" filter="url(#fzxt358jvnsu2)" height="48" id="SeparacionAsuntos" style="stroke: #A80036; stroke-width: 1.5;" width="160" x="396" y="168"/><rect fill="#FFFF00" height="32" style="stroke: #A80036; stroke-width: 1.5;" width="160" x="396" y="168"/><ellipse cx="411" cy="184" fill="#ADD1B2" rx="11" ry="11" style="stroke: #A80036; stroke-width: 1.0;"/><path d="M413.7656,179.875 Q413.9219,179.6563 414.1094,179.5469 Q414.2969,179.4375 414.5156,179.4375 Q414.8906,179.4375 415.125,179.6953 Q415.3594,179.9531 415.3594,180.5625 L415.3594,182.0156 Q415.3594,182.625 415.125,182.8906 Q414.8906,183.1563 414.5156,183.1563 Q414.1719,183.1563 413.9688,182.9531 Q413.7656,182.7656 413.6563,182.25 Q413.6094,181.8906 413.4219,181.7031 Q413.0938,181.3281 412.4844,181.1094 Q411.875,180.8906 411.25,180.8906 Q410.4844,180.8906 409.8516,181.2188 Q409.2188,181.5469 408.7266,182.2969 Q408.2344,183.0469 408.2344,184.0781 L408.2344,185.1719 Q408.2344,186.4063 409.125,187.2266 Q410.0156,188.0469 411.6094,188.0469 Q412.5469,188.0469 413.2031,187.7969 Q413.5938,187.6406 414.0156,187.2031 Q414.2813,186.9375 414.4297,186.8594 Q414.5781,186.7813 414.7813,186.7813 Q415.1094,186.7813 415.3672,187.0391 Q415.625,187.2969 415.625,187.6406 Q415.625,187.9844 415.2813,188.3906 Q414.7813,188.9688 413.9844,189.2969 Q412.9063,189.75 411.6094,189.75 Q410.0938,189.75 408.8906,189.125 Q407.9063,188.625 407.2188,187.5547 Q406.5313,186.4844 406.5313,185.2031 L406.5313,184.0469 Q406.5313,182.7188 407.1484,181.5703 Q407.7656,180.4219 408.8594,179.8047 Q409.9531,179.1875 411.1875,179.1875 Q411.9219,179.1875 412.5703,179.3516 Q413.2188,179.5156 413.7656,179.875 Z "/><text fill="#000000" font-family="sans-serif" font-size="12" lengthAdjust="spacingAndGlyphs" textLength="128" x="425" y="188.9102">Separación de Asuntos</text><line style="stroke: #A80036; stroke-width: 1.5;" x1="397" x2="555" y1="200" y2="200"/><line style="stroke: #A80036; stroke-width: 1.5;" x1="397" x2="555" y1="208" y2="208"/><!--class ElementoPrimitivo--><rect fill="#FFFF00" filter="url(#fzxt358jvnsu2)" height="48" id="ElementoPrimitivo" style="stroke: #A80036; stroke-width: 1.5;" width="148" x="38" y="168"/><rect fill="#FFFF00" height="32" style="stroke: #A80036; stroke-width: 1.5;" width="148" x="38" y="168"/><ellipse cx="53" cy="184" fill="#ADD1B2" rx="11" ry="11" style="stroke: #A80036; stroke-width: 1.0;"/><path d="M55.7656,179.875 Q55.9219,179.6563 56.1094,179.5469 Q56.2969,179.4375 56.5156,179.4375 Q56.8906,179.4375 57.125,179.6953 Q57.3594,179.9531 57.3594,180.5625 L57.3594,182.0156 Q57.3594,182.625 57.125,182.8906 Q56.8906,183.1563 56.5156,183.1563 Q56.1719,183.1563 55.9688,182.9531 Q55.7656,182.7656 55.6563,182.25 Q55.6094,181.8906 55.4219,181.7031 Q55.0938,181.3281 54.4844,181.1094 Q53.875,180.8906 53.25,180.8906 Q52.4844,180.8906 51.8516,181.2188 Q51.2188,181.5469 50.7266,182.2969 Q50.2344,183.0469 50.2344,184.0781 L50.2344,185.1719 Q50.2344,186.4063 51.125,187.2266 Q52.0156,188.0469 53.6094,188.0469 Q54.5469,188.0469 55.2031,187.7969 Q55.5938,187.6406 56.0156,187.2031 Q56.2813,186.9375 56.4297,186.8594 Q56.5781,186.7813 56.7813,186.7813 Q57.1094,186.7813 57.3672,187.0391 Q57.625,187.2969 57.625,187.6406 Q57.625,187.9844 57.2813,188.3906 Q56.7813,188.9688 55.9844,189.2969 Q54.9063,189.75 53.6094,189.75 Q52.0938,189.75 50.8906,189.125 Q49.9063,188.625 49.2188,187.5547 Q48.5313,186.4844 48.5313,185.2031 L48.5313,184.0469 Q48.5313,182.7188 49.1484,181.5703 Q49.7656,180.4219 50.8594,179.8047 Q51.9531,179.1875 53.1875,179.1875 Q53.9219,179.1875 54.5703,179.3516 Q55.2188,179.5156 55.7656,179.875 Z "/><text fill="#000000" font-family="sans-serif" font-size="12" lengthAdjust="spacingAndGlyphs" textLength="116" x="67" y="188.9102">Elementos primitivos</text><line style="stroke: #A80036; stroke-width: 1.5;" x1="39" x2="185" y1="200" y2="200"/><line style="stroke: #A80036; stroke-width: 1.5;" x1="39" x2="185" y1="208" y2="208"/><!--class EstructuraJerarquica--><rect fill="#FFFF00" filter="url(#fzxt358jvnsu2)" height="48" id="EstructuraJerarquica" style="stroke: #A80036; stroke-width: 1.5;" width="149" x="591.5" y="168"/><rect fill="#FFFF00" height="32" style="stroke: #A80036; stroke-width: 1.5;" width="149" x="591.5" y="168"/><ellipse cx="606.5" cy="184" fill="#ADD1B2" rx="11" ry="11" style="stroke: #A80036; stroke-width: 1.0;"/><path d="M609.2656,179.875 Q609.4219,179.6563 609.6094,179.5469 Q609.7969,179.4375 610.0156,179.4375 Q610.3906,179.4375 610.625,179.6953 Q610.8594,179.9531 610.8594,180.5625 L610.8594,182.0156 Q610.8594,182.625 610.625,182.8906 Q610.3906,183.1563 610.0156,183.1563 Q609.6719,183.1563 609.4688,182.9531 Q609.2656,182.7656 609.1563,182.25 Q609.1094,181.8906 608.9219,181.7031 Q608.5938,181.3281 607.9844,181.1094 Q607.375,180.8906 606.75,180.8906 Q605.9844,180.8906 605.3516,181.2188 Q604.7188,181.5469 604.2266,182.2969 Q603.7344,183.0469 603.7344,184.0781 L603.7344,185.1719 Q603.7344,186.4063 604.625,187.2266 Q605.5156,188.0469 607.1094,188.0469 Q608.0469,188.0469 608.7031,187.7969 Q609.0938,187.6406 609.5156,187.2031 Q609.7813,186.9375 609.9297,186.8594 Q610.0781,186.7813 610.2813,186.7813 Q610.6094,186.7813 610.8672,187.0391 Q611.125,187.2969 611.125,187.6406 Q611.125,187.9844 610.7813,188.3906 Q610.2813,188.9688 609.4844,189.2969 Q608.4063,189.75 607.1094,189.75 Q605.5938,189.75 604.3906,189.125 Q603.4063,188.625 602.7188,187.5547 Q602.0313,186.4844 602.0313,185.2031 L602.0313,184.0469 Q602.0313,182.7188 602.6484,181.5703 Q603.2656,180.4219 604.3594,179.8047 Q605.4531,179.1875 606.6875,179.1875 Q607.4219,179.1875 608.0703,179.3516 Q608.7188,179.5156 609.2656,179.875 Z "/><text fill="#000000" font-family="sans-serif" font-size="12" lengthAdjust="spacingAndGlyphs" textLength="117" x="620.5" y="188.9102">Estructura Jerárquica</text><line style="stroke: #A80036; stroke-width: 1.5;" x1="592.5" x2="739.5" y1="200" y2="200"/><line style="stroke: #A80036; stroke-width: 1.5;" x1="592.5" x2="739.5" y1="208" y2="208"/><!--class PatronesComunes--><rect fill="#FFFF00" filter="url(#fzxt358jvnsu2)" height="48" id="PatronesComunes" style="stroke: #A80036; stroke-width: 1.5;" width="140" x="221" y="168"/><rect fill="#FFFF00" height="32" style="stroke: #A80036; stroke-width: 1.5;" width="140" x="221" y="168"/><ellipse cx="236" cy="184" fill="#ADD1B2" rx="11" ry="11" style="stroke: #A80036; stroke-width: 1.0;"/><path d="M238.7656,179.875 Q238.9219,179.6563 239.1094,179.5469 Q239.2969,179.4375 239.5156,179.4375 Q239.8906,179.4375 240.125,179.6953 Q240.3594,179.9531 240.3594,180.5625 L240.3594,182.0156 Q240.3594,182.625 240.125,182.8906 Q239.8906,183.1563 239.5156,183.1563 Q239.1719,183.1563 238.9688,182.9531 Q238.7656,182.7656 238.6563,182.25 Q238.6094,181.8906 238.4219,181.7031 Q238.0938,181.3281 237.4844,181.1094 Q236.875,180.8906 236.25,180.8906 Q235.4844,180.8906 234.8516,181.2188 Q234.2188,181.5469 233.7266,182.2969 Q233.2344,183.0469 233.2344,184.0781 L233.2344,185.1719 Q233.2344,186.4063 234.125,187.2266 Q235.0156,188.0469 236.6094,188.0469 Q237.5469,188.0469 238.2031,187.7969 Q238.5938,187.6406 239.0156,187.2031 Q239.2813,186.9375 239.4297,186.8594 Q239.5781,186.7813 239.7813,186.7813 Q240.1094,186.7813 240.3672,187.0391 Q240.625,187.2969 240.625,187.6406 Q240.625,187.9844 240.2813,188.3906 Q239.7813,188.9688 238.9844,189.2969 Q237.9063,189.75 236.6094,189.75 Q235.0938,189.75 233.8906,189.125 Q232.9063,188.625 232.2188,187.5547 Q231.5313,186.4844 231.5313,185.2031 L231.5313,184.0469 Q231.5313,182.7188 232.1484,181.5703 Q232.7656,180.4219 233.8594,179.8047 Q234.9531,179.1875 236.1875,179.1875 Q236.9219,179.1875 237.5703,179.3516 Q238.2188,179.5156 238.7656,179.875 Z "/><text fill="#000000" font-family="sans-serif" font-size="12" lengthAdjust="spacingAndGlyphs" textLength="108" x="250" y="188.9102">Patrones Comunes</text><line style="stroke: #A80036; stroke-width: 1.5;" x1="222" x2="360" y1="200" y2="200"/><line style="stroke: #A80036; stroke-width: 1.5;" x1="222" x2="360" y1="208" y2="208"/><!--class SistemaIntermedioEstable--><rect fill="#FFFF00" filter="url(#fzxt358jvnsu2)" height="48" id="SistemaIntermedioEstable" style="stroke: #A80036; stroke-width: 1.5;" width="185" x="775.5" y="168"/><rect fill="#FFFF00" height="32" style="stroke: #A80036; stroke-width: 1.5;" width="185" x="775.5" y="168"/><ellipse cx="790.5" cy="184" fill="#ADD1B2" rx="11" ry="11" style="stroke: #A80036; stroke-width: 1.0;"/><path d="M793.2656,179.875 Q793.4219,179.6563 793.6094,179.5469 Q793.7969,179.4375 794.0156,179.4375 Q794.3906,179.4375 794.625,179.6953 Q794.8594,179.9531 794.8594,180.5625 L794.8594,182.0156 Q794.8594,182.625 794.625,182.8906 Q794.3906,183.1563 794.0156,183.1563 Q793.6719,183.1563 793.4688,182.9531 Q793.2656,182.7656 793.1563,182.25 Q793.1094,181.8906 792.9219,181.7031 Q792.5938,181.3281 791.9844,181.1094 Q791.375,180.8906 790.75,180.8906 Q789.9844,180.8906 789.3516,181.2188 Q788.7188,181.5469 788.2266,182.2969 Q787.7344,183.0469 787.7344,184.0781 L787.7344,185.1719 Q787.7344,186.4063 788.625,187.2266 Q789.5156,188.0469 791.1094,188.0469 Q792.0469,188.0469 792.7031,187.7969 Q793.0938,187.6406 793.5156,187.2031 Q793.7813,186.9375 793.9297,186.8594 Q794.0781,186.7813 794.2813,186.7813 Q794.6094,186.7813 794.8672,187.0391 Q795.125,187.2969 795.125,187.6406 Q795.125,187.9844 794.7813,188.3906 Q794.2813,188.9688 793.4844,189.2969 Q792.4063,189.75 791.1094,189.75 Q789.5938,189.75 788.3906,189.125 Q787.4063,188.625 786.7188,187.5547 Q786.0313,186.4844 786.0313,185.2031 L786.0313,184.0469 Q786.0313,182.7188 786.6484,181.5703 Q787.2656,180.4219 788.3594,179.8047 Q789.4531,179.1875 790.6875,179.1875 Q791.4219,179.1875 792.0703,179.3516 Q792.7188,179.5156 793.2656,179.875 Z "/><text fill="#000000" font-family="sans-serif" font-size="12" lengthAdjust="spacingAndGlyphs" textLength="153" x="804.5" y="188.9102">Sistema Intermedio Estable</text><line style="stroke: #A80036; stroke-width: 1.5;" x1="776.5" x2="959.5" y1="200" y2="200"/><line style="stroke: #A80036; stroke-width: 1.5;" x1="776.5" x2="959.5" y1="208" y2="208"/><!--class SistemaComplejo--><rect fill="#FFFF00" filter="url(#fzxt358jvnsu2)" height="48" id="SistemaComplejo" style="stroke: #A80036; stroke-width: 1.5;" width="135" x="503.5" y="60"/><rect fill="#FFFF00" height="32" style="stroke: #A80036; stroke-width: 1.5;" width="135" x="503.5" y="60"/><ellipse cx="518.5" cy="76" fill="#ADD1B2" rx="11" ry="11" style="stroke: #A80036; stroke-width: 1.0;"/><path d="M521.2656,71.875 Q521.4219,71.6563 521.6094,71.5469 Q521.7969,71.4375 522.0156,71.4375 Q522.3906,71.4375 522.625,71.6953 Q522.8594,71.9531 522.8594,72.5625 L522.8594,74.0156 Q522.8594,74.625 522.625,74.8906 Q522.3906,75.1563 522.0156,75.1563 Q521.6719,75.1563 521.4688,74.9531 Q521.2656,74.7656 521.1563,74.25 Q521.1094,73.8906 520.9219,73.7031 Q520.5938,73.3281 519.9844,73.1094 Q519.375,72.8906 518.75,72.8906 Q517.9844,72.8906 517.3516,73.2188 Q516.7188,73.5469 516.2266,74.2969 Q515.7344,75.0469 515.7344,76.0781 L515.7344,77.1719 Q515.7344,78.4063 516.625,79.2266 Q517.5156,80.0469 519.1094,80.0469 Q520.0469,80.0469 520.7031,79.7969 Q521.0938,79.6406 521.5156,79.2031 Q521.7813,78.9375 521.9297,78.8594 Q522.0781,78.7813 522.2813,78.7813 Q522.6094,78.7813 522.8672,79.0391 Q523.125,79.2969 523.125,79.6406 Q523.125,79.9844 522.7813,80.3906 Q522.2813,80.9688 521.4844,81.2969 Q520.4063,81.75 519.1094,81.75 Q517.5938,81.75 516.3906,81.125 Q515.4063,80.625 514.7188,79.5547 Q514.0313,78.4844 514.0313,77.2031 L514.0313,76.0469 Q514.0313,74.7188 514.6484,73.5703 Q515.2656,72.4219 516.3594,71.8047 Q517.4531,71.1875 518.6875,71.1875 Q519.4219,71.1875 520.0703,71.3516 Q520.7188,71.5156 521.2656,71.875 Z "/><text fill="#000000" font-family="sans-serif" font-size="12" lengthAdjust="spacingAndGlyphs" textLength="103" x="532.5" y="80.9102">Sistema Complejo</text><line style="stroke: #A80036; stroke-width: 1.5;" x1="504.5" x2="637.5" y1="92" y2="92"/><line style="stroke: #A80036; stroke-width: 1.5;" x1="504.5" x2="637.5" y1="100" y2="100"/><!--link Solucion to Efectividad--><path d="M2463.43,692.869 C2465.38,703.737 2467.52,715.681 2469.47,726.584 " fill="none" id="Solucion-Efectividad" style="stroke: #A80036; stroke-width: 1.0;"/><polygon fill="#A80036" points="2471.82,739.678,2474.1686,730.1133,2470.9374,734.7565,2466.2942,731.5254,2471.82,739.678" style="stroke: #A80036; stroke-width: 1.0;"/><line style="stroke: #A80036; stroke-width: 1.0;" x1="2470.9374" x2="2469.525" y1="734.7565" y2="726.8825"/><polygon fill="#A80036" points="2461.12,680,2458.2406,686.6113,2463.2359,691.812,2466.1153,685.2007,2461.12,680" style="stroke: #A80036; stroke-width: 1.0;"/><!--link Equilibrio to Eficacia--><path d="M2484.1,896 C2477.86,912.141 2469.48,933.816 2462.84,950.9688 " fill="none" id="Equilibrio-Eficacia" style="stroke: #A80036; stroke-width: 1.0;"/><polygon fill="#A80036" points="2461.02,955.6784,2467.9933,948.7233,2462.821,951.014,2460.5303,945.8417,2461.02,955.6784" style="stroke: #A80036; stroke-width: 1.0;"/><!--link Equilibrio to Eficiencia--><path d="M2509.06,896 C2520.42,912.279 2535.72,934.187 2547.74,951.4076 " fill="none" id="Equilibrio-Eficiencia" style="stroke: #A80036; stroke-width: 1.0;"/><polygon fill="#A80036" points="2550.72,955.6784,2548.8482,946.009,2547.858,951.5786,2542.2885,950.5883,2550.72,955.6784" style="stroke: #A80036; stroke-width: 1.0;"/><!--link Efectividad to Eficacia--><path d="M2453.44,799.463 C2445.3,813.851 2437.11,831.124 2433,848 C2425.27,879.707 2431.97,916.548 2439.46,943.0695 " fill="none" id="Efectividad-Eficacia" style="stroke: #A80036; stroke-width: 1.0;"/><polygon fill="#A80036" points="2443.26,955.554,2444.4673,945.7794,2441.8047,950.7705,2436.8137,948.1079,2443.26,955.554" style="stroke: #A80036; stroke-width: 1.0;"/><line style="stroke: #A80036; stroke-width: 1.0;" x1="2441.8047" x2="2439.475" y1="950.7705" y2="943.1173"/><polygon fill="#A80036" points="2460.18,788.127,2453.6777,791.2446,2454.0546,798.4459,2460.5569,795.3282,2460.18,788.127" style="stroke: #A80036; stroke-width: 1.0;"/><!--link Efectividad to Eficiencia--><path d="M2514.36,797.191 C2528.56,811.274 2543.31,828.933 2552,848 C2565.58,877.799 2568.67,915.204 2568.75,942.4073 " fill="none" id="Efectividad-Eficiencia" style="stroke: #A80036; stroke-width: 1.0;"/><polygon fill="#A80036" points="2568.56,955.6087,2572.6912,946.6682,2568.6331,950.6092,2564.6921,946.5512,2568.56,955.6087" style="stroke: #A80036; stroke-width: 1.0;"/><line style="stroke: #A80036; stroke-width: 1.0;" x1="2568.6331" x2="2568.75" y1="950.6092" y2="942.6101"/><polygon fill="#A80036" points="2504.69,788.038,2506.2949,795.0683,2513.4016,796.2908,2511.7967,789.2605,2504.69,788.038" style="stroke: #A80036; stroke-width: 1.0;"/><!--link Efectividad to Equilibrio--><path d="M2481.75,800.869 C2483.5,811.737 2485.41,823.681 2487.16,834.584 " fill="none" id="Efectividad-Equilibrio" style="stroke: #A80036; stroke-width: 1.0;"/><polygon fill="#A80036" points="2489.26,847.678,2491.7835,838.1579,2488.4678,842.7412,2483.8846,839.4254,2489.26,847.678" style="stroke: #A80036; stroke-width: 1.0;"/><line style="stroke: #A80036; stroke-width: 1.0;" x1="2488.4678" x2="2487.2" y1="842.7412" y2="834.8425"/><polygon fill="#A80036" points="2479.69,788,2476.69,794.5575,2481.5892,799.8488,2484.5892,793.2913,2479.69,788" style="stroke: #A80036; stroke-width: 1.0;"/><!--link Interfaz to Implementacion--><path d="M1453.7,448 C1455.05,464.141 1459.94,485.816 1465.99,502.969 " fill="none" id="Interfaz-Implementacion" style="stroke: #A80036; stroke-width: 1.0;"/><polygon fill="#A80036" points="1467.73,507.678,1468.3776,497.8505,1466.0041,502.9853,1460.8693,500.6119,1467.73,507.678" style="stroke: #A80036; stroke-width: 1.0;"/><!--link Implementacion to Interfaz--><path d="M1489.91,507.678 C1488.65,491.465 1483.74,469.784 1477.56,452.691 " fill="none" id="Implementacion-Interfaz" style="stroke: #A80036; stroke-width: 1.0;"/><polygon fill="#A80036" points="1475.78,448,1475.2284,457.8334,1477.5516,452.6756,1482.7094,454.9989,1475.78,448" style="stroke: #A80036; stroke-width: 1.0;"/><!--link Interfaz to Abstraccion--><path d="M1483.89,448.007 C1492.62,455.819 1502.59,464.471 1512,472 C1533.38,489.106 1539.86,491.891 1562,508 C1666.37,583.932 1682.8,617.99 1796,680 C1824.61,695.674 1904.02,725.06 1957.89,744.328 " fill="none" id="Interfaz-Abstraccion" style="stroke: #A80036; stroke-width: 1.0;"/><polygon fill="#A80036" points="1962.7,746.044,1955.5749,739.2445,1957.9926,744.3587,1952.8784,746.7764,1962.7,746.044" style="stroke: #A80036; stroke-width: 1.0;"/><!--link Implementacion to Encapsulacion--><path d="M1493.4,556.098 C1507.81,588.629 1538.48,647.581 1583,680 C1650.41,729.081 1746.27,749.238 1808.56,757.45 " fill="none" id="Implementacion-Encapsulacion" style="stroke: #A80036; stroke-width: 1.0;"/><polygon fill="#A80036" points="1813.73,758.115,1805.319,752.9911,1808.7715,757.4722,1804.2904,760.9247,1813.73,758.115" style="stroke: #A80036; stroke-width: 1.0;"/><!--link Acoplamiento to Modularizacion--><path d="M1604.45,448.174 C1634.55,479.983 1691.82,538.003 1747,580 C1771.03,598.29 1799.79,615.916 1823.55,629.481 " fill="none" id="Acoplamiento-Modularizacion" style="stroke: #A80036; stroke-width: 1.0;"/><polygon fill="#A80036" points="1827.93,631.965,1822.0818,624.0404,1823.583,629.4945,1818.129,630.9956,1827.93,631.965" style="stroke: #A80036; stroke-width: 1.0;"/><!--link Acoplamiento to Jeraquizacion--><path d="M1613.21,448.084 C1625.37,456.542 1639.86,465.599 1654,472 C1681.65,484.518 1755.76,503.594 1809.7,516.645 " fill="none" id="Acoplamiento-Jeraquizacion" style="stroke: #A80036; stroke-width: 1.0;"/><polygon fill="#A80036" points="1814.85,517.888,1807.0375,511.891,1809.9891,516.7167,1805.1634,519.6684,1814.85,517.888" style="stroke: #A80036; stroke-width: 1.0;"/><!--link Cohesion to Modularizacion--><path d="M1724.62,448.023 C1738.29,479.407 1765.23,536.666 1797,580 C1809.75,597.394 1826.46,614.677 1840.77,628.26 " fill="none" id="Cohesion-Modularizacion" style="stroke: #A80036; stroke-width: 1.0;"/><polygon fill="#A80036" points="1844.73,631.99,1840.9177,622.9089,1841.089,628.5632,1835.4347,628.7345,1844.73,631.99" style="stroke: #A80036; stroke-width: 1.0;"/><!--link Cohesion to Jeraquizacion--><path d="M1748.85,448 C1773.5,464.75 1806.92,487.461 1832.58,504.892 " fill="none" id="Cohesion-Jeraquizacion" style="stroke: #A80036; stroke-width: 1.0;"/><polygon fill="#A80036" points="1836.95,507.862,1831.7597,499.4918,1832.8163,505.0491,1827.259,506.1057,1836.95,507.862" style="stroke: #A80036; stroke-width: 1.0;"/><!--link TipoElemento to Acoplamiento--><path d="M1380.47,321 C1422.79,325.879 1471.58,335.883 1512,356 C1528.4,364.164 1543.61,377.38 1555.71,389.926 " fill="none" id="TipoElemento-Acoplamiento" style="stroke: #A80036; stroke-width: 1.0;"/><polygon fill="#A80036" points="1564.71,399.734,1561.5762,390.397,1561.331,396.0485,1555.6795,395.8034,1564.71,399.734" style="stroke: #A80036; stroke-width: 1.0;"/><line style="stroke: #A80036; stroke-width: 1.0;" x1="1561.331" x2="1555.925" y1="396.0485" y2="390.156"/><polygon fill="#A80036" points="1367.28,319.618,1372.8297,324.2225,1379.2144,320.8706,1373.6648,316.2662,1367.28,319.618" style="stroke: #A80036; stroke-width: 1.0;"/><!--link TipoElemento to Cohesion--><path d="M1380.58,319.47 C1474.55,323.214 1607.71,332.591 1654,356 C1669.24,363.709 1682.53,376.934 1692.78,389.608 " fill="none" id="TipoElemento-Cohesion" style="stroke: #A80036; stroke-width: 1.0;"/><polygon fill="#A80036" points="1700.65,399.991,1698.3998,390.4026,1697.6291,396.0067,1692.025,395.2361,1700.65,399.991" style="stroke: #A80036; stroke-width: 1.0;"/><line style="stroke: #A80036; stroke-width: 1.0;" x1="1697.6291" x2="1692.795" y1="396.0067" y2="389.6305"/><polygon fill="#A80036" points="1367.31,318.967,1373.1564,323.1884,1379.3016,319.4153,1373.4553,315.194,1367.31,318.967" style="stroke: #A80036; stroke-width: 1.0;"/><!--link TipoElemento to Interfaz--><path d="M1363.36,345.495 C1370.15,348.739 1376.79,352.244 1383,356 C1398.8,365.552 1414.41,378.532 1427.34,390.524 " fill="none" id="TipoElemento-Interfaz" style="stroke: #A80036; stroke-width: 1.0;"/><polygon fill="#A80036" points="1437.09,399.846,1433.3511,390.7345,1433.4768,396.3899,1427.8213,396.5156,1437.09,399.846" style="stroke: #A80036; stroke-width: 1.0;"/><line style="stroke: #A80036; stroke-width: 1.0;" x1="1433.4768" x2="1427.695" y1="396.3899" y2="390.86"/><polygon fill="#A80036" points="1351.43,340.111,1355.2556,346.2237,1362.3695,345.0433,1358.5438,338.9307,1351.43,340.111" style="stroke: #A80036; stroke-width: 1.0;"/><!--link TipoElemento to Implementacion--><path d="M1304.54,350.832 C1328.2,383.639 1366.7,433.902 1406,472 C1416.07,481.762 1427.76,491.367 1438.98,499.9 " fill="none" id="TipoElemento-Implementacion" style="stroke: #A80036; stroke-width: 1.0;"/><polygon fill="#A80036" points="1449.52,507.722,1444.6815,499.1436,1445.5066,504.74,1439.9102,505.565,1449.52,507.722" style="stroke: #A80036; stroke-width: 1.0;"/><line style="stroke: #A80036; stroke-width: 1.0;" x1="1445.5066" x2="1439.085" y1="504.74" y2="499.976"/><polygon fill="#A80036" points="1296.81,340.004,1297.0381,347.2115,1303.7789,349.7731,1303.5508,342.5656,1296.81,340.004" style="stroke: #A80036; stroke-width: 1.0;"/><!--link Relacion to TipoElemento--><path d="M1130.42,216.234 C1162.1,237.01 1208.46,267.421 1241.36,289.001 " fill="none" id="Relacion-TipoElemento" style="stroke: #A80036; stroke-width: 1.0;"/><polygon fill="#A80036" points="1245.71,291.852,1240.3785,283.571,1241.5292,289.1096,1235.9906,290.2602,1245.71,291.852" style="stroke: #A80036; stroke-width: 1.0;"/><!--link Relacion to Colaboracion--><path d="M1090.24,216.234 C1086.12,236.332 1080.15,265.446 1075.77,286.859 " fill="none" id="Relacion-Colaboracion" style="stroke: #A80036; stroke-width: 1.0;"/><polygon fill="#A80036" points="1074.74,291.852,1080.4633,283.8368,1075.7425,286.9535,1072.6258,282.2327,1074.74,291.852" style="stroke: #A80036; stroke-width: 1.0;"/><!--link TipoElemento to Elemento--><path d="M1246.07,340 C1220.52,356.819 1185.85,379.649 1159.33,397.107 " fill="none" id="TipoElemento-Elemento" style="stroke: #A80036; stroke-width: 1.0;"/><polygon fill="#A80036" points="1155.14,399.862,1164.8586,398.2657,1159.3195,397.1176,1160.4676,391.5785,1155.14,399.862" style="stroke: #A80036; stroke-width: 1.0;"/><!--link Colaboracion to Elemento--><path d="M1080.85,340 C1088.46,356.141 1098.69,377.816 1106.78,394.969 " fill="none" id="Colaboracion-Elemento" style="stroke: #A80036; stroke-width: 1.0;"/><polygon fill="#A80036" points="1109,399.678,1108.784,389.8315,1106.8696,395.1546,1101.5465,393.2402,1109,399.678" style="stroke: #A80036; stroke-width: 1.0;"/><!--link Sistema to TipoElemento--><path d="M1131.64,117.221 C1147.57,131.997 1165.97,150.168 1181,168 C1211.47,204.152 1241.27,249.666 1260.3,280.398 " fill="none" id="Sistema-TipoElemento" style="stroke: #A80036; stroke-width: 1.0;"/><polygon fill="#A80036" points="1267.29,291.799,1265.9993,282.0351,1264.678,287.5355,1259.1777,286.2142,1267.29,291.799" style="stroke: #A80036; stroke-width: 1.0;"/><line style="stroke: #A80036; stroke-width: 1.0;" x1="1264.678" x2="1260.5" y1="287.5355" y2="280.714"/><polygon fill="#A80036" points="1121.6,108.039,1123.3293,115.0397,1130.4566,116.136,1128.7273,109.1353,1121.6,108.039" style="stroke: #A80036; stroke-width: 1.0;"/><!--link Sistema to Relacion--><path d="M1095,121.338 C1095,132.006 1095,143.677 1095,154.364 " fill="none" id="Sistema-Relacion" style="stroke: #A80036; stroke-width: 1.0;"/><polygon fill="#A80036" points="1095,167.678,1099,158.678,1095,162.678,1091,158.678,1095,167.678" style="stroke: #A80036; stroke-width: 1.0;"/><line style="stroke: #A80036; stroke-width: 1.0;" x1="1095" x2="1095" y1="162.678" y2="154.678"/><polygon fill="#A80036" points="1095,108,1091,114,1095,120,1099,114,1095,108" style="stroke: #A80036; stroke-width: 1.0;"/><!--link Sistema to Elemento--><path d="M1125.4,118.474 C1136.34,132.686 1147.36,150.095 1153,168 C1176.87,243.83 1151.56,337.559 1133.94,387.588 " fill="none" id="Sistema-Elemento" style="stroke: #A80036; stroke-width: 1.0;"/><polygon fill="#A80036" points="1129.44,399.91,1136.2836,392.8272,1131.1545,395.2131,1128.7686,390.0841,1129.44,399.91" style="stroke: #A80036; stroke-width: 1.0;"/><line style="stroke: #A80036; stroke-width: 1.0;" x1="1131.1545" x2="1133.905" y1="395.2131" y2="387.6975"/><polygon fill="#A80036" points="1117.14,108.275,1117.8078,115.4551,1124.6925,117.6002,1124.0247,110.4201,1117.14,108.275" style="stroke: #A80036; stroke-width: 1.0;"/><!--link Sistema to Colaboracion--><path d="M1064.6,118.474 C1053.66,132.686 1042.64,150.095 1037,168 C1027.39,198.524 1030.42,208.685 1037,240 C1039.85,253.535 1045.29,267.607 1050.95,279.856 " fill="none" id="Sistema-Colaboracion" style="stroke: #A80036; stroke-width: 1.0;"/><polygon fill="#A80036" points="1056.82,291.862,1056.4608,282.0197,1054.624,287.3701,1049.2736,285.5333,1056.82,291.862" style="stroke: #A80036; stroke-width: 1.0;"/><line style="stroke: #A80036; stroke-width: 1.0;" x1="1054.624" x2="1051.11" y1="287.3701" y2="280.1845"/><polygon fill="#A80036" points="1072.86,108.275,1065.9753,110.4201,1065.3075,117.6002,1072.1922,115.4551,1072.86,108.275" style="stroke: #A80036; stroke-width: 1.0;"/><!--link Capacidad to Sistema--><path d="M1831.51,292.849 C1666.02,246.145 1285.16,138.664 1146.6,99.562 " fill="none" id="Capacidad-Sistema" style="stroke: #A80036; stroke-width: 1.0;"/><polygon fill="#A80036" points="1134.03,96.016,1141.6063,102.3088,1138.8423,97.3732,1143.7779,94.6091,1134.03,96.016" style="stroke: #A80036; stroke-width: 1.0;"/><line style="stroke: #A80036; stroke-width: 1.0;" x1="1138.8423" x2="1146.545" y1="97.3732" y2="99.547"/><polygon fill="#A80036" points="1844.47,296.507,1839.787,291.0234,1832.9241,293.2372,1837.6071,298.7207,1844.47,296.507" style="stroke: #A80036; stroke-width: 1.0;"/><!--link Limitacion to Solucion--><path d="M2184.68,537.494 C2233.3,543.724 2312.33,557.832 2374,588 C2394.86,598.203 2415.19,614.482 2430.51,628.439 " fill="none" id="Limitacion-Solucion" style="stroke: #A80036; stroke-width: 1.0;"/><polygon fill="#A80036" points="2434.3,631.932,2430.392,622.8917,2430.623,628.5438,2424.9709,628.7748,2434.3,631.932" style="stroke: #A80036; stroke-width: 1.0;"/><!--link Capacidad to CapacidadCuantitativa--><path d="M1994.71,344.285 C2004.36,347.966 2013.96,351.897 2023,356 C2051.03,368.725 2081.13,386.056 2103.79,399.903 " fill="none" id="Capacidad-CapacidadCuantitativa" style="stroke: #A80036; stroke-width: 1.0;"/><polygon fill="none" points="1992.04,350.76,1975.65,337.326,1996.84,337.609,1992.04,350.76" style="stroke: #A80036; stroke-width: 1.0;"/><!--link CapacidadCuantitativa to Limitacion--><path d="M2140,461.338 C2140,472.006 2140,483.677 2140,494.364 " fill="none" id="CapacidadCuantitativa-Limitacion" style="stroke: #A80036; stroke-width: 1.0;"/><polygon fill="#A80036" points="2140,507.678,2144,498.678,2140,502.678,2136,498.678,2140,507.678" style="stroke: #A80036; stroke-width: 1.0;"/><line style="stroke: #A80036; stroke-width: 1.0;" x1="2140" x2="2140" y1="502.678" y2="494.678"/><polygon fill="#A80036" points="2140,448,2136,454,2140,460,2144,454,2140,448" style="stroke: #A80036; stroke-width: 1.0;"/><!--link Limitacion to MagicoMiller--><path d="M2180.32,569.708 C2202.49,589.894 2229.32,614.321 2248.58,631.852 " fill="none" id="Limitacion-MagicoMiller" style="stroke: #A80036; stroke-width: 1.0;"/><polygon fill="none" points="2175.6,574.875,2165.52,556.234,2185.02,564.523,2175.6,574.875" style="stroke: #A80036; stroke-width: 1.0;"/><!--link Limitacion to EnfoqueVisual--><path d="M2103.34,570.589 C2083.82,590.601 2060.43,614.575 2043.58,631.852 " fill="none" id="Limitacion-EnfoqueVisual" style="stroke: #A80036; stroke-width: 1.0;"/><polygon fill="none" points="2098.36,565.664,2117.34,556.234,2108.38,575.439,2098.36,565.664" style="stroke: #A80036; stroke-width: 1.0;"/><!--link Limitacion to X--><path d="M2137.87,576.275 C2136.95,595.008 2135.91,616.185 2135.14,631.852 " fill="none" id="Limitacion-X" style="stroke: #A80036; stroke-width: 1.0;"/><polygon fill="none" points="2130.88,575.866,2138.86,556.234,2144.87,576.554,2130.88,575.866" style="stroke: #A80036; stroke-width: 1.0;"/><!--link Capacidad to CapacidadCualitativa--><path d="M1910,360.024 C1910,373.579 1910,388.038 1910,399.678 " fill="none" id="Capacidad-CapacidadCualitativa" style="stroke: #A80036; stroke-width: 1.0;"/><polygon fill="none" points="1903,360,1910,340,1917,360,1903,360" style="stroke: #A80036; stroke-width: 1.0;"/><!--link CapacidadCuantitativa to CapacidadCualitativa--><path d="M2035.62,424 C2025.64,424 2015.66,424 2005.68,424 " fill="none" id="CapacidadCuantitativa-CapacidadCualitativa" style="stroke: #A80036; stroke-width: 1.0;"/><polygon fill="#A80036" points="2040.84,424,2031.84,420,2035.84,424,2031.84,428,2040.84,424" style="stroke: #A80036; stroke-width: 1.0;"/><!--link CapacidadCualitativa to Jeraquizacion--><path d="M1896.97,460.402 C1892.86,471.59 1888.31,483.96 1884.18,495.178 " fill="none" id="CapacidadCualitativa-Jeraquizacion" style="stroke: #A80036; stroke-width: 1.0;"/><polygon fill="#A80036" points="1879.58,507.678,1886.4416,500.6127,1881.3064,502.9855,1878.9336,497.8504,1879.58,507.678" style="stroke: #A80036; stroke-width: 1.0;"/><line style="stroke: #A80036; stroke-width: 1.0;" x1="1881.3064" x2="1884.07" y1="502.9855" y2="495.478"/><polygon fill="#A80036" points="1901.54,448,1895.7143,452.2498,1897.3965,459.262,1903.2223,455.0121,1901.54,448" style="stroke: #A80036; stroke-width: 1.0;"/><!--link Modularizacion to Abstraccion--><path d="M1911.99,688.032 C1930.13,701.768 1951.43,717.895 1969.62,731.666 " fill="none" id="Modularizacion-Abstraccion" style="stroke: #A80036; stroke-width: 1.0;"/><polygon fill="#A80036" points="1980.2,739.678,1975.4369,731.0575,1976.2129,736.6609,1970.6095,737.4369,1980.2,739.678" style="stroke: #A80036; stroke-width: 1.0;"/><line style="stroke: #A80036; stroke-width: 1.0;" x1="1976.2129" x2="1969.835" y1="736.6609" y2="731.8315"/><polygon fill="#A80036" points="1901.38,680,1903.7508,686.8102,1910.949,687.2411,1908.5782,680.4309,1901.38,680" style="stroke: #A80036; stroke-width: 1.0;"/><!--link Modularizacion to Encapsulacion--><path d="M1871,693.338 C1871,704.006 1871,715.677 1871,726.364 " fill="none" id="Modularizacion-Encapsulacion" style="stroke: #A80036; stroke-width: 1.0;"/><polygon fill="#A80036" points="1871,739.678,1875,730.678,1871,734.678,1867,730.678,1871,739.678" style="stroke: #A80036; stroke-width: 1.0;"/><line style="stroke: #A80036; stroke-width: 1.0;" x1="1871" x2="1871" y1="734.678" y2="726.678"/><polygon fill="#A80036" points="1871,680,1867,686,1871,692,1875,686,1871,680" style="stroke: #A80036; stroke-width: 1.0;"/><!--link Jeraquizacion to Modularizacion--><path d="M1871,569.416 C1871,584.914 1871,602.954 1871,618.464 " fill="none" id="Jeraquizacion-Modularizacion" style="stroke: #A80036; stroke-width: 1.0;"/><polygon fill="#A80036" points="1871,631.852,1875,622.852,1871,626.852,1867,622.852,1871,631.852" style="stroke: #A80036; stroke-width: 1.0;"/><line style="stroke: #A80036; stroke-width: 1.0;" x1="1871" x2="1871" y1="626.852" y2="618.852"/><polygon fill="#A80036" points="1871,556.234,1867,562.234,1871,568.234,1875,562.234,1871,556.234" style="stroke: #A80036; stroke-width: 1.0;"/><!--link SeparacionAsuntos to TipoElemento--><path d="M514.143,216.049 C531.716,225.397 553.242,235.125 574,240 C635.229,254.379 1078.74,233.731 1140,248 C1175.18,256.196 1211.95,274.02 1239.12,289.224 " fill="none" id="SeparacionAsuntos-TipoElemento" style="stroke: #A80036; stroke-width: 1.0;"/><polygon fill="#A80036" points="1243.73,291.835,1237.8588,283.9275,1239.3758,289.3771,1233.9262,290.8941,1243.73,291.835" style="stroke: #A80036; stroke-width: 1.0;"/><!--link Elemento to ElementoPrimitivo--><path d="M1035.72,414.168 C871.652,395.248 499.468,343.826 203,240 C185.211,233.77 166.552,224.641 150.793,216.082 " fill="none" id="Elemento-ElementoPrimitivo" style="stroke: #A80036; stroke-width: 1.0;"/><polygon fill="none" points="1036.75,407.24,1055.84,416.445,1035.18,421.151,1036.75,407.24" style="stroke: #A80036; stroke-width: 1.0;"/><!--link EstructuraJerarquica to Relacion--><path d="M703.897,167.93 C724.267,156.411 750.316,143.872 775.5,138 C876.783,114.384 909.598,109.093 1009.5,138 C1028.31,143.442 1046.95,154.389 1062.01,165.013 " fill="none" id="EstructuraJerarquica-Relacion" style="stroke: #A80036; stroke-width: 1.0;"/><polygon fill="#A80036" points="1066.16,167.996,1061.1825,159.4975,1062.0986,165.0797,1056.5164,165.9957,1066.16,167.996" style="stroke: #A80036; stroke-width: 1.0;"/><!--link PatronesComunes to Colaboracion--><path d="M325.02,216.03 C340.496,225.252 359.465,234.887 378,240 C417.882,251.001 522.786,244.392 564,248 C727.042,262.272 918.205,290.825 1012.05,305.624 " fill="none" id="PatronesComunes-Colaboracion" style="stroke: #A80036; stroke-width: 1.0;"/><polygon fill="#A80036" points="1016.99,306.405,1008.7152,301.0639,1012.0499,305.6333,1007.4805,308.9681,1016.99,306.405" style="stroke: #A80036; stroke-width: 1.0;"/><!--link Sistema to SistemaIntermedioEstable--><path d="M1037.71,111.751 C1000.695,129.037 953.004,151.307 917.608,167.835 " fill="none" id="Sistema-SistemaIntermedioEstable" style="stroke: #A80036; stroke-width: 1.0;"/><polygon fill="none" points="1034.89,105.342,1055.98,103.222,1040.82,118.027,1034.89,105.342" style="stroke: #A80036; stroke-width: 1.0;"/><!--link Sistema to SistemaComplejo--><path d="M1035.4,84 C903.116,84 770.832,84 638.547,84 " fill="none" id="Sistema-SistemaComplejo" style="stroke: #A80036; stroke-width: 1.0;"/><polygon fill="none" points="1035.77,77,1055.77,84,1035.77,91,1035.77,77" style="stroke: #A80036; stroke-width: 1.0;"/><!--link SistemaComplejo to SeparacionAsuntos--><path d="M541.349,118.084 C529.971,130.78 516.994,145.259 505.619,157.951 " fill="none" id="SistemaComplejo-SeparacionAsuntos" style="stroke: #A80036; stroke-width: 1.0;"/><polygon fill="#A80036" points="496.901,167.678,505.8862,163.6449,500.2378,163.9544,499.9284,158.306,496.901,167.678" style="stroke: #A80036; stroke-width: 1.0;"/><line style="stroke: #A80036; stroke-width: 1.0;" x1="500.2378" x2="505.5775" y1="163.9544" y2="157.9975"/><polygon fill="#A80036" points="550.386,108,543.4028,109.7984,542.3769,116.9362,549.3602,115.1378,550.386,108" style="stroke: #A80036; stroke-width: 1.0;"/><!--link SistemaComplejo to ElementoPrimitivo--><path d="M490.383,102.557 C415.734,118.963 301.698,144.401 203,168 C201.737,168.302 200.465,168.607 199.184,168.916 " fill="none" id="SistemaComplejo-ElementoPrimitivo" style="stroke: #A80036; stroke-width: 1.0;"/><polygon fill="#A80036" points="186.454,172.016,196.145,173.7722,191.3119,170.8326,194.2515,165.9995,186.454,172.016" style="stroke: #A80036; stroke-width: 1.0;"/><line style="stroke: #A80036; stroke-width: 1.0;" x1="191.3119" x2="199.085" y1="170.8326" y2="168.94"/><polygon fill="#A80036" points="503.391,99.702,496.6729,97.0814,491.6701,102.2749,498.3881,104.8954,503.391,99.702" style="stroke: #A80036; stroke-width: 1.0;"/><!--link SistemaComplejo to EstructuraJerarquica--><path d="M600.651,118.084 C612.029,130.78 625.006,145.259 636.381,157.951 " fill="none" id="SistemaComplejo-EstructuraJerarquica" style="stroke: #A80036; stroke-width: 1.0;"/><polygon fill="#A80036" points="645.099,167.678,642.0716,158.306,641.7622,163.9544,636.1138,163.6449,645.099,167.678" style="stroke: #A80036; stroke-width: 1.0;"/><line style="stroke: #A80036; stroke-width: 1.0;" x1="641.7622" x2="636.4225" y1="163.9544" y2="157.9975"/><polygon fill="#A80036" points="591.614,108,592.6398,115.1378,599.6231,116.9362,598.5972,109.7984,591.614,108" style="stroke: #A80036; stroke-width: 1.0;"/><!--link SistemaComplejo to PatronesComunes--><path d="M497.809,112.708 C456.744,128.254 405.662,147.592 364.54,163.16 " fill="none" id="SistemaComplejo-PatronesComunes" style="stroke: #A80036; stroke-width: 1.0;"/><polygon fill="#A80036" points="352.12,167.862,361.9533,168.4161,356.7961,166.0916,359.1206,160.9344,352.12,167.862" style="stroke: #A80036; stroke-width: 1.0;"/><line style="stroke: #A80036; stroke-width: 1.0;" x1="356.7961" x2="364.278" y1="166.0916" y2="163.259"/><polygon fill="#A80036" points="510.244,108,503.2164,106.3837,499.0214,112.249,506.0491,113.8654,510.244,108" style="stroke: #A80036; stroke-width: 1.0;"/><!--link SistemaComplejo to SistemaIntermedioEstable--><path d="M647.733,112.386 C691.78,128.107 746.917,147.785 791.007,163.521 " fill="none" id="SistemaComplejo-SistemaIntermedioEstable" style="stroke: #A80036; stroke-width: 1.0;"/><polygon fill="#A80036" points="803.425,167.953,796.2932,161.1605,798.7159,166.2723,793.6041,168.695,803.425,167.953" style="stroke: #A80036; stroke-width: 1.0;"/><line style="stroke: #A80036; stroke-width: 1.0;" x1="798.7159" x2="791.1815" y1="166.2723" y2="163.5835"/><polygon fill="#A80036" points="635.445,108,639.7513,113.7841,646.7468,112.0336,642.4404,106.2496,635.445,108" style="stroke: #A80036; stroke-width: 1.0;"/><!--
@startuml

together efectividad {

class Eficacia #green

class Eficiencia #green

class Equilibrio #green

class Efectividad #green

class "Solución" as Solucion #green

}

Solucion *-down-> Efectividad

Equilibrio - -> Eficacia
Equilibrio - -> Eficiencia

Efectividad *-down-> Eficacia
Efectividad *-down-> Eficiencia
Efectividad *-down-> Equilibrio

together modularizacion {

class Interfaz #blue

class "Implementación" as Implementacion #blue

class Acoplamiento #blue

class "Cohesión" as Cohesion #blue

}

together sistemas {

class "Tipo de Elemento/Modulo" as TipoElemento #orange

class "Relación" as Relacion #orange

class "Elemento/Módulo" as Elemento #orange

class "Colaboración" as Colaboracion #orange

class Sistema #orange

}

together capacidades {

class "Capacidad Mental" as Capacidad #red

class "Limitación" as Limitacion #red

class "Capacidad Mental Cuantitativa" as CapacidadCuantitativa #red

class "Número Mágico de Miller" as MagicoMiller #red

class "Enfoque Visual" as EnfoqueVisual #red

class "..." as X #red

class "Capacidad Mental Cualitativa" as CapacidadCualitativa #red

class "Abstracción" as Abstraccion #red

class "Encapsulación" as Encapsulacion #red

class "Modularización" as Modularizacion #red

class "Jerarquización" as Jeraquizacion #red

}

Interfaz - -> Implementacion
Interfaz - -> Abstraccion

Implementacion - -> Interfaz
Implementacion - -> Encapsulacion

Acoplamiento - -> Modularizacion
Acoplamiento - -> Jeraquizacion

Cohesion - -> Modularizacion
Cohesion - -> Jeraquizacion

TipoElemento *- -> Acoplamiento
TipoElemento *- -> Cohesion
TipoElemento *- -> Interfaz
TipoElemento *- -> Implementacion

Relacion - -> TipoElemento
Relacion - -> Colaboracion

TipoElemento - -> Elemento

Colaboracion - -> Elemento

Sistema *-down-> TipoElemento
Sistema *-down-> Relacion
Sistema *-down-> Elemento
Sistema *-down-> Colaboracion

Capacidad *-right-> Sistema

Limitacion - -> Solucion

Capacidad<|-down- CapacidadCuantitativa
CapacidadCuantitativa *-down-> Limitacion

Limitacion <|-down- MagicoMiller

Limitacion <|-down- EnfoqueVisual

Limitacion <|-down- X

Capacidad<|-down- CapacidadCualitativa
CapacidadCualitativa -left-> CapacidadCuantitativa

CapacidadCualitativa *-down-> Jeraquizacion
Modularizacion *-down-> Abstraccion
Modularizacion *-down-> Encapsulacion
Jeraquizacion *-down-> Modularizacion

together sistemasComplejos {

class "Separación de Asuntos" as SeparacionAsuntos #yellow

class "Elementos primitivos" as ElementoPrimitivo #yellow

class "Estructura Jerárquica" as EstructuraJerarquica #yellow

class "Patrones Comunes" as PatronesComunes #yellow

class "Sistema Intermedio Estable" as SistemaIntermedioEstable #yellow

class "Sistema Complejo" as SistemaComplejo #yellow

}

SeparacionAsuntos - -> TipoElemento

Elemento <|-down- ElementoPrimitivo

EstructuraJerarquica - -> Relacion

PatronesComunes - -> Colaboracion

Sistema <|-down- SistemaIntermedioEstable


Sistema <|-down- SistemaComplejo
SistemaComplejo *-down-> SeparacionAsuntos
SistemaComplejo *-down-> ElementoPrimitivo
SistemaComplejo *-down-> EstructuraJerarquica
SistemaComplejo *-down-> PatronesComunes
SistemaComplejo *-down-> SistemaIntermedioEstable

@enduml

PlantUML version 1.2019.05(Sat Apr 20 18:45:36 CEST 2019)
(GPL source distribution)
Java Runtime: Java(TM) SE Runtime Environment
JVM: Java HotSpot(TM) 64-Bit Server VM
Java Version: 1.8.0_211-b12
Operating System: Windows 10
OS Version: 10.0
Default Encoding: windows-1252
Language: es
Country: ES
--></g></svg>