<?xml version="1.0" encoding="UTF-8" standalone="no"?><svg xmlns="http://www.w3.org/2000/svg" xmlns:xlink="http://www.w3.org/1999/xlink" contentScriptType="application/ecmascript" contentStyleType="text/css" height="947px" preserveAspectRatio="none" style="width:1039px;height:947px;" version="1.1" viewBox="0 0 1039 947" width="1039px" zoomAndPan="magnify"><defs><filter height="300%" id="fcmov32fyjeix" width="300%" x="-1" y="-1"><feGaussianBlur result="blurOut" stdDeviation="2.0"/><feColorMatrix in="blurOut" result="blurOut2" type="matrix" values="0 0 0 0 0 0 0 0 0 0 0 0 0 0 0 0 0 0 .4 0"/><feOffset dx="4.0" dy="4.0" in="blurOut2" result="blurOut3"/><feBlend in="SourceGraphic" in2="blurOut3" mode="normal"/></filter></defs><g><!--cluster capacidades--><!--cluster modulos--><!--class Abstraccion--><rect fill="#FF0000" filter="url(#fcmov32fyjeix)" height="48" id="Abstraccion" style="stroke: #A80036; stroke-width: 1.5;" width="96" x="426" y="764"/><rect fill="#FF0000" height="32" style="stroke: #A80036; stroke-width: 1.5;" width="96" x="426" y="764"/><ellipse cx="441" cy="780" fill="#ADD1B2" rx="11" ry="11" style="stroke: #A80036; stroke-width: 1.0;"/><path d="M443.7656,775.875 Q443.9219,775.6563 444.1094,775.5469 Q444.2969,775.4375 444.5156,775.4375 Q444.8906,775.4375 445.125,775.6953 Q445.3594,775.9531 445.3594,776.5625 L445.3594,778.0156 Q445.3594,778.625 445.125,778.8906 Q444.8906,779.1563 444.5156,779.1563 Q444.1719,779.1563 443.9688,778.9531 Q443.7656,778.7656 443.6563,778.25 Q443.6094,777.8906 443.4219,777.7031 Q443.0938,777.3281 442.4844,777.1094 Q441.875,776.8906 441.25,776.8906 Q440.4844,776.8906 439.8516,777.2188 Q439.2188,777.5469 438.7266,778.2969 Q438.2344,779.0469 438.2344,780.0781 L438.2344,781.1719 Q438.2344,782.4063 439.125,783.2266 Q440.0156,784.0469 441.6094,784.0469 Q442.5469,784.0469 443.2031,783.7969 Q443.5938,783.6406 444.0156,783.2031 Q444.2813,782.9375 444.4297,782.8594 Q444.5781,782.7813 444.7813,782.7813 Q445.1094,782.7813 445.3672,783.0391 Q445.625,783.2969 445.625,783.6406 Q445.625,783.9844 445.2813,784.3906 Q444.7813,784.9688 443.9844,785.2969 Q442.9063,785.75 441.6094,785.75 Q440.0938,785.75 438.8906,785.125 Q437.9063,784.625 437.2188,783.5547 Q436.5313,782.4844 436.5313,781.2031 L436.5313,780.0469 Q436.5313,778.7188 437.1484,777.5703 Q437.7656,776.4219 438.8594,775.8047 Q439.9531,775.1875 441.1875,775.1875 Q441.9219,775.1875 442.5703,775.3516 Q443.2188,775.5156 443.7656,775.875 Z "/><text fill="#000000" font-family="sans-serif" font-size="12" lengthAdjust="spacingAndGlyphs" textLength="64" x="455" y="784.9102">Abstracción</text><line style="stroke: #A80036; stroke-width: 1.5;" x1="427" x2="521" y1="796" y2="796"/><line style="stroke: #A80036; stroke-width: 1.5;" x1="427" x2="521" y1="804" y2="804"/><!--class OcultacionInformacion--><rect fill="#FF0000" filter="url(#fcmov32fyjeix)" height="48" id="OcultacionInformacion" style="stroke: #A80036; stroke-width: 1.5;" width="175" x="853.5" y="764"/><rect fill="#FF0000" height="32" style="stroke: #A80036; stroke-width: 1.5;" width="175" x="853.5" y="764"/><ellipse cx="868.5" cy="780" fill="#ADD1B2" rx="11" ry="11" style="stroke: #A80036; stroke-width: 1.0;"/><path d="M871.2656,775.875 Q871.4219,775.6563 871.6094,775.5469 Q871.7969,775.4375 872.0156,775.4375 Q872.3906,775.4375 872.625,775.6953 Q872.8594,775.9531 872.8594,776.5625 L872.8594,778.0156 Q872.8594,778.625 872.625,778.8906 Q872.3906,779.1563 872.0156,779.1563 Q871.6719,779.1563 871.4688,778.9531 Q871.2656,778.7656 871.1563,778.25 Q871.1094,777.8906 870.9219,777.7031 Q870.5938,777.3281 869.9844,777.1094 Q869.375,776.8906 868.75,776.8906 Q867.9844,776.8906 867.3516,777.2188 Q866.7188,777.5469 866.2266,778.2969 Q865.7344,779.0469 865.7344,780.0781 L865.7344,781.1719 Q865.7344,782.4063 866.625,783.2266 Q867.5156,784.0469 869.1094,784.0469 Q870.0469,784.0469 870.7031,783.7969 Q871.0938,783.6406 871.5156,783.2031 Q871.7813,782.9375 871.9297,782.8594 Q872.0781,782.7813 872.2813,782.7813 Q872.6094,782.7813 872.8672,783.0391 Q873.125,783.2969 873.125,783.6406 Q873.125,783.9844 872.7813,784.3906 Q872.2813,784.9688 871.4844,785.2969 Q870.4063,785.75 869.1094,785.75 Q867.5938,785.75 866.3906,785.125 Q865.4063,784.625 864.7188,783.5547 Q864.0313,782.4844 864.0313,781.2031 L864.0313,780.0469 Q864.0313,778.7188 864.6484,777.5703 Q865.2656,776.4219 866.3594,775.8047 Q867.4531,775.1875 868.6875,775.1875 Q869.4219,775.1875 870.0703,775.3516 Q870.7188,775.5156 871.2656,775.875 Z "/><text fill="#000000" font-family="sans-serif" font-size="12" lengthAdjust="spacingAndGlyphs" textLength="143" x="882.5" y="784.9102">Ocultacion de Información</text><line style="stroke: #A80036; stroke-width: 1.5;" x1="854.5" x2="1027.5" y1="796" y2="796"/><line style="stroke: #A80036; stroke-width: 1.5;" x1="854.5" x2="1027.5" y1="804" y2="804"/><!--class Modularizacion--><rect fill="#FF0000" filter="url(#fcmov32fyjeix)" height="48" id="Modularizacion" style="stroke: #A80036; stroke-width: 1.5;" width="114" x="704" y="764"/><rect fill="#FF0000" height="32" style="stroke: #A80036; stroke-width: 1.5;" width="114" x="704" y="764"/><ellipse cx="719" cy="780" fill="#ADD1B2" rx="11" ry="11" style="stroke: #A80036; stroke-width: 1.0;"/><path d="M721.7656,775.875 Q721.9219,775.6563 722.1094,775.5469 Q722.2969,775.4375 722.5156,775.4375 Q722.8906,775.4375 723.125,775.6953 Q723.3594,775.9531 723.3594,776.5625 L723.3594,778.0156 Q723.3594,778.625 723.125,778.8906 Q722.8906,779.1563 722.5156,779.1563 Q722.1719,779.1563 721.9688,778.9531 Q721.7656,778.7656 721.6563,778.25 Q721.6094,777.8906 721.4219,777.7031 Q721.0938,777.3281 720.4844,777.1094 Q719.875,776.8906 719.25,776.8906 Q718.4844,776.8906 717.8516,777.2188 Q717.2188,777.5469 716.7266,778.2969 Q716.2344,779.0469 716.2344,780.0781 L716.2344,781.1719 Q716.2344,782.4063 717.125,783.2266 Q718.0156,784.0469 719.6094,784.0469 Q720.5469,784.0469 721.2031,783.7969 Q721.5938,783.6406 722.0156,783.2031 Q722.2813,782.9375 722.4297,782.8594 Q722.5781,782.7813 722.7813,782.7813 Q723.1094,782.7813 723.3672,783.0391 Q723.625,783.2969 723.625,783.6406 Q723.625,783.9844 723.2813,784.3906 Q722.7813,784.9688 721.9844,785.2969 Q720.9063,785.75 719.6094,785.75 Q718.0938,785.75 716.8906,785.125 Q715.9063,784.625 715.2188,783.5547 Q714.5313,782.4844 714.5313,781.2031 L714.5313,780.0469 Q714.5313,778.7188 715.1484,777.5703 Q715.7656,776.4219 716.8594,775.8047 Q717.9531,775.1875 719.1875,775.1875 Q719.9219,775.1875 720.5703,775.3516 Q721.2188,775.5156 721.7656,775.875 Z "/><text fill="#000000" font-family="sans-serif" font-size="12" lengthAdjust="spacingAndGlyphs" textLength="82" x="733" y="784.9102">Modularización</text><line style="stroke: #A80036; stroke-width: 1.5;" x1="705" x2="817" y1="796" y2="796"/><line style="stroke: #A80036; stroke-width: 1.5;" x1="705" x2="817" y1="804" y2="804"/><!--class Jerarquizacion--><rect fill="#FF0000" filter="url(#fcmov32fyjeix)" height="48" id="Jerarquizacion" style="stroke: #A80036; stroke-width: 1.5;" width="112" x="557" y="764"/><rect fill="#FF0000" height="32" style="stroke: #A80036; stroke-width: 1.5;" width="112" x="557" y="764"/><ellipse cx="572" cy="780" fill="#ADD1B2" rx="11" ry="11" style="stroke: #A80036; stroke-width: 1.0;"/><path d="M574.7656,775.875 Q574.9219,775.6563 575.1094,775.5469 Q575.2969,775.4375 575.5156,775.4375 Q575.8906,775.4375 576.125,775.6953 Q576.3594,775.9531 576.3594,776.5625 L576.3594,778.0156 Q576.3594,778.625 576.125,778.8906 Q575.8906,779.1563 575.5156,779.1563 Q575.1719,779.1563 574.9688,778.9531 Q574.7656,778.7656 574.6563,778.25 Q574.6094,777.8906 574.4219,777.7031 Q574.0938,777.3281 573.4844,777.1094 Q572.875,776.8906 572.25,776.8906 Q571.4844,776.8906 570.8516,777.2188 Q570.2188,777.5469 569.7266,778.2969 Q569.2344,779.0469 569.2344,780.0781 L569.2344,781.1719 Q569.2344,782.4063 570.125,783.2266 Q571.0156,784.0469 572.6094,784.0469 Q573.5469,784.0469 574.2031,783.7969 Q574.5938,783.6406 575.0156,783.2031 Q575.2813,782.9375 575.4297,782.8594 Q575.5781,782.7813 575.7813,782.7813 Q576.1094,782.7813 576.3672,783.0391 Q576.625,783.2969 576.625,783.6406 Q576.625,783.9844 576.2813,784.3906 Q575.7813,784.9688 574.9844,785.2969 Q573.9063,785.75 572.6094,785.75 Q571.0938,785.75 569.8906,785.125 Q568.9063,784.625 568.2188,783.5547 Q567.5313,782.4844 567.5313,781.2031 L567.5313,780.0469 Q567.5313,778.7188 568.1484,777.5703 Q568.7656,776.4219 569.8594,775.8047 Q570.9531,775.1875 572.1875,775.1875 Q572.9219,775.1875 573.5703,775.3516 Q574.2188,775.5156 574.7656,775.875 Z "/><text fill="#000000" font-family="sans-serif" font-size="12" lengthAdjust="spacingAndGlyphs" textLength="80" x="586" y="784.9102">Jerarquización</text><line style="stroke: #A80036; stroke-width: 1.5;" x1="558" x2="668" y1="796" y2="796"/><line style="stroke: #A80036; stroke-width: 1.5;" x1="558" x2="668" y1="804" y2="804"/><!--class Interfaz--><rect fill="#0000FF" filter="url(#fcmov32fyjeix)" height="48" id="Interfaz" style="stroke: #A80036; stroke-width: 1.5;" width="71" x="372.5" y="888"/><rect fill="#0000FF" height="32" style="stroke: #A80036; stroke-width: 1.5;" width="71" x="372.5" y="888"/><ellipse cx="387.5" cy="904" fill="#ADD1B2" rx="11" ry="11" style="stroke: #A80036; stroke-width: 1.0;"/><path d="M390.2656,899.875 Q390.4219,899.6563 390.6094,899.5469 Q390.7969,899.4375 391.0156,899.4375 Q391.3906,899.4375 391.625,899.6953 Q391.8594,899.9531 391.8594,900.5625 L391.8594,902.0156 Q391.8594,902.625 391.625,902.8906 Q391.3906,903.1563 391.0156,903.1563 Q390.6719,903.1563 390.4688,902.9531 Q390.2656,902.7656 390.1563,902.25 Q390.1094,901.8906 389.9219,901.7031 Q389.5938,901.3281 388.9844,901.1094 Q388.375,900.8906 387.75,900.8906 Q386.9844,900.8906 386.3516,901.2188 Q385.7188,901.5469 385.2266,902.2969 Q384.7344,903.0469 384.7344,904.0781 L384.7344,905.1719 Q384.7344,906.4063 385.625,907.2266 Q386.5156,908.0469 388.1094,908.0469 Q389.0469,908.0469 389.7031,907.7969 Q390.0938,907.6406 390.5156,907.2031 Q390.7813,906.9375 390.9297,906.8594 Q391.0781,906.7813 391.2813,906.7813 Q391.6094,906.7813 391.8672,907.0391 Q392.125,907.2969 392.125,907.6406 Q392.125,907.9844 391.7813,908.3906 Q391.2813,908.9688 390.4844,909.2969 Q389.4063,909.75 388.1094,909.75 Q386.5938,909.75 385.3906,909.125 Q384.4063,908.625 383.7188,907.5547 Q383.0313,906.4844 383.0313,905.2031 L383.0313,904.0469 Q383.0313,902.7188 383.6484,901.5703 Q384.2656,900.4219 385.3594,899.8047 Q386.4531,899.1875 387.6875,899.1875 Q388.4219,899.1875 389.0703,899.3516 Q389.7188,899.5156 390.2656,899.875 Z "/><text fill="#000000" font-family="sans-serif" font-size="12" lengthAdjust="spacingAndGlyphs" textLength="39" x="401.5" y="908.9102">Interfaz</text><line style="stroke: #A80036; stroke-width: 1.5;" x1="373.5" x2="442.5" y1="920" y2="920"/><line style="stroke: #A80036; stroke-width: 1.5;" x1="373.5" x2="442.5" y1="928" y2="928"/><!--class Implementacion--><rect fill="#0000FF" filter="url(#fcmov32fyjeix)" height="48" id="Implementacion" style="stroke: #A80036; stroke-width: 1.5;" width="121" x="742.5" y="888"/><rect fill="#0000FF" height="32" style="stroke: #A80036; stroke-width: 1.5;" width="121" x="742.5" y="888"/><ellipse cx="757.5" cy="904" fill="#ADD1B2" rx="11" ry="11" style="stroke: #A80036; stroke-width: 1.0;"/><path d="M760.2656,899.875 Q760.4219,899.6563 760.6094,899.5469 Q760.7969,899.4375 761.0156,899.4375 Q761.3906,899.4375 761.625,899.6953 Q761.8594,899.9531 761.8594,900.5625 L761.8594,902.0156 Q761.8594,902.625 761.625,902.8906 Q761.3906,903.1563 761.0156,903.1563 Q760.6719,903.1563 760.4688,902.9531 Q760.2656,902.7656 760.1563,902.25 Q760.1094,901.8906 759.9219,901.7031 Q759.5938,901.3281 758.9844,901.1094 Q758.375,900.8906 757.75,900.8906 Q756.9844,900.8906 756.3516,901.2188 Q755.7188,901.5469 755.2266,902.2969 Q754.7344,903.0469 754.7344,904.0781 L754.7344,905.1719 Q754.7344,906.4063 755.625,907.2266 Q756.5156,908.0469 758.1094,908.0469 Q759.0469,908.0469 759.7031,907.7969 Q760.0938,907.6406 760.5156,907.2031 Q760.7813,906.9375 760.9297,906.8594 Q761.0781,906.7813 761.2813,906.7813 Q761.6094,906.7813 761.8672,907.0391 Q762.125,907.2969 762.125,907.6406 Q762.125,907.9844 761.7813,908.3906 Q761.2813,908.9688 760.4844,909.2969 Q759.4063,909.75 758.1094,909.75 Q756.5938,909.75 755.3906,909.125 Q754.4063,908.625 753.7188,907.5547 Q753.0313,906.4844 753.0313,905.2031 L753.0313,904.0469 Q753.0313,902.7188 753.6484,901.5703 Q754.2656,900.4219 755.3594,899.8047 Q756.4531,899.1875 757.6875,899.1875 Q758.4219,899.1875 759.0703,899.3516 Q759.7188,899.5156 760.2656,899.875 Z "/><text fill="#000000" font-family="sans-serif" font-size="12" lengthAdjust="spacingAndGlyphs" textLength="89" x="771.5" y="908.9102">Implementacion</text><line style="stroke: #A80036; stroke-width: 1.5;" x1="743.5" x2="862.5" y1="920" y2="920"/><line style="stroke: #A80036; stroke-width: 1.5;" x1="743.5" x2="862.5" y1="928" y2="928"/><!--class Cohesion--><rect fill="#0000FF" filter="url(#fcmov32fyjeix)" height="48" id="Cohesion" style="stroke: #A80036; stroke-width: 1.5;" width="86" x="621" y="888"/><rect fill="#0000FF" height="32" style="stroke: #A80036; stroke-width: 1.5;" width="86" x="621" y="888"/><ellipse cx="636" cy="904" fill="#ADD1B2" rx="11" ry="11" style="stroke: #A80036; stroke-width: 1.0;"/><path d="M638.7656,899.875 Q638.9219,899.6563 639.1094,899.5469 Q639.2969,899.4375 639.5156,899.4375 Q639.8906,899.4375 640.125,899.6953 Q640.3594,899.9531 640.3594,900.5625 L640.3594,902.0156 Q640.3594,902.625 640.125,902.8906 Q639.8906,903.1563 639.5156,903.1563 Q639.1719,903.1563 638.9688,902.9531 Q638.7656,902.7656 638.6563,902.25 Q638.6094,901.8906 638.4219,901.7031 Q638.0938,901.3281 637.4844,901.1094 Q636.875,900.8906 636.25,900.8906 Q635.4844,900.8906 634.8516,901.2188 Q634.2188,901.5469 633.7266,902.2969 Q633.2344,903.0469 633.2344,904.0781 L633.2344,905.1719 Q633.2344,906.4063 634.125,907.2266 Q635.0156,908.0469 636.6094,908.0469 Q637.5469,908.0469 638.2031,907.7969 Q638.5938,907.6406 639.0156,907.2031 Q639.2813,906.9375 639.4297,906.8594 Q639.5781,906.7813 639.7813,906.7813 Q640.1094,906.7813 640.3672,907.0391 Q640.625,907.2969 640.625,907.6406 Q640.625,907.9844 640.2813,908.3906 Q639.7813,908.9688 638.9844,909.2969 Q637.9063,909.75 636.6094,909.75 Q635.0938,909.75 633.8906,909.125 Q632.9063,908.625 632.2188,907.5547 Q631.5313,906.4844 631.5313,905.2031 L631.5313,904.0469 Q631.5313,902.7188 632.1484,901.5703 Q632.7656,900.4219 633.8594,899.8047 Q634.9531,899.1875 636.1875,899.1875 Q636.9219,899.1875 637.5703,899.3516 Q638.2188,899.5156 638.7656,899.875 Z "/><text fill="#000000" font-family="sans-serif" font-size="12" lengthAdjust="spacingAndGlyphs" textLength="54" x="650" y="908.9102">Cohesion</text><line style="stroke: #A80036; stroke-width: 1.5;" x1="622" x2="706" y1="920" y2="920"/><line style="stroke: #A80036; stroke-width: 1.5;" x1="622" x2="706" y1="928" y2="928"/><!--class Acoplamiento--><rect fill="#0000FF" filter="url(#fcmov32fyjeix)" height="48" id="Acoplamiento" style="stroke: #A80036; stroke-width: 1.5;" width="107" x="478.5" y="888"/><rect fill="#0000FF" height="32" style="stroke: #A80036; stroke-width: 1.5;" width="107" x="478.5" y="888"/><ellipse cx="493.5" cy="904" fill="#ADD1B2" rx="11" ry="11" style="stroke: #A80036; stroke-width: 1.0;"/><path d="M496.2656,899.875 Q496.4219,899.6563 496.6094,899.5469 Q496.7969,899.4375 497.0156,899.4375 Q497.3906,899.4375 497.625,899.6953 Q497.8594,899.9531 497.8594,900.5625 L497.8594,902.0156 Q497.8594,902.625 497.625,902.8906 Q497.3906,903.1563 497.0156,903.1563 Q496.6719,903.1563 496.4688,902.9531 Q496.2656,902.7656 496.1563,902.25 Q496.1094,901.8906 495.9219,901.7031 Q495.5938,901.3281 494.9844,901.1094 Q494.375,900.8906 493.75,900.8906 Q492.9844,900.8906 492.3516,901.2188 Q491.7188,901.5469 491.2266,902.2969 Q490.7344,903.0469 490.7344,904.0781 L490.7344,905.1719 Q490.7344,906.4063 491.625,907.2266 Q492.5156,908.0469 494.1094,908.0469 Q495.0469,908.0469 495.7031,907.7969 Q496.0938,907.6406 496.5156,907.2031 Q496.7813,906.9375 496.9297,906.8594 Q497.0781,906.7813 497.2813,906.7813 Q497.6094,906.7813 497.8672,907.0391 Q498.125,907.2969 498.125,907.6406 Q498.125,907.9844 497.7813,908.3906 Q497.2813,908.9688 496.4844,909.2969 Q495.4063,909.75 494.1094,909.75 Q492.5938,909.75 491.3906,909.125 Q490.4063,908.625 489.7188,907.5547 Q489.0313,906.4844 489.0313,905.2031 L489.0313,904.0469 Q489.0313,902.7188 489.6484,901.5703 Q490.2656,900.4219 491.3594,899.8047 Q492.4531,899.1875 493.6875,899.1875 Q494.4219,899.1875 495.0703,899.3516 Q495.7188,899.5156 496.2656,899.875 Z "/><text fill="#000000" font-family="sans-serif" font-size="12" lengthAdjust="spacingAndGlyphs" textLength="75" x="507.5" y="908.9102">Acoplamiento</text><line style="stroke: #A80036; stroke-width: 1.5;" x1="479.5" x2="584.5" y1="920" y2="920"/><line style="stroke: #A80036; stroke-width: 1.5;" x1="479.5" x2="584.5" y1="928" y2="928"/><!--class Universo--><rect fill="#FEFECE" filter="url(#fcmov32fyjeix)" height="48" id="Universo" style="stroke: #A80036; stroke-width: 1.5;" width="81" x="396.5" y="8"/><ellipse cx="411.5" cy="24" fill="#ADD1B2" rx="11" ry="11" style="stroke: #A80036; stroke-width: 1.0;"/><path d="M414.2656,19.875 Q414.4219,19.6563 414.6094,19.5469 Q414.7969,19.4375 415.0156,19.4375 Q415.3906,19.4375 415.625,19.6953 Q415.8594,19.9531 415.8594,20.5625 L415.8594,22.0156 Q415.8594,22.625 415.625,22.8906 Q415.3906,23.1563 415.0156,23.1563 Q414.6719,23.1563 414.4688,22.9531 Q414.2656,22.7656 414.1563,22.25 Q414.1094,21.8906 413.9219,21.7031 Q413.5938,21.3281 412.9844,21.1094 Q412.375,20.8906 411.75,20.8906 Q410.9844,20.8906 410.3516,21.2188 Q409.7188,21.5469 409.2266,22.2969 Q408.7344,23.0469 408.7344,24.0781 L408.7344,25.1719 Q408.7344,26.4063 409.625,27.2266 Q410.5156,28.0469 412.1094,28.0469 Q413.0469,28.0469 413.7031,27.7969 Q414.0938,27.6406 414.5156,27.2031 Q414.7813,26.9375 414.9297,26.8594 Q415.0781,26.7813 415.2813,26.7813 Q415.6094,26.7813 415.8672,27.0391 Q416.125,27.2969 416.125,27.6406 Q416.125,27.9844 415.7813,28.3906 Q415.2813,28.9688 414.4844,29.2969 Q413.4063,29.75 412.1094,29.75 Q410.5938,29.75 409.3906,29.125 Q408.4063,28.625 407.7188,27.5547 Q407.0313,26.4844 407.0313,25.2031 L407.0313,24.0469 Q407.0313,22.7188 407.6484,21.5703 Q408.2656,20.4219 409.3594,19.8047 Q410.4531,19.1875 411.6875,19.1875 Q412.4219,19.1875 413.0703,19.3516 Q413.7188,19.5156 414.2656,19.875 Z "/><text fill="#000000" font-family="sans-serif" font-size="12" lengthAdjust="spacingAndGlyphs" textLength="49" x="425.5" y="28.9102">Universo</text><line style="stroke: #A80036; stroke-width: 1.5;" x1="397.5" x2="476.5" y1="40" y2="40"/><line style="stroke: #A80036; stroke-width: 1.5;" x1="397.5" x2="476.5" y1="48" y2="48"/><!--class Sistema--><rect fill="#FFA500" filter="url(#fcmov32fyjeix)" height="48" id="Sistema" style="stroke: #A80036; stroke-width: 1.5;" width="78" x="398" y="116"/><rect fill="#FFA500" height="32" style="stroke: #A80036; stroke-width: 1.5;" width="78" x="398" y="116"/><ellipse cx="413" cy="132" fill="#ADD1B2" rx="11" ry="11" style="stroke: #A80036; stroke-width: 1.0;"/><path d="M415.7656,127.875 Q415.9219,127.6563 416.1094,127.5469 Q416.2969,127.4375 416.5156,127.4375 Q416.8906,127.4375 417.125,127.6953 Q417.3594,127.9531 417.3594,128.5625 L417.3594,130.0156 Q417.3594,130.625 417.125,130.8906 Q416.8906,131.1563 416.5156,131.1563 Q416.1719,131.1563 415.9688,130.9531 Q415.7656,130.7656 415.6563,130.25 Q415.6094,129.8906 415.4219,129.7031 Q415.0938,129.3281 414.4844,129.1094 Q413.875,128.8906 413.25,128.8906 Q412.4844,128.8906 411.8516,129.2188 Q411.2188,129.5469 410.7266,130.2969 Q410.2344,131.0469 410.2344,132.0781 L410.2344,133.1719 Q410.2344,134.4063 411.125,135.2266 Q412.0156,136.0469 413.6094,136.0469 Q414.5469,136.0469 415.2031,135.7969 Q415.5938,135.6406 416.0156,135.2031 Q416.2813,134.9375 416.4297,134.8594 Q416.5781,134.7813 416.7813,134.7813 Q417.1094,134.7813 417.3672,135.0391 Q417.625,135.2969 417.625,135.6406 Q417.625,135.9844 417.2813,136.3906 Q416.7813,136.9688 415.9844,137.2969 Q414.9063,137.75 413.6094,137.75 Q412.0938,137.75 410.8906,137.125 Q409.9063,136.625 409.2188,135.5547 Q408.5313,134.4844 408.5313,133.2031 L408.5313,132.0469 Q408.5313,130.7188 409.1484,129.5703 Q409.7656,128.4219 410.8594,127.8047 Q411.9531,127.1875 413.1875,127.1875 Q413.9219,127.1875 414.5703,127.3516 Q415.2188,127.5156 415.7656,127.875 Z "/><text fill="#000000" font-family="sans-serif" font-size="12" lengthAdjust="spacingAndGlyphs" textLength="46" x="427" y="136.9102">Sistema</text><line style="stroke: #A80036; stroke-width: 1.5;" x1="399" x2="475" y1="148" y2="148"/><line style="stroke: #A80036; stroke-width: 1.5;" x1="399" x2="475" y1="156" y2="156"/><!--class Modulo--><rect fill="#FFA500" filter="url(#fcmov32fyjeix)" height="48" id="Modulo" style="stroke: #A80036; stroke-width: 1.5;" width="72" x="319" y="764"/><rect fill="#FFA500" height="32" style="stroke: #A80036; stroke-width: 1.5;" width="72" x="319" y="764"/><ellipse cx="334" cy="780" fill="#ADD1B2" rx="11" ry="11" style="stroke: #A80036; stroke-width: 1.0;"/><path d="M336.7656,775.875 Q336.9219,775.6563 337.1094,775.5469 Q337.2969,775.4375 337.5156,775.4375 Q337.8906,775.4375 338.125,775.6953 Q338.3594,775.9531 338.3594,776.5625 L338.3594,778.0156 Q338.3594,778.625 338.125,778.8906 Q337.8906,779.1563 337.5156,779.1563 Q337.1719,779.1563 336.9688,778.9531 Q336.7656,778.7656 336.6563,778.25 Q336.6094,777.8906 336.4219,777.7031 Q336.0938,777.3281 335.4844,777.1094 Q334.875,776.8906 334.25,776.8906 Q333.4844,776.8906 332.8516,777.2188 Q332.2188,777.5469 331.7266,778.2969 Q331.2344,779.0469 331.2344,780.0781 L331.2344,781.1719 Q331.2344,782.4063 332.125,783.2266 Q333.0156,784.0469 334.6094,784.0469 Q335.5469,784.0469 336.2031,783.7969 Q336.5938,783.6406 337.0156,783.2031 Q337.2813,782.9375 337.4297,782.8594 Q337.5781,782.7813 337.7813,782.7813 Q338.1094,782.7813 338.3672,783.0391 Q338.625,783.2969 338.625,783.6406 Q338.625,783.9844 338.2813,784.3906 Q337.7813,784.9688 336.9844,785.2969 Q335.9063,785.75 334.6094,785.75 Q333.0938,785.75 331.8906,785.125 Q330.9063,784.625 330.2188,783.5547 Q329.5313,782.4844 329.5313,781.2031 L329.5313,780.0469 Q329.5313,778.7188 330.1484,777.5703 Q330.7656,776.4219 331.8594,775.8047 Q332.9531,775.1875 334.1875,775.1875 Q334.9219,775.1875 335.5703,775.3516 Q336.2188,775.5156 336.7656,775.875 Z "/><text fill="#000000" font-family="sans-serif" font-size="12" lengthAdjust="spacingAndGlyphs" textLength="40" x="348" y="784.9102">Modulo</text><line style="stroke: #A80036; stroke-width: 1.5;" x1="320" x2="390" y1="796" y2="796"/><line style="stroke: #A80036; stroke-width: 1.5;" x1="320" x2="390" y1="804" y2="804"/><!--class SistemaComplejo--><rect fill="#FFFF00" filter="url(#fcmov32fyjeix)" height="48" id="SistemaComplejo" style="stroke: #A80036; stroke-width: 1.5;" width="135" x="452.5" y="224"/><rect fill="#FFFF00" height="32" style="stroke: #A80036; stroke-width: 1.5;" width="135" x="452.5" y="224"/><ellipse cx="467.5" cy="240" fill="#ADD1B2" rx="11" ry="11" style="stroke: #A80036; stroke-width: 1.0;"/><path d="M470.2656,235.875 Q470.4219,235.6563 470.6094,235.5469 Q470.7969,235.4375 471.0156,235.4375 Q471.3906,235.4375 471.625,235.6953 Q471.8594,235.9531 471.8594,236.5625 L471.8594,238.0156 Q471.8594,238.625 471.625,238.8906 Q471.3906,239.1563 471.0156,239.1563 Q470.6719,239.1563 470.4688,238.9531 Q470.2656,238.7656 470.1563,238.25 Q470.1094,237.8906 469.9219,237.7031 Q469.5938,237.3281 468.9844,237.1094 Q468.375,236.8906 467.75,236.8906 Q466.9844,236.8906 466.3516,237.2188 Q465.7188,237.5469 465.2266,238.2969 Q464.7344,239.0469 464.7344,240.0781 L464.7344,241.1719 Q464.7344,242.4063 465.625,243.2266 Q466.5156,244.0469 468.1094,244.0469 Q469.0469,244.0469 469.7031,243.7969 Q470.0938,243.6406 470.5156,243.2031 Q470.7813,242.9375 470.9297,242.8594 Q471.0781,242.7813 471.2813,242.7813 Q471.6094,242.7813 471.8672,243.0391 Q472.125,243.2969 472.125,243.6406 Q472.125,243.9844 471.7813,244.3906 Q471.2813,244.9688 470.4844,245.2969 Q469.4063,245.75 468.1094,245.75 Q466.5938,245.75 465.3906,245.125 Q464.4063,244.625 463.7188,243.5547 Q463.0313,242.4844 463.0313,241.2031 L463.0313,240.0469 Q463.0313,238.7188 463.6484,237.5703 Q464.2656,236.4219 465.3594,235.8047 Q466.4531,235.1875 467.6875,235.1875 Q468.4219,235.1875 469.0703,235.3516 Q469.7188,235.5156 470.2656,235.875 Z "/><text fill="#000000" font-family="sans-serif" font-size="12" lengthAdjust="spacingAndGlyphs" textLength="103" x="481.5" y="244.9102">Sistema Complejo</text><line style="stroke: #A80036; stroke-width: 1.5;" x1="453.5" x2="586.5" y1="256" y2="256"/><line style="stroke: #A80036; stroke-width: 1.5;" x1="453.5" x2="586.5" y1="264" y2="264"/><!--class Ecosistema--><rect fill="#FEFECE" filter="url(#fcmov32fyjeix)" height="48" id="Ecosistema" style="stroke: #A80036; stroke-width: 1.5;" width="98" x="516" y="332"/><ellipse cx="531" cy="348" fill="#ADD1B2" rx="11" ry="11" style="stroke: #A80036; stroke-width: 1.0;"/><path d="M533.7656,343.875 Q533.9219,343.6563 534.1094,343.5469 Q534.2969,343.4375 534.5156,343.4375 Q534.8906,343.4375 535.125,343.6953 Q535.3594,343.9531 535.3594,344.5625 L535.3594,346.0156 Q535.3594,346.625 535.125,346.8906 Q534.8906,347.1563 534.5156,347.1563 Q534.1719,347.1563 533.9688,346.9531 Q533.7656,346.7656 533.6563,346.25 Q533.6094,345.8906 533.4219,345.7031 Q533.0938,345.3281 532.4844,345.1094 Q531.875,344.8906 531.25,344.8906 Q530.4844,344.8906 529.8516,345.2188 Q529.2188,345.5469 528.7266,346.2969 Q528.2344,347.0469 528.2344,348.0781 L528.2344,349.1719 Q528.2344,350.4063 529.125,351.2266 Q530.0156,352.0469 531.6094,352.0469 Q532.5469,352.0469 533.2031,351.7969 Q533.5938,351.6406 534.0156,351.2031 Q534.2813,350.9375 534.4297,350.8594 Q534.5781,350.7813 534.7813,350.7813 Q535.1094,350.7813 535.3672,351.0391 Q535.625,351.2969 535.625,351.6406 Q535.625,351.9844 535.2813,352.3906 Q534.7813,352.9688 533.9844,353.2969 Q532.9063,353.75 531.6094,353.75 Q530.0938,353.75 528.8906,353.125 Q527.9063,352.625 527.2188,351.5547 Q526.5313,350.4844 526.5313,349.2031 L526.5313,348.0469 Q526.5313,346.7188 527.1484,345.5703 Q527.7656,344.4219 528.8594,343.8047 Q529.9531,343.1875 531.1875,343.1875 Q531.9219,343.1875 532.5703,343.3516 Q533.2188,343.5156 533.7656,343.875 Z "/><text fill="#000000" font-family="sans-serif" font-size="12" lengthAdjust="spacingAndGlyphs" textLength="66" x="545" y="352.9102">Ecosistema</text><line style="stroke: #A80036; stroke-width: 1.5;" x1="517" x2="613" y1="364" y2="364"/><line style="stroke: #A80036; stroke-width: 1.5;" x1="517" x2="613" y1="372" y2="372"/><!--class Persona--><rect fill="#FEFECE" filter="url(#fcmov32fyjeix)" height="48" id="Persona" style="stroke: #A80036; stroke-width: 1.5;" width="79" x="525.5" y="440"/><ellipse cx="540.5" cy="456" fill="#ADD1B2" rx="11" ry="11" style="stroke: #A80036; stroke-width: 1.0;"/><path d="M543.2656,451.875 Q543.4219,451.6563 543.6094,451.5469 Q543.7969,451.4375 544.0156,451.4375 Q544.3906,451.4375 544.625,451.6953 Q544.8594,451.9531 544.8594,452.5625 L544.8594,454.0156 Q544.8594,454.625 544.625,454.8906 Q544.3906,455.1563 544.0156,455.1563 Q543.6719,455.1563 543.4688,454.9531 Q543.2656,454.7656 543.1563,454.25 Q543.1094,453.8906 542.9219,453.7031 Q542.5938,453.3281 541.9844,453.1094 Q541.375,452.8906 540.75,452.8906 Q539.9844,452.8906 539.3516,453.2188 Q538.7188,453.5469 538.2266,454.2969 Q537.7344,455.0469 537.7344,456.0781 L537.7344,457.1719 Q537.7344,458.4063 538.625,459.2266 Q539.5156,460.0469 541.1094,460.0469 Q542.0469,460.0469 542.7031,459.7969 Q543.0938,459.6406 543.5156,459.2031 Q543.7813,458.9375 543.9297,458.8594 Q544.0781,458.7813 544.2813,458.7813 Q544.6094,458.7813 544.8672,459.0391 Q545.125,459.2969 545.125,459.6406 Q545.125,459.9844 544.7813,460.3906 Q544.2813,460.9688 543.4844,461.2969 Q542.4063,461.75 541.1094,461.75 Q539.5938,461.75 538.3906,461.125 Q537.4063,460.625 536.7188,459.5547 Q536.0313,458.4844 536.0313,457.2031 L536.0313,456.0469 Q536.0313,454.7188 536.6484,453.5703 Q537.2656,452.4219 538.3594,451.8047 Q539.4531,451.1875 540.6875,451.1875 Q541.4219,451.1875 542.0703,451.3516 Q542.7188,451.5156 543.2656,451.875 Z "/><text fill="#000000" font-family="sans-serif" font-size="12" lengthAdjust="spacingAndGlyphs" textLength="47" x="554.5" y="460.9102">Persona</text><line style="stroke: #A80036; stroke-width: 1.5;" x1="526.5" x2="603.5" y1="472" y2="472"/><line style="stroke: #A80036; stroke-width: 1.5;" x1="526.5" x2="603.5" y1="480" y2="480"/><!--class Necesidad--><rect fill="#FEFECE" filter="url(#fcmov32fyjeix)" height="48" id="Necesidad" style="stroke: #A80036; stroke-width: 1.5;" width="92" x="620" y="548"/><ellipse cx="635" cy="564" fill="#ADD1B2" rx="11" ry="11" style="stroke: #A80036; stroke-width: 1.0;"/><path d="M637.7656,559.875 Q637.9219,559.6563 638.1094,559.5469 Q638.2969,559.4375 638.5156,559.4375 Q638.8906,559.4375 639.125,559.6953 Q639.3594,559.9531 639.3594,560.5625 L639.3594,562.0156 Q639.3594,562.625 639.125,562.8906 Q638.8906,563.1563 638.5156,563.1563 Q638.1719,563.1563 637.9688,562.9531 Q637.7656,562.7656 637.6563,562.25 Q637.6094,561.8906 637.4219,561.7031 Q637.0938,561.3281 636.4844,561.1094 Q635.875,560.8906 635.25,560.8906 Q634.4844,560.8906 633.8516,561.2188 Q633.2188,561.5469 632.7266,562.2969 Q632.2344,563.0469 632.2344,564.0781 L632.2344,565.1719 Q632.2344,566.4063 633.125,567.2266 Q634.0156,568.0469 635.6094,568.0469 Q636.5469,568.0469 637.2031,567.7969 Q637.5938,567.6406 638.0156,567.2031 Q638.2813,566.9375 638.4297,566.8594 Q638.5781,566.7813 638.7813,566.7813 Q639.1094,566.7813 639.3672,567.0391 Q639.625,567.2969 639.625,567.6406 Q639.625,567.9844 639.2813,568.3906 Q638.7813,568.9688 637.9844,569.2969 Q636.9063,569.75 635.6094,569.75 Q634.0938,569.75 632.8906,569.125 Q631.9063,568.625 631.2188,567.5547 Q630.5313,566.4844 630.5313,565.2031 L630.5313,564.0469 Q630.5313,562.7188 631.1484,561.5703 Q631.7656,560.4219 632.8594,559.8047 Q633.9531,559.1875 635.1875,559.1875 Q635.9219,559.1875 636.5703,559.3516 Q637.2188,559.5156 637.7656,559.875 Z "/><text fill="#000000" font-family="sans-serif" font-size="12" lengthAdjust="spacingAndGlyphs" textLength="60" x="649" y="568.9102">Necesidad</text><line style="stroke: #A80036; stroke-width: 1.5;" x1="621" x2="711" y1="580" y2="580"/><line style="stroke: #A80036; stroke-width: 1.5;" x1="621" x2="711" y1="588" y2="588"/><!--class Capacidad--><rect fill="#FF0000" filter="url(#fcmov32fyjeix)" height="48" id="Capacidad" style="stroke: #A80036; stroke-width: 1.5;" width="92" x="535" y="656"/><rect fill="#FF0000" height="32" style="stroke: #A80036; stroke-width: 1.5;" width="92" x="535" y="656"/><ellipse cx="550" cy="672" fill="#ADD1B2" rx="11" ry="11" style="stroke: #A80036; stroke-width: 1.0;"/><path d="M552.7656,667.875 Q552.9219,667.6563 553.1094,667.5469 Q553.2969,667.4375 553.5156,667.4375 Q553.8906,667.4375 554.125,667.6953 Q554.3594,667.9531 554.3594,668.5625 L554.3594,670.0156 Q554.3594,670.625 554.125,670.8906 Q553.8906,671.1563 553.5156,671.1563 Q553.1719,671.1563 552.9688,670.9531 Q552.7656,670.7656 552.6563,670.25 Q552.6094,669.8906 552.4219,669.7031 Q552.0938,669.3281 551.4844,669.1094 Q550.875,668.8906 550.25,668.8906 Q549.4844,668.8906 548.8516,669.2188 Q548.2188,669.5469 547.7266,670.2969 Q547.2344,671.0469 547.2344,672.0781 L547.2344,673.1719 Q547.2344,674.4063 548.125,675.2266 Q549.0156,676.0469 550.6094,676.0469 Q551.5469,676.0469 552.2031,675.7969 Q552.5938,675.6406 553.0156,675.2031 Q553.2813,674.9375 553.4297,674.8594 Q553.5781,674.7813 553.7813,674.7813 Q554.1094,674.7813 554.3672,675.0391 Q554.625,675.2969 554.625,675.6406 Q554.625,675.9844 554.2813,676.3906 Q553.7813,676.9688 552.9844,677.2969 Q551.9063,677.75 550.6094,677.75 Q549.0938,677.75 547.8906,677.125 Q546.9063,676.625 546.2188,675.5547 Q545.5313,674.4844 545.5313,673.2031 L545.5313,672.0469 Q545.5313,670.7188 546.1484,669.5703 Q546.7656,668.4219 547.8594,667.8047 Q548.9531,667.1875 550.1875,667.1875 Q550.9219,667.1875 551.5703,667.3516 Q552.2188,667.5156 552.7656,667.875 Z "/><text fill="#000000" font-family="sans-serif" font-size="12" lengthAdjust="spacingAndGlyphs" textLength="60" x="564" y="676.9102">Capacidad</text><line style="stroke: #A80036; stroke-width: 1.5;" x1="536" x2="626" y1="688" y2="688"/><line style="stroke: #A80036; stroke-width: 1.5;" x1="536" x2="626" y1="696" y2="696"/><!--class Solucion--><rect fill="#008000" filter="url(#fcmov32fyjeix)" height="48" id="Solucion" style="stroke: #A80036; stroke-width: 1.5;" width="80" x="427" y="548"/><rect fill="#008000" height="32" style="stroke: #A80036; stroke-width: 1.5;" width="80" x="427" y="548"/><ellipse cx="442" cy="564" fill="#ADD1B2" rx="11" ry="11" style="stroke: #A80036; stroke-width: 1.0;"/><path d="M444.7656,559.875 Q444.9219,559.6563 445.1094,559.5469 Q445.2969,559.4375 445.5156,559.4375 Q445.8906,559.4375 446.125,559.6953 Q446.3594,559.9531 446.3594,560.5625 L446.3594,562.0156 Q446.3594,562.625 446.125,562.8906 Q445.8906,563.1563 445.5156,563.1563 Q445.1719,563.1563 444.9688,562.9531 Q444.7656,562.7656 444.6563,562.25 Q444.6094,561.8906 444.4219,561.7031 Q444.0938,561.3281 443.4844,561.1094 Q442.875,560.8906 442.25,560.8906 Q441.4844,560.8906 440.8516,561.2188 Q440.2188,561.5469 439.7266,562.2969 Q439.2344,563.0469 439.2344,564.0781 L439.2344,565.1719 Q439.2344,566.4063 440.125,567.2266 Q441.0156,568.0469 442.6094,568.0469 Q443.5469,568.0469 444.2031,567.7969 Q444.5938,567.6406 445.0156,567.2031 Q445.2813,566.9375 445.4297,566.8594 Q445.5781,566.7813 445.7813,566.7813 Q446.1094,566.7813 446.3672,567.0391 Q446.625,567.2969 446.625,567.6406 Q446.625,567.9844 446.2813,568.3906 Q445.7813,568.9688 444.9844,569.2969 Q443.9063,569.75 442.6094,569.75 Q441.0938,569.75 439.8906,569.125 Q438.9063,568.625 438.2188,567.5547 Q437.5313,566.4844 437.5313,565.2031 L437.5313,564.0469 Q437.5313,562.7188 438.1484,561.5703 Q438.7656,560.4219 439.8594,559.8047 Q440.9531,559.1875 442.1875,559.1875 Q442.9219,559.1875 443.5703,559.3516 Q444.2188,559.5156 444.7656,559.875 Z "/><text fill="#000000" font-family="sans-serif" font-size="12" lengthAdjust="spacingAndGlyphs" textLength="48" x="456" y="568.9102">Solucion</text><line style="stroke: #A80036; stroke-width: 1.5;" x1="428" x2="506" y1="580" y2="580"/><line style="stroke: #A80036; stroke-width: 1.5;" x1="428" x2="506" y1="588" y2="588"/><!--class Limitacion--><rect fill="#FF0000" filter="url(#fcmov32fyjeix)" height="48" id="Limitacion" style="stroke: #A80036; stroke-width: 1.5;" width="89" x="194.5" y="764"/><rect fill="#FF0000" height="32" style="stroke: #A80036; stroke-width: 1.5;" width="89" x="194.5" y="764"/><ellipse cx="209.5" cy="780" fill="#ADD1B2" rx="11" ry="11" style="stroke: #A80036; stroke-width: 1.0;"/><path d="M212.2656,775.875 Q212.4219,775.6563 212.6094,775.5469 Q212.7969,775.4375 213.0156,775.4375 Q213.3906,775.4375 213.625,775.6953 Q213.8594,775.9531 213.8594,776.5625 L213.8594,778.0156 Q213.8594,778.625 213.625,778.8906 Q213.3906,779.1563 213.0156,779.1563 Q212.6719,779.1563 212.4688,778.9531 Q212.2656,778.7656 212.1563,778.25 Q212.1094,777.8906 211.9219,777.7031 Q211.5938,777.3281 210.9844,777.1094 Q210.375,776.8906 209.75,776.8906 Q208.9844,776.8906 208.3516,777.2188 Q207.7188,777.5469 207.2266,778.2969 Q206.7344,779.0469 206.7344,780.0781 L206.7344,781.1719 Q206.7344,782.4063 207.625,783.2266 Q208.5156,784.0469 210.1094,784.0469 Q211.0469,784.0469 211.7031,783.7969 Q212.0938,783.6406 212.5156,783.2031 Q212.7813,782.9375 212.9297,782.8594 Q213.0781,782.7813 213.2813,782.7813 Q213.6094,782.7813 213.8672,783.0391 Q214.125,783.2969 214.125,783.6406 Q214.125,783.9844 213.7813,784.3906 Q213.2813,784.9688 212.4844,785.2969 Q211.4063,785.75 210.1094,785.75 Q208.5938,785.75 207.3906,785.125 Q206.4063,784.625 205.7188,783.5547 Q205.0313,782.4844 205.0313,781.2031 L205.0313,780.0469 Q205.0313,778.7188 205.6484,777.5703 Q206.2656,776.4219 207.3594,775.8047 Q208.4531,775.1875 209.6875,775.1875 Q210.4219,775.1875 211.0703,775.3516 Q211.7188,775.5156 212.2656,775.875 Z "/><text fill="#000000" font-family="sans-serif" font-size="12" lengthAdjust="spacingAndGlyphs" textLength="57" x="223.5" y="784.9102">Limitacion</text><line style="stroke: #A80036; stroke-width: 1.5;" x1="195.5" x2="282.5" y1="796" y2="796"/><line style="stroke: #A80036; stroke-width: 1.5;" x1="195.5" x2="282.5" y1="804" y2="804"/><!--class Tamanyo--><rect fill="#FF0000" filter="url(#fcmov32fyjeix)" height="48" id="Tamanyo" style="stroke: #A80036; stroke-width: 1.5;" width="83" x="197.5" y="888"/><rect fill="#FF0000" height="32" style="stroke: #A80036; stroke-width: 1.5;" width="83" x="197.5" y="888"/><ellipse cx="212.5" cy="904" fill="#ADD1B2" rx="11" ry="11" style="stroke: #A80036; stroke-width: 1.0;"/><path d="M215.2656,899.875 Q215.4219,899.6563 215.6094,899.5469 Q215.7969,899.4375 216.0156,899.4375 Q216.3906,899.4375 216.625,899.6953 Q216.8594,899.9531 216.8594,900.5625 L216.8594,902.0156 Q216.8594,902.625 216.625,902.8906 Q216.3906,903.1563 216.0156,903.1563 Q215.6719,903.1563 215.4688,902.9531 Q215.2656,902.7656 215.1563,902.25 Q215.1094,901.8906 214.9219,901.7031 Q214.5938,901.3281 213.9844,901.1094 Q213.375,900.8906 212.75,900.8906 Q211.9844,900.8906 211.3516,901.2188 Q210.7188,901.5469 210.2266,902.2969 Q209.7344,903.0469 209.7344,904.0781 L209.7344,905.1719 Q209.7344,906.4063 210.625,907.2266 Q211.5156,908.0469 213.1094,908.0469 Q214.0469,908.0469 214.7031,907.7969 Q215.0938,907.6406 215.5156,907.2031 Q215.7813,906.9375 215.9297,906.8594 Q216.0781,906.7813 216.2813,906.7813 Q216.6094,906.7813 216.8672,907.0391 Q217.125,907.2969 217.125,907.6406 Q217.125,907.9844 216.7813,908.3906 Q216.2813,908.9688 215.4844,909.2969 Q214.4063,909.75 213.1094,909.75 Q211.5938,909.75 210.3906,909.125 Q209.4063,908.625 208.7188,907.5547 Q208.0313,906.4844 208.0313,905.2031 L208.0313,904.0469 Q208.0313,902.7188 208.6484,901.5703 Q209.2656,900.4219 210.3594,899.8047 Q211.4531,899.1875 212.6875,899.1875 Q213.4219,899.1875 214.0703,899.3516 Q214.7188,899.5156 215.2656,899.875 Z "/><text fill="#000000" font-family="sans-serif" font-size="12" lengthAdjust="spacingAndGlyphs" textLength="51" x="226.5" y="908.9102">Tamanyo</text><line style="stroke: #A80036; stroke-width: 1.5;" x1="198.5" x2="279.5" y1="920" y2="920"/><line style="stroke: #A80036; stroke-width: 1.5;" x1="198.5" x2="279.5" y1="928" y2="928"/><path d="M6,899 L6,925.3516 A0,0 0 0 0 6,925.3516 L162,925.3516 A0,0 0 0 0 162,925.3516 L162,917 L197.249,912 L162,909 L162,909 L152,899 L6,899 A0,0 0 0 0 6,899 " fill="#FBFB77" filter="url(#fcmov32fyjeix)" style="stroke: #A80036; stroke-width: 1.0;"/><path d="M152,899 L152,909 L162,909 L152,899 " fill="#FBFB77" style="stroke: #A80036; stroke-width: 1.0;"/><text fill="#000000" font-family="sans-serif" font-size="13" lengthAdjust="spacingAndGlyphs" textLength="135" x="12" y="917.4951">Nos gustan pequeñas!!!</text><!--class Efectividad--><rect fill="#008000" filter="url(#fcmov32fyjeix)" height="48" id="Efectividad" style="stroke: #A80036; stroke-width: 1.5;" width="91" x="408.5" y="656"/><rect fill="#008000" height="32" style="stroke: #A80036; stroke-width: 1.5;" width="91" x="408.5" y="656"/><ellipse cx="423.5" cy="672" fill="#ADD1B2" rx="11" ry="11" style="stroke: #A80036; stroke-width: 1.0;"/><path d="M426.2656,667.875 Q426.4219,667.6563 426.6094,667.5469 Q426.7969,667.4375 427.0156,667.4375 Q427.3906,667.4375 427.625,667.6953 Q427.8594,667.9531 427.8594,668.5625 L427.8594,670.0156 Q427.8594,670.625 427.625,670.8906 Q427.3906,671.1563 427.0156,671.1563 Q426.6719,671.1563 426.4688,670.9531 Q426.2656,670.7656 426.1563,670.25 Q426.1094,669.8906 425.9219,669.7031 Q425.5938,669.3281 424.9844,669.1094 Q424.375,668.8906 423.75,668.8906 Q422.9844,668.8906 422.3516,669.2188 Q421.7188,669.5469 421.2266,670.2969 Q420.7344,671.0469 420.7344,672.0781 L420.7344,673.1719 Q420.7344,674.4063 421.625,675.2266 Q422.5156,676.0469 424.1094,676.0469 Q425.0469,676.0469 425.7031,675.7969 Q426.0938,675.6406 426.5156,675.2031 Q426.7813,674.9375 426.9297,674.8594 Q427.0781,674.7813 427.2813,674.7813 Q427.6094,674.7813 427.8672,675.0391 Q428.125,675.2969 428.125,675.6406 Q428.125,675.9844 427.7813,676.3906 Q427.2813,676.9688 426.4844,677.2969 Q425.4063,677.75 424.1094,677.75 Q422.5938,677.75 421.3906,677.125 Q420.4063,676.625 419.7188,675.5547 Q419.0313,674.4844 419.0313,673.2031 L419.0313,672.0469 Q419.0313,670.7188 419.6484,669.5703 Q420.2656,668.4219 421.3594,667.8047 Q422.4531,667.1875 423.6875,667.1875 Q424.4219,667.1875 425.0703,667.3516 Q425.7188,667.5156 426.2656,667.875 Z "/><text fill="#000000" font-family="sans-serif" font-size="12" lengthAdjust="spacingAndGlyphs" textLength="59" x="437.5" y="676.9102">Efectividad</text><line style="stroke: #A80036; stroke-width: 1.5;" x1="409.5" x2="498.5" y1="688" y2="688"/><line style="stroke: #A80036; stroke-width: 1.5;" x1="409.5" x2="498.5" y1="696" y2="696"/><!--link Universo to Sistema--><path d="M437,69.338 C437,80.006 437,91.677 437,102.364 " fill="none" id="Universo-Sistema" style="stroke: #A80036; stroke-width: 1.0;"/><polygon fill="#A80036" points="437,115.678,441,106.678,437,110.678,433,106.678,437,115.678" style="stroke: #A80036; stroke-width: 1.0;"/><line style="stroke: #A80036; stroke-width: 1.0;" x1="437" x2="437" y1="110.678" y2="102.678"/><polygon fill="#A80036" points="437,56,433,62,437,68,441,62,437,56" style="stroke: #A80036; stroke-width: 1.0;"/><!--link Sistema to Modulo--><path d="M414.757,175.504 C390.474,216.563 355,288.007 355,355 C355,355 355,355 355,573 C355,635.42 355,708.08 355,750.656 " fill="none" id="Sistema-Modulo" style="stroke: #A80036; stroke-width: 1.0;"/><polygon fill="#A80036" points="355,763.883,359,754.883,355,758.883,351,754.883,355,763.883" style="stroke: #A80036; stroke-width: 1.0;"/><line style="stroke: #A80036; stroke-width: 1.0;" x1="355" x2="355" y1="758.883" y2="750.883"/><polygon fill="#A80036" points="421.576,164.267,415.0437,167.3214,415.3507,174.526,421.883,171.4716,421.576,164.267" style="stroke: #A80036; stroke-width: 1.0;"/><!--link Sistema to SistemaComplejo--><path d="M467.677,180.178 C479.126,194.8 491.756,210.929 501.739,223.678 " fill="none" id="Sistema-SistemaComplejo" style="stroke: #A80036; stroke-width: 1.0;"/><polygon fill="none" points="461.829,184.063,455.01,164,472.851,175.432,461.829,184.063" style="stroke: #A80036; stroke-width: 1.0;"/><!--link SistemaComplejo to Ecosistema--><path d="M537.65,290.575 C543.579,304.543 549.981,319.622 555.099,331.678 " fill="none" id="SistemaComplejo-Ecosistema" style="stroke: #A80036; stroke-width: 1.0;"/><polygon fill="none" points="531.136,293.146,529.764,272,544.023,287.675,531.136,293.146" style="stroke: #A80036; stroke-width: 1.0;"/><!--link Ecosistema to Persona--><path d="M565,393.338 C565,404.006 565,415.677 565,426.364 " fill="none" id="Ecosistema-Persona" style="stroke: #A80036; stroke-width: 1.0;"/><polygon fill="#A80036" points="565,439.678,569,430.678,565,434.678,561,430.678,565,439.678" style="stroke: #A80036; stroke-width: 1.0;"/><line style="stroke: #A80036; stroke-width: 1.0;" x1="565" x2="565" y1="434.678" y2="426.678"/><polygon fill="#A80036" points="565,380,561,386,565,392,569,386,565,380" style="stroke: #A80036; stroke-width: 1.0;"/><!--link Persona to Necesidad--><path d="M596.087,497.626 C608.377,510.524 622.477,525.322 634.78,538.234 " fill="none" id="Persona-Necesidad" style="stroke: #A80036; stroke-width: 1.0;"/><polygon fill="#A80036" points="643.778,547.678,640.4657,538.4029,640.3289,544.0581,634.6737,543.9213,643.778,547.678" style="stroke: #A80036; stroke-width: 1.0;"/><line style="stroke: #A80036; stroke-width: 1.0;" x1="640.3289" x2="634.811" y1="544.0581" y2="538.2665"/><polygon fill="#A80036" points="586.915,488,588.1585,495.1031,595.1934,496.6872,593.95,489.5841,586.915,488" style="stroke: #A80036; stroke-width: 1.0;"/><!--link Persona to Capacidad--><path d="M567.732,501.544 C570.677,540.935 575.337,603.26 578.278,642.596 " fill="none" id="Persona-Capacidad" style="stroke: #A80036; stroke-width: 1.0;"/><polygon fill="#A80036" points="579.259,655.72,582.5773,646.447,578.8864,650.7339,574.5995,647.0431,579.259,655.72" style="stroke: #A80036; stroke-width: 1.0;"/><line style="stroke: #A80036; stroke-width: 1.0;" x1="578.8864" x2="578.29" y1="650.7339" y2="642.756"/><polygon fill="#A80036" points="566.743,488.309,563.2012,494.5904,567.6371,500.2756,571.1789,493.9943,566.743,488.309" style="stroke: #A80036; stroke-width: 1.0;"/><!--link Persona to Solucion--><path d="M534.837,497.626 C523.028,510.398 509.499,525.032 497.644,537.854 " fill="none" id="Persona-Solucion" style="stroke: #A80036; stroke-width: 1.0;"/><polygon fill="#A80036" points="488.561,547.678,497.6079,543.7852,491.9554,544.0067,491.7338,538.3542,488.561,547.678" style="stroke: #A80036; stroke-width: 1.0;"/><line style="stroke: #A80036; stroke-width: 1.0;" x1="491.9554" x2="497.387" y1="544.0067" y2="538.133"/><polygon fill="#A80036" points="543.735,488,536.7247,489.69,535.5885,496.8111,542.5988,495.121,543.735,488" style="stroke: #A80036; stroke-width: 1.0;"/><!--link Necesidad to SistemaComplejo--><path d="M668.184,547.686 C671.268,502.59 672.516,401.721 631,332 C616.746,308.063 592.681,288.8 570.594,274.88 " fill="none" id="Necesidad-SistemaComplejo" style="stroke: #A80036; stroke-width: 1.0;"/><polygon fill="#A80036" points="566.207,272.167,571.7577,280.3027,570.4595,274.7968,575.9654,273.4986,566.207,272.167" style="stroke: #A80036; stroke-width: 1.0;"/><!--link Capacidad to Abstraccion--><path d="M540.492,718.545 C539.991,719.032 539.493,719.517 539,720 C524.404,734.28 508.43,750.734 495.97,763.763 " fill="none" id="Capacidad-Abstraccion" style="stroke: #A80036; stroke-width: 1.0;"/><polygon fill="none" points="536.161,713.004,555.48,704.3,545.806,723.152,536.161,713.004" style="stroke: #A80036; stroke-width: 1.0;"/><!--link Capacidad to OcultacionInformacion--><path d="M647.357,683.753 C699.732,687.671 773.9,697.141 835,720 C862.935,730.451 891.328,748.905 911.689,763.802 " fill="none" id="Capacidad-OcultacionInformacion" style="stroke: #A80036; stroke-width: 1.0;"/><polygon fill="none" points="646.889,690.738,627.388,682.449,647.801,676.768,646.889,690.738" style="stroke: #A80036; stroke-width: 1.0;"/><!--link Capacidad to Modularizacion--><path d="M646.016,700.826 C659.67,706.165 673.661,712.564 686,720 C705.889,731.986 725.355,749.602 739.47,763.763 " fill="none" id="Capacidad-Modularizacion" style="stroke: #A80036; stroke-width: 1.0;"/><polygon fill="none" points="643.564,707.383,627.146,693.987,648.334,694.221,643.564,707.383" style="stroke: #A80036; stroke-width: 1.0;"/><!--link Capacidad to Jerarquizacion--><path d="M593.842,723.54 C597.976,737.235 602.404,751.9 605.96,763.678 " fill="none" id="Capacidad-Jerarquizacion" style="stroke: #A80036; stroke-width: 1.0;"/><polygon fill="none" points="587.022,725.17,587.944,704,600.425,721.124,587.022,725.17" style="stroke: #A80036; stroke-width: 1.0;"/><!--link Capacidad to Limitacion--><path d="M522.289,702.781 C520.514,703.22 518.749,703.628 517,704 C469.921,714.009 344.36,699.106 301,720 C285.496,727.471 271.989,740.66 261.575,753.371 " fill="none" id="Capacidad-Limitacion" style="stroke: #A80036; stroke-width: 1.0;"/><polygon fill="#A80036" points="253.578,763.8,262.2287,759.0919,256.6205,759.8322,255.8802,754.224,253.578,763.8" style="stroke: #A80036; stroke-width: 1.0;"/><line style="stroke: #A80036; stroke-width: 1.0;" x1="256.6205" x2="261.4885" y1="759.8322" y2="753.4835"/><polygon fill="#A80036" points="534.939,699.216,528.079,696.9932,523.3887,702.4705,530.2487,704.6933,534.939,699.216" style="stroke: #A80036; stroke-width: 1.0;"/><!--link Limitacion to Tamanyo--><path d="M239,812.234 C239,832.247 239,861.2 239,882.5876 " fill="none" id="Limitacion-Tamanyo" style="stroke: #A80036; stroke-width: 1.0;"/><polygon fill="#A80036" points="239,887.8521,243,878.8521,239,882.8521,235,878.8521,239,887.8521" style="stroke: #A80036; stroke-width: 1.0;"/><!--link Solucion to Efectividad--><path d="M462.543,609.338 C461.22,620.126 459.772,631.94 458.449,642.724 " fill="none" id="Solucion-Efectividad" style="stroke: #A80036; stroke-width: 1.0;"/><polygon fill="#A80036" points="456.86,655.678,461.9261,647.232,457.4688,650.7152,453.9856,646.2579,456.86,655.678" style="stroke: #A80036; stroke-width: 1.0;"/><line style="stroke: #A80036; stroke-width: 1.0;" x1="457.4688" x2="458.443" y1="650.7152" y2="642.775"/><polygon fill="#A80036" points="464.179,596,459.4783,601.4684,462.718,607.9107,467.4188,602.4424,464.179,596" style="stroke: #A80036; stroke-width: 1.0;"/><!--link Solucion to SistemaComplejo--><path d="M469,547.767 C472.918,504.861 482.59,410.416 498,332 C501.647,313.441 507.083,292.891 511.639,276.882 " fill="none" id="Solucion-SistemaComplejo" style="stroke: #A80036; stroke-width: 1.0;"/><polygon fill="#A80036" points="513.021,272.067,506.6923,279.6134,511.641,276.8728,514.3816,281.8214,513.021,272.067" style="stroke: #A80036; stroke-width: 1.0;"/><!--link Solucion to Capacidad--><path d="M491.736,596 C509.392,612.417 533.205,634.559 551.795,651.844 " fill="none" id="Solucion-Capacidad" style="stroke: #A80036; stroke-width: 1.0;"/><polygon fill="#A80036" points="555.918,655.678,552.0505,646.6203,552.2562,652.2734,546.6031,652.4791,555.918,655.678" style="stroke: #A80036; stroke-width: 1.0;"/><!--link Modulo to Interfaz--><path d="M370.315,824.253 C377.327,840.395 385.619,859.482 392.637,875.6372 " fill="none" id="Modulo-Interfaz" style="stroke: #A80036; stroke-width: 1.0;"/><polygon fill="#A80036" points="397.944,887.8521,398.0264,878.0036,395.9516,883.2662,390.689,881.1914,397.944,887.8521" style="stroke: #A80036; stroke-width: 1.0;"/><line style="stroke: #A80036; stroke-width: 1.0;" x1="395.9516" x2="392.764" y1="883.2662" y2="875.9286"/><polygon fill="#A80036" points="365.094,812.234,363.8158,819.3309,369.8752,823.2403,371.1534,816.1434,365.094,812.234" style="stroke: #A80036; stroke-width: 1.0;"/><!--link Modulo to Implementacion--><path d="M385.08,820.932 C392.592,827.032 401.073,832.575 410,836 C442.585,848.5 691.392,831.561 724,844 C742.929,851.221 760.497,865.061 774.236,878.2971 " fill="none" id="Modulo-Implementacion" style="stroke: #A80036; stroke-width: 1.0;"/><polygon fill="#A80036" points="783.528,887.7246,780.059,878.5069,780.0181,884.1636,774.3614,884.1227,783.528,887.7246" style="stroke: #A80036; stroke-width: 1.0;"/><line style="stroke: #A80036; stroke-width: 1.0;" x1="780.0181" x2="774.4025" y1="884.1636" y2="878.4659"/><polygon fill="#A80036" points="375.162,812.101,376.9837,819.0782,384.1249,820.0802,382.3032,813.103,375.162,812.101" style="stroke: #A80036; stroke-width: 1.0;"/><!--link Modulo to Cohesion--><path d="M385.121,820.826 C392.63,826.932 401.101,832.504 410,836 C449.954,851.694 564.105,825.839 603,844 C618.59,851.279 631.993,864.568 642.233,877.4036 " fill="none" id="Modulo-Cohesion" style="stroke: #A80036; stroke-width: 1.0;"/><polygon fill="#A80036" points="650.068,887.9363,647.9053,878.3278,647.0835,883.9247,641.4867,883.103,650.068,887.9363" style="stroke: #A80036; stroke-width: 1.0;"/><line style="stroke: #A80036; stroke-width: 1.0;" x1="647.0835" x2="642.3085" y1="883.9247" y2="877.5059"/><polygon fill="#A80036" points="375.201,812.001,377.0255,818.9775,384.167,819.9766,382.3425,813.0002,375.201,812.001" style="stroke: #A80036; stroke-width: 1.0;"/><!--link Modulo to Acoplamiento--><path d="M386.296,820.781 C393.568,826.662 401.644,832.154 410,836 C430.842,845.593 440.401,833.896 461,844 C477.569,852.127 492.889,865.462 505.024,878.1048 " fill="none" id="Modulo-Acoplamiento" style="stroke: #A80036; stroke-width: 1.0;"/><polygon fill="#A80036" points="514.036,887.9826,510.9245,878.6381,510.6658,884.2891,505.0149,884.0304,514.036,887.9826" style="stroke: #A80036; stroke-width: 1.0;"/><line style="stroke: #A80036; stroke-width: 1.0;" x1="510.6658" x2="505.274" y1="884.2891" y2="878.3792"/><polygon fill="#A80036" points="376.276,812.032,378.165,818.9913,385.3155,819.9242,383.4265,812.965,376.276,812.032" style="stroke: #A80036; stroke-width: 1.0;"/><!--link Modulo to Tamanyo--><path d="M323.933,821.674 C307.334,839.132 286.951,860.568 270.315,878.0652 " fill="none" id="Modulo-Tamanyo" style="stroke: #A80036; stroke-width: 1.0;"/><polygon fill="#A80036" points="261.01,887.8521,270.1103,884.0859,264.4553,884.2285,264.3126,878.5735,261.01,887.8521" style="stroke: #A80036; stroke-width: 1.0;"/><line style="stroke: #A80036; stroke-width: 1.0;" x1="264.4553" x2="269.9675" y1="884.2285" y2="878.4309"/><polygon fill="#A80036" points="332.908,812.234,325.8748,813.8258,324.639,820.9302,331.6722,819.3384,332.908,812.234" style="stroke: #A80036; stroke-width: 1.0;"/><!--link Abstraccion to Interfaz--><path d="M461.431,812.234 C450.467,832.501 434.542,861.938 422.931,883.3995 " fill="none" id="Abstraccion-Interfaz" style="stroke: #A80036; stroke-width: 1.0;"/><polygon fill="#A80036" points="420.523,887.8521,428.3239,881.84,422.9024,883.4545,421.2878,878.033,420.523,887.8521" style="stroke: #A80036; stroke-width: 1.0;"/><!--link OcultacionInformacion to Implementacion--><path d="M914.718,812.234 C891.41,832.84 857.379,862.926 833.009,884.4704 " fill="none" id="OcultacionInformacion-Implementacion" style="stroke: #A80036; stroke-width: 1.0;"/><polygon fill="#A80036" points="829.184,887.8521,838.5764,884.8884,832.9302,884.5406,833.278,878.8945,829.184,887.8521" style="stroke: #A80036; stroke-width: 1.0;"/><!--link Modularizacion to Cohesion--><path d="M742.527,812.234 C726.278,832.671 702.616,862.431 685.518,883.9367 " fill="none" id="Modularizacion-Cohesion" style="stroke: #A80036; stroke-width: 1.0;"/><polygon fill="#A80036" points="682.404,887.8521,691.1358,883.2964,685.5155,883.9382,684.8737,878.3179,682.404,887.8521" style="stroke: #A80036; stroke-width: 1.0;"/><!--link Jerarquizacion to Acoplamiento--><path d="M597.574,812.234 C584.062,832.586 564.411,862.184 550.146,883.6685 " fill="none" id="Jerarquizacion-Acoplamiento" style="stroke: #A80036; stroke-width: 1.0;"/><polygon fill="#A80036" points="547.369,887.8521,555.6793,882.5664,550.1345,883.6865,549.0144,878.1417,547.369,887.8521" style="stroke: #A80036; stroke-width: 1.0;"/><!--link Efectividad to Tamanyo--><path d="M408.411,680.513 C337.648,680.84 206.428,686.139 177,720 C143.181,758.914 159.545,787.489 177,836 C183.535,854.163 196.587,871.0526 209.037,884.1881 " fill="none" id="Efectividad-Tamanyo" style="stroke: #A80036; stroke-width: 1.0;"/><polygon fill="#A80036" points="212.527,887.7913,209.1407,878.5429,209.0491,884.199,203.393,884.1075,212.527,887.7913" style="stroke: #A80036; stroke-width: 1.0;"/><!--
@startuml

class Universo
Universo *-down-> Sistema

class Sistema #orange
Sistema *-down-> Modulo

class "Sistema Complejo" as SistemaComplejo #yellow
Sistema <|-down- SistemaComplejo

class Ecosistema
SistemaComplejo <|-down- Ecosistema
Ecosistema *-down-> Persona

class Persona
Persona *-down-> Necesidad
Persona *-down-> Capacidad
Persona *-down-> Solucion

class Necesidad
Necesidad - -> SistemaComplejo

together capacidades {

class Capacidad #red

class "Abstracción" as Abstraccion #red

class "Ocultacion de Información" as OcultacionInformacion #red

class "Modularización" as Modularizacion #red

class "Jerarquización" as Jerarquizacion #red

}
Capacidad <|-down- Abstraccion
Capacidad <|-down- OcultacionInformacion
Capacidad <|-down- Modularizacion
Capacidad <|-down- Jerarquizacion
Capacidad *-down-> Limitacion

class "Limitación" as Limitacion #red
Limitacion - -> Tamanyo

class "Tamaño" as Tamanyo #red
note left
Nos gustan pequeñas!!!
endnote

class "Solución" as Solucion #green
Solucion *-down-> Efectividad
Solucion - -> SistemaComplejo
Solucion - -> Capacidad

class Efectividad #green

together modulos {

class "Módulo" as Modulo #orange

class Interfaz #blue

class Implementacion #blue

class Cohesion #blue

class Acoplamiento #blue

}
Modulo *-down-> Interfaz
Modulo *-down-> Implementacion
Modulo *-down-> Cohesion
Modulo *-down-> Acoplamiento
Modulo *-down-> Tamanyo

Abstraccion - -> Interfaz

OcultacionInformacion - -> Implementacion

Modularizacion - -> Cohesion

Jerarquizacion - -> Acoplamiento

Efectividad - -> Tamanyo
@enduml

PlantUML version 1.2019.05(Sat Apr 20 18:45:36 CEST 2019)
(GPL source distribution)
Java Runtime: Java(TM) SE Runtime Environment
JVM: Java HotSpot(TM) 64-Bit Server VM
Java Version: 1.8.0_211-b12
Operating System: Windows 10
OS Version: 10.0
Default Encoding: windows-1252
Language: es
Country: ES
--></g></svg>