<?xml version="1.0" encoding="UTF-8" standalone="no"?><svg xmlns="http://www.w3.org/2000/svg" xmlns:xlink="http://www.w3.org/1999/xlink" contentScriptType="application/ecmascript" contentStyleType="text/css" height="366px" preserveAspectRatio="none" style="width:768px;height:366px;" version="1.1" viewBox="0 0 768 366" width="768px" zoomAndPan="magnify"><defs><filter height="300%" id="f171govfvj8k59" width="300%" x="-1" y="-1"><feGaussianBlur result="blurOut" stdDeviation="2.0"/><feColorMatrix in="blurOut" result="blurOut2" type="matrix" values="0 0 0 0 0 0 0 0 0 0 0 0 0 0 0 0 0 0 .4 0"/><feOffset dx="4.0" dy="4.0" in="blurOut2" result="blurOut3"/><feBlend in="SourceGraphic" in2="blurOut3" mode="normal"/></filter></defs><g><!--cluster personas--><polygon fill="#FFFFFF" filter="url(#f171govfvj8k59)" points="22,24,94,24,101,47.6094,746,47.6094,746,179,22,179,22,24" style="stroke: #000000; stroke-width: 1.5;"/><line style="stroke: #000000; stroke-width: 1.5;" x1="22" x2="101" y1="47.6094" y2="47.6094"/><text fill="#000000" font-family="sans-serif" font-size="14" font-weight="bold" lengthAdjust="spacingAndGlyphs" textLength="66" x="26" y="40.5332">personas</text><!--cluster mujeres--><polygon fill="#FFFFFF" filter="url(#f171govfvj8k59)" points="46,68,109,68,116,91.6094,384,91.6094,384,155,46,155,46,68" style="stroke: #000000; stroke-width: 1.5;"/><line style="stroke: #000000; stroke-width: 1.5;" x1="46" x2="116" y1="91.6094" y2="91.6094"/><text fill="#000000" font-family="sans-serif" font-size="14" font-weight="bold" lengthAdjust="spacingAndGlyphs" textLength="57" x="50" y="84.5332">mujeres</text><!--cluster hombres--><polygon fill="#FFFFFF" filter="url(#f171govfvj8k59)" points="408,68,476,68,483,91.6094,722,91.6094,722,155,408,155,408,68" style="stroke: #000000; stroke-width: 1.5;"/><line style="stroke: #000000; stroke-width: 1.5;" x1="408" x2="483" y1="91.6094" y2="91.6094"/><text fill="#000000" font-family="sans-serif" font-size="14" font-weight="bold" lengthAdjust="spacingAndGlyphs" textLength="62" x="412" y="84.5332">hombres</text><rect fill="#FEFECE" filter="url(#f171govfvj8k59)" height="35.0938" style="stroke: #A80036; stroke-width: 1.5;" width="59" x="62.5" y="104"/><text fill="#000000" font-family="sans-serif" font-size="12" lengthAdjust="spacingAndGlyphs" textLength="45" x="69.5" y="118.457">Ludmila</text><line style="stroke: #A80036; stroke-width: 1.5;" x1="63.5" x2="120.5" y1="123.0938" y2="123.0938"/><rect fill="#FEFECE" filter="url(#f171govfvj8k59)" height="35.0938" style="stroke: #A80036; stroke-width: 1.5;" width="148" x="157" y="104"/><text fill="#000000" font-family="sans-serif" font-size="12" lengthAdjust="spacingAndGlyphs" textLength="134" x="164" y="118.457">Maria Skłodowska-Curie</text><line style="stroke: #A80036; stroke-width: 1.5;" x1="158" x2="304" y1="123.0938" y2="123.0938"/><rect fill="#FEFECE" filter="url(#f171govfvj8k59)" height="35.0938" style="stroke: #A80036; stroke-width: 1.5;" width="28" x="340" y="104"/><text fill="#000000" font-family="sans-serif" font-size="12" lengthAdjust="spacingAndGlyphs" textLength="14" x="347" y="118.457">Tú</text><line style="stroke: #A80036; stroke-width: 1.5;" x1="341" x2="367" y1="123.0938" y2="123.0938"/><rect fill="#FEFECE" filter="url(#f171govfvj8k59)" height="35.0938" style="stroke: #A80036; stroke-width: 1.5;" width="44" x="424" y="104"/><text fill="#000000" font-family="sans-serif" font-size="12" lengthAdjust="spacingAndGlyphs" textLength="30" x="431" y="118.457">Murat</text><line style="stroke: #A80036; stroke-width: 1.5;" x1="425" x2="467" y1="123.0938" y2="123.0938"/><rect fill="#FEFECE" filter="url(#f171govfvj8k59)" height="35.0938" style="stroke: #A80036; stroke-width: 1.5;" width="139" x="503.5" y="104"/><text fill="#000000" font-family="sans-serif" font-size="12" lengthAdjust="spacingAndGlyphs" textLength="125" x="510.5" y="118.457">Manuel Elkin Patarroyo</text><line style="stroke: #A80036; stroke-width: 1.5;" x1="504.5" x2="641.5" y1="123.0938" y2="123.0938"/><rect fill="#FEFECE" filter="url(#f171govfvj8k59)" height="35.0938" style="stroke: #A80036; stroke-width: 1.5;" width="28" x="678" y="104"/><text fill="#000000" font-family="sans-serif" font-size="12" lengthAdjust="spacingAndGlyphs" textLength="14" x="685" y="118.457">Yo</text><line style="stroke: #A80036; stroke-width: 1.5;" x1="679" x2="705" y1="123.0938" y2="123.0938"/><!--class Persona--><rect fill="#FEFECE" filter="url(#f171govfvj8k59)" height="48" id="Persona" style="stroke: #A80036; stroke-width: 1.5;" width="79" x="360.5" y="307"/><ellipse cx="375.5" cy="323" fill="#ADD1B2" rx="11" ry="11" style="stroke: #A80036; stroke-width: 1.0;"/><path d="M378.2656,318.875 Q378.4219,318.6563 378.6094,318.5469 Q378.7969,318.4375 379.0156,318.4375 Q379.3906,318.4375 379.625,318.6953 Q379.8594,318.9531 379.8594,319.5625 L379.8594,321.0156 Q379.8594,321.625 379.625,321.8906 Q379.3906,322.1563 379.0156,322.1563 Q378.6719,322.1563 378.4688,321.9531 Q378.2656,321.7656 378.1563,321.25 Q378.1094,320.8906 377.9219,320.7031 Q377.5938,320.3281 376.9844,320.1094 Q376.375,319.8906 375.75,319.8906 Q374.9844,319.8906 374.3516,320.2188 Q373.7188,320.5469 373.2266,321.2969 Q372.7344,322.0469 372.7344,323.0781 L372.7344,324.1719 Q372.7344,325.4063 373.625,326.2266 Q374.5156,327.0469 376.1094,327.0469 Q377.0469,327.0469 377.7031,326.7969 Q378.0938,326.6406 378.5156,326.2031 Q378.7813,325.9375 378.9297,325.8594 Q379.0781,325.7813 379.2813,325.7813 Q379.6094,325.7813 379.8672,326.0391 Q380.125,326.2969 380.125,326.6406 Q380.125,326.9844 379.7813,327.3906 Q379.2813,327.9688 378.4844,328.2969 Q377.4063,328.75 376.1094,328.75 Q374.5938,328.75 373.3906,328.125 Q372.4063,327.625 371.7188,326.5547 Q371.0313,325.4844 371.0313,324.2031 L371.0313,323.0469 Q371.0313,321.7188 371.6484,320.5703 Q372.2656,319.4219 373.3594,318.8047 Q374.4531,318.1875 375.6875,318.1875 Q376.4219,318.1875 377.0703,318.3516 Q377.7188,318.5156 378.2656,318.875 Z "/><text fill="#000000" font-family="sans-serif" font-size="12" lengthAdjust="spacingAndGlyphs" textLength="47" x="389.5" y="327.9102">Persona</text><line style="stroke: #A80036; stroke-width: 1.5;" x1="361.5" x2="438.5" y1="339" y2="339"/><line style="stroke: #A80036; stroke-width: 1.5;" x1="361.5" x2="438.5" y1="347" y2="347"/><!--class Hombre--><rect fill="#FEFECE" filter="url(#f171govfvj8k59)" height="48" id="Hombre" style="stroke: #A80036; stroke-width: 1.5;" width="77" x="470.5" y="199"/><ellipse cx="485.5" cy="215" fill="#ADD1B2" rx="11" ry="11" style="stroke: #A80036; stroke-width: 1.0;"/><path d="M488.2656,210.875 Q488.4219,210.6563 488.6094,210.5469 Q488.7969,210.4375 489.0156,210.4375 Q489.3906,210.4375 489.625,210.6953 Q489.8594,210.9531 489.8594,211.5625 L489.8594,213.0156 Q489.8594,213.625 489.625,213.8906 Q489.3906,214.1563 489.0156,214.1563 Q488.6719,214.1563 488.4688,213.9531 Q488.2656,213.7656 488.1563,213.25 Q488.1094,212.8906 487.9219,212.7031 Q487.5938,212.3281 486.9844,212.1094 Q486.375,211.8906 485.75,211.8906 Q484.9844,211.8906 484.3516,212.2188 Q483.7188,212.5469 483.2266,213.2969 Q482.7344,214.0469 482.7344,215.0781 L482.7344,216.1719 Q482.7344,217.4063 483.625,218.2266 Q484.5156,219.0469 486.1094,219.0469 Q487.0469,219.0469 487.7031,218.7969 Q488.0938,218.6406 488.5156,218.2031 Q488.7813,217.9375 488.9297,217.8594 Q489.0781,217.7813 489.2813,217.7813 Q489.6094,217.7813 489.8672,218.0391 Q490.125,218.2969 490.125,218.6406 Q490.125,218.9844 489.7813,219.3906 Q489.2813,219.9688 488.4844,220.2969 Q487.4063,220.75 486.1094,220.75 Q484.5938,220.75 483.3906,220.125 Q482.4063,219.625 481.7188,218.5547 Q481.0313,217.4844 481.0313,216.2031 L481.0313,215.0469 Q481.0313,213.7188 481.6484,212.5703 Q482.2656,211.4219 483.3594,210.8047 Q484.4531,210.1875 485.6875,210.1875 Q486.4219,210.1875 487.0703,210.3516 Q487.7188,210.5156 488.2656,210.875 Z "/><text fill="#000000" font-family="sans-serif" font-size="12" lengthAdjust="spacingAndGlyphs" textLength="45" x="499.5" y="219.9102">Hombre</text><line style="stroke: #A80036; stroke-width: 1.5;" x1="471.5" x2="546.5" y1="231" y2="231"/><line style="stroke: #A80036; stroke-width: 1.5;" x1="471.5" x2="546.5" y1="239" y2="239"/><!--class Mujer--><rect fill="#FEFECE" filter="url(#f171govfvj8k59)" height="48" id="Mujer" style="stroke: #A80036; stroke-width: 1.5;" width="62" x="261" y="199"/><ellipse cx="276" cy="215" fill="#ADD1B2" rx="11" ry="11" style="stroke: #A80036; stroke-width: 1.0;"/><path d="M278.7656,210.875 Q278.9219,210.6563 279.1094,210.5469 Q279.2969,210.4375 279.5156,210.4375 Q279.8906,210.4375 280.125,210.6953 Q280.3594,210.9531 280.3594,211.5625 L280.3594,213.0156 Q280.3594,213.625 280.125,213.8906 Q279.8906,214.1563 279.5156,214.1563 Q279.1719,214.1563 278.9688,213.9531 Q278.7656,213.7656 278.6563,213.25 Q278.6094,212.8906 278.4219,212.7031 Q278.0938,212.3281 277.4844,212.1094 Q276.875,211.8906 276.25,211.8906 Q275.4844,211.8906 274.8516,212.2188 Q274.2188,212.5469 273.7266,213.2969 Q273.2344,214.0469 273.2344,215.0781 L273.2344,216.1719 Q273.2344,217.4063 274.125,218.2266 Q275.0156,219.0469 276.6094,219.0469 Q277.5469,219.0469 278.2031,218.7969 Q278.5938,218.6406 279.0156,218.2031 Q279.2813,217.9375 279.4297,217.8594 Q279.5781,217.7813 279.7813,217.7813 Q280.1094,217.7813 280.3672,218.0391 Q280.625,218.2969 280.625,218.6406 Q280.625,218.9844 280.2813,219.3906 Q279.7813,219.9688 278.9844,220.2969 Q277.9063,220.75 276.6094,220.75 Q275.0938,220.75 273.8906,220.125 Q272.9063,219.625 272.2188,218.5547 Q271.5313,217.4844 271.5313,216.2031 L271.5313,215.0469 Q271.5313,213.7188 272.1484,212.5703 Q272.7656,211.4219 273.8594,210.8047 Q274.9531,210.1875 276.1875,210.1875 Q276.9219,210.1875 277.5703,210.3516 Q278.2188,210.5156 278.7656,210.875 Z "/><text fill="#000000" font-family="sans-serif" font-size="12" lengthAdjust="spacingAndGlyphs" textLength="30" x="290" y="219.9102">Mujer</text><line style="stroke: #A80036; stroke-width: 1.5;" x1="262" x2="322" y1="231" y2="231"/><line style="stroke: #A80036; stroke-width: 1.5;" x1="262" x2="322" y1="239" y2="239"/><!--link Hombre to Persona--><path d="M485.349,247 C471.73,260.2439 454.28,277.2136 438.712,292.3538 " fill="none" id="Hombre-Persona" style="stroke: #A80036; stroke-width: 1.0;"/><polygon fill="none" points="443.2,297.7533,423.982,306.6784,433.44,287.7166,443.2,297.7533" style="stroke: #A80036; stroke-width: 1.0;"/><!--link Mujer to Persona--><path d="M315.434,247 C328.928,260.2439 346.218,277.2136 361.644,292.3538 " fill="none" id="Mujer-Persona" style="stroke: #A80036; stroke-width: 1.0;"/><polygon fill="none" points="366.868,287.6732,376.238,306.6784,357.061,297.6648,366.868,287.6732" style="stroke: #A80036; stroke-width: 1.0;"/><!--link Murat to Hombre--><path d="M456.075,139.011 C464.093,152.087 475.647,170.786 486,187 C487.516,189.375 489.1,191.832 490.697,194.294 " fill="none" id="Murat-Hombre" style="stroke: #A80036; stroke-width: 1.0; stroke-dasharray: 7.0,7.0;"/><polygon fill="#A80036" points="493.573,198.71,492.0136,188.9854,490.8445,194.5201,485.3098,193.351,493.573,198.71" style="stroke: #A80036; stroke-width: 1.0;"/><!--link ManuelElkinPatarroyo to Hombre--><path d="M562.143,139.379 C552.477,154.406 538.153,176.676 526.811,194.309 " fill="none" id="ManuelElkinPatarroyo-Hombre" style="stroke: #A80036; stroke-width: 1.0; stroke-dasharray: 7.0,7.0;"/><polygon fill="#A80036" points="523.996,198.685,532.2294,193.2803,526.7012,194.48,525.5014,188.9519,523.996,198.685" style="stroke: #A80036; stroke-width: 1.0;"/><!--link Yo to Hombre--><path d="M688.085,139.086 C683.724,153.873 675.199,174.983 660,187 C629.543,211.081 585.453,219.135 552.771,221.579 " fill="none" id="Yo-Hombre" style="stroke: #A80036; stroke-width: 1.0; stroke-dasharray: 7.0,7.0;"/><polygon fill="#A80036" points="547.628,221.925,556.8763,225.3117,552.6167,221.5893,556.3391,217.3297,547.628,221.925" style="stroke: #A80036; stroke-width: 1.0;"/><!--link Ludmila to Mujer--><path d="M99.8027,139.176 C107.623,154.026 121.071,175.177 139,187 C174.196,210.21 222.736,218.149 255.634,220.798 " fill="none" id="Ludmila-Mujer" style="stroke: #A80036; stroke-width: 1.0; stroke-dasharray: 7.0,7.0;"/><polygon fill="#A80036" points="260.775,221.18,252.0957,216.5249,255.7887,220.81,251.5036,224.503,260.775,221.18" style="stroke: #A80036; stroke-width: 1.0;"/><!--link MariaSkłodowskaCurie to Mujer--><path d="M241.348,139.379 C250.561,154.406 264.213,176.676 275.024,194.309 " fill="none" id="MariaSkłodowskaCurie-Mujer" style="stroke: #A80036; stroke-width: 1.0; stroke-dasharray: 7.0,7.0;"/><polygon fill="#A80036" points="277.707,198.685,276.4141,188.9214,275.0941,194.4221,269.5934,193.102,277.707,198.685" style="stroke: #A80036; stroke-width: 1.0;"/><!--link Tú to Mujer--><path d="M347.536,139.076 C341.947,152.52 333.176,171.685 323,187 C321.29,189.573 319.404,192.155 317.43,194.686 " fill="none" id="Tú-Mujer" style="stroke: #A80036; stroke-width: 1.0; stroke-dasharray: 7.0,7.0;"/><polygon fill="#A80036" points="314.272,198.613,323.0302,194.1082,317.4063,194.7173,316.7971,189.0933,314.272,198.613" style="stroke: #A80036; stroke-width: 1.0;"/><!--
@startuml

class Persona
class Hombre
class Mujer

Persona <|-up- Hombre
Persona <|-up- Mujer

package personas {

package mujeres {
object Ludmila
object "Maria Skłodowska-Curie" as MariaSkłodowskaCurie
object Tú
}

package hombres {
object Murat
object "Manuel Elkin Patarroyo" as ManuelElkinPatarroyo
object Yo
}

}

Hombre <.down. Murat
Hombre <.down. ManuelElkinPatarroyo
Hombre <.down. Yo

Mujer <.down. Ludmila
Mujer <.down. MariaSkłodowskaCurie
Mujer <.down. Tú

@enduml

PlantUML version 1.2019.05(Sat Apr 20 18:45:36 CEST 2019)
(GPL source distribution)
Java Runtime: Java(TM) SE Runtime Environment
JVM: Java HotSpot(TM) 64-Bit Server VM
Java Version: 1.8.0_211-b12
Operating System: Windows 10
OS Version: 10.0
Default Encoding: windows-1252
Language: es
Country: ES
--></g></svg>