<?xml version="1.0" encoding="UTF-8" standalone="no"?><svg xmlns="http://www.w3.org/2000/svg" xmlns:xlink="http://www.w3.org/1999/xlink" contentScriptType="application/ecmascript" contentStyleType="text/css" height="166px" preserveAspectRatio="none" style="width:368px;height:166px;" version="1.1" viewBox="0 0 368 166" width="368px" zoomAndPan="magnify"><defs><filter height="300%" id="f13gqyc503wvig" width="300%" x="-1" y="-1"><feGaussianBlur result="blurOut" stdDeviation="2.0"/><feColorMatrix in="blurOut" result="blurOut2" type="matrix" values="0 0 0 0 0 0 0 0 0 0 0 0 0 0 0 0 0 0 .4 0"/><feOffset dx="4.0" dy="4.0" in="blurOut2" result="blurOut3"/><feBlend in="SourceGraphic" in2="blurOut3" mode="normal"/></filter></defs><g><!--cluster coleccion--><polygon fill="#FFFFFF" filter="url(#f13gqyc503wvig)" points="22,67,96,67,103,90.6094,346,90.6094,346,154,22,154,22,67" style="stroke: #000000; stroke-width: 1.5;"/><line style="stroke: #000000; stroke-width: 1.5;" x1="22" x2="103" y1="90.6094" y2="90.6094"/><text fill="#000000" font-family="sans-serif" font-size="14" font-weight="bold" lengthAdjust="spacingAndGlyphs" textLength="68" x="26" y="83.5332">coleccion</text><rect fill="#FEFECE" filter="url(#f13gqyc503wvig)" height="35.0938" style="stroke: #A80036; stroke-width: 1.5;" width="74" x="256" y="103"/><text fill="#000000" font-family="sans-serif" font-size="12" lengthAdjust="spacingAndGlyphs" textLength="60" x="263" y="117.457">Elemento1</text><line style="stroke: #A80036; stroke-width: 1.5;" x1="257" x2="329" y1="122.0938" y2="122.0938"/><rect fill="#FEFECE" filter="url(#f13gqyc503wvig)" height="35.0938" style="stroke: #A80036; stroke-width: 1.5;" width="74" x="147" y="103"/><text fill="#000000" font-family="sans-serif" font-size="12" lengthAdjust="spacingAndGlyphs" textLength="60" x="154" y="117.457">Elemento2</text><line style="stroke: #A80036; stroke-width: 1.5;" x1="148" x2="220" y1="122.0938" y2="122.0938"/><rect fill="#FEFECE" filter="url(#f13gqyc503wvig)" height="35.0938" style="stroke: #A80036; stroke-width: 1.5;" width="74" x="38" y="103"/><text fill="#000000" font-family="sans-serif" font-size="12" lengthAdjust="spacingAndGlyphs" textLength="60" x="45" y="117.457">Elemento3</text><line style="stroke: #A80036; stroke-width: 1.5;" x1="39" x2="111" y1="122.0938" y2="122.0938"/><rect fill="#FEFECE" filter="url(#f13gqyc503wvig)" height="35.0938" style="stroke: #A80036; stroke-width: 1.5;" width="64" x="152" y="8"/><text fill="#000000" font-family="sans-serif" font-size="12" lengthAdjust="spacingAndGlyphs" textLength="50" x="159" y="22.457">Conjunto</text><line style="stroke: #A80036; stroke-width: 1.5;" x1="153" x2="215" y1="27.0938" y2="27.0938"/><!--link Conjunto to Elemento1--><path d="M227.053,50.16 C231.212,52.968 235.267,55.932 239,59 C251.034,68.89 262.753,81.5321 272.181,92.6999 " fill="none" id="Conjunto-Elemento1" style="stroke: #A80036; stroke-width: 1.0;"/><polygon fill="#A80036" points="280.454,102.8176,277.8538,93.3182,277.2891,98.9468,271.6605,98.3821,280.454,102.8176" style="stroke: #A80036; stroke-width: 1.0;"/><line style="stroke: #A80036; stroke-width: 1.0;" x1="277.2891" x2="272.2245" y1="98.9468" y2="92.7536"/><polygon fill="#A80036" points="215.948,43.13,218.8777,49.7191,226.0868,49.549,223.1571,42.9599,215.948,43.13" style="stroke: #A80036; stroke-width: 1.0;"/><!--link Conjunto to Elemento2--><path d="M184,56.214 C184,66.9 184,78.9523 184,89.6499 " fill="none" id="Conjunto-Elemento2" style="stroke: #A80036; stroke-width: 1.0;"/><polygon fill="#A80036" points="184,102.7038,188,93.7038,184,97.7038,180,93.7038,184,102.7038" style="stroke: #A80036; stroke-width: 1.0;"/><line style="stroke: #A80036; stroke-width: 1.0;" x1="184" x2="184" y1="97.7038" y2="89.7039"/><polygon fill="#A80036" points="184,43.127,180,49.127,184,55.127,188,49.127,184,43.127" style="stroke: #A80036; stroke-width: 1.0;"/><!--link Conjunto to Elemento3--><path d="M141.92,50.147 C137.776,52.968 133.729,55.939 130,59 C117.861,68.965 105.9414,81.6175 96.319,92.7727 " fill="none" id="Conjunto-Elemento3" style="stroke: #A80036; stroke-width: 1.0;"/><polygon fill="#A80036" points="87.865,102.8726,96.709,98.5387,91.0743,99.0385,90.5745,93.4038,87.865,102.8726" style="stroke: #A80036; stroke-width: 1.0;"/><line style="stroke: #A80036; stroke-width: 1.0;" x1="91.0743" x2="96.2092" y1="99.0385" y2="92.9039"/><polygon fill="#A80036" points="152.965,43.071,145.7551,42.9394,142.8605,49.544,150.0704,49.6757,152.965,43.071" style="stroke: #A80036; stroke-width: 1.0;"/><!--
@startuml

object Conjunto

package coleccion {
object Elemento1
object Elemento2
object Elemento3
}

Conjunto *-down-> Elemento1
Conjunto *-down-> Elemento2
Conjunto *-down-> Elemento3

@enduml

PlantUML version 1.2019.05(Sat Apr 20 18:45:36 CEST 2019)
(GPL source distribution)
Java Runtime: Java(TM) SE Runtime Environment
JVM: Java HotSpot(TM) 64-Bit Server VM
Java Version: 1.8.0_211-b12
Operating System: Windows 10
OS Version: 10.0
Default Encoding: windows-1252
Language: es
Country: ES
--></g></svg>