<?xml version="1.0" encoding="UTF-8" standalone="no"?><svg xmlns="http://www.w3.org/2000/svg" xmlns:xlink="http://www.w3.org/1999/xlink" contentScriptType="application/ecmascript" contentStyleType="text/css" height="283px" preserveAspectRatio="none" style="width:802px;height:283px;" version="1.1" viewBox="0 0 802 283" width="802px" zoomAndPan="magnify"><defs><filter height="300%" id="fkq1g8qhnxnne" width="300%" x="-1" y="-1"><feGaussianBlur result="blurOut" stdDeviation="2.0"/><feColorMatrix in="blurOut" result="blurOut2" type="matrix" values="0 0 0 0 0 0 0 0 0 0 0 0 0 0 0 0 0 0 .4 0"/><feOffset dx="4.0" dy="4.0" in="blurOut2" result="blurOut3"/><feBlend in="SourceGraphic" in2="blurOut3" mode="normal"/></filter></defs><g><!--class ClaseBase1--><rect fill="#FEFECE" filter="url(#fkq1g8qhnxnne)" height="48" id="ClaseBase1" style="stroke: #A80036; stroke-width: 1.5;" width="104" x="346" y="8"/><ellipse cx="361" cy="24" fill="#ADD1B2" rx="11" ry="11" style="stroke: #A80036; stroke-width: 1.0;"/><path d="M363.7656,19.875 Q363.9219,19.6563 364.1094,19.5469 Q364.2969,19.4375 364.5156,19.4375 Q364.8906,19.4375 365.125,19.6953 Q365.3594,19.9531 365.3594,20.5625 L365.3594,22.0156 Q365.3594,22.625 365.125,22.8906 Q364.8906,23.1563 364.5156,23.1563 Q364.1719,23.1563 363.9688,22.9531 Q363.7656,22.7656 363.6563,22.25 Q363.6094,21.8906 363.4219,21.7031 Q363.0938,21.3281 362.4844,21.1094 Q361.875,20.8906 361.25,20.8906 Q360.4844,20.8906 359.8516,21.2188 Q359.2188,21.5469 358.7266,22.2969 Q358.2344,23.0469 358.2344,24.0781 L358.2344,25.1719 Q358.2344,26.4063 359.125,27.2266 Q360.0156,28.0469 361.6094,28.0469 Q362.5469,28.0469 363.2031,27.7969 Q363.5938,27.6406 364.0156,27.2031 Q364.2813,26.9375 364.4297,26.8594 Q364.5781,26.7813 364.7813,26.7813 Q365.1094,26.7813 365.3672,27.0391 Q365.625,27.2969 365.625,27.6406 Q365.625,27.9844 365.2813,28.3906 Q364.7813,28.9688 363.9844,29.2969 Q362.9063,29.75 361.6094,29.75 Q360.0938,29.75 358.8906,29.125 Q357.9063,28.625 357.2188,27.5547 Q356.5313,26.4844 356.5313,25.2031 L356.5313,24.0469 Q356.5313,22.7188 357.1484,21.5703 Q357.7656,20.4219 358.8594,19.8047 Q359.9531,19.1875 361.1875,19.1875 Q361.9219,19.1875 362.5703,19.3516 Q363.2188,19.5156 363.7656,19.875 Z "/><text fill="#000000" font-family="sans-serif" font-size="12" lengthAdjust="spacingAndGlyphs" textLength="72" x="375" y="28.9102">Clase Base1</text><line style="stroke: #A80036; stroke-width: 1.5;" x1="347" x2="449" y1="40" y2="40"/><line style="stroke: #A80036; stroke-width: 1.5;" x1="347" x2="449" y1="48" y2="48"/><!--class ClaseDescendiente1ClaseBase2--><rect fill="#FEFECE" filter="url(#fkq1g8qhnxnne)" height="48" id="ClaseDescendiente1ClaseBase2" style="stroke: #A80036; stroke-width: 1.5;" width="227" x="153.5" y="116"/><ellipse cx="168.5" cy="132" fill="#ADD1B2" rx="11" ry="11" style="stroke: #A80036; stroke-width: 1.0;"/><path d="M171.2656,127.875 Q171.4219,127.6563 171.6094,127.5469 Q171.7969,127.4375 172.0156,127.4375 Q172.3906,127.4375 172.625,127.6953 Q172.8594,127.9531 172.8594,128.5625 L172.8594,130.0156 Q172.8594,130.625 172.625,130.8906 Q172.3906,131.1563 172.0156,131.1563 Q171.6719,131.1563 171.4688,130.9531 Q171.2656,130.7656 171.1563,130.25 Q171.1094,129.8906 170.9219,129.7031 Q170.5938,129.3281 169.9844,129.1094 Q169.375,128.8906 168.75,128.8906 Q167.9844,128.8906 167.3516,129.2188 Q166.7188,129.5469 166.2266,130.2969 Q165.7344,131.0469 165.7344,132.0781 L165.7344,133.1719 Q165.7344,134.4063 166.625,135.2266 Q167.5156,136.0469 169.1094,136.0469 Q170.0469,136.0469 170.7031,135.7969 Q171.0938,135.6406 171.5156,135.2031 Q171.7813,134.9375 171.9297,134.8594 Q172.0781,134.7813 172.2813,134.7813 Q172.6094,134.7813 172.8672,135.0391 Q173.125,135.2969 173.125,135.6406 Q173.125,135.9844 172.7813,136.3906 Q172.2813,136.9688 171.4844,137.2969 Q170.4063,137.75 169.1094,137.75 Q167.5938,137.75 166.3906,137.125 Q165.4063,136.625 164.7188,135.5547 Q164.0313,134.4844 164.0313,133.2031 L164.0313,132.0469 Q164.0313,130.7188 164.6484,129.5703 Q165.2656,128.4219 166.3594,127.8047 Q167.4531,127.1875 168.6875,127.1875 Q169.4219,127.1875 170.0703,127.3516 Q170.7188,127.5156 171.2656,127.875 Z "/><text fill="#000000" font-family="sans-serif" font-size="12" lengthAdjust="spacingAndGlyphs" textLength="195" x="182.5" y="136.9102">Clase Descendiente1/Clase Base2</text><line style="stroke: #A80036; stroke-width: 1.5;" x1="154.5" x2="379.5" y1="148" y2="148"/><line style="stroke: #A80036; stroke-width: 1.5;" x1="154.5" x2="379.5" y1="156" y2="156"/><!--class ClaseDescendiente2ClaseBase3--><rect fill="#FEFECE" filter="url(#fkq1g8qhnxnne)" height="48" id="ClaseDescendiente2ClaseBase3" style="stroke: #A80036; stroke-width: 1.5;" width="227" x="415.5" y="116"/><ellipse cx="430.5" cy="132" fill="#ADD1B2" rx="11" ry="11" style="stroke: #A80036; stroke-width: 1.0;"/><path d="M433.2656,127.875 Q433.4219,127.6563 433.6094,127.5469 Q433.7969,127.4375 434.0156,127.4375 Q434.3906,127.4375 434.625,127.6953 Q434.8594,127.9531 434.8594,128.5625 L434.8594,130.0156 Q434.8594,130.625 434.625,130.8906 Q434.3906,131.1563 434.0156,131.1563 Q433.6719,131.1563 433.4688,130.9531 Q433.2656,130.7656 433.1563,130.25 Q433.1094,129.8906 432.9219,129.7031 Q432.5938,129.3281 431.9844,129.1094 Q431.375,128.8906 430.75,128.8906 Q429.9844,128.8906 429.3516,129.2188 Q428.7188,129.5469 428.2266,130.2969 Q427.7344,131.0469 427.7344,132.0781 L427.7344,133.1719 Q427.7344,134.4063 428.625,135.2266 Q429.5156,136.0469 431.1094,136.0469 Q432.0469,136.0469 432.7031,135.7969 Q433.0938,135.6406 433.5156,135.2031 Q433.7813,134.9375 433.9297,134.8594 Q434.0781,134.7813 434.2813,134.7813 Q434.6094,134.7813 434.8672,135.0391 Q435.125,135.2969 435.125,135.6406 Q435.125,135.9844 434.7813,136.3906 Q434.2813,136.9688 433.4844,137.2969 Q432.4063,137.75 431.1094,137.75 Q429.5938,137.75 428.3906,137.125 Q427.4063,136.625 426.7188,135.5547 Q426.0313,134.4844 426.0313,133.2031 L426.0313,132.0469 Q426.0313,130.7188 426.6484,129.5703 Q427.2656,128.4219 428.3594,127.8047 Q429.4531,127.1875 430.6875,127.1875 Q431.4219,127.1875 432.0703,127.3516 Q432.7188,127.5156 433.2656,127.875 Z "/><text fill="#000000" font-family="sans-serif" font-size="12" lengthAdjust="spacingAndGlyphs" textLength="195" x="444.5" y="136.9102">Clase Descendiente2/Clase Base3</text><line style="stroke: #A80036; stroke-width: 1.5;" x1="416.5" x2="641.5" y1="148" y2="148"/><line style="stroke: #A80036; stroke-width: 1.5;" x1="416.5" x2="641.5" y1="156" y2="156"/><!--class ClaseDescendiente21--><rect fill="#FEFECE" filter="url(#fkq1g8qhnxnne)" height="48" id="ClaseDescendiente21" style="stroke: #A80036; stroke-width: 1.5;" width="162" x="6" y="224"/><ellipse cx="21" cy="240" fill="#ADD1B2" rx="11" ry="11" style="stroke: #A80036; stroke-width: 1.0;"/><path d="M23.7656,235.875 Q23.9219,235.6563 24.1094,235.5469 Q24.2969,235.4375 24.5156,235.4375 Q24.8906,235.4375 25.125,235.6953 Q25.3594,235.9531 25.3594,236.5625 L25.3594,238.0156 Q25.3594,238.625 25.125,238.8906 Q24.8906,239.1563 24.5156,239.1563 Q24.1719,239.1563 23.9688,238.9531 Q23.7656,238.7656 23.6563,238.25 Q23.6094,237.8906 23.4219,237.7031 Q23.0938,237.3281 22.4844,237.1094 Q21.875,236.8906 21.25,236.8906 Q20.4844,236.8906 19.8516,237.2188 Q19.2188,237.5469 18.7266,238.2969 Q18.2344,239.0469 18.2344,240.0781 L18.2344,241.1719 Q18.2344,242.4063 19.125,243.2266 Q20.0156,244.0469 21.6094,244.0469 Q22.5469,244.0469 23.2031,243.7969 Q23.5938,243.6406 24.0156,243.2031 Q24.2813,242.9375 24.4297,242.8594 Q24.5781,242.7813 24.7813,242.7813 Q25.1094,242.7813 25.3672,243.0391 Q25.625,243.2969 25.625,243.6406 Q25.625,243.9844 25.2813,244.3906 Q24.7813,244.9688 23.9844,245.2969 Q22.9063,245.75 21.6094,245.75 Q20.0938,245.75 18.8906,245.125 Q17.9063,244.625 17.2188,243.5547 Q16.5313,242.4844 16.5313,241.2031 L16.5313,240.0469 Q16.5313,238.7188 17.1484,237.5703 Q17.7656,236.4219 18.8594,235.8047 Q19.9531,235.1875 21.1875,235.1875 Q21.9219,235.1875 22.5703,235.3516 Q23.2188,235.5156 23.7656,235.875 Z "/><text fill="#000000" font-family="sans-serif" font-size="12" lengthAdjust="spacingAndGlyphs" textLength="130" x="35" y="244.9102">Clase Descendiente2/1</text><line style="stroke: #A80036; stroke-width: 1.5;" x1="7" x2="167" y1="256" y2="256"/><line style="stroke: #A80036; stroke-width: 1.5;" x1="7" x2="167" y1="264" y2="264"/><!--class ClaseDescendiente22--><rect fill="#FEFECE" filter="url(#fkq1g8qhnxnne)" height="48" id="ClaseDescendiente22" style="stroke: #A80036; stroke-width: 1.5;" width="162" x="203" y="224"/><ellipse cx="218" cy="240" fill="#ADD1B2" rx="11" ry="11" style="stroke: #A80036; stroke-width: 1.0;"/><path d="M220.7656,235.875 Q220.9219,235.6563 221.1094,235.5469 Q221.2969,235.4375 221.5156,235.4375 Q221.8906,235.4375 222.125,235.6953 Q222.3594,235.9531 222.3594,236.5625 L222.3594,238.0156 Q222.3594,238.625 222.125,238.8906 Q221.8906,239.1563 221.5156,239.1563 Q221.1719,239.1563 220.9688,238.9531 Q220.7656,238.7656 220.6563,238.25 Q220.6094,237.8906 220.4219,237.7031 Q220.0938,237.3281 219.4844,237.1094 Q218.875,236.8906 218.25,236.8906 Q217.4844,236.8906 216.8516,237.2188 Q216.2188,237.5469 215.7266,238.2969 Q215.2344,239.0469 215.2344,240.0781 L215.2344,241.1719 Q215.2344,242.4063 216.125,243.2266 Q217.0156,244.0469 218.6094,244.0469 Q219.5469,244.0469 220.2031,243.7969 Q220.5938,243.6406 221.0156,243.2031 Q221.2813,242.9375 221.4297,242.8594 Q221.5781,242.7813 221.7813,242.7813 Q222.1094,242.7813 222.3672,243.0391 Q222.625,243.2969 222.625,243.6406 Q222.625,243.9844 222.2813,244.3906 Q221.7813,244.9688 220.9844,245.2969 Q219.9063,245.75 218.6094,245.75 Q217.0938,245.75 215.8906,245.125 Q214.9063,244.625 214.2188,243.5547 Q213.5313,242.4844 213.5313,241.2031 L213.5313,240.0469 Q213.5313,238.7188 214.1484,237.5703 Q214.7656,236.4219 215.8594,235.8047 Q216.9531,235.1875 218.1875,235.1875 Q218.9219,235.1875 219.5703,235.3516 Q220.2188,235.5156 220.7656,235.875 Z "/><text fill="#000000" font-family="sans-serif" font-size="12" lengthAdjust="spacingAndGlyphs" textLength="130" x="232" y="244.9102">Clase Descendiente2/2</text><line style="stroke: #A80036; stroke-width: 1.5;" x1="204" x2="364" y1="256" y2="256"/><line style="stroke: #A80036; stroke-width: 1.5;" x1="204" x2="364" y1="264" y2="264"/><!--class ClaseDescendiente31--><rect fill="#FEFECE" filter="url(#fkq1g8qhnxnne)" height="48" id="ClaseDescendiente31" style="stroke: #A80036; stroke-width: 1.5;" width="162" x="432" y="224"/><ellipse cx="447" cy="240" fill="#ADD1B2" rx="11" ry="11" style="stroke: #A80036; stroke-width: 1.0;"/><path d="M449.7656,235.875 Q449.9219,235.6563 450.1094,235.5469 Q450.2969,235.4375 450.5156,235.4375 Q450.8906,235.4375 451.125,235.6953 Q451.3594,235.9531 451.3594,236.5625 L451.3594,238.0156 Q451.3594,238.625 451.125,238.8906 Q450.8906,239.1563 450.5156,239.1563 Q450.1719,239.1563 449.9688,238.9531 Q449.7656,238.7656 449.6563,238.25 Q449.6094,237.8906 449.4219,237.7031 Q449.0938,237.3281 448.4844,237.1094 Q447.875,236.8906 447.25,236.8906 Q446.4844,236.8906 445.8516,237.2188 Q445.2188,237.5469 444.7266,238.2969 Q444.2344,239.0469 444.2344,240.0781 L444.2344,241.1719 Q444.2344,242.4063 445.125,243.2266 Q446.0156,244.0469 447.6094,244.0469 Q448.5469,244.0469 449.2031,243.7969 Q449.5938,243.6406 450.0156,243.2031 Q450.2813,242.9375 450.4297,242.8594 Q450.5781,242.7813 450.7813,242.7813 Q451.1094,242.7813 451.3672,243.0391 Q451.625,243.2969 451.625,243.6406 Q451.625,243.9844 451.2813,244.3906 Q450.7813,244.9688 449.9844,245.2969 Q448.9063,245.75 447.6094,245.75 Q446.0938,245.75 444.8906,245.125 Q443.9063,244.625 443.2188,243.5547 Q442.5313,242.4844 442.5313,241.2031 L442.5313,240.0469 Q442.5313,238.7188 443.1484,237.5703 Q443.7656,236.4219 444.8594,235.8047 Q445.9531,235.1875 447.1875,235.1875 Q447.9219,235.1875 448.5703,235.3516 Q449.2188,235.5156 449.7656,235.875 Z "/><text fill="#000000" font-family="sans-serif" font-size="12" lengthAdjust="spacingAndGlyphs" textLength="130" x="461" y="244.9102">Clase Descendiente3/1</text><line style="stroke: #A80036; stroke-width: 1.5;" x1="433" x2="593" y1="256" y2="256"/><line style="stroke: #A80036; stroke-width: 1.5;" x1="433" x2="593" y1="264" y2="264"/><!--class ClaseDescendiente32--><rect fill="#FEFECE" filter="url(#fkq1g8qhnxnne)" height="48" id="ClaseDescendiente32" style="stroke: #A80036; stroke-width: 1.5;" width="162" x="629" y="224"/><ellipse cx="644" cy="240" fill="#ADD1B2" rx="11" ry="11" style="stroke: #A80036; stroke-width: 1.0;"/><path d="M646.7656,235.875 Q646.9219,235.6563 647.1094,235.5469 Q647.2969,235.4375 647.5156,235.4375 Q647.8906,235.4375 648.125,235.6953 Q648.3594,235.9531 648.3594,236.5625 L648.3594,238.0156 Q648.3594,238.625 648.125,238.8906 Q647.8906,239.1563 647.5156,239.1563 Q647.1719,239.1563 646.9688,238.9531 Q646.7656,238.7656 646.6563,238.25 Q646.6094,237.8906 646.4219,237.7031 Q646.0938,237.3281 645.4844,237.1094 Q644.875,236.8906 644.25,236.8906 Q643.4844,236.8906 642.8516,237.2188 Q642.2188,237.5469 641.7266,238.2969 Q641.2344,239.0469 641.2344,240.0781 L641.2344,241.1719 Q641.2344,242.4063 642.125,243.2266 Q643.0156,244.0469 644.6094,244.0469 Q645.5469,244.0469 646.2031,243.7969 Q646.5938,243.6406 647.0156,243.2031 Q647.2813,242.9375 647.4297,242.8594 Q647.5781,242.7813 647.7813,242.7813 Q648.1094,242.7813 648.3672,243.0391 Q648.625,243.2969 648.625,243.6406 Q648.625,243.9844 648.2813,244.3906 Q647.7813,244.9688 646.9844,245.2969 Q645.9063,245.75 644.6094,245.75 Q643.0938,245.75 641.8906,245.125 Q640.9063,244.625 640.2188,243.5547 Q639.5313,242.4844 639.5313,241.2031 L639.5313,240.0469 Q639.5313,238.7188 640.1484,237.5703 Q640.7656,236.4219 641.8594,235.8047 Q642.9531,235.1875 644.1875,235.1875 Q644.9219,235.1875 645.5703,235.3516 Q646.2188,235.5156 646.7656,235.875 Z "/><text fill="#000000" font-family="sans-serif" font-size="12" lengthAdjust="spacingAndGlyphs" textLength="130" x="658" y="244.9102">Clase Descendiente3/2</text><line style="stroke: #A80036; stroke-width: 1.5;" x1="630" x2="790" y1="256" y2="256"/><line style="stroke: #A80036; stroke-width: 1.5;" x1="630" x2="790" y1="264" y2="264"/><!--link ClaseBase1 to ClaseDescendiente1ClaseBase2--><path d="M353.96,68.635 C334.79,84.147 312.862,101.89 295.822,115.678 " fill="none" id="ClaseBase1-ClaseDescendiente1ClaseBase2" style="stroke: #A80036; stroke-width: 1.0;"/><polygon fill="none" points="349.624,63.139,369.575,56,358.43,74.023,349.624,63.139" style="stroke: #A80036; stroke-width: 1.0;"/><!--link ClaseBase1 to ClaseDescendiente2ClaseBase3--><path d="M442.04,68.635 C461.21,84.147 483.138,101.89 500.178,115.678 " fill="none" id="ClaseBase1-ClaseDescendiente2ClaseBase3" style="stroke: #A80036; stroke-width: 1.0;"/><polygon fill="none" points="437.57,74.023,426.425,56,446.376,63.139,437.57,74.023" style="stroke: #A80036; stroke-width: 1.0;"/><!--link ClaseDescendiente1ClaseBase2 to ClaseDescendiente21--><path d="M210.365,174.3518 C183.027,190.451 150.904,209.3677 126.291,223.8617 " fill="none" id="ClaseDescendiente1ClaseBase2-ClaseDescendiente21" style="stroke: #A80036; stroke-width: 1.0;"/><polygon fill="none" points="207.157,168.117,227.943,164,214.261,180.1811,207.157,168.117" style="stroke: #A80036; stroke-width: 1.0;"/><!--link ClaseDescendiente1ClaseBase2 to ClaseDescendiente22--><path d="M273.9,184.0236 C276.074,197.5792 278.393,212.0381 280.26,223.6784 " fill="none" id="ClaseDescendiente1ClaseBase2-ClaseDescendiente22" style="stroke: #A80036; stroke-width: 1.0;"/><polygon fill="none" points="266.944,184.8566,270.689,164,280.768,182.6396,266.944,184.8566" style="stroke: #A80036; stroke-width: 1.0;"/><!--link ClaseDescendiente2ClaseBase3 to ClaseDescendiente31--><path d="M522.506,184.0236 C520.46,197.5792 518.277,212.0381 516.52,223.6784 " fill="none" id="ClaseDescendiente2ClaseBase3-ClaseDescendiente31" style="stroke: #A80036; stroke-width: 1.0;"/><polygon fill="none" points="515.622,182.7316,525.528,164,529.465,184.8212,515.622,182.7316" style="stroke: #A80036; stroke-width: 1.0;"/><!--link ClaseDescendiente2ClaseBase3 to ClaseDescendiente32--><path d="M585.555,174.1209 C613.131,190.2698 645.623,209.2984 670.49,223.8617 " fill="none" id="ClaseDescendiente2ClaseBase3-ClaseDescendiente32" style="stroke: #A80036; stroke-width: 1.0;"/><polygon fill="none" points="581.995,180.1479,568.274,164,589.07,168.067,581.995,180.1479" style="stroke: #A80036; stroke-width: 1.0;"/><!--
@startuml
class "Clase Base1" as ClaseBase1
class "Clase Descendiente1/Clase Base2" as ClaseDescendiente1ClaseBase2
class "Clase Descendiente2/Clase Base3" as ClaseDescendiente2ClaseBase3
class "Clase Descendiente2/1" as ClaseDescendiente21
class "Clase Descendiente2/2" as ClaseDescendiente22
class "Clase Descendiente3/1" as ClaseDescendiente31
class "Clase Descendiente3/2" as ClaseDescendiente32

ClaseBase1 <|-down-ClaseDescendiente1ClaseBase2
ClaseBase1 <|-down-ClaseDescendiente2ClaseBase3
ClaseDescendiente1ClaseBase2 <|-down-ClaseDescendiente21
ClaseDescendiente1ClaseBase2 <|-down-ClaseDescendiente22
ClaseDescendiente2ClaseBase3 <|-down-ClaseDescendiente31
ClaseDescendiente2ClaseBase3 <|-down-ClaseDescendiente32
@enduml

PlantUML version 1.2019.05(Sat Apr 20 18:45:36 CEST 2019)
(GPL source distribution)
Java Runtime: Java(TM) SE Runtime Environment
JVM: Java HotSpot(TM) 64-Bit Server VM
Java Version: 1.8.0_211-b12
Operating System: Windows 10
OS Version: 10.0
Default Encoding: windows-1252
Language: es
Country: ES
--></g></svg>