<?xml version="1.0" encoding="UTF-8" standalone="no"?><svg xmlns="http://www.w3.org/2000/svg" xmlns:xlink="http://www.w3.org/1999/xlink" contentScriptType="application/ecmascript" contentStyleType="text/css" height="433px" preserveAspectRatio="none" style="width:1190px;height:433px;" version="1.1" viewBox="0 0 1190 433" width="1190px" zoomAndPan="magnify"><defs><filter height="300%" id="f16n52h1kqrt" width="300%" x="-1" y="-1"><feGaussianBlur result="blurOut" stdDeviation="2.0"/><feColorMatrix in="blurOut" result="blurOut2" type="matrix" values="0 0 0 0 0 0 0 0 0 0 0 0 0 0 0 0 0 0 .4 0"/><feOffset dx="4.0" dy="4.0" in="blurOut2" result="blurOut3"/><feBlend in="SourceGraphic" in2="blurOut3" mode="normal"/></filter></defs><g><!--cluster necesidades--><!--class Necesidad--><rect fill="#FEFECE" filter="url(#f16n52h1kqrt)" height="48" id="Necesidad" style="stroke: #A80036; stroke-width: 1.5;" width="92" x="574" y="156"/><ellipse cx="589" cy="172" fill="#ADD1B2" rx="11" ry="11" style="stroke: #A80036; stroke-width: 1.0;"/><path d="M591.7656,167.875 Q591.9219,167.6563 592.1094,167.5469 Q592.2969,167.4375 592.5156,167.4375 Q592.8906,167.4375 593.125,167.6953 Q593.3594,167.9531 593.3594,168.5625 L593.3594,170.0156 Q593.3594,170.625 593.125,170.8906 Q592.8906,171.1563 592.5156,171.1563 Q592.1719,171.1563 591.9688,170.9531 Q591.7656,170.7656 591.6563,170.25 Q591.6094,169.8906 591.4219,169.7031 Q591.0938,169.3281 590.4844,169.1094 Q589.875,168.8906 589.25,168.8906 Q588.4844,168.8906 587.8516,169.2188 Q587.2188,169.5469 586.7266,170.2969 Q586.2344,171.0469 586.2344,172.0781 L586.2344,173.1719 Q586.2344,174.4063 587.125,175.2266 Q588.0156,176.0469 589.6094,176.0469 Q590.5469,176.0469 591.2031,175.7969 Q591.5938,175.6406 592.0156,175.2031 Q592.2813,174.9375 592.4297,174.8594 Q592.5781,174.7813 592.7813,174.7813 Q593.1094,174.7813 593.3672,175.0391 Q593.625,175.2969 593.625,175.6406 Q593.625,175.9844 593.2813,176.3906 Q592.7813,176.9688 591.9844,177.2969 Q590.9063,177.75 589.6094,177.75 Q588.0938,177.75 586.8906,177.125 Q585.9063,176.625 585.2188,175.5547 Q584.5313,174.4844 584.5313,173.2031 L584.5313,172.0469 Q584.5313,170.7188 585.1484,169.5703 Q585.7656,168.4219 586.8594,167.8047 Q587.9531,167.1875 589.1875,167.1875 Q589.9219,167.1875 590.5703,167.3516 Q591.2188,167.5156 591.7656,167.875 Z "/><text fill="#000000" font-family="sans-serif" font-size="12" lengthAdjust="spacingAndGlyphs" textLength="60" x="603" y="176.9102">Necesidad</text><line style="stroke: #A80036; stroke-width: 1.5;" x1="575" x2="665" y1="188" y2="188"/><line style="stroke: #A80036; stroke-width: 1.5;" x1="575" x2="665" y1="196" y2="196"/><!--class Fisiologica--><rect fill="#FEFECE" filter="url(#f16n52h1kqrt)" height="48" id="Fisiologica" style="stroke: #A80036; stroke-width: 1.5;" width="92" x="215" y="265"/><ellipse cx="230" cy="281" fill="#ADD1B2" rx="11" ry="11" style="stroke: #A80036; stroke-width: 1.0;"/><path d="M232.7656,276.875 Q232.9219,276.6563 233.1094,276.5469 Q233.2969,276.4375 233.5156,276.4375 Q233.8906,276.4375 234.125,276.6953 Q234.3594,276.9531 234.3594,277.5625 L234.3594,279.0156 Q234.3594,279.625 234.125,279.8906 Q233.8906,280.1563 233.5156,280.1563 Q233.1719,280.1563 232.9688,279.9531 Q232.7656,279.7656 232.6563,279.25 Q232.6094,278.8906 232.4219,278.7031 Q232.0938,278.3281 231.4844,278.1094 Q230.875,277.8906 230.25,277.8906 Q229.4844,277.8906 228.8516,278.2188 Q228.2188,278.5469 227.7266,279.2969 Q227.2344,280.0469 227.2344,281.0781 L227.2344,282.1719 Q227.2344,283.4063 228.125,284.2266 Q229.0156,285.0469 230.6094,285.0469 Q231.5469,285.0469 232.2031,284.7969 Q232.5938,284.6406 233.0156,284.2031 Q233.2813,283.9375 233.4297,283.8594 Q233.5781,283.7813 233.7813,283.7813 Q234.1094,283.7813 234.3672,284.0391 Q234.625,284.2969 234.625,284.6406 Q234.625,284.9844 234.2813,285.3906 Q233.7813,285.9688 232.9844,286.2969 Q231.9063,286.75 230.6094,286.75 Q229.0938,286.75 227.8906,286.125 Q226.9063,285.625 226.2188,284.5547 Q225.5313,283.4844 225.5313,282.2031 L225.5313,281.0469 Q225.5313,279.7188 226.1484,278.5703 Q226.7656,277.4219 227.8594,276.8047 Q228.9531,276.1875 230.1875,276.1875 Q230.9219,276.1875 231.5703,276.3516 Q232.2188,276.5156 232.7656,276.875 Z "/><text fill="#000000" font-family="sans-serif" font-size="12" lengthAdjust="spacingAndGlyphs" textLength="60" x="244" y="285.9102">Fisiologica</text><line style="stroke: #A80036; stroke-width: 1.5;" x1="216" x2="306" y1="297" y2="297"/><line style="stroke: #A80036; stroke-width: 1.5;" x1="216" x2="306" y1="305" y2="305"/><!--class Seguridad--><rect fill="#FEFECE" filter="url(#f16n52h1kqrt)" height="48" id="Seguridad" style="stroke: #A80036; stroke-width: 1.5;" width="89" x="409.5" y="265"/><ellipse cx="424.5" cy="281" fill="#ADD1B2" rx="11" ry="11" style="stroke: #A80036; stroke-width: 1.0;"/><path d="M427.2656,276.875 Q427.4219,276.6563 427.6094,276.5469 Q427.7969,276.4375 428.0156,276.4375 Q428.3906,276.4375 428.625,276.6953 Q428.8594,276.9531 428.8594,277.5625 L428.8594,279.0156 Q428.8594,279.625 428.625,279.8906 Q428.3906,280.1563 428.0156,280.1563 Q427.6719,280.1563 427.4688,279.9531 Q427.2656,279.7656 427.1563,279.25 Q427.1094,278.8906 426.9219,278.7031 Q426.5938,278.3281 425.9844,278.1094 Q425.375,277.8906 424.75,277.8906 Q423.9844,277.8906 423.3516,278.2188 Q422.7188,278.5469 422.2266,279.2969 Q421.7344,280.0469 421.7344,281.0781 L421.7344,282.1719 Q421.7344,283.4063 422.625,284.2266 Q423.5156,285.0469 425.1094,285.0469 Q426.0469,285.0469 426.7031,284.7969 Q427.0938,284.6406 427.5156,284.2031 Q427.7813,283.9375 427.9297,283.8594 Q428.0781,283.7813 428.2813,283.7813 Q428.6094,283.7813 428.8672,284.0391 Q429.125,284.2969 429.125,284.6406 Q429.125,284.9844 428.7813,285.3906 Q428.2813,285.9688 427.4844,286.2969 Q426.4063,286.75 425.1094,286.75 Q423.5938,286.75 422.3906,286.125 Q421.4063,285.625 420.7188,284.5547 Q420.0313,283.4844 420.0313,282.2031 L420.0313,281.0469 Q420.0313,279.7188 420.6484,278.5703 Q421.2656,277.4219 422.3594,276.8047 Q423.4531,276.1875 424.6875,276.1875 Q425.4219,276.1875 426.0703,276.3516 Q426.7188,276.5156 427.2656,276.875 Z "/><text fill="#000000" font-family="sans-serif" font-size="12" lengthAdjust="spacingAndGlyphs" textLength="57" x="438.5" y="285.9102">Seguridad</text><line style="stroke: #A80036; stroke-width: 1.5;" x1="410.5" x2="497.5" y1="297" y2="297"/><line style="stroke: #A80036; stroke-width: 1.5;" x1="410.5" x2="497.5" y1="305" y2="305"/><!--class Afilacion--><rect fill="#FEFECE" filter="url(#f16n52h1kqrt)" height="48" id="Afilacion" style="stroke: #A80036; stroke-width: 1.5;" width="78" x="581" y="265"/><ellipse cx="596" cy="281" fill="#ADD1B2" rx="11" ry="11" style="stroke: #A80036; stroke-width: 1.0;"/><path d="M598.7656,276.875 Q598.9219,276.6563 599.1094,276.5469 Q599.2969,276.4375 599.5156,276.4375 Q599.8906,276.4375 600.125,276.6953 Q600.3594,276.9531 600.3594,277.5625 L600.3594,279.0156 Q600.3594,279.625 600.125,279.8906 Q599.8906,280.1563 599.5156,280.1563 Q599.1719,280.1563 598.9688,279.9531 Q598.7656,279.7656 598.6563,279.25 Q598.6094,278.8906 598.4219,278.7031 Q598.0938,278.3281 597.4844,278.1094 Q596.875,277.8906 596.25,277.8906 Q595.4844,277.8906 594.8516,278.2188 Q594.2188,278.5469 593.7266,279.2969 Q593.2344,280.0469 593.2344,281.0781 L593.2344,282.1719 Q593.2344,283.4063 594.125,284.2266 Q595.0156,285.0469 596.6094,285.0469 Q597.5469,285.0469 598.2031,284.7969 Q598.5938,284.6406 599.0156,284.2031 Q599.2813,283.9375 599.4297,283.8594 Q599.5781,283.7813 599.7813,283.7813 Q600.1094,283.7813 600.3672,284.0391 Q600.625,284.2969 600.625,284.6406 Q600.625,284.9844 600.2813,285.3906 Q599.7813,285.9688 598.9844,286.2969 Q597.9063,286.75 596.6094,286.75 Q595.0938,286.75 593.8906,286.125 Q592.9063,285.625 592.2188,284.5547 Q591.5313,283.4844 591.5313,282.2031 L591.5313,281.0469 Q591.5313,279.7188 592.1484,278.5703 Q592.7656,277.4219 593.8594,276.8047 Q594.9531,276.1875 596.1875,276.1875 Q596.9219,276.1875 597.5703,276.3516 Q598.2188,276.5156 598.7656,276.875 Z "/><text fill="#000000" font-family="sans-serif" font-size="12" lengthAdjust="spacingAndGlyphs" textLength="46" x="610" y="285.9102">Afilacion</text><line style="stroke: #A80036; stroke-width: 1.5;" x1="582" x2="658" y1="297" y2="297"/><line style="stroke: #A80036; stroke-width: 1.5;" x1="582" x2="658" y1="305" y2="305"/><!--class Reconocimiento--><rect fill="#FEFECE" filter="url(#f16n52h1kqrt)" height="48" id="Reconocimiento" style="stroke: #A80036; stroke-width: 1.5;" width="122" x="742" y="265"/><ellipse cx="757" cy="281" fill="#ADD1B2" rx="11" ry="11" style="stroke: #A80036; stroke-width: 1.0;"/><path d="M759.7656,276.875 Q759.9219,276.6563 760.1094,276.5469 Q760.2969,276.4375 760.5156,276.4375 Q760.8906,276.4375 761.125,276.6953 Q761.3594,276.9531 761.3594,277.5625 L761.3594,279.0156 Q761.3594,279.625 761.125,279.8906 Q760.8906,280.1563 760.5156,280.1563 Q760.1719,280.1563 759.9688,279.9531 Q759.7656,279.7656 759.6563,279.25 Q759.6094,278.8906 759.4219,278.7031 Q759.0938,278.3281 758.4844,278.1094 Q757.875,277.8906 757.25,277.8906 Q756.4844,277.8906 755.8516,278.2188 Q755.2188,278.5469 754.7266,279.2969 Q754.2344,280.0469 754.2344,281.0781 L754.2344,282.1719 Q754.2344,283.4063 755.125,284.2266 Q756.0156,285.0469 757.6094,285.0469 Q758.5469,285.0469 759.2031,284.7969 Q759.5938,284.6406 760.0156,284.2031 Q760.2813,283.9375 760.4297,283.8594 Q760.5781,283.7813 760.7813,283.7813 Q761.1094,283.7813 761.3672,284.0391 Q761.625,284.2969 761.625,284.6406 Q761.625,284.9844 761.2813,285.3906 Q760.7813,285.9688 759.9844,286.2969 Q758.9063,286.75 757.6094,286.75 Q756.0938,286.75 754.8906,286.125 Q753.9063,285.625 753.2188,284.5547 Q752.5313,283.4844 752.5313,282.2031 L752.5313,281.0469 Q752.5313,279.7188 753.1484,278.5703 Q753.7656,277.4219 754.8594,276.8047 Q755.9531,276.1875 757.1875,276.1875 Q757.9219,276.1875 758.5703,276.3516 Q759.2188,276.5156 759.7656,276.875 Z "/><text fill="#000000" font-family="sans-serif" font-size="12" lengthAdjust="spacingAndGlyphs" textLength="90" x="771" y="285.9102">Reconocimiento</text><line style="stroke: #A80036; stroke-width: 1.5;" x1="743" x2="863" y1="297" y2="297"/><line style="stroke: #A80036; stroke-width: 1.5;" x1="743" x2="863" y1="305" y2="305"/><!--class Autorealización--><rect fill="#FEFECE" filter="url(#f16n52h1kqrt)" height="48" id="Autorealización" style="stroke: #A80036; stroke-width: 1.5;" width="115" x="964.5" y="265"/><ellipse cx="979.5" cy="281" fill="#ADD1B2" rx="11" ry="11" style="stroke: #A80036; stroke-width: 1.0;"/><path d="M982.2656,276.875 Q982.4219,276.6563 982.6094,276.5469 Q982.7969,276.4375 983.0156,276.4375 Q983.3906,276.4375 983.625,276.6953 Q983.8594,276.9531 983.8594,277.5625 L983.8594,279.0156 Q983.8594,279.625 983.625,279.8906 Q983.3906,280.1563 983.0156,280.1563 Q982.6719,280.1563 982.4688,279.9531 Q982.2656,279.7656 982.1563,279.25 Q982.1094,278.8906 981.9219,278.7031 Q981.5938,278.3281 980.9844,278.1094 Q980.375,277.8906 979.75,277.8906 Q978.9844,277.8906 978.3516,278.2188 Q977.7188,278.5469 977.2266,279.2969 Q976.7344,280.0469 976.7344,281.0781 L976.7344,282.1719 Q976.7344,283.4063 977.625,284.2266 Q978.5156,285.0469 980.1094,285.0469 Q981.0469,285.0469 981.7031,284.7969 Q982.0938,284.6406 982.5156,284.2031 Q982.7813,283.9375 982.9297,283.8594 Q983.0781,283.7813 983.2813,283.7813 Q983.6094,283.7813 983.8672,284.0391 Q984.125,284.2969 984.125,284.6406 Q984.125,284.9844 983.7813,285.3906 Q983.2813,285.9688 982.4844,286.2969 Q981.4063,286.75 980.1094,286.75 Q978.5938,286.75 977.3906,286.125 Q976.4063,285.625 975.7188,284.5547 Q975.0313,283.4844 975.0313,282.2031 L975.0313,281.0469 Q975.0313,279.7188 975.6484,278.5703 Q976.2656,277.4219 977.3594,276.8047 Q978.4531,276.1875 979.6875,276.1875 Q980.4219,276.1875 981.0703,276.3516 Q981.7188,276.5156 982.2656,276.875 Z "/><text fill="#000000" font-family="sans-serif" font-size="12" lengthAdjust="spacingAndGlyphs" textLength="83" x="993.5" y="285.9102">Autorealización</text><line style="stroke: #A80036; stroke-width: 1.5;" x1="965.5" x2="1078.5" y1="297" y2="297"/><line style="stroke: #A80036; stroke-width: 1.5;" x1="965.5" x2="1078.5" y1="305" y2="305"/><!--class Alimentaccion--><rect fill="#FEFECE" filter="url(#f16n52h1kqrt)" height="48" id="Alimentaccion" style="stroke: #A80036; stroke-width: 1.5;" width="109" x="38.5" y="374"/><ellipse cx="53.5" cy="390" fill="#ADD1B2" rx="11" ry="11" style="stroke: #A80036; stroke-width: 1.0;"/><path d="M56.2656,385.875 Q56.4219,385.6563 56.6094,385.5469 Q56.7969,385.4375 57.0156,385.4375 Q57.3906,385.4375 57.625,385.6953 Q57.8594,385.9531 57.8594,386.5625 L57.8594,388.0156 Q57.8594,388.625 57.625,388.8906 Q57.3906,389.1563 57.0156,389.1563 Q56.6719,389.1563 56.4688,388.9531 Q56.2656,388.7656 56.1563,388.25 Q56.1094,387.8906 55.9219,387.7031 Q55.5938,387.3281 54.9844,387.1094 Q54.375,386.8906 53.75,386.8906 Q52.9844,386.8906 52.3516,387.2188 Q51.7188,387.5469 51.2266,388.2969 Q50.7344,389.0469 50.7344,390.0781 L50.7344,391.1719 Q50.7344,392.4063 51.625,393.2266 Q52.5156,394.0469 54.1094,394.0469 Q55.0469,394.0469 55.7031,393.7969 Q56.0938,393.6406 56.5156,393.2031 Q56.7813,392.9375 56.9297,392.8594 Q57.0781,392.7813 57.2813,392.7813 Q57.6094,392.7813 57.8672,393.0391 Q58.125,393.2969 58.125,393.6406 Q58.125,393.9844 57.7813,394.3906 Q57.2813,394.9688 56.4844,395.2969 Q55.4063,395.75 54.1094,395.75 Q52.5938,395.75 51.3906,395.125 Q50.4063,394.625 49.7188,393.5547 Q49.0313,392.4844 49.0313,391.2031 L49.0313,390.0469 Q49.0313,388.7188 49.6484,387.5703 Q50.2656,386.4219 51.3594,385.8047 Q52.4531,385.1875 53.6875,385.1875 Q54.4219,385.1875 55.0703,385.3516 Q55.7188,385.5156 56.2656,385.875 Z "/><text fill="#000000" font-family="sans-serif" font-size="12" lengthAdjust="spacingAndGlyphs" textLength="77" x="67.5" y="394.9102">Alimentaccion</text><line style="stroke: #A80036; stroke-width: 1.5;" x1="39.5" x2="146.5" y1="406" y2="406"/><line style="stroke: #A80036; stroke-width: 1.5;" x1="39.5" x2="146.5" y1="414" y2="414"/><!--class Temperatura--><rect fill="#FEFECE" filter="url(#f16n52h1kqrt)" height="48" id="Temperatura" style="stroke: #A80036; stroke-width: 1.5;" width="103" x="182.5" y="374"/><ellipse cx="197.5" cy="390" fill="#ADD1B2" rx="11" ry="11" style="stroke: #A80036; stroke-width: 1.0;"/><path d="M200.2656,385.875 Q200.4219,385.6563 200.6094,385.5469 Q200.7969,385.4375 201.0156,385.4375 Q201.3906,385.4375 201.625,385.6953 Q201.8594,385.9531 201.8594,386.5625 L201.8594,388.0156 Q201.8594,388.625 201.625,388.8906 Q201.3906,389.1563 201.0156,389.1563 Q200.6719,389.1563 200.4688,388.9531 Q200.2656,388.7656 200.1563,388.25 Q200.1094,387.8906 199.9219,387.7031 Q199.5938,387.3281 198.9844,387.1094 Q198.375,386.8906 197.75,386.8906 Q196.9844,386.8906 196.3516,387.2188 Q195.7188,387.5469 195.2266,388.2969 Q194.7344,389.0469 194.7344,390.0781 L194.7344,391.1719 Q194.7344,392.4063 195.625,393.2266 Q196.5156,394.0469 198.1094,394.0469 Q199.0469,394.0469 199.7031,393.7969 Q200.0938,393.6406 200.5156,393.2031 Q200.7813,392.9375 200.9297,392.8594 Q201.0781,392.7813 201.2813,392.7813 Q201.6094,392.7813 201.8672,393.0391 Q202.125,393.2969 202.125,393.6406 Q202.125,393.9844 201.7813,394.3906 Q201.2813,394.9688 200.4844,395.2969 Q199.4063,395.75 198.1094,395.75 Q196.5938,395.75 195.3906,395.125 Q194.4063,394.625 193.7188,393.5547 Q193.0313,392.4844 193.0313,391.2031 L193.0313,390.0469 Q193.0313,388.7188 193.6484,387.5703 Q194.2656,386.4219 195.3594,385.8047 Q196.4531,385.1875 197.6875,385.1875 Q198.4219,385.1875 199.0703,385.3516 Q199.7188,385.5156 200.2656,385.875 Z "/><text fill="#000000" font-family="sans-serif" font-size="12" lengthAdjust="spacingAndGlyphs" textLength="71" x="211.5" y="394.9102">Temperatura</text><line style="stroke: #A80036; stroke-width: 1.5;" x1="183.5" x2="284.5" y1="406" y2="406"/><line style="stroke: #A80036; stroke-width: 1.5;" x1="183.5" x2="284.5" y1="414" y2="414"/><!--class Fisica--><rect fill="#FEFECE" filter="url(#f16n52h1kqrt)" height="48" id="Fisica" style="stroke: #A80036; stroke-width: 1.5;" width="65" x="320.5" y="374"/><ellipse cx="335.5" cy="390" fill="#ADD1B2" rx="11" ry="11" style="stroke: #A80036; stroke-width: 1.0;"/><path d="M338.2656,385.875 Q338.4219,385.6563 338.6094,385.5469 Q338.7969,385.4375 339.0156,385.4375 Q339.3906,385.4375 339.625,385.6953 Q339.8594,385.9531 339.8594,386.5625 L339.8594,388.0156 Q339.8594,388.625 339.625,388.8906 Q339.3906,389.1563 339.0156,389.1563 Q338.6719,389.1563 338.4688,388.9531 Q338.2656,388.7656 338.1563,388.25 Q338.1094,387.8906 337.9219,387.7031 Q337.5938,387.3281 336.9844,387.1094 Q336.375,386.8906 335.75,386.8906 Q334.9844,386.8906 334.3516,387.2188 Q333.7188,387.5469 333.2266,388.2969 Q332.7344,389.0469 332.7344,390.0781 L332.7344,391.1719 Q332.7344,392.4063 333.625,393.2266 Q334.5156,394.0469 336.1094,394.0469 Q337.0469,394.0469 337.7031,393.7969 Q338.0938,393.6406 338.5156,393.2031 Q338.7813,392.9375 338.9297,392.8594 Q339.0781,392.7813 339.2813,392.7813 Q339.6094,392.7813 339.8672,393.0391 Q340.125,393.2969 340.125,393.6406 Q340.125,393.9844 339.7813,394.3906 Q339.2813,394.9688 338.4844,395.2969 Q337.4063,395.75 336.1094,395.75 Q334.5938,395.75 333.3906,395.125 Q332.4063,394.625 331.7188,393.5547 Q331.0313,392.4844 331.0313,391.2031 L331.0313,390.0469 Q331.0313,388.7188 331.6484,387.5703 Q332.2656,386.4219 333.3594,385.8047 Q334.4531,385.1875 335.6875,385.1875 Q336.4219,385.1875 337.0703,385.3516 Q337.7188,385.5156 338.2656,385.875 Z "/><text fill="#000000" font-family="sans-serif" font-size="12" lengthAdjust="spacingAndGlyphs" textLength="33" x="349.5" y="394.9102">Fisica</text><line style="stroke: #A80036; stroke-width: 1.5;" x1="321.5" x2="384.5" y1="406" y2="406"/><line style="stroke: #A80036; stroke-width: 1.5;" x1="321.5" x2="384.5" y1="414" y2="414"/><!--class Recursos--><rect fill="#FEFECE" filter="url(#f16n52h1kqrt)" height="48" id="Recursos" style="stroke: #A80036; stroke-width: 1.5;" width="86" x="421" y="374"/><ellipse cx="436" cy="390" fill="#ADD1B2" rx="11" ry="11" style="stroke: #A80036; stroke-width: 1.0;"/><path d="M438.7656,385.875 Q438.9219,385.6563 439.1094,385.5469 Q439.2969,385.4375 439.5156,385.4375 Q439.8906,385.4375 440.125,385.6953 Q440.3594,385.9531 440.3594,386.5625 L440.3594,388.0156 Q440.3594,388.625 440.125,388.8906 Q439.8906,389.1563 439.5156,389.1563 Q439.1719,389.1563 438.9688,388.9531 Q438.7656,388.7656 438.6563,388.25 Q438.6094,387.8906 438.4219,387.7031 Q438.0938,387.3281 437.4844,387.1094 Q436.875,386.8906 436.25,386.8906 Q435.4844,386.8906 434.8516,387.2188 Q434.2188,387.5469 433.7266,388.2969 Q433.2344,389.0469 433.2344,390.0781 L433.2344,391.1719 Q433.2344,392.4063 434.125,393.2266 Q435.0156,394.0469 436.6094,394.0469 Q437.5469,394.0469 438.2031,393.7969 Q438.5938,393.6406 439.0156,393.2031 Q439.2813,392.9375 439.4297,392.8594 Q439.5781,392.7813 439.7813,392.7813 Q440.1094,392.7813 440.3672,393.0391 Q440.625,393.2969 440.625,393.6406 Q440.625,393.9844 440.2813,394.3906 Q439.7813,394.9688 438.9844,395.2969 Q437.9063,395.75 436.6094,395.75 Q435.0938,395.75 433.8906,395.125 Q432.9063,394.625 432.2188,393.5547 Q431.5313,392.4844 431.5313,391.2031 L431.5313,390.0469 Q431.5313,388.7188 432.1484,387.5703 Q432.7656,386.4219 433.8594,385.8047 Q434.9531,385.1875 436.1875,385.1875 Q436.9219,385.1875 437.5703,385.3516 Q438.2188,385.5156 438.7656,385.875 Z "/><text fill="#000000" font-family="sans-serif" font-size="12" lengthAdjust="spacingAndGlyphs" textLength="54" x="450" y="394.9102">Recursos</text><line style="stroke: #A80036; stroke-width: 1.5;" x1="422" x2="506" y1="406" y2="406"/><line style="stroke: #A80036; stroke-width: 1.5;" x1="422" x2="506" y1="414" y2="414"/><!--class Amistad--><rect fill="#FEFECE" filter="url(#f16n52h1kqrt)" height="48" id="Amistad" style="stroke: #A80036; stroke-width: 1.5;" width="77" x="542.5" y="374"/><ellipse cx="557.5" cy="390" fill="#ADD1B2" rx="11" ry="11" style="stroke: #A80036; stroke-width: 1.0;"/><path d="M560.2656,385.875 Q560.4219,385.6563 560.6094,385.5469 Q560.7969,385.4375 561.0156,385.4375 Q561.3906,385.4375 561.625,385.6953 Q561.8594,385.9531 561.8594,386.5625 L561.8594,388.0156 Q561.8594,388.625 561.625,388.8906 Q561.3906,389.1563 561.0156,389.1563 Q560.6719,389.1563 560.4688,388.9531 Q560.2656,388.7656 560.1563,388.25 Q560.1094,387.8906 559.9219,387.7031 Q559.5938,387.3281 558.9844,387.1094 Q558.375,386.8906 557.75,386.8906 Q556.9844,386.8906 556.3516,387.2188 Q555.7188,387.5469 555.2266,388.2969 Q554.7344,389.0469 554.7344,390.0781 L554.7344,391.1719 Q554.7344,392.4063 555.625,393.2266 Q556.5156,394.0469 558.1094,394.0469 Q559.0469,394.0469 559.7031,393.7969 Q560.0938,393.6406 560.5156,393.2031 Q560.7813,392.9375 560.9297,392.8594 Q561.0781,392.7813 561.2813,392.7813 Q561.6094,392.7813 561.8672,393.0391 Q562.125,393.2969 562.125,393.6406 Q562.125,393.9844 561.7813,394.3906 Q561.2813,394.9688 560.4844,395.2969 Q559.4063,395.75 558.1094,395.75 Q556.5938,395.75 555.3906,395.125 Q554.4063,394.625 553.7188,393.5547 Q553.0313,392.4844 553.0313,391.2031 L553.0313,390.0469 Q553.0313,388.7188 553.6484,387.5703 Q554.2656,386.4219 555.3594,385.8047 Q556.4531,385.1875 557.6875,385.1875 Q558.4219,385.1875 559.0703,385.3516 Q559.7188,385.5156 560.2656,385.875 Z "/><text fill="#000000" font-family="sans-serif" font-size="12" lengthAdjust="spacingAndGlyphs" textLength="45" x="571.5" y="394.9102">Amistad</text><line style="stroke: #A80036; stroke-width: 1.5;" x1="543.5" x2="618.5" y1="406" y2="406"/><line style="stroke: #A80036; stroke-width: 1.5;" x1="543.5" x2="618.5" y1="414" y2="414"/><!--class Sexo--><rect fill="#FEFECE" filter="url(#f16n52h1kqrt)" height="48" id="Sexo" style="stroke: #A80036; stroke-width: 1.5;" width="59" x="654.5" y="374"/><ellipse cx="669.5" cy="390" fill="#ADD1B2" rx="11" ry="11" style="stroke: #A80036; stroke-width: 1.0;"/><path d="M672.2656,385.875 Q672.4219,385.6563 672.6094,385.5469 Q672.7969,385.4375 673.0156,385.4375 Q673.3906,385.4375 673.625,385.6953 Q673.8594,385.9531 673.8594,386.5625 L673.8594,388.0156 Q673.8594,388.625 673.625,388.8906 Q673.3906,389.1563 673.0156,389.1563 Q672.6719,389.1563 672.4688,388.9531 Q672.2656,388.7656 672.1563,388.25 Q672.1094,387.8906 671.9219,387.7031 Q671.5938,387.3281 670.9844,387.1094 Q670.375,386.8906 669.75,386.8906 Q668.9844,386.8906 668.3516,387.2188 Q667.7188,387.5469 667.2266,388.2969 Q666.7344,389.0469 666.7344,390.0781 L666.7344,391.1719 Q666.7344,392.4063 667.625,393.2266 Q668.5156,394.0469 670.1094,394.0469 Q671.0469,394.0469 671.7031,393.7969 Q672.0938,393.6406 672.5156,393.2031 Q672.7813,392.9375 672.9297,392.8594 Q673.0781,392.7813 673.2813,392.7813 Q673.6094,392.7813 673.8672,393.0391 Q674.125,393.2969 674.125,393.6406 Q674.125,393.9844 673.7813,394.3906 Q673.2813,394.9688 672.4844,395.2969 Q671.4063,395.75 670.1094,395.75 Q668.5938,395.75 667.3906,395.125 Q666.4063,394.625 665.7188,393.5547 Q665.0313,392.4844 665.0313,391.2031 L665.0313,390.0469 Q665.0313,388.7188 665.6484,387.5703 Q666.2656,386.4219 667.3594,385.8047 Q668.4531,385.1875 669.6875,385.1875 Q670.4219,385.1875 671.0703,385.3516 Q671.7188,385.5156 672.2656,385.875 Z "/><text fill="#000000" font-family="sans-serif" font-size="12" lengthAdjust="spacingAndGlyphs" textLength="27" x="683.5" y="394.9102">Sexo</text><line style="stroke: #A80036; stroke-width: 1.5;" x1="655.5" x2="712.5" y1="406" y2="406"/><line style="stroke: #A80036; stroke-width: 1.5;" x1="655.5" x2="712.5" y1="414" y2="414"/><!--class Autoestima--><rect fill="#FEFECE" filter="url(#f16n52h1kqrt)" height="48" id="Autoestima" style="stroke: #A80036; stroke-width: 1.5;" width="94" x="749" y="374"/><ellipse cx="764" cy="390" fill="#ADD1B2" rx="11" ry="11" style="stroke: #A80036; stroke-width: 1.0;"/><path d="M766.7656,385.875 Q766.9219,385.6563 767.1094,385.5469 Q767.2969,385.4375 767.5156,385.4375 Q767.8906,385.4375 768.125,385.6953 Q768.3594,385.9531 768.3594,386.5625 L768.3594,388.0156 Q768.3594,388.625 768.125,388.8906 Q767.8906,389.1563 767.5156,389.1563 Q767.1719,389.1563 766.9688,388.9531 Q766.7656,388.7656 766.6563,388.25 Q766.6094,387.8906 766.4219,387.7031 Q766.0938,387.3281 765.4844,387.1094 Q764.875,386.8906 764.25,386.8906 Q763.4844,386.8906 762.8516,387.2188 Q762.2188,387.5469 761.7266,388.2969 Q761.2344,389.0469 761.2344,390.0781 L761.2344,391.1719 Q761.2344,392.4063 762.125,393.2266 Q763.0156,394.0469 764.6094,394.0469 Q765.5469,394.0469 766.2031,393.7969 Q766.5938,393.6406 767.0156,393.2031 Q767.2813,392.9375 767.4297,392.8594 Q767.5781,392.7813 767.7813,392.7813 Q768.1094,392.7813 768.3672,393.0391 Q768.625,393.2969 768.625,393.6406 Q768.625,393.9844 768.2813,394.3906 Q767.7813,394.9688 766.9844,395.2969 Q765.9063,395.75 764.6094,395.75 Q763.0938,395.75 761.8906,395.125 Q760.9063,394.625 760.2188,393.5547 Q759.5313,392.4844 759.5313,391.2031 L759.5313,390.0469 Q759.5313,388.7188 760.1484,387.5703 Q760.7656,386.4219 761.8594,385.8047 Q762.9531,385.1875 764.1875,385.1875 Q764.9219,385.1875 765.5703,385.3516 Q766.2188,385.5156 766.7656,385.875 Z "/><text fill="#000000" font-family="sans-serif" font-size="12" lengthAdjust="spacingAndGlyphs" textLength="62" x="778" y="394.9102">Autoestima</text><line style="stroke: #A80036; stroke-width: 1.5;" x1="750" x2="842" y1="406" y2="406"/><line style="stroke: #A80036; stroke-width: 1.5;" x1="750" x2="842" y1="414" y2="414"/><!--class Respeto--><rect fill="#FEFECE" filter="url(#f16n52h1kqrt)" height="48" id="Respeto" style="stroke: #A80036; stroke-width: 1.5;" width="79" x="878.5" y="374"/><ellipse cx="893.5" cy="390" fill="#ADD1B2" rx="11" ry="11" style="stroke: #A80036; stroke-width: 1.0;"/><path d="M896.2656,385.875 Q896.4219,385.6563 896.6094,385.5469 Q896.7969,385.4375 897.0156,385.4375 Q897.3906,385.4375 897.625,385.6953 Q897.8594,385.9531 897.8594,386.5625 L897.8594,388.0156 Q897.8594,388.625 897.625,388.8906 Q897.3906,389.1563 897.0156,389.1563 Q896.6719,389.1563 896.4688,388.9531 Q896.2656,388.7656 896.1563,388.25 Q896.1094,387.8906 895.9219,387.7031 Q895.5938,387.3281 894.9844,387.1094 Q894.375,386.8906 893.75,386.8906 Q892.9844,386.8906 892.3516,387.2188 Q891.7188,387.5469 891.2266,388.2969 Q890.7344,389.0469 890.7344,390.0781 L890.7344,391.1719 Q890.7344,392.4063 891.625,393.2266 Q892.5156,394.0469 894.1094,394.0469 Q895.0469,394.0469 895.7031,393.7969 Q896.0938,393.6406 896.5156,393.2031 Q896.7813,392.9375 896.9297,392.8594 Q897.0781,392.7813 897.2813,392.7813 Q897.6094,392.7813 897.8672,393.0391 Q898.125,393.2969 898.125,393.6406 Q898.125,393.9844 897.7813,394.3906 Q897.2813,394.9688 896.4844,395.2969 Q895.4063,395.75 894.1094,395.75 Q892.5938,395.75 891.3906,395.125 Q890.4063,394.625 889.7188,393.5547 Q889.0313,392.4844 889.0313,391.2031 L889.0313,390.0469 Q889.0313,388.7188 889.6484,387.5703 Q890.2656,386.4219 891.3594,385.8047 Q892.4531,385.1875 893.6875,385.1875 Q894.4219,385.1875 895.0703,385.3516 Q895.7188,385.5156 896.2656,385.875 Z "/><text fill="#000000" font-family="sans-serif" font-size="12" lengthAdjust="spacingAndGlyphs" textLength="47" x="907.5" y="394.9102">Respeto</text><line style="stroke: #A80036; stroke-width: 1.5;" x1="879.5" x2="956.5" y1="406" y2="406"/><line style="stroke: #A80036; stroke-width: 1.5;" x1="879.5" x2="956.5" y1="414" y2="414"/><!--class Potencial--><rect fill="#FEFECE" filter="url(#f16n52h1kqrt)" height="48" id="Potencial" style="stroke: #A80036; stroke-width: 1.5;" width="83" x="992.5" y="374"/><ellipse cx="1007.5" cy="390" fill="#ADD1B2" rx="11" ry="11" style="stroke: #A80036; stroke-width: 1.0;"/><path d="M1010.2656,385.875 Q1010.4219,385.6563 1010.6094,385.5469 Q1010.7969,385.4375 1011.0156,385.4375 Q1011.3906,385.4375 1011.625,385.6953 Q1011.8594,385.9531 1011.8594,386.5625 L1011.8594,388.0156 Q1011.8594,388.625 1011.625,388.8906 Q1011.3906,389.1563 1011.0156,389.1563 Q1010.6719,389.1563 1010.4688,388.9531 Q1010.2656,388.7656 1010.1563,388.25 Q1010.1094,387.8906 1009.9219,387.7031 Q1009.5938,387.3281 1008.9844,387.1094 Q1008.375,386.8906 1007.75,386.8906 Q1006.9844,386.8906 1006.3516,387.2188 Q1005.7188,387.5469 1005.2266,388.2969 Q1004.7344,389.0469 1004.7344,390.0781 L1004.7344,391.1719 Q1004.7344,392.4063 1005.625,393.2266 Q1006.5156,394.0469 1008.1094,394.0469 Q1009.0469,394.0469 1009.7031,393.7969 Q1010.0938,393.6406 1010.5156,393.2031 Q1010.7813,392.9375 1010.9297,392.8594 Q1011.0781,392.7813 1011.2813,392.7813 Q1011.6094,392.7813 1011.8672,393.0391 Q1012.125,393.2969 1012.125,393.6406 Q1012.125,393.9844 1011.7813,394.3906 Q1011.2813,394.9688 1010.4844,395.2969 Q1009.4063,395.75 1008.1094,395.75 Q1006.5938,395.75 1005.3906,395.125 Q1004.4063,394.625 1003.7188,393.5547 Q1003.0313,392.4844 1003.0313,391.2031 L1003.0313,390.0469 Q1003.0313,388.7188 1003.6484,387.5703 Q1004.2656,386.4219 1005.3594,385.8047 Q1006.4531,385.1875 1007.6875,385.1875 Q1008.4219,385.1875 1009.0703,385.3516 Q1009.7188,385.5156 1010.2656,385.875 Z "/><text fill="#000000" font-family="sans-serif" font-size="12" lengthAdjust="spacingAndGlyphs" textLength="51" x="1021.5" y="394.9102">Potencial</text><line style="stroke: #A80036; stroke-width: 1.5;" x1="993.5" x2="1074.5" y1="406" y2="406"/><line style="stroke: #A80036; stroke-width: 1.5;" x1="993.5" x2="1074.5" y1="414" y2="414"/><!--class Mision--><rect fill="#FEFECE" filter="url(#f16n52h1kqrt)" height="48" id="Mision" style="stroke: #A80036; stroke-width: 1.5;" width="68" x="1111" y="374"/><ellipse cx="1126" cy="390" fill="#ADD1B2" rx="11" ry="11" style="stroke: #A80036; stroke-width: 1.0;"/><path d="M1128.7656,385.875 Q1128.9219,385.6563 1129.1094,385.5469 Q1129.2969,385.4375 1129.5156,385.4375 Q1129.8906,385.4375 1130.125,385.6953 Q1130.3594,385.9531 1130.3594,386.5625 L1130.3594,388.0156 Q1130.3594,388.625 1130.125,388.8906 Q1129.8906,389.1563 1129.5156,389.1563 Q1129.1719,389.1563 1128.9688,388.9531 Q1128.7656,388.7656 1128.6563,388.25 Q1128.6094,387.8906 1128.4219,387.7031 Q1128.0938,387.3281 1127.4844,387.1094 Q1126.875,386.8906 1126.25,386.8906 Q1125.4844,386.8906 1124.8516,387.2188 Q1124.2188,387.5469 1123.7266,388.2969 Q1123.2344,389.0469 1123.2344,390.0781 L1123.2344,391.1719 Q1123.2344,392.4063 1124.125,393.2266 Q1125.0156,394.0469 1126.6094,394.0469 Q1127.5469,394.0469 1128.2031,393.7969 Q1128.5938,393.6406 1129.0156,393.2031 Q1129.2813,392.9375 1129.4297,392.8594 Q1129.5781,392.7813 1129.7813,392.7813 Q1130.1094,392.7813 1130.3672,393.0391 Q1130.625,393.2969 1130.625,393.6406 Q1130.625,393.9844 1130.2813,394.3906 Q1129.7813,394.9688 1128.9844,395.2969 Q1127.9063,395.75 1126.6094,395.75 Q1125.0938,395.75 1123.8906,395.125 Q1122.9063,394.625 1122.2188,393.5547 Q1121.5313,392.4844 1121.5313,391.2031 L1121.5313,390.0469 Q1121.5313,388.7188 1122.1484,387.5703 Q1122.7656,386.4219 1123.8594,385.8047 Q1124.9531,385.1875 1126.1875,385.1875 Q1126.9219,385.1875 1127.5703,385.3516 Q1128.2188,385.5156 1128.7656,385.875 Z "/><text fill="#000000" font-family="sans-serif" font-size="12" lengthAdjust="spacingAndGlyphs" textLength="36" x="1140" y="394.9102">Mision</text><line style="stroke: #A80036; stroke-width: 1.5;" x1="1112" x2="1178" y1="406" y2="406"/><line style="stroke: #A80036; stroke-width: 1.5;" x1="1112" x2="1178" y1="414" y2="414"/><!--class Persona--><rect fill="#FEFECE" filter="url(#f16n52h1kqrt)" height="48" id="Persona" style="stroke: #A80036; stroke-width: 1.5;" width="79" x="580.5" y="8"/><ellipse cx="595.5" cy="24" fill="#ADD1B2" rx="11" ry="11" style="stroke: #A80036; stroke-width: 1.0;"/><path d="M598.2656,19.875 Q598.4219,19.6563 598.6094,19.5469 Q598.7969,19.4375 599.0156,19.4375 Q599.3906,19.4375 599.625,19.6953 Q599.8594,19.9531 599.8594,20.5625 L599.8594,22.0156 Q599.8594,22.625 599.625,22.8906 Q599.3906,23.1563 599.0156,23.1563 Q598.6719,23.1563 598.4688,22.9531 Q598.2656,22.7656 598.1563,22.25 Q598.1094,21.8906 597.9219,21.7031 Q597.5938,21.3281 596.9844,21.1094 Q596.375,20.8906 595.75,20.8906 Q594.9844,20.8906 594.3516,21.2188 Q593.7188,21.5469 593.2266,22.2969 Q592.7344,23.0469 592.7344,24.0781 L592.7344,25.1719 Q592.7344,26.4063 593.625,27.2266 Q594.5156,28.0469 596.1094,28.0469 Q597.0469,28.0469 597.7031,27.7969 Q598.0938,27.6406 598.5156,27.2031 Q598.7813,26.9375 598.9297,26.8594 Q599.0781,26.7813 599.2813,26.7813 Q599.6094,26.7813 599.8672,27.0391 Q600.125,27.2969 600.125,27.6406 Q600.125,27.9844 599.7813,28.3906 Q599.2813,28.9688 598.4844,29.2969 Q597.4063,29.75 596.1094,29.75 Q594.5938,29.75 593.3906,29.125 Q592.4063,28.625 591.7188,27.5547 Q591.0313,26.4844 591.0313,25.2031 L591.0313,24.0469 Q591.0313,22.7188 591.6484,21.5703 Q592.2656,20.4219 593.3594,19.8047 Q594.4531,19.1875 595.6875,19.1875 Q596.4219,19.1875 597.0703,19.3516 Q597.7188,19.5156 598.2656,19.875 Z "/><text fill="#000000" font-family="sans-serif" font-size="12" lengthAdjust="spacingAndGlyphs" textLength="47" x="609.5" y="28.9102">Persona</text><line style="stroke: #A80036; stroke-width: 1.5;" x1="581.5" x2="658.5" y1="40" y2="40"/><line style="stroke: #A80036; stroke-width: 1.5;" x1="581.5" x2="658.5" y1="48" y2="48"/><!--link Persona to Necesidad--><path d="M620,69.373 C620,91.837 620,120.548 620,142.952 " fill="none" id="Persona-Necesidad" style="stroke: #A80036; stroke-width: 1.0;"/><polygon fill="#A80036" points="620,155.974,624,146.974,620,150.974,616,146.974,620,155.974" style="stroke: #A80036; stroke-width: 1.0;"/><line style="stroke: #A80036; stroke-width: 1.0;" x1="620" x2="620" y1="150.974" y2="142.974"/><polygon fill="#A80036" points="620,56.134,616,62.134,620,68.134,624,62.134,620,56.134" style="stroke: #A80036; stroke-width: 1.0;"/><text fill="#000000" font-family="sans-serif" font-size="13" lengthAdjust="spacingAndGlyphs" textLength="24" x="621" y="100.4951">0..N</text><!--link Necesidad to Fisiologica--><path d="M554.316,200.577 C482.655,221.936 369.801,255.572 307.021,274.284 " fill="none" id="Necesidad-Fisiologica" style="stroke: #A80036; stroke-width: 1.0;"/><polygon fill="none" points="552.636,193.774,573.802,194.769,556.635,207.19,552.636,193.774" style="stroke: #A80036; stroke-width: 1.0;"/><!--link Necesidad to Seguridad--><path d="M566.984,215.173 C541.837,231.382 512.449,250.325 489.949,264.828 " fill="none" id="Necesidad-Seguridad" style="stroke: #A80036; stroke-width: 1.0;"/><polygon fill="none" points="563.378,209.169,583.98,204.217,570.963,220.937,563.378,209.169" style="stroke: #A80036; stroke-width: 1.0;"/><!--link Necesidad to Afilacion--><path d="M620,224.578 C620,238.362 620,253.057 620,264.828 " fill="none" id="Necesidad-Afilacion" style="stroke: #A80036; stroke-width: 1.0;"/><polygon fill="none" points="613,224.217,620,204.217,627,224.217,613,224.217" style="stroke: #A80036; stroke-width: 1.0;"/><!--link Necesidad to Reconocimiento--><path d="M677.243,214.47 C705.226,230.832 738.206,250.115 763.369,264.828 " fill="none" id="Necesidad-Reconocimiento" style="stroke: #A80036; stroke-width: 1.0;"/><polygon fill="none" points="673.44,220.355,659.708,204.217,680.507,208.27,673.44,220.355" style="stroke: #A80036; stroke-width: 1.0;"/><!--link Necesidad to Autorealización--><path d="M685.609,198.463 C763.084,219.085 890.712,253.055 964.48,272.69 " fill="none" id="Necesidad-Autorealización" style="stroke: #A80036; stroke-width: 1.0;"/><polygon fill="none" points="683.641,205.183,666.115,193.274,687.242,191.654,683.641,205.183" style="stroke: #A80036; stroke-width: 1.0;"/><!--link Fisiologica to Alimentaccion--><path d="M207.345,324.173 C181.896,340.382 152.153,359.3249 129.382,373.8279 " fill="none" id="Fisiologica-Alimentaccion" style="stroke: #A80036; stroke-width: 1.0;"/><polygon fill="none" points="203.917,318.057,224.547,313.217,211.438,329.866,203.917,318.057" style="stroke: #A80036; stroke-width: 1.0;"/><!--link Fisiologica to Temperatura--><path d="M250.128,333.086 C246.614,347.012 242.853,361.9172 239.847,373.8279 " fill="none" id="Fisiologica-Temperatura" style="stroke: #A80036; stroke-width: 1.0;"/><polygon fill="none" points="243.461,330.897,255.141,313.217,257.035,334.322,243.461,330.897" style="stroke: #A80036; stroke-width: 1.0;"/><!--link Seguridad to Fisica--><path d="M417.925,328.218 C403.535,343.463 387.438,360.516 374.873,373.8279 " fill="none" id="Seguridad-Fisica" style="stroke: #A80036; stroke-width: 1.0;"/><polygon fill="none" points="413.266,322.956,432.085,313.217,423.446,332.566,413.266,322.956" style="stroke: #A80036; stroke-width: 1.0;"/><!--link Seguridad to Recursos--><path d="M458.073,333.578 C459.361,347.362 460.734,362.0574 461.834,373.8279 " fill="none" id="Seguridad-Recursos" style="stroke: #A80036; stroke-width: 1.0;"/><polygon fill="none" points="451.061,333.782,456.17,313.217,465.001,332.479,451.061,333.782" style="stroke: #A80036; stroke-width: 1.0;"/><!--link Afilacion to Amistad--><path d="M604.653,332.105 C599.476,346.309 593.889,361.637 589.446,373.8279 " fill="none" id="Afilacion-Amistad" style="stroke: #A80036; stroke-width: 1.0;"/><polygon fill="none" points="598.112,329.611,611.538,313.217,611.265,334.405,598.112,329.611" style="stroke: #A80036; stroke-width: 1.0;"/><!--link Afilacion to Sexo--><path d="M644.308,330.639 C653.046,345.248 662.597,361.2166 670.14,373.8279 " fill="none" id="Afilacion-Sexo" style="stroke: #A80036; stroke-width: 1.0;"/><polygon fill="none" points="638.146,333.975,633.887,313.217,650.161,326.788,638.146,333.975" style="stroke: #A80036; stroke-width: 1.0;"/><!--link Reconocimiento to Autoestima--><path d="M800.149,333.578 C799.247,347.362 798.286,362.0574 797.516,373.8279 " fill="none" id="Reconocimiento-Autoestima" style="stroke: #A80036; stroke-width: 1.0;"/><polygon fill="none" points="793.19,332.718,801.481,313.217,807.16,333.632,793.19,332.718" style="stroke: #A80036; stroke-width: 1.0;"/><!--link Reconocimiento to Respeto--><path d="M842.786,327.018 C859.493,342.563 878.412,360.1657 893.095,373.8279 " fill="none" id="Reconocimiento-Respeto" style="stroke: #A80036; stroke-width: 1.0;"/><polygon fill="none" points="837.827,331.966,827.953,313.217,847.364,321.716,837.827,331.966" style="stroke: #A80036; stroke-width: 1.0;"/><!--link Autorealización to Potencial--><path d="M1026.89,333.578 C1028.43,347.362 1030.08,362.0574 1031.4,373.8279 " fill="none" id="Autorealización-Potencial" style="stroke: #A80036; stroke-width: 1.0;"/><polygon fill="none" points="1019.88,333.873,1024.6,313.217,1033.79,332.313,1019.88,333.873" style="stroke: #A80036; stroke-width: 1.0;"/><!--link Autorealización to Mision--><path d="M1064,326.541 C1082.01,342.202 1102.5,360.0255 1118.36,373.8279 " fill="none" id="Autorealización-Mision" style="stroke: #A80036; stroke-width: 1.0;"/><polygon fill="none" points="1059.18,331.625,1048.69,313.217,1068.37,321.063,1059.18,331.625" style="stroke: #A80036; stroke-width: 1.0;"/><!--link Fisiologica to Seguridad--><path d="M312.398,289 C342.642,289 380.512,289 409.478,289 " fill="none" id="Fisiologica-Seguridad" style="stroke: #A80036; stroke-width: 1.0;"/><polygon fill="#A80036" points="307.228,289,316.228,293,312.228,289,316.228,285,307.228,289" style="stroke: #A80036; stroke-width: 1.0;"/><text fill="#000000" font-family="sans-serif" font-size="13" lengthAdjust="spacingAndGlyphs" textLength="46" x="335.25" y="282.4951">requiere</text><!--link Seguridad to Afilacion--><path d="M504.107,289 C528.754,289 558.017,289 580.971,289 " fill="none" id="Seguridad-Afilacion" style="stroke: #A80036; stroke-width: 1.0;"/><polygon fill="#A80036" points="498.922,289,507.922,293,503.922,289,507.922,285,498.922,289" style="stroke: #A80036; stroke-width: 1.0;"/><text fill="#000000" font-family="sans-serif" font-size="13" lengthAdjust="spacingAndGlyphs" textLength="46" x="516.75" y="282.4951">requiere</text><!--link Afilacion to Reconocimiento--><path d="M664.435,289 C687.689,289 716.515,289 741.844,289 " fill="none" id="Afilacion-Reconocimiento" style="stroke: #A80036; stroke-width: 1.0;"/><polygon fill="#A80036" points="659.258,289,668.258,293,664.258,289,668.258,285,659.258,289" style="stroke: #A80036; stroke-width: 1.0;"/><text fill="#000000" font-family="sans-serif" font-size="13" lengthAdjust="spacingAndGlyphs" textLength="46" x="677.5" y="282.4951">requiere</text><!--link Reconocimiento to Autorealización--><path d="M869.211,289 C899.532,289 935.131,289 964.335,289 " fill="none" id="Reconocimiento-Autorealización" style="stroke: #A80036; stroke-width: 1.0;"/><polygon fill="#A80036" points="864.004,289,873.004,293,869.004,289,873.004,285,864.004,289" style="stroke: #A80036; stroke-width: 1.0;"/><text fill="#000000" font-family="sans-serif" font-size="13" lengthAdjust="spacingAndGlyphs" textLength="46" x="891.25" y="282.4951">requiere</text><!--
@startuml

class Persona

together necesidades {

class Necesidad

class Fisiologica

class Seguridad

class Afilacion

class Reconocimiento

class "Autorealización" as Autorealización

class Alimentaccion

class Temperatura

class Fisica

class Recursos

class Amistad

class Sexo

class Autoestima

class Respeto

class Potencial

class Mision


}

Persona *-down-> Necesidad : 0..N

Necesidad <|-down-Fisiologica

Necesidad <|-down-Seguridad

Necesidad <|-down-Afilacion

Necesidad <|-down-Reconocimiento

Necesidad <|-down-Autorealización

Fisiologica <|-down-Alimentaccion

Fisiologica <|-down-Temperatura

Seguridad <|-down-Fisica

Seguridad <|-down-Recursos

Afilacion <|-down-Amistad

Afilacion <|-down-Sexo

Reconocimiento <|-down-Autoestima

Reconocimiento <|-down-Respeto

Autorealización <|-down-Potencial

Autorealización <|-down-Mision

Seguridad  -left-> Fisiologica : requiere
Afilacion  -left-> Seguridad : requiere
Reconocimiento  -left-> Afilacion : requiere
Autorealización  -left-> Reconocimiento : requiere
@enduml

PlantUML version 1.2019.05(Sat Apr 20 18:45:36 CEST 2019)
(GPL source distribution)
Java Runtime: Java(TM) SE Runtime Environment
JVM: Java HotSpot(TM) 64-Bit Server VM
Java Version: 1.8.0_211-b12
Operating System: Windows 10
OS Version: 10.0
Default Encoding: windows-1252
Language: es
Country: ES
--></g></svg>