<?xml version="1.0" encoding="UTF-8" standalone="no"?><svg xmlns="http://www.w3.org/2000/svg" xmlns:xlink="http://www.w3.org/1999/xlink" contentScriptType="application/ecmascript" contentStyleType="text/css" height="192px" preserveAspectRatio="none" style="width:251px;height:192px;" version="1.1" viewBox="0 0 251 192" width="251px" zoomAndPan="magnify"><defs><filter height="300%" id="fv68u88oauizf" width="300%" x="-1" y="-1"><feGaussianBlur result="blurOut" stdDeviation="2.0"/><feColorMatrix in="blurOut" result="blurOut2" type="matrix" values="0 0 0 0 0 0 0 0 0 0 0 0 0 0 0 0 0 0 .4 0"/><feOffset dx="4.0" dy="4.0" in="blurOut2" result="blurOut3"/><feBlend in="SourceGraphic" in2="blurOut3" mode="normal"/></filter></defs><g><!--cluster analisisSintesis--><polygon fill="#FFFFFF" filter="url(#fv68u88oauizf)" points="22,80,137,80,144,103.6094,229,103.6094,229,180,22,180,22,80" style="stroke: #000000; stroke-width: 1.5;"/><line style="stroke: #000000; stroke-width: 1.5;" x1="22" x2="144" y1="103.6094" y2="103.6094"/><text fill="#000000" font-family="sans-serif" font-size="14" font-weight="bold" lengthAdjust="spacingAndGlyphs" textLength="109" x="26" y="96.5332">analisisSintesis</text><!--class Mujer--><rect fill="#FEFECE" filter="url(#fv68u88oauizf)" height="48" id="Mujer" style="stroke: #A80036; stroke-width: 1.5;" width="62" x="151" y="116"/><ellipse cx="166" cy="132" fill="#ADD1B2" rx="11" ry="11" style="stroke: #A80036; stroke-width: 1.0;"/><path d="M168.7656,127.875 Q168.9219,127.6563 169.1094,127.5469 Q169.2969,127.4375 169.5156,127.4375 Q169.8906,127.4375 170.125,127.6953 Q170.3594,127.9531 170.3594,128.5625 L170.3594,130.0156 Q170.3594,130.625 170.125,130.8906 Q169.8906,131.1563 169.5156,131.1563 Q169.1719,131.1563 168.9688,130.9531 Q168.7656,130.7656 168.6563,130.25 Q168.6094,129.8906 168.4219,129.7031 Q168.0938,129.3281 167.4844,129.1094 Q166.875,128.8906 166.25,128.8906 Q165.4844,128.8906 164.8516,129.2188 Q164.2188,129.5469 163.7266,130.2969 Q163.2344,131.0469 163.2344,132.0781 L163.2344,133.1719 Q163.2344,134.4063 164.125,135.2266 Q165.0156,136.0469 166.6094,136.0469 Q167.5469,136.0469 168.2031,135.7969 Q168.5938,135.6406 169.0156,135.2031 Q169.2813,134.9375 169.4297,134.8594 Q169.5781,134.7813 169.7813,134.7813 Q170.1094,134.7813 170.3672,135.0391 Q170.625,135.2969 170.625,135.6406 Q170.625,135.9844 170.2813,136.3906 Q169.7813,136.9688 168.9844,137.2969 Q167.9063,137.75 166.6094,137.75 Q165.0938,137.75 163.8906,137.125 Q162.9063,136.625 162.2188,135.5547 Q161.5313,134.4844 161.5313,133.2031 L161.5313,132.0469 Q161.5313,130.7188 162.1484,129.5703 Q162.7656,128.4219 163.8594,127.8047 Q164.9531,127.1875 166.1875,127.1875 Q166.9219,127.1875 167.5703,127.3516 Q168.2188,127.5156 168.7656,127.875 Z "/><text fill="#000000" font-family="sans-serif" font-size="12" lengthAdjust="spacingAndGlyphs" textLength="30" x="180" y="136.9102">Mujer</text><line style="stroke: #A80036; stroke-width: 1.5;" x1="152" x2="212" y1="148" y2="148"/><line style="stroke: #A80036; stroke-width: 1.5;" x1="152" x2="212" y1="156" y2="156"/><!--class Hombre--><rect fill="#FEFECE" filter="url(#fv68u88oauizf)" height="48" id="Hombre" style="stroke: #A80036; stroke-width: 1.5;" width="77" x="38.5" y="116"/><ellipse cx="53.5" cy="132" fill="#ADD1B2" rx="11" ry="11" style="stroke: #A80036; stroke-width: 1.0;"/><path d="M56.2656,127.875 Q56.4219,127.6563 56.6094,127.5469 Q56.7969,127.4375 57.0156,127.4375 Q57.3906,127.4375 57.625,127.6953 Q57.8594,127.9531 57.8594,128.5625 L57.8594,130.0156 Q57.8594,130.625 57.625,130.8906 Q57.3906,131.1563 57.0156,131.1563 Q56.6719,131.1563 56.4688,130.9531 Q56.2656,130.7656 56.1563,130.25 Q56.1094,129.8906 55.9219,129.7031 Q55.5938,129.3281 54.9844,129.1094 Q54.375,128.8906 53.75,128.8906 Q52.9844,128.8906 52.3516,129.2188 Q51.7188,129.5469 51.2266,130.2969 Q50.7344,131.0469 50.7344,132.0781 L50.7344,133.1719 Q50.7344,134.4063 51.625,135.2266 Q52.5156,136.0469 54.1094,136.0469 Q55.0469,136.0469 55.7031,135.7969 Q56.0938,135.6406 56.5156,135.2031 Q56.7813,134.9375 56.9297,134.8594 Q57.0781,134.7813 57.2813,134.7813 Q57.6094,134.7813 57.8672,135.0391 Q58.125,135.2969 58.125,135.6406 Q58.125,135.9844 57.7813,136.3906 Q57.2813,136.9688 56.4844,137.2969 Q55.4063,137.75 54.1094,137.75 Q52.5938,137.75 51.3906,137.125 Q50.4063,136.625 49.7188,135.5547 Q49.0313,134.4844 49.0313,133.2031 L49.0313,132.0469 Q49.0313,130.7188 49.6484,129.5703 Q50.2656,128.4219 51.3594,127.8047 Q52.4531,127.1875 53.6875,127.1875 Q54.4219,127.1875 55.0703,127.3516 Q55.7188,127.5156 56.2656,127.875 Z "/><text fill="#000000" font-family="sans-serif" font-size="12" lengthAdjust="spacingAndGlyphs" textLength="45" x="67.5" y="136.9102">Hombre</text><line style="stroke: #A80036; stroke-width: 1.5;" x1="39.5" x2="114.5" y1="148" y2="148"/><line style="stroke: #A80036; stroke-width: 1.5;" x1="39.5" x2="114.5" y1="156" y2="156"/><!--class Persona--><rect fill="#FEFECE" filter="url(#fv68u88oauizf)" height="48" id="Persona" style="stroke: #A80036; stroke-width: 1.5;" width="79" x="89.5" y="8"/><ellipse cx="104.5" cy="24" fill="#ADD1B2" rx="11" ry="11" style="stroke: #A80036; stroke-width: 1.0;"/><path d="M107.2656,19.875 Q107.4219,19.6563 107.6094,19.5469 Q107.7969,19.4375 108.0156,19.4375 Q108.3906,19.4375 108.625,19.6953 Q108.8594,19.9531 108.8594,20.5625 L108.8594,22.0156 Q108.8594,22.625 108.625,22.8906 Q108.3906,23.1563 108.0156,23.1563 Q107.6719,23.1563 107.4688,22.9531 Q107.2656,22.7656 107.1563,22.25 Q107.1094,21.8906 106.9219,21.7031 Q106.5938,21.3281 105.9844,21.1094 Q105.375,20.8906 104.75,20.8906 Q103.9844,20.8906 103.3516,21.2188 Q102.7188,21.5469 102.2266,22.2969 Q101.7344,23.0469 101.7344,24.0781 L101.7344,25.1719 Q101.7344,26.4063 102.625,27.2266 Q103.5156,28.0469 105.1094,28.0469 Q106.0469,28.0469 106.7031,27.7969 Q107.0938,27.6406 107.5156,27.2031 Q107.7813,26.9375 107.9297,26.8594 Q108.0781,26.7813 108.2813,26.7813 Q108.6094,26.7813 108.8672,27.0391 Q109.125,27.2969 109.125,27.6406 Q109.125,27.9844 108.7813,28.3906 Q108.2813,28.9688 107.4844,29.2969 Q106.4063,29.75 105.1094,29.75 Q103.5938,29.75 102.3906,29.125 Q101.4063,28.625 100.7188,27.5547 Q100.0313,26.4844 100.0313,25.2031 L100.0313,24.0469 Q100.0313,22.7188 100.6484,21.5703 Q101.2656,20.4219 102.3594,19.8047 Q103.4531,19.1875 104.6875,19.1875 Q105.4219,19.1875 106.0703,19.3516 Q106.7188,19.5156 107.2656,19.875 Z "/><text fill="#000000" font-family="sans-serif" font-size="12" lengthAdjust="spacingAndGlyphs" textLength="47" x="118.5" y="28.9102">Persona</text><line style="stroke: #A80036; stroke-width: 1.5;" x1="90.5" x2="167.5" y1="40" y2="40"/><line style="stroke: #A80036; stroke-width: 1.5;" x1="90.5" x2="167.5" y1="48" y2="48"/><!--link Persona to Mujer--><path d="M149.547,74.094 C156.598,88.196 164.242,103.4838 170.339,115.6784 " fill="none" id="Persona-Mujer" style="stroke: #A80036; stroke-width: 1.0;"/><polygon fill="none" points="143.184,77.019,140.5,56,155.706,70.758,143.184,77.019" style="stroke: #A80036; stroke-width: 1.0;"/><!--link Persona to Hombre--><path d="M108.841,74.094 C101.9228,88.196 94.423,103.4838 88.4408,115.6784 " fill="none" id="Persona-Hombre" style="stroke: #A80036; stroke-width: 1.0;"/><polygon fill="none" points="102.6237,70.873,117.717,56,115.193,77.039,102.6237,70.873" style="stroke: #A80036; stroke-width: 1.0;"/><!--
@startuml

class Persona

package analisisSintesis {
class Mujer
class Hombre
}

Persona <|-down- Mujer
Persona <|-down- Hombre

@enduml

PlantUML version 1.2019.05(Sat Apr 20 18:45:36 CEST 2019)
(GPL source distribution)
Java Runtime: Java(TM) SE Runtime Environment
JVM: Java HotSpot(TM) 64-Bit Server VM
Java Version: 1.8.0_211-b12
Operating System: Windows 10
OS Version: 10.0
Default Encoding: windows-1252
Language: es
Country: ES
--></g></svg>