<?xml version="1.0" encoding="UTF-8" standalone="no"?><svg xmlns="http://www.w3.org/2000/svg" xmlns:xlink="http://www.w3.org/1999/xlink" contentScriptType="application/ecmascript" contentStyleType="text/css" height="227px" preserveAspectRatio="none" style="width:184px;height:227px;" version="1.1" viewBox="0 0 184 227" width="184px" zoomAndPan="magnify"><defs><filter height="300%" id="fbefrv0wnpn3u" width="300%" x="-1" y="-1"><feGaussianBlur result="blurOut" stdDeviation="2.0"/><feColorMatrix in="blurOut" result="blurOut2" type="matrix" values="0 0 0 0 0 0 0 0 0 0 0 0 0 0 0 0 0 0 .4 0"/><feOffset dx="4.0" dy="4.0" in="blurOut2" result="blurOut3"/><feBlend in="SourceGraphic" in2="blurOut3" mode="normal"/></filter></defs><g><!--cluster sistemasGeneral--><!--class Sistema--><rect fill="#FFA500" filter="url(#fbefrv0wnpn3u)" height="48" id="Sistema" style="stroke: #A80036; stroke-width: 1.5;" width="78" x="67" y="60"/><rect fill="#FFA500" height="32" style="stroke: #A80036; stroke-width: 1.5;" width="78" x="67" y="60"/><ellipse cx="82" cy="76" fill="#ADD1B2" rx="11" ry="11" style="stroke: #A80036; stroke-width: 1.0;"/><path d="M84.7656,71.875 Q84.9219,71.6563 85.1094,71.5469 Q85.2969,71.4375 85.5156,71.4375 Q85.8906,71.4375 86.125,71.6953 Q86.3594,71.9531 86.3594,72.5625 L86.3594,74.0156 Q86.3594,74.625 86.125,74.8906 Q85.8906,75.1563 85.5156,75.1563 Q85.1719,75.1563 84.9688,74.9531 Q84.7656,74.7656 84.6563,74.25 Q84.6094,73.8906 84.4219,73.7031 Q84.0938,73.3281 83.4844,73.1094 Q82.875,72.8906 82.25,72.8906 Q81.4844,72.8906 80.8516,73.2188 Q80.2188,73.5469 79.7266,74.2969 Q79.2344,75.0469 79.2344,76.0781 L79.2344,77.1719 Q79.2344,78.4063 80.125,79.2266 Q81.0156,80.0469 82.6094,80.0469 Q83.5469,80.0469 84.2031,79.7969 Q84.5938,79.6406 85.0156,79.2031 Q85.2813,78.9375 85.4297,78.8594 Q85.5781,78.7813 85.7813,78.7813 Q86.1094,78.7813 86.3672,79.0391 Q86.625,79.2969 86.625,79.6406 Q86.625,79.9844 86.2813,80.3906 Q85.7813,80.9688 84.9844,81.2969 Q83.9063,81.75 82.6094,81.75 Q81.0938,81.75 79.8906,81.125 Q78.9063,80.625 78.2188,79.5547 Q77.5313,78.4844 77.5313,77.2031 L77.5313,76.0469 Q77.5313,74.7188 78.1484,73.5703 Q78.7656,72.4219 79.8594,71.8047 Q80.9531,71.1875 82.1875,71.1875 Q82.9219,71.1875 83.5703,71.3516 Q84.2188,71.5156 84.7656,71.875 Z "/><text fill="#000000" font-family="sans-serif" font-size="12" lengthAdjust="spacingAndGlyphs" textLength="46" x="96" y="80.9102">Sistema</text><line style="stroke: #A80036; stroke-width: 1.5;" x1="68" x2="144" y1="92" y2="92"/><line style="stroke: #A80036; stroke-width: 1.5;" x1="68" x2="144" y1="100" y2="100"/><!--class SistemaComplejo--><rect fill="#FFFF00" filter="url(#fbefrv0wnpn3u)" height="48" id="SistemaComplejo" style="stroke: #A80036; stroke-width: 1.5;" width="135" x="38.5" y="168"/><rect fill="#FFFF00" height="32" style="stroke: #A80036; stroke-width: 1.5;" width="135" x="38.5" y="168"/><ellipse cx="53.5" cy="184" fill="#ADD1B2" rx="11" ry="11" style="stroke: #A80036; stroke-width: 1.0;"/><path d="M56.2656,179.875 Q56.4219,179.6563 56.6094,179.5469 Q56.7969,179.4375 57.0156,179.4375 Q57.3906,179.4375 57.625,179.6953 Q57.8594,179.9531 57.8594,180.5625 L57.8594,182.0156 Q57.8594,182.625 57.625,182.8906 Q57.3906,183.1563 57.0156,183.1563 Q56.6719,183.1563 56.4688,182.9531 Q56.2656,182.7656 56.1563,182.25 Q56.1094,181.8906 55.9219,181.7031 Q55.5938,181.3281 54.9844,181.1094 Q54.375,180.8906 53.75,180.8906 Q52.9844,180.8906 52.3516,181.2188 Q51.7188,181.5469 51.2266,182.2969 Q50.7344,183.0469 50.7344,184.0781 L50.7344,185.1719 Q50.7344,186.4063 51.625,187.2266 Q52.5156,188.0469 54.1094,188.0469 Q55.0469,188.0469 55.7031,187.7969 Q56.0938,187.6406 56.5156,187.2031 Q56.7813,186.9375 56.9297,186.8594 Q57.0781,186.7813 57.2813,186.7813 Q57.6094,186.7813 57.8672,187.0391 Q58.125,187.2969 58.125,187.6406 Q58.125,187.9844 57.7813,188.3906 Q57.2813,188.9688 56.4844,189.2969 Q55.4063,189.75 54.1094,189.75 Q52.5938,189.75 51.3906,189.125 Q50.4063,188.625 49.7188,187.5547 Q49.0313,186.4844 49.0313,185.2031 L49.0313,184.0469 Q49.0313,182.7188 49.6484,181.5703 Q50.2656,180.4219 51.3594,179.8047 Q52.4531,179.1875 53.6875,179.1875 Q54.4219,179.1875 55.0703,179.3516 Q55.7188,179.5156 56.2656,179.875 Z "/><text fill="#000000" font-family="sans-serif" font-size="12" lengthAdjust="spacingAndGlyphs" textLength="103" x="67.5" y="188.9102">Sistema Complejo</text><line style="stroke: #A80036; stroke-width: 1.5;" x1="39.5" x2="172.5" y1="200" y2="200"/><line style="stroke: #A80036; stroke-width: 1.5;" x1="39.5" x2="172.5" y1="208" y2="208"/><!--link Sistema to SistemaComplejo--><path d="M106,128.024 C106,141.579 106,156.0381 106,167.6784 " fill="none" id="Sistema-SistemaComplejo" style="stroke: #A80036; stroke-width: 1.0;"/><polygon fill="none" points="99.0001,128,106,108,113,128,99.0001,128" style="stroke: #A80036; stroke-width: 1.0;"/><!--
@startuml

together sistemasGeneral {

class Sistema #orange

class "Sistema Complejo" as SistemaComplejo #yellow
}

Sistema <|-down- SistemaComplejo

@enduml

PlantUML version 1.2019.05(Sat Apr 20 18:45:36 CEST 2019)
(GPL source distribution)
Java Runtime: Java(TM) SE Runtime Environment
JVM: Java HotSpot(TM) 64-Bit Server VM
Java Version: 1.8.0_211-b12
Operating System: Windows 10
OS Version: 10.0
Default Encoding: windows-1252
Language: es
Country: ES
--></g></svg>