<?xml version="1.0" encoding="UTF-8" standalone="no"?><svg xmlns="http://www.w3.org/2000/svg" xmlns:xlink="http://www.w3.org/1999/xlink" contentScriptType="application/ecmascript" contentStyleType="text/css" height="443px" preserveAspectRatio="none" style="width:1371px;height:443px;" version="1.1" viewBox="0 0 1371 443" width="1371px" zoomAndPan="magnify"><defs><filter height="300%" id="f9jjlt2fu6pom" width="300%" x="-1" y="-1"><feGaussianBlur result="blurOut" stdDeviation="2.0"/><feColorMatrix in="blurOut" result="blurOut2" type="matrix" values="0 0 0 0 0 0 0 0 0 0 0 0 0 0 0 0 0 0 .4 0"/><feOffset dx="4.0" dy="4.0" in="blurOut2" result="blurOut3"/><feBlend in="SourceGraphic" in2="blurOut3" mode="normal"/></filter></defs><g><!--cluster sistemas--><!--cluster sistemasComplejos--><!--class TipoElemento--><rect fill="#FFA500" filter="url(#f9jjlt2fu6pom)" height="48" id="TipoElemento" style="stroke: #A80036; stroke-width: 1.5;" width="172" x="1017" y="276"/><rect fill="#FFA500" height="32" style="stroke: #A80036; stroke-width: 1.5;" width="172" x="1017" y="276"/><ellipse cx="1032" cy="292" fill="#ADD1B2" rx="11" ry="11" style="stroke: #A80036; stroke-width: 1.0;"/><path d="M1034.7656,287.875 Q1034.9219,287.6563 1035.1094,287.5469 Q1035.2969,287.4375 1035.5156,287.4375 Q1035.8906,287.4375 1036.125,287.6953 Q1036.3594,287.9531 1036.3594,288.5625 L1036.3594,290.0156 Q1036.3594,290.625 1036.125,290.8906 Q1035.8906,291.1563 1035.5156,291.1563 Q1035.1719,291.1563 1034.9688,290.9531 Q1034.7656,290.7656 1034.6563,290.25 Q1034.6094,289.8906 1034.4219,289.7031 Q1034.0938,289.3281 1033.4844,289.1094 Q1032.875,288.8906 1032.25,288.8906 Q1031.4844,288.8906 1030.8516,289.2188 Q1030.2188,289.5469 1029.7266,290.2969 Q1029.2344,291.0469 1029.2344,292.0781 L1029.2344,293.1719 Q1029.2344,294.4063 1030.125,295.2266 Q1031.0156,296.0469 1032.6094,296.0469 Q1033.5469,296.0469 1034.2031,295.7969 Q1034.5938,295.6406 1035.0156,295.2031 Q1035.2813,294.9375 1035.4297,294.8594 Q1035.5781,294.7813 1035.7813,294.7813 Q1036.1094,294.7813 1036.3672,295.0391 Q1036.625,295.2969 1036.625,295.6406 Q1036.625,295.9844 1036.2813,296.3906 Q1035.7813,296.9688 1034.9844,297.2969 Q1033.9063,297.75 1032.6094,297.75 Q1031.0938,297.75 1029.8906,297.125 Q1028.9063,296.625 1028.2188,295.5547 Q1027.5313,294.4844 1027.5313,293.2031 L1027.5313,292.0469 Q1027.5313,290.7188 1028.1484,289.5703 Q1028.7656,288.4219 1029.8594,287.8047 Q1030.9531,287.1875 1032.1875,287.1875 Q1032.9219,287.1875 1033.5703,287.3516 Q1034.2188,287.5156 1034.7656,287.875 Z "/><text fill="#000000" font-family="sans-serif" font-size="12" lengthAdjust="spacingAndGlyphs" textLength="140" x="1046" y="296.9102">Tipo de Elemento/Modulo</text><line style="stroke: #A80036; stroke-width: 1.5;" x1="1018" x2="1188" y1="308" y2="308"/><line style="stroke: #A80036; stroke-width: 1.5;" x1="1018" x2="1188" y1="316" y2="316"/><!--class Relacion--><rect fill="#FFA500" filter="url(#f9jjlt2fu6pom)" height="48" id="Relacion" style="stroke: #A80036; stroke-width: 1.5;" width="81" x="1086.5" y="168"/><rect fill="#FFA500" height="32" style="stroke: #A80036; stroke-width: 1.5;" width="81" x="1086.5" y="168"/><ellipse cx="1101.5" cy="184" fill="#ADD1B2" rx="11" ry="11" style="stroke: #A80036; stroke-width: 1.0;"/><path d="M1104.2656,179.875 Q1104.4219,179.6563 1104.6094,179.5469 Q1104.7969,179.4375 1105.0156,179.4375 Q1105.3906,179.4375 1105.625,179.6953 Q1105.8594,179.9531 1105.8594,180.5625 L1105.8594,182.0156 Q1105.8594,182.625 1105.625,182.8906 Q1105.3906,183.1563 1105.0156,183.1563 Q1104.6719,183.1563 1104.4688,182.9531 Q1104.2656,182.7656 1104.1563,182.25 Q1104.1094,181.8906 1103.9219,181.7031 Q1103.5938,181.3281 1102.9844,181.1094 Q1102.375,180.8906 1101.75,180.8906 Q1100.9844,180.8906 1100.3516,181.2188 Q1099.7188,181.5469 1099.2266,182.2969 Q1098.7344,183.0469 1098.7344,184.0781 L1098.7344,185.1719 Q1098.7344,186.4063 1099.625,187.2266 Q1100.5156,188.0469 1102.1094,188.0469 Q1103.0469,188.0469 1103.7031,187.7969 Q1104.0938,187.6406 1104.5156,187.2031 Q1104.7813,186.9375 1104.9297,186.8594 Q1105.0781,186.7813 1105.2813,186.7813 Q1105.6094,186.7813 1105.8672,187.0391 Q1106.125,187.2969 1106.125,187.6406 Q1106.125,187.9844 1105.7813,188.3906 Q1105.2813,188.9688 1104.4844,189.2969 Q1103.4063,189.75 1102.1094,189.75 Q1100.5938,189.75 1099.3906,189.125 Q1098.4063,188.625 1097.7188,187.5547 Q1097.0313,186.4844 1097.0313,185.2031 L1097.0313,184.0469 Q1097.0313,182.7188 1097.6484,181.5703 Q1098.2656,180.4219 1099.3594,179.8047 Q1100.4531,179.1875 1101.6875,179.1875 Q1102.4219,179.1875 1103.0703,179.3516 Q1103.7188,179.5156 1104.2656,179.875 Z "/><text fill="#000000" font-family="sans-serif" font-size="12" lengthAdjust="spacingAndGlyphs" textLength="49" x="1115.5" y="188.9102">Relación</text><line style="stroke: #A80036; stroke-width: 1.5;" x1="1087.5" x2="1166.5" y1="200" y2="200"/><line style="stroke: #A80036; stroke-width: 1.5;" x1="1087.5" x2="1166.5" y1="208" y2="208"/><!--class Elemento--><rect fill="#FFA500" filter="url(#f9jjlt2fu6pom)" height="48" id="Elemento" style="stroke: #A80036; stroke-width: 1.5;" width="128" x="1126" y="384"/><rect fill="#FFA500" height="32" style="stroke: #A80036; stroke-width: 1.5;" width="128" x="1126" y="384"/><ellipse cx="1141" cy="400" fill="#ADD1B2" rx="11" ry="11" style="stroke: #A80036; stroke-width: 1.0;"/><path d="M1143.7656,395.875 Q1143.9219,395.6563 1144.1094,395.5469 Q1144.2969,395.4375 1144.5156,395.4375 Q1144.8906,395.4375 1145.125,395.6953 Q1145.3594,395.9531 1145.3594,396.5625 L1145.3594,398.0156 Q1145.3594,398.625 1145.125,398.8906 Q1144.8906,399.1563 1144.5156,399.1563 Q1144.1719,399.1563 1143.9688,398.9531 Q1143.7656,398.7656 1143.6563,398.25 Q1143.6094,397.8906 1143.4219,397.7031 Q1143.0938,397.3281 1142.4844,397.1094 Q1141.875,396.8906 1141.25,396.8906 Q1140.4844,396.8906 1139.8516,397.2188 Q1139.2188,397.5469 1138.7266,398.2969 Q1138.2344,399.0469 1138.2344,400.0781 L1138.2344,401.1719 Q1138.2344,402.4063 1139.125,403.2266 Q1140.0156,404.0469 1141.6094,404.0469 Q1142.5469,404.0469 1143.2031,403.7969 Q1143.5938,403.6406 1144.0156,403.2031 Q1144.2813,402.9375 1144.4297,402.8594 Q1144.5781,402.7813 1144.7813,402.7813 Q1145.1094,402.7813 1145.3672,403.0391 Q1145.625,403.2969 1145.625,403.6406 Q1145.625,403.9844 1145.2813,404.3906 Q1144.7813,404.9688 1143.9844,405.2969 Q1142.9063,405.75 1141.6094,405.75 Q1140.0938,405.75 1138.8906,405.125 Q1137.9063,404.625 1137.2188,403.5547 Q1136.5313,402.4844 1136.5313,401.2031 L1136.5313,400.0469 Q1136.5313,398.7188 1137.1484,397.5703 Q1137.7656,396.4219 1138.8594,395.8047 Q1139.9531,395.1875 1141.1875,395.1875 Q1141.9219,395.1875 1142.5703,395.3516 Q1143.2188,395.5156 1143.7656,395.875 Z "/><text fill="#000000" font-family="sans-serif" font-size="12" lengthAdjust="spacingAndGlyphs" textLength="96" x="1155" y="404.9102">Elemento/Módulo</text><line style="stroke: #A80036; stroke-width: 1.5;" x1="1127" x2="1253" y1="416" y2="416"/><line style="stroke: #A80036; stroke-width: 1.5;" x1="1127" x2="1253" y1="424" y2="424"/><!--class Colaboracion--><rect fill="#FFA500" filter="url(#f9jjlt2fu6pom)" height="48" id="Colaboracion" style="stroke: #A80036; stroke-width: 1.5;" width="106" x="1224" y="276"/><rect fill="#FFA500" height="32" style="stroke: #A80036; stroke-width: 1.5;" width="106" x="1224" y="276"/><ellipse cx="1239" cy="292" fill="#ADD1B2" rx="11" ry="11" style="stroke: #A80036; stroke-width: 1.0;"/><path d="M1241.7656,287.875 Q1241.9219,287.6563 1242.1094,287.5469 Q1242.2969,287.4375 1242.5156,287.4375 Q1242.8906,287.4375 1243.125,287.6953 Q1243.3594,287.9531 1243.3594,288.5625 L1243.3594,290.0156 Q1243.3594,290.625 1243.125,290.8906 Q1242.8906,291.1563 1242.5156,291.1563 Q1242.1719,291.1563 1241.9688,290.9531 Q1241.7656,290.7656 1241.6563,290.25 Q1241.6094,289.8906 1241.4219,289.7031 Q1241.0938,289.3281 1240.4844,289.1094 Q1239.875,288.8906 1239.25,288.8906 Q1238.4844,288.8906 1237.8516,289.2188 Q1237.2188,289.5469 1236.7266,290.2969 Q1236.2344,291.0469 1236.2344,292.0781 L1236.2344,293.1719 Q1236.2344,294.4063 1237.125,295.2266 Q1238.0156,296.0469 1239.6094,296.0469 Q1240.5469,296.0469 1241.2031,295.7969 Q1241.5938,295.6406 1242.0156,295.2031 Q1242.2813,294.9375 1242.4297,294.8594 Q1242.5781,294.7813 1242.7813,294.7813 Q1243.1094,294.7813 1243.3672,295.0391 Q1243.625,295.2969 1243.625,295.6406 Q1243.625,295.9844 1243.2813,296.3906 Q1242.7813,296.9688 1241.9844,297.2969 Q1240.9063,297.75 1239.6094,297.75 Q1238.0938,297.75 1236.8906,297.125 Q1235.9063,296.625 1235.2188,295.5547 Q1234.5313,294.4844 1234.5313,293.2031 L1234.5313,292.0469 Q1234.5313,290.7188 1235.1484,289.5703 Q1235.7656,288.4219 1236.8594,287.8047 Q1237.9531,287.1875 1239.1875,287.1875 Q1239.9219,287.1875 1240.5703,287.3516 Q1241.2188,287.5156 1241.7656,287.875 Z "/><text fill="#000000" font-family="sans-serif" font-size="12" lengthAdjust="spacingAndGlyphs" textLength="74" x="1253" y="296.9102">Colaboración</text><line style="stroke: #A80036; stroke-width: 1.5;" x1="1225" x2="1329" y1="308" y2="308"/><line style="stroke: #A80036; stroke-width: 1.5;" x1="1225" x2="1329" y1="316" y2="316"/><!--class Sistema--><rect fill="#FFA500" filter="url(#f9jjlt2fu6pom)" height="48" id="Sistema" style="stroke: #A80036; stroke-width: 1.5;" width="78" x="1040" y="60"/><rect fill="#FFA500" height="32" style="stroke: #A80036; stroke-width: 1.5;" width="78" x="1040" y="60"/><ellipse cx="1055" cy="76" fill="#ADD1B2" rx="11" ry="11" style="stroke: #A80036; stroke-width: 1.0;"/><path d="M1057.7656,71.875 Q1057.9219,71.6563 1058.1094,71.5469 Q1058.2969,71.4375 1058.5156,71.4375 Q1058.8906,71.4375 1059.125,71.6953 Q1059.3594,71.9531 1059.3594,72.5625 L1059.3594,74.0156 Q1059.3594,74.625 1059.125,74.8906 Q1058.8906,75.1563 1058.5156,75.1563 Q1058.1719,75.1563 1057.9688,74.9531 Q1057.7656,74.7656 1057.6563,74.25 Q1057.6094,73.8906 1057.4219,73.7031 Q1057.0938,73.3281 1056.4844,73.1094 Q1055.875,72.8906 1055.25,72.8906 Q1054.4844,72.8906 1053.8516,73.2188 Q1053.2188,73.5469 1052.7266,74.2969 Q1052.2344,75.0469 1052.2344,76.0781 L1052.2344,77.1719 Q1052.2344,78.4063 1053.125,79.2266 Q1054.0156,80.0469 1055.6094,80.0469 Q1056.5469,80.0469 1057.2031,79.7969 Q1057.5938,79.6406 1058.0156,79.2031 Q1058.2813,78.9375 1058.4297,78.8594 Q1058.5781,78.7813 1058.7813,78.7813 Q1059.1094,78.7813 1059.3672,79.0391 Q1059.625,79.2969 1059.625,79.6406 Q1059.625,79.9844 1059.2813,80.3906 Q1058.7813,80.9688 1057.9844,81.2969 Q1056.9063,81.75 1055.6094,81.75 Q1054.0938,81.75 1052.8906,81.125 Q1051.9063,80.625 1051.2188,79.5547 Q1050.5313,78.4844 1050.5313,77.2031 L1050.5313,76.0469 Q1050.5313,74.7188 1051.1484,73.5703 Q1051.7656,72.4219 1052.8594,71.8047 Q1053.9531,71.1875 1055.1875,71.1875 Q1055.9219,71.1875 1056.5703,71.3516 Q1057.2188,71.5156 1057.7656,71.875 Z "/><text fill="#000000" font-family="sans-serif" font-size="12" lengthAdjust="spacingAndGlyphs" textLength="46" x="1069" y="80.9102">Sistema</text><line style="stroke: #A80036; stroke-width: 1.5;" x1="1041" x2="1117" y1="92" y2="92"/><line style="stroke: #A80036; stroke-width: 1.5;" x1="1041" x2="1117" y1="100" y2="100"/><!--class SeparacionAsuntos--><rect fill="#FFFF00" filter="url(#f9jjlt2fu6pom)" height="48" id="SeparacionAsuntos" style="stroke: #A80036; stroke-width: 1.5;" width="160" x="221" y="168"/><rect fill="#FFFF00" height="32" style="stroke: #A80036; stroke-width: 1.5;" width="160" x="221" y="168"/><ellipse cx="236" cy="184" fill="#ADD1B2" rx="11" ry="11" style="stroke: #A80036; stroke-width: 1.0;"/><path d="M238.7656,179.875 Q238.9219,179.6563 239.1094,179.5469 Q239.2969,179.4375 239.5156,179.4375 Q239.8906,179.4375 240.125,179.6953 Q240.3594,179.9531 240.3594,180.5625 L240.3594,182.0156 Q240.3594,182.625 240.125,182.8906 Q239.8906,183.1563 239.5156,183.1563 Q239.1719,183.1563 238.9688,182.9531 Q238.7656,182.7656 238.6563,182.25 Q238.6094,181.8906 238.4219,181.7031 Q238.0938,181.3281 237.4844,181.1094 Q236.875,180.8906 236.25,180.8906 Q235.4844,180.8906 234.8516,181.2188 Q234.2188,181.5469 233.7266,182.2969 Q233.2344,183.0469 233.2344,184.0781 L233.2344,185.1719 Q233.2344,186.4063 234.125,187.2266 Q235.0156,188.0469 236.6094,188.0469 Q237.5469,188.0469 238.2031,187.7969 Q238.5938,187.6406 239.0156,187.2031 Q239.2813,186.9375 239.4297,186.8594 Q239.5781,186.7813 239.7813,186.7813 Q240.1094,186.7813 240.3672,187.0391 Q240.625,187.2969 240.625,187.6406 Q240.625,187.9844 240.2813,188.3906 Q239.7813,188.9688 238.9844,189.2969 Q237.9063,189.75 236.6094,189.75 Q235.0938,189.75 233.8906,189.125 Q232.9063,188.625 232.2188,187.5547 Q231.5313,186.4844 231.5313,185.2031 L231.5313,184.0469 Q231.5313,182.7188 232.1484,181.5703 Q232.7656,180.4219 233.8594,179.8047 Q234.9531,179.1875 236.1875,179.1875 Q236.9219,179.1875 237.5703,179.3516 Q238.2188,179.5156 238.7656,179.875 Z "/><text fill="#000000" font-family="sans-serif" font-size="12" lengthAdjust="spacingAndGlyphs" textLength="128" x="250" y="188.9102">Separación de Asuntos</text><line style="stroke: #A80036; stroke-width: 1.5;" x1="222" x2="380" y1="200" y2="200"/><line style="stroke: #A80036; stroke-width: 1.5;" x1="222" x2="380" y1="208" y2="208"/><!--class ElementoPrimitivo--><rect fill="#FFFF00" filter="url(#f9jjlt2fu6pom)" height="48" id="ElementoPrimitivo" style="stroke: #A80036; stroke-width: 1.5;" width="148" x="38" y="168"/><rect fill="#FFFF00" height="32" style="stroke: #A80036; stroke-width: 1.5;" width="148" x="38" y="168"/><ellipse cx="53" cy="184" fill="#ADD1B2" rx="11" ry="11" style="stroke: #A80036; stroke-width: 1.0;"/><path d="M55.7656,179.875 Q55.9219,179.6563 56.1094,179.5469 Q56.2969,179.4375 56.5156,179.4375 Q56.8906,179.4375 57.125,179.6953 Q57.3594,179.9531 57.3594,180.5625 L57.3594,182.0156 Q57.3594,182.625 57.125,182.8906 Q56.8906,183.1563 56.5156,183.1563 Q56.1719,183.1563 55.9688,182.9531 Q55.7656,182.7656 55.6563,182.25 Q55.6094,181.8906 55.4219,181.7031 Q55.0938,181.3281 54.4844,181.1094 Q53.875,180.8906 53.25,180.8906 Q52.4844,180.8906 51.8516,181.2188 Q51.2188,181.5469 50.7266,182.2969 Q50.2344,183.0469 50.2344,184.0781 L50.2344,185.1719 Q50.2344,186.4063 51.125,187.2266 Q52.0156,188.0469 53.6094,188.0469 Q54.5469,188.0469 55.2031,187.7969 Q55.5938,187.6406 56.0156,187.2031 Q56.2813,186.9375 56.4297,186.8594 Q56.5781,186.7813 56.7813,186.7813 Q57.1094,186.7813 57.3672,187.0391 Q57.625,187.2969 57.625,187.6406 Q57.625,187.9844 57.2813,188.3906 Q56.7813,188.9688 55.9844,189.2969 Q54.9063,189.75 53.6094,189.75 Q52.0938,189.75 50.8906,189.125 Q49.9063,188.625 49.2188,187.5547 Q48.5313,186.4844 48.5313,185.2031 L48.5313,184.0469 Q48.5313,182.7188 49.1484,181.5703 Q49.7656,180.4219 50.8594,179.8047 Q51.9531,179.1875 53.1875,179.1875 Q53.9219,179.1875 54.5703,179.3516 Q55.2188,179.5156 55.7656,179.875 Z "/><text fill="#000000" font-family="sans-serif" font-size="12" lengthAdjust="spacingAndGlyphs" textLength="116" x="67" y="188.9102">Elementos primitivos</text><line style="stroke: #A80036; stroke-width: 1.5;" x1="39" x2="185" y1="200" y2="200"/><line style="stroke: #A80036; stroke-width: 1.5;" x1="39" x2="185" y1="208" y2="208"/><!--class EstructuraJerarquica--><rect fill="#FFFF00" filter="url(#f9jjlt2fu6pom)" height="48" id="EstructuraJerarquica" style="stroke: #A80036; stroke-width: 1.5;" width="149" x="591.5" y="168"/><rect fill="#FFFF00" height="32" style="stroke: #A80036; stroke-width: 1.5;" width="149" x="591.5" y="168"/><ellipse cx="606.5" cy="184" fill="#ADD1B2" rx="11" ry="11" style="stroke: #A80036; stroke-width: 1.0;"/><path d="M609.2656,179.875 Q609.4219,179.6563 609.6094,179.5469 Q609.7969,179.4375 610.0156,179.4375 Q610.3906,179.4375 610.625,179.6953 Q610.8594,179.9531 610.8594,180.5625 L610.8594,182.0156 Q610.8594,182.625 610.625,182.8906 Q610.3906,183.1563 610.0156,183.1563 Q609.6719,183.1563 609.4688,182.9531 Q609.2656,182.7656 609.1563,182.25 Q609.1094,181.8906 608.9219,181.7031 Q608.5938,181.3281 607.9844,181.1094 Q607.375,180.8906 606.75,180.8906 Q605.9844,180.8906 605.3516,181.2188 Q604.7188,181.5469 604.2266,182.2969 Q603.7344,183.0469 603.7344,184.0781 L603.7344,185.1719 Q603.7344,186.4063 604.625,187.2266 Q605.5156,188.0469 607.1094,188.0469 Q608.0469,188.0469 608.7031,187.7969 Q609.0938,187.6406 609.5156,187.2031 Q609.7813,186.9375 609.9297,186.8594 Q610.0781,186.7813 610.2813,186.7813 Q610.6094,186.7813 610.8672,187.0391 Q611.125,187.2969 611.125,187.6406 Q611.125,187.9844 610.7813,188.3906 Q610.2813,188.9688 609.4844,189.2969 Q608.4063,189.75 607.1094,189.75 Q605.5938,189.75 604.3906,189.125 Q603.4063,188.625 602.7188,187.5547 Q602.0313,186.4844 602.0313,185.2031 L602.0313,184.0469 Q602.0313,182.7188 602.6484,181.5703 Q603.2656,180.4219 604.3594,179.8047 Q605.4531,179.1875 606.6875,179.1875 Q607.4219,179.1875 608.0703,179.3516 Q608.7188,179.5156 609.2656,179.875 Z "/><text fill="#000000" font-family="sans-serif" font-size="12" lengthAdjust="spacingAndGlyphs" textLength="117" x="620.5" y="188.9102">Estructura Jerárquica</text><line style="stroke: #A80036; stroke-width: 1.5;" x1="592.5" x2="739.5" y1="200" y2="200"/><line style="stroke: #A80036; stroke-width: 1.5;" x1="592.5" x2="739.5" y1="208" y2="208"/><!--class PatronesComunes--><rect fill="#FFFF00" filter="url(#f9jjlt2fu6pom)" height="48" id="PatronesComunes" style="stroke: #A80036; stroke-width: 1.5;" width="140" x="416" y="168"/><rect fill="#FFFF00" height="32" style="stroke: #A80036; stroke-width: 1.5;" width="140" x="416" y="168"/><ellipse cx="431" cy="184" fill="#ADD1B2" rx="11" ry="11" style="stroke: #A80036; stroke-width: 1.0;"/><path d="M433.7656,179.875 Q433.9219,179.6563 434.1094,179.5469 Q434.2969,179.4375 434.5156,179.4375 Q434.8906,179.4375 435.125,179.6953 Q435.3594,179.9531 435.3594,180.5625 L435.3594,182.0156 Q435.3594,182.625 435.125,182.8906 Q434.8906,183.1563 434.5156,183.1563 Q434.1719,183.1563 433.9688,182.9531 Q433.7656,182.7656 433.6563,182.25 Q433.6094,181.8906 433.4219,181.7031 Q433.0938,181.3281 432.4844,181.1094 Q431.875,180.8906 431.25,180.8906 Q430.4844,180.8906 429.8516,181.2188 Q429.2188,181.5469 428.7266,182.2969 Q428.2344,183.0469 428.2344,184.0781 L428.2344,185.1719 Q428.2344,186.4063 429.125,187.2266 Q430.0156,188.0469 431.6094,188.0469 Q432.5469,188.0469 433.2031,187.7969 Q433.5938,187.6406 434.0156,187.2031 Q434.2813,186.9375 434.4297,186.8594 Q434.5781,186.7813 434.7813,186.7813 Q435.1094,186.7813 435.3672,187.0391 Q435.625,187.2969 435.625,187.6406 Q435.625,187.9844 435.2813,188.3906 Q434.7813,188.9688 433.9844,189.2969 Q432.9063,189.75 431.6094,189.75 Q430.0938,189.75 428.8906,189.125 Q427.9063,188.625 427.2188,187.5547 Q426.5313,186.4844 426.5313,185.2031 L426.5313,184.0469 Q426.5313,182.7188 427.1484,181.5703 Q427.7656,180.4219 428.8594,179.8047 Q429.9531,179.1875 431.1875,179.1875 Q431.9219,179.1875 432.5703,179.3516 Q433.2188,179.5156 433.7656,179.875 Z "/><text fill="#000000" font-family="sans-serif" font-size="12" lengthAdjust="spacingAndGlyphs" textLength="108" x="445" y="188.9102">Patrones Comunes</text><line style="stroke: #A80036; stroke-width: 1.5;" x1="417" x2="555" y1="200" y2="200"/><line style="stroke: #A80036; stroke-width: 1.5;" x1="417" x2="555" y1="208" y2="208"/><!--class SistemaIntermedioEstable--><rect fill="#FFFF00" filter="url(#f9jjlt2fu6pom)" height="48" id="SistemaIntermedioEstable" style="stroke: #A80036; stroke-width: 1.5;" width="185" x="775.5" y="168"/><rect fill="#FFFF00" height="32" style="stroke: #A80036; stroke-width: 1.5;" width="185" x="775.5" y="168"/><ellipse cx="790.5" cy="184" fill="#ADD1B2" rx="11" ry="11" style="stroke: #A80036; stroke-width: 1.0;"/><path d="M793.2656,179.875 Q793.4219,179.6563 793.6094,179.5469 Q793.7969,179.4375 794.0156,179.4375 Q794.3906,179.4375 794.625,179.6953 Q794.8594,179.9531 794.8594,180.5625 L794.8594,182.0156 Q794.8594,182.625 794.625,182.8906 Q794.3906,183.1563 794.0156,183.1563 Q793.6719,183.1563 793.4688,182.9531 Q793.2656,182.7656 793.1563,182.25 Q793.1094,181.8906 792.9219,181.7031 Q792.5938,181.3281 791.9844,181.1094 Q791.375,180.8906 790.75,180.8906 Q789.9844,180.8906 789.3516,181.2188 Q788.7188,181.5469 788.2266,182.2969 Q787.7344,183.0469 787.7344,184.0781 L787.7344,185.1719 Q787.7344,186.4063 788.625,187.2266 Q789.5156,188.0469 791.1094,188.0469 Q792.0469,188.0469 792.7031,187.7969 Q793.0938,187.6406 793.5156,187.2031 Q793.7813,186.9375 793.9297,186.8594 Q794.0781,186.7813 794.2813,186.7813 Q794.6094,186.7813 794.8672,187.0391 Q795.125,187.2969 795.125,187.6406 Q795.125,187.9844 794.7813,188.3906 Q794.2813,188.9688 793.4844,189.2969 Q792.4063,189.75 791.1094,189.75 Q789.5938,189.75 788.3906,189.125 Q787.4063,188.625 786.7188,187.5547 Q786.0313,186.4844 786.0313,185.2031 L786.0313,184.0469 Q786.0313,182.7188 786.6484,181.5703 Q787.2656,180.4219 788.3594,179.8047 Q789.4531,179.1875 790.6875,179.1875 Q791.4219,179.1875 792.0703,179.3516 Q792.7188,179.5156 793.2656,179.875 Z "/><text fill="#000000" font-family="sans-serif" font-size="12" lengthAdjust="spacingAndGlyphs" textLength="153" x="804.5" y="188.9102">Sistema Intermedio Estable</text><line style="stroke: #A80036; stroke-width: 1.5;" x1="776.5" x2="959.5" y1="200" y2="200"/><line style="stroke: #A80036; stroke-width: 1.5;" x1="776.5" x2="959.5" y1="208" y2="208"/><!--class SistemaComplejo--><rect fill="#FFFF00" filter="url(#f9jjlt2fu6pom)" height="48" id="SistemaComplejo" style="stroke: #A80036; stroke-width: 1.5;" width="135" x="508.5" y="60"/><rect fill="#FFFF00" height="32" style="stroke: #A80036; stroke-width: 1.5;" width="135" x="508.5" y="60"/><ellipse cx="523.5" cy="76" fill="#ADD1B2" rx="11" ry="11" style="stroke: #A80036; stroke-width: 1.0;"/><path d="M526.2656,71.875 Q526.4219,71.6563 526.6094,71.5469 Q526.7969,71.4375 527.0156,71.4375 Q527.3906,71.4375 527.625,71.6953 Q527.8594,71.9531 527.8594,72.5625 L527.8594,74.0156 Q527.8594,74.625 527.625,74.8906 Q527.3906,75.1563 527.0156,75.1563 Q526.6719,75.1563 526.4688,74.9531 Q526.2656,74.7656 526.1563,74.25 Q526.1094,73.8906 525.9219,73.7031 Q525.5938,73.3281 524.9844,73.1094 Q524.375,72.8906 523.75,72.8906 Q522.9844,72.8906 522.3516,73.2188 Q521.7188,73.5469 521.2266,74.2969 Q520.7344,75.0469 520.7344,76.0781 L520.7344,77.1719 Q520.7344,78.4063 521.625,79.2266 Q522.5156,80.0469 524.1094,80.0469 Q525.0469,80.0469 525.7031,79.7969 Q526.0938,79.6406 526.5156,79.2031 Q526.7813,78.9375 526.9297,78.8594 Q527.0781,78.7813 527.2813,78.7813 Q527.6094,78.7813 527.8672,79.0391 Q528.125,79.2969 528.125,79.6406 Q528.125,79.9844 527.7813,80.3906 Q527.2813,80.9688 526.4844,81.2969 Q525.4063,81.75 524.1094,81.75 Q522.5938,81.75 521.3906,81.125 Q520.4063,80.625 519.7188,79.5547 Q519.0313,78.4844 519.0313,77.2031 L519.0313,76.0469 Q519.0313,74.7188 519.6484,73.5703 Q520.2656,72.4219 521.3594,71.8047 Q522.4531,71.1875 523.6875,71.1875 Q524.4219,71.1875 525.0703,71.3516 Q525.7188,71.5156 526.2656,71.875 Z "/><text fill="#000000" font-family="sans-serif" font-size="12" lengthAdjust="spacingAndGlyphs" textLength="103" x="537.5" y="80.9102">Sistema Complejo</text><line style="stroke: #A80036; stroke-width: 1.5;" x1="509.5" x2="642.5" y1="92" y2="92"/><line style="stroke: #A80036; stroke-width: 1.5;" x1="509.5" x2="642.5" y1="100" y2="100"/><!--link Relacion to TipoElemento--><path d="M1121.79,216 C1118.17,232.003 1113.31,253.446 1109.45,270.528 " fill="none" id="Relacion-TipoElemento" style="stroke: #A80036; stroke-width: 1.0;"/><polygon fill="#A80036" points="1108.28,275.678,1114.1707,267.785,1109.3854,270.8017,1106.3687,266.0164,1108.28,275.678" style="stroke: #A80036; stroke-width: 1.0;"/><!--link Relacion to Colaboracion--><path d="M1159.55,216 C1183.25,232.75 1215.39,255.461 1240.05,272.892 " fill="none" id="Relacion-Colaboracion" style="stroke: #A80036; stroke-width: 1.0;"/><polygon fill="#A80036" points="1244.26,275.862,1239.2191,267.4009,1240.1769,272.9761,1234.6017,273.9339,1244.26,275.862" style="stroke: #A80036; stroke-width: 1.0;"/><!--link TipoElemento to Elemento--><path d="M1121.88,324 C1135.24,340.279 1153.22,362.187 1167.35,379.4076 " fill="none" id="TipoElemento-Elemento" style="stroke: #A80036; stroke-width: 1.0;"/><polygon fill="#A80036" points="1170.86,383.6784,1168.2497,374.1817,1167.691,379.8109,1162.0618,379.2522,1170.86,383.6784" style="stroke: #A80036; stroke-width: 1.0;"/><!--link Colaboracion to Elemento--><path d="M1258.12,324 C1244.76,340.279 1226.78,362.187 1212.65,379.4076 " fill="none" id="Colaboracion-Elemento" style="stroke: #A80036; stroke-width: 1.0;"/><polygon fill="#A80036" points="1209.14,383.6784,1217.9382,379.2522,1212.309,379.8109,1211.7503,374.1817,1209.14,383.6784" style="stroke: #A80036; stroke-width: 1.0;"/><!--link Sistema to TipoElemento--><path d="M1070.2,121.077 C1063.95,152.911 1058.38,200.29 1069,240 C1071.25,248.418 1075.03,256.88 1079.26,264.663 " fill="none" id="Sistema-TipoElemento" style="stroke: #A80036; stroke-width: 1.0;"/><polygon fill="#A80036" points="1085.9,275.858,1084.752,266.0763,1083.3506,271.5568,1077.8701,270.1553,1085.9,275.858" style="stroke: #A80036; stroke-width: 1.0;"/><line style="stroke: #A80036; stroke-width: 1.0;" x1="1083.3506" x2="1079.265" y1="271.5568" y2="264.6765"/><polygon fill="#A80036" points="1072.97,108.041,1067.8109,113.0792,1070.4773,119.7792,1075.6364,114.741,1072.97,108.041" style="stroke: #A80036; stroke-width: 1.0;"/><!--link Sistema to Relacion--><path d="M1094.82,119.935 C1100.03,131.447 1105.83,144.251 1111.05,155.784 " fill="none" id="Sistema-Relacion" style="stroke: #A80036; stroke-width: 1.0;"/><polygon fill="#A80036" points="1116.44,167.678,1116.3712,157.8294,1114.3774,163.1232,1109.0836,161.1295,1116.44,167.678" style="stroke: #A80036; stroke-width: 1.0;"/><line style="stroke: #A80036; stroke-width: 1.0;" x1="1114.3774" x2="1111.075" y1="163.1232" y2="155.836"/><polygon fill="#A80036" points="1089.42,108,1088.2513,115.1158,1094.3701,118.9314,1095.5389,111.8157,1089.42,108" style="stroke: #A80036; stroke-width: 1.0;"/><!--link Sistema to Elemento--><path d="M1130.56,103.115 C1196.17,129.421 1306.03,185.221 1348,276 C1356.95,295.364 1359.03,305.741 1348,324 C1329.96,353.85 1297.24,373.4965 1266.24,386.1415 " fill="none" id="Sistema-Elemento" style="stroke: #A80036; stroke-width: 1.0;"/><polygon fill="#A80036" points="1254.02,390.8146,1263.855,391.3364,1258.6902,389.0288,1260.9978,383.864,1254.02,390.8146" style="stroke: #A80036; stroke-width: 1.0;"/><line style="stroke: #A80036; stroke-width: 1.0;" x1="1258.6902" x2="1266.165" y1="389.0288" y2="386.1705"/><polygon fill="#A80036" points="1118.06,98.246,1122.2007,104.1498,1129.2429,102.5983,1125.1022,96.6945,1118.06,98.246" style="stroke: #A80036; stroke-width: 1.0;"/><!--link Sistema to Colaboracion--><path d="M1124.22,115.806 C1144.01,130.408 1166.81,148.834 1185,168 C1213.29,197.806 1239.6,236.888 1256.77,264.584 " fill="none" id="Sistema-Colaboracion" style="stroke: #A80036; stroke-width: 1.0;"/><polygon fill="#A80036" points="1263.55,275.697,1262.2777,265.9307,1260.9461,271.4286,1255.4482,270.0969,1263.55,275.697" style="stroke: #A80036; stroke-width: 1.0;"/><line style="stroke: #A80036; stroke-width: 1.0;" x1="1260.9461" x2="1256.775" y1="271.4286" y2="264.599"/><polygon fill="#A80036" points="1113.58,108.107,1116.0982,114.8641,1123.3041,115.1385,1120.7859,108.3814,1113.58,108.107" style="stroke: #A80036; stroke-width: 1.0;"/><!--link SeparacionAsuntos to TipoElemento--><path d="M340.291,216.118 C357.446,225.12 378.147,234.562 398,240 C511.086,270.975 847.633,288.565 1011.42,295.506 " fill="none" id="SeparacionAsuntos-TipoElemento" style="stroke: #A80036; stroke-width: 1.0;"/><polygon fill="#A80036" points="1016.7,295.728,1007.8672,291.3712,1011.704,295.528,1007.5472,299.3648,1016.7,295.728" style="stroke: #A80036; stroke-width: 1.0;"/><!--link Elemento to ElementoPrimitivo--><path d="M1105.83,401.5395 C932.731,388.4209 525.989,347.817 203,240 C184.953,233.976 166.095,224.777 150.256,216.109 " fill="none" id="Elemento-ElementoPrimitivo" style="stroke: #A80036; stroke-width: 1.0;"/><polygon fill="none" points="1106.57,394.575,1126,403.0231,1105.54,408.5373,1106.57,394.575" style="stroke: #A80036; stroke-width: 1.0;"/><!--link EstructuraJerarquica to Relacion--><path d="M703.897,167.93 C724.267,156.411 750.316,143.872 775.5,138 C890.634,111.154 927.936,105.14 1041.5,138 C1060.31,143.442 1078.95,154.389 1094.01,165.013 " fill="none" id="EstructuraJerarquica-Relacion" style="stroke: #A80036; stroke-width: 1.0;"/><polygon fill="#A80036" points="1098.16,167.996,1093.1825,159.4975,1094.0986,165.0797,1088.5164,165.9957,1098.16,167.996" style="stroke: #A80036; stroke-width: 1.0;"/><!--link PatronesComunes to Colaboracion--><path d="M520.899,216.152 C536.488,225.277 555.49,234.803 574,240 C844.87,316.053 929.461,224.223 1206,276 C1210.21,276.788 1214.52,277.757 1218.83,278.845 " fill="none" id="PatronesComunes-Colaboracion" style="stroke: #A80036; stroke-width: 1.0;"/><polygon fill="#A80036" points="1223.88,280.175,1216.193,274.0179,1219.0443,278.9036,1214.1587,281.755,1223.88,280.175" style="stroke: #A80036; stroke-width: 1.0;"/><!--link Sistema to SistemaIntermedioEstable--><path d="M1021.51,113.881 C987.707,130.863 945.543,152.045 913.962,167.91 " fill="none" id="Sistema-SistemaIntermedioEstable" style="stroke: #A80036; stroke-width: 1.0;"/><polygon fill="none" points="1018.79,107.413,1039.81,104.689,1025.08,119.923,1018.79,107.413" style="stroke: #A80036; stroke-width: 1.0;"/><!--link Sistema to SistemaComplejo--><path d="M1019.78,84 C894.452,84 769.119,84 643.787,84 " fill="none" id="Sistema-SistemaComplejo" style="stroke: #A80036; stroke-width: 1.0;"/><polygon fill="none" points="1019.9,77,1039.9,84,1019.9,91,1019.9,77" style="stroke: #A80036; stroke-width: 1.0;"/><!--link SistemaComplejo to SeparacionAsuntos--><path d="M504.116,112.708 C463.785,128.254 413.614,147.592 373.227,163.16 " fill="none" id="SistemaComplejo-SeparacionAsuntos" style="stroke: #A80036; stroke-width: 1.0;"/><polygon fill="#A80036" points="361.029,167.862,370.8654,168.3577,365.6945,166.0638,367.9883,160.8929,361.029,167.862" style="stroke: #A80036; stroke-width: 1.0;"/><line style="stroke: #A80036; stroke-width: 1.0;" x1="365.6945" x2="373.1585" y1="166.0638" y2="163.186"/><polygon fill="#A80036" points="516.329,108,509.292,106.425,505.1316,112.3149,512.1686,113.8899,516.329,108" style="stroke: #A80036; stroke-width: 1.0;"/><!--link SistemaComplejo to ElementoPrimitivo--><path d="M495.307,102.258 C419.656,118.603 303.466,144.131 203,168 C201.737,168.3 200.464,168.604 199.183,168.911 " fill="none" id="SistemaComplejo-ElementoPrimitivo" style="stroke: #A80036; stroke-width: 1.0;"/><polygon fill="#A80036" points="186.45,171.999,196.1392,173.765,191.3091,170.8205,194.2536,165.9904,186.45,171.999" style="stroke: #A80036; stroke-width: 1.0;"/><line style="stroke: #A80036; stroke-width: 1.0;" x1="191.3091" x2="199.0835" y1="170.8205" y2="168.935"/><polygon fill="#A80036" points="508.484,99.416,501.7754,96.7713,496.7539,101.9466,503.4625,104.5914,508.484,99.416" style="stroke: #A80036; stroke-width: 1.0;"/><!--link SistemaComplejo to EstructuraJerarquica--><path d="M604.091,118.084 C614.763,130.654 626.92,144.973 637.619,157.574 " fill="none" id="SistemaComplejo-EstructuraJerarquica" style="stroke: #A80036; stroke-width: 1.0;"/><polygon fill="#A80036" points="646.199,167.678,643.4238,158.2282,642.9631,163.8663,637.3251,163.4056,646.199,167.678" style="stroke: #A80036; stroke-width: 1.0;"/><line style="stroke: #A80036; stroke-width: 1.0;" x1="642.9631" x2="637.7845" y1="163.8663" y2="157.7685"/><polygon fill="#A80036" points="595.529,108,596.3633,115.1627,603.2958,117.1475,602.4616,109.9848,595.529,108" style="stroke: #A80036; stroke-width: 1.0;"/><!--link SistemaComplejo to PatronesComunes--><path d="M547.909,118.084 C537.237,130.654 525.08,144.973 514.381,157.574 " fill="none" id="SistemaComplejo-PatronesComunes" style="stroke: #A80036; stroke-width: 1.0;"/><polygon fill="#A80036" points="505.801,167.678,514.6749,163.4056,509.0369,163.8663,508.5762,158.2282,505.801,167.678" style="stroke: #A80036; stroke-width: 1.0;"/><line style="stroke: #A80036; stroke-width: 1.0;" x1="509.0369" x2="514.2155" y1="163.8663" y2="157.7685"/><polygon fill="#A80036" points="556.471,108,549.5384,109.9848,548.7042,117.1475,555.6367,115.1627,556.471,108" style="stroke: #A80036; stroke-width: 1.0;"/><!--link SistemaComplejo to SistemaIntermedioEstable--><path d="M651.744,112.496 C694.915,128.168 748.847,147.746 792.052,163.43 " fill="none" id="SistemaComplejo-SistemaIntermedioEstable" style="stroke: #A80036; stroke-width: 1.0;"/><polygon fill="#A80036" points="804.512,167.953,797.4169,161.1222,799.8121,166.247,794.6873,168.6421,804.512,167.953" style="stroke: #A80036; stroke-width: 1.0;"/><line style="stroke: #A80036; stroke-width: 1.0;" x1="799.8121" x2="792.2925" y1="166.247" y2="163.517"/><polygon fill="#A80036" points="639.36,108,643.6349,113.8073,650.6397,112.0949,646.3648,106.2875,639.36,108" style="stroke: #A80036; stroke-width: 1.0;"/><!--
@startuml

together sistemas {

class "Tipo de Elemento/Modulo" as TipoElemento #orange

class "Relación" as Relacion #orange

class "Elemento/Módulo" as Elemento #orange

class "Colaboración" as Colaboracion #orange

class Sistema #orange

}

together sistemasComplejos {

class "Separación de Asuntos" as SeparacionAsuntos #yellow

class "Elementos primitivos" as ElementoPrimitivo #yellow

class "Estructura Jerárquica" as EstructuraJerarquica #yellow

class "Patrones Comunes" as PatronesComunes #yellow

class "Sistema Intermedio Estable" as SistemaIntermedioEstable #yellow

class "Sistema Complejo" as SistemaComplejo #yellow

}

Relacion - -> TipoElemento
Relacion - -> Colaboracion

TipoElemento - -> Elemento

Colaboracion - -> Elemento

Sistema *-down-> TipoElemento
Sistema *-down-> Relacion
Sistema *-down-> Elemento
Sistema *-down-> Colaboracion

SeparacionAsuntos - -> TipoElemento

Elemento <|-down- ElementoPrimitivo

EstructuraJerarquica - -> Relacion

PatronesComunes - -> Colaboracion

Sistema <|-down- SistemaIntermedioEstable


Sistema <|-down- SistemaComplejo
SistemaComplejo *-down-> SeparacionAsuntos
SistemaComplejo *-down-> ElementoPrimitivo
SistemaComplejo *-down-> EstructuraJerarquica
SistemaComplejo *-down-> PatronesComunes
SistemaComplejo *-down-> SistemaIntermedioEstable

@enduml

PlantUML version 1.2019.05(Sat Apr 20 18:45:36 CEST 2019)
(GPL source distribution)
Java Runtime: Java(TM) SE Runtime Environment
JVM: Java HotSpot(TM) 64-Bit Server VM
Java Version: 1.8.0_211-b12
Operating System: Windows 10
OS Version: 10.0
Default Encoding: windows-1252
Language: es
Country: ES
--></g></svg>