<?xml version="1.0" encoding="UTF-8" standalone="no"?><svg xmlns="http://www.w3.org/2000/svg" xmlns:xlink="http://www.w3.org/1999/xlink" contentScriptType="application/ecmascript" contentStyleType="text/css" height="443px" preserveAspectRatio="none" style="width:399px;height:443px;" version="1.1" viewBox="0 0 399 443" width="399px" zoomAndPan="magnify"><defs><filter height="300%" id="f6otn2b1s5tzv" width="300%" x="-1" y="-1"><feGaussianBlur result="blurOut" stdDeviation="2.0"/><feColorMatrix in="blurOut" result="blurOut2" type="matrix" values="0 0 0 0 0 0 0 0 0 0 0 0 0 0 0 0 0 0 .4 0"/><feOffset dx="4.0" dy="4.0" in="blurOut2" result="blurOut3"/><feBlend in="SourceGraphic" in2="blurOut3" mode="normal"/></filter></defs><g><!--cluster sistemas--><!--class TipoElemento--><rect fill="#FFA500" filter="url(#f6otn2b1s5tzv)" height="48" id="TipoElemento" style="stroke: #A80036; stroke-width: 1.5;" width="172" x="75" y="276"/><rect fill="#FFA500" height="32" style="stroke: #A80036; stroke-width: 1.5;" width="172" x="75" y="276"/><ellipse cx="90" cy="292" fill="#ADD1B2" rx="11" ry="11" style="stroke: #A80036; stroke-width: 1.0;"/><path d="M92.7656,287.875 Q92.9219,287.6563 93.1094,287.5469 Q93.2969,287.4375 93.5156,287.4375 Q93.8906,287.4375 94.125,287.6953 Q94.3594,287.9531 94.3594,288.5625 L94.3594,290.0156 Q94.3594,290.625 94.125,290.8906 Q93.8906,291.1563 93.5156,291.1563 Q93.1719,291.1563 92.9688,290.9531 Q92.7656,290.7656 92.6563,290.25 Q92.6094,289.8906 92.4219,289.7031 Q92.0938,289.3281 91.4844,289.1094 Q90.875,288.8906 90.25,288.8906 Q89.4844,288.8906 88.8516,289.2188 Q88.2188,289.5469 87.7266,290.2969 Q87.2344,291.0469 87.2344,292.0781 L87.2344,293.1719 Q87.2344,294.4063 88.125,295.2266 Q89.0156,296.0469 90.6094,296.0469 Q91.5469,296.0469 92.2031,295.7969 Q92.5938,295.6406 93.0156,295.2031 Q93.2813,294.9375 93.4297,294.8594 Q93.5781,294.7813 93.7813,294.7813 Q94.1094,294.7813 94.3672,295.0391 Q94.625,295.2969 94.625,295.6406 Q94.625,295.9844 94.2813,296.3906 Q93.7813,296.9688 92.9844,297.2969 Q91.9063,297.75 90.6094,297.75 Q89.0938,297.75 87.8906,297.125 Q86.9063,296.625 86.2188,295.5547 Q85.5313,294.4844 85.5313,293.2031 L85.5313,292.0469 Q85.5313,290.7188 86.1484,289.5703 Q86.7656,288.4219 87.8594,287.8047 Q88.9531,287.1875 90.1875,287.1875 Q90.9219,287.1875 91.5703,287.3516 Q92.2188,287.5156 92.7656,287.875 Z "/><text fill="#000000" font-family="sans-serif" font-size="12" lengthAdjust="spacingAndGlyphs" textLength="140" x="104" y="296.9102">Tipo de Elemento/Modulo</text><line style="stroke: #A80036; stroke-width: 1.5;" x1="76" x2="246" y1="308" y2="308"/><line style="stroke: #A80036; stroke-width: 1.5;" x1="76" x2="246" y1="316" y2="316"/><!--class Relacion--><rect fill="#FFA500" filter="url(#f6otn2b1s5tzv)" height="48" id="Relacion" style="stroke: #A80036; stroke-width: 1.5;" width="81" x="197.5" y="168"/><rect fill="#FFA500" height="32" style="stroke: #A80036; stroke-width: 1.5;" width="81" x="197.5" y="168"/><ellipse cx="212.5" cy="184" fill="#ADD1B2" rx="11" ry="11" style="stroke: #A80036; stroke-width: 1.0;"/><path d="M215.2656,179.875 Q215.4219,179.6563 215.6094,179.5469 Q215.7969,179.4375 216.0156,179.4375 Q216.3906,179.4375 216.625,179.6953 Q216.8594,179.9531 216.8594,180.5625 L216.8594,182.0156 Q216.8594,182.625 216.625,182.8906 Q216.3906,183.1563 216.0156,183.1563 Q215.6719,183.1563 215.4688,182.9531 Q215.2656,182.7656 215.1563,182.25 Q215.1094,181.8906 214.9219,181.7031 Q214.5938,181.3281 213.9844,181.1094 Q213.375,180.8906 212.75,180.8906 Q211.9844,180.8906 211.3516,181.2188 Q210.7188,181.5469 210.2266,182.2969 Q209.7344,183.0469 209.7344,184.0781 L209.7344,185.1719 Q209.7344,186.4063 210.625,187.2266 Q211.5156,188.0469 213.1094,188.0469 Q214.0469,188.0469 214.7031,187.7969 Q215.0938,187.6406 215.5156,187.2031 Q215.7813,186.9375 215.9297,186.8594 Q216.0781,186.7813 216.2813,186.7813 Q216.6094,186.7813 216.8672,187.0391 Q217.125,187.2969 217.125,187.6406 Q217.125,187.9844 216.7813,188.3906 Q216.2813,188.9688 215.4844,189.2969 Q214.4063,189.75 213.1094,189.75 Q211.5938,189.75 210.3906,189.125 Q209.4063,188.625 208.7188,187.5547 Q208.0313,186.4844 208.0313,185.2031 L208.0313,184.0469 Q208.0313,182.7188 208.6484,181.5703 Q209.2656,180.4219 210.3594,179.8047 Q211.4531,179.1875 212.6875,179.1875 Q213.4219,179.1875 214.0703,179.3516 Q214.7188,179.5156 215.2656,179.875 Z "/><text fill="#000000" font-family="sans-serif" font-size="12" lengthAdjust="spacingAndGlyphs" textLength="49" x="226.5" y="188.9102">Relación</text><line style="stroke: #A80036; stroke-width: 1.5;" x1="198.5" x2="277.5" y1="200" y2="200"/><line style="stroke: #A80036; stroke-width: 1.5;" x1="198.5" x2="277.5" y1="208" y2="208"/><!--class Elemento--><rect fill="#FFA500" filter="url(#f6otn2b1s5tzv)" height="48" id="Elemento" style="stroke: #A80036; stroke-width: 1.5;" width="128" x="97" y="384"/><rect fill="#FFA500" height="32" style="stroke: #A80036; stroke-width: 1.5;" width="128" x="97" y="384"/><ellipse cx="112" cy="400" fill="#ADD1B2" rx="11" ry="11" style="stroke: #A80036; stroke-width: 1.0;"/><path d="M114.7656,395.875 Q114.9219,395.6563 115.1094,395.5469 Q115.2969,395.4375 115.5156,395.4375 Q115.8906,395.4375 116.125,395.6953 Q116.3594,395.9531 116.3594,396.5625 L116.3594,398.0156 Q116.3594,398.625 116.125,398.8906 Q115.8906,399.1563 115.5156,399.1563 Q115.1719,399.1563 114.9688,398.9531 Q114.7656,398.7656 114.6563,398.25 Q114.6094,397.8906 114.4219,397.7031 Q114.0938,397.3281 113.4844,397.1094 Q112.875,396.8906 112.25,396.8906 Q111.4844,396.8906 110.8516,397.2188 Q110.2188,397.5469 109.7266,398.2969 Q109.2344,399.0469 109.2344,400.0781 L109.2344,401.1719 Q109.2344,402.4063 110.125,403.2266 Q111.0156,404.0469 112.6094,404.0469 Q113.5469,404.0469 114.2031,403.7969 Q114.5938,403.6406 115.0156,403.2031 Q115.2813,402.9375 115.4297,402.8594 Q115.5781,402.7813 115.7813,402.7813 Q116.1094,402.7813 116.3672,403.0391 Q116.625,403.2969 116.625,403.6406 Q116.625,403.9844 116.2813,404.3906 Q115.7813,404.9688 114.9844,405.2969 Q113.9063,405.75 112.6094,405.75 Q111.0938,405.75 109.8906,405.125 Q108.9063,404.625 108.2188,403.5547 Q107.5313,402.4844 107.5313,401.2031 L107.5313,400.0469 Q107.5313,398.7188 108.1484,397.5703 Q108.7656,396.4219 109.8594,395.8047 Q110.9531,395.1875 112.1875,395.1875 Q112.9219,395.1875 113.5703,395.3516 Q114.2188,395.5156 114.7656,395.875 Z "/><text fill="#000000" font-family="sans-serif" font-size="12" lengthAdjust="spacingAndGlyphs" textLength="96" x="126" y="404.9102">Elemento/Módulo</text><line style="stroke: #A80036; stroke-width: 1.5;" x1="98" x2="224" y1="416" y2="416"/><line style="stroke: #A80036; stroke-width: 1.5;" x1="98" x2="224" y1="424" y2="424"/><!--class Colaboracion--><rect fill="#FFA500" filter="url(#f6otn2b1s5tzv)" height="48" id="Colaboracion" style="stroke: #A80036; stroke-width: 1.5;" width="106" x="282" y="276"/><rect fill="#FFA500" height="32" style="stroke: #A80036; stroke-width: 1.5;" width="106" x="282" y="276"/><ellipse cx="297" cy="292" fill="#ADD1B2" rx="11" ry="11" style="stroke: #A80036; stroke-width: 1.0;"/><path d="M299.7656,287.875 Q299.9219,287.6563 300.1094,287.5469 Q300.2969,287.4375 300.5156,287.4375 Q300.8906,287.4375 301.125,287.6953 Q301.3594,287.9531 301.3594,288.5625 L301.3594,290.0156 Q301.3594,290.625 301.125,290.8906 Q300.8906,291.1563 300.5156,291.1563 Q300.1719,291.1563 299.9688,290.9531 Q299.7656,290.7656 299.6563,290.25 Q299.6094,289.8906 299.4219,289.7031 Q299.0938,289.3281 298.4844,289.1094 Q297.875,288.8906 297.25,288.8906 Q296.4844,288.8906 295.8516,289.2188 Q295.2188,289.5469 294.7266,290.2969 Q294.2344,291.0469 294.2344,292.0781 L294.2344,293.1719 Q294.2344,294.4063 295.125,295.2266 Q296.0156,296.0469 297.6094,296.0469 Q298.5469,296.0469 299.2031,295.7969 Q299.5938,295.6406 300.0156,295.2031 Q300.2813,294.9375 300.4297,294.8594 Q300.5781,294.7813 300.7813,294.7813 Q301.1094,294.7813 301.3672,295.0391 Q301.625,295.2969 301.625,295.6406 Q301.625,295.9844 301.2813,296.3906 Q300.7813,296.9688 299.9844,297.2969 Q298.9063,297.75 297.6094,297.75 Q296.0938,297.75 294.8906,297.125 Q293.9063,296.625 293.2188,295.5547 Q292.5313,294.4844 292.5313,293.2031 L292.5313,292.0469 Q292.5313,290.7188 293.1484,289.5703 Q293.7656,288.4219 294.8594,287.8047 Q295.9531,287.1875 297.1875,287.1875 Q297.9219,287.1875 298.5703,287.3516 Q299.2188,287.5156 299.7656,287.875 Z "/><text fill="#000000" font-family="sans-serif" font-size="12" lengthAdjust="spacingAndGlyphs" textLength="74" x="311" y="296.9102">Colaboración</text><line style="stroke: #A80036; stroke-width: 1.5;" x1="283" x2="387" y1="308" y2="308"/><line style="stroke: #A80036; stroke-width: 1.5;" x1="283" x2="387" y1="316" y2="316"/><!--class Sistema--><rect fill="#FFA500" filter="url(#f6otn2b1s5tzv)" height="48" id="Sistema" style="stroke: #A80036; stroke-width: 1.5;" width="78" x="160" y="60"/><rect fill="#FFA500" height="32" style="stroke: #A80036; stroke-width: 1.5;" width="78" x="160" y="60"/><ellipse cx="175" cy="76" fill="#ADD1B2" rx="11" ry="11" style="stroke: #A80036; stroke-width: 1.0;"/><path d="M177.7656,71.875 Q177.9219,71.6563 178.1094,71.5469 Q178.2969,71.4375 178.5156,71.4375 Q178.8906,71.4375 179.125,71.6953 Q179.3594,71.9531 179.3594,72.5625 L179.3594,74.0156 Q179.3594,74.625 179.125,74.8906 Q178.8906,75.1563 178.5156,75.1563 Q178.1719,75.1563 177.9688,74.9531 Q177.7656,74.7656 177.6563,74.25 Q177.6094,73.8906 177.4219,73.7031 Q177.0938,73.3281 176.4844,73.1094 Q175.875,72.8906 175.25,72.8906 Q174.4844,72.8906 173.8516,73.2188 Q173.2188,73.5469 172.7266,74.2969 Q172.2344,75.0469 172.2344,76.0781 L172.2344,77.1719 Q172.2344,78.4063 173.125,79.2266 Q174.0156,80.0469 175.6094,80.0469 Q176.5469,80.0469 177.2031,79.7969 Q177.5938,79.6406 178.0156,79.2031 Q178.2813,78.9375 178.4297,78.8594 Q178.5781,78.7813 178.7813,78.7813 Q179.1094,78.7813 179.3672,79.0391 Q179.625,79.2969 179.625,79.6406 Q179.625,79.9844 179.2813,80.3906 Q178.7813,80.9688 177.9844,81.2969 Q176.9063,81.75 175.6094,81.75 Q174.0938,81.75 172.8906,81.125 Q171.9063,80.625 171.2188,79.5547 Q170.5313,78.4844 170.5313,77.2031 L170.5313,76.0469 Q170.5313,74.7188 171.1484,73.5703 Q171.7656,72.4219 172.8594,71.8047 Q173.9531,71.1875 175.1875,71.1875 Q175.9219,71.1875 176.5703,71.3516 Q177.2188,71.5156 177.7656,71.875 Z "/><text fill="#000000" font-family="sans-serif" font-size="12" lengthAdjust="spacingAndGlyphs" textLength="46" x="189" y="80.9102">Sistema</text><line style="stroke: #A80036; stroke-width: 1.5;" x1="161" x2="237" y1="92" y2="92"/><line style="stroke: #A80036; stroke-width: 1.5;" x1="161" x2="237" y1="100" y2="100"/><!--link Relacion to TipoElemento--><path d="M221.292,216 C209.467,232.279 193.553,254.187 181.044,271.408 " fill="none" id="Relacion-TipoElemento" style="stroke: #A80036; stroke-width: 1.0;"/><polygon fill="#A80036" points="177.941,275.678,186.4665,270.7469,180.8794,271.6325,179.9937,266.0454,177.941,275.678" style="stroke: #A80036; stroke-width: 1.0;"/><!--link Relacion to Colaboracion--><path d="M259.048,216 C274.07,232.417 294.332,254.559 310.15,271.844 " fill="none" id="Relacion-Colaboracion" style="stroke: #A80036; stroke-width: 1.0;"/><polygon fill="#A80036" points="313.659,275.678,310.5336,266.3382,310.2834,271.9895,304.632,271.7392,313.659,275.678" style="stroke: #A80036; stroke-width: 1.0;"/><!--link TipoElemento to Elemento--><path d="M161,324 C161,340.003 161,361.446 161,378.528 " fill="none" id="TipoElemento-Elemento" style="stroke: #A80036; stroke-width: 1.0;"/><polygon fill="#A80036" points="161,383.6784,165,374.6784,161,378.6784,157,374.6784,161,383.6784" style="stroke: #A80036; stroke-width: 1.0;"/><!--link Colaboracion to Elemento--><path d="M297.245,324 C269.636,340.819 232.162,363.649 203.503,381.1075 " fill="none" id="Colaboracion-Elemento" style="stroke: #A80036; stroke-width: 1.0;"/><polygon fill="#A80036" points="198.982,383.8617,208.7491,382.5953,203.252,381.2604,204.5869,375.7633,198.982,383.8617" style="stroke: #A80036; stroke-width: 1.0;"/><!--link Sistema to TipoElemento--><path d="M190.045,121.19 C186.634,135.689 182.878,152.583 180,168 C174.067,199.788 168.915,236.209 165.479,262.566 " fill="none" id="Sistema-TipoElemento" style="stroke: #A80036; stroke-width: 1.0;"/><polygon fill="#A80036" points="163.798,275.716,168.9071,267.296,164.4321,270.7564,160.9717,266.2814,163.798,275.716" style="stroke: #A80036; stroke-width: 1.0;"/><line style="stroke: #A80036; stroke-width: 1.0;" x1="164.4321" x2="165.447" y1="270.7564" y2="262.821"/><polygon fill="#A80036" points="193.171,108.15,187.8827,113.0524,190.374,119.8195,195.6623,114.9171,193.171,108.15" style="stroke: #A80036; stroke-width: 1.0;"/><!--link Sistema to Relacion--><path d="M212.025,120.402 C216.142,131.59 220.693,143.96 224.82,155.178 " fill="none" id="Sistema-Relacion" style="stroke: #A80036; stroke-width: 1.0;"/><polygon fill="#A80036" points="229.419,167.678,230.0658,157.8504,227.6927,162.9855,222.5577,160.6124,229.419,167.678" style="stroke: #A80036; stroke-width: 1.0;"/><line style="stroke: #A80036; stroke-width: 1.0;" x1="227.6927" x2="224.9305" y1="162.9855" y2="155.478"/><polygon fill="#A80036" points="207.462,108,205.7797,115.0121,211.6055,119.262,213.2877,112.2498,207.462,108" style="stroke: #A80036; stroke-width: 1.0;"/><!--link Sistema to Elemento--><path d="M164.29,117.48 C129.467,152.665 78.0662,212.356 57,276 C50.2963,296.253 47.7474,304.778 57,324 C67.3436,345.489 86.2582,363.144 105.1486,376.5633 " fill="none" id="Sistema-Elemento" style="stroke: #A80036; stroke-width: 1.0;"/><polygon fill="#A80036" points="116.203,383.9716,110.9535,375.6384,112.0495,381.1881,106.4998,382.284,116.203,383.9716" style="stroke: #A80036; stroke-width: 1.0;"/><line style="stroke: #A80036; stroke-width: 1.0;" x1="112.0495" x2="105.404" y1="381.1881" y2="376.7345"/><polygon fill="#A80036" points="173.634,108.223,166.5565,109.6048,165.1099,116.6693,172.1874,115.2875,173.634,108.223" style="stroke: #A80036; stroke-width: 1.0;"/><!--link Sistema to Colaboracion--><path d="M246.031,116.281 C263.895,130.241 283.039,148.052 296,168 C314.691,196.768 324.71,234.823 329.889,262.501 " fill="none" id="Sistema-Colaboracion" style="stroke: #A80036; stroke-width: 1.0;"/><polygon fill="#A80036" points="332.119,275.546,334.5457,266.0008,331.2767,270.6175,326.66,267.3485,332.119,275.546" style="stroke: #A80036; stroke-width: 1.0;"/><line style="stroke: #A80036; stroke-width: 1.0;" x1="331.2767" x2="329.929" y1="270.6175" y2="262.7315"/><polygon fill="#A80036" points="235.43,108.312,237.8225,115.1146,245.0221,115.5225,242.6296,108.7199,235.43,108.312" style="stroke: #A80036; stroke-width: 1.0;"/><!--
@startuml

together sistemas {

class "Tipo de Elemento/Modulo" as TipoElemento #orange

class "Relación" as Relacion #orange

class "Elemento/Módulo" as Elemento #orange

class "Colaboración" as Colaboracion #orange

class Sistema #orange

}

Relacion - -> TipoElemento
Relacion - -> Colaboracion

TipoElemento - -> Elemento

Colaboracion - -> Elemento

Sistema *-down-> TipoElemento
Sistema *-down-> Relacion
Sistema *-down-> Elemento
Sistema *-down-> Colaboracion

@enduml

PlantUML version 1.2019.05(Sat Apr 20 18:45:36 CEST 2019)
(GPL source distribution)
Java Runtime: Java(TM) SE Runtime Environment
JVM: Java HotSpot(TM) 64-Bit Server VM
Java Version: 1.8.0_211-b12
Operating System: Windows 10
OS Version: 10.0
Default Encoding: windows-1252
Language: es
Country: ES
--></g></svg>