<?xml version="1.0" encoding="UTF-8" standalone="no"?><svg xmlns="http://www.w3.org/2000/svg" xmlns:xlink="http://www.w3.org/1999/xlink" contentScriptType="application/ecmascript" contentStyleType="text/css" height="351px" preserveAspectRatio="none" style="width:973px;height:351px;" version="1.1" viewBox="0 0 973 351" width="973px" zoomAndPan="magnify"><defs><filter height="300%" id="f7wwjjejzuixv" width="300%" x="-1" y="-1"><feGaussianBlur result="blurOut" stdDeviation="2.0"/><feColorMatrix in="blurOut" result="blurOut2" type="matrix" values="0 0 0 0 0 0 0 0 0 0 0 0 0 0 0 0 0 0 .4 0"/><feOffset dx="4.0" dy="4.0" in="blurOut2" result="blurOut3"/><feBlend in="SourceGraphic" in2="blurOut3" mode="normal"/></filter></defs><g><!--cluster sistemas--><!--cluster sistemasComplejos--><!--class Sistema--><rect fill="#FFA500" filter="url(#f7wwjjejzuixv)" height="48" id="Sistema" style="stroke: #A80036; stroke-width: 1.5;" width="78" x="259" y="60"/><rect fill="#FFA500" height="32" style="stroke: #A80036; stroke-width: 1.5;" width="78" x="259" y="60"/><ellipse cx="274" cy="76" fill="#ADD1B2" rx="11" ry="11" style="stroke: #A80036; stroke-width: 1.0;"/><path d="M276.7656,71.875 Q276.9219,71.6563 277.1094,71.5469 Q277.2969,71.4375 277.5156,71.4375 Q277.8906,71.4375 278.125,71.6953 Q278.3594,71.9531 278.3594,72.5625 L278.3594,74.0156 Q278.3594,74.625 278.125,74.8906 Q277.8906,75.1563 277.5156,75.1563 Q277.1719,75.1563 276.9688,74.9531 Q276.7656,74.7656 276.6563,74.25 Q276.6094,73.8906 276.4219,73.7031 Q276.0938,73.3281 275.4844,73.1094 Q274.875,72.8906 274.25,72.8906 Q273.4844,72.8906 272.8516,73.2188 Q272.2188,73.5469 271.7266,74.2969 Q271.2344,75.0469 271.2344,76.0781 L271.2344,77.1719 Q271.2344,78.4063 272.125,79.2266 Q273.0156,80.0469 274.6094,80.0469 Q275.5469,80.0469 276.2031,79.7969 Q276.5938,79.6406 277.0156,79.2031 Q277.2813,78.9375 277.4297,78.8594 Q277.5781,78.7813 277.7813,78.7813 Q278.1094,78.7813 278.3672,79.0391 Q278.625,79.2969 278.625,79.6406 Q278.625,79.9844 278.2813,80.3906 Q277.7813,80.9688 276.9844,81.2969 Q275.9063,81.75 274.6094,81.75 Q273.0938,81.75 271.8906,81.125 Q270.9063,80.625 270.2188,79.5547 Q269.5313,78.4844 269.5313,77.2031 L269.5313,76.0469 Q269.5313,74.7188 270.1484,73.5703 Q270.7656,72.4219 271.8594,71.8047 Q272.9531,71.1875 274.1875,71.1875 Q274.9219,71.1875 275.5703,71.3516 Q276.2188,71.5156 276.7656,71.875 Z "/><text fill="#000000" font-family="sans-serif" font-size="12" lengthAdjust="spacingAndGlyphs" textLength="46" x="288" y="80.9102">Sistema</text><line style="stroke: #A80036; stroke-width: 1.5;" x1="260" x2="336" y1="92" y2="92"/><line style="stroke: #A80036; stroke-width: 1.5;" x1="260" x2="336" y1="100" y2="100"/><!--class SeparacionAsuntos--><rect fill="#FFFF00" filter="url(#f7wwjjejzuixv)" height="48" id="SeparacionAsuntos" style="stroke: #A80036; stroke-width: 1.5;" width="160" x="802" y="292"/><rect fill="#FFFF00" height="32" style="stroke: #A80036; stroke-width: 1.5;" width="160" x="802" y="292"/><ellipse cx="817" cy="308" fill="#ADD1B2" rx="11" ry="11" style="stroke: #A80036; stroke-width: 1.0;"/><path d="M819.7656,303.875 Q819.9219,303.6563 820.1094,303.5469 Q820.2969,303.4375 820.5156,303.4375 Q820.8906,303.4375 821.125,303.6953 Q821.3594,303.9531 821.3594,304.5625 L821.3594,306.0156 Q821.3594,306.625 821.125,306.8906 Q820.8906,307.1563 820.5156,307.1563 Q820.1719,307.1563 819.9688,306.9531 Q819.7656,306.7656 819.6563,306.25 Q819.6094,305.8906 819.4219,305.7031 Q819.0938,305.3281 818.4844,305.1094 Q817.875,304.8906 817.25,304.8906 Q816.4844,304.8906 815.8516,305.2188 Q815.2188,305.5469 814.7266,306.2969 Q814.2344,307.0469 814.2344,308.0781 L814.2344,309.1719 Q814.2344,310.4063 815.125,311.2266 Q816.0156,312.0469 817.6094,312.0469 Q818.5469,312.0469 819.2031,311.7969 Q819.5938,311.6406 820.0156,311.2031 Q820.2813,310.9375 820.4297,310.8594 Q820.5781,310.7813 820.7813,310.7813 Q821.1094,310.7813 821.3672,311.0391 Q821.625,311.2969 821.625,311.6406 Q821.625,311.9844 821.2813,312.3906 Q820.7813,312.9688 819.9844,313.2969 Q818.9063,313.75 817.6094,313.75 Q816.0938,313.75 814.8906,313.125 Q813.9063,312.625 813.2188,311.5547 Q812.5313,310.4844 812.5313,309.2031 L812.5313,308.0469 Q812.5313,306.7188 813.1484,305.5703 Q813.7656,304.4219 814.8594,303.8047 Q815.9531,303.1875 817.1875,303.1875 Q817.9219,303.1875 818.5703,303.3516 Q819.2188,303.5156 819.7656,303.875 Z "/><text fill="#000000" font-family="sans-serif" font-size="12" lengthAdjust="spacingAndGlyphs" textLength="128" x="831" y="312.9102">Separaci칩n de Asuntos</text><line style="stroke: #A80036; stroke-width: 1.5;" x1="803" x2="961" y1="324" y2="324"/><line style="stroke: #A80036; stroke-width: 1.5;" x1="803" x2="961" y1="332" y2="332"/><!--class ElementoPrimitivo--><rect fill="#FFFF00" filter="url(#f7wwjjejzuixv)" height="48" id="ElementoPrimitivo" style="stroke: #A80036; stroke-width: 1.5;" width="148" x="259" y="292"/><rect fill="#FFFF00" height="32" style="stroke: #A80036; stroke-width: 1.5;" width="148" x="259" y="292"/><ellipse cx="274" cy="308" fill="#ADD1B2" rx="11" ry="11" style="stroke: #A80036; stroke-width: 1.0;"/><path d="M276.7656,303.875 Q276.9219,303.6563 277.1094,303.5469 Q277.2969,303.4375 277.5156,303.4375 Q277.8906,303.4375 278.125,303.6953 Q278.3594,303.9531 278.3594,304.5625 L278.3594,306.0156 Q278.3594,306.625 278.125,306.8906 Q277.8906,307.1563 277.5156,307.1563 Q277.1719,307.1563 276.9688,306.9531 Q276.7656,306.7656 276.6563,306.25 Q276.6094,305.8906 276.4219,305.7031 Q276.0938,305.3281 275.4844,305.1094 Q274.875,304.8906 274.25,304.8906 Q273.4844,304.8906 272.8516,305.2188 Q272.2188,305.5469 271.7266,306.2969 Q271.2344,307.0469 271.2344,308.0781 L271.2344,309.1719 Q271.2344,310.4063 272.125,311.2266 Q273.0156,312.0469 274.6094,312.0469 Q275.5469,312.0469 276.2031,311.7969 Q276.5938,311.6406 277.0156,311.2031 Q277.2813,310.9375 277.4297,310.8594 Q277.5781,310.7813 277.7813,310.7813 Q278.1094,310.7813 278.3672,311.0391 Q278.625,311.2969 278.625,311.6406 Q278.625,311.9844 278.2813,312.3906 Q277.7813,312.9688 276.9844,313.2969 Q275.9063,313.75 274.6094,313.75 Q273.0938,313.75 271.8906,313.125 Q270.9063,312.625 270.2188,311.5547 Q269.5313,310.4844 269.5313,309.2031 L269.5313,308.0469 Q269.5313,306.7188 270.1484,305.5703 Q270.7656,304.4219 271.8594,303.8047 Q272.9531,303.1875 274.1875,303.1875 Q274.9219,303.1875 275.5703,303.3516 Q276.2188,303.5156 276.7656,303.875 Z "/><text fill="#000000" font-family="sans-serif" font-size="12" lengthAdjust="spacingAndGlyphs" textLength="116" x="288" y="312.9102">Elementos primitivos</text><line style="stroke: #A80036; stroke-width: 1.5;" x1="260" x2="406" y1="324" y2="324"/><line style="stroke: #A80036; stroke-width: 1.5;" x1="260" x2="406" y1="332" y2="332"/><!--class EstructuraJerarquica--><rect fill="#FFFF00" filter="url(#f7wwjjejzuixv)" height="48" id="EstructuraJerarquica" style="stroke: #A80036; stroke-width: 1.5;" width="149" x="442.5" y="292"/><rect fill="#FFFF00" height="32" style="stroke: #A80036; stroke-width: 1.5;" width="149" x="442.5" y="292"/><ellipse cx="457.5" cy="308" fill="#ADD1B2" rx="11" ry="11" style="stroke: #A80036; stroke-width: 1.0;"/><path d="M460.2656,303.875 Q460.4219,303.6563 460.6094,303.5469 Q460.7969,303.4375 461.0156,303.4375 Q461.3906,303.4375 461.625,303.6953 Q461.8594,303.9531 461.8594,304.5625 L461.8594,306.0156 Q461.8594,306.625 461.625,306.8906 Q461.3906,307.1563 461.0156,307.1563 Q460.6719,307.1563 460.4688,306.9531 Q460.2656,306.7656 460.1563,306.25 Q460.1094,305.8906 459.9219,305.7031 Q459.5938,305.3281 458.9844,305.1094 Q458.375,304.8906 457.75,304.8906 Q456.9844,304.8906 456.3516,305.2188 Q455.7188,305.5469 455.2266,306.2969 Q454.7344,307.0469 454.7344,308.0781 L454.7344,309.1719 Q454.7344,310.4063 455.625,311.2266 Q456.5156,312.0469 458.1094,312.0469 Q459.0469,312.0469 459.7031,311.7969 Q460.0938,311.6406 460.5156,311.2031 Q460.7813,310.9375 460.9297,310.8594 Q461.0781,310.7813 461.2813,310.7813 Q461.6094,310.7813 461.8672,311.0391 Q462.125,311.2969 462.125,311.6406 Q462.125,311.9844 461.7813,312.3906 Q461.2813,312.9688 460.4844,313.2969 Q459.4063,313.75 458.1094,313.75 Q456.5938,313.75 455.3906,313.125 Q454.4063,312.625 453.7188,311.5547 Q453.0313,310.4844 453.0313,309.2031 L453.0313,308.0469 Q453.0313,306.7188 453.6484,305.5703 Q454.2656,304.4219 455.3594,303.8047 Q456.4531,303.1875 457.6875,303.1875 Q458.4219,303.1875 459.0703,303.3516 Q459.7188,303.5156 460.2656,303.875 Z "/><text fill="#000000" font-family="sans-serif" font-size="12" lengthAdjust="spacingAndGlyphs" textLength="117" x="471.5" y="312.9102">Estructura Jer치rquica</text><line style="stroke: #A80036; stroke-width: 1.5;" x1="443.5" x2="590.5" y1="324" y2="324"/><line style="stroke: #A80036; stroke-width: 1.5;" x1="443.5" x2="590.5" y1="332" y2="332"/><!--class PatronesComunes--><rect fill="#FFFF00" filter="url(#f7wwjjejzuixv)" height="48" id="PatronesComunes" style="stroke: #A80036; stroke-width: 1.5;" width="140" x="627" y="292"/><rect fill="#FFFF00" height="32" style="stroke: #A80036; stroke-width: 1.5;" width="140" x="627" y="292"/><ellipse cx="642" cy="308" fill="#ADD1B2" rx="11" ry="11" style="stroke: #A80036; stroke-width: 1.0;"/><path d="M644.7656,303.875 Q644.9219,303.6563 645.1094,303.5469 Q645.2969,303.4375 645.5156,303.4375 Q645.8906,303.4375 646.125,303.6953 Q646.3594,303.9531 646.3594,304.5625 L646.3594,306.0156 Q646.3594,306.625 646.125,306.8906 Q645.8906,307.1563 645.5156,307.1563 Q645.1719,307.1563 644.9688,306.9531 Q644.7656,306.7656 644.6563,306.25 Q644.6094,305.8906 644.4219,305.7031 Q644.0938,305.3281 643.4844,305.1094 Q642.875,304.8906 642.25,304.8906 Q641.4844,304.8906 640.8516,305.2188 Q640.2188,305.5469 639.7266,306.2969 Q639.2344,307.0469 639.2344,308.0781 L639.2344,309.1719 Q639.2344,310.4063 640.125,311.2266 Q641.0156,312.0469 642.6094,312.0469 Q643.5469,312.0469 644.2031,311.7969 Q644.5938,311.6406 645.0156,311.2031 Q645.2813,310.9375 645.4297,310.8594 Q645.5781,310.7813 645.7813,310.7813 Q646.1094,310.7813 646.3672,311.0391 Q646.625,311.2969 646.625,311.6406 Q646.625,311.9844 646.2813,312.3906 Q645.7813,312.9688 644.9844,313.2969 Q643.9063,313.75 642.6094,313.75 Q641.0938,313.75 639.8906,313.125 Q638.9063,312.625 638.2188,311.5547 Q637.5313,310.4844 637.5313,309.2031 L637.5313,308.0469 Q637.5313,306.7188 638.1484,305.5703 Q638.7656,304.4219 639.8594,303.8047 Q640.9531,303.1875 642.1875,303.1875 Q642.9219,303.1875 643.5703,303.3516 Q644.2188,303.5156 644.7656,303.875 Z "/><text fill="#000000" font-family="sans-serif" font-size="12" lengthAdjust="spacingAndGlyphs" textLength="108" x="656" y="312.9102">Patrones Comunes</text><line style="stroke: #A80036; stroke-width: 1.5;" x1="628" x2="766" y1="324" y2="324"/><line style="stroke: #A80036; stroke-width: 1.5;" x1="628" x2="766" y1="332" y2="332"/><!--class SistemaIntermedioEstable--><rect fill="#FFFF00" filter="url(#f7wwjjejzuixv)" height="48" id="SistemaIntermedioEstable" style="stroke: #A80036; stroke-width: 1.5;" width="185" x="38.5" y="292"/><rect fill="#FFFF00" height="32" style="stroke: #A80036; stroke-width: 1.5;" width="185" x="38.5" y="292"/><ellipse cx="53.5" cy="308" fill="#ADD1B2" rx="11" ry="11" style="stroke: #A80036; stroke-width: 1.0;"/><path d="M56.2656,303.875 Q56.4219,303.6563 56.6094,303.5469 Q56.7969,303.4375 57.0156,303.4375 Q57.3906,303.4375 57.625,303.6953 Q57.8594,303.9531 57.8594,304.5625 L57.8594,306.0156 Q57.8594,306.625 57.625,306.8906 Q57.3906,307.1563 57.0156,307.1563 Q56.6719,307.1563 56.4688,306.9531 Q56.2656,306.7656 56.1563,306.25 Q56.1094,305.8906 55.9219,305.7031 Q55.5938,305.3281 54.9844,305.1094 Q54.375,304.8906 53.75,304.8906 Q52.9844,304.8906 52.3516,305.2188 Q51.7188,305.5469 51.2266,306.2969 Q50.7344,307.0469 50.7344,308.0781 L50.7344,309.1719 Q50.7344,310.4063 51.625,311.2266 Q52.5156,312.0469 54.1094,312.0469 Q55.0469,312.0469 55.7031,311.7969 Q56.0938,311.6406 56.5156,311.2031 Q56.7813,310.9375 56.9297,310.8594 Q57.0781,310.7813 57.2813,310.7813 Q57.6094,310.7813 57.8672,311.0391 Q58.125,311.2969 58.125,311.6406 Q58.125,311.9844 57.7813,312.3906 Q57.2813,312.9688 56.4844,313.2969 Q55.4063,313.75 54.1094,313.75 Q52.5938,313.75 51.3906,313.125 Q50.4063,312.625 49.7188,311.5547 Q49.0313,310.4844 49.0313,309.2031 L49.0313,308.0469 Q49.0313,306.7188 49.6484,305.5703 Q50.2656,304.4219 51.3594,303.8047 Q52.4531,303.1875 53.6875,303.1875 Q54.4219,303.1875 55.0703,303.3516 Q55.7188,303.5156 56.2656,303.875 Z "/><text fill="#000000" font-family="sans-serif" font-size="12" lengthAdjust="spacingAndGlyphs" textLength="153" x="67.5" y="312.9102">Sistema Intermedio Estable</text><line style="stroke: #A80036; stroke-width: 1.5;" x1="39.5" x2="222.5" y1="324" y2="324"/><line style="stroke: #A80036; stroke-width: 1.5;" x1="39.5" x2="222.5" y1="332" y2="332"/><!--class SistemaComplejo--><rect fill="#FFFF00" filter="url(#f7wwjjejzuixv)" height="48" id="SistemaComplejo" style="stroke: #A80036; stroke-width: 1.5;" width="135" x="357.5" y="184"/><rect fill="#FFFF00" height="32" style="stroke: #A80036; stroke-width: 1.5;" width="135" x="357.5" y="184"/><ellipse cx="372.5" cy="200" fill="#ADD1B2" rx="11" ry="11" style="stroke: #A80036; stroke-width: 1.0;"/><path d="M375.2656,195.875 Q375.4219,195.6563 375.6094,195.5469 Q375.7969,195.4375 376.0156,195.4375 Q376.3906,195.4375 376.625,195.6953 Q376.8594,195.9531 376.8594,196.5625 L376.8594,198.0156 Q376.8594,198.625 376.625,198.8906 Q376.3906,199.1563 376.0156,199.1563 Q375.6719,199.1563 375.4688,198.9531 Q375.2656,198.7656 375.1563,198.25 Q375.1094,197.8906 374.9219,197.7031 Q374.5938,197.3281 373.9844,197.1094 Q373.375,196.8906 372.75,196.8906 Q371.9844,196.8906 371.3516,197.2188 Q370.7188,197.5469 370.2266,198.2969 Q369.7344,199.0469 369.7344,200.0781 L369.7344,201.1719 Q369.7344,202.4063 370.625,203.2266 Q371.5156,204.0469 373.1094,204.0469 Q374.0469,204.0469 374.7031,203.7969 Q375.0938,203.6406 375.5156,203.2031 Q375.7813,202.9375 375.9297,202.8594 Q376.0781,202.7813 376.2813,202.7813 Q376.6094,202.7813 376.8672,203.0391 Q377.125,203.2969 377.125,203.6406 Q377.125,203.9844 376.7813,204.3906 Q376.2813,204.9688 375.4844,205.2969 Q374.4063,205.75 373.1094,205.75 Q371.5938,205.75 370.3906,205.125 Q369.4063,204.625 368.7188,203.5547 Q368.0313,202.4844 368.0313,201.2031 L368.0313,200.0469 Q368.0313,198.7188 368.6484,197.5703 Q369.2656,196.4219 370.3594,195.8047 Q371.4531,195.1875 372.6875,195.1875 Q373.4219,195.1875 374.0703,195.3516 Q374.7188,195.5156 375.2656,195.875 Z "/><text fill="#000000" font-family="sans-serif" font-size="12" lengthAdjust="spacingAndGlyphs" textLength="103" x="386.5" y="204.9102">Sistema Complejo</text><line style="stroke: #A80036; stroke-width: 1.5;" x1="358.5" x2="491.5" y1="216" y2="216"/><line style="stroke: #A80036; stroke-width: 1.5;" x1="358.5" x2="491.5" y1="224" y2="224"/><!--link Sistema to SistemaIntermedioEstable--><path d="M269.3,124.527 C234.262,172.784 176.169,252.792 147.728,291.9609 " fill="none" id="Sistema-SistemaIntermedioEstable" style="stroke: #A80036; stroke-width: 1.0;"/><polygon fill="none" points="263.653,120.39,281.068,108.319,274.982,128.616,263.653,120.39" style="stroke: #A80036; stroke-width: 1.0;"/><!--link Sistema to SistemaComplejo--><path d="M336.823,122.295 C357.716,142.365 382.831,166.491 400.903,183.852 " fill="none" id="Sistema-SistemaComplejo" style="stroke: #A80036; stroke-width: 1.0;"/><polygon fill="none" points="331.761,127.138,322.187,108.234,341.459,117.042,331.761,127.138" style="stroke: #A80036; stroke-width: 1.0;"/><!--link SistemaComplejo to SeparacionAsuntos--><path d="M505.435,227.394 C578.414,244.119 688.965,269.544 785,292 C786.369,292.3202 787.749,292.6432 789.138,292.9686 " fill="none" id="SistemaComplejo-SeparacionAsuntos" style="stroke: #A80036; stroke-width: 1.0;"/><polygon fill="#A80036" points="801.817,295.9465,793.9702,289.9944,796.9495,294.8031,792.1408,297.7824,801.817,295.9465" style="stroke: #A80036; stroke-width: 1.0;"/><line style="stroke: #A80036; stroke-width: 1.0;" x1="796.9495" x2="789.1615" y1="294.8031" y2="292.974"/><polygon fill="#A80036" points="492.707,224.478,497.6623,229.7168,504.404,227.1576,499.4487,221.9188,492.707,224.478" style="stroke: #A80036; stroke-width: 1.0;"/><!--link SistemaComplejo to ElementoPrimitivo--><path d="M396.285,242.084 C385.376,254.654 372.948,268.973 362.012,281.5736 " fill="none" id="SistemaComplejo-ElementoPrimitivo" style="stroke: #A80036; stroke-width: 1.0;"/><polygon fill="#A80036" points="353.241,291.6784,362.161,287.5031,356.5183,287.9022,356.1191,282.2595,353.241,291.6784" style="stroke: #A80036; stroke-width: 1.0;"/><line style="stroke: #A80036; stroke-width: 1.0;" x1="356.5183" x2="361.7625" y1="287.9022" y2="281.8606"/><polygon fill="#A80036" points="405.037,232,398.0832,233.9091,397.1709,241.0622,404.1247,239.1532,405.037,232" style="stroke: #A80036; stroke-width: 1.0;"/><!--link SistemaComplejo to EstructuraJerarquica--><path d="M453.715,242.084 C464.624,254.654 477.052,268.973 487.988,281.5736 " fill="none" id="SistemaComplejo-EstructuraJerarquica" style="stroke: #A80036; stroke-width: 1.0;"/><polygon fill="#A80036" points="496.759,291.6784,493.8809,282.2595,493.4817,287.9022,487.839,287.5031,496.759,291.6784" style="stroke: #A80036; stroke-width: 1.0;"/><line style="stroke: #A80036; stroke-width: 1.0;" x1="493.4817" x2="488.2375" y1="287.9022" y2="281.8606"/><polygon fill="#A80036" points="444.963,232,445.8753,239.1532,452.8291,241.0622,451.9168,233.9091,444.963,232" style="stroke: #A80036; stroke-width: 1.0;"/><!--link SistemaComplejo to PatronesComunes--><path d="M496.382,236.818 C536.148,252.315 585.517,271.554 625.33,287.0697 " fill="none" id="SistemaComplejo-PatronesComunes" style="stroke: #A80036; stroke-width: 1.0;"/><polygon fill="#A80036" points="637.626,291.8617,630.6932,284.8662,632.9674,290.0458,627.7878,292.32,637.626,291.8617" style="stroke: #A80036; stroke-width: 1.0;"/><line style="stroke: #A80036; stroke-width: 1.0;" x1="632.9674" x2="625.5135" y1="290.0458" y2="287.1413"/><polygon fill="#A80036" points="484.02,232,488.1582,237.9055,495.2011,236.3569,491.0629,230.4514,484.02,232" style="stroke: #A80036; stroke-width: 1.0;"/><!--link SistemaComplejo to SistemaIntermedioEstable--><path d="M348.737,236.496 C305.177,252.201 250.736,271.83 207.188,287.5308 " fill="none" id="SistemaComplejo-SistemaIntermedioEstable" style="stroke: #A80036; stroke-width: 1.0;"/><polygon fill="#A80036" points="194.922,291.9531,204.7452,292.6639,199.6257,290.2575,202.0322,285.138,194.922,291.9531" style="stroke: #A80036; stroke-width: 1.0;"/><line style="stroke: #A80036; stroke-width: 1.0;" x1="199.6257" x2="207.152" y1="290.2575" y2="287.5438"/><polygon fill="#A80036" points="361.206,232,354.2051,230.2717,349.917,236.0693,356.918,237.7977,361.206,232" style="stroke: #A80036; stroke-width: 1.0;"/><!--
@startuml

together sistemas {

class Sistema #orange

}

together sistemasComplejos {

class "Separaci칩n de Asuntos" as SeparacionAsuntos #yellow

class "Elementos primitivos" as ElementoPrimitivo #yellow

class "Estructura Jer치rquica" as EstructuraJerarquica #yellow

class "Patrones Comunes" as PatronesComunes #yellow

class "Sistema Intermedio Estable" as SistemaIntermedioEstable #yellow

class "Sistema Complejo" as SistemaComplejo #yellow

}

Sistema <|-down- SistemaIntermedioEstable

Sistema <|-down- SistemaComplejo
SistemaComplejo *-down-> SeparacionAsuntos
SistemaComplejo *-down-> ElementoPrimitivo
SistemaComplejo *-down-> EstructuraJerarquica
SistemaComplejo *-down-> PatronesComunes
SistemaComplejo *-down-> SistemaIntermedioEstable

@enduml

PlantUML version 1.2019.05(Sat Apr 20 18:45:36 CEST 2019)
(GPL source distribution)
Java Runtime: Java(TM) SE Runtime Environment
JVM: Java HotSpot(TM) 64-Bit Server VM
Java Version: 1.8.0_211-b12
Operating System: Windows 10
OS Version: 10.0
Default Encoding: windows-1252
Language: es
Country: ES
--></g></svg>