<?xml version="1.0" encoding="UTF-8" standalone="no"?><svg xmlns="http://www.w3.org/2000/svg" xmlns:xlink="http://www.w3.org/1999/xlink" contentScriptType="application/ecmascript" contentStyleType="text/css" height="1488px" preserveAspectRatio="none" style="width:364px;height:1488px;" version="1.1" viewBox="0 0 364 1488" width="364px" zoomAndPan="magnify"><defs><filter height="300%" id="f1mypz4mdq790k" width="300%" x="-1" y="-1"><feGaussianBlur result="blurOut" stdDeviation="2.0"/><feColorMatrix in="blurOut" result="blurOut2" type="matrix" values="0 0 0 0 0 0 0 0 0 0 0 0 0 0 0 0 0 0 .4 0"/><feOffset dx="4.0" dy="4.0" in="blurOut2" result="blurOut3"/><feBlend in="SourceGraphic" in2="blurOut3" mode="normal"/></filter></defs><g><!--cluster sistemas--><rect fill="#FEFECE" filter="url(#f1mypz4mdq790k)" height="35.0938" style="stroke: #A80036; stroke-width: 1.5;" width="118" x="48" y="1442"/><text fill="#000000" font-family="sans-serif" font-size="12" lengthAdjust="spacingAndGlyphs" textLength="104" x="55" y="1456.457">TuParticulaElemtal</text><line style="stroke: #A80036; stroke-width: 1.5;" x1="49" x2="165" y1="1461.0938" y2="1461.0938"/><rect fill="#FEFECE" filter="url(#f1mypz4mdq790k)" height="35.0938" style="stroke: #A80036; stroke-width: 1.5;" width="63" x="75.5" y="1347"/><text fill="#000000" font-family="sans-serif" font-size="12" lengthAdjust="spacingAndGlyphs" textLength="49" x="82.5" y="1361.457">TuAtomo</text><line style="stroke: #A80036; stroke-width: 1.5;" x1="76.5" x2="137.5" y1="1366.0938" y2="1366.0938"/><rect fill="#FEFECE" filter="url(#f1mypz4mdq790k)" height="35.0938" style="stroke: #A80036; stroke-width: 1.5;" width="77" x="68.5" y="1252"/><text fill="#000000" font-family="sans-serif" font-size="12" lengthAdjust="spacingAndGlyphs" textLength="63" x="75.5" y="1266.457">TuMolecula</text><line style="stroke: #A80036; stroke-width: 1.5;" x1="69.5" x2="144.5" y1="1271.0938" y2="1271.0938"/><rect fill="#FEFECE" filter="url(#f1mypz4mdq790k)" height="35.0938" style="stroke: #A80036; stroke-width: 1.5;" width="79" x="67.5" y="1157"/><text fill="#000000" font-family="sans-serif" font-size="12" lengthAdjust="spacingAndGlyphs" textLength="65" x="74.5" y="1171.457">TuOrganulo</text><line style="stroke: #A80036; stroke-width: 1.5;" x1="68.5" x2="145.5" y1="1176.0938" y2="1176.0938"/><rect fill="#FEFECE" filter="url(#f1mypz4mdq790k)" height="35.0938" style="stroke: #A80036; stroke-width: 1.5;" width="64" x="75" y="1062"/><text fill="#000000" font-family="sans-serif" font-size="12" lengthAdjust="spacingAndGlyphs" textLength="50" x="82" y="1076.457">TuCelula</text><line style="stroke: #A80036; stroke-width: 1.5;" x1="76" x2="138" y1="1081.0938" y2="1081.0938"/><rect fill="#FEFECE" filter="url(#f1mypz4mdq790k)" height="35.0938" style="stroke: #A80036; stroke-width: 1.5;" width="74" x="70" y="967"/><text fill="#000000" font-family="sans-serif" font-size="12" lengthAdjust="spacingAndGlyphs" textLength="60" x="77" y="981.457">TuMusculo</text><line style="stroke: #A80036; stroke-width: 1.5;" x1="71" x2="143" y1="986.0938" y2="986.0938"/><rect fill="#FEFECE" filter="url(#f1mypz4mdq790k)" height="35.0938" style="stroke: #A80036; stroke-width: 1.5;" width="74" x="70" y="872"/><text fill="#000000" font-family="sans-serif" font-size="12" lengthAdjust="spacingAndGlyphs" textLength="60" x="77" y="886.457">TuCorazon</text><line style="stroke: #A80036; stroke-width: 1.5;" x1="71" x2="143" y1="891.0938" y2="891.0938"/><rect fill="#FEFECE" filter="url(#f1mypz4mdq790k)" height="35.0938" style="stroke: #A80036; stroke-width: 1.5;" width="137" x="38.5" y="777"/><text fill="#000000" font-family="sans-serif" font-size="12" lengthAdjust="spacingAndGlyphs" textLength="123" x="45.5" y="791.457">TuSistemaCirculatorio</text><line style="stroke: #A80036; stroke-width: 1.5;" x1="39.5" x2="174.5" y1="796.0938" y2="796.0938"/><rect fill="#FEFECE" filter="url(#f1mypz4mdq790k)" height="35.0938" style="stroke: #A80036; stroke-width: 1.5;" width="28" x="64" y="675.5"/><text fill="#000000" font-family="sans-serif" font-size="12" lengthAdjust="spacingAndGlyphs" textLength="14" x="71" y="689.957">Tu</text><line style="stroke: #A80036; stroke-width: 1.5;" x1="65" x2="91" y1="694.5938" y2="694.5938"/><rect fill="#FEFECE" filter="url(#f1mypz4mdq790k)" height="35.0938" style="stroke: #A80036; stroke-width: 1.5;" width="74" x="38" y="567.5"/><text fill="#000000" font-family="sans-serif" font-size="12" lengthAdjust="spacingAndGlyphs" textLength="60" x="45" y="581.957">LaBiosfera</text><line style="stroke: #A80036; stroke-width: 1.5;" x1="39" x2="111" y1="586.5938" y2="586.5938"/><rect fill="#FEFECE" filter="url(#f1mypz4mdq790k)" height="35.0938" style="stroke: #A80036; stroke-width: 1.5;" width="72" x="147" y="567.5"/><text fill="#000000" font-family="sans-serif" font-size="12" lengthAdjust="spacingAndGlyphs" textLength="58" x="154" y="581.957">Hidrosfera</text><line style="stroke: #A80036; stroke-width: 1.5;" x1="148" x2="218" y1="586.5938" y2="586.5938"/><!--class PartePlaneta--><rect fill="#FEFECE" filter="url(#f1mypz4mdq790k)" height="48" id="PartePlaneta" style="stroke: #A80036; stroke-width: 1.5;" width="103" x="131.5" y="669"/><ellipse cx="146.5" cy="685" fill="#ADD1B2" rx="11" ry="11" style="stroke: #A80036; stroke-width: 1.0;"/><path d="M149.2656,680.875 Q149.4219,680.6563 149.6094,680.5469 Q149.7969,680.4375 150.0156,680.4375 Q150.3906,680.4375 150.625,680.6953 Q150.8594,680.9531 150.8594,681.5625 L150.8594,683.0156 Q150.8594,683.625 150.625,683.8906 Q150.3906,684.1563 150.0156,684.1563 Q149.6719,684.1563 149.4688,683.9531 Q149.2656,683.7656 149.1563,683.25 Q149.1094,682.8906 148.9219,682.7031 Q148.5938,682.3281 147.9844,682.1094 Q147.375,681.8906 146.75,681.8906 Q145.9844,681.8906 145.3516,682.2188 Q144.7188,682.5469 144.2266,683.2969 Q143.7344,684.0469 143.7344,685.0781 L143.7344,686.1719 Q143.7344,687.4063 144.625,688.2266 Q145.5156,689.0469 147.1094,689.0469 Q148.0469,689.0469 148.7031,688.7969 Q149.0938,688.6406 149.5156,688.2031 Q149.7813,687.9375 149.9297,687.8594 Q150.0781,687.7813 150.2813,687.7813 Q150.6094,687.7813 150.8672,688.0391 Q151.125,688.2969 151.125,688.6406 Q151.125,688.9844 150.7813,689.3906 Q150.2813,689.9688 149.4844,690.2969 Q148.4063,690.75 147.1094,690.75 Q145.5938,690.75 144.3906,690.125 Q143.4063,689.625 142.7188,688.5547 Q142.0313,687.4844 142.0313,686.2031 L142.0313,685.0469 Q142.0313,683.7188 142.6484,682.5703 Q143.2656,681.4219 144.3594,680.8047 Q145.4531,680.1875 146.6875,680.1875 Q147.4219,680.1875 148.0703,680.3516 Q148.7188,680.5156 149.2656,680.875 Z "/><text fill="#000000" font-family="sans-serif" font-size="12" lengthAdjust="spacingAndGlyphs" textLength="71" x="160.5" y="689.9102">PartePlaneta</text><line style="stroke: #A80036; stroke-width: 1.5;" x1="132.5" x2="233.5" y1="701" y2="701"/><line style="stroke: #A80036; stroke-width: 1.5;" x1="132.5" x2="233.5" y1="709" y2="709"/><rect fill="#FEFECE" filter="url(#f1mypz4mdq790k)" height="35.0938" style="stroke: #A80036; stroke-width: 1.5;" width="60" x="57" y="459.5"/><text fill="#000000" font-family="sans-serif" font-size="12" lengthAdjust="spacingAndGlyphs" textLength="46" x="64" y="473.957">LaTierra</text><line style="stroke: #A80036; stroke-width: 1.5;" x1="58" x2="116" y1="478.5938" y2="478.5938"/><rect fill="#FEFECE" filter="url(#f1mypz4mdq790k)" height="35.0938" style="stroke: #A80036; stroke-width: 1.5;" width="51" x="152.5" y="459.5"/><text fill="#000000" font-family="sans-serif" font-size="12" lengthAdjust="spacingAndGlyphs" textLength="37" x="159.5" y="473.957">Jupiter</text><line style="stroke: #A80036; stroke-width: 1.5;" x1="153.5" x2="202.5" y1="478.5938" y2="478.5938"/><!--class Planeta--><rect fill="#FEFECE" filter="url(#f1mypz4mdq790k)" height="48" id="Planeta" style="stroke: #A80036; stroke-width: 1.5;" width="74" x="254" y="561"/><ellipse cx="269" cy="577" fill="#ADD1B2" rx="11" ry="11" style="stroke: #A80036; stroke-width: 1.0;"/><path d="M271.7656,572.875 Q271.9219,572.6563 272.1094,572.5469 Q272.2969,572.4375 272.5156,572.4375 Q272.8906,572.4375 273.125,572.6953 Q273.3594,572.9531 273.3594,573.5625 L273.3594,575.0156 Q273.3594,575.625 273.125,575.8906 Q272.8906,576.1563 272.5156,576.1563 Q272.1719,576.1563 271.9688,575.9531 Q271.7656,575.7656 271.6563,575.25 Q271.6094,574.8906 271.4219,574.7031 Q271.0938,574.3281 270.4844,574.1094 Q269.875,573.8906 269.25,573.8906 Q268.4844,573.8906 267.8516,574.2188 Q267.2188,574.5469 266.7266,575.2969 Q266.2344,576.0469 266.2344,577.0781 L266.2344,578.1719 Q266.2344,579.4063 267.125,580.2266 Q268.0156,581.0469 269.6094,581.0469 Q270.5469,581.0469 271.2031,580.7969 Q271.5938,580.6406 272.0156,580.2031 Q272.2813,579.9375 272.4297,579.8594 Q272.5781,579.7813 272.7813,579.7813 Q273.1094,579.7813 273.3672,580.0391 Q273.625,580.2969 273.625,580.6406 Q273.625,580.9844 273.2813,581.3906 Q272.7813,581.9688 271.9844,582.2969 Q270.9063,582.75 269.6094,582.75 Q268.0938,582.75 266.8906,582.125 Q265.9063,581.625 265.2188,580.5547 Q264.5313,579.4844 264.5313,578.2031 L264.5313,577.0469 Q264.5313,575.7188 265.1484,574.5703 Q265.7656,573.4219 266.8594,572.8047 Q267.9531,572.1875 269.1875,572.1875 Q269.9219,572.1875 270.5703,572.3516 Q271.2188,572.5156 271.7656,572.875 Z "/><text fill="#000000" font-family="sans-serif" font-size="12" lengthAdjust="spacingAndGlyphs" textLength="42" x="283" y="581.9102">Planeta</text><line style="stroke: #A80036; stroke-width: 1.5;" x1="255" x2="327" y1="593" y2="593"/><line style="stroke: #A80036; stroke-width: 1.5;" x1="255" x2="327" y1="601" y2="601"/><rect fill="#FEFECE" filter="url(#f1mypz4mdq790k)" height="35.0938" style="stroke: #A80036; stroke-width: 1.5;" width="100" x="38" y="351.5"/><text fill="#000000" font-family="sans-serif" font-size="12" lengthAdjust="spacingAndGlyphs" textLength="86" x="45" y="365.957">ElSistemaSolar</text><line style="stroke: #A80036; stroke-width: 1.5;" x1="39" x2="137" y1="370.5938" y2="370.5938"/><rect fill="#FEFECE" filter="url(#f1mypz4mdq790k)" height="35.0938" style="stroke: #A80036; stroke-width: 1.5;" width="71" x="173.5" y="351.5"/><text fill="#000000" font-family="sans-serif" font-size="12" lengthAdjust="spacingAndGlyphs" textLength="57" x="180.5" y="365.957">Kepler444</text><line style="stroke: #A80036; stroke-width: 1.5;" x1="174.5" x2="243.5" y1="370.5938" y2="370.5938"/><!--class SistemaSolar--><rect fill="#FEFECE" filter="url(#f1mypz4mdq790k)" height="48" id="SistemaSolar" style="stroke: #A80036; stroke-width: 1.5;" width="107" x="238.5" y="453"/><ellipse cx="253.5" cy="469" fill="#ADD1B2" rx="11" ry="11" style="stroke: #A80036; stroke-width: 1.0;"/><path d="M256.2656,464.875 Q256.4219,464.6563 256.6094,464.5469 Q256.7969,464.4375 257.0156,464.4375 Q257.3906,464.4375 257.625,464.6953 Q257.8594,464.9531 257.8594,465.5625 L257.8594,467.0156 Q257.8594,467.625 257.625,467.8906 Q257.3906,468.1563 257.0156,468.1563 Q256.6719,468.1563 256.4688,467.9531 Q256.2656,467.7656 256.1563,467.25 Q256.1094,466.8906 255.9219,466.7031 Q255.5938,466.3281 254.9844,466.1094 Q254.375,465.8906 253.75,465.8906 Q252.9844,465.8906 252.3516,466.2188 Q251.7188,466.5469 251.2266,467.2969 Q250.7344,468.0469 250.7344,469.0781 L250.7344,470.1719 Q250.7344,471.4063 251.625,472.2266 Q252.5156,473.0469 254.1094,473.0469 Q255.0469,473.0469 255.7031,472.7969 Q256.0938,472.6406 256.5156,472.2031 Q256.7813,471.9375 256.9297,471.8594 Q257.0781,471.7813 257.2813,471.7813 Q257.6094,471.7813 257.8672,472.0391 Q258.125,472.2969 258.125,472.6406 Q258.125,472.9844 257.7813,473.3906 Q257.2813,473.9688 256.4844,474.2969 Q255.4063,474.75 254.1094,474.75 Q252.5938,474.75 251.3906,474.125 Q250.4063,473.625 249.7188,472.5547 Q249.0313,471.4844 249.0313,470.2031 L249.0313,469.0469 Q249.0313,467.7188 249.6484,466.5703 Q250.2656,465.4219 251.3594,464.8047 Q252.4531,464.1875 253.6875,464.1875 Q254.4219,464.1875 255.0703,464.3516 Q255.7188,464.5156 256.2656,464.875 Z "/><text fill="#000000" font-family="sans-serif" font-size="12" lengthAdjust="spacingAndGlyphs" textLength="75" x="267.5" y="473.9102">SistemaSolar</text><line style="stroke: #A80036; stroke-width: 1.5;" x1="239.5" x2="344.5" y1="485" y2="485"/><line style="stroke: #A80036; stroke-width: 1.5;" x1="239.5" x2="344.5" y1="493" y2="493"/><rect fill="#FEFECE" filter="url(#f1mypz4mdq790k)" height="35.0938" style="stroke: #A80036; stroke-width: 1.5;" width="82" x="158" y="250"/><text fill="#000000" font-family="sans-serif" font-size="12" lengthAdjust="spacingAndGlyphs" textLength="68" x="165" y="264.457">LaViaLactea</text><line style="stroke: #A80036; stroke-width: 1.5;" x1="159" x2="239" y1="269.0938" y2="269.0938"/><rect fill="#FEFECE" filter="url(#f1mypz4mdq790k)" height="35.0938" style="stroke: #A80036; stroke-width: 1.5;" width="78" x="275" y="250"/><text fill="#000000" font-family="sans-serif" font-size="12" lengthAdjust="spacingAndGlyphs" textLength="64" x="282" y="264.457">Andromeda</text><line style="stroke: #A80036; stroke-width: 1.5;" x1="276" x2="352" y1="269.0938" y2="269.0938"/><!--class Galaxia--><rect fill="#FEFECE" filter="url(#f1mypz4mdq790k)" height="48" id="Galaxia" style="stroke: #A80036; stroke-width: 1.5;" width="73" x="279.5" y="345"/><ellipse cx="294.5" cy="361" fill="#ADD1B2" rx="11" ry="11" style="stroke: #A80036; stroke-width: 1.0;"/><path d="M297.2656,356.875 Q297.4219,356.6563 297.6094,356.5469 Q297.7969,356.4375 298.0156,356.4375 Q298.3906,356.4375 298.625,356.6953 Q298.8594,356.9531 298.8594,357.5625 L298.8594,359.0156 Q298.8594,359.625 298.625,359.8906 Q298.3906,360.1563 298.0156,360.1563 Q297.6719,360.1563 297.4688,359.9531 Q297.2656,359.7656 297.1563,359.25 Q297.1094,358.8906 296.9219,358.7031 Q296.5938,358.3281 295.9844,358.1094 Q295.375,357.8906 294.75,357.8906 Q293.9844,357.8906 293.3516,358.2188 Q292.7188,358.5469 292.2266,359.2969 Q291.7344,360.0469 291.7344,361.0781 L291.7344,362.1719 Q291.7344,363.4063 292.625,364.2266 Q293.5156,365.0469 295.1094,365.0469 Q296.0469,365.0469 296.7031,364.7969 Q297.0938,364.6406 297.5156,364.2031 Q297.7813,363.9375 297.9297,363.8594 Q298.0781,363.7813 298.2813,363.7813 Q298.6094,363.7813 298.8672,364.0391 Q299.125,364.2969 299.125,364.6406 Q299.125,364.9844 298.7813,365.3906 Q298.2813,365.9688 297.4844,366.2969 Q296.4063,366.75 295.1094,366.75 Q293.5938,366.75 292.3906,366.125 Q291.4063,365.625 290.7188,364.5547 Q290.0313,363.4844 290.0313,362.2031 L290.0313,361.0469 Q290.0313,359.7188 290.6484,358.5703 Q291.2656,357.4219 292.3594,356.8047 Q293.4531,356.1875 294.6875,356.1875 Q295.4219,356.1875 296.0703,356.3516 Q296.7188,356.5156 297.2656,356.875 Z "/><text fill="#000000" font-family="sans-serif" font-size="12" lengthAdjust="spacingAndGlyphs" textLength="41" x="308.5" y="365.9102">Galaxia</text><line style="stroke: #A80036; stroke-width: 1.5;" x1="280.5" x2="351.5" y1="377" y2="377"/><line style="stroke: #A80036; stroke-width: 1.5;" x1="280.5" x2="351.5" y1="385" y2="385"/><rect fill="#FEFECE" filter="url(#f1mypz4mdq790k)" height="35.0938" style="stroke: #A80036; stroke-width: 1.5;" width="89" x="208.5" y="155"/><text fill="#000000" font-family="sans-serif" font-size="12" lengthAdjust="spacingAndGlyphs" textLength="75" x="215.5" y="169.457">ElGrupoLocal</text><line style="stroke: #A80036; stroke-width: 1.5;" x1="209.5" x2="296.5" y1="174.0938" y2="174.0938"/><rect fill="#FEFECE" filter="url(#f1mypz4mdq790k)" height="35.0938" style="stroke: #A80036; stroke-width: 1.5;" width="74" x="216" y="60"/><text fill="#000000" font-family="sans-serif" font-size="12" lengthAdjust="spacingAndGlyphs" textLength="60" x="223" y="74.457">ElUniverso</text><line style="stroke: #A80036; stroke-width: 1.5;" x1="217" x2="289" y1="79.0938" y2="79.0938"/><!--link TuAtomo to TuParticulaElemtal--><path d="M107,1395.214 C107,1405.9 107,1417.9523 107,1428.6499 " fill="none" id="TuAtomo-TuParticulaElemtal" style="stroke: #A80036; stroke-width: 1.0;"/><polygon fill="#A80036" points="107,1441.7038,111,1432.7038,107,1436.7038,103,1432.7038,107,1441.7038" style="stroke: #A80036; stroke-width: 1.0;"/><line style="stroke: #A80036; stroke-width: 1.0;" x1="107" x2="107.0001" y1="1436.7038" y2="1428.7038"/><polygon fill="#A80036" points="107,1382.127,103,1388.127,107,1394.127,111,1388.127,107,1382.127" style="stroke: #A80036; stroke-width: 1.0;"/><!--link TuMolecula to TuAtomo--><path d="M107,1300.214 C107,1310.9 107,1322.952 107,1333.65 " fill="none" id="TuMolecula-TuAtomo" style="stroke: #A80036; stroke-width: 1.0;"/><polygon fill="#A80036" points="107,1346.704,111,1337.704,107,1341.704,103,1337.704,107,1346.704" style="stroke: #A80036; stroke-width: 1.0;"/><line style="stroke: #A80036; stroke-width: 1.0;" x1="107" x2="107.0001" y1="1341.704" y2="1333.704"/><polygon fill="#A80036" points="107,1287.127,103,1293.127,107,1299.127,111,1293.127,107,1287.127" style="stroke: #A80036; stroke-width: 1.0;"/><!--link TuOrganulo to TuMolecula--><path d="M107,1205.214 C107,1215.9 107,1227.952 107,1238.65 " fill="none" id="TuOrganulo-TuMolecula" style="stroke: #A80036; stroke-width: 1.0;"/><polygon fill="#A80036" points="107,1251.704,111,1242.704,107,1246.704,103,1242.704,107,1251.704" style="stroke: #A80036; stroke-width: 1.0;"/><line style="stroke: #A80036; stroke-width: 1.0;" x1="107" x2="107.0001" y1="1246.704" y2="1238.704"/><polygon fill="#A80036" points="107,1192.127,103,1198.127,107,1204.127,111,1198.127,107,1192.127" style="stroke: #A80036; stroke-width: 1.0;"/><!--link TuCelula to TuOrganulo--><path d="M107,1110.214 C107,1120.9 107,1132.952 107,1143.65 " fill="none" id="TuCelula-TuOrganulo" style="stroke: #A80036; stroke-width: 1.0;"/><polygon fill="#A80036" points="107,1156.704,111,1147.704,107,1151.704,103,1147.704,107,1156.704" style="stroke: #A80036; stroke-width: 1.0;"/><line style="stroke: #A80036; stroke-width: 1.0;" x1="107" x2="107.0001" y1="1151.704" y2="1143.704"/><polygon fill="#A80036" points="107,1097.127,103,1103.127,107,1109.127,111,1103.127,107,1097.127" style="stroke: #A80036; stroke-width: 1.0;"/><!--link TuMusculo to TuCelula--><path d="M107,1015.214 C107,1025.9 107,1037.952 107,1048.65 " fill="none" id="TuMusculo-TuCelula" style="stroke: #A80036; stroke-width: 1.0;"/><polygon fill="#A80036" points="107,1061.704,111,1052.704,107,1056.704,103,1052.704,107,1061.704" style="stroke: #A80036; stroke-width: 1.0;"/><line style="stroke: #A80036; stroke-width: 1.0;" x1="107" x2="107.0001" y1="1056.704" y2="1048.704"/><polygon fill="#A80036" points="107,1002.127,103,1008.127,107,1014.127,111,1008.127,107,1002.127" style="stroke: #A80036; stroke-width: 1.0;"/><!--link TuCorazon to TuMusculo--><path d="M107,920.214 C107,930.9 107,942.952 107,953.65 " fill="none" id="TuCorazon-TuMusculo" style="stroke: #A80036; stroke-width: 1.0;"/><polygon fill="#A80036" points="107,966.704,111,957.704,107,961.704,103,957.704,107,966.704" style="stroke: #A80036; stroke-width: 1.0;"/><line style="stroke: #A80036; stroke-width: 1.0;" x1="107" x2="107.0001" y1="961.704" y2="953.704"/><polygon fill="#A80036" points="107,907.127,103,913.127,107,919.127,111,913.127,107,907.127" style="stroke: #A80036; stroke-width: 1.0;"/><!--link TuSistemaCirculatorio to TuCorazon--><path d="M107,825.214 C107,835.9 107,847.952 107,858.65 " fill="none" id="TuSistemaCirculatorio-TuCorazon" style="stroke: #A80036; stroke-width: 1.0;"/><polygon fill="#A80036" points="107,871.704,111,862.704,107,866.704,103,862.704,107,871.704" style="stroke: #A80036; stroke-width: 1.0;"/><line style="stroke: #A80036; stroke-width: 1.0;" x1="107" x2="107.0001" y1="866.704" y2="858.704"/><polygon fill="#A80036" points="107,812.127,103,818.127,107,824.127,111,818.127,107,812.127" style="stroke: #A80036; stroke-width: 1.0;"/><!--link Tu to TuSistemaCirculatorio--><path d="M86.6025,723.515 C90.3316,736.31 94.6881,751.258 98.4153,764.046 " fill="none" id="Tu-TuSistemaCirculatorio" style="stroke: #A80036; stroke-width: 1.0;"/><polygon fill="#A80036" points="102.1532,776.87,103.4754,767.1103,100.7543,772.0697,95.7949,769.3486,102.1532,776.87" style="stroke: #A80036; stroke-width: 1.0;"/><line style="stroke: #A80036; stroke-width: 1.0;" x1="100.7543" x2="98.5155" y1="772.0697" y2="764.39"/><polygon fill="#A80036" points="82.9195,710.879,80.7587,717.7587,86.2781,722.3994,88.4389,715.5197,82.9195,710.879" style="stroke: #A80036; stroke-width: 1.0;"/><!--link LaBiosfera to Tu--><path d="M75.8421,615.753 C76.2499,630.164 76.7388,647.436 77.1479,661.894 " fill="none" id="LaBiosfera-Tu" style="stroke: #A80036; stroke-width: 1.0;"/><polygon fill="#A80036" points="77.5246,675.204,81.2678,666.0942,77.3828,670.206,73.271,666.321,77.5246,675.204" style="stroke: #A80036; stroke-width: 1.0;"/><line style="stroke: #A80036; stroke-width: 1.0;" x1="77.3828" x2="77.1567" y1="670.206" y2="662.209"/><polygon fill="#A80036" points="75.4688,602.562,71.6398,608.6726,75.8077,614.5572,79.6367,608.4466,75.4688,602.562" style="stroke: #A80036; stroke-width: 1.0;"/><!--link LaBiosfera to PartePlaneta--><path d="M91.875,602.562 C108.894,619.267 135.449,645.33 155.511,665.02 " fill="none" id="LaBiosfera-PartePlaneta" style="stroke: #A80036; stroke-width: 1.0; stroke-dasharray: 7.0,7.0;"/><polygon fill="#A80036" points="159.432,668.869,155.813,659.7091,155.8645,665.3658,150.2078,665.4172,159.432,668.869" style="stroke: #A80036; stroke-width: 1.0;"/><!--link Hidrosfera to PartePlaneta--><path d="M183,602.562 C183,618.849 183,644.033 183,663.532 " fill="none" id="Hidrosfera-PartePlaneta" style="stroke: #A80036; stroke-width: 1.0; stroke-dasharray: 7.0,7.0;"/><polygon fill="#A80036" points="183,668.869,187,659.869,183,663.869,179,659.869,183,668.869" style="stroke: #A80036; stroke-width: 1.0;"/><!--link LaTierra to LaBiosfera--><path d="M83.6318,507.75 C82.0003,522.164 80.045,539.436 78.4082,553.894 " fill="none" id="LaTierra-LaBiosfera" style="stroke: #A80036; stroke-width: 1.0;"/><polygon fill="#A80036" points="76.9014,567.204,81.8878,558.7107,77.4635,562.2357,73.9385,557.8114,76.9014,567.204" style="stroke: #A80036; stroke-width: 1.0;"/><line style="stroke: #A80036; stroke-width: 1.0;" x1="77.4635" x2="78.3639" y1="562.2357" y2="554.2865"/><polygon fill="#A80036" points="85.125,494.56,80.4777,500.0738,83.7799,506.4844,88.4272,500.9706,85.125,494.56" style="stroke: #A80036; stroke-width: 1.0;"/><!--link LaTierra to Hidrosfera--><path d="M110.94,504.43 C125.547,520.562 144.163,541.118 158.815,557.296 " fill="none" id="LaTierra-Hidrosfera" style="stroke: #A80036; stroke-width: 1.0;"/><polygon fill="#A80036" points="167.789,567.204,164.7121,557.8481,164.4325,563.4981,158.7826,563.2185,167.789,567.204" style="stroke: #A80036; stroke-width: 1.0;"/><line style="stroke: #A80036; stroke-width: 1.0;" x1="164.4325" x2="159.0615" y1="563.4981" y2="557.5685"/><polygon fill="#A80036" points="102,494.56,103.0636,501.6922,110.0563,503.4536,108.9927,496.3214,102,494.56" style="stroke: #A80036; stroke-width: 1.0;"/><!--link Planeta to PartePlaneta--><path d="M258.225,618.168 C244.876,631.27 229.469,646.391 216.088,659.524 " fill="none" id="Planeta-PartePlaneta" style="stroke: #A80036; stroke-width: 1.0;"/><polygon fill="#A80036" points="206.762,668.678,215.987,665.2283,210.3303,665.1756,210.3831,659.519,206.762,668.678" style="stroke: #A80036; stroke-width: 1.0;"/><line style="stroke: #A80036; stroke-width: 1.0;" x1="210.3303" x2="216.0395" y1="665.1756" y2="659.5725"/><polygon fill="#A80036" points="267.566,609,260.4819,610.3477,259.0013,617.4051,266.0854,616.0575,267.566,609" style="stroke: #A80036; stroke-width: 1.0;"/><!--link LaTierra to Planeta--><path d="M117.101,493.64 C152.034,511.792 209.859,541.838 249.153,562.256 " fill="none" id="LaTierra-Planeta" style="stroke: #A80036; stroke-width: 1.0; stroke-dasharray: 7.0,7.0;"/><polygon fill="#A80036" points="253.85,564.697,247.7083,556.9977,249.4133,562.3915,244.0195,564.0965,253.85,564.697" style="stroke: #A80036; stroke-width: 1.0;"/><!--link Jupiter to Planeta--><path d="M195.656,494.56 C213.538,511.336 241.48,537.547 262.501,557.266 " fill="none" id="Jupiter-Planeta" style="stroke: #A80036; stroke-width: 1.0; stroke-dasharray: 7.0,7.0;"/><polygon fill="#A80036" points="266.341,560.869,262.5157,551.7934,262.6951,557.4474,257.0411,557.6268,266.341,560.869" style="stroke: #A80036; stroke-width: 1.0;"/><!--link ElSistemaSolar to LaTierra--><path d="M87.7193,399.75 C87.5834,414.16 87.4204,431.44 87.284,445.89 " fill="none" id="ElSistemaSolar-LaTierra" style="stroke: #A80036; stroke-width: 1.0;"/><polygon fill="#A80036" points="87.1585,459.2,91.2473,450.24,87.208,454.2002,83.2477,450.1609,87.1585,459.2" style="stroke: #A80036; stroke-width: 1.0;"/><line style="stroke: #A80036; stroke-width: 1.0;" x1="87.208" x2="87.2812" y1="454.2002" y2="446.205"/><polygon fill="#A80036" points="87.8438,386.56,83.7912,392.5246,87.7383,398.5595,91.7909,392.5949,87.8438,386.56" style="stroke: #A80036; stroke-width: 1.0;"/><!--link ElSistemaSolar to Jupiter--><path d="M110.674,396.71 C124.217,412.66 141.373,432.86 154.977,448.88 " fill="none" id="ElSistemaSolar-Jupiter" style="stroke: #A80036; stroke-width: 1.0;"/><polygon fill="#A80036" points="163.739,459.2,160.963,449.7505,160.5028,455.3886,154.8647,454.9283,163.739,459.2" style="stroke: #A80036; stroke-width: 1.0;"/><line style="stroke: #A80036; stroke-width: 1.0;" x1="160.5028" x2="155.3255" y1="455.3886" y2="449.295"/><polygon fill="#A80036" points="102.0625,386.56,102.8968,393.7227,109.8293,395.7075,108.9951,388.5448,102.0625,386.56" style="stroke: #A80036; stroke-width: 1.0;"/><!--link SistemaSolar to Planeta--><path d="M291.657,514.338 C291.557,525.006 291.446,536.677 291.346,547.364 " fill="none" id="SistemaSolar-Planeta" style="stroke: #A80036; stroke-width: 1.0;"/><polygon fill="#A80036" points="291.22,560.678,295.3049,551.7162,291.2673,555.6782,287.3052,551.6406,291.22,560.678" style="stroke: #A80036; stroke-width: 1.0;"/><line style="stroke: #A80036; stroke-width: 1.0;" x1="291.2673" x2="291.343" y1="555.6782" y2="547.679"/><polygon fill="#A80036" points="291.783,501,287.7265,506.9619,291.6696,512.9995,295.7261,507.0375,291.783,501" style="stroke: #A80036; stroke-width: 1.0;"/><!--link ElSistemaSolar to SistemaSolar--><path d="M119.875,386.56 C152.826,403.68 204.701,430.64 242.896,450.48 " fill="none" id="ElSistemaSolar-SistemaSolar" style="stroke: #A80036; stroke-width: 1.0; stroke-dasharray: 7.0,7.0;"/><polygon fill="#A80036" points="247.483,452.87,241.3372,445.1739,243.045,450.5668,237.6522,452.2747,247.483,452.87" style="stroke: #A80036; stroke-width: 1.0;"/><!--link Kepler444 to SistemaSolar--><path d="M221.969,386.56 C234.939,403.13 255.117,428.9 270.488,448.53 " fill="none" id="Kepler444-SistemaSolar" style="stroke: #A80036; stroke-width: 1.0; stroke-dasharray: 7.0,7.0;"/><polygon fill="#A80036" points="273.888,452.87,271.4845,443.3189,270.8037,448.9346,265.188,448.2538,273.888,452.87" style="stroke: #A80036; stroke-width: 1.0;"/><!--link LaViaLactea to ElSistemaSolar--><path d="M170.565,293.99 C153.924,308.91 132.985,327.68 116.358,342.58 " fill="none" id="LaViaLactea-ElSistemaSolar" style="stroke: #A80036; stroke-width: 1.0;"/><polygon fill="#A80036" points="106.64,351.29,116.0102,348.257,110.3617,347.951,110.6677,342.3024,106.64,351.29" style="stroke: #A80036; stroke-width: 1.0;"/><line style="stroke: #A80036; stroke-width: 1.0;" x1="110.3617" x2="116.32" y1="347.951" y2="342.615"/><polygon fill="#A80036" points="180.421,285.15,173.283,286.1743,171.4831,293.1572,178.6211,292.1329,180.421,285.15" style="stroke: #A80036; stroke-width: 1.0;"/><!--link LaViaLactea to Kepler444--><path d="M202.018,298.53 C203.284,311.12 204.751,325.72 206.013,338.28 " fill="none" id="LaViaLactea-Kepler444" style="stroke: #A80036; stroke-width: 1.0;"/><polygon fill="#A80036" points="207.329,351.37,210.409,342.0151,206.829,346.3951,202.4491,342.8151,207.329,351.37" style="stroke: #A80036; stroke-width: 1.0;"/><line style="stroke: #A80036; stroke-width: 1.0;" x1="206.829" x2="206.0285" y1="346.3951" y2="338.435"/><polygon fill="#A80036" points="200.696,285.38,197.316,291.7499,201.8959,297.3199,205.2759,290.95,200.696,285.38" style="stroke: #A80036; stroke-width: 1.0;"/><!--link Galaxia to SistemaSolar--><path d="M307.879,405.87 C305.391,416.86 302.654,428.95 300.163,439.95 " fill="none" id="Galaxia-SistemaSolar" style="stroke: #A80036; stroke-width: 1.0;"/><polygon fill="#A80036" points="297.28,452.68,303.169,444.7857,298.3843,447.8035,295.3665,443.0188,297.28,452.68" style="stroke: #A80036; stroke-width: 1.0;"/><line style="stroke: #A80036; stroke-width: 1.0;" x1="298.3843" x2="300.151" y1="447.8035" y2="439.995"/><polygon fill="#A80036" points="310.792,393,305.5655,397.9683,308.1414,404.7036,313.3679,399.7353,310.792,393" style="stroke: #A80036; stroke-width: 1.0;"/><!--link LaViaLactea to Galaxia--><path d="M218.583,285.15 C236.711,300.57 263.962,323.75 285.036,341.67 " fill="none" id="LaViaLactea-Galaxia" style="stroke: #A80036; stroke-width: 1.0; stroke-dasharray: 7.0,7.0;"/><polygon fill="#A80036" points="288.896,344.95,284.6427,336.0669,285.0912,341.7059,279.4522,342.1545,288.896,344.95" style="stroke: #A80036; stroke-width: 1.0;"/><!--link Andromeda to Galaxia--><path d="M314.339,285.38 C314.636,300.15 315.074,321.92 315.425,339.41 " fill="none" id="Andromeda-Galaxia" style="stroke: #A80036; stroke-width: 1.0; stroke-dasharray: 7.0,7.0;"/><polygon fill="#A80036" points="315.531,344.69,319.3502,335.6118,315.431,339.691,311.3518,335.7718,315.531,344.69" style="stroke: #A80036; stroke-width: 1.0;"/><!--link ElGrupoLocal to LaViaLactea--><path d="M236.561,201.81 C229.816,213.43 222.026,226.84 215.295,238.44 " fill="none" id="ElGrupoLocal-LaViaLactea" style="stroke: #A80036; stroke-width: 1.0;"/><polygon fill="#A80036" points="208.753,249.7,216.7319,243.9261,211.264,245.3763,209.8139,239.9084,208.753,249.7" style="stroke: #A80036; stroke-width: 1.0;"/><line style="stroke: #A80036; stroke-width: 1.0;" x1="211.264" x2="215.2805" y1="245.3763" y2="238.465"/><polygon fill="#A80036" points="243.346,190.13,236.8739,193.31,237.3201,200.5073,243.7921,197.3273,243.346,190.13" style="stroke: #A80036; stroke-width: 1.0;"/><!--link ElGrupoLocal to Andromeda--><path d="M271.265,201.35 C279.009,213.15 288.015,226.88 295.756,238.69 " fill="none" id="ElGrupoLocal-Andromeda" style="stroke: #A80036; stroke-width: 1.0;"/><polygon fill="#A80036" points="302.983,249.7,301.3923,239.9804,300.241,245.5189,294.7026,244.3676,302.983,249.7" style="stroke: #A80036; stroke-width: 1.0;"/><line style="stroke: #A80036; stroke-width: 1.0;" x1="300.241" x2="295.8535" y1="245.5189" y2="238.835"/><polygon fill="#A80036" points="263.906,190.13,263.8515,197.3409,270.4867,200.1646,270.5412,192.9537,263.906,190.13" style="stroke: #A80036; stroke-width: 1.0;"/><!--link ElUniverso to ElGrupoLocal--><path d="M253,108.21 C253,118.9 253,130.95 253,141.65 " fill="none" id="ElUniverso-ElGrupoLocal" style="stroke: #A80036; stroke-width: 1.0;"/><polygon fill="#A80036" points="253,154.7,257,145.7,253,149.7,249,145.7,253,154.7" style="stroke: #A80036; stroke-width: 1.0;"/><line style="stroke: #A80036; stroke-width: 1.0;" x1="253" x2="253" y1="149.7" y2="141.7"/><polygon fill="#A80036" points="253,95.13,249,101.13,253,107.13,257,101.13,253,95.13" style="stroke: #A80036; stroke-width: 1.0;"/><!--
@startuml

together sistemas {

object TuParticulaElemtal

object TuAtomo
TuAtomo *-down-> TuParticulaElemtal

object TuMolecula
TuMolecula *-down-> TuAtomo

object TuOrganulo
TuOrganulo *-down-> TuMolecula

object TuCelula
TuCelula *-down-> TuOrganulo

object TuMusculo
TuMusculo *-down-> TuCelula

object TuCorazon
TuCorazon *-down-> TuMusculo

object TuSistemaCirculatorio
TuSistemaCirculatorio *-down-> TuCorazon

object Tu
Tu *-down-> TuSistemaCirculatorio

object LaBiosfera
LaBiosfera *-down-> Tu

object Hidrosfera

class PartePlaneta
LaBiosfera ..> PartePlaneta
Hidrosfera ..> PartePlaneta

object LaTierra
LaTierra *-down-> LaBiosfera
LaTierra *-down-> Hidrosfera

object Jupiter

class Planeta
Planeta *- -> PartePlaneta
LaTierra ..> Planeta
Jupiter ..> Planeta

object ElSistemaSolar
ElSistemaSolar *-down-> LaTierra
ElSistemaSolar *-down-> Jupiter

object Kepler444

class SistemaSolar
SistemaSolar *- -> Planeta
ElSistemaSolar ..> SistemaSolar
Kepler444 ..> SistemaSolar

object LaViaLactea
LaViaLactea *-down-> ElSistemaSolar
LaViaLactea *-down-> Kepler444

object Andromeda

class Galaxia
Galaxia *- -> SistemaSolar
LaViaLactea ..> Galaxia
Andromeda ..> Galaxia

object ElGrupoLocal
ElGrupoLocal *-down-> LaViaLactea
ElGrupoLocal *-down-> Andromeda

object ElUniverso
ElUniverso *-down-> ElGrupoLocal

}

@enduml

PlantUML version 1.2019.05(Sat Apr 20 18:45:36 CEST 2019)
(GPL source distribution)
Java Runtime: Java(TM) SE Runtime Environment
JVM: Java HotSpot(TM) 64-Bit Server VM
Java Version: 1.8.0_211-b12
Operating System: Windows 10
OS Version: 10.0
Default Encoding: windows-1252
Language: es
Country: ES
--></g></svg>