<?xml version="1.0" encoding="UTF-8" standalone="no"?><svg xmlns="http://www.w3.org/2000/svg" xmlns:xlink="http://www.w3.org/1999/xlink" contentScriptType="application/ecmascript" contentStyleType="text/css" height="193px" preserveAspectRatio="none" style="width:283px;height:193px;" version="1.1" viewBox="0 0 283 193" width="283px" zoomAndPan="magnify"><defs><filter height="300%" id="f8gg5m4y148lg" width="300%" x="-1" y="-1"><feGaussianBlur result="blurOut" stdDeviation="2.0"/><feColorMatrix in="blurOut" result="blurOut2" type="matrix" values="0 0 0 0 0 0 0 0 0 0 0 0 0 0 0 0 0 0 .4 0"/><feOffset dx="4.0" dy="4.0" in="blurOut2" result="blurOut3"/><feBlend in="SourceGraphic" in2="blurOut3" mode="normal"/></filter></defs><g><!--class Incognita--><rect fill="#FEFECE" filter="url(#f8gg5m4y148lg)" height="48" id="Incognita" style="stroke: #A80036; stroke-width: 1.5;" width="46" x="150" y="8"/><ellipse cx="165" cy="24" fill="#ADD1B2" rx="11" ry="11" style="stroke: #A80036; stroke-width: 1.0;"/><path d="M167.7656,19.875 Q167.9219,19.6563 168.1094,19.5469 Q168.2969,19.4375 168.5156,19.4375 Q168.8906,19.4375 169.125,19.6953 Q169.3594,19.9531 169.3594,20.5625 L169.3594,22.0156 Q169.3594,22.625 169.125,22.8906 Q168.8906,23.1563 168.5156,23.1563 Q168.1719,23.1563 167.9688,22.9531 Q167.7656,22.7656 167.6563,22.25 Q167.6094,21.8906 167.4219,21.7031 Q167.0938,21.3281 166.4844,21.1094 Q165.875,20.8906 165.25,20.8906 Q164.4844,20.8906 163.8516,21.2188 Q163.2188,21.5469 162.7266,22.2969 Q162.2344,23.0469 162.2344,24.0781 L162.2344,25.1719 Q162.2344,26.4063 163.125,27.2266 Q164.0156,28.0469 165.6094,28.0469 Q166.5469,28.0469 167.2031,27.7969 Q167.5938,27.6406 168.0156,27.2031 Q168.2813,26.9375 168.4297,26.8594 Q168.5781,26.7813 168.7813,26.7813 Q169.1094,26.7813 169.3672,27.0391 Q169.625,27.2969 169.625,27.6406 Q169.625,27.9844 169.2813,28.3906 Q168.7813,28.9688 167.9844,29.2969 Q166.9063,29.75 165.6094,29.75 Q164.0938,29.75 162.8906,29.125 Q161.9063,28.625 161.2188,27.5547 Q160.5313,26.4844 160.5313,25.2031 L160.5313,24.0469 Q160.5313,22.7188 161.1484,21.5703 Q161.7656,20.4219 162.8594,19.8047 Q163.9531,19.1875 165.1875,19.1875 Q165.9219,19.1875 166.5703,19.3516 Q167.2188,19.5156 167.7656,19.875 Z "/><text fill="#000000" font-family="sans-serif" font-size="12" lengthAdjust="spacingAndGlyphs" textLength="14" x="179" y="28.9102">¿?</text><line style="stroke: #A80036; stroke-width: 1.5;" x1="151" x2="195" y1="40" y2="40"/><line style="stroke: #A80036; stroke-width: 1.5;" x1="151" x2="195" y1="48" y2="48"/><!--class Elemento--><rect fill="#FEFECE" filter="url(#f8gg5m4y148lg)" height="48" id="Elemento" style="stroke: #A80036; stroke-width: 1.5;" width="85" x="69.5" y="134"/><ellipse cx="84.5" cy="150" fill="#ADD1B2" rx="11" ry="11" style="stroke: #A80036; stroke-width: 1.0;"/><path d="M87.2656,145.875 Q87.4219,145.6563 87.6094,145.5469 Q87.7969,145.4375 88.0156,145.4375 Q88.3906,145.4375 88.625,145.6953 Q88.8594,145.9531 88.8594,146.5625 L88.8594,148.0156 Q88.8594,148.625 88.625,148.8906 Q88.3906,149.1563 88.0156,149.1563 Q87.6719,149.1563 87.4688,148.9531 Q87.2656,148.7656 87.1563,148.25 Q87.1094,147.8906 86.9219,147.7031 Q86.5938,147.3281 85.9844,147.1094 Q85.375,146.8906 84.75,146.8906 Q83.9844,146.8906 83.3516,147.2188 Q82.7188,147.5469 82.2266,148.2969 Q81.7344,149.0469 81.7344,150.0781 L81.7344,151.1719 Q81.7344,152.4063 82.625,153.2266 Q83.5156,154.0469 85.1094,154.0469 Q86.0469,154.0469 86.7031,153.7969 Q87.0938,153.6406 87.5156,153.2031 Q87.7813,152.9375 87.9297,152.8594 Q88.0781,152.7813 88.2813,152.7813 Q88.6094,152.7813 88.8672,153.0391 Q89.125,153.2969 89.125,153.6406 Q89.125,153.9844 88.7813,154.3906 Q88.2813,154.9688 87.4844,155.2969 Q86.4063,155.75 85.1094,155.75 Q83.5938,155.75 82.3906,155.125 Q81.4063,154.625 80.7188,153.5547 Q80.0313,152.4844 80.0313,151.2031 L80.0313,150.0469 Q80.0313,148.7188 80.6484,147.5703 Q81.2656,146.4219 82.3594,145.8047 Q83.4531,145.1875 84.6875,145.1875 Q85.4219,145.1875 86.0703,145.3516 Q86.7188,145.5156 87.2656,145.875 Z "/><text fill="#000000" font-family="sans-serif" font-size="12" lengthAdjust="spacingAndGlyphs" textLength="53" x="98.5" y="154.9102">Elemento</text><line style="stroke: #A80036; stroke-width: 1.5;" x1="70.5" x2="153.5" y1="166" y2="166"/><line style="stroke: #A80036; stroke-width: 1.5;" x1="70.5" x2="153.5" y1="174" y2="174"/><path d="M6,145 L6,171.3516 A0,0 0 0 0 6,171.3516 L34,171.3516 A0,0 0 0 0 34,171.3516 L34,163 L69.3523,158 L34,155 L34,155 L24,145 L6,145 A0,0 0 0 0 6,145 " fill="#FBFB77" filter="url(#f8gg5m4y148lg)" style="stroke: #A80036; stroke-width: 1.0;"/><path d="M24,145 L24,155 L34,155 L24,145 " fill="#FBFB77" style="stroke: #A80036; stroke-width: 1.0;"/><text fill="#000000" font-family="sans-serif" font-size="13" lengthAdjust="spacingAndGlyphs" textLength="7" x="12" y="163.4951">1</text><!--class Conjunto--><rect fill="#FEFECE" filter="url(#f8gg5m4y148lg)" height="48" id="Conjunto" style="stroke: #A80036; stroke-width: 1.5;" width="82" x="190" y="134"/><ellipse cx="205" cy="150" fill="#ADD1B2" rx="11" ry="11" style="stroke: #A80036; stroke-width: 1.0;"/><path d="M207.7656,145.875 Q207.9219,145.6563 208.1094,145.5469 Q208.2969,145.4375 208.5156,145.4375 Q208.8906,145.4375 209.125,145.6953 Q209.3594,145.9531 209.3594,146.5625 L209.3594,148.0156 Q209.3594,148.625 209.125,148.8906 Q208.8906,149.1563 208.5156,149.1563 Q208.1719,149.1563 207.9688,148.9531 Q207.7656,148.7656 207.6563,148.25 Q207.6094,147.8906 207.4219,147.7031 Q207.0938,147.3281 206.4844,147.1094 Q205.875,146.8906 205.25,146.8906 Q204.4844,146.8906 203.8516,147.2188 Q203.2188,147.5469 202.7266,148.2969 Q202.2344,149.0469 202.2344,150.0781 L202.2344,151.1719 Q202.2344,152.4063 203.125,153.2266 Q204.0156,154.0469 205.6094,154.0469 Q206.5469,154.0469 207.2031,153.7969 Q207.5938,153.6406 208.0156,153.2031 Q208.2813,152.9375 208.4297,152.8594 Q208.5781,152.7813 208.7813,152.7813 Q209.1094,152.7813 209.3672,153.0391 Q209.625,153.2969 209.625,153.6406 Q209.625,153.9844 209.2813,154.3906 Q208.7813,154.9688 207.9844,155.2969 Q206.9063,155.75 205.6094,155.75 Q204.0938,155.75 202.8906,155.125 Q201.9063,154.625 201.2188,153.5547 Q200.5313,152.4844 200.5313,151.2031 L200.5313,150.0469 Q200.5313,148.7188 201.1484,147.5703 Q201.7656,146.4219 202.8594,145.8047 Q203.9531,145.1875 205.1875,145.1875 Q205.9219,145.1875 206.5703,145.3516 Q207.2188,145.5156 207.7656,145.875 Z "/><text fill="#000000" font-family="sans-serif" font-size="12" lengthAdjust="spacingAndGlyphs" textLength="50" x="219" y="154.9102">Conjunto</text><line style="stroke: #A80036; stroke-width: 1.5;" x1="191" x2="271" y1="166" y2="166"/><line style="stroke: #A80036; stroke-width: 1.5;" x1="191" x2="271" y1="174" y2="174"/><!--link Incognita to Elemento--><path d="M152.798,74.066 C143.054,93.873 131.722,116.9093 123.477,133.6697 " fill="none" id="Incognita-Elemento" style="stroke: #A80036; stroke-width: 1.0;"/><polygon fill="none" points="146.56,70.889,161.669,56.033,159.122,77.069,146.56,70.889" style="stroke: #A80036; stroke-width: 1.0;"/><!--link Incognita to Conjunto--><path d="M183.865,75.333 C186.95,84.9666 190.672,95.0065 195,104 C199.969,114.3236 206.767,124.9195 213.118,133.8976 " fill="none" id="Incognita-Conjunto" style="stroke: #A80036; stroke-width: 1.0;"/><polygon fill="none" points="177.115,77.19,178.285,56.033,190.564,73.302,177.115,77.19" style="stroke: #A80036; stroke-width: 1.0;"/><!--link Conjunto to Incognita--><path d="M214.423,121.5589 C206.567,104.7644 197.212,84.764 189.382,68.023 " fill="none" id="Conjunto-Incognita" style="stroke: #A80036; stroke-width: 1.0;"/><polygon fill="#A80036" points="183.773,56.033,183.9623,65.88,185.8912,60.5622,191.209,62.491,183.773,56.033" style="stroke: #A80036; stroke-width: 1.0;"/><line style="stroke: #A80036; stroke-width: 1.0;" x1="185.8912" x2="189.2815" y1="60.5622" y2="67.8085"/><polygon fill="#A80036" points="220.087,133.6697,221.1681,126.5401,215.0028,122.8,213.9216,129.9296,220.087,133.6697" style="stroke: #A80036; stroke-width: 1.0;"/><text fill="#000000" font-family="sans-serif" font-size="13" lengthAdjust="spacingAndGlyphs" textLength="24" x="206" y="100.4951">0..N</text><!--
@startuml

class "¿?" as Incognita
class Elemento
note left {
    1
}
class Conjunto


Incognita <|- - Elemento
Incognita <|- - Conjunto
Conjunto *- -> Incognita : 0..N
@enduml

PlantUML version 1.2019.05(Sat Apr 20 18:45:36 CEST 2019)
(GPL source distribution)
Java Runtime: Java(TM) SE Runtime Environment
JVM: Java HotSpot(TM) 64-Bit Server VM
Java Version: 1.8.0_211-b12
Operating System: Windows 10
OS Version: 10.0
Default Encoding: windows-1252
Language: es
Country: ES
--></g></svg>