<?xml version="1.0" encoding="UTF-8" standalone="no"?><svg xmlns="http://www.w3.org/2000/svg" xmlns:xlink="http://www.w3.org/1999/xlink" contentScriptType="application/ecmascript" contentStyleType="text/css" height="216px" preserveAspectRatio="none" style="width:170px;height:216px;" version="1.1" viewBox="0 0 170 216" width="170px" zoomAndPan="magnify"><defs><filter height="300%" id="fgnck4f8lyz79" width="300%" x="-1" y="-1"><feGaussianBlur result="blurOut" stdDeviation="2.0"/><feColorMatrix in="blurOut" result="blurOut2" type="matrix" values="0 0 0 0 0 0 0 0 0 0 0 0 0 0 0 0 0 0 .4 0"/><feOffset dx="4.0" dy="4.0" in="blurOut2" result="blurOut3"/><feBlend in="SourceGraphic" in2="blurOut3" mode="normal"/></filter></defs><g><!--class A--><rect fill="#FEFECE" filter="url(#fgnck4f8lyz79)" height="75.6719" id="A" style="stroke: #A80036; stroke-width: 1.5;" width="39" x="44.5" y="8"/><ellipse cx="59.5" cy="24" fill="#ADD1B2" rx="11" ry="11" style="stroke: #A80036; stroke-width: 1.0;"/><path d="M62.2656,19.875 Q62.4219,19.6563 62.6094,19.5469 Q62.7969,19.4375 63.0156,19.4375 Q63.3906,19.4375 63.625,19.6953 Q63.8594,19.9531 63.8594,20.5625 L63.8594,22.0156 Q63.8594,22.625 63.625,22.8906 Q63.3906,23.1563 63.0156,23.1563 Q62.6719,23.1563 62.4688,22.9531 Q62.2656,22.7656 62.1563,22.25 Q62.1094,21.8906 61.9219,21.7031 Q61.5938,21.3281 60.9844,21.1094 Q60.375,20.8906 59.75,20.8906 Q58.9844,20.8906 58.3516,21.2188 Q57.7188,21.5469 57.2266,22.2969 Q56.7344,23.0469 56.7344,24.0781 L56.7344,25.1719 Q56.7344,26.4063 57.625,27.2266 Q58.5156,28.0469 60.1094,28.0469 Q61.0469,28.0469 61.7031,27.7969 Q62.0938,27.6406 62.5156,27.2031 Q62.7813,26.9375 62.9297,26.8594 Q63.0781,26.7813 63.2813,26.7813 Q63.6094,26.7813 63.8672,27.0391 Q64.125,27.2969 64.125,27.6406 Q64.125,27.9844 63.7813,28.3906 Q63.2813,28.9688 62.4844,29.2969 Q61.4063,29.75 60.1094,29.75 Q58.5938,29.75 57.3906,29.125 Q56.4063,28.625 55.7188,27.5547 Q55.0313,26.4844 55.0313,25.2031 L55.0313,24.0469 Q55.0313,22.7188 55.6484,21.5703 Q56.2656,20.4219 57.3594,19.8047 Q58.4531,19.1875 59.6875,19.1875 Q60.4219,19.1875 61.0703,19.3516 Q61.7188,19.5156 62.2656,19.875 Z "/><text fill="#000000" font-family="sans-serif" font-size="12" lengthAdjust="spacingAndGlyphs" textLength="7" x="73.5" y="28.9102">A</text><line style="stroke: #A80036; stroke-width: 1.5;" x1="45.5" x2="82.5" y1="40" y2="40"/><text fill="#000000" font-family="sans-serif" font-size="11" lengthAdjust="spacingAndGlyphs" textLength="6" x="50.5" y="55.4189">q</text><text fill="#000000" font-family="sans-serif" font-size="11" lengthAdjust="spacingAndGlyphs" textLength="6" x="50.5" y="69.2549">s</text><line style="stroke: #A80036; stroke-width: 1.5;" x1="45.5" x2="82.5" y1="75.6719" y2="75.6719"/><!--class B--><rect fill="#FEFECE" filter="url(#fgnck4f8lyz79)" height="61.8359" id="B" style="stroke: #A80036; stroke-width: 1.5;" width="40" x="6" y="144"/><ellipse cx="21" cy="160" fill="#ADD1B2" rx="11" ry="11" style="stroke: #A80036; stroke-width: 1.0;"/><path d="M23.7656,155.875 Q23.9219,155.6563 24.1094,155.5469 Q24.2969,155.4375 24.5156,155.4375 Q24.8906,155.4375 25.125,155.6953 Q25.3594,155.9531 25.3594,156.5625 L25.3594,158.0156 Q25.3594,158.625 25.125,158.8906 Q24.8906,159.1563 24.5156,159.1563 Q24.1719,159.1563 23.9688,158.9531 Q23.7656,158.7656 23.6563,158.25 Q23.6094,157.8906 23.4219,157.7031 Q23.0938,157.3281 22.4844,157.1094 Q21.875,156.8906 21.25,156.8906 Q20.4844,156.8906 19.8516,157.2188 Q19.2188,157.5469 18.7266,158.2969 Q18.2344,159.0469 18.2344,160.0781 L18.2344,161.1719 Q18.2344,162.4063 19.125,163.2266 Q20.0156,164.0469 21.6094,164.0469 Q22.5469,164.0469 23.2031,163.7969 Q23.5938,163.6406 24.0156,163.2031 Q24.2813,162.9375 24.4297,162.8594 Q24.5781,162.7813 24.7813,162.7813 Q25.1094,162.7813 25.3672,163.0391 Q25.625,163.2969 25.625,163.6406 Q25.625,163.9844 25.2813,164.3906 Q24.7813,164.9688 23.9844,165.2969 Q22.9063,165.75 21.6094,165.75 Q20.0938,165.75 18.8906,165.125 Q17.9063,164.625 17.2188,163.5547 Q16.5313,162.4844 16.5313,161.2031 L16.5313,160.0469 Q16.5313,158.7188 17.1484,157.5703 Q17.7656,156.4219 18.8594,155.8047 Q19.9531,155.1875 21.1875,155.1875 Q21.9219,155.1875 22.5703,155.3516 Q23.2188,155.5156 23.7656,155.875 Z "/><text fill="#000000" font-family="sans-serif" font-size="12" lengthAdjust="spacingAndGlyphs" textLength="8" x="35" y="164.9102">B</text><line style="stroke: #A80036; stroke-width: 1.5;" x1="7" x2="45" y1="176" y2="176"/><text fill="#000000" font-family="sans-serif" font-size="11" lengthAdjust="spacingAndGlyphs" textLength="4" x="12" y="191.4189">r</text><line style="stroke: #A80036; stroke-width: 1.5;" x1="7" x2="45" y1="197.8359" y2="197.8359"/><!--class C--><rect fill="#FEFECE" filter="url(#fgnck4f8lyz79)" height="61.8359" id="C" style="stroke: #A80036; stroke-width: 1.5;" width="41" x="81.5" y="144"/><ellipse cx="96.5" cy="160" fill="#ADD1B2" rx="11" ry="11" style="stroke: #A80036; stroke-width: 1.0;"/><path d="M99.2656,155.875 Q99.4219,155.6563 99.6094,155.5469 Q99.7969,155.4375 100.0156,155.4375 Q100.3906,155.4375 100.625,155.6953 Q100.8594,155.9531 100.8594,156.5625 L100.8594,158.0156 Q100.8594,158.625 100.625,158.8906 Q100.3906,159.1563 100.0156,159.1563 Q99.6719,159.1563 99.4688,158.9531 Q99.2656,158.7656 99.1563,158.25 Q99.1094,157.8906 98.9219,157.7031 Q98.5938,157.3281 97.9844,157.1094 Q97.375,156.8906 96.75,156.8906 Q95.9844,156.8906 95.3516,157.2188 Q94.7188,157.5469 94.2266,158.2969 Q93.7344,159.0469 93.7344,160.0781 L93.7344,161.1719 Q93.7344,162.4063 94.625,163.2266 Q95.5156,164.0469 97.1094,164.0469 Q98.0469,164.0469 98.7031,163.7969 Q99.0938,163.6406 99.5156,163.2031 Q99.7813,162.9375 99.9297,162.8594 Q100.0781,162.7813 100.2813,162.7813 Q100.6094,162.7813 100.8672,163.0391 Q101.125,163.2969 101.125,163.6406 Q101.125,163.9844 100.7813,164.3906 Q100.2813,164.9688 99.4844,165.2969 Q98.4063,165.75 97.1094,165.75 Q95.5938,165.75 94.3906,165.125 Q93.4063,164.625 92.7188,163.5547 Q92.0313,162.4844 92.0313,161.2031 L92.0313,160.0469 Q92.0313,158.7188 92.6484,157.5703 Q93.2656,156.4219 94.3594,155.8047 Q95.4531,155.1875 96.6875,155.1875 Q97.4219,155.1875 98.0703,155.3516 Q98.7188,155.5156 99.2656,155.875 Z "/><text fill="#000000" font-family="sans-serif" font-size="12" lengthAdjust="spacingAndGlyphs" textLength="9" x="110.5" y="164.9102">C</text><line style="stroke: #A80036; stroke-width: 1.5;" x1="82.5" x2="121.5" y1="176" y2="176"/><text fill="#000000" font-family="sans-serif" font-size="11" lengthAdjust="spacingAndGlyphs" textLength="6" x="87.5" y="191.4189">p</text><line style="stroke: #A80036; stroke-width: 1.5;" x1="82.5" x2="121.5" y1="197.8359" y2="197.8359"/><!--class D--><rect fill="#FEFECE" filter="url(#fgnck4f8lyz79)" height="75.6719" id="D" style="stroke: #A80036; stroke-width: 1.5;" width="41" x="118.5" y="8"/><ellipse cx="133.5" cy="24" fill="#ADD1B2" rx="11" ry="11" style="stroke: #A80036; stroke-width: 1.0;"/><path d="M136.2656,19.875 Q136.4219,19.6563 136.6094,19.5469 Q136.7969,19.4375 137.0156,19.4375 Q137.3906,19.4375 137.625,19.6953 Q137.8594,19.9531 137.8594,20.5625 L137.8594,22.0156 Q137.8594,22.625 137.625,22.8906 Q137.3906,23.1563 137.0156,23.1563 Q136.6719,23.1563 136.4688,22.9531 Q136.2656,22.7656 136.1563,22.25 Q136.1094,21.8906 135.9219,21.7031 Q135.5938,21.3281 134.9844,21.1094 Q134.375,20.8906 133.75,20.8906 Q132.9844,20.8906 132.3516,21.2188 Q131.7188,21.5469 131.2266,22.2969 Q130.7344,23.0469 130.7344,24.0781 L130.7344,25.1719 Q130.7344,26.4063 131.625,27.2266 Q132.5156,28.0469 134.1094,28.0469 Q135.0469,28.0469 135.7031,27.7969 Q136.0938,27.6406 136.5156,27.2031 Q136.7813,26.9375 136.9297,26.8594 Q137.0781,26.7813 137.2813,26.7813 Q137.6094,26.7813 137.8672,27.0391 Q138.125,27.2969 138.125,27.6406 Q138.125,27.9844 137.7813,28.3906 Q137.2813,28.9688 136.4844,29.2969 Q135.4063,29.75 134.1094,29.75 Q132.5938,29.75 131.3906,29.125 Q130.4063,28.625 129.7188,27.5547 Q129.0313,26.4844 129.0313,25.2031 L129.0313,24.0469 Q129.0313,22.7188 129.6484,21.5703 Q130.2656,20.4219 131.3594,19.8047 Q132.4531,19.1875 133.6875,19.1875 Q134.4219,19.1875 135.0703,19.3516 Q135.7188,19.5156 136.2656,19.875 Z "/><text fill="#000000" font-family="sans-serif" font-size="12" lengthAdjust="spacingAndGlyphs" textLength="9" x="147.5" y="28.9102">D</text><line style="stroke: #A80036; stroke-width: 1.5;" x1="119.5" x2="158.5" y1="40" y2="40"/><text fill="#000000" font-family="sans-serif" font-size="11" lengthAdjust="spacingAndGlyphs" textLength="6" x="124.5" y="55.4189">p</text><text fill="#000000" font-family="sans-serif" font-size="11" lengthAdjust="spacingAndGlyphs" textLength="6" x="124.5" y="69.2549">o</text><line style="stroke: #A80036; stroke-width: 1.5;" x1="119.5" x2="158.5" y1="75.6719" y2="75.6719"/><!--link A to B--><path d="M47.1651,103.264 C42.9755,117.2661 38.6437,131.7435 34.9987,143.9254 " fill="none" id="A-B" style="stroke: #A80036; stroke-width: 1.0;"/><polygon fill="none" points="40.4673,101.229,52.9067,84.075,53.8797,105.242,40.4673,101.229" style="stroke: #A80036; stroke-width: 1.0;"/><!--link A to C--><path d="M80.8349,103.264 C85.0245,117.2661 89.3563,131.7435 93.0013,143.9254 " fill="none" id="A-C" style="stroke: #A80036; stroke-width: 1.0;"/><polygon fill="none" points="74.1203,105.242,75.0933,84.075,87.5327,101.229,74.1203,105.242" style="stroke: #A80036; stroke-width: 1.0;"/><!--
@startuml

class A {
q
s
}

class B {
r
}

class C {
p
}

class D {
p
o
}

A <|-down- B
A <|-down- C
@enduml

PlantUML version 1.2019.05(Sat Apr 20 18:45:36 CEST 2019)
(GPL source distribution)
Java Runtime: Java(TM) SE Runtime Environment
JVM: Java HotSpot(TM) 64-Bit Server VM
Java Version: 1.8.0_211-b12
Operating System: Windows 10
OS Version: 10.0
Default Encoding: windows-1252
Language: es
Country: ES
--></g></svg>