<?xml version="1.0" encoding="UTF-8" standalone="no"?><svg xmlns="http://www.w3.org/2000/svg" xmlns:xlink="http://www.w3.org/1999/xlink" contentScriptType="application/ecmascript" contentStyleType="text/css" height="244px" preserveAspectRatio="none" style="width:376px;height:244px;" version="1.1" viewBox="0 0 376 244" width="376px" zoomAndPan="magnify"><defs><filter height="300%" id="fbk72i0wzfiba" width="300%" x="-1" y="-1"><feGaussianBlur result="blurOut" stdDeviation="2.0"/><feColorMatrix in="blurOut" result="blurOut2" type="matrix" values="0 0 0 0 0 0 0 0 0 0 0 0 0 0 0 0 0 0 .4 0"/><feOffset dx="4.0" dy="4.0" in="blurOut2" result="blurOut3"/><feBlend in="SourceGraphic" in2="blurOut3" mode="normal"/></filter></defs><g><rect fill="#FEFECE" filter="url(#fbk72i0wzfiba)" height="35.0938" style="stroke: #A80036; stroke-width: 1.5;" width="49" x="160.5" y="8"/><text fill="#000000" font-family="sans-serif" font-size="12" lengthAdjust="spacingAndGlyphs" textLength="35" x="167.5" y="22.457">Todo1</text><line style="stroke: #A80036; stroke-width: 1.5;" x1="161.5" x2="208.5" y1="27.0938" y2="27.0938"/><rect fill="#FEFECE" filter="url(#fbk72i0wzfiba)" height="35.0938" style="stroke: #A80036; stroke-width: 1.5;" width="88" x="80" y="103"/><text fill="#000000" font-family="sans-serif" font-size="12" lengthAdjust="spacingAndGlyphs" textLength="74" x="87" y="117.457">Parte1/Todo2</text><line style="stroke: #A80036; stroke-width: 1.5;" x1="81" x2="167" y1="122.0938" y2="122.0938"/><rect fill="#FEFECE" filter="url(#fbk72i0wzfiba)" height="35.0938" style="stroke: #A80036; stroke-width: 1.5;" width="88" x="203" y="103"/><text fill="#000000" font-family="sans-serif" font-size="12" lengthAdjust="spacingAndGlyphs" textLength="74" x="210" y="117.457">Parte2/Todo3</text><line style="stroke: #A80036; stroke-width: 1.5;" x1="204" x2="290" y1="122.0938" y2="122.0938"/><rect fill="#FEFECE" filter="url(#fbk72i0wzfiba)" height="35.0938" style="stroke: #A80036; stroke-width: 1.5;" width="60" x="6" y="198"/><text fill="#000000" font-family="sans-serif" font-size="12" lengthAdjust="spacingAndGlyphs" textLength="46" x="13" y="212.457">Parte2/1</text><line style="stroke: #A80036; stroke-width: 1.5;" x1="7" x2="65" y1="217.0938" y2="217.0938"/><rect fill="#FEFECE" filter="url(#fbk72i0wzfiba)" height="35.0938" style="stroke: #A80036; stroke-width: 1.5;" width="60" x="101" y="198"/><text fill="#000000" font-family="sans-serif" font-size="12" lengthAdjust="spacingAndGlyphs" textLength="46" x="108" y="212.457">Parte2/2</text><line style="stroke: #A80036; stroke-width: 1.5;" x1="102" x2="160" y1="217.0938" y2="217.0938"/><rect fill="#FEFECE" filter="url(#fbk72i0wzfiba)" height="35.0938" style="stroke: #A80036; stroke-width: 1.5;" width="60" x="210" y="198"/><text fill="#000000" font-family="sans-serif" font-size="12" lengthAdjust="spacingAndGlyphs" textLength="46" x="217" y="212.457">Parte3/1</text><line style="stroke: #A80036; stroke-width: 1.5;" x1="211" x2="269" y1="217.0938" y2="217.0938"/><rect fill="#FEFECE" filter="url(#fbk72i0wzfiba)" height="35.0938" style="stroke: #A80036; stroke-width: 1.5;" width="60" x="305" y="198"/><text fill="#000000" font-family="sans-serif" font-size="12" lengthAdjust="spacingAndGlyphs" textLength="46" x="312" y="212.457">Parte3/2</text><line style="stroke: #A80036; stroke-width: 1.5;" x1="306" x2="364" y1="217.0938" y2="217.0938"/><!--link Todo1 to Parte1Todo2--><path d="M166.735,54.347 C158.991,66.153 149.985,79.883 142.244,91.686 " fill="none" id="Todo1-Parte1Todo2" style="stroke: #A80036; stroke-width: 1.0;"/><polygon fill="#A80036" points="135.017,102.704,143.2979,97.3724,137.7594,98.5232,136.6086,92.9846,135.017,102.704" style="stroke: #A80036; stroke-width: 1.0;"/><line style="stroke: #A80036; stroke-width: 1.0;" x1="137.7594" x2="142.1465" y1="98.5232" y2="91.8335"/><polygon fill="#A80036" points="174.094,43.127,167.4585,45.9501,167.5123,53.161,174.1478,50.3379,174.094,43.127" style="stroke: #A80036; stroke-width: 1.0;"/><!--link Todo1 to Parte2Todo3--><path d="M203.565,54.347 C211.436,66.153 220.589,79.883 228.457,91.686 " fill="none" id="Todo1-Parte2Todo3" style="stroke: #A80036; stroke-width: 1.0;"/><polygon fill="#A80036" points="235.803,102.704,234.1383,92.9968,233.0292,98.5439,227.4822,97.4349,235.803,102.704" style="stroke: #A80036; stroke-width: 1.0;"/><line style="stroke: #A80036; stroke-width: 1.0;" x1="233.0292" x2="228.5915" y1="98.5439" y2="91.887"/><polygon fill="#A80036" points="196.084,43.127,196.0844,50.3381,202.741,53.1112,202.7406,45.9001,196.084,43.127" style="stroke: #A80036; stroke-width: 1.0;"/><!--link Parte1Todo2 to Parte21--><path d="M98.9559,147.967 C87.0173,160.584 72.7768,175.6336 60.8618,188.2256 " fill="none" id="Parte1Todo2-Parte21" style="stroke: #A80036; stroke-width: 1.0;"/><polygon fill="#A80036" points="51.8931,197.7038,60.9843,193.9158,55.3296,194.072,55.1734,188.4173,51.8931,197.7038" style="stroke: #A80036; stroke-width: 1.0;"/><line style="stroke: #A80036; stroke-width: 1.0;" x1="55.3296" x2="60.8282" y1="194.072" y2="188.2611"/><polygon fill="#A80036" points="108.267,138.1265,101.2377,139.7354,100.0192,146.8428,107.0485,145.2339,108.267,138.1265" style="stroke: #A80036; stroke-width: 1.0;"/><!--link Parte1Todo2 to Parte22--><path d="M126.237,151.2141 C127.041,161.9002 127.948,173.9523 128.753,184.6499 " fill="none" id="Parte1Todo2-Parte22" style="stroke: #A80036; stroke-width: 1.0;"/><polygon fill="#A80036" points="129.736,197.7038,133.0491,188.4289,129.3607,192.7179,125.0717,189.0295,129.736,197.7038" style="stroke: #A80036; stroke-width: 1.0;"/><line style="stroke: #A80036; stroke-width: 1.0;" x1="129.3607" x2="128.76" y1="192.7179" y2="184.7405"/><polygon fill="#A80036" points="125.251,138.1265,121.7127,144.4098,126.1518,150.0926,129.6901,143.8093,125.251,138.1265" style="stroke: #A80036; stroke-width: 1.0;"/><!--link Parte2Todo3 to Parte31--><path d="M244.763,151.2141 C243.959,161.9002 243.052,173.9523 242.247,184.6499 " fill="none" id="Parte2Todo3-Parte31" style="stroke: #A80036; stroke-width: 1.0;"/><polygon fill="#A80036" points="241.264,197.7038,245.9283,189.0295,241.6393,192.7179,237.9509,188.4289,241.264,197.7038" style="stroke: #A80036; stroke-width: 1.0;"/><line style="stroke: #A80036; stroke-width: 1.0;" x1="241.6393" x2="242.24" y1="192.7179" y2="184.7405"/><polygon fill="#A80036" points="245.749,138.1265,241.3099,143.8093,244.8482,150.0926,249.2873,144.4098,245.749,138.1265" style="stroke: #A80036; stroke-width: 1.0;"/><!--link Parte2Todo3 to Parte32--><path d="M272.044,147.967 C283.983,160.584 298.223,175.6336 310.138,188.2256 " fill="none" id="Parte2Todo3-Parte32" style="stroke: #A80036; stroke-width: 1.0;"/><polygon fill="#A80036" points="319.107,197.7038,315.8267,188.4173,315.6705,194.072,310.0158,193.9158,319.107,197.7038" style="stroke: #A80036; stroke-width: 1.0;"/><line style="stroke: #A80036; stroke-width: 1.0;" x1="315.6705" x2="310.172" y1="194.072" y2="188.2611"/><polygon fill="#A80036" points="262.733,138.1265,263.9514,145.2339,270.9807,146.8429,269.7623,139.7354,262.733,138.1265" style="stroke: #A80036; stroke-width: 1.0;"/><!--
@startuml
object Todo1
object "Parte1/Todo2" as Parte1Todo2
object "Parte2/Todo3" as Parte2Todo3
object "Parte2/1" as Parte21
object "Parte2/2" as Parte22
object "Parte3/1" as Parte31
object "Parte3/2" as Parte32

Todo1 *-down-> Parte1Todo2
Todo1 *-down-> Parte2Todo3
Parte1Todo2 *-down-> Parte21
Parte1Todo2 *-down-> Parte22
Parte2Todo3 *-down-> Parte31
Parte2Todo3 *-down-> Parte32
@enduml

PlantUML version 1.2019.05(Sat Apr 20 18:45:36 CEST 2019)
(GPL source distribution)
Java Runtime: Java(TM) SE Runtime Environment
JVM: Java HotSpot(TM) 64-Bit Server VM
Java Version: 1.8.0_211-b12
Operating System: Windows 10
OS Version: 10.0
Default Encoding: windows-1252
Language: es
Country: ES
--></g></svg>