<?xml version="1.0" encoding="UTF-8" standalone="no"?><svg xmlns="http://www.w3.org/2000/svg" xmlns:xlink="http://www.w3.org/1999/xlink" contentScriptType="application/ecmascript" contentStyleType="text/css" height="175px" preserveAspectRatio="none" style="width:533px;height:175px;" version="1.1" viewBox="0 0 533 175" width="533px" zoomAndPan="magnify"><defs><filter height="300%" id="f13fk7typzj1go" width="300%" x="-1" y="-1"><feGaussianBlur result="blurOut" stdDeviation="2.0"/><feColorMatrix in="blurOut" result="blurOut2" type="matrix" values="0 0 0 0 0 0 0 0 0 0 0 0 0 0 0 0 0 0 .4 0"/><feOffset dx="4.0" dy="4.0" in="blurOut2" result="blurOut3"/><feBlend in="SourceGraphic" in2="blurOut3" mode="normal"/></filter></defs><g><!--class ClaseBase1--><rect fill="#FEFECE" filter="url(#f13fk7typzj1go)" height="48" id="ClaseBase1" style="stroke: #A80036; stroke-width: 1.5;" width="104" x="52" y="8"/><ellipse cx="67" cy="24" fill="#ADD1B2" rx="11" ry="11" style="stroke: #A80036; stroke-width: 1.0;"/><path d="M69.7656,19.875 Q69.9219,19.6563 70.1094,19.5469 Q70.2969,19.4375 70.5156,19.4375 Q70.8906,19.4375 71.125,19.6953 Q71.3594,19.9531 71.3594,20.5625 L71.3594,22.0156 Q71.3594,22.625 71.125,22.8906 Q70.8906,23.1563 70.5156,23.1563 Q70.1719,23.1563 69.9688,22.9531 Q69.7656,22.7656 69.6563,22.25 Q69.6094,21.8906 69.4219,21.7031 Q69.0938,21.3281 68.4844,21.1094 Q67.875,20.8906 67.25,20.8906 Q66.4844,20.8906 65.8516,21.2188 Q65.2188,21.5469 64.7266,22.2969 Q64.2344,23.0469 64.2344,24.0781 L64.2344,25.1719 Q64.2344,26.4063 65.125,27.2266 Q66.0156,28.0469 67.6094,28.0469 Q68.5469,28.0469 69.2031,27.7969 Q69.5938,27.6406 70.0156,27.2031 Q70.2813,26.9375 70.4297,26.8594 Q70.5781,26.7813 70.7813,26.7813 Q71.1094,26.7813 71.3672,27.0391 Q71.625,27.2969 71.625,27.6406 Q71.625,27.9844 71.2813,28.3906 Q70.7813,28.9688 69.9844,29.2969 Q68.9063,29.75 67.6094,29.75 Q66.0938,29.75 64.8906,29.125 Q63.9063,28.625 63.2188,27.5547 Q62.5313,26.4844 62.5313,25.2031 L62.5313,24.0469 Q62.5313,22.7188 63.1484,21.5703 Q63.7656,20.4219 64.8594,19.8047 Q65.9531,19.1875 67.1875,19.1875 Q67.9219,19.1875 68.5703,19.3516 Q69.2188,19.5156 69.7656,19.875 Z "/><text fill="#000000" font-family="sans-serif" font-size="12" lengthAdjust="spacingAndGlyphs" textLength="72" x="81" y="28.9102">Clase Base1</text><line style="stroke: #A80036; stroke-width: 1.5;" x1="53" x2="155" y1="40" y2="40"/><line style="stroke: #A80036; stroke-width: 1.5;" x1="53" x2="155" y1="48" y2="48"/><!--class ClaseBase2--><rect fill="#FEFECE" filter="url(#f13fk7typzj1go)" height="48" id="ClaseBase2" style="stroke: #A80036; stroke-width: 1.5;" width="104" x="305" y="8"/><ellipse cx="320" cy="24" fill="#ADD1B2" rx="11" ry="11" style="stroke: #A80036; stroke-width: 1.0;"/><path d="M322.7656,19.875 Q322.9219,19.6563 323.1094,19.5469 Q323.2969,19.4375 323.5156,19.4375 Q323.8906,19.4375 324.125,19.6953 Q324.3594,19.9531 324.3594,20.5625 L324.3594,22.0156 Q324.3594,22.625 324.125,22.8906 Q323.8906,23.1563 323.5156,23.1563 Q323.1719,23.1563 322.9688,22.9531 Q322.7656,22.7656 322.6563,22.25 Q322.6094,21.8906 322.4219,21.7031 Q322.0938,21.3281 321.4844,21.1094 Q320.875,20.8906 320.25,20.8906 Q319.4844,20.8906 318.8516,21.2188 Q318.2188,21.5469 317.7266,22.2969 Q317.2344,23.0469 317.2344,24.0781 L317.2344,25.1719 Q317.2344,26.4063 318.125,27.2266 Q319.0156,28.0469 320.6094,28.0469 Q321.5469,28.0469 322.2031,27.7969 Q322.5938,27.6406 323.0156,27.2031 Q323.2813,26.9375 323.4297,26.8594 Q323.5781,26.7813 323.7813,26.7813 Q324.1094,26.7813 324.3672,27.0391 Q324.625,27.2969 324.625,27.6406 Q324.625,27.9844 324.2813,28.3906 Q323.7813,28.9688 322.9844,29.2969 Q321.9063,29.75 320.6094,29.75 Q319.0938,29.75 317.8906,29.125 Q316.9063,28.625 316.2188,27.5547 Q315.5313,26.4844 315.5313,25.2031 L315.5313,24.0469 Q315.5313,22.7188 316.1484,21.5703 Q316.7656,20.4219 317.8594,19.8047 Q318.9531,19.1875 320.1875,19.1875 Q320.9219,19.1875 321.5703,19.3516 Q322.2188,19.5156 322.7656,19.875 Z "/><text fill="#000000" font-family="sans-serif" font-size="12" lengthAdjust="spacingAndGlyphs" textLength="72" x="334" y="28.9102">Clase Base2</text><line style="stroke: #A80036; stroke-width: 1.5;" x1="306" x2="408" y1="40" y2="40"/><line style="stroke: #A80036; stroke-width: 1.5;" x1="306" x2="408" y1="48" y2="48"/><!--class ClaseDescendiente1--><rect fill="#FEFECE" filter="url(#f13fk7typzj1go)" height="48" id="ClaseDescendiente1" style="stroke: #A80036; stroke-width: 1.5;" width="152" x="6" y="116"/><ellipse cx="21" cy="132" fill="#ADD1B2" rx="11" ry="11" style="stroke: #A80036; stroke-width: 1.0;"/><path d="M23.7656,127.875 Q23.9219,127.6563 24.1094,127.5469 Q24.2969,127.4375 24.5156,127.4375 Q24.8906,127.4375 25.125,127.6953 Q25.3594,127.9531 25.3594,128.5625 L25.3594,130.0156 Q25.3594,130.625 25.125,130.8906 Q24.8906,131.1563 24.5156,131.1563 Q24.1719,131.1563 23.9688,130.9531 Q23.7656,130.7656 23.6563,130.25 Q23.6094,129.8906 23.4219,129.7031 Q23.0938,129.3281 22.4844,129.1094 Q21.875,128.8906 21.25,128.8906 Q20.4844,128.8906 19.8516,129.2188 Q19.2188,129.5469 18.7266,130.2969 Q18.2344,131.0469 18.2344,132.0781 L18.2344,133.1719 Q18.2344,134.4063 19.125,135.2266 Q20.0156,136.0469 21.6094,136.0469 Q22.5469,136.0469 23.2031,135.7969 Q23.5938,135.6406 24.0156,135.2031 Q24.2813,134.9375 24.4297,134.8594 Q24.5781,134.7813 24.7813,134.7813 Q25.1094,134.7813 25.3672,135.0391 Q25.625,135.2969 25.625,135.6406 Q25.625,135.9844 25.2813,136.3906 Q24.7813,136.9688 23.9844,137.2969 Q22.9063,137.75 21.6094,137.75 Q20.0938,137.75 18.8906,137.125 Q17.9063,136.625 17.2188,135.5547 Q16.5313,134.4844 16.5313,133.2031 L16.5313,132.0469 Q16.5313,130.7188 17.1484,129.5703 Q17.7656,128.4219 18.8594,127.8047 Q19.9531,127.1875 21.1875,127.1875 Q21.9219,127.1875 22.5703,127.3516 Q23.2188,127.5156 23.7656,127.875 Z "/><text fill="#000000" font-family="sans-serif" font-size="12" lengthAdjust="spacingAndGlyphs" textLength="120" x="35" y="136.9102">Clase Descendiente1</text><line style="stroke: #A80036; stroke-width: 1.5;" x1="7" x2="157" y1="148" y2="148"/><line style="stroke: #A80036; stroke-width: 1.5;" x1="7" x2="157" y1="156" y2="156"/><!--class ClaseDescendiente--><rect fill="#FEFECE" filter="url(#f13fk7typzj1go)" height="48" id="ClaseDescendiente" style="stroke: #A80036; stroke-width: 1.5;" width="145" x="193.5" y="116"/><ellipse cx="208.5" cy="132" fill="#ADD1B2" rx="11" ry="11" style="stroke: #A80036; stroke-width: 1.0;"/><path d="M211.2656,127.875 Q211.4219,127.6563 211.6094,127.5469 Q211.7969,127.4375 212.0156,127.4375 Q212.3906,127.4375 212.625,127.6953 Q212.8594,127.9531 212.8594,128.5625 L212.8594,130.0156 Q212.8594,130.625 212.625,130.8906 Q212.3906,131.1563 212.0156,131.1563 Q211.6719,131.1563 211.4688,130.9531 Q211.2656,130.7656 211.1563,130.25 Q211.1094,129.8906 210.9219,129.7031 Q210.5938,129.3281 209.9844,129.1094 Q209.375,128.8906 208.75,128.8906 Q207.9844,128.8906 207.3516,129.2188 Q206.7188,129.5469 206.2266,130.2969 Q205.7344,131.0469 205.7344,132.0781 L205.7344,133.1719 Q205.7344,134.4063 206.625,135.2266 Q207.5156,136.0469 209.1094,136.0469 Q210.0469,136.0469 210.7031,135.7969 Q211.0938,135.6406 211.5156,135.2031 Q211.7813,134.9375 211.9297,134.8594 Q212.0781,134.7813 212.2813,134.7813 Q212.6094,134.7813 212.8672,135.0391 Q213.125,135.2969 213.125,135.6406 Q213.125,135.9844 212.7813,136.3906 Q212.2813,136.9688 211.4844,137.2969 Q210.4063,137.75 209.1094,137.75 Q207.5938,137.75 206.3906,137.125 Q205.4063,136.625 204.7188,135.5547 Q204.0313,134.4844 204.0313,133.2031 L204.0313,132.0469 Q204.0313,130.7188 204.6484,129.5703 Q205.2656,128.4219 206.3594,127.8047 Q207.4531,127.1875 208.6875,127.1875 Q209.4219,127.1875 210.0703,127.3516 Q210.7188,127.5156 211.2656,127.875 Z "/><text fill="#000000" font-family="sans-serif" font-size="12" lengthAdjust="spacingAndGlyphs" textLength="113" x="222.5" y="136.9102">Clase Descendiente</text><line style="stroke: #A80036; stroke-width: 1.5;" x1="194.5" x2="337.5" y1="148" y2="148"/><line style="stroke: #A80036; stroke-width: 1.5;" x1="194.5" x2="337.5" y1="156" y2="156"/><!--class ClaseDescendiente2--><rect fill="#FEFECE" filter="url(#f13fk7typzj1go)" height="48" id="ClaseDescendiente2" style="stroke: #A80036; stroke-width: 1.5;" width="149" x="373.5" y="116"/><ellipse cx="388.5" cy="132" fill="#ADD1B2" rx="11" ry="11" style="stroke: #A80036; stroke-width: 1.0;"/><path d="M391.2656,127.875 Q391.4219,127.6563 391.6094,127.5469 Q391.7969,127.4375 392.0156,127.4375 Q392.3906,127.4375 392.625,127.6953 Q392.8594,127.9531 392.8594,128.5625 L392.8594,130.0156 Q392.8594,130.625 392.625,130.8906 Q392.3906,131.1563 392.0156,131.1563 Q391.6719,131.1563 391.4688,130.9531 Q391.2656,130.7656 391.1563,130.25 Q391.1094,129.8906 390.9219,129.7031 Q390.5938,129.3281 389.9844,129.1094 Q389.375,128.8906 388.75,128.8906 Q387.9844,128.8906 387.3516,129.2188 Q386.7188,129.5469 386.2266,130.2969 Q385.7344,131.0469 385.7344,132.0781 L385.7344,133.1719 Q385.7344,134.4063 386.625,135.2266 Q387.5156,136.0469 389.1094,136.0469 Q390.0469,136.0469 390.7031,135.7969 Q391.0938,135.6406 391.5156,135.2031 Q391.7813,134.9375 391.9297,134.8594 Q392.0781,134.7813 392.2813,134.7813 Q392.6094,134.7813 392.8672,135.0391 Q393.125,135.2969 393.125,135.6406 Q393.125,135.9844 392.7813,136.3906 Q392.2813,136.9688 391.4844,137.2969 Q390.4063,137.75 389.1094,137.75 Q387.5938,137.75 386.3906,137.125 Q385.4063,136.625 384.7188,135.5547 Q384.0313,134.4844 384.0313,133.2031 L384.0313,132.0469 Q384.0313,130.7188 384.6484,129.5703 Q385.2656,128.4219 386.3594,127.8047 Q387.4531,127.1875 388.6875,127.1875 Q389.4219,127.1875 390.0703,127.3516 Q390.7188,127.5156 391.2656,127.875 Z "/><text fill="#000000" font-family="sans-serif" font-size="12" lengthAdjust="spacingAndGlyphs" textLength="117" x="402.5" y="136.9102">ClaseDescendiente2</text><line style="stroke: #A80036; stroke-width: 1.5;" x1="374.5" x2="521.5" y1="148" y2="148"/><line style="stroke: #A80036; stroke-width: 1.5;" x1="374.5" x2="521.5" y1="156" y2="156"/><!--link ClaseBase1 to ClaseDescendiente1--><path d="M95.0706,76.0236 C92.2572,89.5792 89.2562,104.0381 86.8403,115.6784 " fill="none" id="ClaseBase1-ClaseDescendiente1" style="stroke: #A80036; stroke-width: 1.0;"/><polygon fill="none" points="88.308,74.1606,99.2263,56,102.0159,77.0056,88.308,74.1606" style="stroke: #A80036; stroke-width: 1.0;"/><!--link ClaseBase1 to ClaseDescendiente--><path d="M156.034,67.0468 C180.405,82.9931 208.804,101.5758 230.638,115.8617 " fill="none" id="ClaseBase1-ClaseDescendiente" style="stroke: #A80036; stroke-width: 1.0;"/><polygon fill="none" points="152.055,72.8085,139.152,56,159.72,61.094,152.055,72.8085" style="stroke: #A80036; stroke-width: 1.0;"/><!--link ClaseBase2 to ClaseDescendiente--><path d="M324.182,71.227 C311.417,86.0966 297.204,102.6523 286.021,115.6784 " fill="none" id="ClaseBase2-ClaseDescendiente" style="stroke: #A80036; stroke-width: 1.0;"/><polygon fill="none" points="318.915,66.6158,337.254,56,329.538,75.7351,318.915,66.6158" style="stroke: #A80036; stroke-width: 1.0;"/><!--link ClaseBase2 to ClaseDescendiente2--><path d="M389.818,71.227 C402.583,86.0966 416.796,102.6523 427.979,115.6784 " fill="none" id="ClaseBase2-ClaseDescendiente2" style="stroke: #A80036; stroke-width: 1.0;"/><polygon fill="none" points="384.462,75.7351,376.746,56,395.085,66.6158,384.462,75.7351" style="stroke: #A80036; stroke-width: 1.0;"/><!--
@startuml

class "Clase Base1" as ClaseBase1
class "Clase Base2" as ClaseBase2
class "Clase Descendiente1" as ClaseDescendiente1
class "Clase Descendiente" as ClaseDescendiente
class "Clase Descendiente2" as ClaseDescendiente1

ClaseBase1 <|-down-ClaseDescendiente1
ClaseBase1 <|-down-ClaseDescendiente
ClaseBase2 <|-down-ClaseDescendiente
ClaseBase2 <|-down-ClaseDescendiente2

@enduml

PlantUML version 1.2019.05(Sat Apr 20 18:45:36 CEST 2019)
(GPL source distribution)
Java Runtime: Java(TM) SE Runtime Environment
JVM: Java HotSpot(TM) 64-Bit Server VM
Java Version: 1.8.0_211-b12
Operating System: Windows 10
OS Version: 10.0
Default Encoding: windows-1252
Language: es
Country: ES
--></g></svg>