<?xml version="1.0" encoding="UTF-8" standalone="no"?><svg xmlns="http://www.w3.org/2000/svg" xmlns:xlink="http://www.w3.org/1999/xlink" contentScriptType="application/ecmascript" contentStyleType="text/css" height="328px" preserveAspectRatio="none" style="width:534px;height:328px;" version="1.1" viewBox="0 0 534 328" width="534px" zoomAndPan="magnify"><defs><filter height="300%" id="fvx4ijolqp29" width="300%" x="-1" y="-1"><feGaussianBlur result="blurOut" stdDeviation="2.0"/><feColorMatrix in="blurOut" result="blurOut2" type="matrix" values="0 0 0 0 0 0 0 0 0 0 0 0 0 0 0 0 0 0 .4 0"/><feOffset dx="4.0" dy="4.0" in="blurOut2" result="blurOut3"/><feBlend in="SourceGraphic" in2="blurOut3" mode="normal"/></filter></defs><g><!--entity DesarrolladorSoftware--><ellipse cx="147" cy="50" fill="#FEFECE" filter="url(#fvx4ijolqp29)" rx="8" ry="8" style="stroke: #A80036; stroke-width: 2.0;"/><path d="M147,58 L147,85 M134,66 L160,66 M147,85 L134,100 M147,85 L160,100 " fill="none" filter="url(#fvx4ijolqp29)" style="stroke: #A80036; stroke-width: 2.0;"/><text fill="#000000" font-family="sans-serif" font-size="14" lengthAdjust="spacingAndGlyphs" textLength="145" x="74.5" y="121.5332">Desarrollador Software</text><ellipse cx="86.7548" cy="200.4517" fill="#FEFECE" filter="url(#fvx4ijolqp29)" rx="48.2548" ry="15.4517" style="stroke: #A80036; stroke-width: 1.5;"/><text fill="#000000" font-family="sans-serif" font-size="14" lengthAdjust="spacingAndGlyphs" textLength="64" x="54.7548" y="205.7564">Requisitar</text><ellipse cx="215.0122" cy="200.4517" fill="#FEFECE" filter="url(#fvx4ijolqp29)" rx="44.0122" ry="15.4517" style="stroke: #A80036; stroke-width: 1.5;"/><text fill="#000000" font-family="sans-serif" font-size="14" lengthAdjust="spacingAndGlyphs" textLength="58" x="186.0122" y="205.7564">Implantar</text><!--entity User--><ellipse cx="406" cy="50" fill="#FEFECE" filter="url(#fvx4ijolqp29)" rx="8" ry="8" style="stroke: #A80036; stroke-width: 2.0;"/><path d="M406,58 L406,85 M393,66 L419,66 M406,85 L393,100 M406,85 L419,100 " fill="none" filter="url(#fvx4ijolqp29)" style="stroke: #A80036; stroke-width: 2.0;"/><text fill="#000000" font-family="sans-serif" font-size="14" lengthAdjust="spacingAndGlyphs" textLength="29" x="391.5" y="121.5332">User</text><ellipse cx="406.0624" cy="200.4517" fill="#FEFECE" filter="url(#fvx4ijolqp29)" rx="39.0624" ry="15.4517" style="stroke: #A80036; stroke-width: 1.5;"/><text fill="#000000" font-family="sans-serif" font-size="14" lengthAdjust="spacingAndGlyphs" textLength="51" x="380.5624" y="205.7564">Explotar</text><!--entity Software--><polygon fill="#FEFECE" filter="url(#fvx4ijolqp29)" points="172.5,276,233.5,276,240.5,299.6094,257.5,299.6094,257.5,316.6094,172.5,316.6094,172.5,276" style="stroke: #000000; stroke-width: 1.5;"/><line style="stroke: #000000; stroke-width: 1.5;" x1="172.5" x2="240.5" y1="299.6094" y2="299.6094"/><text fill="#000000" font-family="sans-serif" font-size="14" lengthAdjust="spacingAndGlyphs" textLength="55" x="176.5" y="293.5332">Software</text><!--entity Resultado--><polygon fill="#FEFECE" filter="url(#fvx4ijolqp29)" points="418,276,488,276,495,299.6094,512,299.6094,512,316.6094,418,316.6094,418,276" style="stroke: #000000; stroke-width: 1.5;"/><line style="stroke: #000000; stroke-width: 1.5;" x1="418" x2="495" y1="299.6094" y2="299.6094"/><text fill="#000000" font-family="sans-serif" font-size="14" lengthAdjust="spacingAndGlyphs" textLength="64" x="422" y="293.5332">Resultado</text><!--entity Requisitos--><polygon fill="#FEFECE" filter="url(#fvx4ijolqp29)" points="41,276,113,276,120,299.6094,137,299.6094,137,316.6094,41,316.6094,41,276" style="stroke: #000000; stroke-width: 1.5;"/><line style="stroke: #000000; stroke-width: 1.5;" x1="41" x2="120" y1="299.6094" y2="299.6094"/><text fill="#000000" font-family="sans-serif" font-size="14" lengthAdjust="spacingAndGlyphs" textLength="66" x="45" y="293.5332">Requisitos</text><!--entity Hardware--><polygon fill="#FEFECE" filter="url(#fvx4ijolqp29)" points="293,276,359,276,366,299.6094,383,299.6094,383,316.6094,293,316.6094,293,276" style="stroke: #000000; stroke-width: 1.5;"/><line style="stroke: #000000; stroke-width: 1.5;" x1="293" x2="366" y1="299.6094" y2="299.6094"/><text fill="#000000" font-family="sans-serif" font-size="14" lengthAdjust="spacingAndGlyphs" textLength="60" x="297" y="293.5332">Hardware</text><!--entity Cliente--><ellipse cx="313" cy="50" fill="#FEFECE" filter="url(#fvx4ijolqp29)" rx="8" ry="8" style="stroke: #A80036; stroke-width: 2.0;"/><path d="M313,58 L313,85 M300,66 L326,66 M313,85 L300,100 M313,85 L326,100 " fill="none" filter="url(#fvx4ijolqp29)" style="stroke: #A80036; stroke-width: 2.0;"/><text fill="#000000" font-family="sans-serif" font-size="14" lengthAdjust="spacingAndGlyphs" textLength="44" x="291" y="121.5332">Cliente</text><!--link Requisitar to Requisitos--><path d="M87.3125,216.187 C87.6211,230.694 88.0992,253.1601 88.4677,270.4833 " fill="none" id="Requisitar-Requisitos" style="stroke: #A80036; stroke-width: 1.0; stroke-dasharray: 7.0,7.0;"/><polygon fill="#A80036" points="88.5783,275.6799,92.3858,266.5968,88.4719,270.681,84.3876,266.7671,88.5783,275.6799" style="stroke: #A80036; stroke-width: 1.0;"/><!--link Implantar to Requisitos--><path d="M197.215,214.769 C177.079,229.79 143.919,254.5285 119.604,272.6683 " fill="none" id="Implantar-Requisitos" style="stroke: #A80036; stroke-width: 1.0; stroke-dasharray: 7.0,7.0;"/><polygon fill="#A80036" points="115.477,275.7471,125.083,273.5734,119.4852,272.7581,120.3005,267.1603,115.477,275.7471" style="stroke: #A80036; stroke-width: 1.0;"/><!--link Implantar to Hardware--><path d="M232.362,214.769 C252.018,229.79 284.388,254.5285 308.124,272.6683 " fill="none" id="Implantar-Hardware" style="stroke: #A80036; stroke-width: 1.0; stroke-dasharray: 7.0,7.0;"/><polygon fill="#A80036" points="312.153,275.7471,307.4305,267.1043,308.1801,272.7113,302.5732,273.4609,312.153,275.7471" style="stroke: #A80036; stroke-width: 1.0;"/><!--link Implantar to Software--><path d="M215,216.187 C215,230.694 215,253.1601 215,270.4833 " fill="none" id="Implantar-Software" style="stroke: #A80036; stroke-width: 1.0; stroke-dasharray: 7.0,7.0;"/><polygon fill="#A80036" points="215,275.6799,219,266.6799,215,270.6799,211,266.6799,215,275.6799" style="stroke: #A80036; stroke-width: 1.0;"/><!--link Explotar to Hardware--><path d="M395.672,215.777 C384.986,230.549 368.106,253.8834 355.363,271.4982 " fill="none" id="Explotar-Hardware" style="stroke: #A80036; stroke-width: 1.0; stroke-dasharray: 7.0,7.0;"/><polygon fill="#A80036" points="352.219,275.8446,360.7357,270.8983,355.1502,271.7939,354.2546,266.2084,352.219,275.8446" style="stroke: #A80036; stroke-width: 1.0;"/><!--link Explotar to Software--><path d="M376.156,210.543 C348.955,219.352 308.091,234.024 275,252 C264.118,257.9113 252.937,265.5266 243.221,272.7291 " fill="none" id="Explotar-Software" style="stroke: #A80036; stroke-width: 1.0; stroke-dasharray: 7.0,7.0;"/><polygon fill="#A80036" points="239.151,275.7844,248.7496,273.5782,243.1491,272.7818,243.9454,267.1813,239.151,275.7844" style="stroke: #A80036; stroke-width: 1.0;"/><!--link Explotar to Resultado--><path d="M414.961,215.777 C424.233,230.549 438.879,253.8834 449.935,271.4982 " fill="none" id="Explotar-Resultado" style="stroke: #A80036; stroke-width: 1.0; stroke-dasharray: 7.0,7.0;"/><polygon fill="#A80036" points="452.663,275.8446,451.2656,266.0954,450.0046,271.6099,444.4901,270.3488,452.663,275.8446" style="stroke: #A80036; stroke-width: 1.0;"/><!--link Cliente to Explotar--><path d="M335.04,110.99 C352.518,132.791 376.441,162.63 391.558,181.486 " fill="none" id="Cliente-Explotar" style="stroke: #A80036; stroke-width: 1.0;"/><polygon fill="#A80036" points="394.83,185.567,392.3185,176.0438,391.7013,181.6668,386.0782,181.0497,394.83,185.567" style="stroke: #A80036; stroke-width: 1.0;"/><!--link Cliente to Requisitar--><path d="M290.887,111.244 C286.024,116.259 280.631,121.12 275,125 C229.487,156.361 168.853,177.325 128.909,188.819 " fill="none" id="Cliente-Requisitar" style="stroke: #A80036; stroke-width: 1.0;"/><polygon fill="#A80036" points="123.657,190.31,133.4073,191.6997,128.4669,188.9443,131.2222,184.0039,123.657,190.31" style="stroke: #A80036; stroke-width: 1.0;"/><!--link DesarrolladorSoftware to Requisitar--><path d="M125.508,125.051 C115.78,143.858 104.7514,165.181 96.9974,180.172 " fill="none" id="DesarrolladorSoftware-Requisitar" style="stroke: #A80036; stroke-width: 1.0;"/><polygon fill="#A80036" points="94.4999,185,102.1876,178.8437,96.797,180.5589,95.0818,175.1683,94.4999,185" style="stroke: #A80036; stroke-width: 1.0;"/><!--link DesarrolladorSoftware to Implantar--><path d="M171.357,125.051 C182.547,144.139 195.256,165.819 204.062,180.84 " fill="none" id="DesarrolladorSoftware-Implantar" style="stroke: #A80036; stroke-width: 1.0;"/><polygon fill="#A80036" points="206.663,185.278,205.5617,175.4909,204.1341,180.9647,198.6604,179.5371,206.663,185.278" style="stroke: #A80036; stroke-width: 1.0;"/><!--link User to Explotar--><path d="M406,125.051 C406,143.579 406,164.548 406,179.5 " fill="none" id="User-Explotar" style="stroke: #A80036; stroke-width: 1.0;"/><polygon fill="#A80036" points="406,184.72,410,175.72,406,179.72,402,175.72,406,184.72" style="stroke: #A80036; stroke-width: 1.0;"/><!--
@startuml
allow_mixing

actor Cliente
together {
actor "Desarrollador Software" as DesarrolladorSoftware
usecase Requisitar
usecase Implantar
}
together {
actor User
usecase Explotar
}

together {
package Software
package Resultado
package Requisitos
package Hardware
}

Requisitar ..> Requisitos
Implantar ..> Requisitos
Implantar ..> Hardware
Implantar ..> Software
Explotar ..> Hardware
Explotar ..> Software
Explotar ..> Resultado
Cliente - -> Explotar
Cliente - -> Requisitar
DesarrolladorSoftware - -> Requisitar
DesarrolladorSoftware - -> Implantar
User - -> Explotar
@enduml

PlantUML version 1.2019.05(Sat Apr 20 18:45:36 CEST 2019)
(GPL source distribution)
Java Runtime: Java(TM) SE Runtime Environment
JVM: Java HotSpot(TM) 64-Bit Server VM
Java Version: 1.8.0_211-b12
Operating System: Windows 10
OS Version: 10.0
Default Encoding: windows-1252
Language: es
Country: ES
--></g></svg>