<?xml version="1.0" encoding="UTF-8" standalone="no"?><svg xmlns="http://www.w3.org/2000/svg" xmlns:xlink="http://www.w3.org/1999/xlink" contentScriptType="application/ecmascript" contentStyleType="text/css" height="514px" preserveAspectRatio="none" style="width:777px;height:514px;" version="1.1" viewBox="0 0 777 514" width="777px" zoomAndPan="magnify"><defs><filter height="300%" id="f1py1hsvkv9t8e" width="300%" x="-1" y="-1"><feGaussianBlur result="blurOut" stdDeviation="2.0"/><feColorMatrix in="blurOut" result="blurOut2" type="matrix" values="0 0 0 0 0 0 0 0 0 0 0 0 0 0 0 0 0 0 .4 0"/><feOffset dx="4.0" dy="4.0" in="blurOut2" result="blurOut3"/><feBlend in="SourceGraphic" in2="blurOut3" mode="normal"/></filter></defs><g><ellipse cx="298" cy="20" fill="#000000" filter="url(#f1py1hsvkv9t8e)" rx="10" ry="10" style="stroke: none; stroke-width: 1.0;"/><polygon fill="#FEFECE" filter="url(#f1py1hsvkv9t8e)" points="298,94,298,94,310,106,298,118,298,118,286,106,298,94" style="stroke: #A80036; stroke-width: 1.5;"/><text fill="#000000" font-family="sans-serif" font-size="11" lengthAdjust="spacingAndGlyphs" textLength="57" x="229" y="103.583">primera vez</text><text fill="#000000" font-family="sans-serif" font-size="11" lengthAdjust="spacingAndGlyphs" textLength="0" x="313" y="103.583"/><rect fill="#FEFECE" filter="url(#f1py1hsvkv9t8e)" height="35.0938" rx="12.5" ry="12.5" style="stroke: #A80036; stroke-width: 1.5;" width="199" x="62" y="128"/><text fill="#000000" font-family="sans-serif" font-size="12" lengthAdjust="spacingAndGlyphs" textLength="179" x="72" y="150.457">Seleccionar en la clase Principal</text><rect fill="#FEFECE" filter="url(#f1py1hsvkv9t8e)" height="35.0938" rx="12.5" ry="12.5" style="stroke: #A80036; stroke-width: 1.5;" width="275" x="24" y="183.0938"/><text fill="#000000" font-family="sans-serif" font-size="12" lengthAdjust="spacingAndGlyphs" textLength="255" x="34" y="205.5508">Definir la interfaz de un único método y el main</text><path d="M570,132.3711 L570,141.5469 L550,145.5469 L570,149.5469 L570,158.7227 A0,0 0 0 0 570,158.7227 L737,158.7227 A0,0 0 0 0 737,158.7227 L737,142.3711 L727,132.3711 L570,132.3711 A0,0 0 0 0 570,132.3711 " fill="#FBFB77" filter="url(#f1py1hsvkv9t8e)" style="stroke: #A80036; stroke-width: 1.0;"/><path d="M727,132.3711 L727,142.3711 L737,142.3711 L727,132.3711 " fill="#FBFB77" style="stroke: #A80036; stroke-width: 1.0;"/><text fill="#000000" font-family="sans-serif" font-size="13" lengthAdjust="spacingAndGlyphs" textLength="146" x="576" y="150.8662">¡La que más miedo te dé!</text><rect fill="#FEFECE" filter="url(#f1py1hsvkv9t8e)" height="35.0938" rx="12.5" ry="12.5" style="stroke: #A80036; stroke-width: 1.5;" width="231" x="319" y="128"/><text fill="#000000" font-family="sans-serif" font-size="12" lengthAdjust="spacingAndGlyphs" textLength="211" x="329" y="150.457">Seleccionar en la clase de más riesgo</text><rect fill="#FEFECE" filter="url(#f1py1hsvkv9t8e)" height="35.0938" rx="12.5" ry="12.5" style="stroke: #A80036; stroke-width: 1.5;" width="205" x="332" y="183.0938"/><text fill="#000000" font-family="sans-serif" font-size="12" lengthAdjust="spacingAndGlyphs" textLength="185" x="342" y="205.5508">Enfocar en la interfaz recapitulada</text><polygon fill="#FEFECE" filter="url(#f1py1hsvkv9t8e)" points="298,224.1875,310,236.1875,298,248.1875,286,236.1875,298,224.1875" style="stroke: #A80036; stroke-width: 1.5;"/><rect fill="#FEFECE" filter="url(#f1py1hsvkv9t8e)" height="35.0938" rx="12.5" ry="12.5" style="stroke: #A80036; stroke-width: 1.5;" width="576" x="10" y="272.6406"/><text fill="#000000" font-family="sans-serif" font-size="12" lengthAdjust="spacingAndGlyphs" textLength="556" x="20" y="295.0977">Definir los objetos atributos de clases colaboradoas necesarias para la implantación de los métodos</text><rect fill="#FEFECE" filter="url(#f1py1hsvkv9t8e)" height="35.0938" rx="12.5" ry="12.5" style="stroke: #A80036; stroke-width: 1.5;" width="454" x="71" y="327.7344"/><text fill="#000000" font-family="sans-serif" font-size="12" lengthAdjust="spacingAndGlyphs" textLength="434" x="81" y="350.1914">Definir los métodos enviando mensajes a los objetos de clases colaboradoras</text><rect fill="#FEFECE" filter="url(#f1py1hsvkv9t8e)" height="35.0938" rx="12.5" ry="12.5" style="stroke: #A80036; stroke-width: 1.5;" width="407" x="94.5" y="382.8281"/><text fill="#000000" font-family="sans-serif" font-size="12" lengthAdjust="spacingAndGlyphs" textLength="387" x="104.5" y="405.2852">Recapitular todas las clases con métodos pendientes de implementar</text><polygon fill="#FEFECE" filter="url(#f1py1hsvkv9t8e)" points="298,50,310,62,298,74,286,62,298,50" style="stroke: #A80036; stroke-width: 1.5;"/><polygon fill="#FEFECE" filter="url(#f1py1hsvkv9t8e)" points="206,437.9219,390,437.9219,402,449.9219,390,461.9219,206,461.9219,194,449.9219,206,437.9219" style="stroke: #A80036; stroke-width: 1.5;"/><text fill="#000000" font-family="sans-serif" font-size="11" lengthAdjust="spacingAndGlyphs" textLength="184" x="206" y="454.4229">hay clases recapituladas sin implantar</text><ellipse cx="298" cy="492.9219" fill="#FFFFFF" filter="url(#f1py1hsvkv9t8e)" rx="11" ry="11" style="stroke: #000000; stroke-width: 1.0;"/><ellipse cx="298" cy="492.9219" fill="#000000" rx="6" ry="6" style="stroke: #7F7F7F; stroke-width: 1.0;"/><line style="stroke: #A80036; stroke-width: 1.5;" x1="161.5" x2="161.5" y1="163.0938" y2="183.0938"/><polygon fill="#A80036" points="157.5,173.0938,161.5,183.0938,165.5,173.0938,161.5,177.0938" style="stroke: #A80036; stroke-width: 1.0;"/><line style="stroke: #A80036; stroke-width: 1.5;" x1="434.5" x2="434.5" y1="163.0938" y2="183.0938"/><polygon fill="#A80036" points="430.5,173.0938,434.5,183.0938,438.5,173.0938,434.5,177.0938" style="stroke: #A80036; stroke-width: 1.0;"/><line style="stroke: #A80036; stroke-width: 1.5;" x1="286" x2="161.5" y1="106" y2="106"/><line style="stroke: #A80036; stroke-width: 1.5;" x1="161.5" x2="161.5" y1="106" y2="128"/><polygon fill="#A80036" points="157.5,118,161.5,128,165.5,118,161.5,122" style="stroke: #A80036; stroke-width: 1.0;"/><line style="stroke: #A80036; stroke-width: 1.5;" x1="310" x2="434.5" y1="106" y2="106"/><line style="stroke: #A80036; stroke-width: 1.5;" x1="434.5" x2="434.5" y1="106" y2="128"/><polygon fill="#A80036" points="430.5,118,434.5,128,438.5,118,434.5,122" style="stroke: #A80036; stroke-width: 1.0;"/><line style="stroke: #A80036; stroke-width: 1.5;" x1="161.5" x2="161.5" y1="218.1875" y2="236.1875"/><line style="stroke: #A80036; stroke-width: 1.5;" x1="161.5" x2="286" y1="236.1875" y2="236.1875"/><polygon fill="#A80036" points="276,232.1875,286,236.1875,276,240.1875,280,236.1875" style="stroke: #A80036; stroke-width: 1.0;"/><line style="stroke: #A80036; stroke-width: 1.5;" x1="434.5" x2="434.5" y1="218.1875" y2="236.1875"/><line style="stroke: #A80036; stroke-width: 1.5;" x1="434.5" x2="310" y1="236.1875" y2="236.1875"/><polygon fill="#A80036" points="320,232.1875,310,236.1875,320,240.1875,316,236.1875" style="stroke: #A80036; stroke-width: 1.0;"/><line style="stroke: #A80036; stroke-width: 1.5;" x1="298" x2="298" y1="248.1875" y2="272.6406"/><polygon fill="#A80036" points="294,262.6406,298,272.6406,302,262.6406,298,266.6406" style="stroke: #A80036; stroke-width: 1.0;"/><line style="stroke: #A80036; stroke-width: 1.5;" x1="298" x2="298" y1="307.7344" y2="327.7344"/><polygon fill="#A80036" points="294,317.7344,298,327.7344,302,317.7344,298,321.7344" style="stroke: #A80036; stroke-width: 1.0;"/><line style="stroke: #A80036; stroke-width: 1.5;" x1="298" x2="298" y1="362.8281" y2="382.8281"/><polygon fill="#A80036" points="294,372.8281,298,382.8281,302,372.8281,298,376.8281" style="stroke: #A80036; stroke-width: 1.0;"/><line style="stroke: #A80036; stroke-width: 1.5;" x1="298" x2="298" y1="74" y2="94"/><polygon fill="#A80036" points="294,84,298,94,302,84,298,88" style="stroke: #A80036; stroke-width: 1.0;"/><line style="stroke: #A80036; stroke-width: 1.5;" x1="402" x2="751" y1="449.9219" y2="449.9219"/><polygon fill="#A80036" points="747,268.1875,751,258.1875,755,268.1875,751,264.1875" style="stroke: #A80036; stroke-width: 1.5;"/><line style="stroke: #A80036; stroke-width: 1.5;" x1="751" x2="751" y1="62" y2="449.9219"/><line style="stroke: #A80036; stroke-width: 1.5;" x1="751" x2="310" y1="62" y2="62"/><polygon fill="#A80036" points="320,58,310,62,320,66,316,62" style="stroke: #A80036; stroke-width: 1.0;"/><line style="stroke: #A80036; stroke-width: 1.5;" x1="298" x2="298" y1="417.9219" y2="437.9219"/><polygon fill="#A80036" points="294,427.9219,298,437.9219,302,427.9219,298,431.9219" style="stroke: #A80036; stroke-width: 1.0;"/><line style="stroke: #A80036; stroke-width: 1.5;" x1="298" x2="298" y1="30" y2="50"/><polygon fill="#A80036" points="294,40,298,50,302,40,298,44" style="stroke: #A80036; stroke-width: 1.0;"/><line style="stroke: #A80036; stroke-width: 1.5;" x1="298" x2="298" y1="461.9219" y2="481.9219"/><polygon fill="#A80036" points="294,471.9219,298,481.9219,302,471.9219,298,475.9219" style="stroke: #A80036; stroke-width: 1.0;"/><!--
@startuml

start
repeat
  if () then (primera vez)
    :Seleccionar en la clase Principal;
    :Definir la interfaz de un único método y el main;
  else ()
    :Seleccionar en la clase de más riesgo;
    note right: ¡La que más miedo te dé!
    :Enfocar en la interfaz recapitulada;
  endif
  :Definir los objetos atributos de clases colaboradoas necesarias para la implantación de los métodos;
  :Definir los métodos enviando mensajes a los objetos de clases colaboradoras;
  :Recapitular todas las clases con métodos pendientes de implementar;
repeat while (hay clases recapituladas sin implantar)
stop
@enduml

PlantUML version 1.2019.05(Sat Apr 20 18:45:36 CEST 2019)
(GPL source distribution)
Java Runtime: OpenJDK Runtime Environment
JVM: OpenJDK 64-Bit Server VM
Java Version: 1.8.0_222-b10
Operating System: Windows 10
OS Version: 10.0
Default Encoding: windows-1252
Language: es
Country: ES
--></g></svg>