<?xml version="1.0" encoding="UTF-8" standalone="no"?><svg xmlns="http://www.w3.org/2000/svg" xmlns:xlink="http://www.w3.org/1999/xlink" contentScriptType="application/ecmascript" contentStyleType="text/css" height="684px" preserveAspectRatio="none" style="width:1021px;height:684px;" version="1.1" viewBox="0 0 1021 684" width="1021px" zoomAndPan="magnify"><defs><filter height="300%" id="f154d3zyebqx9h" width="300%" x="-1" y="-1"><feGaussianBlur result="blurOut" stdDeviation="2.0"/><feColorMatrix in="blurOut" result="blurOut2" type="matrix" values="0 0 0 0 0 0 0 0 0 0 0 0 0 0 0 0 0 0 .4 0"/><feOffset dx="4.0" dy="4.0" in="blurOut2" result="blurOut3"/><feBlend in="SourceGraphic" in2="blurOut3" mode="normal"/></filter></defs><g><!--class Alumno--><rect fill="#FEFECE" filter="url(#f154d3zyebqx9h)" height="269.375" id="Alumno" style="stroke: #A80036; stroke-width: 1.5;" width="100" x="478.5" y="8"/><ellipse cx="505.2" cy="24" fill="#ADD1B2" rx="11" ry="11" style="stroke: #A80036; stroke-width: 1.0;"/><path d="M507.9656,19.875 Q508.1219,19.6563 508.3094,19.5469 Q508.4969,19.4375 508.7156,19.4375 Q509.0906,19.4375 509.325,19.6953 Q509.5594,19.9531 509.5594,20.5625 L509.5594,22.0156 Q509.5594,22.625 509.325,22.8906 Q509.0906,23.1563 508.7156,23.1563 Q508.3719,23.1563 508.1688,22.9531 Q507.9656,22.7656 507.8563,22.25 Q507.8094,21.8906 507.6219,21.7031 Q507.2938,21.3281 506.6844,21.1094 Q506.075,20.8906 505.45,20.8906 Q504.6844,20.8906 504.0516,21.2188 Q503.4188,21.5469 502.9266,22.2969 Q502.4344,23.0469 502.4344,24.0781 L502.4344,25.1719 Q502.4344,26.4063 503.325,27.2266 Q504.2156,28.0469 505.8094,28.0469 Q506.7469,28.0469 507.4031,27.7969 Q507.7938,27.6406 508.2156,27.2031 Q508.4813,26.9375 508.6297,26.8594 Q508.7781,26.7813 508.9813,26.7813 Q509.3094,26.7813 509.5672,27.0391 Q509.825,27.2969 509.825,27.6406 Q509.825,27.9844 509.4813,28.3906 Q508.9813,28.9688 508.1844,29.2969 Q507.1063,29.75 505.8094,29.75 Q504.2938,29.75 503.0906,29.125 Q502.1063,28.625 501.4188,27.5547 Q500.7313,26.4844 500.7313,25.2031 L500.7313,24.0469 Q500.7313,22.7188 501.3484,21.5703 Q501.9656,20.4219 503.0594,19.8047 Q504.1531,19.1875 505.3875,19.1875 Q506.1219,19.1875 506.7703,19.3516 Q507.4188,19.5156 507.9656,19.875 Z "/><text fill="#000000" font-family="sans-serif" font-size="12" lengthAdjust="spacingAndGlyphs" textLength="42" x="521.8" y="28.9102">Alumno</text><line style="stroke: #A80036; stroke-width: 1.5;" x1="479.5" x2="577.5" y1="40" y2="40"/><text fill="#000000" font-family="sans-serif" font-size="11" lengthAdjust="spacingAndGlyphs" textLength="42" x="484.5" y="55.4189">profesor</text><text fill="#000000" font-family="sans-serif" font-size="11" lengthAdjust="spacingAndGlyphs" textLength="67" x="484.5" y="69.2549">setCalification</text><text fill="#000000" font-family="sans-serif" font-size="11" lengthAdjust="spacingAndGlyphs" textLength="67" x="484.5" y="83.0908">getCalification</text><text fill="#000000" font-family="sans-serif" font-size="11" lengthAdjust="spacingAndGlyphs" textLength="78" x="484.5" y="96.9268">scaleCalification</text><text fill="#000000" font-family="sans-serif" font-size="11" lengthAdjust="spacingAndGlyphs" textLength="88" x="484.5" y="110.7627">removeCalification</text><text fill="#000000" font-family="sans-serif" font-size="11" lengthAdjust="spacingAndGlyphs" textLength="31" x="484.5" y="124.5986">create</text><text fill="#000000" font-family="sans-serif" font-size="11" lengthAdjust="spacingAndGlyphs" textLength="33" x="484.5" y="138.4346">update</text><text fill="#000000" font-family="sans-serif" font-size="11" lengthAdjust="spacingAndGlyphs" textLength="36" x="484.5" y="152.2705">remove</text><text fill="#000000" font-family="sans-serif" font-size="11" lengthAdjust="spacingAndGlyphs" textLength="39" x="484.5" y="166.1064">findById</text><text fill="#000000" font-family="sans-serif" font-size="11" lengthAdjust="spacingAndGlyphs" textLength="58" x="484.5" y="179.9424">findByName</text><text fill="#000000" font-family="sans-serif" font-size="11" lengthAdjust="spacingAndGlyphs" textLength="65" x="484.5" y="193.7783">onClickButton</text><text fill="#000000" font-family="sans-serif" font-size="11" lengthAdjust="spacingAndGlyphs" textLength="49" x="484.5" y="207.6143">onChange</text><text fill="#000000" font-family="sans-serif" font-size="11" lengthAdjust="spacingAndGlyphs" textLength="32" x="484.5" y="221.4502">render</text><text fill="#000000" font-family="sans-serif" font-size="11" lengthAdjust="spacingAndGlyphs" textLength="24" x="484.5" y="235.2861">send</text><text fill="#000000" font-family="sans-serif" font-size="11" lengthAdjust="spacingAndGlyphs" textLength="36" x="484.5" y="249.1221">receive</text><text fill="#000000" font-family="sans-serif" font-size="11" lengthAdjust="spacingAndGlyphs" textLength="9" x="484.5" y="262.958">...</text><line style="stroke: #A80036; stroke-width: 1.5;" x1="479.5" x2="577.5" y1="269.375" y2="269.375"/><!--class Profesor--><rect fill="#FEFECE" filter="url(#f154d3zyebqx9h)" height="227.8672" id="Profesor" style="stroke: #A80036; stroke-width: 1.5;" width="97" x="429" y="337"/><ellipse cx="452.1" cy="353" fill="#ADD1B2" rx="11" ry="11" style="stroke: #A80036; stroke-width: 1.0;"/><path d="M454.8656,348.875 Q455.0219,348.6563 455.2094,348.5469 Q455.3969,348.4375 455.6156,348.4375 Q455.9906,348.4375 456.225,348.6953 Q456.4594,348.9531 456.4594,349.5625 L456.4594,351.0156 Q456.4594,351.625 456.225,351.8906 Q455.9906,352.1563 455.6156,352.1563 Q455.2719,352.1563 455.0688,351.9531 Q454.8656,351.7656 454.7563,351.25 Q454.7094,350.8906 454.5219,350.7031 Q454.1938,350.3281 453.5844,350.1094 Q452.975,349.8906 452.35,349.8906 Q451.5844,349.8906 450.9516,350.2188 Q450.3188,350.5469 449.8266,351.2969 Q449.3344,352.0469 449.3344,353.0781 L449.3344,354.1719 Q449.3344,355.4063 450.225,356.2266 Q451.1156,357.0469 452.7094,357.0469 Q453.6469,357.0469 454.3031,356.7969 Q454.6938,356.6406 455.1156,356.2031 Q455.3813,355.9375 455.5297,355.8594 Q455.6781,355.7813 455.8813,355.7813 Q456.2094,355.7813 456.4672,356.0391 Q456.725,356.2969 456.725,356.6406 Q456.725,356.9844 456.3813,357.3906 Q455.8813,357.9688 455.0844,358.2969 Q454.0063,358.75 452.7094,358.75 Q451.1938,358.75 449.9906,358.125 Q449.0063,357.625 448.3188,356.5547 Q447.6313,355.4844 447.6313,354.2031 L447.6313,353.0469 Q447.6313,351.7188 448.2484,350.5703 Q448.8656,349.4219 449.9594,348.8047 Q451.0531,348.1875 452.2875,348.1875 Q453.0219,348.1875 453.6703,348.3516 Q454.3188,348.5156 454.8656,348.875 Z "/><text fill="#000000" font-family="sans-serif" font-size="12" lengthAdjust="spacingAndGlyphs" textLength="47" x="467.9" y="357.9102">Profesor</text><line style="stroke: #A80036; stroke-width: 1.5;" x1="430" x2="525" y1="369" y2="369"/><text fill="#000000" font-family="sans-serif" font-size="11" lengthAdjust="spacingAndGlyphs" textLength="31" x="435" y="384.4189">create</text><text fill="#000000" font-family="sans-serif" font-size="11" lengthAdjust="spacingAndGlyphs" textLength="33" x="435" y="398.2549">update</text><text fill="#000000" font-family="sans-serif" font-size="11" lengthAdjust="spacingAndGlyphs" textLength="36" x="435" y="412.0908">remove</text><text fill="#000000" font-family="sans-serif" font-size="11" lengthAdjust="spacingAndGlyphs" textLength="39" x="435" y="425.9268">findById</text><text fill="#000000" font-family="sans-serif" font-size="11" lengthAdjust="spacingAndGlyphs" textLength="58" x="435" y="439.7627">findByName</text><text fill="#000000" font-family="sans-serif" font-size="11" lengthAdjust="spacingAndGlyphs" textLength="65" x="435" y="453.5986">onClickButton</text><text fill="#000000" font-family="sans-serif" font-size="11" lengthAdjust="spacingAndGlyphs" textLength="49" x="435" y="467.4346">onChange</text><text fill="#000000" font-family="sans-serif" font-size="11" lengthAdjust="spacingAndGlyphs" textLength="32" x="435" y="481.2705">render</text><text fill="#000000" font-family="sans-serif" font-size="11" lengthAdjust="spacingAndGlyphs" textLength="24" x="435" y="495.1064">send</text><text fill="#000000" font-family="sans-serif" font-size="11" lengthAdjust="spacingAndGlyphs" textLength="36" x="435" y="508.9424">receive</text><text fill="#000000" font-family="sans-serif" font-size="11" lengthAdjust="spacingAndGlyphs" textLength="9" x="435" y="522.7783">...</text><line style="stroke: #A80036; stroke-width: 1.5;" x1="430" x2="525" y1="529.1953" y2="529.1953"/><text fill="#000000" font-family="sans-serif" font-size="11" lengthAdjust="spacingAndGlyphs" textLength="85" x="435" y="544.6143">evaluate(Alumno)</text><text fill="#000000" font-family="sans-serif" font-size="11" lengthAdjust="spacingAndGlyphs" textLength="77" x="435" y="558.4502">update(Alumno)</text><!--class Socket--><rect fill="#008000" filter="url(#f154d3zyebqx9h)" height="48" id="Socket" style="stroke: #A80036; stroke-width: 1.5;" width="69" x="6" y="625"/><rect fill="#008000" height="32" style="stroke: #A80036; stroke-width: 1.5;" width="69" x="6" y="625"/><ellipse cx="21" cy="641" fill="#ADD1B2" rx="11" ry="11" style="stroke: #A80036; stroke-width: 1.0;"/><path d="M23.7656,636.875 Q23.9219,636.6563 24.1094,636.5469 Q24.2969,636.4375 24.5156,636.4375 Q24.8906,636.4375 25.125,636.6953 Q25.3594,636.9531 25.3594,637.5625 L25.3594,639.0156 Q25.3594,639.625 25.125,639.8906 Q24.8906,640.1563 24.5156,640.1563 Q24.1719,640.1563 23.9688,639.9531 Q23.7656,639.7656 23.6563,639.25 Q23.6094,638.8906 23.4219,638.7031 Q23.0938,638.3281 22.4844,638.1094 Q21.875,637.8906 21.25,637.8906 Q20.4844,637.8906 19.8516,638.2188 Q19.2188,638.5469 18.7266,639.2969 Q18.2344,640.0469 18.2344,641.0781 L18.2344,642.1719 Q18.2344,643.4063 19.125,644.2266 Q20.0156,645.0469 21.6094,645.0469 Q22.5469,645.0469 23.2031,644.7969 Q23.5938,644.6406 24.0156,644.2031 Q24.2813,643.9375 24.4297,643.8594 Q24.5781,643.7813 24.7813,643.7813 Q25.1094,643.7813 25.3672,644.0391 Q25.625,644.2969 25.625,644.6406 Q25.625,644.9844 25.2813,645.3906 Q24.7813,645.9688 23.9844,646.2969 Q22.9063,646.75 21.6094,646.75 Q20.0938,646.75 18.8906,646.125 Q17.9063,645.625 17.2188,644.5547 Q16.5313,643.4844 16.5313,642.2031 L16.5313,641.0469 Q16.5313,639.7188 17.1484,638.5703 Q17.7656,637.4219 18.8594,636.8047 Q19.9531,636.1875 21.1875,636.1875 Q21.9219,636.1875 22.5703,636.3516 Q23.2188,636.5156 23.7656,636.875 Z "/><text fill="#000000" font-family="sans-serif" font-size="12" lengthAdjust="spacingAndGlyphs" textLength="37" x="35" y="645.9102">Socket</text><line style="stroke: #A80036; stroke-width: 1.5;" x1="7" x2="74" y1="657" y2="657"/><line style="stroke: #A80036; stroke-width: 1.5;" x1="7" x2="74" y1="665" y2="665"/><!--class DatagramSocket--><rect fill="#008000" filter="url(#f154d3zyebqx9h)" height="48" id="DatagramSocket" style="stroke: #A80036; stroke-width: 1.5;" width="124" x="110.5" y="625"/><rect fill="#008000" height="32" style="stroke: #A80036; stroke-width: 1.5;" width="124" x="110.5" y="625"/><ellipse cx="125.5" cy="641" fill="#ADD1B2" rx="11" ry="11" style="stroke: #A80036; stroke-width: 1.0;"/><path d="M128.2656,636.875 Q128.4219,636.6563 128.6094,636.5469 Q128.7969,636.4375 129.0156,636.4375 Q129.3906,636.4375 129.625,636.6953 Q129.8594,636.9531 129.8594,637.5625 L129.8594,639.0156 Q129.8594,639.625 129.625,639.8906 Q129.3906,640.1563 129.0156,640.1563 Q128.6719,640.1563 128.4688,639.9531 Q128.2656,639.7656 128.1563,639.25 Q128.1094,638.8906 127.9219,638.7031 Q127.5938,638.3281 126.9844,638.1094 Q126.375,637.8906 125.75,637.8906 Q124.9844,637.8906 124.3516,638.2188 Q123.7188,638.5469 123.2266,639.2969 Q122.7344,640.0469 122.7344,641.0781 L122.7344,642.1719 Q122.7344,643.4063 123.625,644.2266 Q124.5156,645.0469 126.1094,645.0469 Q127.0469,645.0469 127.7031,644.7969 Q128.0938,644.6406 128.5156,644.2031 Q128.7813,643.9375 128.9297,643.8594 Q129.0781,643.7813 129.2813,643.7813 Q129.6094,643.7813 129.8672,644.0391 Q130.125,644.2969 130.125,644.6406 Q130.125,644.9844 129.7813,645.3906 Q129.2813,645.9688 128.4844,646.2969 Q127.4063,646.75 126.1094,646.75 Q124.5938,646.75 123.3906,646.125 Q122.4063,645.625 121.7188,644.5547 Q121.0313,643.4844 121.0313,642.2031 L121.0313,641.0469 Q121.0313,639.7188 121.6484,638.5703 Q122.2656,637.4219 123.3594,636.8047 Q124.4531,636.1875 125.6875,636.1875 Q126.4219,636.1875 127.0703,636.3516 Q127.7188,636.5156 128.2656,636.875 Z "/><text fill="#000000" font-family="sans-serif" font-size="12" lengthAdjust="spacingAndGlyphs" textLength="92" x="139.5" y="645.9102">DatagramSocket</text><line style="stroke: #A80036; stroke-width: 1.5;" x1="111.5" x2="233.5" y1="657" y2="657"/><line style="stroke: #A80036; stroke-width: 1.5;" x1="111.5" x2="233.5" y1="665" y2="665"/><!--class IPAdress--><rect fill="#008000" filter="url(#f154d3zyebqx9h)" height="48" id="IPAdress" style="stroke: #A80036; stroke-width: 1.5;" width="82" x="269.5" y="625"/><rect fill="#008000" height="32" style="stroke: #A80036; stroke-width: 1.5;" width="82" x="269.5" y="625"/><ellipse cx="284.5" cy="641" fill="#ADD1B2" rx="11" ry="11" style="stroke: #A80036; stroke-width: 1.0;"/><path d="M287.2656,636.875 Q287.4219,636.6563 287.6094,636.5469 Q287.7969,636.4375 288.0156,636.4375 Q288.3906,636.4375 288.625,636.6953 Q288.8594,636.9531 288.8594,637.5625 L288.8594,639.0156 Q288.8594,639.625 288.625,639.8906 Q288.3906,640.1563 288.0156,640.1563 Q287.6719,640.1563 287.4688,639.9531 Q287.2656,639.7656 287.1563,639.25 Q287.1094,638.8906 286.9219,638.7031 Q286.5938,638.3281 285.9844,638.1094 Q285.375,637.8906 284.75,637.8906 Q283.9844,637.8906 283.3516,638.2188 Q282.7188,638.5469 282.2266,639.2969 Q281.7344,640.0469 281.7344,641.0781 L281.7344,642.1719 Q281.7344,643.4063 282.625,644.2266 Q283.5156,645.0469 285.1094,645.0469 Q286.0469,645.0469 286.7031,644.7969 Q287.0938,644.6406 287.5156,644.2031 Q287.7813,643.9375 287.9297,643.8594 Q288.0781,643.7813 288.2813,643.7813 Q288.6094,643.7813 288.8672,644.0391 Q289.125,644.2969 289.125,644.6406 Q289.125,644.9844 288.7813,645.3906 Q288.2813,645.9688 287.4844,646.2969 Q286.4063,646.75 285.1094,646.75 Q283.5938,646.75 282.3906,646.125 Q281.4063,645.625 280.7188,644.5547 Q280.0313,643.4844 280.0313,642.2031 L280.0313,641.0469 Q280.0313,639.7188 280.6484,638.5703 Q281.2656,637.4219 282.3594,636.8047 Q283.4531,636.1875 284.6875,636.1875 Q285.4219,636.1875 286.0703,636.3516 Q286.7188,636.5156 287.2656,636.875 Z "/><text fill="#000000" font-family="sans-serif" font-size="12" lengthAdjust="spacingAndGlyphs" textLength="50" x="298.5" y="645.9102">IPAdress</text><line style="stroke: #A80036; stroke-width: 1.5;" x1="270.5" x2="350.5" y1="657" y2="657"/><line style="stroke: #A80036; stroke-width: 1.5;" x1="270.5" x2="350.5" y1="665" y2="665"/><!--class Button--><rect fill="#0000FF" filter="url(#f154d3zyebqx9h)" height="48" id="Button" style="stroke: #A80036; stroke-width: 1.5;" width="67" x="387" y="625"/><rect fill="#0000FF" height="32" style="stroke: #A80036; stroke-width: 1.5;" width="67" x="387" y="625"/><ellipse cx="402" cy="641" fill="#ADD1B2" rx="11" ry="11" style="stroke: #A80036; stroke-width: 1.0;"/><path d="M404.7656,636.875 Q404.9219,636.6563 405.1094,636.5469 Q405.2969,636.4375 405.5156,636.4375 Q405.8906,636.4375 406.125,636.6953 Q406.3594,636.9531 406.3594,637.5625 L406.3594,639.0156 Q406.3594,639.625 406.125,639.8906 Q405.8906,640.1563 405.5156,640.1563 Q405.1719,640.1563 404.9688,639.9531 Q404.7656,639.7656 404.6563,639.25 Q404.6094,638.8906 404.4219,638.7031 Q404.0938,638.3281 403.4844,638.1094 Q402.875,637.8906 402.25,637.8906 Q401.4844,637.8906 400.8516,638.2188 Q400.2188,638.5469 399.7266,639.2969 Q399.2344,640.0469 399.2344,641.0781 L399.2344,642.1719 Q399.2344,643.4063 400.125,644.2266 Q401.0156,645.0469 402.6094,645.0469 Q403.5469,645.0469 404.2031,644.7969 Q404.5938,644.6406 405.0156,644.2031 Q405.2813,643.9375 405.4297,643.8594 Q405.5781,643.7813 405.7813,643.7813 Q406.1094,643.7813 406.3672,644.0391 Q406.625,644.2969 406.625,644.6406 Q406.625,644.9844 406.2813,645.3906 Q405.7813,645.9688 404.9844,646.2969 Q403.9063,646.75 402.6094,646.75 Q401.0938,646.75 399.8906,646.125 Q398.9063,645.625 398.2188,644.5547 Q397.5313,643.4844 397.5313,642.2031 L397.5313,641.0469 Q397.5313,639.7188 398.1484,638.5703 Q398.7656,637.4219 399.8594,636.8047 Q400.9531,636.1875 402.1875,636.1875 Q402.9219,636.1875 403.5703,636.3516 Q404.2188,636.5156 404.7656,636.875 Z "/><text fill="#000000" font-family="sans-serif" font-size="12" lengthAdjust="spacingAndGlyphs" textLength="35" x="416" y="645.9102">Button</text><line style="stroke: #A80036; stroke-width: 1.5;" x1="388" x2="453" y1="657" y2="657"/><line style="stroke: #A80036; stroke-width: 1.5;" x1="388" x2="453" y1="665" y2="665"/><!--class Edit--><rect fill="#0000FF" filter="url(#f154d3zyebqx9h)" height="48" id="Edit" style="stroke: #A80036; stroke-width: 1.5;" width="53" x="489" y="625"/><rect fill="#0000FF" height="32" style="stroke: #A80036; stroke-width: 1.5;" width="53" x="489" y="625"/><ellipse cx="504" cy="641" fill="#ADD1B2" rx="11" ry="11" style="stroke: #A80036; stroke-width: 1.0;"/><path d="M506.7656,636.875 Q506.9219,636.6563 507.1094,636.5469 Q507.2969,636.4375 507.5156,636.4375 Q507.8906,636.4375 508.125,636.6953 Q508.3594,636.9531 508.3594,637.5625 L508.3594,639.0156 Q508.3594,639.625 508.125,639.8906 Q507.8906,640.1563 507.5156,640.1563 Q507.1719,640.1563 506.9688,639.9531 Q506.7656,639.7656 506.6563,639.25 Q506.6094,638.8906 506.4219,638.7031 Q506.0938,638.3281 505.4844,638.1094 Q504.875,637.8906 504.25,637.8906 Q503.4844,637.8906 502.8516,638.2188 Q502.2188,638.5469 501.7266,639.2969 Q501.2344,640.0469 501.2344,641.0781 L501.2344,642.1719 Q501.2344,643.4063 502.125,644.2266 Q503.0156,645.0469 504.6094,645.0469 Q505.5469,645.0469 506.2031,644.7969 Q506.5938,644.6406 507.0156,644.2031 Q507.2813,643.9375 507.4297,643.8594 Q507.5781,643.7813 507.7813,643.7813 Q508.1094,643.7813 508.3672,644.0391 Q508.625,644.2969 508.625,644.6406 Q508.625,644.9844 508.2813,645.3906 Q507.7813,645.9688 506.9844,646.2969 Q505.9063,646.75 504.6094,646.75 Q503.0938,646.75 501.8906,646.125 Q500.9063,645.625 500.2188,644.5547 Q499.5313,643.4844 499.5313,642.2031 L499.5313,641.0469 Q499.5313,639.7188 500.1484,638.5703 Q500.7656,637.4219 501.8594,636.8047 Q502.9531,636.1875 504.1875,636.1875 Q504.9219,636.1875 505.5703,636.3516 Q506.2188,636.5156 506.7656,636.875 Z "/><text fill="#000000" font-family="sans-serif" font-size="12" lengthAdjust="spacingAndGlyphs" textLength="21" x="518" y="645.9102">Edit</text><line style="stroke: #A80036; stroke-width: 1.5;" x1="490" x2="541" y1="657" y2="657"/><line style="stroke: #A80036; stroke-width: 1.5;" x1="490" x2="541" y1="665" y2="665"/><!--class Label--><rect fill="#0000FF" filter="url(#f154d3zyebqx9h)" height="48" id="Label" style="stroke: #A80036; stroke-width: 1.5;" width="63" x="577" y="625"/><rect fill="#0000FF" height="32" style="stroke: #A80036; stroke-width: 1.5;" width="63" x="577" y="625"/><ellipse cx="592" cy="641" fill="#ADD1B2" rx="11" ry="11" style="stroke: #A80036; stroke-width: 1.0;"/><path d="M594.7656,636.875 Q594.9219,636.6563 595.1094,636.5469 Q595.2969,636.4375 595.5156,636.4375 Q595.8906,636.4375 596.125,636.6953 Q596.3594,636.9531 596.3594,637.5625 L596.3594,639.0156 Q596.3594,639.625 596.125,639.8906 Q595.8906,640.1563 595.5156,640.1563 Q595.1719,640.1563 594.9688,639.9531 Q594.7656,639.7656 594.6563,639.25 Q594.6094,638.8906 594.4219,638.7031 Q594.0938,638.3281 593.4844,638.1094 Q592.875,637.8906 592.25,637.8906 Q591.4844,637.8906 590.8516,638.2188 Q590.2188,638.5469 589.7266,639.2969 Q589.2344,640.0469 589.2344,641.0781 L589.2344,642.1719 Q589.2344,643.4063 590.125,644.2266 Q591.0156,645.0469 592.6094,645.0469 Q593.5469,645.0469 594.2031,644.7969 Q594.5938,644.6406 595.0156,644.2031 Q595.2813,643.9375 595.4297,643.8594 Q595.5781,643.7813 595.7813,643.7813 Q596.1094,643.7813 596.3672,644.0391 Q596.625,644.2969 596.625,644.6406 Q596.625,644.9844 596.2813,645.3906 Q595.7813,645.9688 594.9844,646.2969 Q593.9063,646.75 592.6094,646.75 Q591.0938,646.75 589.8906,646.125 Q588.9063,645.625 588.2188,644.5547 Q587.5313,643.4844 587.5313,642.2031 L587.5313,641.0469 Q587.5313,639.7188 588.1484,638.5703 Q588.7656,637.4219 589.8594,636.8047 Q590.9531,636.1875 592.1875,636.1875 Q592.9219,636.1875 593.5703,636.3516 Q594.2188,636.5156 594.7656,636.875 Z "/><text fill="#000000" font-family="sans-serif" font-size="12" lengthAdjust="spacingAndGlyphs" textLength="31" x="606" y="645.9102">Label</text><line style="stroke: #A80036; stroke-width: 1.5;" x1="578" x2="639" y1="657" y2="657"/><line style="stroke: #A80036; stroke-width: 1.5;" x1="578" x2="639" y1="665" y2="665"/><!--class Statment--><rect fill="#FF0000" filter="url(#f154d3zyebqx9h)" height="48" id="Statment" style="stroke: #A80036; stroke-width: 1.5;" width="81" x="675" y="625"/><rect fill="#FF0000" height="32" style="stroke: #A80036; stroke-width: 1.5;" width="81" x="675" y="625"/><ellipse cx="690" cy="641" fill="#ADD1B2" rx="11" ry="11" style="stroke: #A80036; stroke-width: 1.0;"/><path d="M692.7656,636.875 Q692.9219,636.6563 693.1094,636.5469 Q693.2969,636.4375 693.5156,636.4375 Q693.8906,636.4375 694.125,636.6953 Q694.3594,636.9531 694.3594,637.5625 L694.3594,639.0156 Q694.3594,639.625 694.125,639.8906 Q693.8906,640.1563 693.5156,640.1563 Q693.1719,640.1563 692.9688,639.9531 Q692.7656,639.7656 692.6563,639.25 Q692.6094,638.8906 692.4219,638.7031 Q692.0938,638.3281 691.4844,638.1094 Q690.875,637.8906 690.25,637.8906 Q689.4844,637.8906 688.8516,638.2188 Q688.2188,638.5469 687.7266,639.2969 Q687.2344,640.0469 687.2344,641.0781 L687.2344,642.1719 Q687.2344,643.4063 688.125,644.2266 Q689.0156,645.0469 690.6094,645.0469 Q691.5469,645.0469 692.2031,644.7969 Q692.5938,644.6406 693.0156,644.2031 Q693.2813,643.9375 693.4297,643.8594 Q693.5781,643.7813 693.7813,643.7813 Q694.1094,643.7813 694.3672,644.0391 Q694.625,644.2969 694.625,644.6406 Q694.625,644.9844 694.2813,645.3906 Q693.7813,645.9688 692.9844,646.2969 Q691.9063,646.75 690.6094,646.75 Q689.0938,646.75 687.8906,646.125 Q686.9063,645.625 686.2188,644.5547 Q685.5313,643.4844 685.5313,642.2031 L685.5313,641.0469 Q685.5313,639.7188 686.1484,638.5703 Q686.7656,637.4219 687.8594,636.8047 Q688.9531,636.1875 690.1875,636.1875 Q690.9219,636.1875 691.5703,636.3516 Q692.2188,636.5156 692.7656,636.875 Z "/><text fill="#000000" font-family="sans-serif" font-size="12" lengthAdjust="spacingAndGlyphs" textLength="49" x="704" y="645.9102">Statment</text><line style="stroke: #A80036; stroke-width: 1.5;" x1="676" x2="755" y1="657" y2="657"/><line style="stroke: #A80036; stroke-width: 1.5;" x1="676" x2="755" y1="665" y2="665"/><!--class ResultSet--><rect fill="#FF0000" filter="url(#f154d3zyebqx9h)" height="48" id="ResultSet" style="stroke: #A80036; stroke-width: 1.5;" width="86" x="791.5" y="625"/><rect fill="#FF0000" height="32" style="stroke: #A80036; stroke-width: 1.5;" width="86" x="791.5" y="625"/><ellipse cx="806.5" cy="641" fill="#ADD1B2" rx="11" ry="11" style="stroke: #A80036; stroke-width: 1.0;"/><path d="M809.2656,636.875 Q809.4219,636.6563 809.6094,636.5469 Q809.7969,636.4375 810.0156,636.4375 Q810.3906,636.4375 810.625,636.6953 Q810.8594,636.9531 810.8594,637.5625 L810.8594,639.0156 Q810.8594,639.625 810.625,639.8906 Q810.3906,640.1563 810.0156,640.1563 Q809.6719,640.1563 809.4688,639.9531 Q809.2656,639.7656 809.1563,639.25 Q809.1094,638.8906 808.9219,638.7031 Q808.5938,638.3281 807.9844,638.1094 Q807.375,637.8906 806.75,637.8906 Q805.9844,637.8906 805.3516,638.2188 Q804.7188,638.5469 804.2266,639.2969 Q803.7344,640.0469 803.7344,641.0781 L803.7344,642.1719 Q803.7344,643.4063 804.625,644.2266 Q805.5156,645.0469 807.1094,645.0469 Q808.0469,645.0469 808.7031,644.7969 Q809.0938,644.6406 809.5156,644.2031 Q809.7813,643.9375 809.9297,643.8594 Q810.0781,643.7813 810.2813,643.7813 Q810.6094,643.7813 810.8672,644.0391 Q811.125,644.2969 811.125,644.6406 Q811.125,644.9844 810.7813,645.3906 Q810.2813,645.9688 809.4844,646.2969 Q808.4063,646.75 807.1094,646.75 Q805.5938,646.75 804.3906,646.125 Q803.4063,645.625 802.7188,644.5547 Q802.0313,643.4844 802.0313,642.2031 L802.0313,641.0469 Q802.0313,639.7188 802.6484,638.5703 Q803.2656,637.4219 804.3594,636.8047 Q805.4531,636.1875 806.6875,636.1875 Q807.4219,636.1875 808.0703,636.3516 Q808.7188,636.5156 809.2656,636.875 Z "/><text fill="#000000" font-family="sans-serif" font-size="12" lengthAdjust="spacingAndGlyphs" textLength="54" x="820.5" y="645.9102">ResultSet</text><line style="stroke: #A80036; stroke-width: 1.5;" x1="792.5" x2="876.5" y1="657" y2="657"/><line style="stroke: #A80036; stroke-width: 1.5;" x1="792.5" x2="876.5" y1="665" y2="665"/><!--class BBDDDriver--><rect fill="#FF0000" filter="url(#f154d3zyebqx9h)" height="48" id="BBDDDriver" style="stroke: #A80036; stroke-width: 1.5;" width="98" x="912.5" y="625"/><rect fill="#FF0000" height="32" style="stroke: #A80036; stroke-width: 1.5;" width="98" x="912.5" y="625"/><ellipse cx="927.5" cy="641" fill="#ADD1B2" rx="11" ry="11" style="stroke: #A80036; stroke-width: 1.0;"/><path d="M930.2656,636.875 Q930.4219,636.6563 930.6094,636.5469 Q930.7969,636.4375 931.0156,636.4375 Q931.3906,636.4375 931.625,636.6953 Q931.8594,636.9531 931.8594,637.5625 L931.8594,639.0156 Q931.8594,639.625 931.625,639.8906 Q931.3906,640.1563 931.0156,640.1563 Q930.6719,640.1563 930.4688,639.9531 Q930.2656,639.7656 930.1563,639.25 Q930.1094,638.8906 929.9219,638.7031 Q929.5938,638.3281 928.9844,638.1094 Q928.375,637.8906 927.75,637.8906 Q926.9844,637.8906 926.3516,638.2188 Q925.7188,638.5469 925.2266,639.2969 Q924.7344,640.0469 924.7344,641.0781 L924.7344,642.1719 Q924.7344,643.4063 925.625,644.2266 Q926.5156,645.0469 928.1094,645.0469 Q929.0469,645.0469 929.7031,644.7969 Q930.0938,644.6406 930.5156,644.2031 Q930.7813,643.9375 930.9297,643.8594 Q931.0781,643.7813 931.2813,643.7813 Q931.6094,643.7813 931.8672,644.0391 Q932.125,644.2969 932.125,644.6406 Q932.125,644.9844 931.7813,645.3906 Q931.2813,645.9688 930.4844,646.2969 Q929.4063,646.75 928.1094,646.75 Q926.5938,646.75 925.3906,646.125 Q924.4063,645.625 923.7188,644.5547 Q923.0313,643.4844 923.0313,642.2031 L923.0313,641.0469 Q923.0313,639.7188 923.6484,638.5703 Q924.2656,637.4219 925.3594,636.8047 Q926.4531,636.1875 927.6875,636.1875 Q928.4219,636.1875 929.0703,636.3516 Q929.7188,636.5156 930.2656,636.875 Z "/><text fill="#000000" font-family="sans-serif" font-size="12" lengthAdjust="spacingAndGlyphs" textLength="66" x="941.5" y="645.9102">BBDDDriver</text><line style="stroke: #A80036; stroke-width: 1.5;" x1="913.5" x2="1009.5" y1="657" y2="657"/><line style="stroke: #A80036; stroke-width: 1.5;" x1="913.5" x2="1009.5" y1="665" y2="665"/><!--link Alumno to Profesor--><path d="M505.426,282.168 C502.682,298.661 499.9,315.38 497.209,331.554 " fill="none" id="Alumno-Profesor" style="stroke: #A80036; stroke-width: 1.0;"/><polygon fill="#A80036" points="496.377,336.555,501.801,328.3343,497.1983,331.6229,493.9097,327.0202,496.377,336.555" style="stroke: #A80036; stroke-width: 1.0;"/><polygon fill="#A80036" points="506.279,277.044,500.8573,285.2662,505.4591,281.9763,508.749,286.5781,506.279,277.044" style="stroke: #A80036; stroke-width: 1.0;"/><!--link Alumno to Socket--><path d="M478.284,161.726 C407.127,189.732 276.507,249.454 194.5,337 C113.535,423.434 66.1111,560.492 48.4553,619.4722 " fill="none" id="Alumno-Socket" style="stroke: #A80036; stroke-width: 1.0;"/><polygon fill="#A80036" points="46.9379,624.5955,53.329,617.1019,48.3578,619.8013,45.6583,614.8301,46.9379,624.5955" style="stroke: #A80036; stroke-width: 1.0;"/><!--link Alumno to DatagramSocket--><path d="M478.368,179.542 C431.459,215.279 361.847,273.72 315.5,337 C246.817,430.775 199.609,562.806 181.155,619.8902 " fill="none" id="Alumno-DatagramSocket" style="stroke: #A80036; stroke-width: 1.0;"/><polygon fill="#A80036" points="179.563,624.8509,186.1218,617.5036,181.0908,620.09,178.5044,615.0591,179.563,624.8509" style="stroke: #A80036; stroke-width: 1.0;"/><!--link Alumno to IPAdress--><path d="M478.481,200.879 C448.786,237.606 412.55,287.505 389.5,337 C343.819,435.088 321.979,563.365 314.1,619.5538 " fill="none" id="Alumno-IPAdress" style="stroke: #A80036; stroke-width: 1.0;"/><polygon fill="#A80036" points="313.38,624.763,318.5736,616.3948,314.064,619.81,310.6488,615.3004,313.38,624.763" style="stroke: #A80036; stroke-width: 1.0;"/><!--link Alumno to Button--><path d="M478.297,206.518 C452.883,242.489 424.68,289.731 411.5,337 C383.392,437.81 402.985,564.168 414.176,619.6583 " fill="none" id="Alumno-Button" style="stroke: #A80036; stroke-width: 1.0;"/><polygon fill="#A80036" points="415.231,624.8039,417.3417,615.1839,414.2267,619.9058,409.5047,616.7908,415.231,624.8039" style="stroke: #A80036; stroke-width: 1.0;"/><!--link Alumno to Edit--><path d="M546.667,277.241 C554.677,360.538 559.155,469.621 543.5,565 C540.397,583.9039 533.568,604.3005 527.432,620.1437 " fill="none" id="Alumno-Edit" style="stroke: #A80036; stroke-width: 1.0;"/><polygon fill="#A80036" points="525.554,624.9076,532.5748,618.0005,527.3869,620.2557,525.1317,615.0678,525.554,624.9076" style="stroke: #A80036; stroke-width: 1.0;"/><!--link Alumno to Label--><path d="M563.375,277.037 C567.89,297.045 572.113,317.5 575.5,337 C593.46,440.387 603.11,564.923 606.762,619.7505 " fill="none" id="Alumno-Label" style="stroke: #A80036; stroke-width: 1.0;"/><polygon fill="#A80036" points="607.096,624.8358,610.4961,615.5925,606.7675,619.8466,602.5134,616.118,607.096,624.8358" style="stroke: #A80036; stroke-width: 1.0;"/><!--link Alumno to Statment--><path d="M578.519,249.059 C591.222,277.357 604.404,308.119 615.5,337 C654.812,439.32 691.761,564.4 707.51,619.5582 " fill="none" id="Alumno-Statment" style="stroke: #A80036; stroke-width: 1.0;"/><polygon fill="#A80036" points="708.967,624.6747,710.3487,614.9232,707.5974,619.8659,702.6547,617.1146,708.967,624.6747" style="stroke: #A80036; stroke-width: 1.0;"/><!--link Alumno to ResultSet--><path d="M578.646,201.382 C609.699,238.703 649.275,289.058 679.5,337 C742.117,436.322 799.113,564.379 822.842,620.0714 " fill="none" id="Alumno-ResultSet" style="stroke: #A80036; stroke-width: 1.0;"/><polygon fill="#A80036" points="824.899,624.9134,825.0623,615.0659,822.9443,620.3113,817.6989,618.1934,824.899,624.9134" style="stroke: #A80036; stroke-width: 1.0;"/><!--link Alumno to BBDDDriver--><path d="M578.78,177.201 C629.707,212.925 708.838,272.944 765.5,337 C848.375,430.689 919.234,563.208 947.901,620.1885 " fill="none" id="Alumno-BBDDDriver" style="stroke: #A80036; stroke-width: 1.0;"/><polygon fill="#A80036" points="950.218,624.8124,949.762,614.9741,947.9779,620.3423,942.6098,618.5582,950.218,624.8124" style="stroke: #A80036; stroke-width: 1.0;"/><!--link Profesor to Socket--><path d="M428.643,473.913 C341.185,513.139 159.569,594.5962 79.6672,630.433 " fill="none" id="Profesor-Socket" style="stroke: #A80036; stroke-width: 1.0;"/><polygon fill="#A80036" points="75.0148,632.5197,84.8636,632.4861,79.5769,630.4734,81.5896,625.1867,75.0148,632.5197" style="stroke: #A80036; stroke-width: 1.0;"/><!--link Profesor to DatagramSocket--><path d="M428.835,483.274 C369.006,521.72 268.573,586.2612 212.84,622.0768 " fill="none" id="Profesor-DatagramSocket" style="stroke: #A80036; stroke-width: 1.0;"/><polygon fill="#A80036" points="208.576,624.8165,218.31,623.3165,212.7825,622.1136,213.9853,616.5861,208.576,624.8165" style="stroke: #A80036; stroke-width: 1.0;"/><!--link Profesor to IPAdress--><path d="M428.972,508.955 C397.581,545.798 358.14,592.0876 333.623,620.8618 " fill="none" id="Profesor-IPAdress" style="stroke: #A80036; stroke-width: 1.0;"/><polygon fill="#A80036" points="330.117,624.9769,338.9988,620.7209,333.3599,621.1712,332.9096,615.5322,330.117,624.9769" style="stroke: #A80036; stroke-width: 1.0;"/><!--link Profesor to Button--><path d="M444.591,565.162 C438.647,585.5992 432.966,605.1345 428.615,620.0963 " fill="none" id="Profesor-Button" style="stroke: #A80036; stroke-width: 1.0;"/><polygon fill="#A80036" points="427.192,624.9897,433.5466,617.4652,428.5886,620.1887,425.865,615.2306,427.192,624.9897" style="stroke: #A80036; stroke-width: 1.0;"/><!--link Profesor to Edit--><path d="M499.44,565.162 C503.367,585.4215 507.123,604.7947 510.014,619.705 " fill="none" id="Profesor-Edit" style="stroke: #A80036; stroke-width: 1.0;"/><polygon fill="#A80036" points="511.039,624.9897,513.2528,615.3929,510.0873,620.0811,505.399,616.9156,511.039,624.9897" style="stroke: #A80036; stroke-width: 1.0;"/><!--link Profesor to Label--><path d="M526.093,524.705 C548.395,558.072 573.504,595.6398 590.081,620.4417 " fill="none" id="Profesor-Label" style="stroke: #A80036; stroke-width: 1.0;"/><polygon fill="#A80036" points="592.87,624.6147,591.1946,614.9094,590.0917,620.4577,584.5434,619.3547,592.87,624.6147" style="stroke: #A80036; stroke-width: 1.0;"/><!--link Profesor to Statment--><path d="M526.237,492.136 C573.081,530.714 642.556,587.9283 683.01,621.2436 " fill="none" id="Profesor-Statment" style="stroke: #A80036; stroke-width: 1.0;"/><polygon fill="#A80036" points="687.314,624.7882,682.9094,615.9791,683.4543,621.6097,677.8238,622.1546,687.314,624.7882" style="stroke: #A80036; stroke-width: 1.0;"/><!--link Profesor to ResultSet--><path d="M526.018,478.637 C594.811,516.406 719.859,585.0599 787.7,622.306 " fill="none" id="Profesor-ResultSet" style="stroke: #A80036; stroke-width: 1.0;"/><polygon fill="#A80036" points="792.484,624.9326,786.5209,617.0941,788.1014,622.5257,782.6699,624.1062,792.484,624.9326" style="stroke: #A80036; stroke-width: 1.0;"/><!--link Profesor to BBDDDriver--><path d="M526.124,471.691 C617.119,508.54 812.497,587.6599 907.465,626.1179 " fill="none" id="Profesor-BBDDDriver" style="stroke: #A80036; stroke-width: 1.0;"/><polygon fill="#A80036" points="912.187,628.0304,905.347,620.9442,907.5527,626.1533,902.3436,628.3591,912.187,628.0304" style="stroke: #A80036; stroke-width: 1.0;"/><!--
@startuml

class Alumno {
    profesor
    setCalification
    getCalification
    scaleCalification
    removeCalification
    create
    update
    remove
    findById
    findByName
    onClickButton
    onChange
    render
    send
    receive
    ...
}
class Profesor {
    evaluate(Alumno)
    update(Alumno)
    create
    update
    remove
    findById
    findByName
    onClickButton
    onChange
    render
    send
    receive
    ...
}
Alumno <- -> Profesor
class Socket #green
class DatagramSocket #green
class IPAdress #green
class Button #blue
class Edit #blue
class Label #blue
class Statment #red
class ResultSet #red
class BBDDDriver #red

Alumno -down-> Socket
Alumno -down-> DatagramSocket
Alumno -down-> IPAdress
Alumno -down-> Button
Alumno -down-> Edit
Alumno -down-> Label
Alumno -down-> Statment
Alumno -down-> ResultSet
Alumno -down-> BBDDDriver

Profesor -down-> Socket
Profesor -down-> DatagramSocket
Profesor -down-> IPAdress
Profesor -down-> Button
Profesor -down-> Edit
Profesor -down-> Label
Profesor -down-> Statment
Profesor -down-> ResultSet
Profesor -down-> BBDDDriver

@enduml

PlantUML version 1.2019.05(Sat Apr 20 18:45:36 CEST 2019)
(GPL source distribution)
Java Runtime: OpenJDK Runtime Environment
JVM: OpenJDK 64-Bit Server VM
Java Version: 1.8.0_222-b10
Operating System: Windows 10
OS Version: 10.0
Default Encoding: windows-1252
Language: es
Country: ES
--></g></svg>