<?xml version="1.0" encoding="UTF-8" standalone="no"?><svg xmlns="http://www.w3.org/2000/svg" xmlns:xlink="http://www.w3.org/1999/xlink" contentScriptType="application/ecmascript" contentStyleType="text/css" height="629px" preserveAspectRatio="none" style="width:835px;height:629px;" version="1.1" viewBox="0 0 835 629" width="835px" zoomAndPan="magnify"><defs><filter height="300%" id="fyj9fd5c2j58x" width="300%" x="-1" y="-1"><feGaussianBlur result="blurOut" stdDeviation="2.0"/><feColorMatrix in="blurOut" result="blurOut2" type="matrix" values="0 0 0 0 0 0 0 0 0 0 0 0 0 0 0 0 0 0 .4 0"/><feOffset dx="4.0" dy="4.0" in="blurOut2" result="blurOut3"/><feBlend in="SourceGraphic" in2="blurOut3" mode="normal"/></filter><linearGradient id="gyj9fd5c2j58x0" x1="0%" x2="100%" y1="50%" y2="50%"><stop offset="0%" stop-color="#ADFF2F"/><stop offset="100%" stop-color="#FF0000"/></linearGradient><linearGradient id="gyj9fd5c2j58x1" x1="0%" x2="100%" y1="50%" y2="50%"><stop offset="0%" stop-color="#6495ED"/><stop offset="100%" stop-color="#FF0000"/></linearGradient></defs><g><text fill="#000000" font-family="sans-serif" font-size="18" lengthAdjust="spacingAndGlyphs" textLength="496" x="173.5" y="18.6855">Producto Software no efectivo por mala calidad/mantenibilidad</text><!--class ProductoSoftware--><rect fill="#ADFF2F" filter="url(#fyj9fd5c2j58x)" height="48" id="ProductoSoftware" style="stroke: #A80036; stroke-width: 1.5;" width="132" x="356" y="30.6406"/><rect fill="#ADFF2F" height="32" style="stroke: #A80036; stroke-width: 1.5;" width="132" x="356" y="30.6406"/><ellipse cx="371" cy="46.6406" fill="#ADD1B2" rx="11" ry="11" style="stroke: #A80036; stroke-width: 1.0;"/><path d="M373.7656,42.5156 Q373.9219,42.2969 374.1094,42.1875 Q374.2969,42.0781 374.5156,42.0781 Q374.8906,42.0781 375.125,42.3359 Q375.3594,42.5938 375.3594,43.2031 L375.3594,44.6563 Q375.3594,45.2656 375.125,45.5313 Q374.8906,45.7969 374.5156,45.7969 Q374.1719,45.7969 373.9688,45.5938 Q373.7656,45.4063 373.6563,44.8906 Q373.6094,44.5313 373.4219,44.3438 Q373.0938,43.9688 372.4844,43.75 Q371.875,43.5313 371.25,43.5313 Q370.4844,43.5313 369.8516,43.8594 Q369.2188,44.1875 368.7266,44.9375 Q368.2344,45.6875 368.2344,46.7188 L368.2344,47.8125 Q368.2344,49.0469 369.125,49.8672 Q370.0156,50.6875 371.6094,50.6875 Q372.5469,50.6875 373.2031,50.4375 Q373.5938,50.2813 374.0156,49.8438 Q374.2813,49.5781 374.4297,49.5 Q374.5781,49.4219 374.7813,49.4219 Q375.1094,49.4219 375.3672,49.6797 Q375.625,49.9375 375.625,50.2813 Q375.625,50.625 375.2813,51.0313 Q374.7813,51.6094 373.9844,51.9375 Q372.9063,52.3906 371.6094,52.3906 Q370.0938,52.3906 368.8906,51.7656 Q367.9063,51.2656 367.2188,50.1953 Q366.5313,49.125 366.5313,47.8438 L366.5313,46.6875 Q366.5313,45.3594 367.1484,44.2109 Q367.7656,43.0625 368.8594,42.4453 Q369.9531,41.8281 371.1875,41.8281 Q371.9219,41.8281 372.5703,41.9922 Q373.2188,42.1563 373.7656,42.5156 Z "/><text fill="#000000" font-family="sans-serif" font-size="12" lengthAdjust="spacingAndGlyphs" textLength="100" x="385" y="51.5508">Producto Software</text><line style="stroke: #A80036; stroke-width: 1.5;" x1="357" x2="487" y1="62.6406" y2="62.6406"/><line style="stroke: #A80036; stroke-width: 1.5;" x1="357" x2="487" y1="70.6406" y2="70.6406"/><!--class Calidad--><rect fill="#6495ED" filter="url(#fyj9fd5c2j58x)" height="48" id="Calidad" style="stroke: #A80036; stroke-width: 1.5;" width="75" x="324.5" y="138.6406"/><rect fill="#6495ED" height="32" style="stroke: #A80036; stroke-width: 1.5;" width="75" x="324.5" y="138.6406"/><ellipse cx="339.5" cy="154.6406" fill="#ADD1B2" rx="11" ry="11" style="stroke: #A80036; stroke-width: 1.0;"/><path d="M342.2656,150.5156 Q342.4219,150.2969 342.6094,150.1875 Q342.7969,150.0781 343.0156,150.0781 Q343.3906,150.0781 343.625,150.3359 Q343.8594,150.5938 343.8594,151.2031 L343.8594,152.6563 Q343.8594,153.2656 343.625,153.5313 Q343.3906,153.7969 343.0156,153.7969 Q342.6719,153.7969 342.4688,153.5938 Q342.2656,153.4063 342.1563,152.8906 Q342.1094,152.5313 341.9219,152.3438 Q341.5938,151.9688 340.9844,151.75 Q340.375,151.5313 339.75,151.5313 Q338.9844,151.5313 338.3516,151.8594 Q337.7188,152.1875 337.2266,152.9375 Q336.7344,153.6875 336.7344,154.7188 L336.7344,155.8125 Q336.7344,157.0469 337.625,157.8672 Q338.5156,158.6875 340.1094,158.6875 Q341.0469,158.6875 341.7031,158.4375 Q342.0938,158.2813 342.5156,157.8438 Q342.7813,157.5781 342.9297,157.5 Q343.0781,157.4219 343.2813,157.4219 Q343.6094,157.4219 343.8672,157.6797 Q344.125,157.9375 344.125,158.2813 Q344.125,158.625 343.7813,159.0313 Q343.2813,159.6094 342.4844,159.9375 Q341.4063,160.3906 340.1094,160.3906 Q338.5938,160.3906 337.3906,159.7656 Q336.4063,159.2656 335.7188,158.1953 Q335.0313,157.125 335.0313,155.8438 L335.0313,154.6875 Q335.0313,153.3594 335.6484,152.2109 Q336.2656,151.0625 337.3594,150.4453 Q338.4531,149.8281 339.6875,149.8281 Q340.4219,149.8281 341.0703,149.9922 Q341.7188,150.1563 342.2656,150.5156 Z "/><text fill="#000000" font-family="sans-serif" font-size="12" lengthAdjust="spacingAndGlyphs" textLength="43" x="353.5" y="159.5508">Calidad</text><line style="stroke: #A80036; stroke-width: 1.5;" x1="325.5" x2="398.5" y1="170.6406" y2="170.6406"/><line style="stroke: #A80036; stroke-width: 1.5;" x1="325.5" x2="398.5" y1="178.6406" y2="178.6406"/><!--class Efectividad--><rect fill="#FFA500" filter="url(#fyj9fd5c2j58x)" height="48" id="Efectividad" style="stroke: #A80036; stroke-width: 1.5;" width="91" x="217.5" y="246.6406"/><rect fill="#FFA500" height="32" style="stroke: #A80036; stroke-width: 1.5;" width="91" x="217.5" y="246.6406"/><ellipse cx="232.5" cy="262.6406" fill="#ADD1B2" rx="11" ry="11" style="stroke: #A80036; stroke-width: 1.0;"/><path d="M235.2656,258.5156 Q235.4219,258.2969 235.6094,258.1875 Q235.7969,258.0781 236.0156,258.0781 Q236.3906,258.0781 236.625,258.3359 Q236.8594,258.5938 236.8594,259.2031 L236.8594,260.6563 Q236.8594,261.2656 236.625,261.5313 Q236.3906,261.7969 236.0156,261.7969 Q235.6719,261.7969 235.4688,261.5938 Q235.2656,261.4063 235.1563,260.8906 Q235.1094,260.5313 234.9219,260.3438 Q234.5938,259.9688 233.9844,259.75 Q233.375,259.5313 232.75,259.5313 Q231.9844,259.5313 231.3516,259.8594 Q230.7188,260.1875 230.2266,260.9375 Q229.7344,261.6875 229.7344,262.7188 L229.7344,263.8125 Q229.7344,265.0469 230.625,265.8672 Q231.5156,266.6875 233.1094,266.6875 Q234.0469,266.6875 234.7031,266.4375 Q235.0938,266.2813 235.5156,265.8438 Q235.7813,265.5781 235.9297,265.5 Q236.0781,265.4219 236.2813,265.4219 Q236.6094,265.4219 236.8672,265.6797 Q237.125,265.9375 237.125,266.2813 Q237.125,266.625 236.7813,267.0313 Q236.2813,267.6094 235.4844,267.9375 Q234.4063,268.3906 233.1094,268.3906 Q231.5938,268.3906 230.3906,267.7656 Q229.4063,267.2656 228.7188,266.1953 Q228.0313,265.125 228.0313,263.8438 L228.0313,262.6875 Q228.0313,261.3594 228.6484,260.2109 Q229.2656,259.0625 230.3594,258.4453 Q231.4531,257.8281 232.6875,257.8281 Q233.4219,257.8281 234.0703,257.9922 Q234.7188,258.1563 235.2656,258.5156 Z "/><text fill="#000000" font-family="sans-serif" font-size="12" lengthAdjust="spacingAndGlyphs" textLength="59" x="246.5" y="267.5508">Efectividad</text><line style="stroke: #A80036; stroke-width: 1.5;" x1="218.5" x2="307.5" y1="278.6406" y2="278.6406"/><line style="stroke: #A80036; stroke-width: 1.5;" x1="218.5" x2="307.5" y1="286.6406" y2="286.6406"/><!--class Mantenibilidad--><rect fill="#6495ED" filter="url(#fyj9fd5c2j58x)" height="48" id="Mantenibilidad" style="stroke: #A80036; stroke-width: 1.5;" width="112" x="336" y="354.6406"/><rect fill="#6495ED" height="32" style="stroke: #A80036; stroke-width: 1.5;" width="112" x="336" y="354.6406"/><ellipse cx="351" cy="370.6406" fill="#ADD1B2" rx="11" ry="11" style="stroke: #A80036; stroke-width: 1.0;"/><path d="M353.7656,366.5156 Q353.9219,366.2969 354.1094,366.1875 Q354.2969,366.0781 354.5156,366.0781 Q354.8906,366.0781 355.125,366.3359 Q355.3594,366.5938 355.3594,367.2031 L355.3594,368.6563 Q355.3594,369.2656 355.125,369.5313 Q354.8906,369.7969 354.5156,369.7969 Q354.1719,369.7969 353.9688,369.5938 Q353.7656,369.4063 353.6563,368.8906 Q353.6094,368.5313 353.4219,368.3438 Q353.0938,367.9688 352.4844,367.75 Q351.875,367.5313 351.25,367.5313 Q350.4844,367.5313 349.8516,367.8594 Q349.2188,368.1875 348.7266,368.9375 Q348.2344,369.6875 348.2344,370.7188 L348.2344,371.8125 Q348.2344,373.0469 349.125,373.8672 Q350.0156,374.6875 351.6094,374.6875 Q352.5469,374.6875 353.2031,374.4375 Q353.5938,374.2813 354.0156,373.8438 Q354.2813,373.5781 354.4297,373.5 Q354.5781,373.4219 354.7813,373.4219 Q355.1094,373.4219 355.3672,373.6797 Q355.625,373.9375 355.625,374.2813 Q355.625,374.625 355.2813,375.0313 Q354.7813,375.6094 353.9844,375.9375 Q352.9063,376.3906 351.6094,376.3906 Q350.0938,376.3906 348.8906,375.7656 Q347.9063,375.2656 347.2188,374.1953 Q346.5313,373.125 346.5313,371.8438 L346.5313,370.6875 Q346.5313,369.3594 347.1484,368.2109 Q347.7656,367.0625 348.8594,366.4453 Q349.9531,365.8281 351.1875,365.8281 Q351.9219,365.8281 352.5703,365.9922 Q353.2188,366.1563 353.7656,366.5156 Z "/><text fill="#000000" font-family="sans-serif" font-size="12" lengthAdjust="spacingAndGlyphs" textLength="80" x="365" y="375.5508">Mantenibilidad</text><line style="stroke: #A80036; stroke-width: 1.5;" x1="337" x2="447" y1="386.6406" y2="386.6406"/><line style="stroke: #A80036; stroke-width: 1.5;" x1="337" x2="447" y1="394.6406" y2="394.6406"/><!--class ProductoSoftwareBajaCalidad--><rect fill="url(#gyj9fd5c2j58x0)" filter="url(#fyj9fd5c2j58x)" height="48" id="ProductoSoftwareBajaCalidad" style="stroke: #A80036; stroke-width: 1.5;" width="196" x="415" y="246.6406"/><rect fill="url(#gyj9fd5c2j58x0)" height="32" style="stroke: #A80036; stroke-width: 1.5;" width="196" x="415" y="246.6406"/><ellipse cx="430" cy="262.6406" fill="#ADD1B2" rx="11" ry="11" style="stroke: #A80036; stroke-width: 1.0;"/><path d="M432.7656,258.5156 Q432.9219,258.2969 433.1094,258.1875 Q433.2969,258.0781 433.5156,258.0781 Q433.8906,258.0781 434.125,258.3359 Q434.3594,258.5938 434.3594,259.2031 L434.3594,260.6563 Q434.3594,261.2656 434.125,261.5313 Q433.8906,261.7969 433.5156,261.7969 Q433.1719,261.7969 432.9688,261.5938 Q432.7656,261.4063 432.6563,260.8906 Q432.6094,260.5313 432.4219,260.3438 Q432.0938,259.9688 431.4844,259.75 Q430.875,259.5313 430.25,259.5313 Q429.4844,259.5313 428.8516,259.8594 Q428.2188,260.1875 427.7266,260.9375 Q427.2344,261.6875 427.2344,262.7188 L427.2344,263.8125 Q427.2344,265.0469 428.125,265.8672 Q429.0156,266.6875 430.6094,266.6875 Q431.5469,266.6875 432.2031,266.4375 Q432.5938,266.2813 433.0156,265.8438 Q433.2813,265.5781 433.4297,265.5 Q433.5781,265.4219 433.7813,265.4219 Q434.1094,265.4219 434.3672,265.6797 Q434.625,265.9375 434.625,266.2813 Q434.625,266.625 434.2813,267.0313 Q433.7813,267.6094 432.9844,267.9375 Q431.9063,268.3906 430.6094,268.3906 Q429.0938,268.3906 427.8906,267.7656 Q426.9063,267.2656 426.2188,266.1953 Q425.5313,265.125 425.5313,263.8438 L425.5313,262.6875 Q425.5313,261.3594 426.1484,260.2109 Q426.7656,259.0625 427.8594,258.4453 Q428.9531,257.8281 430.1875,257.8281 Q430.9219,257.8281 431.5703,257.9922 Q432.2188,258.1563 432.7656,258.5156 Z "/><text fill="#000000" font-family="sans-serif" font-size="12" lengthAdjust="spacingAndGlyphs" textLength="164" x="444" y="267.5508">Producto Software No Efectivo</text><line style="stroke: #A80036; stroke-width: 1.5;" x1="416" x2="610" y1="278.6406" y2="278.6406"/><line style="stroke: #A80036; stroke-width: 1.5;" x1="416" x2="610" y1="286.6406" y2="286.6406"/><!--class BajaMantenibilidad--><rect fill="url(#gyj9fd5c2j58x1)" filter="url(#fyj9fd5c2j58x)" height="48" id="BajaMantenibilidad" style="stroke: #A80036; stroke-width: 1.5;" width="137" x="392.5" y="462.6406"/><rect fill="url(#gyj9fd5c2j58x1)" height="32" style="stroke: #A80036; stroke-width: 1.5;" width="137" x="392.5" y="462.6406"/><ellipse cx="407.5" cy="478.6406" fill="#ADD1B2" rx="11" ry="11" style="stroke: #A80036; stroke-width: 1.0;"/><path d="M410.2656,474.5156 Q410.4219,474.2969 410.6094,474.1875 Q410.7969,474.0781 411.0156,474.0781 Q411.3906,474.0781 411.625,474.3359 Q411.8594,474.5938 411.8594,475.2031 L411.8594,476.6563 Q411.8594,477.2656 411.625,477.5313 Q411.3906,477.7969 411.0156,477.7969 Q410.6719,477.7969 410.4688,477.5938 Q410.2656,477.4063 410.1563,476.8906 Q410.1094,476.5313 409.9219,476.3438 Q409.5938,475.9688 408.9844,475.75 Q408.375,475.5313 407.75,475.5313 Q406.9844,475.5313 406.3516,475.8594 Q405.7188,476.1875 405.2266,476.9375 Q404.7344,477.6875 404.7344,478.7188 L404.7344,479.8125 Q404.7344,481.0469 405.625,481.8672 Q406.5156,482.6875 408.1094,482.6875 Q409.0469,482.6875 409.7031,482.4375 Q410.0938,482.2813 410.5156,481.8438 Q410.7813,481.5781 410.9297,481.5 Q411.0781,481.4219 411.2813,481.4219 Q411.6094,481.4219 411.8672,481.6797 Q412.125,481.9375 412.125,482.2813 Q412.125,482.625 411.7813,483.0313 Q411.2813,483.6094 410.4844,483.9375 Q409.4063,484.3906 408.1094,484.3906 Q406.5938,484.3906 405.3906,483.7656 Q404.4063,483.2656 403.7188,482.1953 Q403.0313,481.125 403.0313,479.8438 L403.0313,478.6875 Q403.0313,477.3594 403.6484,476.2109 Q404.2656,475.0625 405.3594,474.4453 Q406.4531,473.8281 407.6875,473.8281 Q408.4219,473.8281 409.0703,473.9922 Q409.7188,474.1563 410.2656,474.5156 Z "/><text fill="#000000" font-family="sans-serif" font-size="12" lengthAdjust="spacingAndGlyphs" textLength="105" x="421.5" y="483.5508">BajaMantenibilidad</text><line style="stroke: #A80036; stroke-width: 1.5;" x1="393.5" x2="528.5" y1="494.6406" y2="494.6406"/><line style="stroke: #A80036; stroke-width: 1.5;" x1="393.5" x2="528.5" y1="502.6406" y2="502.6406"/><!--class Eficacia--><rect fill="#FFA500" filter="url(#fyj9fd5c2j58x)" height="48" id="Eficacia" style="stroke: #A80036; stroke-width: 1.5;" width="75" x="225.5" y="354.6406"/><rect fill="#FFA500" height="32" style="stroke: #A80036; stroke-width: 1.5;" width="75" x="225.5" y="354.6406"/><ellipse cx="240.5" cy="370.6406" fill="#ADD1B2" rx="11" ry="11" style="stroke: #A80036; stroke-width: 1.0;"/><path d="M243.2656,366.5156 Q243.4219,366.2969 243.6094,366.1875 Q243.7969,366.0781 244.0156,366.0781 Q244.3906,366.0781 244.625,366.3359 Q244.8594,366.5938 244.8594,367.2031 L244.8594,368.6563 Q244.8594,369.2656 244.625,369.5313 Q244.3906,369.7969 244.0156,369.7969 Q243.6719,369.7969 243.4688,369.5938 Q243.2656,369.4063 243.1563,368.8906 Q243.1094,368.5313 242.9219,368.3438 Q242.5938,367.9688 241.9844,367.75 Q241.375,367.5313 240.75,367.5313 Q239.9844,367.5313 239.3516,367.8594 Q238.7188,368.1875 238.2266,368.9375 Q237.7344,369.6875 237.7344,370.7188 L237.7344,371.8125 Q237.7344,373.0469 238.625,373.8672 Q239.5156,374.6875 241.1094,374.6875 Q242.0469,374.6875 242.7031,374.4375 Q243.0938,374.2813 243.5156,373.8438 Q243.7813,373.5781 243.9297,373.5 Q244.0781,373.4219 244.2813,373.4219 Q244.6094,373.4219 244.8672,373.6797 Q245.125,373.9375 245.125,374.2813 Q245.125,374.625 244.7813,375.0313 Q244.2813,375.6094 243.4844,375.9375 Q242.4063,376.3906 241.1094,376.3906 Q239.5938,376.3906 238.3906,375.7656 Q237.4063,375.2656 236.7188,374.1953 Q236.0313,373.125 236.0313,371.8438 L236.0313,370.6875 Q236.0313,369.3594 236.6484,368.2109 Q237.2656,367.0625 238.3594,366.4453 Q239.4531,365.8281 240.6875,365.8281 Q241.4219,365.8281 242.0703,365.9922 Q242.7188,366.1563 243.2656,366.5156 Z "/><text fill="#000000" font-family="sans-serif" font-size="12" lengthAdjust="spacingAndGlyphs" textLength="43" x="254.5" y="375.5508">Eficacia</text><line style="stroke: #A80036; stroke-width: 1.5;" x1="226.5" x2="299.5" y1="386.6406" y2="386.6406"/><line style="stroke: #A80036; stroke-width: 1.5;" x1="226.5" x2="299.5" y1="394.6406" y2="394.6406"/><!--class Eficiencia--><rect fill="#FFA500" filter="url(#fyj9fd5c2j58x)" height="48" id="Eficiencia" style="stroke: #A80036; stroke-width: 1.5;" width="85" x="105.5" y="354.6406"/><rect fill="#FFA500" height="32" style="stroke: #A80036; stroke-width: 1.5;" width="85" x="105.5" y="354.6406"/><ellipse cx="120.5" cy="370.6406" fill="#ADD1B2" rx="11" ry="11" style="stroke: #A80036; stroke-width: 1.0;"/><path d="M123.2656,366.5156 Q123.4219,366.2969 123.6094,366.1875 Q123.7969,366.0781 124.0156,366.0781 Q124.3906,366.0781 124.625,366.3359 Q124.8594,366.5938 124.8594,367.2031 L124.8594,368.6563 Q124.8594,369.2656 124.625,369.5313 Q124.3906,369.7969 124.0156,369.7969 Q123.6719,369.7969 123.4688,369.5938 Q123.2656,369.4063 123.1563,368.8906 Q123.1094,368.5313 122.9219,368.3438 Q122.5938,367.9688 121.9844,367.75 Q121.375,367.5313 120.75,367.5313 Q119.9844,367.5313 119.3516,367.8594 Q118.7188,368.1875 118.2266,368.9375 Q117.7344,369.6875 117.7344,370.7188 L117.7344,371.8125 Q117.7344,373.0469 118.625,373.8672 Q119.5156,374.6875 121.1094,374.6875 Q122.0469,374.6875 122.7031,374.4375 Q123.0938,374.2813 123.5156,373.8438 Q123.7813,373.5781 123.9297,373.5 Q124.0781,373.4219 124.2813,373.4219 Q124.6094,373.4219 124.8672,373.6797 Q125.125,373.9375 125.125,374.2813 Q125.125,374.625 124.7813,375.0313 Q124.2813,375.6094 123.4844,375.9375 Q122.4063,376.3906 121.1094,376.3906 Q119.5938,376.3906 118.3906,375.7656 Q117.4063,375.2656 116.7188,374.1953 Q116.0313,373.125 116.0313,371.8438 L116.0313,370.6875 Q116.0313,369.3594 116.6484,368.2109 Q117.2656,367.0625 118.3594,366.4453 Q119.4531,365.8281 120.6875,365.8281 Q121.4219,365.8281 122.0703,365.9922 Q122.7188,366.1563 123.2656,366.5156 Z "/><text fill="#000000" font-family="sans-serif" font-size="12" lengthAdjust="spacingAndGlyphs" textLength="53" x="134.5" y="375.5508">Eficiencia</text><line style="stroke: #A80036; stroke-width: 1.5;" x1="106.5" x2="189.5" y1="386.6406" y2="386.6406"/><line style="stroke: #A80036; stroke-width: 1.5;" x1="106.5" x2="189.5" y1="394.6406" y2="394.6406"/><!--class Usabilidad--><rect fill="#6495ED" filter="url(#fyj9fd5c2j58x)" height="48" id="Usabilidad" style="stroke: #A80036; stroke-width: 1.5;" width="92" x="103" y="462.6406"/><rect fill="#6495ED" height="32" style="stroke: #A80036; stroke-width: 1.5;" width="92" x="103" y="462.6406"/><ellipse cx="118" cy="478.6406" fill="#ADD1B2" rx="11" ry="11" style="stroke: #A80036; stroke-width: 1.0;"/><path d="M120.7656,474.5156 Q120.9219,474.2969 121.1094,474.1875 Q121.2969,474.0781 121.5156,474.0781 Q121.8906,474.0781 122.125,474.3359 Q122.3594,474.5938 122.3594,475.2031 L122.3594,476.6563 Q122.3594,477.2656 122.125,477.5313 Q121.8906,477.7969 121.5156,477.7969 Q121.1719,477.7969 120.9688,477.5938 Q120.7656,477.4063 120.6563,476.8906 Q120.6094,476.5313 120.4219,476.3438 Q120.0938,475.9688 119.4844,475.75 Q118.875,475.5313 118.25,475.5313 Q117.4844,475.5313 116.8516,475.8594 Q116.2188,476.1875 115.7266,476.9375 Q115.2344,477.6875 115.2344,478.7188 L115.2344,479.8125 Q115.2344,481.0469 116.125,481.8672 Q117.0156,482.6875 118.6094,482.6875 Q119.5469,482.6875 120.2031,482.4375 Q120.5938,482.2813 121.0156,481.8438 Q121.2813,481.5781 121.4297,481.5 Q121.5781,481.4219 121.7813,481.4219 Q122.1094,481.4219 122.3672,481.6797 Q122.625,481.9375 122.625,482.2813 Q122.625,482.625 122.2813,483.0313 Q121.7813,483.6094 120.9844,483.9375 Q119.9063,484.3906 118.6094,484.3906 Q117.0938,484.3906 115.8906,483.7656 Q114.9063,483.2656 114.2188,482.1953 Q113.5313,481.125 113.5313,479.8438 L113.5313,478.6875 Q113.5313,477.3594 114.1484,476.2109 Q114.7656,475.0625 115.8594,474.4453 Q116.9531,473.8281 118.1875,473.8281 Q118.9219,473.8281 119.5703,473.9922 Q120.2188,474.1563 120.7656,474.5156 Z "/><text fill="#000000" font-family="sans-serif" font-size="12" lengthAdjust="spacingAndGlyphs" textLength="60" x="132" y="483.5508">Usabilidad</text><line style="stroke: #A80036; stroke-width: 1.5;" x1="104" x2="194" y1="494.6406" y2="494.6406"/><line style="stroke: #A80036; stroke-width: 1.5;" x1="104" x2="194" y1="502.6406" y2="502.6406"/><!--class Escalabilidad--><rect fill="#6495ED" filter="url(#fyj9fd5c2j58x)" height="48" id="Escalabilidad" style="stroke: #A80036; stroke-width: 1.5;" width="107" x="230.5" y="462.6406"/><rect fill="#6495ED" height="32" style="stroke: #A80036; stroke-width: 1.5;" width="107" x="230.5" y="462.6406"/><ellipse cx="245.5" cy="478.6406" fill="#ADD1B2" rx="11" ry="11" style="stroke: #A80036; stroke-width: 1.0;"/><path d="M248.2656,474.5156 Q248.4219,474.2969 248.6094,474.1875 Q248.7969,474.0781 249.0156,474.0781 Q249.3906,474.0781 249.625,474.3359 Q249.8594,474.5938 249.8594,475.2031 L249.8594,476.6563 Q249.8594,477.2656 249.625,477.5313 Q249.3906,477.7969 249.0156,477.7969 Q248.6719,477.7969 248.4688,477.5938 Q248.2656,477.4063 248.1563,476.8906 Q248.1094,476.5313 247.9219,476.3438 Q247.5938,475.9688 246.9844,475.75 Q246.375,475.5313 245.75,475.5313 Q244.9844,475.5313 244.3516,475.8594 Q243.7188,476.1875 243.2266,476.9375 Q242.7344,477.6875 242.7344,478.7188 L242.7344,479.8125 Q242.7344,481.0469 243.625,481.8672 Q244.5156,482.6875 246.1094,482.6875 Q247.0469,482.6875 247.7031,482.4375 Q248.0938,482.2813 248.5156,481.8438 Q248.7813,481.5781 248.9297,481.5 Q249.0781,481.4219 249.2813,481.4219 Q249.6094,481.4219 249.8672,481.6797 Q250.125,481.9375 250.125,482.2813 Q250.125,482.625 249.7813,483.0313 Q249.2813,483.6094 248.4844,483.9375 Q247.4063,484.3906 246.1094,484.3906 Q244.5938,484.3906 243.3906,483.7656 Q242.4063,483.2656 241.7188,482.1953 Q241.0313,481.125 241.0313,479.8438 L241.0313,478.6875 Q241.0313,477.3594 241.6484,476.2109 Q242.2656,475.0625 243.3594,474.4453 Q244.4531,473.8281 245.6875,473.8281 Q246.4219,473.8281 247.0703,473.9922 Q247.7188,474.1563 248.2656,474.5156 Z "/><text fill="#000000" font-family="sans-serif" font-size="12" lengthAdjust="spacingAndGlyphs" textLength="75" x="259.5" y="483.5508">Escalabilidad</text><line style="stroke: #A80036; stroke-width: 1.5;" x1="231.5" x2="336.5" y1="494.6406" y2="494.6406"/><line style="stroke: #A80036; stroke-width: 1.5;" x1="231.5" x2="336.5" y1="502.6406" y2="502.6406"/><!--class ComplejidadArbitraria--><rect fill="#FF0000" filter="url(#fyj9fd5c2j58x)" height="48" id="ComplejidadArbitraria" style="stroke: #A80036; stroke-width: 1.5;" width="155" x="669.5" y="570.6406"/><rect fill="#FF0000" height="32" style="stroke: #A80036; stroke-width: 1.5;" width="155" x="669.5" y="570.6406"/><ellipse cx="684.5" cy="586.6406" fill="#ADD1B2" rx="11" ry="11" style="stroke: #A80036; stroke-width: 1.0;"/><path d="M687.2656,582.5156 Q687.4219,582.2969 687.6094,582.1875 Q687.7969,582.0781 688.0156,582.0781 Q688.3906,582.0781 688.625,582.3359 Q688.8594,582.5938 688.8594,583.2031 L688.8594,584.6563 Q688.8594,585.2656 688.625,585.5313 Q688.3906,585.7969 688.0156,585.7969 Q687.6719,585.7969 687.4688,585.5938 Q687.2656,585.4063 687.1563,584.8906 Q687.1094,584.5313 686.9219,584.3438 Q686.5938,583.9688 685.9844,583.75 Q685.375,583.5313 684.75,583.5313 Q683.9844,583.5313 683.3516,583.8594 Q682.7188,584.1875 682.2266,584.9375 Q681.7344,585.6875 681.7344,586.7188 L681.7344,587.8125 Q681.7344,589.0469 682.625,589.8672 Q683.5156,590.6875 685.1094,590.6875 Q686.0469,590.6875 686.7031,590.4375 Q687.0938,590.2813 687.5156,589.8438 Q687.7813,589.5781 687.9297,589.5 Q688.0781,589.4219 688.2813,589.4219 Q688.6094,589.4219 688.8672,589.6797 Q689.125,589.9375 689.125,590.2813 Q689.125,590.625 688.7813,591.0313 Q688.2813,591.6094 687.4844,591.9375 Q686.4063,592.3906 685.1094,592.3906 Q683.5938,592.3906 682.3906,591.7656 Q681.4063,591.2656 680.7188,590.1953 Q680.0313,589.125 680.0313,587.8438 L680.0313,586.6875 Q680.0313,585.3594 680.6484,584.2109 Q681.2656,583.0625 682.3594,582.4453 Q683.4531,581.8281 684.6875,581.8281 Q685.4219,581.8281 686.0703,581.9922 Q686.7188,582.1563 687.2656,582.5156 Z "/><text fill="#000000" font-family="sans-serif" font-size="12" lengthAdjust="spacingAndGlyphs" textLength="123" x="698.5" y="591.5508">Complejidad Arbitraria</text><line style="stroke: #A80036; stroke-width: 1.5;" x1="670.5" x2="823.5" y1="602.6406" y2="602.6406"/><line style="stroke: #A80036; stroke-width: 1.5;" x1="670.5" x2="823.5" y1="610.6406" y2="610.6406"/><path d="M6,581.6406 L6,607.9922 L146,607.9922 L146,591.6406 L136,581.6406 L6,581.6406 " fill="#FBFB77" filter="url(#fyj9fd5c2j58x)" style="stroke: #A80036; stroke-width: 1.0;"/><path d="M136,581.6406 L136,591.6406 L146,591.6406 L136,581.6406 " fill="#FBFB77" style="stroke: #A80036; stroke-width: 1.0;"/><text fill="#000000" font-family="sans-serif" font-size="13" lengthAdjust="spacingAndGlyphs" textLength="119" x="12" y="600.1357">Enemigo público nº1</text><!--class Viscosidad--><rect fill="url(#gyj9fd5c2j58x1)" filter="url(#fyj9fd5c2j58x)" height="48" id="Viscosidad" style="stroke: #A80036; stroke-width: 1.5;" width="93" x="181.5" y="570.6406"/><rect fill="url(#gyj9fd5c2j58x1)" height="32" style="stroke: #A80036; stroke-width: 1.5;" width="93" x="181.5" y="570.6406"/><ellipse cx="196.5" cy="586.6406" fill="#ADD1B2" rx="11" ry="11" style="stroke: #A80036; stroke-width: 1.0;"/><path d="M199.2656,582.5156 Q199.4219,582.2969 199.6094,582.1875 Q199.7969,582.0781 200.0156,582.0781 Q200.3906,582.0781 200.625,582.3359 Q200.8594,582.5938 200.8594,583.2031 L200.8594,584.6563 Q200.8594,585.2656 200.625,585.5313 Q200.3906,585.7969 200.0156,585.7969 Q199.6719,585.7969 199.4688,585.5938 Q199.2656,585.4063 199.1563,584.8906 Q199.1094,584.5313 198.9219,584.3438 Q198.5938,583.9688 197.9844,583.75 Q197.375,583.5313 196.75,583.5313 Q195.9844,583.5313 195.3516,583.8594 Q194.7188,584.1875 194.2266,584.9375 Q193.7344,585.6875 193.7344,586.7188 L193.7344,587.8125 Q193.7344,589.0469 194.625,589.8672 Q195.5156,590.6875 197.1094,590.6875 Q198.0469,590.6875 198.7031,590.4375 Q199.0938,590.2813 199.5156,589.8438 Q199.7813,589.5781 199.9297,589.5 Q200.0781,589.4219 200.2813,589.4219 Q200.6094,589.4219 200.8672,589.6797 Q201.125,589.9375 201.125,590.2813 Q201.125,590.625 200.7813,591.0313 Q200.2813,591.6094 199.4844,591.9375 Q198.4063,592.3906 197.1094,592.3906 Q195.5938,592.3906 194.3906,591.7656 Q193.4063,591.2656 192.7188,590.1953 Q192.0313,589.125 192.0313,587.8438 L192.0313,586.6875 Q192.0313,585.3594 192.6484,584.2109 Q193.2656,583.0625 194.3594,582.4453 Q195.4531,581.8281 196.6875,581.8281 Q197.4219,581.8281 198.0703,581.9922 Q198.7188,582.1563 199.2656,582.5156 Z "/><text fill="#000000" font-family="sans-serif" font-size="12" lengthAdjust="spacingAndGlyphs" textLength="61" x="210.5" y="591.5508">Viscosidad</text><line style="stroke: #A80036; stroke-width: 1.5;" x1="182.5" x2="273.5" y1="602.6406" y2="602.6406"/><line style="stroke: #A80036; stroke-width: 1.5;" x1="182.5" x2="273.5" y1="610.6406" y2="610.6406"/><!--class Rigidez--><rect fill="url(#gyj9fd5c2j58x1)" filter="url(#fyj9fd5c2j58x)" height="48" id="Rigidez" style="stroke: #A80036; stroke-width: 1.5;" width="73" x="309.5" y="570.6406"/><rect fill="url(#gyj9fd5c2j58x1)" height="32" style="stroke: #A80036; stroke-width: 1.5;" width="73" x="309.5" y="570.6406"/><ellipse cx="324.5" cy="586.6406" fill="#ADD1B2" rx="11" ry="11" style="stroke: #A80036; stroke-width: 1.0;"/><path d="M327.2656,582.5156 Q327.4219,582.2969 327.6094,582.1875 Q327.7969,582.0781 328.0156,582.0781 Q328.3906,582.0781 328.625,582.3359 Q328.8594,582.5938 328.8594,583.2031 L328.8594,584.6563 Q328.8594,585.2656 328.625,585.5313 Q328.3906,585.7969 328.0156,585.7969 Q327.6719,585.7969 327.4688,585.5938 Q327.2656,585.4063 327.1563,584.8906 Q327.1094,584.5313 326.9219,584.3438 Q326.5938,583.9688 325.9844,583.75 Q325.375,583.5313 324.75,583.5313 Q323.9844,583.5313 323.3516,583.8594 Q322.7188,584.1875 322.2266,584.9375 Q321.7344,585.6875 321.7344,586.7188 L321.7344,587.8125 Q321.7344,589.0469 322.625,589.8672 Q323.5156,590.6875 325.1094,590.6875 Q326.0469,590.6875 326.7031,590.4375 Q327.0938,590.2813 327.5156,589.8438 Q327.7813,589.5781 327.9297,589.5 Q328.0781,589.4219 328.2813,589.4219 Q328.6094,589.4219 328.8672,589.6797 Q329.125,589.9375 329.125,590.2813 Q329.125,590.625 328.7813,591.0313 Q328.2813,591.6094 327.4844,591.9375 Q326.4063,592.3906 325.1094,592.3906 Q323.5938,592.3906 322.3906,591.7656 Q321.4063,591.2656 320.7188,590.1953 Q320.0313,589.125 320.0313,587.8438 L320.0313,586.6875 Q320.0313,585.3594 320.6484,584.2109 Q321.2656,583.0625 322.3594,582.4453 Q323.4531,581.8281 324.6875,581.8281 Q325.4219,581.8281 326.0703,581.9922 Q326.7188,582.1563 327.2656,582.5156 Z "/><text fill="#000000" font-family="sans-serif" font-size="12" lengthAdjust="spacingAndGlyphs" textLength="41" x="338.5" y="591.5508">Rigidez</text><line style="stroke: #A80036; stroke-width: 1.5;" x1="310.5" x2="381.5" y1="602.6406" y2="602.6406"/><line style="stroke: #A80036; stroke-width: 1.5;" x1="310.5" x2="381.5" y1="610.6406" y2="610.6406"/><!--class Fragilidad--><rect fill="url(#gyj9fd5c2j58x1)" filter="url(#fyj9fd5c2j58x)" height="48" id="Fragilidad" style="stroke: #A80036; stroke-width: 1.5;" width="87" x="417.5" y="570.6406"/><rect fill="url(#gyj9fd5c2j58x1)" height="32" style="stroke: #A80036; stroke-width: 1.5;" width="87" x="417.5" y="570.6406"/><ellipse cx="432.5" cy="586.6406" fill="#ADD1B2" rx="11" ry="11" style="stroke: #A80036; stroke-width: 1.0;"/><path d="M435.2656,582.5156 Q435.4219,582.2969 435.6094,582.1875 Q435.7969,582.0781 436.0156,582.0781 Q436.3906,582.0781 436.625,582.3359 Q436.8594,582.5938 436.8594,583.2031 L436.8594,584.6563 Q436.8594,585.2656 436.625,585.5313 Q436.3906,585.7969 436.0156,585.7969 Q435.6719,585.7969 435.4688,585.5938 Q435.2656,585.4063 435.1563,584.8906 Q435.1094,584.5313 434.9219,584.3438 Q434.5938,583.9688 433.9844,583.75 Q433.375,583.5313 432.75,583.5313 Q431.9844,583.5313 431.3516,583.8594 Q430.7188,584.1875 430.2266,584.9375 Q429.7344,585.6875 429.7344,586.7188 L429.7344,587.8125 Q429.7344,589.0469 430.625,589.8672 Q431.5156,590.6875 433.1094,590.6875 Q434.0469,590.6875 434.7031,590.4375 Q435.0938,590.2813 435.5156,589.8438 Q435.7813,589.5781 435.9297,589.5 Q436.0781,589.4219 436.2813,589.4219 Q436.6094,589.4219 436.8672,589.6797 Q437.125,589.9375 437.125,590.2813 Q437.125,590.625 436.7813,591.0313 Q436.2813,591.6094 435.4844,591.9375 Q434.4063,592.3906 433.1094,592.3906 Q431.5938,592.3906 430.3906,591.7656 Q429.4063,591.2656 428.7188,590.1953 Q428.0313,589.125 428.0313,587.8438 L428.0313,586.6875 Q428.0313,585.3594 428.6484,584.2109 Q429.2656,583.0625 430.3594,582.4453 Q431.4531,581.8281 432.6875,581.8281 Q433.4219,581.8281 434.0703,581.9922 Q434.7188,582.1563 435.2656,582.5156 Z "/><text fill="#000000" font-family="sans-serif" font-size="12" lengthAdjust="spacingAndGlyphs" textLength="55" x="446.5" y="591.5508">Fragilidad</text><line style="stroke: #A80036; stroke-width: 1.5;" x1="418.5" x2="503.5" y1="602.6406" y2="602.6406"/><line style="stroke: #A80036; stroke-width: 1.5;" x1="418.5" x2="503.5" y1="610.6406" y2="610.6406"/><!--class Inmovilidad--><rect fill="url(#gyj9fd5c2j58x1)" filter="url(#fyj9fd5c2j58x)" height="48" id="Inmovilidad" style="stroke: #A80036; stroke-width: 1.5;" width="95" x="539.5" y="570.6406"/><rect fill="url(#gyj9fd5c2j58x1)" height="32" style="stroke: #A80036; stroke-width: 1.5;" width="95" x="539.5" y="570.6406"/><ellipse cx="554.5" cy="586.6406" fill="#ADD1B2" rx="11" ry="11" style="stroke: #A80036; stroke-width: 1.0;"/><path d="M557.2656,582.5156 Q557.4219,582.2969 557.6094,582.1875 Q557.7969,582.0781 558.0156,582.0781 Q558.3906,582.0781 558.625,582.3359 Q558.8594,582.5938 558.8594,583.2031 L558.8594,584.6563 Q558.8594,585.2656 558.625,585.5313 Q558.3906,585.7969 558.0156,585.7969 Q557.6719,585.7969 557.4688,585.5938 Q557.2656,585.4063 557.1563,584.8906 Q557.1094,584.5313 556.9219,584.3438 Q556.5938,583.9688 555.9844,583.75 Q555.375,583.5313 554.75,583.5313 Q553.9844,583.5313 553.3516,583.8594 Q552.7188,584.1875 552.2266,584.9375 Q551.7344,585.6875 551.7344,586.7188 L551.7344,587.8125 Q551.7344,589.0469 552.625,589.8672 Q553.5156,590.6875 555.1094,590.6875 Q556.0469,590.6875 556.7031,590.4375 Q557.0938,590.2813 557.5156,589.8438 Q557.7813,589.5781 557.9297,589.5 Q558.0781,589.4219 558.2813,589.4219 Q558.6094,589.4219 558.8672,589.6797 Q559.125,589.9375 559.125,590.2813 Q559.125,590.625 558.7813,591.0313 Q558.2813,591.6094 557.4844,591.9375 Q556.4063,592.3906 555.1094,592.3906 Q553.5938,592.3906 552.3906,591.7656 Q551.4063,591.2656 550.7188,590.1953 Q550.0313,589.125 550.0313,587.8438 L550.0313,586.6875 Q550.0313,585.3594 550.6484,584.2109 Q551.2656,583.0625 552.3594,582.4453 Q553.4531,581.8281 554.6875,581.8281 Q555.4219,581.8281 556.0703,581.9922 Q556.7188,582.1563 557.2656,582.5156 Z "/><text fill="#000000" font-family="sans-serif" font-size="12" lengthAdjust="spacingAndGlyphs" textLength="63" x="568.5" y="591.5508">Inmovilidad</text><line style="stroke: #A80036; stroke-width: 1.5;" x1="540.5" x2="633.5" y1="602.6406" y2="602.6406"/><line style="stroke: #A80036; stroke-width: 1.5;" x1="540.5" x2="633.5" y1="610.6406" y2="610.6406"/><!--link ProductoSoftware to Calidad--><path d="M402.488,90.1106 C395.858,101.8246 388.446,114.9196 381.793,126.6726 " fill="none" id="ProductoSoftware-Calidad" style="stroke: #A80036; stroke-width: 1.0;"/><polygon fill="#A80036" points="375.201,138.3186,383.1152,132.4564,377.6638,133.9672,376.1529,128.5159,375.201,138.3186" style="stroke: #A80036; stroke-width: 1.0;"/><line style="stroke: #A80036; stroke-width: 1.0;" x1="377.6638" x2="381.6045" y1="133.9672" y2="127.0056"/><polygon fill="#A80036" points="408.981,78.6406,402.5444,81.8918,403.0698,89.0837,409.5065,85.8326,408.981,78.6406" style="stroke: #A80036; stroke-width: 1.0;"/><!--link Calidad to Efectividad--><path d="M331.529,196.2666 C319.6,209.0386 305.932,223.6726 293.957,236.4946 " fill="none" id="Calidad-Efectividad" style="stroke: #A80036; stroke-width: 1.0;"/><polygon fill="#A80036" points="284.781,246.3186,293.8474,242.4716,288.1939,242.6645,288.0009,237.011,284.781,246.3186" style="stroke: #A80036; stroke-width: 1.0;"/><line style="stroke: #A80036; stroke-width: 1.0;" x1="288.1939" x2="293.655" y1="242.6645" y2="236.8181"/><polygon fill="#A80036" points="340.518,186.6406,333.4993,188.2952,332.3271,195.4104,339.3458,193.7558,340.518,186.6406" style="stroke: #A80036; stroke-width: 1.0;"/><!--link Calidad to Mantenibilidad--><path d="M367.083,199.8986 C372.613,239.3496 381.403,302.0456 386.929,341.4646 " fill="none" id="Calidad-Mantenibilidad" style="stroke: #A80036; stroke-width: 1.0;"/><polygon fill="#A80036" points="388.736,354.3606,391.448,344.8925,388.042,349.409,383.5255,346.003,388.736,354.3606" style="stroke: #A80036; stroke-width: 1.0;"/><line style="stroke: #A80036; stroke-width: 1.0;" x1="388.042" x2="386.9315" y1="349.409" y2="341.4861"/><polygon fill="#A80036" points="365.268,186.9496,362.1396,193.4468,366.9337,198.8335,370.0621,192.3363,365.268,186.9496" style="stroke: #A80036; stroke-width: 1.0;"/><!--link ProductoSoftware to ProductoSoftwareBajaCalidad--><path d="M439.787,97.4706 C458.699,141.9446 487.928,210.6806 503.1,246.3606 " fill="none" id="ProductoSoftware-ProductoSoftwareBajaCalidad" style="stroke: #A80036; stroke-width: 1.0;"/><polygon fill="none" points="433.297,100.0936,431.912,78.9496,446.18,94.6156,433.297,100.0936" style="stroke: #A80036; stroke-width: 1.0;"/><!--link ProductoSoftwareBajaCalidad to BajaMantenibilidad--><path d="M507.336,294.9496 C497.724,334.5066 478.254,414.6346 467.876,457.3426 " fill="none" id="ProductoSoftwareBajaCalidad-BajaMantenibilidad" style="stroke: #A80036; stroke-width: 1.0;"/><polygon fill="#A80036" points="466.657,462.3606,472.6681,454.5589,467.837,457.5019,464.8941,452.6708,466.657,462.3606" style="stroke: #A80036; stroke-width: 1.0;"/><!--link Efectividad to Eficacia--><path d="M263,307.9786 C263,318.6466 263,330.3176 263,341.0046 " fill="none" id="Efectividad-Eficacia" style="stroke: #A80036; stroke-width: 1.0;"/><polygon fill="#A80036" points="263,354.3186,267,345.3186,263,349.3186,259,345.3186,263,354.3186" style="stroke: #A80036; stroke-width: 1.0;"/><line style="stroke: #A80036; stroke-width: 1.0;" x1="263" x2="263" y1="349.3186" y2="341.3186"/><polygon fill="#A80036" points="263,294.6406,259,300.6406,263,306.6406,267,300.6406,263,294.6406" style="stroke: #A80036; stroke-width: 1.0;"/><!--link Efectividad to Eficiencia--><path d="M228.101,303.8086 C213.886,316.9106 197.481,332.0316 183.233,345.1646 " fill="none" id="Efectividad-Eficiencia" style="stroke: #A80036; stroke-width: 1.0;"/><polygon fill="#A80036" points="173.302,354.3186,182.6307,351.1603,176.9786,350.93,177.2089,345.2778,173.302,354.3186" style="stroke: #A80036; stroke-width: 1.0;"/><line style="stroke: #A80036; stroke-width: 1.0;" x1="176.9786" x2="182.8605" y1="350.93" y2="345.5081"/><polygon fill="#A80036" points="238.047,294.6406,230.9243,295.7663,229.2239,302.7741,236.3466,301.6484,238.047,294.6406" style="stroke: #A80036; stroke-width: 1.0;"/><!--link Efectividad to Mantenibilidad--><path d="M290.991,294.6406 C311.221,311.2646 338.596,333.7586 359.745,351.1366 " fill="none" id="Efectividad-Mantenibilidad" style="stroke: #A80036; stroke-width: 1.0;"/><polygon fill="#A80036" points="363.618,354.3186,359.2041,345.5142,359.755,351.1442,354.125,351.6951,363.618,354.3186" style="stroke: #A80036; stroke-width: 1.0;"/><!--link Eficacia to Usabilidad--><path d="M223.413,416.4496 C207.036,431.6766 188.538,448.8776 174.082,462.3186 " fill="none" id="Eficacia-Usabilidad" style="stroke: #A80036; stroke-width: 1.0;"/><polygon fill="none" points="218.85,411.1336,238.264,402.6406,228.384,421.3866,218.85,411.1336" style="stroke: #A80036; stroke-width: 1.0;"/><!--link Eficacia to Escalabilidad--><path d="M271.524,422.6646 C274.209,436.2196 277.074,450.6786 279.38,462.3186 " fill="none" id="Eficacia-Escalabilidad" style="stroke: #A80036; stroke-width: 1.0;"/><polygon fill="none" points="264.577,423.6206,267.557,402.6406,278.31,420.8996,264.577,423.6206" style="stroke: #A80036; stroke-width: 1.0;"/><!--link Mantenibilidad to BajaMantenibilidad--><path d="M418.125,419.7746 C427.476,434.1396 437.701,449.8476 445.819,462.3186 " fill="none" id="Mantenibilidad-BajaMantenibilidad" style="stroke: #A80036; stroke-width: 1.0;"/><polygon fill="none" points="412.016,423.2216,406.972,402.6406,423.749,415.5836,412.016,423.2216" style="stroke: #A80036; stroke-width: 1.0;"/><!--link GMN66 to ComplejidadArbitraria--><path d="M94.7446,581.5505 C115.04,568.2432 148.895,548.5001 181.5,540.6406 C279.364,517.0506 536.343,518.3026 634.5,540.6406 C660.272,546.5056 687.03,559.0445 707.981,570.5643 " fill="none" id="GMN66-ComplejidadArbitraria" style="stroke: #A80036; stroke-width: 1.0; stroke-dasharray: 7.0,7.0;"/><!--link BajaMantenibilidad to ComplejidadArbitraria--><path d="M535.463,515.2386 C577.539,530.8334 629.985,550.2713 672.128,565.8909 " fill="none" id="BajaMantenibilidad-ComplejidadArbitraria" style="stroke: #A80036; stroke-width: 1.0;"/><polygon fill="#A80036" points="684.57,570.5023,677.5215,563.6235,679.8817,568.7644,674.7408,571.1247,684.57,570.5023" style="stroke: #A80036; stroke-width: 1.0;"/><line style="stroke: #A80036; stroke-width: 1.0;" x1="679.8817" x2="672.3805" y1="568.7644" y2="565.9844"/><polygon fill="#A80036" points="523.058,510.6406,527.2936,516.4767,534.3098,514.8116,530.0742,508.9755,523.058,510.6406" style="stroke: #A80036; stroke-width: 1.0;"/><!--link BajaMantenibilidad to Viscosidad--><path d="M398.473,516.0866 C363.847,531.8388 321.056,551.3063 287.008,566.796 " fill="none" id="BajaMantenibilidad-Viscosidad" style="stroke: #A80036; stroke-width: 1.0;"/><polygon fill="#A80036" points="274.89,572.3085,284.7385,572.2219,279.441,570.2377,281.4252,564.9402,274.89,572.3085" style="stroke: #A80036; stroke-width: 1.0;"/><line style="stroke: #A80036; stroke-width: 1.0;" x1="279.441" x2="286.7235" y1="570.2377" y2="566.9252"/><polygon fill="#A80036" points="410.442,510.6406,403.3241,509.4847,399.5195,515.6105,406.6374,516.7664,410.442,510.6406" style="stroke: #A80036; stroke-width: 1.0;"/><!--link BajaMantenibilidad to Rigidez--><path d="M426.101,519.8088 C411.886,532.9105 395.481,548.032 381.233,561.1649 " fill="none" id="BajaMantenibilidad-Rigidez" style="stroke: #A80036; stroke-width: 1.0;"/><polygon fill="#A80036" points="371.302,570.319,380.6308,567.1608,374.9786,566.9304,375.209,561.2783,371.302,570.319" style="stroke: #A80036; stroke-width: 1.0;"/><line style="stroke: #A80036; stroke-width: 1.0;" x1="374.9786" x2="380.8605" y1="566.9304" y2="561.5083"/><polygon fill="#A80036" points="436.047,510.6406,428.9243,511.7664,427.224,518.7742,434.3467,517.6484,436.047,510.6406" style="stroke: #A80036; stroke-width: 1.0;"/><!--link BajaMantenibilidad to Fragilidad--><path d="M461,523.9789 C461,534.647 461,546.3178 461,557.0044 " fill="none" id="BajaMantenibilidad-Fragilidad" style="stroke: #A80036; stroke-width: 1.0;"/><polygon fill="#A80036" points="461,570.319,465,561.319,461,565.319,457,561.319,461,570.319" style="stroke: #A80036; stroke-width: 1.0;"/><line style="stroke: #A80036; stroke-width: 1.0;" x1="461" x2="461" y1="565.319" y2="557.3191"/><polygon fill="#A80036" points="461,510.6406,457,516.6406,461,522.6406,465,516.6406,461,510.6406" style="stroke: #A80036; stroke-width: 1.0;"/><!--link BajaMantenibilidad to Inmovilidad--><path d="M498.426,519.1259 C514.437,532.5952 533.101,548.2974 549.158,561.805 " fill="none" id="BajaMantenibilidad-Inmovilidad" style="stroke: #A80036; stroke-width: 1.0;"/><polygon fill="#A80036" points="559.278,570.319,554.9658,561.4644,555.4518,567.1003,549.8159,567.5863,559.278,570.319" style="stroke: #A80036; stroke-width: 1.0;"/><line style="stroke: #A80036; stroke-width: 1.0;" x1="555.4518" x2="549.33" y1="567.1003" y2="561.9501"/><polygon fill="#A80036" points="488.34,510.6406,490.3562,517.5641,497.5226,518.3659,495.5064,511.4424,488.34,510.6406" style="stroke: #A80036; stroke-width: 1.0;"/><!--
@startuml

title Producto Software no efectivo por mala calidad/mantenibilidad

class "Producto Software" as ProductoSoftware #GreenYellow
ProductoSoftware *-down-> Calidad
class Calidad #CornflowerBlue
Calidad *-down-> Efectividad
Calidad *-down-> Mantenibilidad

class "Producto Software No Efectivo" as ProductoSoftwareBajaCalidad #GreenYellow|red
ProductoSoftware <|-down- ProductoSoftwareBajaCalidad

ProductoSoftwareBajaCalidad - -> BajaMantenibilidad

class Efectividad #orange
Efectividad *-down-> Eficacia
Efectividad *-down-> Eficiencia

Efectividad - -> Mantenibilidad

class Eficiencia #orange
class Eficacia #orange
class Usabilidad #CornflowerBlue
class Escalabilidad #CornflowerBlue
Eficacia <|-down- Usabilidad
Eficacia <|-down- Escalabilidad

class Mantenibilidad #CornflowerBlue
class "Baja Mantenniblidad" as BajaMantenibilidad  #CornflowerBlue|red
Mantenibilidad <|-down- BajaMantenibilidad

class "Complejidad Arbitraria" as ComplejidadArbitraria  #red
note left {
Enemigo público nº1
}
BajaMantenibilidad *-down-> ComplejidadArbitraria

class Viscosidad #CornflowerBlue|red
class Rigidez #CornflowerBlue|red
class Fragilidad #CornflowerBlue|red
class Inmovilidad #CornflowerBlue|red

BajaMantenibilidad *-down-> Viscosidad
BajaMantenibilidad *-down-> Rigidez
BajaMantenibilidad *-down-> Fragilidad
BajaMantenibilidad *-down-> Inmovilidad

@enduml

PlantUML version 1.2019.05(Sat Apr 20 18:45:36 CEST 2019)
(GPL source distribution)
Java Runtime: OpenJDK Runtime Environment
JVM: OpenJDK 64-Bit Server VM
Java Version: 1.8.0_222-b10
Operating System: Windows 10
OS Version: 10.0
Default Encoding: windows-1252
Language: es
Country: ES
--></g></svg>