<?xml version="1.0" encoding="UTF-8" standalone="no"?><svg xmlns="http://www.w3.org/2000/svg" xmlns:xlink="http://www.w3.org/1999/xlink" contentScriptType="application/ecmascript" contentStyleType="text/css" height="419px" preserveAspectRatio="none" style="width:191px;height:419px;" version="1.1" viewBox="0 0 191 419" width="191px" zoomAndPan="magnify"><defs><filter height="300%" id="fi7j9igmylvdx" width="300%" x="-1" y="-1"><feGaussianBlur result="blurOut" stdDeviation="2.0"/><feColorMatrix in="blurOut" result="blurOut2" type="matrix" values="0 0 0 0 0 0 0 0 0 0 0 0 0 0 0 0 0 0 .4 0"/><feOffset dx="4.0" dy="4.0" in="blurOut2" result="blurOut3"/><feBlend in="SourceGraphic" in2="blurOut3" mode="normal"/></filter></defs><g><!--class X--><rect fill="#FEFECE" filter="url(#fi7j9igmylvdx)" height="117.1797" id="X" style="stroke: #A80036; stroke-width: 1.5;" width="57" x="6" y="291"/><ellipse cx="29.1" cy="307" fill="#ADD1B2" rx="11" ry="11" style="stroke: #A80036; stroke-width: 1.0;"/><path d="M31.8656,302.875 Q32.0219,302.6563 32.2094,302.5469 Q32.3969,302.4375 32.6156,302.4375 Q32.9906,302.4375 33.225,302.6953 Q33.4594,302.9531 33.4594,303.5625 L33.4594,305.0156 Q33.4594,305.625 33.225,305.8906 Q32.9906,306.1563 32.6156,306.1563 Q32.2719,306.1563 32.0688,305.9531 Q31.8656,305.7656 31.7563,305.25 Q31.7094,304.8906 31.5219,304.7031 Q31.1938,304.3281 30.5844,304.1094 Q29.975,303.8906 29.35,303.8906 Q28.5844,303.8906 27.9516,304.2188 Q27.3188,304.5469 26.8266,305.2969 Q26.3344,306.0469 26.3344,307.0781 L26.3344,308.1719 Q26.3344,309.4063 27.225,310.2266 Q28.1156,311.0469 29.7094,311.0469 Q30.6469,311.0469 31.3031,310.7969 Q31.6938,310.6406 32.1156,310.2031 Q32.3813,309.9375 32.5297,309.8594 Q32.6781,309.7813 32.8813,309.7813 Q33.2094,309.7813 33.4672,310.0391 Q33.725,310.2969 33.725,310.6406 Q33.725,310.9844 33.3813,311.3906 Q32.8813,311.9688 32.0844,312.2969 Q31.0063,312.75 29.7094,312.75 Q28.1938,312.75 26.9906,312.125 Q26.0063,311.625 25.3188,310.5547 Q24.6313,309.4844 24.6313,308.2031 L24.6313,307.0469 Q24.6313,305.7188 25.2484,304.5703 Q25.8656,303.4219 26.9594,302.8047 Q28.0531,302.1875 29.2875,302.1875 Q30.0219,302.1875 30.6703,302.3516 Q31.3188,302.5156 31.8656,302.875 Z "/><text fill="#000000" font-family="sans-serif" font-size="12" lengthAdjust="spacingAndGlyphs" textLength="7" x="44.9" y="311.9102">X</text><line style="stroke: #A80036; stroke-width: 1.5;" x1="7" x2="62" y1="323" y2="323"/><text fill="#000000" font-family="sans-serif" font-size="11" lengthAdjust="spacingAndGlyphs" textLength="17" x="12" y="338.4189">A a</text><text fill="#000000" font-family="sans-serif" font-size="11" lengthAdjust="spacingAndGlyphs" textLength="16" x="12" y="352.2549">B b</text><line style="stroke: #A80036; stroke-width: 1.5;" x1="7" x2="62" y1="358.6719" y2="358.6719"/><text fill="#000000" font-family="sans-serif" font-size="11" lengthAdjust="spacingAndGlyphs" textLength="45" x="12" y="374.0908">void m1()</text><text fill="#000000" font-family="sans-serif" font-size="11" lengthAdjust="spacingAndGlyphs" textLength="45" x="12" y="387.9268">void m2()</text><text fill="#000000" font-family="sans-serif" font-size="11" lengthAdjust="spacingAndGlyphs" textLength="45" x="12" y="401.7627">void m3()</text><!--class Y--><rect fill="#FEFECE" filter="url(#fi7j9igmylvdx)" height="144.8516" id="Y" style="stroke: #A80036; stroke-width: 1.5;" width="57" x="6" y="47"/><ellipse cx="29.1" cy="63" fill="#ADD1B2" rx="11" ry="11" style="stroke: #A80036; stroke-width: 1.0;"/><path d="M31.8656,58.875 Q32.0219,58.6563 32.2094,58.5469 Q32.3969,58.4375 32.6156,58.4375 Q32.9906,58.4375 33.225,58.6953 Q33.4594,58.9531 33.4594,59.5625 L33.4594,61.0156 Q33.4594,61.625 33.225,61.8906 Q32.9906,62.1563 32.6156,62.1563 Q32.2719,62.1563 32.0688,61.9531 Q31.8656,61.7656 31.7563,61.25 Q31.7094,60.8906 31.5219,60.7031 Q31.1938,60.3281 30.5844,60.1094 Q29.975,59.8906 29.35,59.8906 Q28.5844,59.8906 27.9516,60.2188 Q27.3188,60.5469 26.8266,61.2969 Q26.3344,62.0469 26.3344,63.0781 L26.3344,64.1719 Q26.3344,65.4063 27.225,66.2266 Q28.1156,67.0469 29.7094,67.0469 Q30.6469,67.0469 31.3031,66.7969 Q31.6938,66.6406 32.1156,66.2031 Q32.3813,65.9375 32.5297,65.8594 Q32.6781,65.7813 32.8813,65.7813 Q33.2094,65.7813 33.4672,66.0391 Q33.725,66.2969 33.725,66.6406 Q33.725,66.9844 33.3813,67.3906 Q32.8813,67.9688 32.0844,68.2969 Q31.0063,68.75 29.7094,68.75 Q28.1938,68.75 26.9906,68.125 Q26.0063,67.625 25.3188,66.5547 Q24.6313,65.4844 24.6313,64.2031 L24.6313,63.0469 Q24.6313,61.7188 25.2484,60.5703 Q25.8656,59.4219 26.9594,58.8047 Q28.0531,58.1875 29.2875,58.1875 Q30.0219,58.1875 30.6703,58.3516 Q31.3188,58.5156 31.8656,58.875 Z "/><text fill="#000000" font-family="sans-serif" font-size="12" lengthAdjust="spacingAndGlyphs" textLength="7" x="44.9" y="67.9102">Y</text><line style="stroke: #A80036; stroke-width: 1.5;" x1="7" x2="62" y1="79" y2="79"/><text fill="#000000" font-family="sans-serif" font-size="11" lengthAdjust="spacingAndGlyphs" textLength="16" x="12" y="94.4189">X x</text><text fill="#000000" font-family="sans-serif" font-size="11" lengthAdjust="spacingAndGlyphs" textLength="16" x="12" y="108.2549">C c</text><text fill="#000000" font-family="sans-serif" font-size="11" lengthAdjust="spacingAndGlyphs" textLength="16" x="12" y="122.0908">D d</text><line style="stroke: #A80036; stroke-width: 1.5;" x1="7" x2="62" y1="128.5078" y2="128.5078"/><text fill="#000000" font-family="sans-serif" font-size="11" lengthAdjust="spacingAndGlyphs" textLength="45" x="12" y="143.9268">void m1()</text><text fill="#000000" font-family="sans-serif" font-size="11" lengthAdjust="spacingAndGlyphs" textLength="45" x="12" y="157.7627">void m2()</text><text fill="#000000" font-family="sans-serif" font-size="11" lengthAdjust="spacingAndGlyphs" textLength="45" x="12" y="171.5986">void m3()</text><text fill="#000000" font-family="sans-serif" font-size="11" lengthAdjust="spacingAndGlyphs" textLength="45" x="12" y="185.4346">void m4()</text><path d="M98,8 L98,115.5 L63.3438,119.5 L98,123.5 L98,230.5703 A0,0 0 0 0 98,230.5703 L179,230.5703 A0,0 0 0 0 179,230.5703 L179,18 L169,8 L98,8 A0,0 0 0 0 98,8 " fill="#FBFB77" filter="url(#fi7j9igmylvdx)" style="stroke: #A80036; stroke-width: 1.0;"/><path d="M169,8 L169,18 L179,18 L169,8 " fill="#FBFB77" style="stroke: #A80036; stroke-width: 1.0;"/><text fill="#000000" font-family="sans-serif" font-size="13" lengthAdjust="spacingAndGlyphs" textLength="60" x="104" y="26.4951">void m1() {</text><text fill="#000000" font-family="sans-serif" font-size="13" lengthAdjust="spacingAndGlyphs" textLength="41" x="112" y="42.8467">x.m1();</text><text fill="#000000" font-family="sans-serif" font-size="13" lengthAdjust="spacingAndGlyphs" textLength="4" x="104" y="59.1982">}</text><text fill="#000000" font-family="sans-serif" font-size="13" lengthAdjust="spacingAndGlyphs" textLength="0" x="108" y="75.5498"/><text fill="#000000" font-family="sans-serif" font-size="13" lengthAdjust="spacingAndGlyphs" textLength="60" x="104" y="91.9014">void m2() {</text><text fill="#000000" font-family="sans-serif" font-size="13" lengthAdjust="spacingAndGlyphs" textLength="12" x="112" y="108.2529">...</text><text fill="#000000" font-family="sans-serif" font-size="13" lengthAdjust="spacingAndGlyphs" textLength="4" x="104" y="124.6045">}</text><text fill="#000000" font-family="sans-serif" font-size="13" lengthAdjust="spacingAndGlyphs" textLength="0" x="108" y="140.9561"/><text fill="#000000" font-family="sans-serif" font-size="13" lengthAdjust="spacingAndGlyphs" textLength="60" x="104" y="157.3076">void m3() {</text><text fill="#000000" font-family="sans-serif" font-size="13" lengthAdjust="spacingAndGlyphs" textLength="12" x="112" y="173.6592">...</text><text fill="#000000" font-family="sans-serif" font-size="13" lengthAdjust="spacingAndGlyphs" textLength="41" x="112" y="190.0107">x.m3();</text><text fill="#000000" font-family="sans-serif" font-size="13" lengthAdjust="spacingAndGlyphs" textLength="12" x="112" y="206.3623">...</text><text fill="#000000" font-family="sans-serif" font-size="13" lengthAdjust="spacingAndGlyphs" textLength="4" x="104" y="222.7139">}</text><!--link Y to X--><path d="M34.5,205.344 C34.5,233.876 34.5,265.02 34.5,290.952 " fill="none" id="Y-X" style="stroke: #A80036; stroke-width: 1.0;"/><polygon fill="#A80036" points="34.5,192.015,30.5,198.015,34.5,204.015,38.5,198.015,34.5,192.015" style="stroke: #A80036; stroke-width: 1.0;"/><!--
@startuml

class X {
A a
B b
void m1()
void m2()
void m3()
}

class Y {
X x
C c
D d
void m1()
void m2()
void m3()
void m4()
}
note right
void m1() {
  x.m1();
}

void m2() {
  ...
}

void m3() {
  ...
  x.m3();
  ...
}
endnote

Y *-down- X

@enduml

PlantUML version 1.2019.05(Sat Apr 20 18:45:36 CEST 2019)
(GPL source distribution)
Java Runtime: OpenJDK Runtime Environment
JVM: OpenJDK 64-Bit Server VM
Java Version: 1.8.0_222-b10
Operating System: Windows 10
OS Version: 10.0
Default Encoding: windows-1252
Language: es
Country: ES
--></g></svg>