<?xml version="1.0" encoding="UTF-8" standalone="no"?><svg xmlns="http://www.w3.org/2000/svg" xmlns:xlink="http://www.w3.org/1999/xlink" contentScriptType="application/ecmascript" contentStyleType="text/css" height="1004px" preserveAspectRatio="none" style="width:355px;height:1004px;" version="1.1" viewBox="0 0 355 1004" width="355px" zoomAndPan="magnify"><defs><filter height="300%" id="f6z3idhawukq0" width="300%" x="-1" y="-1"><feGaussianBlur result="blurOut" stdDeviation="2.0"/><feColorMatrix in="blurOut" result="blurOut2" type="matrix" values="0 0 0 0 0 0 0 0 0 0 0 0 0 0 0 0 0 0 .4 0"/><feOffset dx="4.0" dy="4.0" in="blurOut2" result="blurOut3"/><feBlend in="SourceGraphic" in2="blurOut3" mode="normal"/></filter></defs><g><!--class Todo--><rect fill="#FEFECE" filter="url(#f6z3idhawukq0)" height="306.1289" id="Todo" style="stroke: #A80036; stroke-width: 1.5;" width="98" x="16.5" y="203"/><ellipse cx="48.6" cy="219" fill="#ADD1B2" rx="11" ry="11" style="stroke: #A80036; stroke-width: 1.0;"/><path d="M51.3656,214.875 Q51.5219,214.6563 51.7094,214.5469 Q51.8969,214.4375 52.1156,214.4375 Q52.4906,214.4375 52.725,214.6953 Q52.9594,214.9531 52.9594,215.5625 L52.9594,217.0156 Q52.9594,217.625 52.725,217.8906 Q52.4906,218.1563 52.1156,218.1563 Q51.7719,218.1563 51.5688,217.9531 Q51.3656,217.7656 51.2563,217.25 Q51.2094,216.8906 51.0219,216.7031 Q50.6938,216.3281 50.0844,216.1094 Q49.475,215.8906 48.85,215.8906 Q48.0844,215.8906 47.4516,216.2188 Q46.8188,216.5469 46.3266,217.2969 Q45.8344,218.0469 45.8344,219.0781 L45.8344,220.1719 Q45.8344,221.4063 46.725,222.2266 Q47.6156,223.0469 49.2094,223.0469 Q50.1469,223.0469 50.8031,222.7969 Q51.1938,222.6406 51.6156,222.2031 Q51.8813,221.9375 52.0297,221.8594 Q52.1781,221.7813 52.3813,221.7813 Q52.7094,221.7813 52.9672,222.0391 Q53.225,222.2969 53.225,222.6406 Q53.225,222.9844 52.8813,223.3906 Q52.3813,223.9688 51.5844,224.2969 Q50.5063,224.75 49.2094,224.75 Q47.6938,224.75 46.4906,224.125 Q45.5063,223.625 44.8188,222.5547 Q44.1313,221.4844 44.1313,220.2031 L44.1313,219.0469 Q44.1313,217.7188 44.7484,216.5703 Q45.3656,215.4219 46.4594,214.8047 Q47.5531,214.1875 48.7875,214.1875 Q49.5219,214.1875 50.1703,214.3516 Q50.8188,214.5156 51.3656,214.875 Z "/><text fill="#000000" font-family="sans-serif" font-size="12" lengthAdjust="spacingAndGlyphs" textLength="28" x="66.4" y="223.9102">Todo</text><line style="stroke: #A80036; stroke-width: 1.5;" x1="17.5" x2="113.5" y1="235" y2="235"/><rect fill="none" height="6" style="stroke: #C82930; stroke-width: 1.0;" width="6" x="24.5" y="244.418"/><text fill="#000000" font-family="sans-serif" font-size="11" lengthAdjust="spacingAndGlyphs" textLength="16" x="36.5" y="250.4189">C c</text><rect fill="none" height="6" style="stroke: #C82930; stroke-width: 1.0;" width="6" x="24.5" y="258.2539"/><text fill="#000000" font-family="sans-serif" font-size="11" lengthAdjust="spacingAndGlyphs" textLength="16" x="36.5" y="264.2549">D d</text><rect fill="none" height="6" style="stroke: #C82930; stroke-width: 1.0;" width="6" x="24.5" y="272.0898"/><text fill="#000000" font-family="sans-serif" font-size="11" lengthAdjust="spacingAndGlyphs" textLength="72" x="36.5" y="278.0908">Parte delegado</text><ellipse cx="27.5" cy="306.7617" fill="#84BE84" rx="3" ry="3" style="stroke: #038048; stroke-width: 1.0;"/><text fill="#000000" font-family="sans-serif" font-size="11" lengthAdjust="spacingAndGlyphs" textLength="45" x="36.5" y="309.7627">void m2()</text><line style="stroke: #A80036; stroke-width: 1.0;" x1="17.5" x2="40.5" y1="291.4258" y2="291.4258"/><line style="stroke: #A80036; stroke-width: 1.0;" x1="17.5" x2="40.5" y1="293.4258" y2="293.4258"/><text fill="#000000" font-family="sans-serif" font-size="11" lengthAdjust="spacingAndGlyphs" textLength="50" x="40.5" y="295.4268">delegados</text><line style="stroke: #A80036; stroke-width: 1.0;" x1="90.5" x2="113.5" y1="291.4258" y2="291.4258"/><line style="stroke: #A80036; stroke-width: 1.0;" x1="90.5" x2="113.5" y1="293.4258" y2="293.4258"/><line style="stroke: #A80036; stroke-width: 1.0;" x1="17.5" x2="34.5" y1="323.0977" y2="323.0977"/><line style="stroke: #A80036; stroke-width: 1.0;" x1="17.5" x2="34.5" y1="325.0977" y2="325.0977"/><text fill="#000000" font-family="sans-serif" font-size="11" lengthAdjust="spacingAndGlyphs" textLength="62" x="34.5" y="327.0986">"redefinidos"</text><line style="stroke: #A80036; stroke-width: 1.0;" x1="96.5" x2="113.5" y1="323.0977" y2="323.0977"/><line style="stroke: #A80036; stroke-width: 1.0;" x1="96.5" x2="113.5" y1="325.0977" y2="325.0977"/><ellipse cx="27.5" cy="359.1875" fill="#84BE84" rx="3" ry="3" style="stroke: #038048; stroke-width: 1.0;"/><text fill="#000000" font-family="sans-serif" font-size="11" lengthAdjust="spacingAndGlyphs" textLength="45" x="36.5" y="362.1885">void m3()</text><line style="stroke: #A80036; stroke-width: 1.0; stroke-dasharray: 1.0,2.0;" x1="17.5" x2="38.5" y1="343.8516" y2="343.8516"/><text fill="#000000" font-family="sans-serif" font-size="11" lengthAdjust="spacingAndGlyphs" textLength="54" x="38.5" y="347.8525">"anulación"</text><line style="stroke: #A80036; stroke-width: 1.0; stroke-dasharray: 1.0,2.0;" x1="92.5" x2="113.5" y1="343.8516" y2="343.8516"/><ellipse cx="27.5" cy="390.8594" fill="#84BE84" rx="3" ry="3" style="stroke: #038048; stroke-width: 1.0;"/><text fill="#000000" font-family="sans-serif" font-size="11" lengthAdjust="spacingAndGlyphs" textLength="45" x="36.5" y="393.8604">void m4()</text><line style="stroke: #A80036; stroke-width: 1.0; stroke-dasharray: 1.0,2.0;" x1="17.5" x2="32" y1="375.5234" y2="375.5234"/><text fill="#000000" font-family="sans-serif" font-size="11" lengthAdjust="spacingAndGlyphs" textLength="67" x="32" y="379.5244">"refinamiento"</text><line style="stroke: #A80036; stroke-width: 1.0; stroke-dasharray: 1.0,2.0;" x1="99" x2="113.5" y1="375.5234" y2="375.5234"/><ellipse cx="27.5" cy="422.5313" fill="#84BE84" rx="3" ry="3" style="stroke: #038048; stroke-width: 1.0;"/><text fill="#000000" font-family="sans-serif" font-size="11" lengthAdjust="spacingAndGlyphs" textLength="45" x="36.5" y="425.5322">void m5()</text><ellipse cx="27.5" cy="436.3672" fill="#84BE84" rx="3" ry="3" style="stroke: #038048; stroke-width: 1.0;"/><text fill="#000000" font-family="sans-serif" font-size="11" lengthAdjust="spacingAndGlyphs" textLength="45" x="36.5" y="439.3682">void m7()</text><line style="stroke: #A80036; stroke-width: 1.0; stroke-dasharray: 1.0,2.0;" x1="17.5" x2="39.5" y1="407.1953" y2="407.1953"/><text fill="#000000" font-family="sans-serif" font-size="11" lengthAdjust="spacingAndGlyphs" textLength="52" x="39.5" y="411.1963">abstractos</text><line style="stroke: #A80036; stroke-width: 1.0; stroke-dasharray: 1.0,2.0;" x1="91.5" x2="113.5" y1="407.1953" y2="407.1953"/><ellipse cx="27.5" cy="468.0391" fill="#84BE84" rx="3" ry="3" style="stroke: #038048; stroke-width: 1.0;"/><text fill="#000000" font-family="sans-serif" font-size="11" lengthAdjust="spacingAndGlyphs" textLength="45" x="36.5" y="471.04">void m6()</text><line style="stroke: #A80036; stroke-width: 1.0; stroke-dasharray: 1.0,2.0;" x1="17.5" x2="25" y1="452.7031" y2="452.7031"/><text fill="#000000" font-family="sans-serif" font-size="11" lengthAdjust="spacingAndGlyphs" textLength="81" x="25" y="456.7041">"metodo plantilla"</text><line style="stroke: #A80036; stroke-width: 1.0; stroke-dasharray: 1.0,2.0;" x1="106" x2="113.5" y1="452.7031" y2="452.7031"/><ellipse cx="27.5" cy="499.7109" fill="#84BE84" rx="3" ry="3" style="stroke: #038048; stroke-width: 1.0;"/><text fill="#000000" font-family="sans-serif" font-size="11" lengthAdjust="spacingAndGlyphs" textLength="45" x="36.5" y="502.7119">void m8()</text><line style="stroke: #A80036; stroke-width: 1.0;" x1="17.5" x2="43.5" y1="484.375" y2="484.375"/><line style="stroke: #A80036; stroke-width: 1.0;" x1="17.5" x2="43.5" y1="486.375" y2="486.375"/><text fill="#000000" font-family="sans-serif" font-size="11" lengthAdjust="spacingAndGlyphs" textLength="44" x="43.5" y="488.376">añadidos</text><line style="stroke: #A80036; stroke-width: 1.0;" x1="87.5" x2="113.5" y1="484.375" y2="484.375"/><line style="stroke: #A80036; stroke-width: 1.0;" x1="87.5" x2="113.5" y1="486.375" y2="486.375"/><!--class Parte--><rect fill="#FEFECE" filter="url(#f6z3idhawukq0)" height="144.8516" id="Parte" style="stroke: #A80036; stroke-width: 1.5;" width="119" x="6" y="814.5"/><ellipse cx="47.1" cy="830.5" fill="#ADD1B2" rx="11" ry="11" style="stroke: #A80036; stroke-width: 1.0;"/><path d="M49.8656,826.375 Q50.0219,826.1563 50.2094,826.0469 Q50.3969,825.9375 50.6156,825.9375 Q50.9906,825.9375 51.225,826.1953 Q51.4594,826.4531 51.4594,827.0625 L51.4594,828.5156 Q51.4594,829.125 51.225,829.3906 Q50.9906,829.6563 50.6156,829.6563 Q50.2719,829.6563 50.0688,829.4531 Q49.8656,829.2656 49.7563,828.75 Q49.7094,828.3906 49.5219,828.2031 Q49.1938,827.8281 48.5844,827.6094 Q47.975,827.3906 47.35,827.3906 Q46.5844,827.3906 45.9516,827.7188 Q45.3188,828.0469 44.8266,828.7969 Q44.3344,829.5469 44.3344,830.5781 L44.3344,831.6719 Q44.3344,832.9063 45.225,833.7266 Q46.1156,834.5469 47.7094,834.5469 Q48.6469,834.5469 49.3031,834.2969 Q49.6938,834.1406 50.1156,833.7031 Q50.3813,833.4375 50.5297,833.3594 Q50.6781,833.2813 50.8813,833.2813 Q51.2094,833.2813 51.4672,833.5391 Q51.725,833.7969 51.725,834.1406 Q51.725,834.4844 51.3813,834.8906 Q50.8813,835.4688 50.0844,835.7969 Q49.0063,836.25 47.7094,836.25 Q46.1938,836.25 44.9906,835.625 Q44.0063,835.125 43.3188,834.0547 Q42.6313,832.9844 42.6313,831.7031 L42.6313,830.5469 Q42.6313,829.2188 43.2484,828.0703 Q43.8656,826.9219 44.9594,826.3047 Q46.0531,825.6875 47.2875,825.6875 Q48.0219,825.6875 48.6703,825.8516 Q49.3188,826.0156 49.8656,826.375 Z "/><text fill="#000000" font-family="sans-serif" font-size="12" lengthAdjust="spacingAndGlyphs" textLength="29" x="66.9" y="835.4102">Parte</text><line style="stroke: #A80036; stroke-width: 1.5;" x1="7" x2="124" y1="846.5" y2="846.5"/><rect fill="none" height="6" style="stroke: #C82930; stroke-width: 1.0;" width="6" x="14" y="855.918"/><text fill="#000000" font-family="sans-serif" font-size="11" lengthAdjust="spacingAndGlyphs" textLength="17" x="26" y="861.9189">A a</text><rect fill="none" height="6" style="stroke: #C82930; stroke-width: 1.0;" width="6" x="14" y="869.7539"/><text fill="#000000" font-family="sans-serif" font-size="11" lengthAdjust="spacingAndGlyphs" textLength="16" x="26" y="875.7549">B b</text><line style="stroke: #A80036; stroke-width: 1.5;" x1="7" x2="124" y1="882.1719" y2="882.1719"/><rect fill="#F24D5C" height="6" style="stroke: #C82930; stroke-width: 1.0;" width="6" x="14" y="891.5898"/><text fill="#000000" font-family="sans-serif" font-size="11" lengthAdjust="spacingAndGlyphs" textLength="45" x="26" y="897.5908">void m1()</text><ellipse cx="17" cy="908.4258" fill="#84BE84" rx="3" ry="3" style="stroke: #038048; stroke-width: 1.0;"/><text fill="#000000" font-family="sans-serif" font-size="11" lengthAdjust="spacingAndGlyphs" textLength="45" x="26" y="911.4268">void m2()</text><ellipse cx="17" cy="922.2617" fill="#84BE84" rx="3" ry="3" style="stroke: #038048; stroke-width: 1.0;"/><text fill="#000000" font-family="sans-serif" font-size="11" lengthAdjust="spacingAndGlyphs" textLength="45" x="26" y="925.2627">void m3()</text><ellipse cx="17" cy="936.0977" fill="#84BE84" rx="3" ry="3" style="stroke: #038048; stroke-width: 1.0;"/><text fill="#000000" font-family="sans-serif" font-size="11" lengthAdjust="spacingAndGlyphs" textLength="45" x="26" y="939.0986">void m4()</text><ellipse cx="17" cy="949.9336" fill="#84BE84" rx="3" ry="3" style="stroke: #038048; stroke-width: 1.0;"/><text fill="#000000" font-family="sans-serif" font-size="11" lengthAdjust="spacingAndGlyphs" textLength="93" x="26" y="952.9346">void m6(Todo todo)</text><path d="M150,8 L150,352 L114.639,356 L150,360 L150,704.2383 A0,0 0 0 0 150,704.2383 L343,704.2383 A0,0 0 0 0 343,704.2383 L343,18 L333,8 L150,8 A0,0 0 0 0 150,8 " fill="#FBFB77" filter="url(#f6z3idhawukq0)" style="stroke: #A80036; stroke-width: 1.0;"/><path d="M333,8 L333,18 L343,18 L333,8 " fill="#FBFB77" style="stroke: #A80036; stroke-width: 1.0;"/><text fill="#000000" font-family="sans-serif" font-size="13" lengthAdjust="spacingAndGlyphs" textLength="56" x="156" y="42.8467">void m2(){</text><text fill="#000000" font-family="sans-serif" font-size="13" lengthAdjust="spacingAndGlyphs" textLength="86" x="164" y="59.1982">delegado.m2();</text><text fill="#000000" font-family="sans-serif" font-size="13" lengthAdjust="spacingAndGlyphs" textLength="4" x="156" y="75.5498">}</text><text fill="#000000" font-family="sans-serif" font-size="13" lengthAdjust="spacingAndGlyphs" textLength="0" x="160" y="91.9014"/><line style="stroke: #A80036; stroke-width: 1.0;" x1="151" x2="217" y1="21.1758" y2="21.1758"/><line style="stroke: #A80036; stroke-width: 1.0;" x1="151" x2="217" y1="23.1758" y2="23.1758"/><text fill="#000000" font-family="sans-serif" font-size="13" lengthAdjust="spacingAndGlyphs" textLength="59" x="217" y="25.9951">delegados</text><line style="stroke: #A80036; stroke-width: 1.0;" x1="276" x2="342" y1="21.1758" y2="21.1758"/><line style="stroke: #A80036; stroke-width: 1.0;" x1="276" x2="342" y1="23.1758" y2="23.1758"/><line style="stroke: #A80036; stroke-width: 1.0;" x1="151" x2="210.5" y1="106.9336" y2="106.9336"/><line style="stroke: #A80036; stroke-width: 1.0;" x1="151" x2="210.5" y1="108.9336" y2="108.9336"/><text fill="#000000" font-family="sans-serif" font-size="13" lengthAdjust="spacingAndGlyphs" textLength="72" x="210.5" y="111.7529">"redefinidos"</text><line style="stroke: #A80036; stroke-width: 1.0;" x1="282.5" x2="342" y1="106.9336" y2="106.9336"/><line style="stroke: #A80036; stroke-width: 1.0;" x1="282.5" x2="342" y1="108.9336" y2="108.9336"/><text fill="#000000" font-family="sans-serif" font-size="13" lengthAdjust="spacingAndGlyphs" textLength="56" x="156" y="153.1318">void m3(){</text><text fill="#000000" font-family="sans-serif" font-size="13" lengthAdjust="spacingAndGlyphs" textLength="158" x="164" y="169.4834">// gestionar c, d y delegado</text><text fill="#000000" font-family="sans-serif" font-size="13" lengthAdjust="spacingAndGlyphs" textLength="74" x="164" y="185.835">this.m[1-8]();</text><text fill="#000000" font-family="sans-serif" font-size="13" lengthAdjust="spacingAndGlyphs" textLength="158" x="164" y="202.1865">// gestionar c, d y delegado</text><text fill="#000000" font-family="sans-serif" font-size="13" lengthAdjust="spacingAndGlyphs" textLength="4" x="156" y="218.5381">}</text><text fill="#000000" font-family="sans-serif" font-size="13" lengthAdjust="spacingAndGlyphs" textLength="0" x="160" y="234.8896"/><line style="stroke: #A80036; stroke-width: 1.0; stroke-dasharray: 1.0,2.0;" x1="151" x2="214" y1="131.4609" y2="131.4609"/><text fill="#000000" font-family="sans-serif" font-size="13" lengthAdjust="spacingAndGlyphs" textLength="65" x="214" y="136.2803">"anulación"</text><line style="stroke: #A80036; stroke-width: 1.0; stroke-dasharray: 1.0,2.0;" x1="279" x2="342" y1="131.4609" y2="131.4609"/><text fill="#000000" font-family="sans-serif" font-size="13" lengthAdjust="spacingAndGlyphs" textLength="56" x="156" y="271.5928">void m4(){</text><text fill="#000000" font-family="sans-serif" font-size="13" lengthAdjust="spacingAndGlyphs" textLength="158" x="164" y="287.9443">// gestionar c, d y delegado</text><text fill="#000000" font-family="sans-serif" font-size="13" lengthAdjust="spacingAndGlyphs" textLength="86" x="164" y="304.2959">delegado.m4();</text><text fill="#000000" font-family="sans-serif" font-size="13" lengthAdjust="spacingAndGlyphs" textLength="158" x="164" y="320.6475">// gestionar c, d y delegado</text><text fill="#000000" font-family="sans-serif" font-size="13" lengthAdjust="spacingAndGlyphs" textLength="4" x="156" y="336.999">}</text><text fill="#000000" font-family="sans-serif" font-size="13" lengthAdjust="spacingAndGlyphs" textLength="0" x="160" y="353.3506"/><line style="stroke: #A80036; stroke-width: 1.0; stroke-dasharray: 1.0,2.0;" x1="151" x2="206.5" y1="249.9219" y2="249.9219"/><text fill="#000000" font-family="sans-serif" font-size="13" lengthAdjust="spacingAndGlyphs" textLength="80" x="206.5" y="254.7412">"refinamiento"</text><line style="stroke: #A80036; stroke-width: 1.0; stroke-dasharray: 1.0,2.0;" x1="286.5" x2="342" y1="249.9219" y2="249.9219"/><text fill="#000000" font-family="sans-serif" font-size="13" lengthAdjust="spacingAndGlyphs" textLength="75" x="156" y="390.0537">void m[5,7](){</text><text fill="#000000" font-family="sans-serif" font-size="13" lengthAdjust="spacingAndGlyphs" textLength="158" x="164" y="406.4053">// gestionar c, d y delegado</text><text fill="#000000" font-family="sans-serif" font-size="13" lengthAdjust="spacingAndGlyphs" textLength="74" x="164" y="422.7568">this.m[1-8]();</text><text fill="#000000" font-family="sans-serif" font-size="13" lengthAdjust="spacingAndGlyphs" textLength="158" x="164" y="439.1084">// gestionar c, d y delegado</text><text fill="#000000" font-family="sans-serif" font-size="13" lengthAdjust="spacingAndGlyphs" textLength="4" x="156" y="455.46">}</text><text fill="#000000" font-family="sans-serif" font-size="13" lengthAdjust="spacingAndGlyphs" textLength="0" x="160" y="471.8115"/><line style="stroke: #A80036; stroke-width: 1.0; stroke-dasharray: 1.0,2.0;" x1="151" x2="211" y1="368.3828" y2="368.3828"/><text fill="#000000" font-family="sans-serif" font-size="13" lengthAdjust="spacingAndGlyphs" textLength="71" x="211" y="373.2021">"abstractos"</text><line style="stroke: #A80036; stroke-width: 1.0; stroke-dasharray: 1.0,2.0;" x1="282" x2="342" y1="368.3828" y2="368.3828"/><text fill="#000000" font-family="sans-serif" font-size="13" lengthAdjust="spacingAndGlyphs" textLength="56" x="156" y="508.5146">void m6(){</text><text fill="#000000" font-family="sans-serif" font-size="13" lengthAdjust="spacingAndGlyphs" textLength="158" x="164" y="524.8662">// gestionar c, d y delegado</text><text fill="#000000" font-family="sans-serif" font-size="13" lengthAdjust="spacingAndGlyphs" textLength="76" x="164" y="541.2178">this.m7(this);</text><text fill="#000000" font-family="sans-serif" font-size="13" lengthAdjust="spacingAndGlyphs" textLength="158" x="164" y="557.5693">// gestionar c, d y delegado</text><text fill="#000000" font-family="sans-serif" font-size="13" lengthAdjust="spacingAndGlyphs" textLength="4" x="156" y="573.9209">}</text><text fill="#000000" font-family="sans-serif" font-size="13" lengthAdjust="spacingAndGlyphs" textLength="0" x="160" y="590.2725"/><line style="stroke: #A80036; stroke-width: 1.0; stroke-dasharray: 1.0,2.0;" x1="151" x2="196" y1="486.8438" y2="486.8438"/><text fill="#000000" font-family="sans-serif" font-size="13" lengthAdjust="spacingAndGlyphs" textLength="101" x="196" y="491.6631">"metodo plantilla"</text><line style="stroke: #A80036; stroke-width: 1.0; stroke-dasharray: 1.0,2.0;" x1="297" x2="342" y1="486.8438" y2="486.8438"/><text fill="#000000" font-family="sans-serif" font-size="13" lengthAdjust="spacingAndGlyphs" textLength="56" x="156" y="626.9756">void m8(){</text><text fill="#000000" font-family="sans-serif" font-size="13" lengthAdjust="spacingAndGlyphs" textLength="158" x="164" y="643.3271">// gestionar c, d y delegado</text><text fill="#000000" font-family="sans-serif" font-size="13" lengthAdjust="spacingAndGlyphs" textLength="74" x="164" y="659.6787">this.m[1-8]();</text><text fill="#000000" font-family="sans-serif" font-size="13" lengthAdjust="spacingAndGlyphs" textLength="158" x="164" y="676.0303">// gestionar c, d y delegado</text><text fill="#000000" font-family="sans-serif" font-size="13" lengthAdjust="spacingAndGlyphs" textLength="4" x="156" y="692.3818">}</text><line style="stroke: #A80036; stroke-width: 1.0;" x1="151" x2="215.5" y1="605.3047" y2="605.3047"/><line style="stroke: #A80036; stroke-width: 1.0;" x1="151" x2="215.5" y1="607.3047" y2="607.3047"/><text fill="#000000" font-family="sans-serif" font-size="13" lengthAdjust="spacingAndGlyphs" textLength="62" x="215.5" y="610.124">"añadidos"</text><line style="stroke: #A80036; stroke-width: 1.0;" x1="277.5" x2="342" y1="605.3047" y2="605.3047"/><line style="stroke: #A80036; stroke-width: 1.0;" x1="277.5" x2="342" y1="607.3047" y2="607.3047"/><path d="M160.5,782 L160.5,883 L125.119,887 L160.5,891 L160.5,992.2188 A0,0 0 0 0 160.5,992.2188 L300.5,992.2188 A0,0 0 0 0 300.5,992.2188 L300.5,792 L290.5,782 L160.5,782 A0,0 0 0 0 160.5,782 " fill="#FBFB77" filter="url(#f6z3idhawukq0)" style="stroke: #A80036; stroke-width: 1.0;"/><path d="M290.5,782 L290.5,792 L300.5,792 L290.5,782 " fill="#FBFB77" style="stroke: #A80036; stroke-width: 1.0;"/><text fill="#000000" font-family="sans-serif" font-size="13" lengthAdjust="spacingAndGlyphs" textLength="75" x="166.5" y="800.4951">void m[1-4](){</text><text fill="#000000" font-family="sans-serif" font-size="13" lengthAdjust="spacingAndGlyphs" textLength="98" x="174.5" y="816.8467">// gestionar a y b</text><text fill="#000000" font-family="sans-serif" font-size="13" lengthAdjust="spacingAndGlyphs" textLength="74" x="174.5" y="833.1982">this.m[1-4]();</text><text fill="#000000" font-family="sans-serif" font-size="13" lengthAdjust="spacingAndGlyphs" textLength="98" x="174.5" y="849.5498">// gestionar a y b</text><text fill="#000000" font-family="sans-serif" font-size="13" lengthAdjust="spacingAndGlyphs" textLength="4" x="166.5" y="865.9014">}</text><text fill="#000000" font-family="sans-serif" font-size="13" lengthAdjust="spacingAndGlyphs" textLength="0" x="170.5" y="882.2529"/><text fill="#000000" font-family="sans-serif" font-size="13" lengthAdjust="spacingAndGlyphs" textLength="113" x="166.5" y="914.9561">void m6(Todo todo){</text><text fill="#000000" font-family="sans-serif" font-size="13" lengthAdjust="spacingAndGlyphs" textLength="98" x="174.5" y="931.3076">// gestionar a y b</text><text fill="#000000" font-family="sans-serif" font-size="13" lengthAdjust="spacingAndGlyphs" textLength="59" x="174.5" y="947.6592">todo.m7();</text><text fill="#000000" font-family="sans-serif" font-size="13" lengthAdjust="spacingAndGlyphs" textLength="98" x="174.5" y="964.0107">// gestionar a y b</text><text fill="#000000" font-family="sans-serif" font-size="13" lengthAdjust="spacingAndGlyphs" textLength="4" x="166.5" y="980.3623">}</text><line style="stroke: #A80036; stroke-width: 1.0; stroke-dasharray: 1.0,2.0;" x1="161.5" x2="185" y1="893.2852" y2="893.2852"/><text fill="#000000" font-family="sans-serif" font-size="13" lengthAdjust="spacingAndGlyphs" textLength="91" x="185" y="898.1045">método plantilla</text><line style="stroke: #A80036; stroke-width: 1.0; stroke-dasharray: 1.0,2.0;" x1="276" x2="299.5" y1="893.2852" y2="893.2852"/><!--link Todo to Parte--><path d="M65.5,522.364 C65.5,614.812 65.5,726.151 65.5,801.071 " fill="none" id="Todo-Parte" style="stroke: #A80036; stroke-width: 1.0;"/><polygon fill="#A80036" points="65.5,814.161,69.5,805.161,65.5,809.161,61.5,805.161,65.5,814.161" style="stroke: #A80036; stroke-width: 1.0;"/><line style="stroke: #A80036; stroke-width: 1.0;" x1="65.5" x2="65.5001" y1="809.161" y2="801.161"/><polygon fill="#A80036" points="65.5,509.299,61.5,515.299,65.5,521.299,69.5,515.299,65.5,509.299" style="stroke: #A80036; stroke-width: 1.0;"/><text fill="#000000" font-family="sans-serif" font-size="13" lengthAdjust="spacingAndGlyphs" textLength="52" x="66.5" y="748.4951">delegado</text><!--
@startuml

Todo *-down-> Parte : delegado

class Todo{
- C c
- D d
- Parte delegado
== delegados ==
+ void m2()
== "redefinidos" ==
.. "anulación" ..
+ void m3()
.. "refinamiento" ..
+ void m4()
.. abstractos ..
+ void m5()
+ void m7()
.. "metodo plantilla" ..
+ void m6()
== añadidos ==
+ void m8()
}
note right
== delegados ==
void m2(){
  delegado.m2();
}

== "redefinidos" ==
.. "anulación" ..
void m3(){
  // gestionar c, d y delegado
  this.m[1-8]();
  // gestionar c, d y delegado
}

.. "refinamiento" ..
void m4(){
  // gestionar c, d y delegado
  delegado.m4();
  // gestionar c, d y delegado
}

.. "abstractos" ..
void m[5,7](){
  // gestionar c, d y delegado
  this.m[1-8]();
  // gestionar c, d y delegado
}

.. "metodo plantilla" ..
void m6(){
  // gestionar c, d y delegado
  this.m7(this);
  // gestionar c, d y delegado
}

== "añadidos" ==
void m8(){
  // gestionar c, d y delegado
  this.m[1-8]();
  // gestionar c, d y delegado
}
endnote

class Parte {
- A a
- B b
- void m1()
+ void m2()
+ void m3()
+ void m4()
+ void m6(Todo todo)
}
note right
void m[1-4](){
  // gestionar a y b
  this.m[1-4]();
  // gestionar a y b
}

.. método plantilla ..
void m6(Todo todo){
  // gestionar a y b
  todo.m7();
  // gestionar a y b
}
endnote
@enduml

PlantUML version 1.2019.05(Sat Apr 20 18:45:36 CEST 2019)
(GPL source distribution)
Java Runtime: OpenJDK Runtime Environment
JVM: OpenJDK 64-Bit Server VM
Java Version: 1.8.0_222-b10
Operating System: Windows 10
OS Version: 10.0
Default Encoding: windows-1252
Language: es
Country: ES
--></g></svg>