<?xml version="1.0" encoding="UTF-8" standalone="no"?><svg xmlns="http://www.w3.org/2000/svg" xmlns:xlink="http://www.w3.org/1999/xlink" contentScriptType="application/ecmascript" contentStyleType="text/css" height="464px" preserveAspectRatio="none" style="width:434px;height:464px;" version="1.1" viewBox="0 0 434 464" width="434px" zoomAndPan="magnify"><defs><filter height="300%" id="f1kdl07af7exrv" width="300%" x="-1" y="-1"><feGaussianBlur result="blurOut" stdDeviation="2.0"/><feColorMatrix in="blurOut" result="blurOut2" type="matrix" values="0 0 0 0 0 0 0 0 0 0 0 0 0 0 0 0 0 0 .4 0"/><feOffset dx="4.0" dy="4.0" in="blurOut2" result="blurOut3"/><feBlend in="SourceGraphic" in2="blurOut3" mode="normal"/></filter></defs><g><!--class Filter--><rect fill="#FEFECE" filter="url(#f1kdl07af7exrv)" height="89.5078" id="Filter" style="stroke: #A80036; stroke-width: 1.5;" width="154" x="6" y="50"/><ellipse cx="65.25" cy="66" fill="#ADD1B2" rx="11" ry="11" style="stroke: #A80036; stroke-width: 1.0;"/><path d="M68.0156,61.875 Q68.1719,61.6563 68.3594,61.5469 Q68.5469,61.4375 68.7656,61.4375 Q69.1406,61.4375 69.375,61.6953 Q69.6094,61.9531 69.6094,62.5625 L69.6094,64.0156 Q69.6094,64.625 69.375,64.8906 Q69.1406,65.1563 68.7656,65.1563 Q68.4219,65.1563 68.2188,64.9531 Q68.0156,64.7656 67.9063,64.25 Q67.8594,63.8906 67.6719,63.7031 Q67.3438,63.3281 66.7344,63.1094 Q66.125,62.8906 65.5,62.8906 Q64.7344,62.8906 64.1016,63.2188 Q63.4688,63.5469 62.9766,64.2969 Q62.4844,65.0469 62.4844,66.0781 L62.4844,67.1719 Q62.4844,68.4063 63.375,69.2266 Q64.2656,70.0469 65.8594,70.0469 Q66.7969,70.0469 67.4531,69.7969 Q67.8438,69.6406 68.2656,69.2031 Q68.5313,68.9375 68.6797,68.8594 Q68.8281,68.7813 69.0313,68.7813 Q69.3594,68.7813 69.6172,69.0391 Q69.875,69.2969 69.875,69.6406 Q69.875,69.9844 69.5313,70.3906 Q69.0313,70.9688 68.2344,71.2969 Q67.1563,71.75 65.8594,71.75 Q64.3438,71.75 63.1406,71.125 Q62.1563,70.625 61.4688,69.5547 Q60.7813,68.4844 60.7813,67.2031 L60.7813,66.0469 Q60.7813,64.7188 61.3984,63.5703 Q62.0156,62.4219 63.1094,61.8047 Q64.2031,61.1875 65.4375,61.1875 Q66.1719,61.1875 66.8203,61.3516 Q67.4688,61.5156 68.0156,61.875 Z "/><text fill="#000000" font-family="sans-serif" font-size="12" lengthAdjust="spacingAndGlyphs" textLength="27" x="85.75" y="70.9102">Filter</text><line style="stroke: #A80036; stroke-width: 1.5;" x1="7" x2="159" y1="82" y2="82"/><rect fill="none" height="6" style="stroke: #C82930; stroke-width: 1.0;" width="6" x="14" y="91.418"/><text fill="#000000" font-family="sans-serif" font-size="11" lengthAdjust="spacingAndGlyphs" textLength="105" x="26" y="97.4189">EntitiesList entitiesList</text><line style="stroke: #A80036; stroke-width: 1.5;" x1="7" x2="159" y1="103.8359" y2="103.8359"/><ellipse cx="17" cy="116.2539" fill="#84BE84" rx="3" ry="3" style="stroke: #038048; stroke-width: 1.0;"/><text fill="#000000" font-family="sans-serif" font-size="11" lengthAdjust="spacingAndGlyphs" textLength="128" x="26" y="119.2549">set(EntitiesList entitiesList)</text><ellipse cx="17" cy="130.0898" fill="#84BE84" rx="3" ry="3" style="stroke: #038048; stroke-width: 1.0;"/><text fill="#000000" font-family="sans-serif" font-size="11" lengthAdjust="spacingAndGlyphs" textLength="52" x="26" y="133.0908">void filter()</text><path d="M195.5,8 L195.5,91 L160.246,95 L195.5,99 L195.5,181.5156 A0,0 0 0 0 195.5,181.5156 L422.5,181.5156 A0,0 0 0 0 422.5,181.5156 L422.5,18 L412.5,8 L195.5,8 A0,0 0 0 0 195.5,8 " fill="#FBFB77" filter="url(#f1kdl07af7exrv)" style="stroke: #A80036; stroke-width: 1.0;"/><path d="M412.5,8 L412.5,18 L422.5,18 L412.5,8 " fill="#FBFB77" style="stroke: #A80036; stroke-width: 1.0;"/><text fill="#000000" font-family="sans-serif" font-size="13" lengthAdjust="spacingAndGlyphs" textLength="200" x="201.5" y="26.4951">public set(EntitiesList entitiesList){</text><text fill="#000000" font-family="sans-serif" font-size="13" lengthAdjust="spacingAndGlyphs" textLength="171" x="209.5" y="42.8467">this.entitiesList = entitiesList;</text><text fill="#000000" font-family="sans-serif" font-size="13" lengthAdjust="spacingAndGlyphs" textLength="4" x="201.5" y="59.1982">}</text><text fill="#000000" font-family="sans-serif" font-size="13" lengthAdjust="spacingAndGlyphs" textLength="100" x="201.5" y="75.5498">public void filter(){</text><text fill="#000000" font-family="sans-serif" font-size="13" lengthAdjust="spacingAndGlyphs" textLength="171" x="209.5" y="91.9014">assert this.entitiesList != null;</text><text fill="#000000" font-family="sans-serif" font-size="13" lengthAdjust="spacingAndGlyphs" textLength="172" x="209.5" y="108.2529">while (entitiesList.hasNext()) {</text><text fill="#000000" font-family="sans-serif" font-size="13" lengthAdjust="spacingAndGlyphs" textLength="190" x="217.5" y="124.6045">Entity entity = entitiesList.next();</text><text fill="#000000" font-family="sans-serif" font-size="13" lengthAdjust="spacingAndGlyphs" textLength="12" x="217.5" y="140.9561">...</text><text fill="#000000" font-family="sans-serif" font-size="13" lengthAdjust="spacingAndGlyphs" textLength="4" x="209.5" y="157.3076">}</text><text fill="#000000" font-family="sans-serif" font-size="13" lengthAdjust="spacingAndGlyphs" textLength="4" x="201.5" y="173.6592">}</text><!--class EntitiesList--><rect fill="#FEFECE" filter="url(#f1kdl07af7exrv)" height="75.6719" id="EntitiesList" style="stroke: #A80036; stroke-width: 1.5;" width="118" x="24" y="242"/><ellipse cx="51.15" cy="258" fill="#A9DCDF" rx="11" ry="11" style="stroke: #A80036; stroke-width: 1.0;"/><path d="M53.3375,259.7656 L49.1969,259.7656 L48.775,260.7969 L49.1969,260.7969 Q49.8063,260.7969 50.0719,261.0313 Q50.3375,261.2656 50.3375,261.6563 Q50.3375,262.0313 50.0719,262.2656 Q49.8063,262.5 49.1969,262.5 L46.9,262.5 Q46.2906,262.5 46.0328,262.2656 Q45.775,262.0313 45.775,261.6406 Q45.775,261.2656 46.0484,261.0234 Q46.3219,260.7813 46.9469,260.7969 L49.6188,254.1406 L48.5094,254.1406 Q47.9,254.1406 47.6344,253.9063 Q47.3688,253.6719 47.3688,253.2813 Q47.3688,252.9063 47.6344,252.6719 Q47.9,252.4375 48.5094,252.4375 L52.1813,252.4375 L55.5719,260.7969 Q56.1656,260.7969 56.3531,260.9375 Q56.7438,261.2031 56.7438,261.6563 Q56.7438,262.0313 56.4859,262.2656 Q56.2281,262.5 55.6188,262.5 L53.3219,262.5 Q52.7125,262.5 52.4469,262.2656 Q52.1813,262.0313 52.1813,261.6406 Q52.1813,261.2656 52.4469,261.0313 Q52.7125,260.7969 53.3219,260.7969 L53.7438,260.7969 L53.3375,259.7656 Z M52.6188,258.0625 L51.2594,254.6875 L49.8844,258.0625 L52.6188,258.0625 Z "/><text fill="#000000" font-family="sans-serif" font-size="12" font-style="italic" lengthAdjust="spacingAndGlyphs" textLength="59" x="67.85" y="262.9102">EntitiesList</text><line style="stroke: #A80036; stroke-width: 1.5;" x1="25" x2="141" y1="274" y2="274"/><line style="stroke: #A80036; stroke-width: 1.5;" x1="25" x2="141" y1="282" y2="282"/><ellipse cx="35" cy="294.418" fill="#84BE84" rx="3" ry="3" style="stroke: #038048; stroke-width: 1.0;"/><text fill="#000000" font-family="sans-serif" font-size="11" font-style="italic" lengthAdjust="spacingAndGlyphs" textLength="92" x="44" y="297.4189">boolean hasNext()</text><ellipse cx="35" cy="308.2539" fill="#84BE84" rx="3" ry="3" style="stroke: #038048; stroke-width: 1.0;"/><text fill="#000000" font-family="sans-serif" font-size="11" font-style="italic" lengthAdjust="spacingAndGlyphs" textLength="59" x="44" y="311.2549">Entity next()</text><!--class EntitiesListText--><rect fill="#FEFECE" filter="url(#f1kdl07af7exrv)" height="75.6719" id="EntitiesListText" style="stroke: #A80036; stroke-width: 1.5;" width="115" x="25.5" y="378"/><ellipse cx="40.5" cy="394" fill="#ADD1B2" rx="11" ry="11" style="stroke: #A80036; stroke-width: 1.0;"/><path d="M43.2656,389.875 Q43.4219,389.6563 43.6094,389.5469 Q43.7969,389.4375 44.0156,389.4375 Q44.3906,389.4375 44.625,389.6953 Q44.8594,389.9531 44.8594,390.5625 L44.8594,392.0156 Q44.8594,392.625 44.625,392.8906 Q44.3906,393.1563 44.0156,393.1563 Q43.6719,393.1563 43.4688,392.9531 Q43.2656,392.7656 43.1563,392.25 Q43.1094,391.8906 42.9219,391.7031 Q42.5938,391.3281 41.9844,391.1094 Q41.375,390.8906 40.75,390.8906 Q39.9844,390.8906 39.3516,391.2188 Q38.7188,391.5469 38.2266,392.2969 Q37.7344,393.0469 37.7344,394.0781 L37.7344,395.1719 Q37.7344,396.4063 38.625,397.2266 Q39.5156,398.0469 41.1094,398.0469 Q42.0469,398.0469 42.7031,397.7969 Q43.0938,397.6406 43.5156,397.2031 Q43.7813,396.9375 43.9297,396.8594 Q44.0781,396.7813 44.2813,396.7813 Q44.6094,396.7813 44.8672,397.0391 Q45.125,397.2969 45.125,397.6406 Q45.125,397.9844 44.7813,398.3906 Q44.2813,398.9688 43.4844,399.2969 Q42.4063,399.75 41.1094,399.75 Q39.5938,399.75 38.3906,399.125 Q37.4063,398.625 36.7188,397.5547 Q36.0313,396.4844 36.0313,395.2031 L36.0313,394.0469 Q36.0313,392.7188 36.6484,391.5703 Q37.2656,390.4219 38.3594,389.8047 Q39.4531,389.1875 40.6875,389.1875 Q41.4219,389.1875 42.0703,389.3516 Q42.7188,389.5156 43.2656,389.875 Z "/><text fill="#000000" font-family="sans-serif" font-size="12" lengthAdjust="spacingAndGlyphs" textLength="83" x="54.5" y="398.9102">EntitiesListText</text><line style="stroke: #A80036; stroke-width: 1.5;" x1="26.5" x2="139.5" y1="410" y2="410"/><line style="stroke: #A80036; stroke-width: 1.5;" x1="26.5" x2="139.5" y1="418" y2="418"/><ellipse cx="36.5" cy="430.418" fill="#84BE84" rx="3" ry="3" style="stroke: #038048; stroke-width: 1.0;"/><text fill="#000000" font-family="sans-serif" font-size="11" lengthAdjust="spacingAndGlyphs" textLength="89" x="45.5" y="433.4189">boolean hasNext()</text><ellipse cx="36.5" cy="444.2539" fill="#84BE84" rx="3" ry="3" style="stroke: #038048; stroke-width: 1.0;"/><text fill="#000000" font-family="sans-serif" font-size="11" lengthAdjust="spacingAndGlyphs" textLength="58" x="45.5" y="447.2549">Entity next()</text><!--link Filter to EntitiesList--><path d="M83,140.299 C83,169.576 83,207.732 83,236.611 " fill="none" id="Filter-EntitiesList" style="stroke: #A80036; stroke-width: 1.0;"/><polygon fill="#A80036" points="83,241.891,87,232.891,83,236.891,79,232.891,83,241.891" style="stroke: #A80036; stroke-width: 1.0;"/><!--link EntitiesList to EntitiesListText--><path d="M83,338.535 C83,351.86 83,365.6949 83,377.8737 " fill="none" id="EntitiesList-EntitiesListText" style="stroke: #A80036; stroke-width: 1.0;"/><polygon fill="none" points="76.0001,338.327,83,318.326,90.0001,338.326,76.0001,338.327" style="stroke: #A80036; stroke-width: 1.0;"/><!--
@startuml
class Filter{
- EntitiesList entitiesList
+ set(EntitiesList entitiesList)
+ void filter()
}
note right
public set(EntitiesList entitiesList){
  this.entitiesList = entitiesList;
}
public void filter(){
  assert this.entitiesList != null;
  while (entitiesList.hasNext()) {
    Entity entity = entitiesList.next();
    ...
  }
}
endnote

Filter -down-> EntitiesList

abstract class EntitiesList {
+ {abstract} boolean hasNext()
+ {abstract} Entity next()
}

class EntitiesListText {
+ boolean hasNext()
+ Entity next()
}

EntitiesList <|-down- EntitiesListText
@enduml

PlantUML version 1.2019.05(Sat Apr 20 18:45:36 CEST 2019)
(GPL source distribution)
Java Runtime: OpenJDK Runtime Environment
JVM: OpenJDK 64-Bit Server VM
Java Version: 1.8.0_222-b10
Operating System: Windows 10
OS Version: 10.0
Default Encoding: windows-1252
Language: es
Country: ES
--></g></svg>