<?xml version="1.0" encoding="UTF-8" standalone="no"?><svg xmlns="http://www.w3.org/2000/svg" xmlns:xlink="http://www.w3.org/1999/xlink" contentScriptType="application/ecmascript" contentStyleType="text/css" height="230px" preserveAspectRatio="none" style="width:367px;height:230px;" version="1.1" viewBox="0 0 367 230" width="367px" zoomAndPan="magnify"><defs><filter height="300%" id="fuzh5rova9thf" width="300%" x="-1" y="-1"><feGaussianBlur result="blurOut" stdDeviation="2.0"/><feColorMatrix in="blurOut" result="blurOut2" type="matrix" values="0 0 0 0 0 0 0 0 0 0 0 0 0 0 0 0 0 0 .4 0"/><feOffset dx="4.0" dy="4.0" in="blurOut2" result="blurOut3"/><feBlend in="SourceGraphic" in2="blurOut3" mode="normal"/></filter></defs><g><!--class ButtonClient--><rect fill="#FEFECE" filter="url(#fuzh5rova9thf)" height="75.6719" id="ButtonClient" style="stroke: #A80036; stroke-width: 1.5;" width="99" x="250.5" y="8"/><ellipse cx="265.5" cy="24" fill="#B4A7E5" rx="11" ry="11" style="stroke: #A80036; stroke-width: 1.0;"/><path d="M266.4531,20.6406 L266.4531,27.2969 L268.1719,27.2969 Q268.7813,27.2969 269.0469,27.5313 Q269.3125,27.7656 269.3125,28.1563 Q269.3125,28.5313 269.0469,28.7656 Q268.7813,29 268.1719,29 L263.0313,29 Q262.4219,29 262.1563,28.7656 Q261.8906,28.5313 261.8906,28.1406 Q261.8906,27.7656 262.1563,27.5313 Q262.4219,27.2969 263.0313,27.2969 L264.75,27.2969 L264.75,20.6406 L263.0313,20.6406 Q262.4219,20.6406 262.1563,20.4063 Q261.8906,20.1719 261.8906,19.7813 Q261.8906,19.4063 262.1563,19.1719 Q262.4219,18.9375 263.0313,18.9375 L268.1719,18.9375 Q268.7813,18.9375 269.0469,19.1719 Q269.3125,19.4063 269.3125,19.7813 Q269.3125,20.1719 269.0469,20.4063 Q268.7813,20.6406 268.1719,20.6406 L266.4531,20.6406 Z "/><text fill="#000000" font-family="sans-serif" font-size="12" font-style="italic" lengthAdjust="spacingAndGlyphs" textLength="67" x="279.5" y="28.9102">ButtonClient</text><line style="stroke: #A80036; stroke-width: 1.5;" x1="251.5" x2="348.5" y1="40" y2="40"/><line style="stroke: #A80036; stroke-width: 1.5;" x1="251.5" x2="348.5" y1="48" y2="48"/><ellipse cx="261.5" cy="60.418" fill="#84BE84" rx="3" ry="3" style="stroke: #038048; stroke-width: 1.0;"/><text fill="#000000" font-family="sans-serif" font-size="11" lengthAdjust="spacingAndGlyphs" textLength="67" x="270.5" y="63.4189">void TurnOn()</text><ellipse cx="261.5" cy="74.2539" fill="#84BE84" rx="3" ry="3" style="stroke: #038048; stroke-width: 1.0;"/><text fill="#000000" font-family="sans-serif" font-size="11" lengthAdjust="spacingAndGlyphs" textLength="69" x="270.5" y="77.2549">void TurnOff()</text><!--class Lamp--><rect fill="#FEFECE" filter="url(#fuzh5rova9thf)" height="75.6719" id="Lamp" style="stroke: #A80036; stroke-width: 1.5;" width="95" x="261.5" y="144"/><ellipse cx="290.45" cy="160" fill="#ADD1B2" rx="11" ry="11" style="stroke: #A80036; stroke-width: 1.0;"/><path d="M293.2156,155.875 Q293.3719,155.6563 293.5594,155.5469 Q293.7469,155.4375 293.9656,155.4375 Q294.3406,155.4375 294.575,155.6953 Q294.8094,155.9531 294.8094,156.5625 L294.8094,158.0156 Q294.8094,158.625 294.575,158.8906 Q294.3406,159.1563 293.9656,159.1563 Q293.6219,159.1563 293.4188,158.9531 Q293.2156,158.7656 293.1063,158.25 Q293.0594,157.8906 292.8719,157.7031 Q292.5438,157.3281 291.9344,157.1094 Q291.325,156.8906 290.7,156.8906 Q289.9344,156.8906 289.3016,157.2188 Q288.6688,157.5469 288.1766,158.2969 Q287.6844,159.0469 287.6844,160.0781 L287.6844,161.1719 Q287.6844,162.4063 288.575,163.2266 Q289.4656,164.0469 291.0594,164.0469 Q291.9969,164.0469 292.6531,163.7969 Q293.0438,163.6406 293.4656,163.2031 Q293.7313,162.9375 293.8797,162.8594 Q294.0281,162.7813 294.2313,162.7813 Q294.5594,162.7813 294.8172,163.0391 Q295.075,163.2969 295.075,163.6406 Q295.075,163.9844 294.7313,164.3906 Q294.2313,164.9688 293.4344,165.2969 Q292.3563,165.75 291.0594,165.75 Q289.5438,165.75 288.3406,165.125 Q287.3563,164.625 286.6688,163.5547 Q285.9813,162.4844 285.9813,161.2031 L285.9813,160.0469 Q285.9813,158.7188 286.5984,157.5703 Q287.2156,156.4219 288.3094,155.8047 Q289.4031,155.1875 290.6375,155.1875 Q291.3719,155.1875 292.0203,155.3516 Q292.6688,155.5156 293.2156,155.875 Z "/><text fill="#000000" font-family="sans-serif" font-size="12" lengthAdjust="spacingAndGlyphs" textLength="32" x="307.55" y="164.9102">Lamp</text><line style="stroke: #A80036; stroke-width: 1.5;" x1="262.5" x2="355.5" y1="176" y2="176"/><line style="stroke: #A80036; stroke-width: 1.5;" x1="262.5" x2="355.5" y1="184" y2="184"/><ellipse cx="272.5" cy="196.418" fill="#84BE84" rx="3" ry="3" style="stroke: #038048; stroke-width: 1.0;"/><text fill="#000000" font-family="sans-serif" font-size="11" lengthAdjust="spacingAndGlyphs" textLength="67" x="281.5" y="199.4189">void TurnOn()</text><ellipse cx="272.5" cy="210.2539" fill="#84BE84" rx="3" ry="3" style="stroke: #038048; stroke-width: 1.0;"/><text fill="#000000" font-family="sans-serif" font-size="11" lengthAdjust="spacingAndGlyphs" textLength="69" x="281.5" y="213.2549">void TurnOff()</text><!--class Button--><rect fill="#FEFECE" filter="url(#fuzh5rova9thf)" height="75.6719" id="Button" style="stroke: #A80036; stroke-width: 1.5;" width="150" x="49" y="8"/><ellipse cx="102.25" cy="24" fill="#B4A7E5" rx="11" ry="11" style="stroke: #A80036; stroke-width: 1.0;"/><path d="M103.2031,20.6406 L103.2031,27.2969 L104.9219,27.2969 Q105.5313,27.2969 105.7969,27.5313 Q106.0625,27.7656 106.0625,28.1563 Q106.0625,28.5313 105.7969,28.7656 Q105.5313,29 104.9219,29 L99.7813,29 Q99.1719,29 98.9063,28.7656 Q98.6406,28.5313 98.6406,28.1406 Q98.6406,27.7656 98.9063,27.5313 Q99.1719,27.2969 99.7813,27.2969 L101.5,27.2969 L101.5,20.6406 L99.7813,20.6406 Q99.1719,20.6406 98.9063,20.4063 Q98.6406,20.1719 98.6406,19.7813 Q98.6406,19.4063 98.9063,19.1719 Q99.1719,18.9375 99.7813,18.9375 L104.9219,18.9375 Q105.5313,18.9375 105.7969,19.1719 Q106.0625,19.4063 106.0625,19.7813 Q106.0625,20.1719 105.7969,20.4063 Q105.5313,20.6406 104.9219,20.6406 L103.2031,20.6406 Z "/><text fill="#000000" font-family="sans-serif" font-size="12" font-style="italic" lengthAdjust="spacingAndGlyphs" textLength="35" x="122.75" y="28.9102">Button</text><line style="stroke: #A80036; stroke-width: 1.5;" x1="50" x2="198" y1="40" y2="40"/><line style="stroke: #A80036; stroke-width: 1.5;" x1="50" x2="198" y1="48" y2="48"/><ellipse cx="60" cy="60.418" fill="#84BE84" rx="3" ry="3" style="stroke: #038048; stroke-width: 1.0;"/><text fill="#000000" font-family="sans-serif" font-size="11" lengthAdjust="spacingAndGlyphs" textLength="124" x="69" y="63.4189">Button(ButtonClient client)</text><ellipse cx="60" cy="74.2539" fill="#84BE84" rx="3" ry="3" style="stroke: #038048; stroke-width: 1.0;"/><text fill="#000000" font-family="sans-serif" font-size="11" lengthAdjust="spacingAndGlyphs" textLength="61" x="69" y="77.2549">void detect()</text><!--class ButtonImplementation--><rect fill="#FEFECE" filter="url(#fuzh5rova9thf)" height="75.6719" id="ButtonImplementation" style="stroke: #A80036; stroke-width: 1.5;" width="220" x="6" y="144"/><ellipse cx="51.25" cy="160" fill="#ADD1B2" rx="11" ry="11" style="stroke: #A80036; stroke-width: 1.0;"/><path d="M54.0156,155.875 Q54.1719,155.6563 54.3594,155.5469 Q54.5469,155.4375 54.7656,155.4375 Q55.1406,155.4375 55.375,155.6953 Q55.6094,155.9531 55.6094,156.5625 L55.6094,158.0156 Q55.6094,158.625 55.375,158.8906 Q55.1406,159.1563 54.7656,159.1563 Q54.4219,159.1563 54.2188,158.9531 Q54.0156,158.7656 53.9063,158.25 Q53.8594,157.8906 53.6719,157.7031 Q53.3438,157.3281 52.7344,157.1094 Q52.125,156.8906 51.5,156.8906 Q50.7344,156.8906 50.1016,157.2188 Q49.4688,157.5469 48.9766,158.2969 Q48.4844,159.0469 48.4844,160.0781 L48.4844,161.1719 Q48.4844,162.4063 49.375,163.2266 Q50.2656,164.0469 51.8594,164.0469 Q52.7969,164.0469 53.4531,163.7969 Q53.8438,163.6406 54.2656,163.2031 Q54.5313,162.9375 54.6797,162.8594 Q54.8281,162.7813 55.0313,162.7813 Q55.3594,162.7813 55.6172,163.0391 Q55.875,163.2969 55.875,163.6406 Q55.875,163.9844 55.5313,164.3906 Q55.0313,164.9688 54.2344,165.2969 Q53.1563,165.75 51.8594,165.75 Q50.3438,165.75 49.1406,165.125 Q48.1563,164.625 47.4688,163.5547 Q46.7813,162.4844 46.7813,161.2031 L46.7813,160.0469 Q46.7813,158.7188 47.3984,157.5703 Q48.0156,156.4219 49.1094,155.8047 Q50.2031,155.1875 51.4375,155.1875 Q52.1719,155.1875 52.8203,155.3516 Q53.4688,155.5156 54.0156,155.875 Z "/><text fill="#000000" font-family="sans-serif" font-size="12" lengthAdjust="spacingAndGlyphs" textLength="121" x="71.75" y="164.9102">ButtonImplementation</text><line style="stroke: #A80036; stroke-width: 1.5;" x1="7" x2="225" y1="176" y2="176"/><line style="stroke: #A80036; stroke-width: 1.5;" x1="7" x2="225" y1="184" y2="184"/><ellipse cx="17" cy="196.418" fill="#84BE84" rx="3" ry="3" style="stroke: #038048; stroke-width: 1.0;"/><text fill="#000000" font-family="sans-serif" font-size="11" lengthAdjust="spacingAndGlyphs" textLength="194" x="26" y="199.4189">ButtonImplementation(ButtonClient client)</text><ellipse cx="17" cy="210.2539" fill="#84BE84" rx="3" ry="3" style="stroke: #038048; stroke-width: 1.0;"/><text fill="#000000" font-family="sans-serif" font-size="11" lengthAdjust="spacingAndGlyphs" textLength="61" x="26" y="213.2549">void detect()</text><!--link ButtonClient to Lamp--><path d="M303.864,104.535 C304.759,117.86 305.688,131.6949 306.506,143.8737 " fill="none" id="ButtonClient-Lamp" style="stroke: #A80036; stroke-width: 1.0; stroke-dasharray: 7.0,7.0;"/><polygon fill="none" points="296.863,104.751,302.507,84.326,310.832,103.812,296.863,104.751" style="stroke: #A80036; stroke-width: 1.0;"/><!--link Button to ButtonClient--><path d="M212.467,46 C220.771,46 229.075,46 237.379,46 " fill="none" id="Button-ButtonClient" style="stroke: #A80036; stroke-width: 1.0;"/><polygon fill="#A80036" points="250.427,46,241.427,42,245.427,46,241.427,50,250.427,46" style="stroke: #A80036; stroke-width: 1.0;"/><line style="stroke: #A80036; stroke-width: 1.0;" x1="245.427" x2="237.4275" y1="46" y2="46"/><polygon fill="#FFFFFF" points="199.281,46,205.281,50,211.281,46,205.281,42,199.281,46" style="stroke: #A80036; stroke-width: 1.0;"/><!--link Button to ButtonImplementation--><path d="M120.565,104.535 C119.77,117.86 118.944,131.6949 118.216,143.8737 " fill="none" id="Button-ButtonImplementation" style="stroke: #A80036; stroke-width: 1.0; stroke-dasharray: 7.0,7.0;"/><polygon fill="none" points="113.592,103.874,121.772,84.326,127.567,104.708,113.592,103.874" style="stroke: #A80036; stroke-width: 1.0;"/><!--
@startuml

interface ButtonClient {
+ void TurnOn()
+ void TurnOff()
}

class Lamp implements ButtonClient{
+ void TurnOn()
+ void TurnOff()
}

interface Button {
+ Button(ButtonClient client)
+ void detect()
}

Button o-right-> ButtonClient

class ButtonImplementation implements Button{
+ ButtonImplementation(ButtonClient client)
+ void detect()
}

@enduml

PlantUML version 1.2019.05(Sat Apr 20 18:45:36 CEST 2019)
(GPL source distribution)
Java Runtime: OpenJDK Runtime Environment
JVM: OpenJDK 64-Bit Server VM
Java Version: 1.8.0_222-b10
Operating System: Windows 10
OS Version: 10.0
Default Encoding: windows-1252
Language: es
Country: ES
--></g></svg>