<?xml version="1.0" encoding="UTF-8" standalone="no"?><svg xmlns="http://www.w3.org/2000/svg" xmlns:xlink="http://www.w3.org/1999/xlink" contentScriptType="application/ecmascript" contentStyleType="text/css" height="447px" preserveAspectRatio="none" style="width:447px;height:447px;" version="1.1" viewBox="0 0 447 447" width="447px" zoomAndPan="magnify"><defs><filter height="300%" id="f198rhy2tpajbk" width="300%" x="-1" y="-1"><feGaussianBlur result="blurOut" stdDeviation="2.0"/><feColorMatrix in="blurOut" result="blurOut2" type="matrix" values="0 0 0 0 0 0 0 0 0 0 0 0 0 0 0 0 0 0 .4 0"/><feOffset dx="4.0" dy="4.0" in="blurOut2" result="blurOut3"/><feBlend in="SourceGraphic" in2="blurOut3" mode="normal"/></filter></defs><g><!--class Filter--><rect fill="#FEFECE" filter="url(#f198rhy2tpajbk)" height="89.5078" id="Filter" style="stroke: #A80036; stroke-width: 1.5;" width="162" x="6" y="41.5"/><ellipse cx="69.25" cy="57.5" fill="#ADD1B2" rx="11" ry="11" style="stroke: #A80036; stroke-width: 1.0;"/><path d="M72.0156,53.375 Q72.1719,53.1563 72.3594,53.0469 Q72.5469,52.9375 72.7656,52.9375 Q73.1406,52.9375 73.375,53.1953 Q73.6094,53.4531 73.6094,54.0625 L73.6094,55.5156 Q73.6094,56.125 73.375,56.3906 Q73.1406,56.6563 72.7656,56.6563 Q72.4219,56.6563 72.2188,56.4531 Q72.0156,56.2656 71.9063,55.75 Q71.8594,55.3906 71.6719,55.2031 Q71.3438,54.8281 70.7344,54.6094 Q70.125,54.3906 69.5,54.3906 Q68.7344,54.3906 68.1016,54.7188 Q67.4688,55.0469 66.9766,55.7969 Q66.4844,56.5469 66.4844,57.5781 L66.4844,58.6719 Q66.4844,59.9063 67.375,60.7266 Q68.2656,61.5469 69.8594,61.5469 Q70.7969,61.5469 71.4531,61.2969 Q71.8438,61.1406 72.2656,60.7031 Q72.5313,60.4375 72.6797,60.3594 Q72.8281,60.2813 73.0313,60.2813 Q73.3594,60.2813 73.6172,60.5391 Q73.875,60.7969 73.875,61.1406 Q73.875,61.4844 73.5313,61.8906 Q73.0313,62.4688 72.2344,62.7969 Q71.1563,63.25 69.8594,63.25 Q68.3438,63.25 67.1406,62.625 Q66.1563,62.125 65.4688,61.0547 Q64.7813,59.9844 64.7813,58.7031 L64.7813,57.5469 Q64.7813,56.2188 65.3984,55.0703 Q66.0156,53.9219 67.1094,53.3047 Q68.2031,52.6875 69.4375,52.6875 Q70.1719,52.6875 70.8203,52.8516 Q71.4688,53.0156 72.0156,53.375 Z "/><text fill="#000000" font-family="sans-serif" font-size="12" lengthAdjust="spacingAndGlyphs" textLength="27" x="89.75" y="62.4102">Filter</text><line style="stroke: #A80036; stroke-width: 1.5;" x1="7" x2="167" y1="73.5" y2="73.5"/><rect fill="none" height="6" style="stroke: #C82930; stroke-width: 1.0;" width="6" x="14" y="82.918"/><text fill="#000000" font-family="sans-serif" font-size="11" lengthAdjust="spacingAndGlyphs" textLength="105" x="26" y="88.9189">EntitiesList entitiesList</text><line style="stroke: #A80036; stroke-width: 1.5;" x1="7" x2="167" y1="95.3359" y2="95.3359"/><ellipse cx="17" cy="107.7539" fill="#84BE84" rx="3" ry="3" style="stroke: #038048; stroke-width: 1.0;"/><text fill="#000000" font-family="sans-serif" font-size="11" lengthAdjust="spacingAndGlyphs" textLength="136" x="26" y="110.7549">Filter(EntitiesList entitiesList)</text><ellipse cx="17" cy="121.5898" fill="#84BE84" rx="3" ry="3" style="stroke: #038048; stroke-width: 1.0;"/><text fill="#000000" font-family="sans-serif" font-size="11" lengthAdjust="spacingAndGlyphs" textLength="52" x="26" y="124.5908">void filter()</text><path d="M203,8 L203,82.5 L168.109,86.5 L203,90.5 L203,165.1641 A0,0 0 0 0 203,165.1641 L435,165.1641 A0,0 0 0 0 435,165.1641 L435,18 L425,8 L203,8 A0,0 0 0 0 203,8 " fill="#FBFB77" filter="url(#f198rhy2tpajbk)" style="stroke: #A80036; stroke-width: 1.0;"/><path d="M425,8 L425,18 L435,18 L425,8 " fill="#FBFB77" style="stroke: #A80036; stroke-width: 1.0;"/><text fill="#000000" font-family="sans-serif" font-size="13" lengthAdjust="spacingAndGlyphs" textLength="211" x="209" y="26.4951">public Filter(EntitiesList entitiesList){</text><text fill="#000000" font-family="sans-serif" font-size="13" lengthAdjust="spacingAndGlyphs" textLength="171" x="217" y="42.8467">this.entitiesList = entitiesList;</text><text fill="#000000" font-family="sans-serif" font-size="13" lengthAdjust="spacingAndGlyphs" textLength="4" x="209" y="59.1982">}</text><text fill="#000000" font-family="sans-serif" font-size="13" lengthAdjust="spacingAndGlyphs" textLength="100" x="209" y="75.5498">public void filter(){</text><text fill="#000000" font-family="sans-serif" font-size="13" lengthAdjust="spacingAndGlyphs" textLength="172" x="217" y="91.9014">while (entitiesList.hasNext()) {</text><text fill="#000000" font-family="sans-serif" font-size="13" lengthAdjust="spacingAndGlyphs" textLength="190" x="225" y="108.2529">Entity entity = entitiesList.next();</text><text fill="#000000" font-family="sans-serif" font-size="13" lengthAdjust="spacingAndGlyphs" textLength="12" x="225" y="124.6045">...</text><text fill="#000000" font-family="sans-serif" font-size="13" lengthAdjust="spacingAndGlyphs" textLength="4" x="217" y="140.9561">}</text><text fill="#000000" font-family="sans-serif" font-size="13" lengthAdjust="spacingAndGlyphs" textLength="4" x="209" y="157.3076">}</text><!--class EntitiesList--><rect fill="#FEFECE" filter="url(#f198rhy2tpajbk)" height="75.6719" id="EntitiesList" style="stroke: #A80036; stroke-width: 1.5;" width="118" x="28" y="225"/><ellipse cx="55.15" cy="241" fill="#A9DCDF" rx="11" ry="11" style="stroke: #A80036; stroke-width: 1.0;"/><path d="M57.3375,242.7656 L53.1969,242.7656 L52.775,243.7969 L53.1969,243.7969 Q53.8063,243.7969 54.0719,244.0313 Q54.3375,244.2656 54.3375,244.6563 Q54.3375,245.0313 54.0719,245.2656 Q53.8063,245.5 53.1969,245.5 L50.9,245.5 Q50.2906,245.5 50.0328,245.2656 Q49.775,245.0313 49.775,244.6406 Q49.775,244.2656 50.0484,244.0234 Q50.3219,243.7813 50.9469,243.7969 L53.6188,237.1406 L52.5094,237.1406 Q51.9,237.1406 51.6344,236.9063 Q51.3688,236.6719 51.3688,236.2813 Q51.3688,235.9063 51.6344,235.6719 Q51.9,235.4375 52.5094,235.4375 L56.1813,235.4375 L59.5719,243.7969 Q60.1656,243.7969 60.3531,243.9375 Q60.7438,244.2031 60.7438,244.6563 Q60.7438,245.0313 60.4859,245.2656 Q60.2281,245.5 59.6188,245.5 L57.3219,245.5 Q56.7125,245.5 56.4469,245.2656 Q56.1813,245.0313 56.1813,244.6406 Q56.1813,244.2656 56.4469,244.0313 Q56.7125,243.7969 57.3219,243.7969 L57.7438,243.7969 L57.3375,242.7656 Z M56.6188,241.0625 L55.2594,237.6875 L53.8844,241.0625 L56.6188,241.0625 Z "/><text fill="#000000" font-family="sans-serif" font-size="12" font-style="italic" lengthAdjust="spacingAndGlyphs" textLength="59" x="71.85" y="245.9102">EntitiesList</text><line style="stroke: #A80036; stroke-width: 1.5;" x1="29" x2="145" y1="257" y2="257"/><line style="stroke: #A80036; stroke-width: 1.5;" x1="29" x2="145" y1="265" y2="265"/><ellipse cx="39" cy="277.418" fill="#84BE84" rx="3" ry="3" style="stroke: #038048; stroke-width: 1.0;"/><text fill="#000000" font-family="sans-serif" font-size="11" font-style="italic" lengthAdjust="spacingAndGlyphs" textLength="92" x="48" y="280.4189">boolean hasNext()</text><ellipse cx="39" cy="291.2539" fill="#84BE84" rx="3" ry="3" style="stroke: #038048; stroke-width: 1.0;"/><text fill="#000000" font-family="sans-serif" font-size="11" font-style="italic" lengthAdjust="spacingAndGlyphs" textLength="59" x="48" y="294.2549">Entity next()</text><!--class EntitiesListText--><rect fill="#FEFECE" filter="url(#f198rhy2tpajbk)" height="75.6719" id="EntitiesListText" style="stroke: #A80036; stroke-width: 1.5;" width="115" x="29.5" y="361"/><ellipse cx="44.5" cy="377" fill="#ADD1B2" rx="11" ry="11" style="stroke: #A80036; stroke-width: 1.0;"/><path d="M47.2656,372.875 Q47.4219,372.6563 47.6094,372.5469 Q47.7969,372.4375 48.0156,372.4375 Q48.3906,372.4375 48.625,372.6953 Q48.8594,372.9531 48.8594,373.5625 L48.8594,375.0156 Q48.8594,375.625 48.625,375.8906 Q48.3906,376.1563 48.0156,376.1563 Q47.6719,376.1563 47.4688,375.9531 Q47.2656,375.7656 47.1563,375.25 Q47.1094,374.8906 46.9219,374.7031 Q46.5938,374.3281 45.9844,374.1094 Q45.375,373.8906 44.75,373.8906 Q43.9844,373.8906 43.3516,374.2188 Q42.7188,374.5469 42.2266,375.2969 Q41.7344,376.0469 41.7344,377.0781 L41.7344,378.1719 Q41.7344,379.4063 42.625,380.2266 Q43.5156,381.0469 45.1094,381.0469 Q46.0469,381.0469 46.7031,380.7969 Q47.0938,380.6406 47.5156,380.2031 Q47.7813,379.9375 47.9297,379.8594 Q48.0781,379.7813 48.2813,379.7813 Q48.6094,379.7813 48.8672,380.0391 Q49.125,380.2969 49.125,380.6406 Q49.125,380.9844 48.7813,381.3906 Q48.2813,381.9688 47.4844,382.2969 Q46.4063,382.75 45.1094,382.75 Q43.5938,382.75 42.3906,382.125 Q41.4063,381.625 40.7188,380.5547 Q40.0313,379.4844 40.0313,378.2031 L40.0313,377.0469 Q40.0313,375.7188 40.6484,374.5703 Q41.2656,373.4219 42.3594,372.8047 Q43.4531,372.1875 44.6875,372.1875 Q45.4219,372.1875 46.0703,372.3516 Q46.7188,372.5156 47.2656,372.875 Z "/><text fill="#000000" font-family="sans-serif" font-size="12" lengthAdjust="spacingAndGlyphs" textLength="83" x="58.5" y="381.9102">EntitiesListText</text><line style="stroke: #A80036; stroke-width: 1.5;" x1="30.5" x2="143.5" y1="393" y2="393"/><line style="stroke: #A80036; stroke-width: 1.5;" x1="30.5" x2="143.5" y1="401" y2="401"/><ellipse cx="40.5" cy="413.418" fill="#84BE84" rx="3" ry="3" style="stroke: #038048; stroke-width: 1.0;"/><text fill="#000000" font-family="sans-serif" font-size="11" lengthAdjust="spacingAndGlyphs" textLength="89" x="49.5" y="416.4189">boolean hasNext()</text><ellipse cx="40.5" cy="427.2539" fill="#84BE84" rx="3" ry="3" style="stroke: #038048; stroke-width: 1.0;"/><text fill="#000000" font-family="sans-serif" font-size="11" lengthAdjust="spacingAndGlyphs" textLength="58" x="49.5" y="430.2549">Entity next()</text><!--link Filter to EntitiesList--><path d="M87,131.534 C87,158.51 87,192.861 87,219.543 " fill="none" id="Filter-EntitiesList" style="stroke: #A80036; stroke-width: 1.0;"/><polygon fill="#A80036" points="87,224.773,91,215.773,87,219.773,83,215.773,87,224.773" style="stroke: #A80036; stroke-width: 1.0;"/><!--link EntitiesList to EntitiesListText--><path d="M87,321.535 C87,334.86 87,348.6949 87,360.8737 " fill="none" id="EntitiesList-EntitiesListText" style="stroke: #A80036; stroke-width: 1.0;"/><polygon fill="none" points="80.0001,321.327,87,301.326,94.0001,321.326,80.0001,321.327" style="stroke: #A80036; stroke-width: 1.0;"/><!--
@startuml

class Filter{
- EntitiesList entitiesList
+ Filter(EntitiesList entitiesList)
+ void filter()
}
note right
public Filter(EntitiesList entitiesList){
  this.entitiesList = entitiesList;
}
public void filter(){
  while (entitiesList.hasNext()) {
    Entity entity = entitiesList.next();
    ...
  }
}
endnote

Filter -down-> EntitiesList

abstract class EntitiesList {
+ {abstract} boolean hasNext()
+ {abstract} Entity next()
}

class EntitiesListText {
+ boolean hasNext()
+ Entity next()
}

EntitiesList <|-down- EntitiesListText
@enduml

PlantUML version 1.2019.05(Sat Apr 20 18:45:36 CEST 2019)
(GPL source distribution)
Java Runtime: OpenJDK Runtime Environment
JVM: OpenJDK 64-Bit Server VM
Java Version: 1.8.0_222-b10
Operating System: Windows 10
OS Version: 10.0
Default Encoding: windows-1252
Language: es
Country: ES
--></g></svg>