<?xml version="1.0" encoding="UTF-8" standalone="no"?><svg xmlns="http://www.w3.org/2000/svg" xmlns:xlink="http://www.w3.org/1999/xlink" contentScriptType="application/ecmascript" contentStyleType="text/css" height="629px" preserveAspectRatio="none" style="width:686px;height:629px;" version="1.1" viewBox="0 0 686 629" width="686px" zoomAndPan="magnify"><defs><filter height="300%" id="f191e76d73n6xx" width="300%" x="-1" y="-1"><feGaussianBlur result="blurOut" stdDeviation="2.0"/><feColorMatrix in="blurOut" result="blurOut2" type="matrix" values="0 0 0 0 0 0 0 0 0 0 0 0 0 0 0 0 0 0 .4 0"/><feOffset dx="4.0" dy="4.0" in="blurOut2" result="blurOut3"/><feBlend in="SourceGraphic" in2="blurOut3" mode="normal"/></filter><linearGradient id="g191e76d73n6xx0" x1="0%" x2="100%" y1="50%" y2="50%"><stop offset="0%" stop-color="#ADFF2F"/><stop offset="100%" stop-color="#008000"/></linearGradient><linearGradient id="g191e76d73n6xx1" x1="0%" x2="100%" y1="50%" y2="50%"><stop offset="0%" stop-color="#0000FF"/><stop offset="100%" stop-color="#008000"/></linearGradient></defs><g><text fill="#000000" font-family="sans-serif" font-size="18" lengthAdjust="spacingAndGlyphs" textLength="483" x="105" y="18.6855">Proyecto Software efectivo por buena disciplina/metodología</text><!--class ProyectoSoftware--><rect fill="#ADFF2F" filter="url(#f191e76d73n6xx)" height="48" id="ProyectoSoftware" style="stroke: #A80036; stroke-width: 1.5;" width="130" x="194.5" y="30.6406"/><rect fill="#ADFF2F" height="32" style="stroke: #A80036; stroke-width: 1.5;" width="130" x="194.5" y="30.6406"/><ellipse cx="209.5" cy="46.6406" fill="#ADD1B2" rx="11" ry="11" style="stroke: #A80036; stroke-width: 1.0;"/><path d="M212.2656,42.5156 Q212.4219,42.2969 212.6094,42.1875 Q212.7969,42.0781 213.0156,42.0781 Q213.3906,42.0781 213.625,42.3359 Q213.8594,42.5938 213.8594,43.2031 L213.8594,44.6563 Q213.8594,45.2656 213.625,45.5313 Q213.3906,45.7969 213.0156,45.7969 Q212.6719,45.7969 212.4688,45.5938 Q212.2656,45.4063 212.1563,44.8906 Q212.1094,44.5313 211.9219,44.3438 Q211.5938,43.9688 210.9844,43.75 Q210.375,43.5313 209.75,43.5313 Q208.9844,43.5313 208.3516,43.8594 Q207.7188,44.1875 207.2266,44.9375 Q206.7344,45.6875 206.7344,46.7188 L206.7344,47.8125 Q206.7344,49.0469 207.625,49.8672 Q208.5156,50.6875 210.1094,50.6875 Q211.0469,50.6875 211.7031,50.4375 Q212.0938,50.2813 212.5156,49.8438 Q212.7813,49.5781 212.9297,49.5 Q213.0781,49.4219 213.2813,49.4219 Q213.6094,49.4219 213.8672,49.6797 Q214.125,49.9375 214.125,50.2813 Q214.125,50.625 213.7813,51.0313 Q213.2813,51.6094 212.4844,51.9375 Q211.4063,52.3906 210.1094,52.3906 Q208.5938,52.3906 207.3906,51.7656 Q206.4063,51.2656 205.7188,50.1953 Q205.0313,49.125 205.0313,47.8438 L205.0313,46.6875 Q205.0313,45.3594 205.6484,44.2109 Q206.2656,43.0625 207.3594,42.4453 Q208.4531,41.8281 209.6875,41.8281 Q210.4219,41.8281 211.0703,41.9922 Q211.7188,42.1563 212.2656,42.5156 Z "/><text fill="#000000" font-family="sans-serif" font-size="12" lengthAdjust="spacingAndGlyphs" textLength="98" x="223.5" y="51.5508">Proyecto Software</text><line style="stroke: #A80036; stroke-width: 1.5;" x1="195.5" x2="323.5" y1="62.6406" y2="62.6406"/><line style="stroke: #A80036; stroke-width: 1.5;" x1="195.5" x2="323.5" y1="70.6406" y2="70.6406"/><!--class ProductoSoftware--><rect fill="#ADFF2F" filter="url(#f191e76d73n6xx)" height="48" id="ProductoSoftware" style="stroke: #A80036; stroke-width: 1.5;" width="129" x="6" y="138.6406"/><rect fill="#ADFF2F" height="32" style="stroke: #A80036; stroke-width: 1.5;" width="129" x="6" y="138.6406"/><ellipse cx="21" cy="154.6406" fill="#ADD1B2" rx="11" ry="11" style="stroke: #A80036; stroke-width: 1.0;"/><path d="M23.7656,150.5156 Q23.9219,150.2969 24.1094,150.1875 Q24.2969,150.0781 24.5156,150.0781 Q24.8906,150.0781 25.125,150.3359 Q25.3594,150.5938 25.3594,151.2031 L25.3594,152.6563 Q25.3594,153.2656 25.125,153.5313 Q24.8906,153.7969 24.5156,153.7969 Q24.1719,153.7969 23.9688,153.5938 Q23.7656,153.4063 23.6563,152.8906 Q23.6094,152.5313 23.4219,152.3438 Q23.0938,151.9688 22.4844,151.75 Q21.875,151.5313 21.25,151.5313 Q20.4844,151.5313 19.8516,151.8594 Q19.2188,152.1875 18.7266,152.9375 Q18.2344,153.6875 18.2344,154.7188 L18.2344,155.8125 Q18.2344,157.0469 19.125,157.8672 Q20.0156,158.6875 21.6094,158.6875 Q22.5469,158.6875 23.2031,158.4375 Q23.5938,158.2813 24.0156,157.8438 Q24.2813,157.5781 24.4297,157.5 Q24.5781,157.4219 24.7813,157.4219 Q25.1094,157.4219 25.3672,157.6797 Q25.625,157.9375 25.625,158.2813 Q25.625,158.625 25.2813,159.0313 Q24.7813,159.6094 23.9844,159.9375 Q22.9063,160.3906 21.6094,160.3906 Q20.0938,160.3906 18.8906,159.7656 Q17.9063,159.2656 17.2188,158.1953 Q16.5313,157.125 16.5313,155.8438 L16.5313,154.6875 Q16.5313,153.3594 17.1484,152.2109 Q17.7656,151.0625 18.8594,150.4453 Q19.9531,149.8281 21.1875,149.8281 Q21.9219,149.8281 22.5703,149.9922 Q23.2188,150.1563 23.7656,150.5156 Z "/><text fill="#000000" font-family="sans-serif" font-size="12" lengthAdjust="spacingAndGlyphs" textLength="97" x="35" y="159.5508">ProductoSoftware</text><line style="stroke: #A80036; stroke-width: 1.5;" x1="7" x2="134" y1="170.6406" y2="170.6406"/><line style="stroke: #A80036; stroke-width: 1.5;" x1="7" x2="134" y1="178.6406" y2="178.6406"/><!--class Variable--><rect fill="#0000FF" filter="url(#f191e76d73n6xx)" height="48" id="Variable" style="stroke: #A80036; stroke-width: 1.5;" width="77" x="163" y="246.6406"/><rect fill="#0000FF" height="32" style="stroke: #A80036; stroke-width: 1.5;" width="77" x="163" y="246.6406"/><ellipse cx="178" cy="262.6406" fill="#ADD1B2" rx="11" ry="11" style="stroke: #A80036; stroke-width: 1.0;"/><path d="M180.7656,258.5156 Q180.9219,258.2969 181.1094,258.1875 Q181.2969,258.0781 181.5156,258.0781 Q181.8906,258.0781 182.125,258.3359 Q182.3594,258.5938 182.3594,259.2031 L182.3594,260.6563 Q182.3594,261.2656 182.125,261.5313 Q181.8906,261.7969 181.5156,261.7969 Q181.1719,261.7969 180.9688,261.5938 Q180.7656,261.4063 180.6563,260.8906 Q180.6094,260.5313 180.4219,260.3438 Q180.0938,259.9688 179.4844,259.75 Q178.875,259.5313 178.25,259.5313 Q177.4844,259.5313 176.8516,259.8594 Q176.2188,260.1875 175.7266,260.9375 Q175.2344,261.6875 175.2344,262.7188 L175.2344,263.8125 Q175.2344,265.0469 176.125,265.8672 Q177.0156,266.6875 178.6094,266.6875 Q179.5469,266.6875 180.2031,266.4375 Q180.5938,266.2813 181.0156,265.8438 Q181.2813,265.5781 181.4297,265.5 Q181.5781,265.4219 181.7813,265.4219 Q182.1094,265.4219 182.3672,265.6797 Q182.625,265.9375 182.625,266.2813 Q182.625,266.625 182.2813,267.0313 Q181.7813,267.6094 180.9844,267.9375 Q179.9063,268.3906 178.6094,268.3906 Q177.0938,268.3906 175.8906,267.7656 Q174.9063,267.2656 174.2188,266.1953 Q173.5313,265.125 173.5313,263.8438 L173.5313,262.6875 Q173.5313,261.3594 174.1484,260.2109 Q174.7656,259.0625 175.8594,258.4453 Q176.9531,257.8281 178.1875,257.8281 Q178.9219,257.8281 179.5703,257.9922 Q180.2188,258.1563 180.7656,258.5156 Z "/><text fill="#000000" font-family="sans-serif" font-size="12" lengthAdjust="spacingAndGlyphs" textLength="45" x="192" y="267.5508">Variable</text><line style="stroke: #A80036; stroke-width: 1.5;" x1="164" x2="239" y1="278.6406" y2="278.6406"/><line style="stroke: #A80036; stroke-width: 1.5;" x1="164" x2="239" y1="286.6406" y2="286.6406"/><!--class Efectividad--><rect fill="#FFA500" filter="url(#f191e76d73n6xx)" height="48" id="Efectividad" style="stroke: #A80036; stroke-width: 1.5;" width="91" x="267" y="138.6406"/><rect fill="#FFA500" height="32" style="stroke: #A80036; stroke-width: 1.5;" width="91" x="267" y="138.6406"/><ellipse cx="282" cy="154.6406" fill="#ADD1B2" rx="11" ry="11" style="stroke: #A80036; stroke-width: 1.0;"/><path d="M284.7656,150.5156 Q284.9219,150.2969 285.1094,150.1875 Q285.2969,150.0781 285.5156,150.0781 Q285.8906,150.0781 286.125,150.3359 Q286.3594,150.5938 286.3594,151.2031 L286.3594,152.6563 Q286.3594,153.2656 286.125,153.5313 Q285.8906,153.7969 285.5156,153.7969 Q285.1719,153.7969 284.9688,153.5938 Q284.7656,153.4063 284.6563,152.8906 Q284.6094,152.5313 284.4219,152.3438 Q284.0938,151.9688 283.4844,151.75 Q282.875,151.5313 282.25,151.5313 Q281.4844,151.5313 280.8516,151.8594 Q280.2188,152.1875 279.7266,152.9375 Q279.2344,153.6875 279.2344,154.7188 L279.2344,155.8125 Q279.2344,157.0469 280.125,157.8672 Q281.0156,158.6875 282.6094,158.6875 Q283.5469,158.6875 284.2031,158.4375 Q284.5938,158.2813 285.0156,157.8438 Q285.2813,157.5781 285.4297,157.5 Q285.5781,157.4219 285.7813,157.4219 Q286.1094,157.4219 286.3672,157.6797 Q286.625,157.9375 286.625,158.2813 Q286.625,158.625 286.2813,159.0313 Q285.7813,159.6094 284.9844,159.9375 Q283.9063,160.3906 282.6094,160.3906 Q281.0938,160.3906 279.8906,159.7656 Q278.9063,159.2656 278.2188,158.1953 Q277.5313,157.125 277.5313,155.8438 L277.5313,154.6875 Q277.5313,153.3594 278.1484,152.2109 Q278.7656,151.0625 279.8594,150.4453 Q280.9531,149.8281 282.1875,149.8281 Q282.9219,149.8281 283.5703,149.9922 Q284.2188,150.1563 284.7656,150.5156 Z "/><text fill="#000000" font-family="sans-serif" font-size="12" lengthAdjust="spacingAndGlyphs" textLength="59" x="296" y="159.5508">Efectividad</text><line style="stroke: #A80036; stroke-width: 1.5;" x1="268" x2="357" y1="170.6406" y2="170.6406"/><line style="stroke: #A80036; stroke-width: 1.5;" x1="268" x2="357" y1="178.6406" y2="178.6406"/><!--class ProyectoPlanificado--><rect fill="url(#g191e76d73n6xx0)" filter="url(#f191e76d73n6xx)" height="48" id="ProyectoPlanificado" style="stroke: #A80036; stroke-width: 1.5;" width="124" x="495.5" y="354.6406"/><rect fill="url(#g191e76d73n6xx0)" height="32" style="stroke: #A80036; stroke-width: 1.5;" width="124" x="495.5" y="354.6406"/><ellipse cx="510.5" cy="370.6406" fill="#ADD1B2" rx="11" ry="11" style="stroke: #A80036; stroke-width: 1.0;"/><path d="M513.2656,366.5156 Q513.4219,366.2969 513.6094,366.1875 Q513.7969,366.0781 514.0156,366.0781 Q514.3906,366.0781 514.625,366.3359 Q514.8594,366.5938 514.8594,367.2031 L514.8594,368.6563 Q514.8594,369.2656 514.625,369.5313 Q514.3906,369.7969 514.0156,369.7969 Q513.6719,369.7969 513.4688,369.5938 Q513.2656,369.4063 513.1563,368.8906 Q513.1094,368.5313 512.9219,368.3438 Q512.5938,367.9688 511.9844,367.75 Q511.375,367.5313 510.75,367.5313 Q509.9844,367.5313 509.3516,367.8594 Q508.7188,368.1875 508.2266,368.9375 Q507.7344,369.6875 507.7344,370.7188 L507.7344,371.8125 Q507.7344,373.0469 508.625,373.8672 Q509.5156,374.6875 511.1094,374.6875 Q512.0469,374.6875 512.7031,374.4375 Q513.0938,374.2813 513.5156,373.8438 Q513.7813,373.5781 513.9297,373.5 Q514.0781,373.4219 514.2813,373.4219 Q514.6094,373.4219 514.8672,373.6797 Q515.125,373.9375 515.125,374.2813 Q515.125,374.625 514.7813,375.0313 Q514.2813,375.6094 513.4844,375.9375 Q512.4063,376.3906 511.1094,376.3906 Q509.5938,376.3906 508.3906,375.7656 Q507.4063,375.2656 506.7188,374.1953 Q506.0313,373.125 506.0313,371.8438 L506.0313,370.6875 Q506.0313,369.3594 506.6484,368.2109 Q507.2656,367.0625 508.3594,366.4453 Q509.4531,365.8281 510.6875,365.8281 Q511.4219,365.8281 512.0703,365.9922 Q512.7188,366.1563 513.2656,366.5156 Z "/><text fill="#000000" font-family="sans-serif" font-size="12" lengthAdjust="spacingAndGlyphs" textLength="92" x="524.5" y="375.5508">Proyecto Efectivo</text><line style="stroke: #A80036; stroke-width: 1.5;" x1="496.5" x2="618.5" y1="386.6406" y2="386.6406"/><line style="stroke: #A80036; stroke-width: 1.5;" x1="496.5" x2="618.5" y1="394.6406" y2="394.6406"/><!--class Calidad--><rect fill="#6495ED" filter="url(#f191e76d73n6xx)" height="48" id="Calidad" style="stroke: #A80036; stroke-width: 1.5;" width="75" x="90" y="462.6406"/><rect fill="#6495ED" height="32" style="stroke: #A80036; stroke-width: 1.5;" width="75" x="90" y="462.6406"/><ellipse cx="105" cy="478.6406" fill="#ADD1B2" rx="11" ry="11" style="stroke: #A80036; stroke-width: 1.0;"/><path d="M107.7656,474.5156 Q107.9219,474.2969 108.1094,474.1875 Q108.2969,474.0781 108.5156,474.0781 Q108.8906,474.0781 109.125,474.3359 Q109.3594,474.5938 109.3594,475.2031 L109.3594,476.6563 Q109.3594,477.2656 109.125,477.5313 Q108.8906,477.7969 108.5156,477.7969 Q108.1719,477.7969 107.9688,477.5938 Q107.7656,477.4063 107.6563,476.8906 Q107.6094,476.5313 107.4219,476.3438 Q107.0938,475.9688 106.4844,475.75 Q105.875,475.5313 105.25,475.5313 Q104.4844,475.5313 103.8516,475.8594 Q103.2188,476.1875 102.7266,476.9375 Q102.2344,477.6875 102.2344,478.7188 L102.2344,479.8125 Q102.2344,481.0469 103.125,481.8672 Q104.0156,482.6875 105.6094,482.6875 Q106.5469,482.6875 107.2031,482.4375 Q107.5938,482.2813 108.0156,481.8438 Q108.2813,481.5781 108.4297,481.5 Q108.5781,481.4219 108.7813,481.4219 Q109.1094,481.4219 109.3672,481.6797 Q109.625,481.9375 109.625,482.2813 Q109.625,482.625 109.2813,483.0313 Q108.7813,483.6094 107.9844,483.9375 Q106.9063,484.3906 105.6094,484.3906 Q104.0938,484.3906 102.8906,483.7656 Q101.9063,483.2656 101.2188,482.1953 Q100.5313,481.125 100.5313,479.8438 L100.5313,478.6875 Q100.5313,477.3594 101.1484,476.2109 Q101.7656,475.0625 102.8594,474.4453 Q103.9531,473.8281 105.1875,473.8281 Q105.9219,473.8281 106.5703,473.9922 Q107.2188,474.1563 107.7656,474.5156 Z "/><text fill="#000000" font-family="sans-serif" font-size="12" lengthAdjust="spacingAndGlyphs" textLength="43" x="119" y="483.5508">Calidad</text><line style="stroke: #A80036; stroke-width: 1.5;" x1="91" x2="164" y1="494.6406" y2="494.6406"/><line style="stroke: #A80036; stroke-width: 1.5;" x1="91" x2="164" y1="502.6406" y2="502.6406"/><!--class Mantenibilidad--><rect fill="#6495ED" filter="url(#f191e76d73n6xx)" height="48" id="Mantenibilidad" style="stroke: #A80036; stroke-width: 1.5;" width="112" x="71.5" y="570.6406"/><rect fill="#6495ED" height="32" style="stroke: #A80036; stroke-width: 1.5;" width="112" x="71.5" y="570.6406"/><ellipse cx="86.5" cy="586.6406" fill="#ADD1B2" rx="11" ry="11" style="stroke: #A80036; stroke-width: 1.0;"/><path d="M89.2656,582.5156 Q89.4219,582.2969 89.6094,582.1875 Q89.7969,582.0781 90.0156,582.0781 Q90.3906,582.0781 90.625,582.3359 Q90.8594,582.5938 90.8594,583.2031 L90.8594,584.6563 Q90.8594,585.2656 90.625,585.5313 Q90.3906,585.7969 90.0156,585.7969 Q89.6719,585.7969 89.4688,585.5938 Q89.2656,585.4063 89.1563,584.8906 Q89.1094,584.5313 88.9219,584.3438 Q88.5938,583.9688 87.9844,583.75 Q87.375,583.5313 86.75,583.5313 Q85.9844,583.5313 85.3516,583.8594 Q84.7188,584.1875 84.2266,584.9375 Q83.7344,585.6875 83.7344,586.7188 L83.7344,587.8125 Q83.7344,589.0469 84.625,589.8672 Q85.5156,590.6875 87.1094,590.6875 Q88.0469,590.6875 88.7031,590.4375 Q89.0938,590.2813 89.5156,589.8438 Q89.7813,589.5781 89.9297,589.5 Q90.0781,589.4219 90.2813,589.4219 Q90.6094,589.4219 90.8672,589.6797 Q91.125,589.9375 91.125,590.2813 Q91.125,590.625 90.7813,591.0313 Q90.2813,591.6094 89.4844,591.9375 Q88.4063,592.3906 87.1094,592.3906 Q85.5938,592.3906 84.3906,591.7656 Q83.4063,591.2656 82.7188,590.1953 Q82.0313,589.125 82.0313,587.8438 L82.0313,586.6875 Q82.0313,585.3594 82.6484,584.2109 Q83.2656,583.0625 84.3594,582.4453 Q85.4531,581.8281 86.6875,581.8281 Q87.4219,581.8281 88.0703,581.9922 Q88.7188,582.1563 89.2656,582.5156 Z "/><text fill="#000000" font-family="sans-serif" font-size="12" lengthAdjust="spacingAndGlyphs" textLength="80" x="100.5" y="591.5508">Mantenibilidad</text><line style="stroke: #A80036; stroke-width: 1.5;" x1="72.5" x2="182.5" y1="602.6406" y2="602.6406"/><line style="stroke: #A80036; stroke-width: 1.5;" x1="72.5" x2="182.5" y1="610.6406" y2="610.6406"/><!--class Eficacia--><rect fill="#FFA500" filter="url(#f191e76d73n6xx)" height="48" id="Eficacia" style="stroke: #A80036; stroke-width: 1.5;" width="75" x="275" y="246.6406"/><rect fill="#FFA500" height="32" style="stroke: #A80036; stroke-width: 1.5;" width="75" x="275" y="246.6406"/><ellipse cx="290" cy="262.6406" fill="#ADD1B2" rx="11" ry="11" style="stroke: #A80036; stroke-width: 1.0;"/><path d="M292.7656,258.5156 Q292.9219,258.2969 293.1094,258.1875 Q293.2969,258.0781 293.5156,258.0781 Q293.8906,258.0781 294.125,258.3359 Q294.3594,258.5938 294.3594,259.2031 L294.3594,260.6563 Q294.3594,261.2656 294.125,261.5313 Q293.8906,261.7969 293.5156,261.7969 Q293.1719,261.7969 292.9688,261.5938 Q292.7656,261.4063 292.6563,260.8906 Q292.6094,260.5313 292.4219,260.3438 Q292.0938,259.9688 291.4844,259.75 Q290.875,259.5313 290.25,259.5313 Q289.4844,259.5313 288.8516,259.8594 Q288.2188,260.1875 287.7266,260.9375 Q287.2344,261.6875 287.2344,262.7188 L287.2344,263.8125 Q287.2344,265.0469 288.125,265.8672 Q289.0156,266.6875 290.6094,266.6875 Q291.5469,266.6875 292.2031,266.4375 Q292.5938,266.2813 293.0156,265.8438 Q293.2813,265.5781 293.4297,265.5 Q293.5781,265.4219 293.7813,265.4219 Q294.1094,265.4219 294.3672,265.6797 Q294.625,265.9375 294.625,266.2813 Q294.625,266.625 294.2813,267.0313 Q293.7813,267.6094 292.9844,267.9375 Q291.9063,268.3906 290.6094,268.3906 Q289.0938,268.3906 287.8906,267.7656 Q286.9063,267.2656 286.2188,266.1953 Q285.5313,265.125 285.5313,263.8438 L285.5313,262.6875 Q285.5313,261.3594 286.1484,260.2109 Q286.7656,259.0625 287.8594,258.4453 Q288.9531,257.8281 290.1875,257.8281 Q290.9219,257.8281 291.5703,257.9922 Q292.2188,258.1563 292.7656,258.5156 Z "/><text fill="#000000" font-family="sans-serif" font-size="12" lengthAdjust="spacingAndGlyphs" textLength="43" x="304" y="267.5508">Eficacia</text><line style="stroke: #A80036; stroke-width: 1.5;" x1="276" x2="349" y1="278.6406" y2="278.6406"/><line style="stroke: #A80036; stroke-width: 1.5;" x1="276" x2="349" y1="286.6406" y2="286.6406"/><!--class Eficiencia--><rect fill="#FFA500" filter="url(#f191e76d73n6xx)" height="48" id="Eficiencia" style="stroke: #A80036; stroke-width: 1.5;" width="85" x="385" y="246.6406"/><rect fill="#FFA500" height="32" style="stroke: #A80036; stroke-width: 1.5;" width="85" x="385" y="246.6406"/><ellipse cx="400" cy="262.6406" fill="#ADD1B2" rx="11" ry="11" style="stroke: #A80036; stroke-width: 1.0;"/><path d="M402.7656,258.5156 Q402.9219,258.2969 403.1094,258.1875 Q403.2969,258.0781 403.5156,258.0781 Q403.8906,258.0781 404.125,258.3359 Q404.3594,258.5938 404.3594,259.2031 L404.3594,260.6563 Q404.3594,261.2656 404.125,261.5313 Q403.8906,261.7969 403.5156,261.7969 Q403.1719,261.7969 402.9688,261.5938 Q402.7656,261.4063 402.6563,260.8906 Q402.6094,260.5313 402.4219,260.3438 Q402.0938,259.9688 401.4844,259.75 Q400.875,259.5313 400.25,259.5313 Q399.4844,259.5313 398.8516,259.8594 Q398.2188,260.1875 397.7266,260.9375 Q397.2344,261.6875 397.2344,262.7188 L397.2344,263.8125 Q397.2344,265.0469 398.125,265.8672 Q399.0156,266.6875 400.6094,266.6875 Q401.5469,266.6875 402.2031,266.4375 Q402.5938,266.2813 403.0156,265.8438 Q403.2813,265.5781 403.4297,265.5 Q403.5781,265.4219 403.7813,265.4219 Q404.1094,265.4219 404.3672,265.6797 Q404.625,265.9375 404.625,266.2813 Q404.625,266.625 404.2813,267.0313 Q403.7813,267.6094 402.9844,267.9375 Q401.9063,268.3906 400.6094,268.3906 Q399.0938,268.3906 397.8906,267.7656 Q396.9063,267.2656 396.2188,266.1953 Q395.5313,265.125 395.5313,263.8438 L395.5313,262.6875 Q395.5313,261.3594 396.1484,260.2109 Q396.7656,259.0625 397.8594,258.4453 Q398.9531,257.8281 400.1875,257.8281 Q400.9219,257.8281 401.5703,257.9922 Q402.2188,258.1563 402.7656,258.5156 Z "/><text fill="#000000" font-family="sans-serif" font-size="12" lengthAdjust="spacingAndGlyphs" textLength="53" x="414" y="267.5508">Eficiencia</text><line style="stroke: #A80036; stroke-width: 1.5;" x1="386" x2="469" y1="278.6406" y2="278.6406"/><line style="stroke: #A80036; stroke-width: 1.5;" x1="386" x2="469" y1="286.6406" y2="286.6406"/><!--class Ambito--><rect fill="#0000FF" filter="url(#f191e76d73n6xx)" height="48" id="Ambito" style="stroke: #A80036; stroke-width: 1.5;" width="70" x="180.5" y="354.6406"/><rect fill="#0000FF" height="32" style="stroke: #A80036; stroke-width: 1.5;" width="70" x="180.5" y="354.6406"/><ellipse cx="195.5" cy="370.6406" fill="#ADD1B2" rx="11" ry="11" style="stroke: #A80036; stroke-width: 1.0;"/><path d="M198.2656,366.5156 Q198.4219,366.2969 198.6094,366.1875 Q198.7969,366.0781 199.0156,366.0781 Q199.3906,366.0781 199.625,366.3359 Q199.8594,366.5938 199.8594,367.2031 L199.8594,368.6563 Q199.8594,369.2656 199.625,369.5313 Q199.3906,369.7969 199.0156,369.7969 Q198.6719,369.7969 198.4688,369.5938 Q198.2656,369.4063 198.1563,368.8906 Q198.1094,368.5313 197.9219,368.3438 Q197.5938,367.9688 196.9844,367.75 Q196.375,367.5313 195.75,367.5313 Q194.9844,367.5313 194.3516,367.8594 Q193.7188,368.1875 193.2266,368.9375 Q192.7344,369.6875 192.7344,370.7188 L192.7344,371.8125 Q192.7344,373.0469 193.625,373.8672 Q194.5156,374.6875 196.1094,374.6875 Q197.0469,374.6875 197.7031,374.4375 Q198.0938,374.2813 198.5156,373.8438 Q198.7813,373.5781 198.9297,373.5 Q199.0781,373.4219 199.2813,373.4219 Q199.6094,373.4219 199.8672,373.6797 Q200.125,373.9375 200.125,374.2813 Q200.125,374.625 199.7813,375.0313 Q199.2813,375.6094 198.4844,375.9375 Q197.4063,376.3906 196.1094,376.3906 Q194.5938,376.3906 193.3906,375.7656 Q192.4063,375.2656 191.7188,374.1953 Q191.0313,373.125 191.0313,371.8438 L191.0313,370.6875 Q191.0313,369.3594 191.6484,368.2109 Q192.2656,367.0625 193.3594,366.4453 Q194.4531,365.8281 195.6875,365.8281 Q196.4219,365.8281 197.0703,365.9922 Q197.7188,366.1563 198.2656,366.5156 Z "/><text fill="#000000" font-family="sans-serif" font-size="12" lengthAdjust="spacingAndGlyphs" textLength="38" x="209.5" y="375.5508">Ambito</text><line style="stroke: #A80036; stroke-width: 1.5;" x1="181.5" x2="249.5" y1="386.6406" y2="386.6406"/><line style="stroke: #A80036; stroke-width: 1.5;" x1="181.5" x2="249.5" y1="394.6406" y2="394.6406"/><!--class Tiempo--><rect fill="#0000FF" filter="url(#f191e76d73n6xx)" height="48" id="Tiempo" style="stroke: #A80036; stroke-width: 1.5;" width="74" x="285.5" y="354.6406"/><rect fill="#0000FF" height="32" style="stroke: #A80036; stroke-width: 1.5;" width="74" x="285.5" y="354.6406"/><ellipse cx="300.5" cy="370.6406" fill="#ADD1B2" rx="11" ry="11" style="stroke: #A80036; stroke-width: 1.0;"/><path d="M303.2656,366.5156 Q303.4219,366.2969 303.6094,366.1875 Q303.7969,366.0781 304.0156,366.0781 Q304.3906,366.0781 304.625,366.3359 Q304.8594,366.5938 304.8594,367.2031 L304.8594,368.6563 Q304.8594,369.2656 304.625,369.5313 Q304.3906,369.7969 304.0156,369.7969 Q303.6719,369.7969 303.4688,369.5938 Q303.2656,369.4063 303.1563,368.8906 Q303.1094,368.5313 302.9219,368.3438 Q302.5938,367.9688 301.9844,367.75 Q301.375,367.5313 300.75,367.5313 Q299.9844,367.5313 299.3516,367.8594 Q298.7188,368.1875 298.2266,368.9375 Q297.7344,369.6875 297.7344,370.7188 L297.7344,371.8125 Q297.7344,373.0469 298.625,373.8672 Q299.5156,374.6875 301.1094,374.6875 Q302.0469,374.6875 302.7031,374.4375 Q303.0938,374.2813 303.5156,373.8438 Q303.7813,373.5781 303.9297,373.5 Q304.0781,373.4219 304.2813,373.4219 Q304.6094,373.4219 304.8672,373.6797 Q305.125,373.9375 305.125,374.2813 Q305.125,374.625 304.7813,375.0313 Q304.2813,375.6094 303.4844,375.9375 Q302.4063,376.3906 301.1094,376.3906 Q299.5938,376.3906 298.3906,375.7656 Q297.4063,375.2656 296.7188,374.1953 Q296.0313,373.125 296.0313,371.8438 L296.0313,370.6875 Q296.0313,369.3594 296.6484,368.2109 Q297.2656,367.0625 298.3594,366.4453 Q299.4531,365.8281 300.6875,365.8281 Q301.4219,365.8281 302.0703,365.9922 Q302.7188,366.1563 303.2656,366.5156 Z "/><text fill="#000000" font-family="sans-serif" font-size="12" lengthAdjust="spacingAndGlyphs" textLength="42" x="314.5" y="375.5508">Tiempo</text><line style="stroke: #A80036; stroke-width: 1.5;" x1="286.5" x2="358.5" y1="386.6406" y2="386.6406"/><line style="stroke: #A80036; stroke-width: 1.5;" x1="286.5" x2="358.5" y1="394.6406" y2="394.6406"/><!--class Coste--><rect fill="#0000FF" filter="url(#f191e76d73n6xx)" height="48" id="Coste" style="stroke: #A80036; stroke-width: 1.5;" width="65" x="395" y="354.6406"/><rect fill="#0000FF" height="32" style="stroke: #A80036; stroke-width: 1.5;" width="65" x="395" y="354.6406"/><ellipse cx="410" cy="370.6406" fill="#ADD1B2" rx="11" ry="11" style="stroke: #A80036; stroke-width: 1.0;"/><path d="M412.7656,366.5156 Q412.9219,366.2969 413.1094,366.1875 Q413.2969,366.0781 413.5156,366.0781 Q413.8906,366.0781 414.125,366.3359 Q414.3594,366.5938 414.3594,367.2031 L414.3594,368.6563 Q414.3594,369.2656 414.125,369.5313 Q413.8906,369.7969 413.5156,369.7969 Q413.1719,369.7969 412.9688,369.5938 Q412.7656,369.4063 412.6563,368.8906 Q412.6094,368.5313 412.4219,368.3438 Q412.0938,367.9688 411.4844,367.75 Q410.875,367.5313 410.25,367.5313 Q409.4844,367.5313 408.8516,367.8594 Q408.2188,368.1875 407.7266,368.9375 Q407.2344,369.6875 407.2344,370.7188 L407.2344,371.8125 Q407.2344,373.0469 408.125,373.8672 Q409.0156,374.6875 410.6094,374.6875 Q411.5469,374.6875 412.2031,374.4375 Q412.5938,374.2813 413.0156,373.8438 Q413.2813,373.5781 413.4297,373.5 Q413.5781,373.4219 413.7813,373.4219 Q414.1094,373.4219 414.3672,373.6797 Q414.625,373.9375 414.625,374.2813 Q414.625,374.625 414.2813,375.0313 Q413.7813,375.6094 412.9844,375.9375 Q411.9063,376.3906 410.6094,376.3906 Q409.0938,376.3906 407.8906,375.7656 Q406.9063,375.2656 406.2188,374.1953 Q405.5313,373.125 405.5313,371.8438 L405.5313,370.6875 Q405.5313,369.3594 406.1484,368.2109 Q406.7656,367.0625 407.8594,366.4453 Q408.9531,365.8281 410.1875,365.8281 Q410.9219,365.8281 411.5703,365.9922 Q412.2188,366.1563 412.7656,366.5156 Z "/><text fill="#000000" font-family="sans-serif" font-size="12" lengthAdjust="spacingAndGlyphs" textLength="33" x="424" y="375.5508">Coste</text><line style="stroke: #A80036; stroke-width: 1.5;" x1="396" x2="459" y1="386.6406" y2="386.6406"/><line style="stroke: #A80036; stroke-width: 1.5;" x1="396" x2="459" y1="394.6406" y2="394.6406"/><!--class TiempoPlanificado--><rect fill="url(#g191e76d73n6xx1)" filter="url(#f191e76d73n6xx)" height="48" id="TiempoPlanificado" style="stroke: #A80036; stroke-width: 1.5;" width="137" x="368" y="462.6406"/><rect fill="url(#g191e76d73n6xx1)" height="32" style="stroke: #A80036; stroke-width: 1.5;" width="137" x="368" y="462.6406"/><ellipse cx="383" cy="478.6406" fill="#ADD1B2" rx="11" ry="11" style="stroke: #A80036; stroke-width: 1.0;"/><path d="M385.7656,474.5156 Q385.9219,474.2969 386.1094,474.1875 Q386.2969,474.0781 386.5156,474.0781 Q386.8906,474.0781 387.125,474.3359 Q387.3594,474.5938 387.3594,475.2031 L387.3594,476.6563 Q387.3594,477.2656 387.125,477.5313 Q386.8906,477.7969 386.5156,477.7969 Q386.1719,477.7969 385.9688,477.5938 Q385.7656,477.4063 385.6563,476.8906 Q385.6094,476.5313 385.4219,476.3438 Q385.0938,475.9688 384.4844,475.75 Q383.875,475.5313 383.25,475.5313 Q382.4844,475.5313 381.8516,475.8594 Q381.2188,476.1875 380.7266,476.9375 Q380.2344,477.6875 380.2344,478.7188 L380.2344,479.8125 Q380.2344,481.0469 381.125,481.8672 Q382.0156,482.6875 383.6094,482.6875 Q384.5469,482.6875 385.2031,482.4375 Q385.5938,482.2813 386.0156,481.8438 Q386.2813,481.5781 386.4297,481.5 Q386.5781,481.4219 386.7813,481.4219 Q387.1094,481.4219 387.3672,481.6797 Q387.625,481.9375 387.625,482.2813 Q387.625,482.625 387.2813,483.0313 Q386.7813,483.6094 385.9844,483.9375 Q384.9063,484.3906 383.6094,484.3906 Q382.0938,484.3906 380.8906,483.7656 Q379.9063,483.2656 379.2188,482.1953 Q378.5313,481.125 378.5313,479.8438 L378.5313,478.6875 Q378.5313,477.3594 379.1484,476.2109 Q379.7656,475.0625 380.8594,474.4453 Q381.9531,473.8281 383.1875,473.8281 Q383.9219,473.8281 384.5703,473.9922 Q385.2188,474.1563 385.7656,474.5156 Z "/><text fill="#000000" font-family="sans-serif" font-size="12" lengthAdjust="spacingAndGlyphs" textLength="105" x="397" y="483.5508">Tiempo planificado</text><line style="stroke: #A80036; stroke-width: 1.5;" x1="369" x2="504" y1="494.6406" y2="494.6406"/><line style="stroke: #A80036; stroke-width: 1.5;" x1="369" x2="504" y1="502.6406" y2="502.6406"/><!--class AmbitoPlanificado--><rect fill="url(#g191e76d73n6xx1)" filter="url(#f191e76d73n6xx)" height="48" id="AmbitoPlanificado" style="stroke: #A80036; stroke-width: 1.5;" width="133" x="200" y="462.6406"/><rect fill="url(#g191e76d73n6xx1)" height="32" style="stroke: #A80036; stroke-width: 1.5;" width="133" x="200" y="462.6406"/><ellipse cx="215" cy="478.6406" fill="#ADD1B2" rx="11" ry="11" style="stroke: #A80036; stroke-width: 1.0;"/><path d="M217.7656,474.5156 Q217.9219,474.2969 218.1094,474.1875 Q218.2969,474.0781 218.5156,474.0781 Q218.8906,474.0781 219.125,474.3359 Q219.3594,474.5938 219.3594,475.2031 L219.3594,476.6563 Q219.3594,477.2656 219.125,477.5313 Q218.8906,477.7969 218.5156,477.7969 Q218.1719,477.7969 217.9688,477.5938 Q217.7656,477.4063 217.6563,476.8906 Q217.6094,476.5313 217.4219,476.3438 Q217.0938,475.9688 216.4844,475.75 Q215.875,475.5313 215.25,475.5313 Q214.4844,475.5313 213.8516,475.8594 Q213.2188,476.1875 212.7266,476.9375 Q212.2344,477.6875 212.2344,478.7188 L212.2344,479.8125 Q212.2344,481.0469 213.125,481.8672 Q214.0156,482.6875 215.6094,482.6875 Q216.5469,482.6875 217.2031,482.4375 Q217.5938,482.2813 218.0156,481.8438 Q218.2813,481.5781 218.4297,481.5 Q218.5781,481.4219 218.7813,481.4219 Q219.1094,481.4219 219.3672,481.6797 Q219.625,481.9375 219.625,482.2813 Q219.625,482.625 219.2813,483.0313 Q218.7813,483.6094 217.9844,483.9375 Q216.9063,484.3906 215.6094,484.3906 Q214.0938,484.3906 212.8906,483.7656 Q211.9063,483.2656 211.2188,482.1953 Q210.5313,481.125 210.5313,479.8438 L210.5313,478.6875 Q210.5313,477.3594 211.1484,476.2109 Q211.7656,475.0625 212.8594,474.4453 Q213.9531,473.8281 215.1875,473.8281 Q215.9219,473.8281 216.5703,473.9922 Q217.2188,474.1563 217.7656,474.5156 Z "/><text fill="#000000" font-family="sans-serif" font-size="12" lengthAdjust="spacingAndGlyphs" textLength="101" x="229" y="483.5508">Ámbito planificado</text><line style="stroke: #A80036; stroke-width: 1.5;" x1="201" x2="332" y1="494.6406" y2="494.6406"/><line style="stroke: #A80036; stroke-width: 1.5;" x1="201" x2="332" y1="502.6406" y2="502.6406"/><!--class CostePlanificado--><rect fill="url(#g191e76d73n6xx1)" filter="url(#f191e76d73n6xx)" height="48" id="CostePlanificado" style="stroke: #A80036; stroke-width: 1.5;" width="135" x="540" y="462.6406"/><rect fill="url(#g191e76d73n6xx1)" height="32" style="stroke: #A80036; stroke-width: 1.5;" width="135" x="540" y="462.6406"/><ellipse cx="555" cy="478.6406" fill="#ADD1B2" rx="11" ry="11" style="stroke: #A80036; stroke-width: 1.0;"/><path d="M557.7656,474.5156 Q557.9219,474.2969 558.1094,474.1875 Q558.2969,474.0781 558.5156,474.0781 Q558.8906,474.0781 559.125,474.3359 Q559.3594,474.5938 559.3594,475.2031 L559.3594,476.6563 Q559.3594,477.2656 559.125,477.5313 Q558.8906,477.7969 558.5156,477.7969 Q558.1719,477.7969 557.9688,477.5938 Q557.7656,477.4063 557.6563,476.8906 Q557.6094,476.5313 557.4219,476.3438 Q557.0938,475.9688 556.4844,475.75 Q555.875,475.5313 555.25,475.5313 Q554.4844,475.5313 553.8516,475.8594 Q553.2188,476.1875 552.7266,476.9375 Q552.2344,477.6875 552.2344,478.7188 L552.2344,479.8125 Q552.2344,481.0469 553.125,481.8672 Q554.0156,482.6875 555.6094,482.6875 Q556.5469,482.6875 557.2031,482.4375 Q557.5938,482.2813 558.0156,481.8438 Q558.2813,481.5781 558.4297,481.5 Q558.5781,481.4219 558.7813,481.4219 Q559.1094,481.4219 559.3672,481.6797 Q559.625,481.9375 559.625,482.2813 Q559.625,482.625 559.2813,483.0313 Q558.7813,483.6094 557.9844,483.9375 Q556.9063,484.3906 555.6094,484.3906 Q554.0938,484.3906 552.8906,483.7656 Q551.9063,483.2656 551.2188,482.1953 Q550.5313,481.125 550.5313,479.8438 L550.5313,478.6875 Q550.5313,477.3594 551.1484,476.2109 Q551.7656,475.0625 552.8594,474.4453 Q553.9531,473.8281 555.1875,473.8281 Q555.9219,473.8281 556.5703,473.9922 Q557.2188,474.1563 557.7656,474.5156 Z "/><text fill="#000000" font-family="sans-serif" font-size="12" lengthAdjust="spacingAndGlyphs" textLength="103" x="569" y="483.5508">Costes planificado</text><line style="stroke: #A80036; stroke-width: 1.5;" x1="541" x2="674" y1="494.6406" y2="494.6406"/><line style="stroke: #A80036; stroke-width: 1.5;" x1="541" x2="674" y1="502.6406" y2="502.6406"/><!--link ProyectoSoftware to ProductoSoftware--><path d="M206.931,85.1236 C180.86,99.7456 149.448,117.3626 123.34,132.0056 " fill="none" id="ProyectoSoftware-ProductoSoftware" style="stroke: #A80036; stroke-width: 1.0;"/><polygon fill="#A80036" points="111.756,138.5026,121.5624,137.5893,116.1171,136.057,117.6494,130.6116,111.756,138.5026" style="stroke: #A80036; stroke-width: 1.0;"/><line style="stroke: #A80036; stroke-width: 1.0;" x1="116.1171" x2="123.0945" y1="136.057" y2="132.1431"/><polygon fill="#A80036" points="218.49,78.6406,211.3002,78.0866,208.0235,84.5102,215.2132,85.0642,218.49,78.6406" style="stroke: #A80036; stroke-width: 1.0;"/><!--link ProyectoSoftware to Variable--><path d="M249.75,91.6136 C239.042,131.1226 221.948,194.1936 211.243,233.6926 " fill="none" id="ProyectoSoftware-Variable" style="stroke: #A80036; stroke-width: 1.0;"/><polygon fill="#A80036" points="207.81,246.3606,214.0255,238.7207,209.1182,241.5348,206.3042,236.6276,207.81,246.3606" style="stroke: #A80036; stroke-width: 1.0;"/><line style="stroke: #A80036; stroke-width: 1.0;" x1="209.1182" x2="211.2105" y1="241.5348" y2="233.8131"/><polygon fill="#A80036" points="253.183,78.9496,247.7525,83.694,250.0432,90.5316,255.4738,85.7872,253.183,78.9496" style="stroke: #A80036; stroke-width: 1.0;"/><!--link ProyectoSoftware to Efectividad--><path d="M276.968,90.5756 C282.724,102.0876 289.126,114.8916 294.892,126.4246 " fill="none" id="ProyectoSoftware-Efectividad" style="stroke: #A80036; stroke-width: 1.0;"/><polygon fill="#A80036" points="300.839,138.3186,300.3913,128.4799,298.6027,133.8466,293.2361,132.058,300.839,138.3186" style="stroke: #A80036; stroke-width: 1.0;"/><line style="stroke: #A80036; stroke-width: 1.0;" x1="298.6027" x2="295.0255" y1="133.8466" y2="126.6916"/><polygon fill="#A80036" points="271,78.6406,270.1056,85.796,276.3666,89.3738,277.261,82.2183,271,78.6406" style="stroke: #A80036; stroke-width: 1.0;"/><!--link ProyectoSoftware to ProyectoPlanificado--><path d="M313.07,89.9346 C363.524,124.4596 438.484,181.7826 487.5,246.6406 C513.775,281.4076 535.865,327.3616 547.845,354.5816 " fill="none" id="ProyectoSoftware-ProyectoPlanificado" style="stroke: #A80036; stroke-width: 1.0;"/><polygon fill="none" points="309.033,95.6556,296.328,78.6986,316.835,84.0316,309.033,95.6556" style="stroke: #A80036; stroke-width: 1.0;"/><!--link ProductoSoftware to Calidad--><path d="M76.9074,199.8366 C87.8695,261.7626 110.099,387.3426 121.074,449.3396 " fill="none" id="ProductoSoftware-Calidad" style="stroke: #A80036; stroke-width: 1.0;"/><polygon fill="#A80036" points="123.361,462.2606,125.7313,452.7012,122.4896,457.3371,117.8537,454.0955,123.361,462.2606" style="stroke: #A80036; stroke-width: 1.0;"/><line style="stroke: #A80036; stroke-width: 1.0;" x1="122.4896" x2="121.0955" y1="457.3371" y2="449.4596"/><polygon fill="#A80036" points="74.5993,186.7976,71.707,193.4033,76.692,198.6137,79.5844,192.0081,74.5993,186.7976" style="stroke: #A80036; stroke-width: 1.0;"/><!--link Calidad to Mantenibilidad--><path d="M127.5,523.9789 C127.5,534.647 127.5,546.3178 127.5,557.0044 " fill="none" id="Calidad-Mantenibilidad" style="stroke: #A80036; stroke-width: 1.0;"/><polygon fill="#A80036" points="127.5,570.319,131.5,561.319,127.5,565.319,123.5,561.319,127.5,570.319" style="stroke: #A80036; stroke-width: 1.0;"/><line style="stroke: #A80036; stroke-width: 1.0;" x1="127.5" x2="127.5" y1="565.319" y2="557.3191"/><polygon fill="#A80036" points="127.5,510.6406,123.5,516.6406,127.5,522.6406,131.5,516.6406,127.5,510.6406" style="stroke: #A80036; stroke-width: 1.0;"/><!--link Efectividad to Eficacia--><path d="M312.5,199.9786 C312.5,210.6466 312.5,222.3176 312.5,233.0046 " fill="none" id="Efectividad-Eficacia" style="stroke: #A80036; stroke-width: 1.0;"/><polygon fill="#A80036" points="312.5,246.3186,316.5,237.3186,312.5,241.3186,308.5,237.3186,312.5,246.3186" style="stroke: #A80036; stroke-width: 1.0;"/><line style="stroke: #A80036; stroke-width: 1.0;" x1="312.5" x2="312.5" y1="241.3186" y2="233.3186"/><polygon fill="#A80036" points="312.5,186.6406,308.5,192.6406,312.5,198.6406,316.5,192.6406,312.5,186.6406" style="stroke: #A80036; stroke-width: 1.0;"/><!--link Efectividad to Eficiencia--><path d="M347.399,195.8086 C361.614,208.9106 378.019,224.0316 392.267,237.1646 " fill="none" id="Efectividad-Eficiencia" style="stroke: #A80036; stroke-width: 1.0;"/><polygon fill="#A80036" points="402.198,246.3186,398.2911,237.2778,398.5214,242.93,392.8693,243.1603,402.198,246.3186" style="stroke: #A80036; stroke-width: 1.0;"/><line style="stroke: #A80036; stroke-width: 1.0;" x1="398.5214" x2="392.6395" y1="242.93" y2="237.5081"/><polygon fill="#A80036" points="337.453,186.6406,339.1534,193.6484,346.2761,194.7741,344.5757,187.7663,337.453,186.6406" style="stroke: #A80036; stroke-width: 1.0;"/><!--link Eficacia to Ambito--><path d="M291.452,294.6406 C276.43,311.0576 256.168,333.1996 240.35,350.4846 " fill="none" id="Eficacia-Ambito" style="stroke: #A80036; stroke-width: 1.0;"/><polygon fill="#A80036" points="236.841,354.3186,245.868,350.3798,240.2166,350.6301,239.9664,344.9788,236.841,354.3186" style="stroke: #A80036; stroke-width: 1.0;"/><!--link Eficiencia to Tiempo--><path d="M404.717,294.6406 C388.455,311.0576 366.522,333.1996 349.399,350.4846 " fill="none" id="Eficiencia-Tiempo" style="stroke: #A80036; stroke-width: 1.0;"/><polygon fill="#A80036" points="345.602,354.3186,354.7771,350.7386,349.1204,350.766,349.0929,345.1092,345.602,354.3186" style="stroke: #A80036; stroke-width: 1.0;"/><!--link Eficiencia to Coste--><path d="M427.5,294.6406 C427.5,310.6436 427.5,332.0866 427.5,349.1686 " fill="none" id="Eficiencia-Coste" style="stroke: #A80036; stroke-width: 1.0;"/><polygon fill="#A80036" points="427.5,354.3186,431.5,345.3186,427.5,349.3186,423.5,345.3186,427.5,354.3186" style="stroke: #A80036; stroke-width: 1.0;"/><!--link Variable to Tiempo--><path d="M242.981,307.9786 C260.495,323.3216 280.376,340.7386 295.878,354.3186 " fill="none" id="Variable-Tiempo" style="stroke: #A80036; stroke-width: 1.0;"/><polygon fill="none" points="238.186,313.0856,227.755,294.6406,247.412,302.5546,238.186,313.0856" style="stroke: #A80036; stroke-width: 1.0;"/><!--link Variable to Ambito--><path d="M207.182,314.6646 C208.973,328.2196 210.882,342.6786 212.42,354.3186 " fill="none" id="Variable-Ambito" style="stroke: #A80036; stroke-width: 1.0;"/><polygon fill="none" points="200.217,315.3856,204.538,294.6406,214.096,313.5526,200.217,315.3856" style="stroke: #A80036; stroke-width: 1.0;"/><!--link Variable to Coste--><path d="M258.461,298.3566 C301.599,318.5896 359.325,345.6646 394.931,362.3646 " fill="none" id="Variable-Coste" style="stroke: #A80036; stroke-width: 1.0;"/><polygon fill="none" points="255.229,304.5726,240.094,289.7426,261.174,291.8976,255.229,304.5726" style="stroke: #A80036; stroke-width: 1.0;"/><!--link Variable to Calidad--><path d="M180.239,313.1176 C174.018,326.1966 167.542,340.8366 162.5,354.6406 C149.013,391.5676 138.228,436.0636 132.359,462.5396 " fill="none" id="Variable-Calidad" style="stroke: #A80036; stroke-width: 1.0;"/><polygon fill="none" points="174.153,309.6316,189.265,294.7776,186.714,315.8136,174.153,309.6316" style="stroke: #A80036; stroke-width: 1.0;"/><!--link Tiempo to Calidad--><path d="M285.363,399.8276 C252.368,417.7636 204.166,443.9656 169.717,462.6916 " fill="none" id="Tiempo-Calidad" style="stroke: #A80036; stroke-width: 1.0;"/><polygon fill="#A80036" points="165.163,465.1676,174.9805,464.3825,169.5556,462.7792,171.159,457.3543,165.163,465.1676" style="stroke: #A80036; stroke-width: 1.0;"/><!--link Ambito to Calidad--><path d="M196.405,402.6406 C182.891,418.9196 164.703,440.8276 150.407,458.0486 " fill="none" id="Ambito-Calidad" style="stroke: #A80036; stroke-width: 1.0;"/><polygon fill="#A80036" points="146.861,462.3186,155.6868,457.9476,150.0542,458.4711,149.5307,452.8385,146.861,462.3186" style="stroke: #A80036; stroke-width: 1.0;"/><!--link Coste to Calidad--><path d="M394.829,395.0926 C388.789,397.7436 382.495,400.3716 376.5,402.6406 C292.091,434.5866 267.341,431.8616 182.5,462.6406 C178.444,464.1116 174.251,465.7146 170.072,467.3656 " fill="none" id="Coste-Calidad" style="stroke: #A80036; stroke-width: 1.0;"/><polygon fill="#A80036" points="165.183,469.3216,175.0249,469.692,169.8252,467.4642,172.053,462.2645,165.183,469.3216" style="stroke: #A80036; stroke-width: 1.0;"/><!--link Tiempo to TiempoPlanificado--><path d="M362.087,416.4496 C378.464,431.6766 396.962,448.8776 411.418,462.3186 " fill="none" id="Tiempo-TiempoPlanificado" style="stroke: #A80036; stroke-width: 1.0;"/><polygon fill="none" points="357.116,421.3866,347.236,402.6406,366.65,411.1336,357.116,421.3866" style="stroke: #A80036; stroke-width: 1.0;"/><!--link Ambito to AmbitoPlanificado--><path d="M235.271,420.7346 C242.056,434.8366 249.412,450.1246 255.279,462.3186 " fill="none" id="Ambito-AmbitoPlanificado" style="stroke: #A80036; stroke-width: 1.0;"/><polygon fill="none" points="228.93,423.6986,226.566,402.6406,241.545,417.6286,228.93,423.6986" style="stroke: #A80036; stroke-width: 1.0;"/><!--link Coste to CostePlanificado--><path d="M477.362,409.0036 C506.043,425.8936 541.563,446.8116 568.245,462.5236 " fill="none" id="Coste-CostePlanificado" style="stroke: #A80036; stroke-width: 1.0;"/><polygon fill="none" points="473.778,415.0166,460.097,398.8366,480.883,402.9536,473.778,415.0166" style="stroke: #A80036; stroke-width: 1.0;"/><!--link ProyectoPlanificado to TiempoPlanificado--><path d="M531.245,402.6406 C512.348,419.1956 486.805,441.5716 467.002,458.9196 " fill="none" id="ProyectoPlanificado-TiempoPlanificado" style="stroke: #A80036; stroke-width: 1.0;"/><polygon fill="#A80036" points="463.122,462.3186,472.5279,459.3981,466.8834,459.0244,467.2571,453.3799,463.122,462.3186" style="stroke: #A80036; stroke-width: 1.0;"/><!--link ProyectoPlanificado to AmbitoPlanificado--><path d="M495.43,402.2506 C448.227,419.4446 383.329,443.0846 334.683,460.8046 " fill="none" id="ProyectoPlanificado-AmbitoPlanificado" style="stroke: #A80036; stroke-width: 1.0;"/><polygon fill="#A80036" points="329.73,462.6086,339.5555,463.2868,334.428,460.8974,336.8175,455.77,329.73,462.6086" style="stroke: #A80036; stroke-width: 1.0;"/><!--link ProyectoPlanificado to CostePlanificado--><path d="M568.349,402.6406 C575.963,418.7816 586.187,440.4566 594.278,457.6096 " fill="none" id="ProyectoPlanificado-CostePlanificado" style="stroke: #A80036; stroke-width: 1.0;"/><polygon fill="#A80036" points="596.499,462.3186,596.2782,452.4722,594.3664,457.7962,589.0424,455.8845,596.499,462.3186" style="stroke: #A80036; stroke-width: 1.0;"/><!--
@startuml

title Proyecto Software efectivo por buena disciplina/metodología

class "Proyecto Software" as ProyectoSoftware #GreenYellow
ProyectoSoftware *-down-> ProductoSoftware
ProyectoSoftware *-down-> Variable
ProyectoSoftware *-down-> Efectividad

class "Proyecto Efectivo" as ProyectoPlanificado #GreenYellow|green
ProyectoSoftware <|-down- ProyectoPlanificado

class "Producto Software" as ProductoSoftware #GreenYellow
ProductoSoftware *-down-> Calidad

class Calidad #CornflowerBlue
Calidad *-down-> Mantenibilidad

class Mantenibilidad #CornflowerBlue

class Efectividad #orange
class Eficacia #orange
class Eficiencia #orange
Efectividad *-down-> Eficacia
Efectividad *-down-> Eficiencia

Eficacia -down-> Ambito
Eficiencia -down-> Tiempo
Eficiencia -down-> Coste

class Variable #blue
class Tiempo #blue
class "Ámbito" as Ambito #blue
class Coste #blue

Variable <|-down- Tiempo
Variable <|-down- Ambito
Variable <|-down- Coste
Variable <|-down- Calidad

Tiempo -down-> Calidad
Ambito -down-> Calidad
Coste -down-> Calidad

class "Tiempo planificado" as TiempoPlanificado #blue|green
class "Ámbito planificado" as AmbitoPlanificado #blue|green
class "Costes planificado" as CostePlanificado #blue|green

Tiempo <|-down- TiempoPlanificado
Ambito <|-down- AmbitoPlanificado
Coste <|-down- CostePlanificado

ProyectoPlanificado  -down-> TiempoPlanificado
ProyectoPlanificado  -down-> AmbitoPlanificado
ProyectoPlanificado  -down-> CostePlanificado
@enduml

PlantUML version 1.2019.05(Sat Apr 20 18:45:36 CEST 2019)
(GPL source distribution)
Java Runtime: OpenJDK Runtime Environment
JVM: OpenJDK 64-Bit Server VM
Java Version: 1.8.0_222-b10
Operating System: Windows 10
OS Version: 10.0
Default Encoding: windows-1252
Language: es
Country: ES
--></g></svg>