<?xml version="1.0" encoding="UTF-8" standalone="no"?><svg xmlns="http://www.w3.org/2000/svg" xmlns:xlink="http://www.w3.org/1999/xlink" contentScriptType="application/ecmascript" contentStyleType="text/css" height="810px" preserveAspectRatio="none" style="width:267px;height:810px;" version="1.1" viewBox="0 0 267 810" width="267px" zoomAndPan="magnify"><defs><filter height="300%" id="f1polnnrl9t0fs" width="300%" x="-1" y="-1"><feGaussianBlur result="blurOut" stdDeviation="2.0"/><feColorMatrix in="blurOut" result="blurOut2" type="matrix" values="0 0 0 0 0 0 0 0 0 0 0 0 0 0 0 0 0 0 .4 0"/><feOffset dx="4.0" dy="4.0" in="blurOut2" result="blurOut3"/><feBlend in="SourceGraphic" in2="blurOut3" mode="normal"/></filter></defs><g><!--class Base--><rect fill="#FEFECE" filter="url(#f1polnnrl9t0fs)" height="172.5234" id="Base" style="stroke: #A80036; stroke-width: 1.5;" width="72" x="10.5" y="26.5"/><ellipse cx="30.9" cy="42.5" fill="#A9DCDF" rx="11" ry="11" style="stroke: #A80036; stroke-width: 1.0;"/><path d="M33.0875,44.2656 L28.9469,44.2656 L28.525,45.2969 L28.9469,45.2969 Q29.5563,45.2969 29.8219,45.5313 Q30.0875,45.7656 30.0875,46.1563 Q30.0875,46.5313 29.8219,46.7656 Q29.5563,47 28.9469,47 L26.65,47 Q26.0406,47 25.7828,46.7656 Q25.525,46.5313 25.525,46.1406 Q25.525,45.7656 25.7984,45.5234 Q26.0719,45.2813 26.6969,45.2969 L29.3688,38.6406 L28.2594,38.6406 Q27.65,38.6406 27.3844,38.4063 Q27.1188,38.1719 27.1188,37.7813 Q27.1188,37.4063 27.3844,37.1719 Q27.65,36.9375 28.2594,36.9375 L31.9313,36.9375 L35.3219,45.2969 Q35.9156,45.2969 36.1031,45.4375 Q36.4938,45.7031 36.4938,46.1563 Q36.4938,46.5313 36.2359,46.7656 Q35.9781,47 35.3688,47 L33.0719,47 Q32.4625,47 32.1969,46.7656 Q31.9313,46.5313 31.9313,46.1406 Q31.9313,45.7656 32.1969,45.5313 Q32.4625,45.2969 33.0719,45.2969 L33.4938,45.2969 L33.0875,44.2656 Z M32.3688,42.5625 L31.0094,39.1875 L29.6344,42.5625 L32.3688,42.5625 Z "/><text fill="#000000" font-family="sans-serif" font-size="12" font-style="italic" lengthAdjust="spacingAndGlyphs" textLength="28" x="46.1" y="47.4102">Base</text><line style="stroke: #A80036; stroke-width: 1.5;" x1="11.5" x2="81.5" y1="58.5" y2="58.5"/><rect fill="none" height="6" style="stroke: #C82930; stroke-width: 1.0;" width="6" x="18.5" y="67.918"/><text fill="#000000" font-family="sans-serif" font-size="11" lengthAdjust="spacingAndGlyphs" textLength="17" x="30.5" y="73.9189">A a</text><rect fill="none" height="6" style="stroke: #C82930; stroke-width: 1.0;" width="6" x="18.5" y="81.7539"/><text fill="#000000" font-family="sans-serif" font-size="11" lengthAdjust="spacingAndGlyphs" textLength="16" x="30.5" y="87.7549">B b</text><line style="stroke: #A80036; stroke-width: 1.5;" x1="11.5" x2="81.5" y1="94.1719" y2="94.1719"/><rect fill="#F24D5C" height="6" style="stroke: #C82930; stroke-width: 1.0;" width="6" x="18.5" y="103.5898"/><text fill="#000000" font-family="sans-serif" font-size="11" lengthAdjust="spacingAndGlyphs" textLength="45" x="30.5" y="109.5908">void m1()</text><ellipse cx="21.5" cy="120.4258" fill="#84BE84" rx="3" ry="3" style="stroke: #038048; stroke-width: 1.0;"/><text fill="#000000" font-family="sans-serif" font-size="11" lengthAdjust="spacingAndGlyphs" textLength="45" x="30.5" y="123.4268">void m2()</text><ellipse cx="21.5" cy="134.2617" fill="#84BE84" rx="3" ry="3" style="stroke: #038048; stroke-width: 1.0;"/><text fill="#000000" font-family="sans-serif" font-size="11" lengthAdjust="spacingAndGlyphs" textLength="45" x="30.5" y="137.2627">void m3()</text><ellipse cx="21.5" cy="148.0977" fill="#84BE84" rx="3" ry="3" style="stroke: #038048; stroke-width: 1.0;"/><text fill="#000000" font-family="sans-serif" font-size="11" lengthAdjust="spacingAndGlyphs" textLength="45" x="30.5" y="151.0986">void m4()</text><ellipse cx="21.5" cy="161.9336" fill="#84BE84" rx="3" ry="3" style="stroke: #038048; stroke-width: 1.0;"/><text fill="#000000" font-family="sans-serif" font-size="11" font-style="italic" lengthAdjust="spacingAndGlyphs" textLength="46" x="30.5" y="164.9346">void m5()</text><ellipse cx="21.5" cy="175.7695" fill="#84BE84" rx="3" ry="3" style="stroke: #038048; stroke-width: 1.0;"/><text fill="#000000" font-family="sans-serif" font-size="11" lengthAdjust="spacingAndGlyphs" textLength="45" x="30.5" y="178.7705">void m6()</text><ellipse cx="21.5" cy="189.6055" fill="#84BE84" rx="3" ry="3" style="stroke: #038048; stroke-width: 1.0;"/><text fill="#000000" font-family="sans-serif" font-size="11" font-style="italic" lengthAdjust="spacingAndGlyphs" textLength="46" x="30.5" y="192.6064">void m7()</text><path d="M118,8 L118,109 L82.6172,113 L118,117 L118,218.2188 A0,0 0 0 0 118,218.2188 L251,218.2188 A0,0 0 0 0 251,218.2188 L251,18 L241,8 L118,8 A0,0 0 0 0 118,8 " fill="#FBFB77" filter="url(#f1polnnrl9t0fs)" style="stroke: #A80036; stroke-width: 1.0;"/><path d="M241,8 L241,18 L251,18 L241,8 " fill="#FBFB77" style="stroke: #A80036; stroke-width: 1.0;"/><text fill="#000000" font-family="sans-serif" font-size="13" lengthAdjust="spacingAndGlyphs" textLength="75" x="124" y="26.4951">void m[1-4](){</text><text fill="#000000" font-family="sans-serif" font-size="13" lengthAdjust="spacingAndGlyphs" textLength="98" x="132" y="42.8467">// gestionar a y b</text><text fill="#000000" font-family="sans-serif" font-size="13" lengthAdjust="spacingAndGlyphs" textLength="74" x="132" y="59.1982">this.m[1-4]();</text><text fill="#000000" font-family="sans-serif" font-size="13" lengthAdjust="spacingAndGlyphs" textLength="98" x="132" y="75.5498">// gestionar a y b</text><text fill="#000000" font-family="sans-serif" font-size="13" lengthAdjust="spacingAndGlyphs" textLength="4" x="124" y="91.9014">}</text><text fill="#000000" font-family="sans-serif" font-size="13" lengthAdjust="spacingAndGlyphs" textLength="0" x="128" y="108.2529"/><text fill="#000000" font-family="sans-serif" font-size="13" lengthAdjust="spacingAndGlyphs" textLength="56" x="124" y="140.9561">void m6(){</text><text fill="#000000" font-family="sans-serif" font-size="13" lengthAdjust="spacingAndGlyphs" textLength="98" x="132" y="157.3076">// gestionar a y b</text><text fill="#000000" font-family="sans-serif" font-size="13" lengthAdjust="spacingAndGlyphs" textLength="55" x="132" y="173.6592">this.m7();</text><text fill="#000000" font-family="sans-serif" font-size="13" lengthAdjust="spacingAndGlyphs" textLength="98" x="132" y="190.0107">// gestionar a y b</text><text fill="#000000" font-family="sans-serif" font-size="13" lengthAdjust="spacingAndGlyphs" textLength="4" x="124" y="206.3623">}</text><line style="stroke: #A80036; stroke-width: 1.0; stroke-dasharray: 1.0,2.0;" x1="119" x2="139" y1="119.2852" y2="119.2852"/><text fill="#000000" font-family="sans-serif" font-size="13" lengthAdjust="spacingAndGlyphs" textLength="91" x="139" y="124.1045">método plantilla</text><line style="stroke: #A80036; stroke-width: 1.0; stroke-dasharray: 1.0,2.0;" x1="230" x2="250" y1="119.2852" y2="119.2852"/><!--class Derivada--><rect fill="#FEFECE" filter="url(#f1polnnrl9t0fs)" height="228.9492" id="Derivada" style="stroke: #A80036; stroke-width: 1.5;" width="81" x="6" y="424"/><ellipse cx="21" cy="440" fill="#ADD1B2" rx="11" ry="11" style="stroke: #A80036; stroke-width: 1.0;"/><path d="M23.7656,435.875 Q23.9219,435.6563 24.1094,435.5469 Q24.2969,435.4375 24.5156,435.4375 Q24.8906,435.4375 25.125,435.6953 Q25.3594,435.9531 25.3594,436.5625 L25.3594,438.0156 Q25.3594,438.625 25.125,438.8906 Q24.8906,439.1563 24.5156,439.1563 Q24.1719,439.1563 23.9688,438.9531 Q23.7656,438.7656 23.6563,438.25 Q23.6094,437.8906 23.4219,437.7031 Q23.0938,437.3281 22.4844,437.1094 Q21.875,436.8906 21.25,436.8906 Q20.4844,436.8906 19.8516,437.2188 Q19.2188,437.5469 18.7266,438.2969 Q18.2344,439.0469 18.2344,440.0781 L18.2344,441.1719 Q18.2344,442.4063 19.125,443.2266 Q20.0156,444.0469 21.6094,444.0469 Q22.5469,444.0469 23.2031,443.7969 Q23.5938,443.6406 24.0156,443.2031 Q24.2813,442.9375 24.4297,442.8594 Q24.5781,442.7813 24.7813,442.7813 Q25.1094,442.7813 25.3672,443.0391 Q25.625,443.2969 25.625,443.6406 Q25.625,443.9844 25.2813,444.3906 Q24.7813,444.9688 23.9844,445.2969 Q22.9063,445.75 21.6094,445.75 Q20.0938,445.75 18.8906,445.125 Q17.9063,444.625 17.2188,443.5547 Q16.5313,442.4844 16.5313,441.2031 L16.5313,440.0469 Q16.5313,438.7188 17.1484,437.5703 Q17.7656,436.4219 18.8594,435.8047 Q19.9531,435.1875 21.1875,435.1875 Q21.9219,435.1875 22.5703,435.3516 Q23.2188,435.5156 23.7656,435.875 Z "/><text fill="#000000" font-family="sans-serif" font-size="12" lengthAdjust="spacingAndGlyphs" textLength="49" x="35" y="444.9102">Derivada</text><line style="stroke: #A80036; stroke-width: 1.5;" x1="7" x2="86" y1="456" y2="456"/><rect fill="none" height="6" style="stroke: #C82930; stroke-width: 1.0;" width="6" x="14" y="465.418"/><text fill="#000000" font-family="sans-serif" font-size="11" lengthAdjust="spacingAndGlyphs" textLength="16" x="26" y="471.4189">C c</text><rect fill="none" height="6" style="stroke: #C82930; stroke-width: 1.0;" width="6" x="14" y="479.2539"/><text fill="#000000" font-family="sans-serif" font-size="11" lengthAdjust="spacingAndGlyphs" textLength="16" x="26" y="485.2549">D d</text><line style="stroke: #A80036; stroke-width: 1.0;" x1="7" x2="19.5" y1="498.5898" y2="498.5898"/><line style="stroke: #A80036; stroke-width: 1.0;" x1="7" x2="19.5" y1="500.5898" y2="500.5898"/><text fill="#000000" font-family="sans-serif" font-size="11" lengthAdjust="spacingAndGlyphs" textLength="54" x="19.5" y="502.5908">redefinidos</text><line style="stroke: #A80036; stroke-width: 1.0;" x1="73.5" x2="86" y1="498.5898" y2="498.5898"/><line style="stroke: #A80036; stroke-width: 1.0;" x1="73.5" x2="86" y1="500.5898" y2="500.5898"/><ellipse cx="17" cy="534.6797" fill="#84BE84" rx="3" ry="3" style="stroke: #038048; stroke-width: 1.0;"/><text fill="#000000" font-family="sans-serif" font-size="11" lengthAdjust="spacingAndGlyphs" textLength="45" x="26" y="537.6807">void m3()</text><line style="stroke: #A80036; stroke-width: 1.0; stroke-dasharray: 1.0,2.0;" x1="7" x2="23.5" y1="519.3438" y2="519.3438"/><text fill="#000000" font-family="sans-serif" font-size="11" lengthAdjust="spacingAndGlyphs" textLength="46" x="23.5" y="523.3447">anulación</text><line style="stroke: #A80036; stroke-width: 1.0; stroke-dasharray: 1.0,2.0;" x1="69.5" x2="86" y1="519.3438" y2="519.3438"/><ellipse cx="17" cy="566.3516" fill="#84BE84" rx="3" ry="3" style="stroke: #038048; stroke-width: 1.0;"/><text fill="#000000" font-family="sans-serif" font-size="11" lengthAdjust="spacingAndGlyphs" textLength="45" x="26" y="569.3525">void m4()</text><line style="stroke: #A80036; stroke-width: 1.0; stroke-dasharray: 1.0,2.0;" x1="7" x2="17" y1="551.0156" y2="551.0156"/><text fill="#000000" font-family="sans-serif" font-size="11" lengthAdjust="spacingAndGlyphs" textLength="59" x="17" y="555.0166">refinamiento</text><line style="stroke: #A80036; stroke-width: 1.0; stroke-dasharray: 1.0,2.0;" x1="76" x2="86" y1="551.0156" y2="551.0156"/><ellipse cx="17" cy="598.0234" fill="#84BE84" rx="3" ry="3" style="stroke: #038048; stroke-width: 1.0;"/><text fill="#000000" font-family="sans-serif" font-size="11" lengthAdjust="spacingAndGlyphs" textLength="45" x="26" y="601.0244">void m5()</text><ellipse cx="17" cy="611.8594" fill="#84BE84" rx="3" ry="3" style="stroke: #038048; stroke-width: 1.0;"/><text fill="#000000" font-family="sans-serif" font-size="11" lengthAdjust="spacingAndGlyphs" textLength="45" x="26" y="614.8604">void m7()</text><line style="stroke: #A80036; stroke-width: 1.0; stroke-dasharray: 1.0,2.0;" x1="7" x2="20.5" y1="582.6875" y2="582.6875"/><text fill="#000000" font-family="sans-serif" font-size="11" lengthAdjust="spacingAndGlyphs" textLength="52" x="20.5" y="586.6885">abstractos</text><line style="stroke: #A80036; stroke-width: 1.0; stroke-dasharray: 1.0,2.0;" x1="72.5" x2="86" y1="582.6875" y2="582.6875"/><ellipse cx="17" cy="643.5313" fill="#84BE84" rx="3" ry="3" style="stroke: #038048; stroke-width: 1.0;"/><text fill="#000000" font-family="sans-serif" font-size="11" lengthAdjust="spacingAndGlyphs" textLength="45" x="26" y="646.5322">void m8()</text><line style="stroke: #A80036; stroke-width: 1.0;" x1="7" x2="24.5" y1="628.1953" y2="628.1953"/><line style="stroke: #A80036; stroke-width: 1.0;" x1="7" x2="24.5" y1="630.1953" y2="630.1953"/><text fill="#000000" font-family="sans-serif" font-size="11" lengthAdjust="spacingAndGlyphs" textLength="44" x="24.5" y="632.1963">añadidos</text><line style="stroke: #A80036; stroke-width: 1.0;" x1="68.5" x2="86" y1="628.1953" y2="628.1953"/><line style="stroke: #A80036; stroke-width: 1.0;" x1="68.5" x2="86" y1="630.1953" y2="630.1953"/><path d="M122,278 L122,534.5 L87.2695,538.5 L122,542.5 L122,798.5469 A0,0 0 0 0 122,798.5469 L255,798.5469 A0,0 0 0 0 255,798.5469 L255,288 L245,278 L122,278 A0,0 0 0 0 122,278 " fill="#FBFB77" filter="url(#f1polnnrl9t0fs)" style="stroke: #A80036; stroke-width: 1.0;"/><path d="M245,278 L245,288 L255,288 L245,278 " fill="#FBFB77" style="stroke: #A80036; stroke-width: 1.0;"/><text fill="#000000" font-family="sans-serif" font-size="13" lengthAdjust="spacingAndGlyphs" textLength="0" x="132" y="312.8467"/><line style="stroke: #A80036; stroke-width: 1.0;" x1="123" x2="157.5" y1="291.1758" y2="291.1758"/><line style="stroke: #A80036; stroke-width: 1.0;" x1="123" x2="157.5" y1="293.1758" y2="293.1758"/><text fill="#000000" font-family="sans-serif" font-size="13" lengthAdjust="spacingAndGlyphs" textLength="62" x="157.5" y="295.9951">redefinidos</text><line style="stroke: #A80036; stroke-width: 1.0;" x1="219.5" x2="254" y1="291.1758" y2="291.1758"/><line style="stroke: #A80036; stroke-width: 1.0;" x1="219.5" x2="254" y1="293.1758" y2="293.1758"/><text fill="#000000" font-family="sans-serif" font-size="13" lengthAdjust="spacingAndGlyphs" textLength="56" x="128" y="349.5498">void m3(){</text><text fill="#000000" font-family="sans-serif" font-size="13" lengthAdjust="spacingAndGlyphs" textLength="98" x="136" y="365.9014">// gestionar c y d</text><text fill="#000000" font-family="sans-serif" font-size="13" lengthAdjust="spacingAndGlyphs" textLength="74" x="136" y="382.2529">this.m[1-8]();</text><text fill="#000000" font-family="sans-serif" font-size="13" lengthAdjust="spacingAndGlyphs" textLength="98" x="136" y="398.6045">// gestionar c y d</text><text fill="#000000" font-family="sans-serif" font-size="13" lengthAdjust="spacingAndGlyphs" textLength="4" x="128" y="414.9561">}</text><text fill="#000000" font-family="sans-serif" font-size="13" lengthAdjust="spacingAndGlyphs" textLength="0" x="132" y="431.3076"/><line style="stroke: #A80036; stroke-width: 1.0; stroke-dasharray: 1.0,2.0;" x1="123" x2="161" y1="327.8789" y2="327.8789"/><text fill="#000000" font-family="sans-serif" font-size="13" lengthAdjust="spacingAndGlyphs" textLength="55" x="161" y="332.6982">anulación</text><line style="stroke: #A80036; stroke-width: 1.0; stroke-dasharray: 1.0,2.0;" x1="216" x2="254" y1="327.8789" y2="327.8789"/><text fill="#000000" font-family="sans-serif" font-size="13" lengthAdjust="spacingAndGlyphs" textLength="56" x="128" y="468.0107">void m4(){</text><text fill="#000000" font-family="sans-serif" font-size="13" lengthAdjust="spacingAndGlyphs" textLength="98" x="136" y="484.3623">// gestionar c y d</text><text fill="#000000" font-family="sans-serif" font-size="13" lengthAdjust="spacingAndGlyphs" textLength="66" x="136" y="500.7139">super.m4();</text><text fill="#000000" font-family="sans-serif" font-size="13" lengthAdjust="spacingAndGlyphs" textLength="98" x="136" y="517.0654">// gestionar c y d</text><text fill="#000000" font-family="sans-serif" font-size="13" lengthAdjust="spacingAndGlyphs" textLength="4" x="128" y="533.417">}</text><text fill="#000000" font-family="sans-serif" font-size="13" lengthAdjust="spacingAndGlyphs" textLength="0" x="132" y="549.7686"/><line style="stroke: #A80036; stroke-width: 1.0; stroke-dasharray: 1.0,2.0;" x1="123" x2="153.5" y1="446.3398" y2="446.3398"/><text fill="#000000" font-family="sans-serif" font-size="13" lengthAdjust="spacingAndGlyphs" textLength="70" x="153.5" y="451.1592">refinamiento</text><line style="stroke: #A80036; stroke-width: 1.0; stroke-dasharray: 1.0,2.0;" x1="223.5" x2="254" y1="446.3398" y2="446.3398"/><text fill="#000000" font-family="sans-serif" font-size="13" lengthAdjust="spacingAndGlyphs" textLength="75" x="128" y="586.4717">void m[5,7](){</text><text fill="#000000" font-family="sans-serif" font-size="13" lengthAdjust="spacingAndGlyphs" textLength="98" x="136" y="602.8232">// gestionar c y d</text><text fill="#000000" font-family="sans-serif" font-size="13" lengthAdjust="spacingAndGlyphs" textLength="74" x="136" y="619.1748">this.m[1-8]();</text><text fill="#000000" font-family="sans-serif" font-size="13" lengthAdjust="spacingAndGlyphs" textLength="98" x="136" y="635.5264">// gestionar c y d</text><text fill="#000000" font-family="sans-serif" font-size="13" lengthAdjust="spacingAndGlyphs" textLength="4" x="128" y="651.8779">}</text><text fill="#000000" font-family="sans-serif" font-size="13" lengthAdjust="spacingAndGlyphs" textLength="0" x="132" y="668.2295"/><line style="stroke: #A80036; stroke-width: 1.0; stroke-dasharray: 1.0,2.0;" x1="123" x2="158" y1="564.8008" y2="564.8008"/><text fill="#000000" font-family="sans-serif" font-size="13" lengthAdjust="spacingAndGlyphs" textLength="61" x="158" y="569.6201">abstractos</text><line style="stroke: #A80036; stroke-width: 1.0; stroke-dasharray: 1.0,2.0;" x1="219" x2="254" y1="564.8008" y2="564.8008"/><text fill="#000000" font-family="sans-serif" font-size="13" lengthAdjust="spacingAndGlyphs" textLength="56" x="128" y="704.9326">void m8(){</text><text fill="#000000" font-family="sans-serif" font-size="13" lengthAdjust="spacingAndGlyphs" textLength="98" x="136" y="721.2842">// gestionar c y d</text><text fill="#000000" font-family="sans-serif" font-size="13" lengthAdjust="spacingAndGlyphs" textLength="74" x="136" y="737.6357">this.m[1-8]();</text><text fill="#000000" font-family="sans-serif" font-size="13" lengthAdjust="spacingAndGlyphs" textLength="98" x="136" y="753.9873">// gestionar c y d</text><text fill="#000000" font-family="sans-serif" font-size="13" lengthAdjust="spacingAndGlyphs" textLength="4" x="128" y="770.3389">}</text><text fill="#000000" font-family="sans-serif" font-size="13" lengthAdjust="spacingAndGlyphs" textLength="0" x="132" y="786.6904"/><line style="stroke: #A80036; stroke-width: 1.0;" x1="123" x2="162.5" y1="683.2617" y2="683.2617"/><line style="stroke: #A80036; stroke-width: 1.0;" x1="123" x2="162.5" y1="685.2617" y2="685.2617"/><text fill="#000000" font-family="sans-serif" font-size="13" lengthAdjust="spacingAndGlyphs" textLength="52" x="162.5" y="688.0811">añadidos</text><line style="stroke: #A80036; stroke-width: 1.0;" x1="214.5" x2="254" y1="683.2617" y2="683.2617"/><line style="stroke: #A80036; stroke-width: 1.0;" x1="214.5" x2="254" y1="685.2617" y2="685.2617"/><!--link Base to Derivada--><path d="M46.5,220.079 C46.5,282.139 46.5,360.483 46.5,423.81 " fill="none" id="Base-Derivada" style="stroke: #A80036; stroke-width: 1.0;"/><polygon fill="none" points="39.5001,219.702,46.5,199.702,53.5001,219.702,39.5001,219.702" style="stroke: #A80036; stroke-width: 1.0;"/><!--
@startuml
abstract class Base{
- A a
- B b
- void m1()
+ void m2()
+ void m3()
+ void m4()
+ {abstract} void m5()
+ void m6()
+ {abstract} void m7()
}
note right
void m[1-4](){
  // gestionar a y b
  this.m[1-4]();
  // gestionar a y b
}

.. método plantilla ..
void m6(){
  // gestionar a y b
  this.m7();
  // gestionar a y b
}
endnote

Base <|-down- Derivada

class Derivada{
- C c
- D d
== redefinidos ==
.. anulación ..
+ void m3()
.. refinamiento ..
+ void m4()
.. abstractos ..
+ void m5()
+ void m7()
== añadidos ==
+ void m8()
}
note right
== redefinidos ==

.. anulación ..
void m3(){
  // gestionar c y d
  this.m[1-8]();
  // gestionar c y d
}

.. refinamiento ..
void m4(){
  // gestionar c y d
  super.m4();
  // gestionar c y d
}

.. abstractos ..
void m[5,7](){
  // gestionar c y d
  this.m[1-8]();
  // gestionar c y d
}

== añadidos ==
void m8(){
  // gestionar c y d
  this.m[1-8]();
  // gestionar c y d
}

endnote

@enduml

PlantUML version 1.2019.05(Sat Apr 20 18:45:36 CEST 2019)
(GPL source distribution)
Java Runtime: OpenJDK Runtime Environment
JVM: OpenJDK 64-Bit Server VM
Java Version: 1.8.0_222-b10
Operating System: Windows 10
OS Version: 10.0
Default Encoding: windows-1252
Language: es
Country: ES
--></g></svg>