<?xml version="1.0" encoding="UTF-8" standalone="no"?><svg xmlns="http://www.w3.org/2000/svg" xmlns:xlink="http://www.w3.org/1999/xlink" contentScriptType="application/ecmascript" contentStyleType="text/css" height="1314px" preserveAspectRatio="none" style="width:639px;height:1314px;" version="1.1" viewBox="0 0 639 1314" width="639px" zoomAndPan="magnify"><defs><filter height="300%" id="fukpl349bqr07" width="300%" x="-1" y="-1"><feGaussianBlur result="blurOut" stdDeviation="2.0"/><feColorMatrix in="blurOut" result="blurOut2" type="matrix" values="0 0 0 0 0 0 0 0 0 0 0 0 0 0 0 0 0 0 .4 0"/><feOffset dx="4.0" dy="4.0" in="blurOut2" result="blurOut3"/><feBlend in="SourceGraphic" in2="blurOut3" mode="normal"/></filter></defs><g><!--class Base--><rect fill="#FEFECE" filter="url(#fukpl349bqr07)" height="172.5234" id="Base" style="stroke: #A80036; stroke-width: 1.5;" width="72" x="10.5" y="269.5"/><ellipse cx="30.9" cy="285.5" fill="#A9DCDF" rx="11" ry="11" style="stroke: #A80036; stroke-width: 1.0;"/><path d="M33.0875,287.2656 L28.9469,287.2656 L28.525,288.2969 L28.9469,288.2969 Q29.5563,288.2969 29.8219,288.5313 Q30.0875,288.7656 30.0875,289.1563 Q30.0875,289.5313 29.8219,289.7656 Q29.5563,290 28.9469,290 L26.65,290 Q26.0406,290 25.7828,289.7656 Q25.525,289.5313 25.525,289.1406 Q25.525,288.7656 25.7984,288.5234 Q26.0719,288.2813 26.6969,288.2969 L29.3688,281.6406 L28.2594,281.6406 Q27.65,281.6406 27.3844,281.4063 Q27.1188,281.1719 27.1188,280.7813 Q27.1188,280.4063 27.3844,280.1719 Q27.65,279.9375 28.2594,279.9375 L31.9313,279.9375 L35.3219,288.2969 Q35.9156,288.2969 36.1031,288.4375 Q36.4938,288.7031 36.4938,289.1563 Q36.4938,289.5313 36.2359,289.7656 Q35.9781,290 35.3688,290 L33.0719,290 Q32.4625,290 32.1969,289.7656 Q31.9313,289.5313 31.9313,289.1406 Q31.9313,288.7656 32.1969,288.5313 Q32.4625,288.2969 33.0719,288.2969 L33.4938,288.2969 L33.0875,287.2656 Z M32.3688,285.5625 L31.0094,282.1875 L29.6344,285.5625 L32.3688,285.5625 Z "/><text fill="#000000" font-family="sans-serif" font-size="12" font-style="italic" lengthAdjust="spacingAndGlyphs" textLength="28" x="46.1" y="290.4102">Base</text><line style="stroke: #A80036; stroke-width: 1.5;" x1="11.5" x2="81.5" y1="301.5" y2="301.5"/><rect fill="none" height="6" style="stroke: #C82930; stroke-width: 1.0;" width="6" x="18.5" y="310.918"/><text fill="#000000" font-family="sans-serif" font-size="11" lengthAdjust="spacingAndGlyphs" textLength="17" x="30.5" y="316.9189">A a</text><rect fill="none" height="6" style="stroke: #C82930; stroke-width: 1.0;" width="6" x="18.5" y="324.7539"/><text fill="#000000" font-family="sans-serif" font-size="11" lengthAdjust="spacingAndGlyphs" textLength="16" x="30.5" y="330.7549">B b</text><line style="stroke: #A80036; stroke-width: 1.5;" x1="11.5" x2="81.5" y1="337.1719" y2="337.1719"/><rect fill="#F24D5C" height="6" style="stroke: #C82930; stroke-width: 1.0;" width="6" x="18.5" y="346.5898"/><text fill="#000000" font-family="sans-serif" font-size="11" lengthAdjust="spacingAndGlyphs" textLength="45" x="30.5" y="352.5908">void m1()</text><ellipse cx="21.5" cy="363.4258" fill="#84BE84" rx="3" ry="3" style="stroke: #038048; stroke-width: 1.0;"/><text fill="#000000" font-family="sans-serif" font-size="11" lengthAdjust="spacingAndGlyphs" textLength="45" x="30.5" y="366.4268">void m2()</text><ellipse cx="21.5" cy="377.2617" fill="#84BE84" rx="3" ry="3" style="stroke: #038048; stroke-width: 1.0;"/><text fill="#000000" font-family="sans-serif" font-size="11" lengthAdjust="spacingAndGlyphs" textLength="45" x="30.5" y="380.2627">void m3()</text><ellipse cx="21.5" cy="391.0977" fill="#84BE84" rx="3" ry="3" style="stroke: #038048; stroke-width: 1.0;"/><text fill="#000000" font-family="sans-serif" font-size="11" lengthAdjust="spacingAndGlyphs" textLength="45" x="30.5" y="394.0986">void m4()</text><ellipse cx="21.5" cy="404.9336" fill="#84BE84" rx="3" ry="3" style="stroke: #038048; stroke-width: 1.0;"/><text fill="#000000" font-family="sans-serif" font-size="11" font-style="italic" lengthAdjust="spacingAndGlyphs" textLength="46" x="30.5" y="407.9346">void m5()</text><ellipse cx="21.5" cy="418.7695" fill="#84BE84" rx="3" ry="3" style="stroke: #038048; stroke-width: 1.0;"/><text fill="#000000" font-family="sans-serif" font-size="11" lengthAdjust="spacingAndGlyphs" textLength="45" x="30.5" y="421.7705">void m6()</text><ellipse cx="21.5" cy="432.6055" fill="#84BE84" rx="3" ry="3" style="stroke: #038048; stroke-width: 1.0;"/><text fill="#000000" font-family="sans-serif" font-size="11" font-style="italic" lengthAdjust="spacingAndGlyphs" textLength="46" x="30.5" y="435.6064">void m7()</text><path d="M118,251 L118,352 L82.6172,356 L118,360 L118,461.2188 A0,0 0 0 0 118,461.2188 L251,461.2188 A0,0 0 0 0 251,461.2188 L251,261 L241,251 L118,251 A0,0 0 0 0 118,251 " fill="#FBFB77" filter="url(#fukpl349bqr07)" style="stroke: #A80036; stroke-width: 1.0;"/><path d="M241,251 L241,261 L251,261 L241,251 " fill="#FBFB77" style="stroke: #A80036; stroke-width: 1.0;"/><text fill="#000000" font-family="sans-serif" font-size="13" lengthAdjust="spacingAndGlyphs" textLength="75" x="124" y="269.4951">void m[1-4](){</text><text fill="#000000" font-family="sans-serif" font-size="13" lengthAdjust="spacingAndGlyphs" textLength="98" x="132" y="285.8467">// gestionar a y b</text><text fill="#000000" font-family="sans-serif" font-size="13" lengthAdjust="spacingAndGlyphs" textLength="74" x="132" y="302.1982">this.m[1-4]();</text><text fill="#000000" font-family="sans-serif" font-size="13" lengthAdjust="spacingAndGlyphs" textLength="98" x="132" y="318.5498">// gestionar a y b</text><text fill="#000000" font-family="sans-serif" font-size="13" lengthAdjust="spacingAndGlyphs" textLength="4" x="124" y="334.9014">}</text><text fill="#000000" font-family="sans-serif" font-size="13" lengthAdjust="spacingAndGlyphs" textLength="0" x="128" y="351.2529"/><text fill="#000000" font-family="sans-serif" font-size="13" lengthAdjust="spacingAndGlyphs" textLength="56" x="124" y="383.9561">void m6(){</text><text fill="#000000" font-family="sans-serif" font-size="13" lengthAdjust="spacingAndGlyphs" textLength="98" x="132" y="400.3076">// gestionar a y b</text><text fill="#000000" font-family="sans-serif" font-size="13" lengthAdjust="spacingAndGlyphs" textLength="55" x="132" y="416.6592">this.m7();</text><text fill="#000000" font-family="sans-serif" font-size="13" lengthAdjust="spacingAndGlyphs" textLength="98" x="132" y="433.0107">// gestionar a y b</text><text fill="#000000" font-family="sans-serif" font-size="13" lengthAdjust="spacingAndGlyphs" textLength="4" x="124" y="449.3623">}</text><line style="stroke: #A80036; stroke-width: 1.0; stroke-dasharray: 1.0,2.0;" x1="119" x2="139" y1="362.2852" y2="362.2852"/><text fill="#000000" font-family="sans-serif" font-size="13" lengthAdjust="spacingAndGlyphs" textLength="91" x="139" y="367.1045">método plantilla</text><line style="stroke: #A80036; stroke-width: 1.0; stroke-dasharray: 1.0,2.0;" x1="230" x2="250" y1="362.2852" y2="362.2852"/><!--class Derivada--><rect fill="#FEFECE" filter="url(#fukpl349bqr07)" height="228.9492" id="Derivada" style="stroke: #A80036; stroke-width: 1.5;" width="81" x="6" y="928"/><ellipse cx="21" cy="944" fill="#ADD1B2" rx="11" ry="11" style="stroke: #A80036; stroke-width: 1.0;"/><path d="M23.7656,939.875 Q23.9219,939.6563 24.1094,939.5469 Q24.2969,939.4375 24.5156,939.4375 Q24.8906,939.4375 25.125,939.6953 Q25.3594,939.9531 25.3594,940.5625 L25.3594,942.0156 Q25.3594,942.625 25.125,942.8906 Q24.8906,943.1563 24.5156,943.1563 Q24.1719,943.1563 23.9688,942.9531 Q23.7656,942.7656 23.6563,942.25 Q23.6094,941.8906 23.4219,941.7031 Q23.0938,941.3281 22.4844,941.1094 Q21.875,940.8906 21.25,940.8906 Q20.4844,940.8906 19.8516,941.2188 Q19.2188,941.5469 18.7266,942.2969 Q18.2344,943.0469 18.2344,944.0781 L18.2344,945.1719 Q18.2344,946.4063 19.125,947.2266 Q20.0156,948.0469 21.6094,948.0469 Q22.5469,948.0469 23.2031,947.7969 Q23.5938,947.6406 24.0156,947.2031 Q24.2813,946.9375 24.4297,946.8594 Q24.5781,946.7813 24.7813,946.7813 Q25.1094,946.7813 25.3672,947.0391 Q25.625,947.2969 25.625,947.6406 Q25.625,947.9844 25.2813,948.3906 Q24.7813,948.9688 23.9844,949.2969 Q22.9063,949.75 21.6094,949.75 Q20.0938,949.75 18.8906,949.125 Q17.9063,948.625 17.2188,947.5547 Q16.5313,946.4844 16.5313,945.2031 L16.5313,944.0469 Q16.5313,942.7188 17.1484,941.5703 Q17.7656,940.4219 18.8594,939.8047 Q19.9531,939.1875 21.1875,939.1875 Q21.9219,939.1875 22.5703,939.3516 Q23.2188,939.5156 23.7656,939.875 Z "/><text fill="#000000" font-family="sans-serif" font-size="12" lengthAdjust="spacingAndGlyphs" textLength="49" x="35" y="948.9102">Derivada</text><line style="stroke: #A80036; stroke-width: 1.5;" x1="7" x2="86" y1="960" y2="960"/><rect fill="none" height="6" style="stroke: #C82930; stroke-width: 1.0;" width="6" x="14" y="969.418"/><text fill="#000000" font-family="sans-serif" font-size="11" lengthAdjust="spacingAndGlyphs" textLength="16" x="26" y="975.4189">C c</text><rect fill="none" height="6" style="stroke: #C82930; stroke-width: 1.0;" width="6" x="14" y="983.2539"/><text fill="#000000" font-family="sans-serif" font-size="11" lengthAdjust="spacingAndGlyphs" textLength="16" x="26" y="989.2549">D d</text><line style="stroke: #A80036; stroke-width: 1.0;" x1="7" x2="19.5" y1="1002.5898" y2="1002.5898"/><line style="stroke: #A80036; stroke-width: 1.0;" x1="7" x2="19.5" y1="1004.5898" y2="1004.5898"/><text fill="#000000" font-family="sans-serif" font-size="11" lengthAdjust="spacingAndGlyphs" textLength="54" x="19.5" y="1006.5908">redefinidos</text><line style="stroke: #A80036; stroke-width: 1.0;" x1="73.5" x2="86" y1="1002.5898" y2="1002.5898"/><line style="stroke: #A80036; stroke-width: 1.0;" x1="73.5" x2="86" y1="1004.5898" y2="1004.5898"/><ellipse cx="17" cy="1038.6797" fill="#84BE84" rx="3" ry="3" style="stroke: #038048; stroke-width: 1.0;"/><text fill="#000000" font-family="sans-serif" font-size="11" lengthAdjust="spacingAndGlyphs" textLength="45" x="26" y="1041.6807">void m3()</text><line style="stroke: #A80036; stroke-width: 1.0; stroke-dasharray: 1.0,2.0;" x1="7" x2="23.5" y1="1023.3438" y2="1023.3438"/><text fill="#000000" font-family="sans-serif" font-size="11" lengthAdjust="spacingAndGlyphs" textLength="46" x="23.5" y="1027.3447">anulación</text><line style="stroke: #A80036; stroke-width: 1.0; stroke-dasharray: 1.0,2.0;" x1="69.5" x2="86" y1="1023.3438" y2="1023.3438"/><ellipse cx="17" cy="1070.3516" fill="#84BE84" rx="3" ry="3" style="stroke: #038048; stroke-width: 1.0;"/><text fill="#000000" font-family="sans-serif" font-size="11" lengthAdjust="spacingAndGlyphs" textLength="45" x="26" y="1073.3525">void m4()</text><line style="stroke: #A80036; stroke-width: 1.0; stroke-dasharray: 1.0,2.0;" x1="7" x2="17" y1="1055.0156" y2="1055.0156"/><text fill="#000000" font-family="sans-serif" font-size="11" lengthAdjust="spacingAndGlyphs" textLength="59" x="17" y="1059.0166">refinamiento</text><line style="stroke: #A80036; stroke-width: 1.0; stroke-dasharray: 1.0,2.0;" x1="76" x2="86" y1="1055.0156" y2="1055.0156"/><ellipse cx="17" cy="1102.0234" fill="#84BE84" rx="3" ry="3" style="stroke: #038048; stroke-width: 1.0;"/><text fill="#000000" font-family="sans-serif" font-size="11" lengthAdjust="spacingAndGlyphs" textLength="45" x="26" y="1105.0244">void m5()</text><ellipse cx="17" cy="1115.8594" fill="#84BE84" rx="3" ry="3" style="stroke: #038048; stroke-width: 1.0;"/><text fill="#000000" font-family="sans-serif" font-size="11" lengthAdjust="spacingAndGlyphs" textLength="45" x="26" y="1118.8604">void m7()</text><line style="stroke: #A80036; stroke-width: 1.0; stroke-dasharray: 1.0,2.0;" x1="7" x2="20.5" y1="1086.6875" y2="1086.6875"/><text fill="#000000" font-family="sans-serif" font-size="11" lengthAdjust="spacingAndGlyphs" textLength="52" x="20.5" y="1090.6885">abstractos</text><line style="stroke: #A80036; stroke-width: 1.0; stroke-dasharray: 1.0,2.0;" x1="72.5" x2="86" y1="1086.6875" y2="1086.6875"/><ellipse cx="17" cy="1147.5313" fill="#84BE84" rx="3" ry="3" style="stroke: #038048; stroke-width: 1.0;"/><text fill="#000000" font-family="sans-serif" font-size="11" lengthAdjust="spacingAndGlyphs" textLength="45" x="26" y="1150.5322">void m8()</text><line style="stroke: #A80036; stroke-width: 1.0;" x1="7" x2="24.5" y1="1132.1953" y2="1132.1953"/><line style="stroke: #A80036; stroke-width: 1.0;" x1="7" x2="24.5" y1="1134.1953" y2="1134.1953"/><text fill="#000000" font-family="sans-serif" font-size="11" lengthAdjust="spacingAndGlyphs" textLength="44" x="24.5" y="1136.1963">añadidos</text><line style="stroke: #A80036; stroke-width: 1.0;" x1="68.5" x2="86" y1="1132.1953" y2="1132.1953"/><line style="stroke: #A80036; stroke-width: 1.0;" x1="68.5" x2="86" y1="1134.1953" y2="1134.1953"/><path d="M122,782 L122,1038.5 L87.2695,1042.5 L122,1046.5 L122,1302.5469 A0,0 0 0 0 122,1302.5469 L255,1302.5469 A0,0 0 0 0 255,1302.5469 L255,792 L245,782 L122,782 A0,0 0 0 0 122,782 " fill="#FBFB77" filter="url(#fukpl349bqr07)" style="stroke: #A80036; stroke-width: 1.0;"/><path d="M245,782 L245,792 L255,792 L245,782 " fill="#FBFB77" style="stroke: #A80036; stroke-width: 1.0;"/><text fill="#000000" font-family="sans-serif" font-size="13" lengthAdjust="spacingAndGlyphs" textLength="0" x="132" y="816.8467"/><line style="stroke: #A80036; stroke-width: 1.0;" x1="123" x2="157.5" y1="795.1758" y2="795.1758"/><line style="stroke: #A80036; stroke-width: 1.0;" x1="123" x2="157.5" y1="797.1758" y2="797.1758"/><text fill="#000000" font-family="sans-serif" font-size="13" lengthAdjust="spacingAndGlyphs" textLength="62" x="157.5" y="799.9951">redefinidos</text><line style="stroke: #A80036; stroke-width: 1.0;" x1="219.5" x2="254" y1="795.1758" y2="795.1758"/><line style="stroke: #A80036; stroke-width: 1.0;" x1="219.5" x2="254" y1="797.1758" y2="797.1758"/><text fill="#000000" font-family="sans-serif" font-size="13" lengthAdjust="spacingAndGlyphs" textLength="56" x="128" y="853.5498">void m3(){</text><text fill="#000000" font-family="sans-serif" font-size="13" lengthAdjust="spacingAndGlyphs" textLength="98" x="136" y="869.9014">// gestionar c y d</text><text fill="#000000" font-family="sans-serif" font-size="13" lengthAdjust="spacingAndGlyphs" textLength="74" x="136" y="886.2529">this.m[1-8]();</text><text fill="#000000" font-family="sans-serif" font-size="13" lengthAdjust="spacingAndGlyphs" textLength="98" x="136" y="902.6045">// gestionar c y d</text><text fill="#000000" font-family="sans-serif" font-size="13" lengthAdjust="spacingAndGlyphs" textLength="4" x="128" y="918.9561">}</text><text fill="#000000" font-family="sans-serif" font-size="13" lengthAdjust="spacingAndGlyphs" textLength="0" x="132" y="935.3076"/><line style="stroke: #A80036; stroke-width: 1.0; stroke-dasharray: 1.0,2.0;" x1="123" x2="161" y1="831.8789" y2="831.8789"/><text fill="#000000" font-family="sans-serif" font-size="13" lengthAdjust="spacingAndGlyphs" textLength="55" x="161" y="836.6982">anulación</text><line style="stroke: #A80036; stroke-width: 1.0; stroke-dasharray: 1.0,2.0;" x1="216" x2="254" y1="831.8789" y2="831.8789"/><text fill="#000000" font-family="sans-serif" font-size="13" lengthAdjust="spacingAndGlyphs" textLength="56" x="128" y="972.0107">void m4(){</text><text fill="#000000" font-family="sans-serif" font-size="13" lengthAdjust="spacingAndGlyphs" textLength="98" x="136" y="988.3623">// gestionar c y d</text><text fill="#000000" font-family="sans-serif" font-size="13" lengthAdjust="spacingAndGlyphs" textLength="66" x="136" y="1004.7139">super.m4();</text><text fill="#000000" font-family="sans-serif" font-size="13" lengthAdjust="spacingAndGlyphs" textLength="98" x="136" y="1021.0654">// gestionar c y d</text><text fill="#000000" font-family="sans-serif" font-size="13" lengthAdjust="spacingAndGlyphs" textLength="4" x="128" y="1037.417">}</text><text fill="#000000" font-family="sans-serif" font-size="13" lengthAdjust="spacingAndGlyphs" textLength="0" x="132" y="1053.7686"/><line style="stroke: #A80036; stroke-width: 1.0; stroke-dasharray: 1.0,2.0;" x1="123" x2="153.5" y1="950.3398" y2="950.3398"/><text fill="#000000" font-family="sans-serif" font-size="13" lengthAdjust="spacingAndGlyphs" textLength="70" x="153.5" y="955.1592">refinamiento</text><line style="stroke: #A80036; stroke-width: 1.0; stroke-dasharray: 1.0,2.0;" x1="223.5" x2="254" y1="950.3398" y2="950.3398"/><text fill="#000000" font-family="sans-serif" font-size="13" lengthAdjust="spacingAndGlyphs" textLength="75" x="128" y="1090.4717">void m[5,7](){</text><text fill="#000000" font-family="sans-serif" font-size="13" lengthAdjust="spacingAndGlyphs" textLength="98" x="136" y="1106.8232">// gestionar c y d</text><text fill="#000000" font-family="sans-serif" font-size="13" lengthAdjust="spacingAndGlyphs" textLength="74" x="136" y="1123.1748">this.m[1-8]();</text><text fill="#000000" font-family="sans-serif" font-size="13" lengthAdjust="spacingAndGlyphs" textLength="98" x="136" y="1139.5264">// gestionar c y d</text><text fill="#000000" font-family="sans-serif" font-size="13" lengthAdjust="spacingAndGlyphs" textLength="4" x="128" y="1155.8779">}</text><text fill="#000000" font-family="sans-serif" font-size="13" lengthAdjust="spacingAndGlyphs" textLength="0" x="132" y="1172.2295"/><line style="stroke: #A80036; stroke-width: 1.0; stroke-dasharray: 1.0,2.0;" x1="123" x2="158" y1="1068.8008" y2="1068.8008"/><text fill="#000000" font-family="sans-serif" font-size="13" lengthAdjust="spacingAndGlyphs" textLength="61" x="158" y="1073.6201">abstractos</text><line style="stroke: #A80036; stroke-width: 1.0; stroke-dasharray: 1.0,2.0;" x1="219" x2="254" y1="1068.8008" y2="1068.8008"/><text fill="#000000" font-family="sans-serif" font-size="13" lengthAdjust="spacingAndGlyphs" textLength="56" x="128" y="1208.9326">void m8(){</text><text fill="#000000" font-family="sans-serif" font-size="13" lengthAdjust="spacingAndGlyphs" textLength="98" x="136" y="1225.2842">// gestionar c y d</text><text fill="#000000" font-family="sans-serif" font-size="13" lengthAdjust="spacingAndGlyphs" textLength="74" x="136" y="1241.6357">this.m[1-8]();</text><text fill="#000000" font-family="sans-serif" font-size="13" lengthAdjust="spacingAndGlyphs" textLength="98" x="136" y="1257.9873">// gestionar c y d</text><text fill="#000000" font-family="sans-serif" font-size="13" lengthAdjust="spacingAndGlyphs" textLength="4" x="128" y="1274.3389">}</text><text fill="#000000" font-family="sans-serif" font-size="13" lengthAdjust="spacingAndGlyphs" textLength="0" x="132" y="1290.6904"/><line style="stroke: #A80036; stroke-width: 1.0;" x1="123" x2="162.5" y1="1187.2617" y2="1187.2617"/><line style="stroke: #A80036; stroke-width: 1.0;" x1="123" x2="162.5" y1="1189.2617" y2="1189.2617"/><text fill="#000000" font-family="sans-serif" font-size="13" lengthAdjust="spacingAndGlyphs" textLength="52" x="162.5" y="1192.0811">añadidos</text><line style="stroke: #A80036; stroke-width: 1.0;" x1="214.5" x2="254" y1="1187.2617" y2="1187.2617"/><line style="stroke: #A80036; stroke-width: 1.0;" x1="214.5" x2="254" y1="1189.2617" y2="1189.2617"/><!--class Todo--><rect fill="#FEFECE" filter="url(#fukpl349bqr07)" height="306.1289" id="Todo" style="stroke: #A80036; stroke-width: 1.5;" width="98" x="300.5" y="203"/><ellipse cx="332.6" cy="219" fill="#ADD1B2" rx="11" ry="11" style="stroke: #A80036; stroke-width: 1.0;"/><path d="M335.3656,214.875 Q335.5219,214.6563 335.7094,214.5469 Q335.8969,214.4375 336.1156,214.4375 Q336.4906,214.4375 336.725,214.6953 Q336.9594,214.9531 336.9594,215.5625 L336.9594,217.0156 Q336.9594,217.625 336.725,217.8906 Q336.4906,218.1563 336.1156,218.1563 Q335.7719,218.1563 335.5688,217.9531 Q335.3656,217.7656 335.2563,217.25 Q335.2094,216.8906 335.0219,216.7031 Q334.6938,216.3281 334.0844,216.1094 Q333.475,215.8906 332.85,215.8906 Q332.0844,215.8906 331.4516,216.2188 Q330.8188,216.5469 330.3266,217.2969 Q329.8344,218.0469 329.8344,219.0781 L329.8344,220.1719 Q329.8344,221.4063 330.725,222.2266 Q331.6156,223.0469 333.2094,223.0469 Q334.1469,223.0469 334.8031,222.7969 Q335.1938,222.6406 335.6156,222.2031 Q335.8813,221.9375 336.0297,221.8594 Q336.1781,221.7813 336.3813,221.7813 Q336.7094,221.7813 336.9672,222.0391 Q337.225,222.2969 337.225,222.6406 Q337.225,222.9844 336.8813,223.3906 Q336.3813,223.9688 335.5844,224.2969 Q334.5063,224.75 333.2094,224.75 Q331.6938,224.75 330.4906,224.125 Q329.5063,223.625 328.8188,222.5547 Q328.1313,221.4844 328.1313,220.2031 L328.1313,219.0469 Q328.1313,217.7188 328.7484,216.5703 Q329.3656,215.4219 330.4594,214.8047 Q331.5531,214.1875 332.7875,214.1875 Q333.5219,214.1875 334.1703,214.3516 Q334.8188,214.5156 335.3656,214.875 Z "/><text fill="#000000" font-family="sans-serif" font-size="12" lengthAdjust="spacingAndGlyphs" textLength="28" x="350.4" y="223.9102">Todo</text><line style="stroke: #A80036; stroke-width: 1.5;" x1="301.5" x2="397.5" y1="235" y2="235"/><rect fill="none" height="6" style="stroke: #C82930; stroke-width: 1.0;" width="6" x="308.5" y="244.418"/><text fill="#000000" font-family="sans-serif" font-size="11" lengthAdjust="spacingAndGlyphs" textLength="16" x="320.5" y="250.4189">C c</text><rect fill="none" height="6" style="stroke: #C82930; stroke-width: 1.0;" width="6" x="308.5" y="258.2539"/><text fill="#000000" font-family="sans-serif" font-size="11" lengthAdjust="spacingAndGlyphs" textLength="16" x="320.5" y="264.2549">D d</text><rect fill="none" height="6" style="stroke: #C82930; stroke-width: 1.0;" width="6" x="308.5" y="272.0898"/><text fill="#000000" font-family="sans-serif" font-size="11" lengthAdjust="spacingAndGlyphs" textLength="72" x="320.5" y="278.0908">Parte delegado</text><ellipse cx="311.5" cy="306.7617" fill="#84BE84" rx="3" ry="3" style="stroke: #038048; stroke-width: 1.0;"/><text fill="#000000" font-family="sans-serif" font-size="11" lengthAdjust="spacingAndGlyphs" textLength="45" x="320.5" y="309.7627">void m2()</text><line style="stroke: #A80036; stroke-width: 1.0;" x1="301.5" x2="324.5" y1="291.4258" y2="291.4258"/><line style="stroke: #A80036; stroke-width: 1.0;" x1="301.5" x2="324.5" y1="293.4258" y2="293.4258"/><text fill="#000000" font-family="sans-serif" font-size="11" lengthAdjust="spacingAndGlyphs" textLength="50" x="324.5" y="295.4268">delegados</text><line style="stroke: #A80036; stroke-width: 1.0;" x1="374.5" x2="397.5" y1="291.4258" y2="291.4258"/><line style="stroke: #A80036; stroke-width: 1.0;" x1="374.5" x2="397.5" y1="293.4258" y2="293.4258"/><line style="stroke: #A80036; stroke-width: 1.0;" x1="301.5" x2="318.5" y1="323.0977" y2="323.0977"/><line style="stroke: #A80036; stroke-width: 1.0;" x1="301.5" x2="318.5" y1="325.0977" y2="325.0977"/><text fill="#000000" font-family="sans-serif" font-size="11" lengthAdjust="spacingAndGlyphs" textLength="62" x="318.5" y="327.0986">"redefinidos"</text><line style="stroke: #A80036; stroke-width: 1.0;" x1="380.5" x2="397.5" y1="323.0977" y2="323.0977"/><line style="stroke: #A80036; stroke-width: 1.0;" x1="380.5" x2="397.5" y1="325.0977" y2="325.0977"/><ellipse cx="311.5" cy="359.1875" fill="#84BE84" rx="3" ry="3" style="stroke: #038048; stroke-width: 1.0;"/><text fill="#000000" font-family="sans-serif" font-size="11" lengthAdjust="spacingAndGlyphs" textLength="45" x="320.5" y="362.1885">void m3()</text><line style="stroke: #A80036; stroke-width: 1.0; stroke-dasharray: 1.0,2.0;" x1="301.5" x2="322.5" y1="343.8516" y2="343.8516"/><text fill="#000000" font-family="sans-serif" font-size="11" lengthAdjust="spacingAndGlyphs" textLength="54" x="322.5" y="347.8525">"anulación"</text><line style="stroke: #A80036; stroke-width: 1.0; stroke-dasharray: 1.0,2.0;" x1="376.5" x2="397.5" y1="343.8516" y2="343.8516"/><ellipse cx="311.5" cy="390.8594" fill="#84BE84" rx="3" ry="3" style="stroke: #038048; stroke-width: 1.0;"/><text fill="#000000" font-family="sans-serif" font-size="11" lengthAdjust="spacingAndGlyphs" textLength="45" x="320.5" y="393.8604">void m4()</text><line style="stroke: #A80036; stroke-width: 1.0; stroke-dasharray: 1.0,2.0;" x1="301.5" x2="316" y1="375.5234" y2="375.5234"/><text fill="#000000" font-family="sans-serif" font-size="11" lengthAdjust="spacingAndGlyphs" textLength="67" x="316" y="379.5244">"refinamiento"</text><line style="stroke: #A80036; stroke-width: 1.0; stroke-dasharray: 1.0,2.0;" x1="383" x2="397.5" y1="375.5234" y2="375.5234"/><ellipse cx="311.5" cy="422.5313" fill="#84BE84" rx="3" ry="3" style="stroke: #038048; stroke-width: 1.0;"/><text fill="#000000" font-family="sans-serif" font-size="11" lengthAdjust="spacingAndGlyphs" textLength="45" x="320.5" y="425.5322">void m5()</text><ellipse cx="311.5" cy="436.3672" fill="#84BE84" rx="3" ry="3" style="stroke: #038048; stroke-width: 1.0;"/><text fill="#000000" font-family="sans-serif" font-size="11" lengthAdjust="spacingAndGlyphs" textLength="45" x="320.5" y="439.3682">void m7()</text><line style="stroke: #A80036; stroke-width: 1.0; stroke-dasharray: 1.0,2.0;" x1="301.5" x2="323.5" y1="407.1953" y2="407.1953"/><text fill="#000000" font-family="sans-serif" font-size="11" lengthAdjust="spacingAndGlyphs" textLength="52" x="323.5" y="411.1963">abstractos</text><line style="stroke: #A80036; stroke-width: 1.0; stroke-dasharray: 1.0,2.0;" x1="375.5" x2="397.5" y1="407.1953" y2="407.1953"/><ellipse cx="311.5" cy="468.0391" fill="#84BE84" rx="3" ry="3" style="stroke: #038048; stroke-width: 1.0;"/><text fill="#000000" font-family="sans-serif" font-size="11" lengthAdjust="spacingAndGlyphs" textLength="45" x="320.5" y="471.04">void m6()</text><line style="stroke: #A80036; stroke-width: 1.0; stroke-dasharray: 1.0,2.0;" x1="301.5" x2="309" y1="452.7031" y2="452.7031"/><text fill="#000000" font-family="sans-serif" font-size="11" lengthAdjust="spacingAndGlyphs" textLength="81" x="309" y="456.7041">"metodo plantilla"</text><line style="stroke: #A80036; stroke-width: 1.0; stroke-dasharray: 1.0,2.0;" x1="390" x2="397.5" y1="452.7031" y2="452.7031"/><ellipse cx="311.5" cy="499.7109" fill="#84BE84" rx="3" ry="3" style="stroke: #038048; stroke-width: 1.0;"/><text fill="#000000" font-family="sans-serif" font-size="11" lengthAdjust="spacingAndGlyphs" textLength="45" x="320.5" y="502.7119">void m8()</text><line style="stroke: #A80036; stroke-width: 1.0;" x1="301.5" x2="327.5" y1="484.375" y2="484.375"/><line style="stroke: #A80036; stroke-width: 1.0;" x1="301.5" x2="327.5" y1="486.375" y2="486.375"/><text fill="#000000" font-family="sans-serif" font-size="11" lengthAdjust="spacingAndGlyphs" textLength="44" x="327.5" y="488.376">añadidos</text><line style="stroke: #A80036; stroke-width: 1.0;" x1="371.5" x2="397.5" y1="484.375" y2="484.375"/><line style="stroke: #A80036; stroke-width: 1.0;" x1="371.5" x2="397.5" y1="486.375" y2="486.375"/><!--class Parte--><rect fill="#FEFECE" filter="url(#fukpl349bqr07)" height="144.8516" id="Parte" style="stroke: #A80036; stroke-width: 1.5;" width="119" x="290" y="970"/><ellipse cx="331.1" cy="986" fill="#ADD1B2" rx="11" ry="11" style="stroke: #A80036; stroke-width: 1.0;"/><path d="M333.8656,981.875 Q334.0219,981.6563 334.2094,981.5469 Q334.3969,981.4375 334.6156,981.4375 Q334.9906,981.4375 335.225,981.6953 Q335.4594,981.9531 335.4594,982.5625 L335.4594,984.0156 Q335.4594,984.625 335.225,984.8906 Q334.9906,985.1563 334.6156,985.1563 Q334.2719,985.1563 334.0688,984.9531 Q333.8656,984.7656 333.7563,984.25 Q333.7094,983.8906 333.5219,983.7031 Q333.1938,983.3281 332.5844,983.1094 Q331.975,982.8906 331.35,982.8906 Q330.5844,982.8906 329.9516,983.2188 Q329.3188,983.5469 328.8266,984.2969 Q328.3344,985.0469 328.3344,986.0781 L328.3344,987.1719 Q328.3344,988.4063 329.225,989.2266 Q330.1156,990.0469 331.7094,990.0469 Q332.6469,990.0469 333.3031,989.7969 Q333.6938,989.6406 334.1156,989.2031 Q334.3813,988.9375 334.5297,988.8594 Q334.6781,988.7813 334.8813,988.7813 Q335.2094,988.7813 335.4672,989.0391 Q335.725,989.2969 335.725,989.6406 Q335.725,989.9844 335.3813,990.3906 Q334.8813,990.9688 334.0844,991.2969 Q333.0063,991.75 331.7094,991.75 Q330.1938,991.75 328.9906,991.125 Q328.0063,990.625 327.3188,989.5547 Q326.6313,988.4844 326.6313,987.2031 L326.6313,986.0469 Q326.6313,984.7188 327.2484,983.5703 Q327.8656,982.4219 328.9594,981.8047 Q330.0531,981.1875 331.2875,981.1875 Q332.0219,981.1875 332.6703,981.3516 Q333.3188,981.5156 333.8656,981.875 Z "/><text fill="#000000" font-family="sans-serif" font-size="12" lengthAdjust="spacingAndGlyphs" textLength="29" x="350.9" y="990.9102">Parte</text><line style="stroke: #A80036; stroke-width: 1.5;" x1="291" x2="408" y1="1002" y2="1002"/><rect fill="none" height="6" style="stroke: #C82930; stroke-width: 1.0;" width="6" x="298" y="1011.418"/><text fill="#000000" font-family="sans-serif" font-size="11" lengthAdjust="spacingAndGlyphs" textLength="17" x="310" y="1017.4189">A a</text><rect fill="none" height="6" style="stroke: #C82930; stroke-width: 1.0;" width="6" x="298" y="1025.2539"/><text fill="#000000" font-family="sans-serif" font-size="11" lengthAdjust="spacingAndGlyphs" textLength="16" x="310" y="1031.2549">B b</text><line style="stroke: #A80036; stroke-width: 1.5;" x1="291" x2="408" y1="1037.6719" y2="1037.6719"/><rect fill="#F24D5C" height="6" style="stroke: #C82930; stroke-width: 1.0;" width="6" x="298" y="1047.0898"/><text fill="#000000" font-family="sans-serif" font-size="11" lengthAdjust="spacingAndGlyphs" textLength="45" x="310" y="1053.0908">void m1()</text><ellipse cx="301" cy="1063.9258" fill="#84BE84" rx="3" ry="3" style="stroke: #038048; stroke-width: 1.0;"/><text fill="#000000" font-family="sans-serif" font-size="11" lengthAdjust="spacingAndGlyphs" textLength="45" x="310" y="1066.9268">void m2()</text><ellipse cx="301" cy="1077.7617" fill="#84BE84" rx="3" ry="3" style="stroke: #038048; stroke-width: 1.0;"/><text fill="#000000" font-family="sans-serif" font-size="11" lengthAdjust="spacingAndGlyphs" textLength="45" x="310" y="1080.7627">void m3()</text><ellipse cx="301" cy="1091.5977" fill="#84BE84" rx="3" ry="3" style="stroke: #038048; stroke-width: 1.0;"/><text fill="#000000" font-family="sans-serif" font-size="11" lengthAdjust="spacingAndGlyphs" textLength="45" x="310" y="1094.5986">void m4()</text><ellipse cx="301" cy="1105.4336" fill="#84BE84" rx="3" ry="3" style="stroke: #038048; stroke-width: 1.0;"/><text fill="#000000" font-family="sans-serif" font-size="11" lengthAdjust="spacingAndGlyphs" textLength="93" x="310" y="1108.4346">void m6(Todo todo)</text><path d="M434,8 L434,352 L398.639,356 L434,360 L434,704.2383 A0,0 0 0 0 434,704.2383 L627,704.2383 A0,0 0 0 0 627,704.2383 L627,18 L617,8 L434,8 A0,0 0 0 0 434,8 " fill="#FBFB77" filter="url(#fukpl349bqr07)" style="stroke: #A80036; stroke-width: 1.0;"/><path d="M617,8 L617,18 L627,18 L617,8 " fill="#FBFB77" style="stroke: #A80036; stroke-width: 1.0;"/><text fill="#000000" font-family="sans-serif" font-size="13" lengthAdjust="spacingAndGlyphs" textLength="56" x="440" y="42.8467">void m2(){</text><text fill="#000000" font-family="sans-serif" font-size="13" lengthAdjust="spacingAndGlyphs" textLength="86" x="448" y="59.1982">delegado.m2();</text><text fill="#000000" font-family="sans-serif" font-size="13" lengthAdjust="spacingAndGlyphs" textLength="4" x="440" y="75.5498">}</text><text fill="#000000" font-family="sans-serif" font-size="13" lengthAdjust="spacingAndGlyphs" textLength="0" x="444" y="91.9014"/><line style="stroke: #A80036; stroke-width: 1.0;" x1="435" x2="501" y1="21.1758" y2="21.1758"/><line style="stroke: #A80036; stroke-width: 1.0;" x1="435" x2="501" y1="23.1758" y2="23.1758"/><text fill="#000000" font-family="sans-serif" font-size="13" lengthAdjust="spacingAndGlyphs" textLength="59" x="501" y="25.9951">delegados</text><line style="stroke: #A80036; stroke-width: 1.0;" x1="560" x2="626" y1="21.1758" y2="21.1758"/><line style="stroke: #A80036; stroke-width: 1.0;" x1="560" x2="626" y1="23.1758" y2="23.1758"/><line style="stroke: #A80036; stroke-width: 1.0;" x1="435" x2="494.5" y1="106.9336" y2="106.9336"/><line style="stroke: #A80036; stroke-width: 1.0;" x1="435" x2="494.5" y1="108.9336" y2="108.9336"/><text fill="#000000" font-family="sans-serif" font-size="13" lengthAdjust="spacingAndGlyphs" textLength="72" x="494.5" y="111.7529">"redefinidos"</text><line style="stroke: #A80036; stroke-width: 1.0;" x1="566.5" x2="626" y1="106.9336" y2="106.9336"/><line style="stroke: #A80036; stroke-width: 1.0;" x1="566.5" x2="626" y1="108.9336" y2="108.9336"/><text fill="#000000" font-family="sans-serif" font-size="13" lengthAdjust="spacingAndGlyphs" textLength="56" x="440" y="153.1318">void m3(){</text><text fill="#000000" font-family="sans-serif" font-size="13" lengthAdjust="spacingAndGlyphs" textLength="158" x="448" y="169.4834">// gestionar c, d y delegado</text><text fill="#000000" font-family="sans-serif" font-size="13" lengthAdjust="spacingAndGlyphs" textLength="74" x="448" y="185.835">this.m[1-8]();</text><text fill="#000000" font-family="sans-serif" font-size="13" lengthAdjust="spacingAndGlyphs" textLength="158" x="448" y="202.1865">// gestionar c, d y delegado</text><text fill="#000000" font-family="sans-serif" font-size="13" lengthAdjust="spacingAndGlyphs" textLength="4" x="440" y="218.5381">}</text><text fill="#000000" font-family="sans-serif" font-size="13" lengthAdjust="spacingAndGlyphs" textLength="0" x="444" y="234.8896"/><line style="stroke: #A80036; stroke-width: 1.0; stroke-dasharray: 1.0,2.0;" x1="435" x2="498" y1="131.4609" y2="131.4609"/><text fill="#000000" font-family="sans-serif" font-size="13" lengthAdjust="spacingAndGlyphs" textLength="65" x="498" y="136.2803">"anulación"</text><line style="stroke: #A80036; stroke-width: 1.0; stroke-dasharray: 1.0,2.0;" x1="563" x2="626" y1="131.4609" y2="131.4609"/><text fill="#000000" font-family="sans-serif" font-size="13" lengthAdjust="spacingAndGlyphs" textLength="56" x="440" y="271.5928">void m4(){</text><text fill="#000000" font-family="sans-serif" font-size="13" lengthAdjust="spacingAndGlyphs" textLength="158" x="448" y="287.9443">// gestionar c, d y delegado</text><text fill="#000000" font-family="sans-serif" font-size="13" lengthAdjust="spacingAndGlyphs" textLength="86" x="448" y="304.2959">delegado.m4();</text><text fill="#000000" font-family="sans-serif" font-size="13" lengthAdjust="spacingAndGlyphs" textLength="158" x="448" y="320.6475">// gestionar c, d y delegado</text><text fill="#000000" font-family="sans-serif" font-size="13" lengthAdjust="spacingAndGlyphs" textLength="4" x="440" y="336.999">}</text><text fill="#000000" font-family="sans-serif" font-size="13" lengthAdjust="spacingAndGlyphs" textLength="0" x="444" y="353.3506"/><line style="stroke: #A80036; stroke-width: 1.0; stroke-dasharray: 1.0,2.0;" x1="435" x2="490.5" y1="249.9219" y2="249.9219"/><text fill="#000000" font-family="sans-serif" font-size="13" lengthAdjust="spacingAndGlyphs" textLength="80" x="490.5" y="254.7412">"refinamiento"</text><line style="stroke: #A80036; stroke-width: 1.0; stroke-dasharray: 1.0,2.0;" x1="570.5" x2="626" y1="249.9219" y2="249.9219"/><text fill="#000000" font-family="sans-serif" font-size="13" lengthAdjust="spacingAndGlyphs" textLength="75" x="440" y="390.0537">void m[5,7](){</text><text fill="#000000" font-family="sans-serif" font-size="13" lengthAdjust="spacingAndGlyphs" textLength="158" x="448" y="406.4053">// gestionar c, d y delegado</text><text fill="#000000" font-family="sans-serif" font-size="13" lengthAdjust="spacingAndGlyphs" textLength="74" x="448" y="422.7568">this.m[1-8]();</text><text fill="#000000" font-family="sans-serif" font-size="13" lengthAdjust="spacingAndGlyphs" textLength="158" x="448" y="439.1084">// gestionar c, d y delegado</text><text fill="#000000" font-family="sans-serif" font-size="13" lengthAdjust="spacingAndGlyphs" textLength="4" x="440" y="455.46">}</text><text fill="#000000" font-family="sans-serif" font-size="13" lengthAdjust="spacingAndGlyphs" textLength="0" x="444" y="471.8115"/><line style="stroke: #A80036; stroke-width: 1.0; stroke-dasharray: 1.0,2.0;" x1="435" x2="495" y1="368.3828" y2="368.3828"/><text fill="#000000" font-family="sans-serif" font-size="13" lengthAdjust="spacingAndGlyphs" textLength="71" x="495" y="373.2021">"abstractos"</text><line style="stroke: #A80036; stroke-width: 1.0; stroke-dasharray: 1.0,2.0;" x1="566" x2="626" y1="368.3828" y2="368.3828"/><text fill="#000000" font-family="sans-serif" font-size="13" lengthAdjust="spacingAndGlyphs" textLength="56" x="440" y="508.5146">void m6(){</text><text fill="#000000" font-family="sans-serif" font-size="13" lengthAdjust="spacingAndGlyphs" textLength="158" x="448" y="524.8662">// gestionar c, d y delegado</text><text fill="#000000" font-family="sans-serif" font-size="13" lengthAdjust="spacingAndGlyphs" textLength="76" x="448" y="541.2178">this.m7(this);</text><text fill="#000000" font-family="sans-serif" font-size="13" lengthAdjust="spacingAndGlyphs" textLength="158" x="448" y="557.5693">// gestionar c, d y delegado</text><text fill="#000000" font-family="sans-serif" font-size="13" lengthAdjust="spacingAndGlyphs" textLength="4" x="440" y="573.9209">}</text><text fill="#000000" font-family="sans-serif" font-size="13" lengthAdjust="spacingAndGlyphs" textLength="0" x="444" y="590.2725"/><line style="stroke: #A80036; stroke-width: 1.0; stroke-dasharray: 1.0,2.0;" x1="435" x2="480" y1="486.8438" y2="486.8438"/><text fill="#000000" font-family="sans-serif" font-size="13" lengthAdjust="spacingAndGlyphs" textLength="101" x="480" y="491.6631">"metodo plantilla"</text><line style="stroke: #A80036; stroke-width: 1.0; stroke-dasharray: 1.0,2.0;" x1="581" x2="626" y1="486.8438" y2="486.8438"/><text fill="#000000" font-family="sans-serif" font-size="13" lengthAdjust="spacingAndGlyphs" textLength="56" x="440" y="626.9756">void m8(){</text><text fill="#000000" font-family="sans-serif" font-size="13" lengthAdjust="spacingAndGlyphs" textLength="158" x="448" y="643.3271">// gestionar c, d y delegado</text><text fill="#000000" font-family="sans-serif" font-size="13" lengthAdjust="spacingAndGlyphs" textLength="74" x="448" y="659.6787">this.m[1-8]();</text><text fill="#000000" font-family="sans-serif" font-size="13" lengthAdjust="spacingAndGlyphs" textLength="158" x="448" y="676.0303">// gestionar c, d y delegado</text><text fill="#000000" font-family="sans-serif" font-size="13" lengthAdjust="spacingAndGlyphs" textLength="4" x="440" y="692.3818">}</text><line style="stroke: #A80036; stroke-width: 1.0;" x1="435" x2="499.5" y1="605.3047" y2="605.3047"/><line style="stroke: #A80036; stroke-width: 1.0;" x1="435" x2="499.5" y1="607.3047" y2="607.3047"/><text fill="#000000" font-family="sans-serif" font-size="13" lengthAdjust="spacingAndGlyphs" textLength="62" x="499.5" y="610.124">"añadidos"</text><line style="stroke: #A80036; stroke-width: 1.0;" x1="561.5" x2="626" y1="605.3047" y2="605.3047"/><line style="stroke: #A80036; stroke-width: 1.0;" x1="561.5" x2="626" y1="607.3047" y2="607.3047"/><path d="M444.5,937.5 L444.5,1038.5 L409.119,1042.5 L444.5,1046.5 L444.5,1147.7188 A0,0 0 0 0 444.5,1147.7188 L584.5,1147.7188 A0,0 0 0 0 584.5,1147.7188 L584.5,947.5 L574.5,937.5 L444.5,937.5 A0,0 0 0 0 444.5,937.5 " fill="#FBFB77" filter="url(#fukpl349bqr07)" style="stroke: #A80036; stroke-width: 1.0;"/><path d="M574.5,937.5 L574.5,947.5 L584.5,947.5 L574.5,937.5 " fill="#FBFB77" style="stroke: #A80036; stroke-width: 1.0;"/><text fill="#000000" font-family="sans-serif" font-size="13" lengthAdjust="spacingAndGlyphs" textLength="75" x="450.5" y="955.9951">void m[1-4](){</text><text fill="#000000" font-family="sans-serif" font-size="13" lengthAdjust="spacingAndGlyphs" textLength="98" x="458.5" y="972.3467">// gestionar a y b</text><text fill="#000000" font-family="sans-serif" font-size="13" lengthAdjust="spacingAndGlyphs" textLength="74" x="458.5" y="988.6982">this.m[1-4]();</text><text fill="#000000" font-family="sans-serif" font-size="13" lengthAdjust="spacingAndGlyphs" textLength="98" x="458.5" y="1005.0498">// gestionar a y b</text><text fill="#000000" font-family="sans-serif" font-size="13" lengthAdjust="spacingAndGlyphs" textLength="4" x="450.5" y="1021.4014">}</text><text fill="#000000" font-family="sans-serif" font-size="13" lengthAdjust="spacingAndGlyphs" textLength="0" x="454.5" y="1037.7529"/><text fill="#000000" font-family="sans-serif" font-size="13" lengthAdjust="spacingAndGlyphs" textLength="113" x="450.5" y="1070.4561">void m6(Todo todo){</text><text fill="#000000" font-family="sans-serif" font-size="13" lengthAdjust="spacingAndGlyphs" textLength="98" x="458.5" y="1086.8076">// gestionar a y b</text><text fill="#000000" font-family="sans-serif" font-size="13" lengthAdjust="spacingAndGlyphs" textLength="59" x="458.5" y="1103.1592">todo.m7();</text><text fill="#000000" font-family="sans-serif" font-size="13" lengthAdjust="spacingAndGlyphs" textLength="98" x="458.5" y="1119.5107">// gestionar a y b</text><text fill="#000000" font-family="sans-serif" font-size="13" lengthAdjust="spacingAndGlyphs" textLength="4" x="450.5" y="1135.8623">}</text><line style="stroke: #A80036; stroke-width: 1.0; stroke-dasharray: 1.0,2.0;" x1="445.5" x2="469" y1="1048.7852" y2="1048.7852"/><text fill="#000000" font-family="sans-serif" font-size="13" lengthAdjust="spacingAndGlyphs" textLength="91" x="469" y="1053.6045">método plantilla</text><line style="stroke: #A80036; stroke-width: 1.0; stroke-dasharray: 1.0,2.0;" x1="560" x2="583.5" y1="1048.7852" y2="1048.7852"/><!--link Base to Derivada--><path d="M46.5,462.896 C46.5,588.923 46.5,798.519 46.5,927.858 " fill="none" id="Base-Derivada" style="stroke: #A80036; stroke-width: 1.0;"/><polygon fill="none" points="39.5001,462.654,46.5,442.654,53.5001,462.654,39.5001,462.654" style="stroke: #A80036; stroke-width: 1.0;"/><!--link Todo to Parte--><path d="M349.5,522.535 C349.5,659.549 349.5,848.633 349.5,956.669 " fill="none" id="Todo-Parte" style="stroke: #A80036; stroke-width: 1.0;"/><polygon fill="#A80036" points="349.5,969.754,353.5,960.754,349.5,964.754,345.5,960.754,349.5,969.754" style="stroke: #A80036; stroke-width: 1.0;"/><line style="stroke: #A80036; stroke-width: 1.0;" x1="349.5" x2="349.5" y1="964.754" y2="956.754"/><polygon fill="#A80036" points="349.5,509.338,345.5,515.338,349.5,521.338,353.5,515.338,349.5,509.338" style="stroke: #A80036; stroke-width: 1.0;"/><text fill="#000000" font-family="sans-serif" font-size="13" lengthAdjust="spacingAndGlyphs" textLength="52" x="350.5" y="748.4951">delegado</text><!--
@startuml
abstract class Base{
- A a
- B b
- void m1()
+ void m2()
+ void m3()
+ void m4()
+ {abstract} void m5()
+ void m6()
+ {abstract} void m7()
}
note right
void m[1-4](){
  // gestionar a y b
  this.m[1-4]();
  // gestionar a y b
}

.. método plantilla ..
void m6(){
  // gestionar a y b
  this.m7();
  // gestionar a y b
}
endnote

Base <|-down- Derivada

class Derivada{
- C c
- D d
== redefinidos ==
.. anulación ..
+ void m3()
.. refinamiento ..
+ void m4()
.. abstractos ..
+ void m5()
+ void m7()
== añadidos ==
+ void m8()
}
note right
== redefinidos ==

.. anulación ..
void m3(){
  // gestionar c y d
  this.m[1-8]();
  // gestionar c y d
}

.. refinamiento ..
void m4(){
  // gestionar c y d
  super.m4();
  // gestionar c y d
}

.. abstractos ..
void m[5,7](){
  // gestionar c y d
  this.m[1-8]();
  // gestionar c y d
}

== añadidos ==
void m8(){
  // gestionar c y d
  this.m[1-8]();
  // gestionar c y d
}

endnote

Todo *-down-> Parte : delegado

class Todo{
- C c
- D d
- Parte delegado
== delegados ==
+ void m2()
== "redefinidos" ==
.. "anulación" ..
+ void m3()
.. "refinamiento" ..
+ void m4()
.. abstractos ..
+ void m5()
+ void m7()
.. "metodo plantilla" ..
+ void m6()
== añadidos ==
+ void m8()
}
note right
== delegados ==
void m2(){
  delegado.m2();
}

== "redefinidos" ==
.. "anulación" ..
void m3(){
  // gestionar c, d y delegado
  this.m[1-8]();
  // gestionar c, d y delegado
}

.. "refinamiento" ..
void m4(){
  // gestionar c, d y delegado
  delegado.m4();
  // gestionar c, d y delegado
}

.. "abstractos" ..
void m[5,7](){
  // gestionar c, d y delegado
  this.m[1-8]();
  // gestionar c, d y delegado
}

.. "metodo plantilla" ..
void m6(){
  // gestionar c, d y delegado
  this.m7(this);
  // gestionar c, d y delegado
}

== "añadidos" ==
void m8(){
  // gestionar c, d y delegado
  this.m[1-8]();
  // gestionar c, d y delegado
}
endnote

class Parte {
- A a
- B b
- void m1()
+ void m2()
+ void m3()
+ void m4()
+ void m6(Todo todo)
}
note right
void m[1-4](){
  // gestionar a y b
  this.m[1-4]();
  // gestionar a y b
}

.. método plantilla ..
void m6(Todo todo){
  // gestionar a y b
  todo.m7();
  // gestionar a y b
}
endnote


@enduml

PlantUML version 1.2019.05(Sat Apr 20 18:45:36 CEST 2019)
(GPL source distribution)
Java Runtime: OpenJDK Runtime Environment
JVM: OpenJDK 64-Bit Server VM
Java Version: 1.8.0_222-b10
Operating System: Windows 10
OS Version: 10.0
Default Encoding: windows-1252
Language: es
Country: ES
--></g></svg>