<?xml version="1.0" encoding="UTF-8" standalone="no"?><svg xmlns="http://www.w3.org/2000/svg" xmlns:xlink="http://www.w3.org/1999/xlink" contentScriptType="application/ecmascript" contentStyleType="text/css" height="285px" preserveAspectRatio="none" style="width:464px;height:285px;" version="1.1" viewBox="0 0 464 285" width="464px" zoomAndPan="magnify"><defs><filter height="300%" id="f1kowor1u6nko6" width="300%" x="-1" y="-1"><feGaussianBlur result="blurOut" stdDeviation="2.0"/><feColorMatrix in="blurOut" result="blurOut2" type="matrix" values="0 0 0 0 0 0 0 0 0 0 0 0 0 0 0 0 0 0 .4 0"/><feOffset dx="4.0" dy="4.0" in="blurOut2" result="blurOut3"/><feBlend in="SourceGraphic" in2="blurOut3" mode="normal"/></filter></defs><g><!--class Cliente--><rect fill="#FEFECE" filter="url(#f1kowor1u6nko6)" height="48" id="Cliente" style="stroke: #A80036; stroke-width: 1.5;" width="71" x="155.5" y="8"/><ellipse cx="170.5" cy="24" fill="#ADD1B2" rx="11" ry="11" style="stroke: #A80036; stroke-width: 1.0;"/><path d="M173.2656,19.875 Q173.4219,19.6563 173.6094,19.5469 Q173.7969,19.4375 174.0156,19.4375 Q174.3906,19.4375 174.625,19.6953 Q174.8594,19.9531 174.8594,20.5625 L174.8594,22.0156 Q174.8594,22.625 174.625,22.8906 Q174.3906,23.1563 174.0156,23.1563 Q173.6719,23.1563 173.4688,22.9531 Q173.2656,22.7656 173.1563,22.25 Q173.1094,21.8906 172.9219,21.7031 Q172.5938,21.3281 171.9844,21.1094 Q171.375,20.8906 170.75,20.8906 Q169.9844,20.8906 169.3516,21.2188 Q168.7188,21.5469 168.2266,22.2969 Q167.7344,23.0469 167.7344,24.0781 L167.7344,25.1719 Q167.7344,26.4063 168.625,27.2266 Q169.5156,28.0469 171.1094,28.0469 Q172.0469,28.0469 172.7031,27.7969 Q173.0938,27.6406 173.5156,27.2031 Q173.7813,26.9375 173.9297,26.8594 Q174.0781,26.7813 174.2813,26.7813 Q174.6094,26.7813 174.8672,27.0391 Q175.125,27.2969 175.125,27.6406 Q175.125,27.9844 174.7813,28.3906 Q174.2813,28.9688 173.4844,29.2969 Q172.4063,29.75 171.1094,29.75 Q169.5938,29.75 168.3906,29.125 Q167.4063,28.625 166.7188,27.5547 Q166.0313,26.4844 166.0313,25.2031 L166.0313,24.0469 Q166.0313,22.7188 166.6484,21.5703 Q167.2656,20.4219 168.3594,19.8047 Q169.4531,19.1875 170.6875,19.1875 Q171.4219,19.1875 172.0703,19.3516 Q172.7188,19.5156 173.2656,19.875 Z "/><text fill="#000000" font-family="sans-serif" font-size="12" lengthAdjust="spacingAndGlyphs" textLength="39" x="184.5" y="28.9102">Cliente</text><line style="stroke: #A80036; stroke-width: 1.5;" x1="156.5" x2="225.5" y1="40" y2="40"/><line style="stroke: #A80036; stroke-width: 1.5;" x1="156.5" x2="225.5" y1="48" y2="48"/><path d="M261.5,19 L261.5,28 L226.664,32 L261.5,36 L261.5,45.3516 A0,0 0 0 0 261.5,45.3516 L452.5,45.3516 A0,0 0 0 0 452.5,45.3516 L452.5,29 L442.5,19 L261.5,19 A0,0 0 0 0 261.5,19 " fill="#FBFB77" filter="url(#f1kowor1u6nko6)" style="stroke: #A80036; stroke-width: 1.0;"/><path d="M442.5,19 L442.5,29 L452.5,29 L442.5,19 " fill="#FBFB77" style="stroke: #A80036; stroke-width: 1.0;"/><text fill="#000000" font-family="sans-serif" font-size="13" lengthAdjust="spacingAndGlyphs" textLength="170" x="267.5" y="37.4951">new Mujer(); รณ new Hombre();</text><!--class Hombre--><rect fill="#FEFECE" filter="url(#f1kowor1u6nko6)" height="158.6875" id="Hombre" style="stroke: #A80036; stroke-width: 1.5;" width="168" x="6" y="116"/><ellipse cx="63.25" cy="132" fill="#ADD1B2" rx="11" ry="11" style="stroke: #A80036; stroke-width: 1.0;"/><path d="M66.0156,127.875 Q66.1719,127.6563 66.3594,127.5469 Q66.5469,127.4375 66.7656,127.4375 Q67.1406,127.4375 67.375,127.6953 Q67.6094,127.9531 67.6094,128.5625 L67.6094,130.0156 Q67.6094,130.625 67.375,130.8906 Q67.1406,131.1563 66.7656,131.1563 Q66.4219,131.1563 66.2188,130.9531 Q66.0156,130.7656 65.9063,130.25 Q65.8594,129.8906 65.6719,129.7031 Q65.3438,129.3281 64.7344,129.1094 Q64.125,128.8906 63.5,128.8906 Q62.7344,128.8906 62.1016,129.2188 Q61.4688,129.5469 60.9766,130.2969 Q60.4844,131.0469 60.4844,132.0781 L60.4844,133.1719 Q60.4844,134.4063 61.375,135.2266 Q62.2656,136.0469 63.8594,136.0469 Q64.7969,136.0469 65.4531,135.7969 Q65.8438,135.6406 66.2656,135.2031 Q66.5313,134.9375 66.6797,134.8594 Q66.8281,134.7813 67.0313,134.7813 Q67.3594,134.7813 67.6172,135.0391 Q67.875,135.2969 67.875,135.6406 Q67.875,135.9844 67.5313,136.3906 Q67.0313,136.9688 66.2344,137.2969 Q65.1563,137.75 63.8594,137.75 Q62.3438,137.75 61.1406,137.125 Q60.1563,136.625 59.4688,135.5547 Q58.7813,134.4844 58.7813,133.2031 L58.7813,132.0469 Q58.7813,130.7188 59.3984,129.5703 Q60.0156,128.4219 61.1094,127.8047 Q62.2031,127.1875 63.4375,127.1875 Q64.1719,127.1875 64.8203,127.3516 Q65.4688,127.5156 66.0156,127.875 Z "/><text fill="#000000" font-family="sans-serif" font-size="12" lengthAdjust="spacingAndGlyphs" textLength="45" x="83.75" y="136.9102">Hombre</text><line style="stroke: #A80036; stroke-width: 1.5;" x1="7" x2="173" y1="148" y2="148"/><rect fill="none" height="6" style="stroke: #C82930; stroke-width: 1.0;" width="6" x="14" y="157.418"/><text fill="#000000" font-family="sans-serif" font-size="11" lengthAdjust="spacingAndGlyphs" textLength="79" x="26" y="163.4189">Cabeza cabeza;</text><rect fill="none" height="6" style="stroke: #C82930; stroke-width: 1.0;" width="6" x="14" y="171.2539"/><text fill="#000000" font-family="sans-serif" font-size="11" lengthAdjust="spacingAndGlyphs" textLength="71" x="26" y="177.2549">Tronco tronco;</text><rect fill="none" height="6" style="stroke: #C82930; stroke-width: 1.0;" width="6" x="14" y="185.0898"/><text fill="#000000" font-family="sans-serif" font-size="11" lengthAdjust="spacingAndGlyphs" textLength="142" x="26" y="191.0908">Extremidades[] extremidades;</text><rect fill="none" height="6" style="stroke: #C82930; stroke-width: 1.0;" width="6" x="14" y="198.9258"/><text fill="#000000" font-family="sans-serif" font-size="11" lengthAdjust="spacingAndGlyphs" textLength="54" x="26" y="204.9268">Pene pene;</text><line style="stroke: #A80036; stroke-width: 1.5;" x1="7" x2="173" y1="211.3438" y2="211.3438"/><ellipse cx="17" cy="223.7617" fill="#84BE84" rx="3" ry="3" style="stroke: #038048; stroke-width: 1.0;"/><text fill="#000000" font-family="sans-serif" font-size="11" lengthAdjust="spacingAndGlyphs" textLength="45" x="26" y="226.7627">Hombre()</text><ellipse cx="17" cy="237.5977" fill="#84BE84" rx="3" ry="3" style="stroke: #038048; stroke-width: 1.0;"/><text fill="#000000" font-family="sans-serif" font-size="11" lengthAdjust="spacingAndGlyphs" textLength="34" x="26" y="240.5986">bailar()</text><ellipse cx="17" cy="251.4336" fill="#84BE84" rx="3" ry="3" style="stroke: #038048; stroke-width: 1.0;"/><text fill="#000000" font-family="sans-serif" font-size="11" lengthAdjust="spacingAndGlyphs" textLength="41" x="26" y="254.4346">correr();</text><ellipse cx="17" cy="265.2695" fill="#84BE84" rx="3" ry="3" style="stroke: #038048; stroke-width: 1.0;"/><text fill="#000000" font-family="sans-serif" font-size="11" lengthAdjust="spacingAndGlyphs" textLength="57" x="26" y="268.2705">miccionar();</text><!--class Mujer--><rect fill="#FEFECE" filter="url(#f1kowor1u6nko6)" height="158.6875" id="Mujer" style="stroke: #A80036; stroke-width: 1.5;" width="168" x="209" y="116"/><ellipse cx="273.75" cy="132" fill="#ADD1B2" rx="11" ry="11" style="stroke: #A80036; stroke-width: 1.0;"/><path d="M276.5156,127.875 Q276.6719,127.6563 276.8594,127.5469 Q277.0469,127.4375 277.2656,127.4375 Q277.6406,127.4375 277.875,127.6953 Q278.1094,127.9531 278.1094,128.5625 L278.1094,130.0156 Q278.1094,130.625 277.875,130.8906 Q277.6406,131.1563 277.2656,131.1563 Q276.9219,131.1563 276.7188,130.9531 Q276.5156,130.7656 276.4063,130.25 Q276.3594,129.8906 276.1719,129.7031 Q275.8438,129.3281 275.2344,129.1094 Q274.625,128.8906 274,128.8906 Q273.2344,128.8906 272.6016,129.2188 Q271.9688,129.5469 271.4766,130.2969 Q270.9844,131.0469 270.9844,132.0781 L270.9844,133.1719 Q270.9844,134.4063 271.875,135.2266 Q272.7656,136.0469 274.3594,136.0469 Q275.2969,136.0469 275.9531,135.7969 Q276.3438,135.6406 276.7656,135.2031 Q277.0313,134.9375 277.1797,134.8594 Q277.3281,134.7813 277.5313,134.7813 Q277.8594,134.7813 278.1172,135.0391 Q278.375,135.2969 278.375,135.6406 Q278.375,135.9844 278.0313,136.3906 Q277.5313,136.9688 276.7344,137.2969 Q275.6563,137.75 274.3594,137.75 Q272.8438,137.75 271.6406,137.125 Q270.6563,136.625 269.9688,135.5547 Q269.2813,134.4844 269.2813,133.2031 L269.2813,132.0469 Q269.2813,130.7188 269.8984,129.5703 Q270.5156,128.4219 271.6094,127.8047 Q272.7031,127.1875 273.9375,127.1875 Q274.6719,127.1875 275.3203,127.3516 Q275.9688,127.5156 276.5156,127.875 Z "/><text fill="#000000" font-family="sans-serif" font-size="12" lengthAdjust="spacingAndGlyphs" textLength="30" x="294.25" y="136.9102">Mujer</text><line style="stroke: #A80036; stroke-width: 1.5;" x1="210" x2="376" y1="148" y2="148"/><rect fill="none" height="6" style="stroke: #C82930; stroke-width: 1.0;" width="6" x="217" y="157.418"/><text fill="#000000" font-family="sans-serif" font-size="11" lengthAdjust="spacingAndGlyphs" textLength="79" x="229" y="163.4189">Cabeza cabeza;</text><rect fill="none" height="6" style="stroke: #C82930; stroke-width: 1.0;" width="6" x="217" y="171.2539"/><text fill="#000000" font-family="sans-serif" font-size="11" lengthAdjust="spacingAndGlyphs" textLength="71" x="229" y="177.2549">Tronco tronco;</text><rect fill="none" height="6" style="stroke: #C82930; stroke-width: 1.0;" width="6" x="217" y="185.0898"/><text fill="#000000" font-family="sans-serif" font-size="11" lengthAdjust="spacingAndGlyphs" textLength="142" x="229" y="191.0908">Extremidades[] extremidades;</text><rect fill="none" height="6" style="stroke: #C82930; stroke-width: 1.0;" width="6" x="217" y="198.9258"/><text fill="#000000" font-family="sans-serif" font-size="11" lengthAdjust="spacingAndGlyphs" textLength="72" x="229" y="204.9268">Vagina vagina;</text><line style="stroke: #A80036; stroke-width: 1.5;" x1="210" x2="376" y1="211.3438" y2="211.3438"/><ellipse cx="220" cy="223.7617" fill="#84BE84" rx="3" ry="3" style="stroke: #038048; stroke-width: 1.0;"/><text fill="#000000" font-family="sans-serif" font-size="11" lengthAdjust="spacingAndGlyphs" textLength="34" x="229" y="226.7627">Mujer()</text><ellipse cx="220" cy="237.5977" fill="#84BE84" rx="3" ry="3" style="stroke: #038048; stroke-width: 1.0;"/><text fill="#000000" font-family="sans-serif" font-size="11" lengthAdjust="spacingAndGlyphs" textLength="34" x="229" y="240.5986">bailar()</text><ellipse cx="220" cy="251.4336" fill="#84BE84" rx="3" ry="3" style="stroke: #038048; stroke-width: 1.0;"/><text fill="#000000" font-family="sans-serif" font-size="11" lengthAdjust="spacingAndGlyphs" textLength="41" x="229" y="254.4346">correr();</text><ellipse cx="220" cy="265.2695" fill="#84BE84" rx="3" ry="3" style="stroke: #038048; stroke-width: 1.0;"/><text fill="#000000" font-family="sans-serif" font-size="11" lengthAdjust="spacingAndGlyphs" textLength="57" x="229" y="268.2705">miccionar();</text><!--link Cliente to Hombre--><path d="M176.529,56.139 C167.261,70.959 154.615,91.18 141.853,111.586 " fill="none" id="Cliente-Hombre" style="stroke: #A80036; stroke-width: 1.0;"/><polygon fill="#A80036" points="139.129,115.942,147.2918,110.4312,141.7796,111.7024,140.5085,106.1902,139.129,115.942" style="stroke: #A80036; stroke-width: 1.0;"/><!--link Cliente to Mujer--><path d="M205.614,56.139 C214.974,70.959 227.746,91.18 240.634,111.586 " fill="none" id="Cliente-Mujer" style="stroke: #A80036; stroke-width: 1.0;"/><polygon fill="#A80036" points="243.384,115.942,241.9596,106.1967,240.7139,111.7147,235.1959,110.4689,243.384,115.942" style="stroke: #A80036; stroke-width: 1.0;"/><!--
@startuml
class Cliente
note right
new Mujer(); รณ new Hombre();
endnote

Cliente - -> Hombre
Cliente - -> Mujer

class Hombre {
- Cabeza cabeza;
- Tronco tronco;
- Extremidades[] extremidades;
- Pene pene;
+ Hombre()
+ bailar()
+ correr();
+ miccionar();
}

class Mujer {
- Cabeza cabeza;
- Tronco tronco;
- Extremidades[] extremidades;
- Vagina vagina;
+ Mujer()
+ bailar()
+ correr();
+ miccionar();
}

@enduml

PlantUML version 1.2019.05(Sat Apr 20 18:45:36 CEST 2019)
(GPL source distribution)
Java Runtime: OpenJDK Runtime Environment
JVM: OpenJDK 64-Bit Server VM
Java Version: 1.8.0_222-b10
Operating System: Windows 10
OS Version: 10.0
Default Encoding: windows-1252
Language: es
Country: ES
--></g></svg>