<?xml version="1.0" encoding="UTF-8" standalone="no"?><svg xmlns="http://www.w3.org/2000/svg" xmlns:xlink="http://www.w3.org/1999/xlink" contentScriptType="application/ecmascript" contentStyleType="text/css" height="283px" preserveAspectRatio="none" style="width:138px;height:283px;" version="1.1" viewBox="0 0 138 283" width="138px" zoomAndPan="magnify"><defs><filter height="300%" id="fhyndohoqrgtg" width="300%" x="-1" y="-1"><feGaussianBlur result="blurOut" stdDeviation="2.0"/><feColorMatrix in="blurOut" result="blurOut2" type="matrix" values="0 0 0 0 0 0 0 0 0 0 0 0 0 0 0 0 0 0 .4 0"/><feOffset dx="4.0" dy="4.0" in="blurOut2" result="blurOut3"/><feBlend in="SourceGraphic" in2="blurOut3" mode="normal"/></filter></defs><g><!--class P--><rect fill="#FEFECE" filter="url(#fhyndohoqrgtg)" height="48" id="P" style="stroke: #A80036; stroke-width: 1.5;" width="40" x="44.5" y="8"/><ellipse cx="59.5" cy="24" fill="#ADD1B2" rx="11" ry="11" style="stroke: #A80036; stroke-width: 1.0;"/><path d="M62.2656,19.875 Q62.4219,19.6563 62.6094,19.5469 Q62.7969,19.4375 63.0156,19.4375 Q63.3906,19.4375 63.625,19.6953 Q63.8594,19.9531 63.8594,20.5625 L63.8594,22.0156 Q63.8594,22.625 63.625,22.8906 Q63.3906,23.1563 63.0156,23.1563 Q62.6719,23.1563 62.4688,22.9531 Q62.2656,22.7656 62.1563,22.25 Q62.1094,21.8906 61.9219,21.7031 Q61.5938,21.3281 60.9844,21.1094 Q60.375,20.8906 59.75,20.8906 Q58.9844,20.8906 58.3516,21.2188 Q57.7188,21.5469 57.2266,22.2969 Q56.7344,23.0469 56.7344,24.0781 L56.7344,25.1719 Q56.7344,26.4063 57.625,27.2266 Q58.5156,28.0469 60.1094,28.0469 Q61.0469,28.0469 61.7031,27.7969 Q62.0938,27.6406 62.5156,27.2031 Q62.7813,26.9375 62.9297,26.8594 Q63.0781,26.7813 63.2813,26.7813 Q63.6094,26.7813 63.8672,27.0391 Q64.125,27.2969 64.125,27.6406 Q64.125,27.9844 63.7813,28.3906 Q63.2813,28.9688 62.4844,29.2969 Q61.4063,29.75 60.1094,29.75 Q58.5938,29.75 57.3906,29.125 Q56.4063,28.625 55.7188,27.5547 Q55.0313,26.4844 55.0313,25.2031 L55.0313,24.0469 Q55.0313,22.7188 55.6484,21.5703 Q56.2656,20.4219 57.3594,19.8047 Q58.4531,19.1875 59.6875,19.1875 Q60.4219,19.1875 61.0703,19.3516 Q61.7188,19.5156 62.2656,19.875 Z "/><text fill="#000000" font-family="sans-serif" font-size="12" lengthAdjust="spacingAndGlyphs" textLength="8" x="73.5" y="28.9102">P</text><line style="stroke: #A80036; stroke-width: 1.5;" x1="45.5" x2="83.5" y1="40" y2="40"/><line style="stroke: #A80036; stroke-width: 1.5;" x1="45.5" x2="83.5" y1="48" y2="48"/><!--class T--><rect fill="#FEFECE" filter="url(#fhyndohoqrgtg)" height="48" id="T" style="stroke: #A80036; stroke-width: 1.5;" width="39" x="6" y="116"/><ellipse cx="21" cy="132" fill="#ADD1B2" rx="11" ry="11" style="stroke: #A80036; stroke-width: 1.0;"/><path d="M23.7656,127.875 Q23.9219,127.6563 24.1094,127.5469 Q24.2969,127.4375 24.5156,127.4375 Q24.8906,127.4375 25.125,127.6953 Q25.3594,127.9531 25.3594,128.5625 L25.3594,130.0156 Q25.3594,130.625 25.125,130.8906 Q24.8906,131.1563 24.5156,131.1563 Q24.1719,131.1563 23.9688,130.9531 Q23.7656,130.7656 23.6563,130.25 Q23.6094,129.8906 23.4219,129.7031 Q23.0938,129.3281 22.4844,129.1094 Q21.875,128.8906 21.25,128.8906 Q20.4844,128.8906 19.8516,129.2188 Q19.2188,129.5469 18.7266,130.2969 Q18.2344,131.0469 18.2344,132.0781 L18.2344,133.1719 Q18.2344,134.4063 19.125,135.2266 Q20.0156,136.0469 21.6094,136.0469 Q22.5469,136.0469 23.2031,135.7969 Q23.5938,135.6406 24.0156,135.2031 Q24.2813,134.9375 24.4297,134.8594 Q24.5781,134.7813 24.7813,134.7813 Q25.1094,134.7813 25.3672,135.0391 Q25.625,135.2969 25.625,135.6406 Q25.625,135.9844 25.2813,136.3906 Q24.7813,136.9688 23.9844,137.2969 Q22.9063,137.75 21.6094,137.75 Q20.0938,137.75 18.8906,137.125 Q17.9063,136.625 17.2188,135.5547 Q16.5313,134.4844 16.5313,133.2031 L16.5313,132.0469 Q16.5313,130.7188 17.1484,129.5703 Q17.7656,128.4219 18.8594,127.8047 Q19.9531,127.1875 21.1875,127.1875 Q21.9219,127.1875 22.5703,127.3516 Q23.2188,127.5156 23.7656,127.875 Z "/><text fill="#000000" font-family="sans-serif" font-size="12" lengthAdjust="spacingAndGlyphs" textLength="7" x="35" y="136.9102">T</text><line style="stroke: #A80036; stroke-width: 1.5;" x1="7" x2="44" y1="148" y2="148"/><line style="stroke: #A80036; stroke-width: 1.5;" x1="7" x2="44" y1="156" y2="156"/><!--class S--><rect fill="#FEFECE" filter="url(#fhyndohoqrgtg)" height="48" id="S" style="stroke: #A80036; stroke-width: 1.5;" width="40" x="44.5" y="224"/><ellipse cx="59.5" cy="240" fill="#ADD1B2" rx="11" ry="11" style="stroke: #A80036; stroke-width: 1.0;"/><path d="M62.2656,235.875 Q62.4219,235.6563 62.6094,235.5469 Q62.7969,235.4375 63.0156,235.4375 Q63.3906,235.4375 63.625,235.6953 Q63.8594,235.9531 63.8594,236.5625 L63.8594,238.0156 Q63.8594,238.625 63.625,238.8906 Q63.3906,239.1563 63.0156,239.1563 Q62.6719,239.1563 62.4688,238.9531 Q62.2656,238.7656 62.1563,238.25 Q62.1094,237.8906 61.9219,237.7031 Q61.5938,237.3281 60.9844,237.1094 Q60.375,236.8906 59.75,236.8906 Q58.9844,236.8906 58.3516,237.2188 Q57.7188,237.5469 57.2266,238.2969 Q56.7344,239.0469 56.7344,240.0781 L56.7344,241.1719 Q56.7344,242.4063 57.625,243.2266 Q58.5156,244.0469 60.1094,244.0469 Q61.0469,244.0469 61.7031,243.7969 Q62.0938,243.6406 62.5156,243.2031 Q62.7813,242.9375 62.9297,242.8594 Q63.0781,242.7813 63.2813,242.7813 Q63.6094,242.7813 63.8672,243.0391 Q64.125,243.2969 64.125,243.6406 Q64.125,243.9844 63.7813,244.3906 Q63.2813,244.9688 62.4844,245.2969 Q61.4063,245.75 60.1094,245.75 Q58.5938,245.75 57.3906,245.125 Q56.4063,244.625 55.7188,243.5547 Q55.0313,242.4844 55.0313,241.2031 L55.0313,240.0469 Q55.0313,238.7188 55.6484,237.5703 Q56.2656,236.4219 57.3594,235.8047 Q58.4531,235.1875 59.6875,235.1875 Q60.4219,235.1875 61.0703,235.3516 Q61.7188,235.5156 62.2656,235.875 Z "/><text fill="#000000" font-family="sans-serif" font-size="12" lengthAdjust="spacingAndGlyphs" textLength="8" x="73.5" y="244.9102">S</text><line style="stroke: #A80036; stroke-width: 1.5;" x1="45.5" x2="83.5" y1="256" y2="256"/><line style="stroke: #A80036; stroke-width: 1.5;" x1="45.5" x2="83.5" y1="264" y2="264"/><!--class oS--><rect fill="#FEFECE" filter="url(#fhyndohoqrgtg)" height="48" id="oS" style="stroke: #A80036; stroke-width: 1.5;" width="47" x="80" y="116"/><ellipse cx="95" cy="132" fill="#ADD1B2" rx="11" ry="11" style="stroke: #A80036; stroke-width: 1.0;"/><path d="M97.7656,127.875 Q97.9219,127.6563 98.1094,127.5469 Q98.2969,127.4375 98.5156,127.4375 Q98.8906,127.4375 99.125,127.6953 Q99.3594,127.9531 99.3594,128.5625 L99.3594,130.0156 Q99.3594,130.625 99.125,130.8906 Q98.8906,131.1563 98.5156,131.1563 Q98.1719,131.1563 97.9688,130.9531 Q97.7656,130.7656 97.6563,130.25 Q97.6094,129.8906 97.4219,129.7031 Q97.0938,129.3281 96.4844,129.1094 Q95.875,128.8906 95.25,128.8906 Q94.4844,128.8906 93.8516,129.2188 Q93.2188,129.5469 92.7266,130.2969 Q92.2344,131.0469 92.2344,132.0781 L92.2344,133.1719 Q92.2344,134.4063 93.125,135.2266 Q94.0156,136.0469 95.6094,136.0469 Q96.5469,136.0469 97.2031,135.7969 Q97.5938,135.6406 98.0156,135.2031 Q98.2813,134.9375 98.4297,134.8594 Q98.5781,134.7813 98.7813,134.7813 Q99.1094,134.7813 99.3672,135.0391 Q99.625,135.2969 99.625,135.6406 Q99.625,135.9844 99.2813,136.3906 Q98.7813,136.9688 97.9844,137.2969 Q96.9063,137.75 95.6094,137.75 Q94.0938,137.75 92.8906,137.125 Q91.9063,136.625 91.2188,135.5547 Q90.5313,134.4844 90.5313,133.2031 L90.5313,132.0469 Q90.5313,130.7188 91.1484,129.5703 Q91.7656,128.4219 92.8594,127.8047 Q93.9531,127.1875 95.1875,127.1875 Q95.9219,127.1875 96.5703,127.3516 Q97.2188,127.5156 97.7656,127.875 Z "/><text fill="#000000" font-family="sans-serif" font-size="12" lengthAdjust="spacingAndGlyphs" textLength="15" x="109" y="136.9102">oS</text><line style="stroke: #A80036; stroke-width: 1.5;" x1="81" x2="126" y1="148" y2="148"/><line style="stroke: #A80036; stroke-width: 1.5;" x1="81" x2="126" y1="156" y2="156"/><!--link P to T--><path d="M51.4749,68.402 C47.3582,79.59 42.8072,91.96 38.6798,103.178 " fill="none" id="P-T" style="stroke: #A80036; stroke-width: 1.0;"/><polygon fill="#A80036" points="34.0806,115.678,40.9421,108.6126,35.807,110.9855,33.4341,105.8504,34.0806,115.678" style="stroke: #A80036; stroke-width: 1.0;"/><line style="stroke: #A80036; stroke-width: 1.0;" x1="35.807" x2="38.5694" y1="110.9855" y2="103.478"/><polygon fill="#A80036" points="56.0376,56,50.2119,60.2499,51.8943,67.262,57.7199,63.0121,56.0376,56" style="stroke: #A80036; stroke-width: 1.0;"/><!--link T to S--><path d="M40.9738,183.0569 C46.063,196.8891 51.5347,211.7609 55.9194,223.6784 " fill="none" id="T-S" style="stroke: #A80036; stroke-width: 1.0;"/><polygon fill="none" points="34.2989,185.1874,33.9624,164,47.4378,180.3532,34.2989,185.1874" style="stroke: #A80036; stroke-width: 1.0;"/><!--link P to oS--><path d="M72.9624,56 C78.9009,72.141 86.8758,93.816 93.1866,110.969 " fill="none" id="P-oS" style="stroke: #A80036; stroke-width: 1.0; stroke-dasharray: 7.0,7.0;"/><polygon fill="#A80036" points="94.9194,115.678,95.5671,105.8505,93.1936,110.9853,88.0588,108.6118,94.9194,115.678" style="stroke: #A80036; stroke-width: 1.0;"/><!--link oS to S--><path d="M95.0376,164 C89.0991,180.1409 81.1242,201.8162 74.8134,218.9688 " fill="none" id="oS-S" style="stroke: #A80036; stroke-width: 1.0; stroke-dasharray: 7.0,7.0;"/><polygon fill="#A80036" points="73.0806,223.6784,79.9422,216.6131,74.807,218.9859,72.4342,213.8508,73.0806,223.6784" style="stroke: #A80036; stroke-width: 1.0;"/><!--
@startuml
class P
P *-down-> T


class T
class S

T <|-down- S

P .down.> oS

oS..> S

@enduml

PlantUML version 1.2019.05(Sat Apr 20 18:45:36 CEST 2019)
(GPL source distribution)
Java Runtime: OpenJDK Runtime Environment
JVM: OpenJDK 64-Bit Server VM
Java Version: 1.8.0_222-b10
Operating System: Windows 10
OS Version: 10.0
Default Encoding: windows-1252
Language: es
Country: ES
--></g></svg>