<?xml version="1.0" encoding="UTF-8" standalone="no"?><svg xmlns="http://www.w3.org/2000/svg" xmlns:xlink="http://www.w3.org/1999/xlink" contentScriptType="application/ecmascript" contentStyleType="text/css" height="283px" preserveAspectRatio="none" style="width:1054px;height:283px;" version="1.1" viewBox="0 0 1054 283" width="1054px" zoomAndPan="magnify"><defs><filter height="300%" id="f1mydzzn3bdknm" width="300%" x="-1" y="-1"><feGaussianBlur result="blurOut" stdDeviation="2.0"/><feColorMatrix in="blurOut" result="blurOut2" type="matrix" values="0 0 0 0 0 0 0 0 0 0 0 0 0 0 0 0 0 0 .4 0"/><feOffset dx="4.0" dy="4.0" in="blurOut2" result="blurOut3"/><feBlend in="SourceGraphic" in2="blurOut3" mode="normal"/></filter></defs><g><!--class Paciente--><rect fill="#FEFECE" filter="url(#f1mydzzn3bdknm)" height="48" id="Paciente" style="stroke: #A80036; stroke-width: 1.5;" width="80" x="488.5" y="8"/><ellipse cx="503.5" cy="24" fill="#ADD1B2" rx="11" ry="11" style="stroke: #A80036; stroke-width: 1.0;"/><path d="M506.2656,19.875 Q506.4219,19.6563 506.6094,19.5469 Q506.7969,19.4375 507.0156,19.4375 Q507.3906,19.4375 507.625,19.6953 Q507.8594,19.9531 507.8594,20.5625 L507.8594,22.0156 Q507.8594,22.625 507.625,22.8906 Q507.3906,23.1563 507.0156,23.1563 Q506.6719,23.1563 506.4688,22.9531 Q506.2656,22.7656 506.1563,22.25 Q506.1094,21.8906 505.9219,21.7031 Q505.5938,21.3281 504.9844,21.1094 Q504.375,20.8906 503.75,20.8906 Q502.9844,20.8906 502.3516,21.2188 Q501.7188,21.5469 501.2266,22.2969 Q500.7344,23.0469 500.7344,24.0781 L500.7344,25.1719 Q500.7344,26.4063 501.625,27.2266 Q502.5156,28.0469 504.1094,28.0469 Q505.0469,28.0469 505.7031,27.7969 Q506.0938,27.6406 506.5156,27.2031 Q506.7813,26.9375 506.9297,26.8594 Q507.0781,26.7813 507.2813,26.7813 Q507.6094,26.7813 507.8672,27.0391 Q508.125,27.2969 508.125,27.6406 Q508.125,27.9844 507.7813,28.3906 Q507.2813,28.9688 506.4844,29.2969 Q505.4063,29.75 504.1094,29.75 Q502.5938,29.75 501.3906,29.125 Q500.4063,28.625 499.7188,27.5547 Q499.0313,26.4844 499.0313,25.2031 L499.0313,24.0469 Q499.0313,22.7188 499.6484,21.5703 Q500.2656,20.4219 501.3594,19.8047 Q502.4531,19.1875 503.6875,19.1875 Q504.4219,19.1875 505.0703,19.3516 Q505.7188,19.5156 506.2656,19.875 Z "/><text fill="#000000" font-family="sans-serif" font-size="12" lengthAdjust="spacingAndGlyphs" textLength="48" x="517.5" y="28.9102">Paciente</text><line style="stroke: #A80036; stroke-width: 1.5;" x1="489.5" x2="567.5" y1="40" y2="40"/><line style="stroke: #A80036; stroke-width: 1.5;" x1="489.5" x2="567.5" y1="48" y2="48"/><!--class PacienteSeguroPublico--><rect fill="#FEFECE" filter="url(#f1mydzzn3bdknm)" height="48" id="PacienteSeguroPublico" style="stroke: #A80036; stroke-width: 1.5;" width="161" x="314" y="116"/><ellipse cx="329" cy="132" fill="#ADD1B2" rx="11" ry="11" style="stroke: #A80036; stroke-width: 1.0;"/><path d="M331.7656,127.875 Q331.9219,127.6563 332.1094,127.5469 Q332.2969,127.4375 332.5156,127.4375 Q332.8906,127.4375 333.125,127.6953 Q333.3594,127.9531 333.3594,128.5625 L333.3594,130.0156 Q333.3594,130.625 333.125,130.8906 Q332.8906,131.1563 332.5156,131.1563 Q332.1719,131.1563 331.9688,130.9531 Q331.7656,130.7656 331.6563,130.25 Q331.6094,129.8906 331.4219,129.7031 Q331.0938,129.3281 330.4844,129.1094 Q329.875,128.8906 329.25,128.8906 Q328.4844,128.8906 327.8516,129.2188 Q327.2188,129.5469 326.7266,130.2969 Q326.2344,131.0469 326.2344,132.0781 L326.2344,133.1719 Q326.2344,134.4063 327.125,135.2266 Q328.0156,136.0469 329.6094,136.0469 Q330.5469,136.0469 331.2031,135.7969 Q331.5938,135.6406 332.0156,135.2031 Q332.2813,134.9375 332.4297,134.8594 Q332.5781,134.7813 332.7813,134.7813 Q333.1094,134.7813 333.3672,135.0391 Q333.625,135.2969 333.625,135.6406 Q333.625,135.9844 333.2813,136.3906 Q332.7813,136.9688 331.9844,137.2969 Q330.9063,137.75 329.6094,137.75 Q328.0938,137.75 326.8906,137.125 Q325.9063,136.625 325.2188,135.5547 Q324.5313,134.4844 324.5313,133.2031 L324.5313,132.0469 Q324.5313,130.7188 325.1484,129.5703 Q325.7656,128.4219 326.8594,127.8047 Q327.9531,127.1875 329.1875,127.1875 Q329.9219,127.1875 330.5703,127.3516 Q331.2188,127.5156 331.7656,127.875 Z "/><text fill="#000000" font-family="sans-serif" font-size="12" lengthAdjust="spacingAndGlyphs" textLength="129" x="343" y="136.9102">PacienteSeguroPublico</text><line style="stroke: #A80036; stroke-width: 1.5;" x1="315" x2="474" y1="148" y2="148"/><line style="stroke: #A80036; stroke-width: 1.5;" x1="315" x2="474" y1="156" y2="156"/><!--class PacienteSeguroPrivado--><rect fill="#FEFECE" filter="url(#f1mydzzn3bdknm)" height="48" id="PacienteSeguroPrivado" style="stroke: #A80036; stroke-width: 1.5;" width="161" x="582" y="116"/><ellipse cx="597" cy="132" fill="#ADD1B2" rx="11" ry="11" style="stroke: #A80036; stroke-width: 1.0;"/><path d="M599.7656,127.875 Q599.9219,127.6563 600.1094,127.5469 Q600.2969,127.4375 600.5156,127.4375 Q600.8906,127.4375 601.125,127.6953 Q601.3594,127.9531 601.3594,128.5625 L601.3594,130.0156 Q601.3594,130.625 601.125,130.8906 Q600.8906,131.1563 600.5156,131.1563 Q600.1719,131.1563 599.9688,130.9531 Q599.7656,130.7656 599.6563,130.25 Q599.6094,129.8906 599.4219,129.7031 Q599.0938,129.3281 598.4844,129.1094 Q597.875,128.8906 597.25,128.8906 Q596.4844,128.8906 595.8516,129.2188 Q595.2188,129.5469 594.7266,130.2969 Q594.2344,131.0469 594.2344,132.0781 L594.2344,133.1719 Q594.2344,134.4063 595.125,135.2266 Q596.0156,136.0469 597.6094,136.0469 Q598.5469,136.0469 599.2031,135.7969 Q599.5938,135.6406 600.0156,135.2031 Q600.2813,134.9375 600.4297,134.8594 Q600.5781,134.7813 600.7813,134.7813 Q601.1094,134.7813 601.3672,135.0391 Q601.625,135.2969 601.625,135.6406 Q601.625,135.9844 601.2813,136.3906 Q600.7813,136.9688 599.9844,137.2969 Q598.9063,137.75 597.6094,137.75 Q596.0938,137.75 594.8906,137.125 Q593.9063,136.625 593.2188,135.5547 Q592.5313,134.4844 592.5313,133.2031 L592.5313,132.0469 Q592.5313,130.7188 593.1484,129.5703 Q593.7656,128.4219 594.8594,127.8047 Q595.9531,127.1875 597.1875,127.1875 Q597.9219,127.1875 598.5703,127.3516 Q599.2188,127.5156 599.7656,127.875 Z "/><text fill="#000000" font-family="sans-serif" font-size="12" lengthAdjust="spacingAndGlyphs" textLength="129" x="611" y="136.9102">PacienteSeguroPrivado</text><line style="stroke: #A80036; stroke-width: 1.5;" x1="583" x2="742" y1="148" y2="148"/><line style="stroke: #A80036; stroke-width: 1.5;" x1="583" x2="742" y1="156" y2="156"/><!--class PacienteSeguroPublicoTraumatologia--><rect fill="#FEFECE" filter="url(#f1mydzzn3bdknm)" height="48" id="PacienteSeguroPublicoTraumatologia" style="stroke: #A80036; stroke-width: 1.5;" width="241" x="6" y="224"/><ellipse cx="21" cy="240" fill="#ADD1B2" rx="11" ry="11" style="stroke: #A80036; stroke-width: 1.0;"/><path d="M23.7656,235.875 Q23.9219,235.6563 24.1094,235.5469 Q24.2969,235.4375 24.5156,235.4375 Q24.8906,235.4375 25.125,235.6953 Q25.3594,235.9531 25.3594,236.5625 L25.3594,238.0156 Q25.3594,238.625 25.125,238.8906 Q24.8906,239.1563 24.5156,239.1563 Q24.1719,239.1563 23.9688,238.9531 Q23.7656,238.7656 23.6563,238.25 Q23.6094,237.8906 23.4219,237.7031 Q23.0938,237.3281 22.4844,237.1094 Q21.875,236.8906 21.25,236.8906 Q20.4844,236.8906 19.8516,237.2188 Q19.2188,237.5469 18.7266,238.2969 Q18.2344,239.0469 18.2344,240.0781 L18.2344,241.1719 Q18.2344,242.4063 19.125,243.2266 Q20.0156,244.0469 21.6094,244.0469 Q22.5469,244.0469 23.2031,243.7969 Q23.5938,243.6406 24.0156,243.2031 Q24.2813,242.9375 24.4297,242.8594 Q24.5781,242.7813 24.7813,242.7813 Q25.1094,242.7813 25.3672,243.0391 Q25.625,243.2969 25.625,243.6406 Q25.625,243.9844 25.2813,244.3906 Q24.7813,244.9688 23.9844,245.2969 Q22.9063,245.75 21.6094,245.75 Q20.0938,245.75 18.8906,245.125 Q17.9063,244.625 17.2188,243.5547 Q16.5313,242.4844 16.5313,241.2031 L16.5313,240.0469 Q16.5313,238.7188 17.1484,237.5703 Q17.7656,236.4219 18.8594,235.8047 Q19.9531,235.1875 21.1875,235.1875 Q21.9219,235.1875 22.5703,235.3516 Q23.2188,235.5156 23.7656,235.875 Z "/><text fill="#000000" font-family="sans-serif" font-size="12" lengthAdjust="spacingAndGlyphs" textLength="209" x="35" y="244.9102">PacienteSeguroPublicoTraumatologia</text><line style="stroke: #A80036; stroke-width: 1.5;" x1="7" x2="246" y1="256" y2="256"/><line style="stroke: #A80036; stroke-width: 1.5;" x1="7" x2="246" y1="264" y2="264"/><!--class PacienteSeguroPublicoCardiología--><rect fill="#FEFECE" filter="url(#f1mydzzn3bdknm)" height="48" id="PacienteSeguroPublicoCardiología" style="stroke: #A80036; stroke-width: 1.5;" width="225" x="282" y="224"/><ellipse cx="297" cy="240" fill="#ADD1B2" rx="11" ry="11" style="stroke: #A80036; stroke-width: 1.0;"/><path d="M299.7656,235.875 Q299.9219,235.6563 300.1094,235.5469 Q300.2969,235.4375 300.5156,235.4375 Q300.8906,235.4375 301.125,235.6953 Q301.3594,235.9531 301.3594,236.5625 L301.3594,238.0156 Q301.3594,238.625 301.125,238.8906 Q300.8906,239.1563 300.5156,239.1563 Q300.1719,239.1563 299.9688,238.9531 Q299.7656,238.7656 299.6563,238.25 Q299.6094,237.8906 299.4219,237.7031 Q299.0938,237.3281 298.4844,237.1094 Q297.875,236.8906 297.25,236.8906 Q296.4844,236.8906 295.8516,237.2188 Q295.2188,237.5469 294.7266,238.2969 Q294.2344,239.0469 294.2344,240.0781 L294.2344,241.1719 Q294.2344,242.4063 295.125,243.2266 Q296.0156,244.0469 297.6094,244.0469 Q298.5469,244.0469 299.2031,243.7969 Q299.5938,243.6406 300.0156,243.2031 Q300.2813,242.9375 300.4297,242.8594 Q300.5781,242.7813 300.7813,242.7813 Q301.1094,242.7813 301.3672,243.0391 Q301.625,243.2969 301.625,243.6406 Q301.625,243.9844 301.2813,244.3906 Q300.7813,244.9688 299.9844,245.2969 Q298.9063,245.75 297.6094,245.75 Q296.0938,245.75 294.8906,245.125 Q293.9063,244.625 293.2188,243.5547 Q292.5313,242.4844 292.5313,241.2031 L292.5313,240.0469 Q292.5313,238.7188 293.1484,237.5703 Q293.7656,236.4219 294.8594,235.8047 Q295.9531,235.1875 297.1875,235.1875 Q297.9219,235.1875 298.5703,235.3516 Q299.2188,235.5156 299.7656,235.875 Z "/><text fill="#000000" font-family="sans-serif" font-size="12" lengthAdjust="spacingAndGlyphs" textLength="193" x="311" y="244.9102">PacienteSeguroPublicoCardiología</text><line style="stroke: #A80036; stroke-width: 1.5;" x1="283" x2="506" y1="256" y2="256"/><line style="stroke: #A80036; stroke-width: 1.5;" x1="283" x2="506" y1="264" y2="264"/><!--class PacienteSeguroPrivadoTraumatologia--><rect fill="#FEFECE" filter="url(#f1mydzzn3bdknm)" height="48" id="PacienteSeguroPrivadoTraumatologia" style="stroke: #A80036; stroke-width: 1.5;" width="241" x="542" y="224"/><ellipse cx="557" cy="240" fill="#ADD1B2" rx="11" ry="11" style="stroke: #A80036; stroke-width: 1.0;"/><path d="M559.7656,235.875 Q559.9219,235.6563 560.1094,235.5469 Q560.2969,235.4375 560.5156,235.4375 Q560.8906,235.4375 561.125,235.6953 Q561.3594,235.9531 561.3594,236.5625 L561.3594,238.0156 Q561.3594,238.625 561.125,238.8906 Q560.8906,239.1563 560.5156,239.1563 Q560.1719,239.1563 559.9688,238.9531 Q559.7656,238.7656 559.6563,238.25 Q559.6094,237.8906 559.4219,237.7031 Q559.0938,237.3281 558.4844,237.1094 Q557.875,236.8906 557.25,236.8906 Q556.4844,236.8906 555.8516,237.2188 Q555.2188,237.5469 554.7266,238.2969 Q554.2344,239.0469 554.2344,240.0781 L554.2344,241.1719 Q554.2344,242.4063 555.125,243.2266 Q556.0156,244.0469 557.6094,244.0469 Q558.5469,244.0469 559.2031,243.7969 Q559.5938,243.6406 560.0156,243.2031 Q560.2813,242.9375 560.4297,242.8594 Q560.5781,242.7813 560.7813,242.7813 Q561.1094,242.7813 561.3672,243.0391 Q561.625,243.2969 561.625,243.6406 Q561.625,243.9844 561.2813,244.3906 Q560.7813,244.9688 559.9844,245.2969 Q558.9063,245.75 557.6094,245.75 Q556.0938,245.75 554.8906,245.125 Q553.9063,244.625 553.2188,243.5547 Q552.5313,242.4844 552.5313,241.2031 L552.5313,240.0469 Q552.5313,238.7188 553.1484,237.5703 Q553.7656,236.4219 554.8594,235.8047 Q555.9531,235.1875 557.1875,235.1875 Q557.9219,235.1875 558.5703,235.3516 Q559.2188,235.5156 559.7656,235.875 Z "/><text fill="#000000" font-family="sans-serif" font-size="12" lengthAdjust="spacingAndGlyphs" textLength="209" x="571" y="244.9102">PacienteSeguroPrivadoTraumatologia</text><line style="stroke: #A80036; stroke-width: 1.5;" x1="543" x2="782" y1="256" y2="256"/><line style="stroke: #A80036; stroke-width: 1.5;" x1="543" x2="782" y1="264" y2="264"/><!--class PacienteSeguroPrivadoCardiología--><rect fill="#FEFECE" filter="url(#f1mydzzn3bdknm)" height="48" id="PacienteSeguroPrivadoCardiología" style="stroke: #A80036; stroke-width: 1.5;" width="225" x="818" y="224"/><ellipse cx="833" cy="240" fill="#ADD1B2" rx="11" ry="11" style="stroke: #A80036; stroke-width: 1.0;"/><path d="M835.7656,235.875 Q835.9219,235.6563 836.1094,235.5469 Q836.2969,235.4375 836.5156,235.4375 Q836.8906,235.4375 837.125,235.6953 Q837.3594,235.9531 837.3594,236.5625 L837.3594,238.0156 Q837.3594,238.625 837.125,238.8906 Q836.8906,239.1563 836.5156,239.1563 Q836.1719,239.1563 835.9688,238.9531 Q835.7656,238.7656 835.6563,238.25 Q835.6094,237.8906 835.4219,237.7031 Q835.0938,237.3281 834.4844,237.1094 Q833.875,236.8906 833.25,236.8906 Q832.4844,236.8906 831.8516,237.2188 Q831.2188,237.5469 830.7266,238.2969 Q830.2344,239.0469 830.2344,240.0781 L830.2344,241.1719 Q830.2344,242.4063 831.125,243.2266 Q832.0156,244.0469 833.6094,244.0469 Q834.5469,244.0469 835.2031,243.7969 Q835.5938,243.6406 836.0156,243.2031 Q836.2813,242.9375 836.4297,242.8594 Q836.5781,242.7813 836.7813,242.7813 Q837.1094,242.7813 837.3672,243.0391 Q837.625,243.2969 837.625,243.6406 Q837.625,243.9844 837.2813,244.3906 Q836.7813,244.9688 835.9844,245.2969 Q834.9063,245.75 833.6094,245.75 Q832.0938,245.75 830.8906,245.125 Q829.9063,244.625 829.2188,243.5547 Q828.5313,242.4844 828.5313,241.2031 L828.5313,240.0469 Q828.5313,238.7188 829.1484,237.5703 Q829.7656,236.4219 830.8594,235.8047 Q831.9531,235.1875 833.1875,235.1875 Q833.9219,235.1875 834.5703,235.3516 Q835.2188,235.5156 835.7656,235.875 Z "/><text fill="#000000" font-family="sans-serif" font-size="12" lengthAdjust="spacingAndGlyphs" textLength="193" x="847" y="244.9102">PacienteSeguroPrivadoCardiología</text><line style="stroke: #A80036; stroke-width: 1.5;" x1="819" x2="1042" y1="256" y2="256"/><line style="stroke: #A80036; stroke-width: 1.5;" x1="819" x2="1042" y1="264" y2="264"/><!--link Paciente to PacienteSeguroPublico--><path d="M483.452,68.635 C463.842,84.147 441.412,101.89 423.982,115.678 " fill="none" id="Paciente-PacienteSeguroPublico" style="stroke: #A80036; stroke-width: 1.0;"/><polygon fill="none" points="479.395,62.919,499.424,56,488.081,73.899,479.395,62.919" style="stroke: #A80036; stroke-width: 1.0;"/><!--link Paciente to PacienteSeguroPrivado--><path d="M573.548,68.635 C593.158,84.147 615.588,101.89 633.018,115.678 " fill="none" id="Paciente-PacienteSeguroPrivado" style="stroke: #A80036; stroke-width: 1.0;"/><polygon fill="none" points="568.919,73.899,557.576,56,577.605,62.919,568.919,73.899" style="stroke: #A80036; stroke-width: 1.0;"/><!--link PacienteSeguroPublico to PacienteSeguroPublicoTraumatologia--><path d="M317.685,171.382 C275.466,188.0806 223.925,208.4662 185.001,223.8617 " fill="none" id="PacienteSeguroPublico-PacienteSeguroPublicoTraumatologia" style="stroke: #A80036; stroke-width: 1.0;"/><polygon fill="none" points="315.175,164.847,336.348,164,320.324,177.8658,315.175,164.847" style="stroke: #A80036; stroke-width: 1.0;"/><!--link PacienteSeguroPublico to PacienteSeguroPublicoCardiología--><path d="M394.5,184.0236 C394.5,197.5792 394.5,212.0381 394.5,223.6784 " fill="none" id="PacienteSeguroPublico-PacienteSeguroPublicoCardiología" style="stroke: #A80036; stroke-width: 1.0;"/><polygon fill="none" points="387.5,184.0005,394.5,164,401.5,184.0004,387.5,184.0005" style="stroke: #A80036; stroke-width: 1.0;"/><!--link PacienteSeguroPrivado to PacienteSeguroPrivadoTraumatologia--><path d="M662.5,184.0236 C662.5,197.5792 662.5,212.0381 662.5,223.6784 " fill="none" id="PacienteSeguroPrivado-PacienteSeguroPrivadoTraumatologia" style="stroke: #A80036; stroke-width: 1.0;"/><polygon fill="none" points="655.5,184.0005,662.5,164,669.5,184.0004,655.5,184.0005" style="stroke: #A80036; stroke-width: 1.0;"/><!--link PacienteSeguroPrivado to PacienteSeguroPrivadoCardiología--><path d="M739.315,171.382 C781.534,188.0806 833.075,208.4662 871.999,223.8617 " fill="none" id="PacienteSeguroPrivado-PacienteSeguroPrivadoCardiología" style="stroke: #A80036; stroke-width: 1.0;"/><polygon fill="none" points="736.676,177.8658,720.652,164,741.825,164.847,736.676,177.8658" style="stroke: #A80036; stroke-width: 1.0;"/><!--
@startuml

class Paciente

class PacienteSeguroPublico
class PacienteSeguroPrivado

Paciente <|-down- PacienteSeguroPublico
Paciente <|-down- PacienteSeguroPrivado

class PacienteSeguroPublicoTraumatologia
class PacienteSeguroPublicoCardiología

PacienteSeguroPublico <|-down- PacienteSeguroPublicoTraumatologia
PacienteSeguroPublico <|-down- PacienteSeguroPublicoCardiología

class PacienteSeguroPrivadoTraumatologia
class PacienteSeguroPrivadoCardiología

PacienteSeguroPrivado <|-down- PacienteSeguroPrivadoTraumatologia
PacienteSeguroPrivado <|-down- PacienteSeguroPrivadoCardiología

@enduml

PlantUML version 1.2019.05(Sat Apr 20 18:45:36 CEST 2019)
(GPL source distribution)
Java Runtime: OpenJDK Runtime Environment
JVM: OpenJDK 64-Bit Server VM
Java Version: 1.8.0_222-b10
Operating System: Windows 10
OS Version: 10.0
Default Encoding: windows-1252
Language: es
Country: ES
--></g></svg>