<?xml version="1.0" encoding="UTF-8" standalone="no"?><svg xmlns="http://www.w3.org/2000/svg" xmlns:xlink="http://www.w3.org/1999/xlink" contentScriptType="application/ecmascript" contentStyleType="text/css" height="283px" preserveAspectRatio="none" style="width:557px;height:283px;" version="1.1" viewBox="0 0 557 283" width="557px" zoomAndPan="magnify"><defs><filter height="300%" id="f1xe9z8b19ewqt" width="300%" x="-1" y="-1"><feGaussianBlur result="blurOut" stdDeviation="2.0"/><feColorMatrix in="blurOut" result="blurOut2" type="matrix" values="0 0 0 0 0 0 0 0 0 0 0 0 0 0 0 0 0 0 .4 0"/><feOffset dx="4.0" dy="4.0" in="blurOut2" result="blurOut3"/><feBlend in="SourceGraphic" in2="blurOut3" mode="normal"/></filter></defs><g><!--class Paciente--><rect fill="#FEFECE" filter="url(#f1xe9z8b19ewqt)" height="48" id="Paciente" style="stroke: #A80036; stroke-width: 1.5;" width="80" x="233" y="8"/><ellipse cx="248" cy="24" fill="#ADD1B2" rx="11" ry="11" style="stroke: #A80036; stroke-width: 1.0;"/><path d="M250.7656,19.875 Q250.9219,19.6563 251.1094,19.5469 Q251.2969,19.4375 251.5156,19.4375 Q251.8906,19.4375 252.125,19.6953 Q252.3594,19.9531 252.3594,20.5625 L252.3594,22.0156 Q252.3594,22.625 252.125,22.8906 Q251.8906,23.1563 251.5156,23.1563 Q251.1719,23.1563 250.9688,22.9531 Q250.7656,22.7656 250.6563,22.25 Q250.6094,21.8906 250.4219,21.7031 Q250.0938,21.3281 249.4844,21.1094 Q248.875,20.8906 248.25,20.8906 Q247.4844,20.8906 246.8516,21.2188 Q246.2188,21.5469 245.7266,22.2969 Q245.2344,23.0469 245.2344,24.0781 L245.2344,25.1719 Q245.2344,26.4063 246.125,27.2266 Q247.0156,28.0469 248.6094,28.0469 Q249.5469,28.0469 250.2031,27.7969 Q250.5938,27.6406 251.0156,27.2031 Q251.2813,26.9375 251.4297,26.8594 Q251.5781,26.7813 251.7813,26.7813 Q252.1094,26.7813 252.3672,27.0391 Q252.625,27.2969 252.625,27.6406 Q252.625,27.9844 252.2813,28.3906 Q251.7813,28.9688 250.9844,29.2969 Q249.9063,29.75 248.6094,29.75 Q247.0938,29.75 245.8906,29.125 Q244.9063,28.625 244.2188,27.5547 Q243.5313,26.4844 243.5313,25.2031 L243.5313,24.0469 Q243.5313,22.7188 244.1484,21.5703 Q244.7656,20.4219 245.8594,19.8047 Q246.9531,19.1875 248.1875,19.1875 Q248.9219,19.1875 249.5703,19.3516 Q250.2188,19.5156 250.7656,19.875 Z "/><text fill="#000000" font-family="sans-serif" font-size="12" lengthAdjust="spacingAndGlyphs" textLength="48" x="262" y="28.9102">Paciente</text><line style="stroke: #A80036; stroke-width: 1.5;" x1="234" x2="312" y1="40" y2="40"/><line style="stroke: #A80036; stroke-width: 1.5;" x1="234" x2="312" y1="48" y2="48"/><!--class PacienteTraumatologia--><rect fill="#FEFECE" filter="url(#f1xe9z8b19ewqt)" height="48" id="PacienteTraumatologia" style="stroke: #A80036; stroke-width: 1.5;" width="160" x="6" y="116"/><ellipse cx="21" cy="132" fill="#ADD1B2" rx="11" ry="11" style="stroke: #A80036; stroke-width: 1.0;"/><path d="M23.7656,127.875 Q23.9219,127.6563 24.1094,127.5469 Q24.2969,127.4375 24.5156,127.4375 Q24.8906,127.4375 25.125,127.6953 Q25.3594,127.9531 25.3594,128.5625 L25.3594,130.0156 Q25.3594,130.625 25.125,130.8906 Q24.8906,131.1563 24.5156,131.1563 Q24.1719,131.1563 23.9688,130.9531 Q23.7656,130.7656 23.6563,130.25 Q23.6094,129.8906 23.4219,129.7031 Q23.0938,129.3281 22.4844,129.1094 Q21.875,128.8906 21.25,128.8906 Q20.4844,128.8906 19.8516,129.2188 Q19.2188,129.5469 18.7266,130.2969 Q18.2344,131.0469 18.2344,132.0781 L18.2344,133.1719 Q18.2344,134.4063 19.125,135.2266 Q20.0156,136.0469 21.6094,136.0469 Q22.5469,136.0469 23.2031,135.7969 Q23.5938,135.6406 24.0156,135.2031 Q24.2813,134.9375 24.4297,134.8594 Q24.5781,134.7813 24.7813,134.7813 Q25.1094,134.7813 25.3672,135.0391 Q25.625,135.2969 25.625,135.6406 Q25.625,135.9844 25.2813,136.3906 Q24.7813,136.9688 23.9844,137.2969 Q22.9063,137.75 21.6094,137.75 Q20.0938,137.75 18.8906,137.125 Q17.9063,136.625 17.2188,135.5547 Q16.5313,134.4844 16.5313,133.2031 L16.5313,132.0469 Q16.5313,130.7188 17.1484,129.5703 Q17.7656,128.4219 18.8594,127.8047 Q19.9531,127.1875 21.1875,127.1875 Q21.9219,127.1875 22.5703,127.3516 Q23.2188,127.5156 23.7656,127.875 Z "/><text fill="#000000" font-family="sans-serif" font-size="12" lengthAdjust="spacingAndGlyphs" textLength="128" x="35" y="136.9102">PacienteTraumatologia</text><line style="stroke: #A80036; stroke-width: 1.5;" x1="7" x2="165" y1="148" y2="148"/><line style="stroke: #A80036; stroke-width: 1.5;" x1="7" x2="165" y1="156" y2="156"/><!--class PacienteCardiología--><rect fill="#FEFECE" filter="url(#f1xe9z8b19ewqt)" height="48" id="PacienteCardiología" style="stroke: #A80036; stroke-width: 1.5;" width="144" x="201" y="116"/><ellipse cx="216" cy="132" fill="#ADD1B2" rx="11" ry="11" style="stroke: #A80036; stroke-width: 1.0;"/><path d="M218.7656,127.875 Q218.9219,127.6563 219.1094,127.5469 Q219.2969,127.4375 219.5156,127.4375 Q219.8906,127.4375 220.125,127.6953 Q220.3594,127.9531 220.3594,128.5625 L220.3594,130.0156 Q220.3594,130.625 220.125,130.8906 Q219.8906,131.1563 219.5156,131.1563 Q219.1719,131.1563 218.9688,130.9531 Q218.7656,130.7656 218.6563,130.25 Q218.6094,129.8906 218.4219,129.7031 Q218.0938,129.3281 217.4844,129.1094 Q216.875,128.8906 216.25,128.8906 Q215.4844,128.8906 214.8516,129.2188 Q214.2188,129.5469 213.7266,130.2969 Q213.2344,131.0469 213.2344,132.0781 L213.2344,133.1719 Q213.2344,134.4063 214.125,135.2266 Q215.0156,136.0469 216.6094,136.0469 Q217.5469,136.0469 218.2031,135.7969 Q218.5938,135.6406 219.0156,135.2031 Q219.2813,134.9375 219.4297,134.8594 Q219.5781,134.7813 219.7813,134.7813 Q220.1094,134.7813 220.3672,135.0391 Q220.625,135.2969 220.625,135.6406 Q220.625,135.9844 220.2813,136.3906 Q219.7813,136.9688 218.9844,137.2969 Q217.9063,137.75 216.6094,137.75 Q215.0938,137.75 213.8906,137.125 Q212.9063,136.625 212.2188,135.5547 Q211.5313,134.4844 211.5313,133.2031 L211.5313,132.0469 Q211.5313,130.7188 212.1484,129.5703 Q212.7656,128.4219 213.8594,127.8047 Q214.9531,127.1875 216.1875,127.1875 Q216.9219,127.1875 217.5703,127.3516 Q218.2188,127.5156 218.7656,127.875 Z "/><text fill="#000000" font-family="sans-serif" font-size="12" lengthAdjust="spacingAndGlyphs" textLength="112" x="230" y="136.9102">PacienteCardiología</text><line style="stroke: #A80036; stroke-width: 1.5;" x1="202" x2="344" y1="148" y2="148"/><line style="stroke: #A80036; stroke-width: 1.5;" x1="202" x2="344" y1="156" y2="156"/><!--class Seguro--><rect fill="#FEFECE" filter="url(#f1xe9z8b19ewqt)" height="48" id="Seguro" style="stroke: #A80036; stroke-width: 1.5;" width="72" x="380" y="116"/><ellipse cx="395" cy="132" fill="#ADD1B2" rx="11" ry="11" style="stroke: #A80036; stroke-width: 1.0;"/><path d="M397.7656,127.875 Q397.9219,127.6563 398.1094,127.5469 Q398.2969,127.4375 398.5156,127.4375 Q398.8906,127.4375 399.125,127.6953 Q399.3594,127.9531 399.3594,128.5625 L399.3594,130.0156 Q399.3594,130.625 399.125,130.8906 Q398.8906,131.1563 398.5156,131.1563 Q398.1719,131.1563 397.9688,130.9531 Q397.7656,130.7656 397.6563,130.25 Q397.6094,129.8906 397.4219,129.7031 Q397.0938,129.3281 396.4844,129.1094 Q395.875,128.8906 395.25,128.8906 Q394.4844,128.8906 393.8516,129.2188 Q393.2188,129.5469 392.7266,130.2969 Q392.2344,131.0469 392.2344,132.0781 L392.2344,133.1719 Q392.2344,134.4063 393.125,135.2266 Q394.0156,136.0469 395.6094,136.0469 Q396.5469,136.0469 397.2031,135.7969 Q397.5938,135.6406 398.0156,135.2031 Q398.2813,134.9375 398.4297,134.8594 Q398.5781,134.7813 398.7813,134.7813 Q399.1094,134.7813 399.3672,135.0391 Q399.625,135.2969 399.625,135.6406 Q399.625,135.9844 399.2813,136.3906 Q398.7813,136.9688 397.9844,137.2969 Q396.9063,137.75 395.6094,137.75 Q394.0938,137.75 392.8906,137.125 Q391.9063,136.625 391.2188,135.5547 Q390.5313,134.4844 390.5313,133.2031 L390.5313,132.0469 Q390.5313,130.7188 391.1484,129.5703 Q391.7656,128.4219 392.8594,127.8047 Q393.9531,127.1875 395.1875,127.1875 Q395.9219,127.1875 396.5703,127.3516 Q397.2188,127.5156 397.7656,127.875 Z "/><text fill="#000000" font-family="sans-serif" font-size="12" lengthAdjust="spacingAndGlyphs" textLength="40" x="409" y="136.9102">Seguro</text><line style="stroke: #A80036; stroke-width: 1.5;" x1="381" x2="451" y1="148" y2="148"/><line style="stroke: #A80036; stroke-width: 1.5;" x1="381" x2="451" y1="156" y2="156"/><!--class SeguroPublico--><rect fill="#FEFECE" filter="url(#f1xe9z8b19ewqt)" height="48" id="SeguroPublico" style="stroke: #A80036; stroke-width: 1.5;" width="113" x="285.5" y="224"/><ellipse cx="300.5" cy="240" fill="#ADD1B2" rx="11" ry="11" style="stroke: #A80036; stroke-width: 1.0;"/><path d="M303.2656,235.875 Q303.4219,235.6563 303.6094,235.5469 Q303.7969,235.4375 304.0156,235.4375 Q304.3906,235.4375 304.625,235.6953 Q304.8594,235.9531 304.8594,236.5625 L304.8594,238.0156 Q304.8594,238.625 304.625,238.8906 Q304.3906,239.1563 304.0156,239.1563 Q303.6719,239.1563 303.4688,238.9531 Q303.2656,238.7656 303.1563,238.25 Q303.1094,237.8906 302.9219,237.7031 Q302.5938,237.3281 301.9844,237.1094 Q301.375,236.8906 300.75,236.8906 Q299.9844,236.8906 299.3516,237.2188 Q298.7188,237.5469 298.2266,238.2969 Q297.7344,239.0469 297.7344,240.0781 L297.7344,241.1719 Q297.7344,242.4063 298.625,243.2266 Q299.5156,244.0469 301.1094,244.0469 Q302.0469,244.0469 302.7031,243.7969 Q303.0938,243.6406 303.5156,243.2031 Q303.7813,242.9375 303.9297,242.8594 Q304.0781,242.7813 304.2813,242.7813 Q304.6094,242.7813 304.8672,243.0391 Q305.125,243.2969 305.125,243.6406 Q305.125,243.9844 304.7813,244.3906 Q304.2813,244.9688 303.4844,245.2969 Q302.4063,245.75 301.1094,245.75 Q299.5938,245.75 298.3906,245.125 Q297.4063,244.625 296.7188,243.5547 Q296.0313,242.4844 296.0313,241.2031 L296.0313,240.0469 Q296.0313,238.7188 296.6484,237.5703 Q297.2656,236.4219 298.3594,235.8047 Q299.4531,235.1875 300.6875,235.1875 Q301.4219,235.1875 302.0703,235.3516 Q302.7188,235.5156 303.2656,235.875 Z "/><text fill="#000000" font-family="sans-serif" font-size="12" lengthAdjust="spacingAndGlyphs" textLength="81" x="314.5" y="244.9102">SeguroPublico</text><line style="stroke: #A80036; stroke-width: 1.5;" x1="286.5" x2="397.5" y1="256" y2="256"/><line style="stroke: #A80036; stroke-width: 1.5;" x1="286.5" x2="397.5" y1="264" y2="264"/><!--class SeguroPrivado--><rect fill="#FEFECE" filter="url(#f1xe9z8b19ewqt)" height="48" id="SeguroPrivado" style="stroke: #A80036; stroke-width: 1.5;" width="113" x="433.5" y="224"/><ellipse cx="448.5" cy="240" fill="#ADD1B2" rx="11" ry="11" style="stroke: #A80036; stroke-width: 1.0;"/><path d="M451.2656,235.875 Q451.4219,235.6563 451.6094,235.5469 Q451.7969,235.4375 452.0156,235.4375 Q452.3906,235.4375 452.625,235.6953 Q452.8594,235.9531 452.8594,236.5625 L452.8594,238.0156 Q452.8594,238.625 452.625,238.8906 Q452.3906,239.1563 452.0156,239.1563 Q451.6719,239.1563 451.4688,238.9531 Q451.2656,238.7656 451.1563,238.25 Q451.1094,237.8906 450.9219,237.7031 Q450.5938,237.3281 449.9844,237.1094 Q449.375,236.8906 448.75,236.8906 Q447.9844,236.8906 447.3516,237.2188 Q446.7188,237.5469 446.2266,238.2969 Q445.7344,239.0469 445.7344,240.0781 L445.7344,241.1719 Q445.7344,242.4063 446.625,243.2266 Q447.5156,244.0469 449.1094,244.0469 Q450.0469,244.0469 450.7031,243.7969 Q451.0938,243.6406 451.5156,243.2031 Q451.7813,242.9375 451.9297,242.8594 Q452.0781,242.7813 452.2813,242.7813 Q452.6094,242.7813 452.8672,243.0391 Q453.125,243.2969 453.125,243.6406 Q453.125,243.9844 452.7813,244.3906 Q452.2813,244.9688 451.4844,245.2969 Q450.4063,245.75 449.1094,245.75 Q447.5938,245.75 446.3906,245.125 Q445.4063,244.625 444.7188,243.5547 Q444.0313,242.4844 444.0313,241.2031 L444.0313,240.0469 Q444.0313,238.7188 444.6484,237.5703 Q445.2656,236.4219 446.3594,235.8047 Q447.4531,235.1875 448.6875,235.1875 Q449.4219,235.1875 450.0703,235.3516 Q450.7188,235.5156 451.2656,235.875 Z "/><text fill="#000000" font-family="sans-serif" font-size="12" lengthAdjust="spacingAndGlyphs" textLength="81" x="462.5" y="244.9102">SeguroPrivado</text><line style="stroke: #A80036; stroke-width: 1.5;" x1="434.5" x2="545.5" y1="256" y2="256"/><line style="stroke: #A80036; stroke-width: 1.5;" x1="434.5" x2="545.5" y1="264" y2="264"/><!--link Paciente to PacienteTraumatologia--><path d="M215.373,65.665 C186.668,81.937 152.645,101.223 126.695,115.932 " fill="none" id="Paciente-PacienteTraumatologia" style="stroke: #A80036; stroke-width: 1.0;"/><polygon fill="none" points="212.033,59.513,232.884,55.74,218.937,71.692,212.033,59.513" style="stroke: #A80036; stroke-width: 1.0;"/><!--link Paciente to PacienteCardiología--><path d="M273,76.024 C273,89.579 273,104.038 273,115.678 " fill="none" id="Paciente-PacienteCardiología" style="stroke: #A80036; stroke-width: 1.0;"/><polygon fill="none" points="266,76,273,56,280,76,266,76" style="stroke: #A80036; stroke-width: 1.0;"/><!--link Seguro to SeguroPublico--><path d="M388.316,180.6557 C378.197,195.1498 367.085,211.0681 358.281,223.6784 " fill="none" id="Seguro-SeguroPublico" style="stroke: #A80036; stroke-width: 1.0;"/><polygon fill="none" points="382.755,176.3926,399.943,164,394.234,184.4066,382.755,176.3926" style="stroke: #A80036; stroke-width: 1.0;"/><!--link Seguro to SeguroPrivado--><path d="M443.684,180.6557 C453.803,195.1498 464.915,211.0681 473.719,223.6784 " fill="none" id="Seguro-SeguroPrivado" style="stroke: #A80036; stroke-width: 1.0;"/><polygon fill="none" points="437.766,184.4066,432.057,164,449.245,176.3926,437.766,184.4066" style="stroke: #A80036; stroke-width: 1.0;"/><!--link Paciente to Seguro--><path d="M314.559,63.806 C333.226,77.643 355.215,93.942 373.94,107.822 " fill="none" id="Paciente-Seguro" style="stroke: #A80036; stroke-width: 1.0;"/><polygon fill="#A80036" points="384.538,115.678,379.6901,107.1049,380.5213,112.7004,374.9259,113.5316,384.538,115.678" style="stroke: #A80036; stroke-width: 1.0;"/><line style="stroke: #A80036; stroke-width: 1.0;" x1="380.5213" x2="374.0945" y1="112.7004" y2="107.937"/><polygon fill="#A80036" points="304.029,56,306.4669,62.7865,313.669,63.1463,311.2311,56.3598,304.029,56" style="stroke: #A80036; stroke-width: 1.0;"/><!--
@startuml

class Paciente

class PacienteTraumatologia
class PacienteCardiología

Paciente <|-down- PacienteTraumatologia
Paciente <|-down- PacienteCardiología

class Seguro

class SeguroPublico
class SeguroPrivado

Seguro <|-down- SeguroPublico
Seguro <|-down- SeguroPrivado

Paciente *-down-> Seguro

@enduml

PlantUML version 1.2019.05(Sat Apr 20 18:45:36 CEST 2019)
(GPL source distribution)
Java Runtime: OpenJDK Runtime Environment
JVM: OpenJDK 64-Bit Server VM
Java Version: 1.8.0_222-b10
Operating System: Windows 10
OS Version: 10.0
Default Encoding: windows-1252
Language: es
Country: ES
--></g></svg>