<?xml version="1.0" encoding="UTF-8" standalone="no"?><svg xmlns="http://www.w3.org/2000/svg" xmlns:xlink="http://www.w3.org/1999/xlink" contentScriptType="application/ecmascript" contentStyleType="text/css" height="407px" preserveAspectRatio="none" style="width:395px;height:407px;" version="1.1" viewBox="0 0 395 407" width="395px" zoomAndPan="magnify"><defs><filter height="300%" id="fhb9bcvw6466v" width="300%" x="-1" y="-1"><feGaussianBlur result="blurOut" stdDeviation="2.0"/><feColorMatrix in="blurOut" result="blurOut2" type="matrix" values="0 0 0 0 0 0 0 0 0 0 0 0 0 0 0 0 0 0 .4 0"/><feOffset dx="4.0" dy="4.0" in="blurOut2" result="blurOut3"/><feBlend in="SourceGraphic" in2="blurOut3" mode="normal"/></filter></defs><g><!--class Cliente--><rect fill="#FEFECE" filter="url(#fhb9bcvw6466v)" height="48" id="Cliente" style="stroke: #A80036; stroke-width: 1.5;" width="71" x="86.1038" y="8"/><ellipse cx="101.1038" cy="24" fill="#ADD1B2" rx="11" ry="11" style="stroke: #A80036; stroke-width: 1.0;"/><path d="M103.8694,19.875 Q104.0257,19.6563 104.2132,19.5469 Q104.4007,19.4375 104.6194,19.4375 Q104.9944,19.4375 105.2288,19.6953 Q105.4632,19.9531 105.4632,20.5625 L105.4632,22.0156 Q105.4632,22.625 105.2288,22.8906 Q104.9944,23.1563 104.6194,23.1563 Q104.2757,23.1563 104.0726,22.9531 Q103.8694,22.7656 103.7601,22.25 Q103.7132,21.8906 103.5257,21.7031 Q103.1976,21.3281 102.5882,21.1094 Q101.9788,20.8906 101.3538,20.8906 Q100.5882,20.8906 99.9554,21.2188 Q99.3226,21.5469 98.8304,22.2969 Q98.3382,23.0469 98.3382,24.0781 L98.3382,25.1719 Q98.3382,26.4063 99.2288,27.2266 Q100.1194,28.0469 101.7132,28.0469 Q102.6507,28.0469 103.3069,27.7969 Q103.6976,27.6406 104.1194,27.2031 Q104.3851,26.9375 104.5335,26.8594 Q104.6819,26.7813 104.8851,26.7813 Q105.2132,26.7813 105.471,27.0391 Q105.7288,27.2969 105.7288,27.6406 Q105.7288,27.9844 105.3851,28.3906 Q104.8851,28.9688 104.0882,29.2969 Q103.0101,29.75 101.7132,29.75 Q100.1976,29.75 98.9944,29.125 Q98.0101,28.625 97.3226,27.5547 Q96.6351,26.4844 96.6351,25.2031 L96.6351,24.0469 Q96.6351,22.7188 97.2522,21.5703 Q97.8694,20.4219 98.9632,19.8047 Q100.0569,19.1875 101.2913,19.1875 Q102.0257,19.1875 102.6741,19.3516 Q103.3226,19.5156 103.8694,19.875 Z "/><text fill="#000000" font-family="sans-serif" font-size="12" lengthAdjust="spacingAndGlyphs" textLength="39" x="115.1038" y="28.9102">Cliente</text><line style="stroke: #A80036; stroke-width: 1.5;" x1="87.1038" x2="156.1038" y1="40" y2="40"/><line style="stroke: #A80036; stroke-width: 1.5;" x1="87.1038" x2="156.1038" y1="48" y2="48"/><path d="M192.104,19 L192.104,28 L157.268,32 L192.104,36 L192.104,45.3516 A0,0 0 0 0 192.104,45.3516 L383.104,45.3516 A0,0 0 0 0 383.104,45.3516 L383.104,29 L373.104,19 L192.104,19 A0,0 0 0 0 192.104,19 " fill="#FBFB77" filter="url(#fhb9bcvw6466v)" style="stroke: #A80036; stroke-width: 1.0;"/><path d="M373.104,19 L373.104,29 L383.104,29 L373.104,19 " fill="#FBFB77" style="stroke: #A80036; stroke-width: 1.0;"/><text fill="#000000" font-family="sans-serif" font-size="13" lengthAdjust="spacingAndGlyphs" textLength="170" x="198.104" y="37.4951">new Mujer(); รณ new Hombre();</text><!--class Persona--><rect fill="#FEFECE" filter="url(#fhb9bcvw6466v)" height="131.0156" id="Persona" style="stroke: #A80036; stroke-width: 1.5;" width="168" x="37.6038" y="116"/><ellipse cx="93.8538" cy="132" fill="#ADD1B2" rx="11" ry="11" style="stroke: #A80036; stroke-width: 1.0;"/><path d="M96.6194,127.875 Q96.7757,127.6563 96.9632,127.5469 Q97.1507,127.4375 97.3694,127.4375 Q97.7444,127.4375 97.9788,127.6953 Q98.2132,127.9531 98.2132,128.5625 L98.2132,130.0156 Q98.2132,130.625 97.9788,130.8906 Q97.7444,131.1563 97.3694,131.1563 Q97.0257,131.1563 96.8226,130.9531 Q96.6194,130.7656 96.5101,130.25 Q96.4632,129.8906 96.2757,129.7031 Q95.9476,129.3281 95.3382,129.1094 Q94.7288,128.8906 94.1038,128.8906 Q93.3382,128.8906 92.7054,129.2188 Q92.0726,129.5469 91.5804,130.2969 Q91.0882,131.0469 91.0882,132.0781 L91.0882,133.1719 Q91.0882,134.4063 91.9788,135.2266 Q92.8694,136.0469 94.4632,136.0469 Q95.4007,136.0469 96.0569,135.7969 Q96.4476,135.6406 96.8694,135.2031 Q97.1351,134.9375 97.2835,134.8594 Q97.4319,134.7813 97.6351,134.7813 Q97.9632,134.7813 98.221,135.0391 Q98.4788,135.2969 98.4788,135.6406 Q98.4788,135.9844 98.1351,136.3906 Q97.6351,136.9688 96.8382,137.2969 Q95.7601,137.75 94.4632,137.75 Q92.9476,137.75 91.7444,137.125 Q90.7601,136.625 90.0726,135.5547 Q89.3851,134.4844 89.3851,133.2031 L89.3851,132.0469 Q89.3851,130.7188 90.0022,129.5703 Q90.6194,128.4219 91.7132,127.8047 Q92.8069,127.1875 94.0413,127.1875 Q94.7757,127.1875 95.4241,127.3516 Q96.0726,127.5156 96.6194,127.875 Z "/><text fill="#000000" font-family="sans-serif" font-size="12" lengthAdjust="spacingAndGlyphs" textLength="47" x="114.3538" y="136.9102">Persona</text><line style="stroke: #A80036; stroke-width: 1.5;" x1="38.6038" x2="204.6038" y1="148" y2="148"/><rect fill="none" height="6" style="stroke: #C82930; stroke-width: 1.0;" width="6" x="45.6038" y="157.418"/><text fill="#000000" font-family="sans-serif" font-size="11" lengthAdjust="spacingAndGlyphs" textLength="79" x="57.6038" y="163.4189">Cabeza cabeza;</text><rect fill="none" height="6" style="stroke: #C82930; stroke-width: 1.0;" width="6" x="45.6038" y="171.2539"/><text fill="#000000" font-family="sans-serif" font-size="11" lengthAdjust="spacingAndGlyphs" textLength="71" x="57.6038" y="177.2549">Tronco tronco;</text><rect fill="none" height="6" style="stroke: #C82930; stroke-width: 1.0;" width="6" x="45.6038" y="185.0898"/><text fill="#000000" font-family="sans-serif" font-size="11" lengthAdjust="spacingAndGlyphs" textLength="142" x="57.6038" y="191.0908">Extremidades[] extremidades;</text><line style="stroke: #A80036; stroke-width: 1.5;" x1="38.6038" x2="204.6038" y1="197.5078" y2="197.5078"/><ellipse cx="48.6038" cy="209.9258" fill="#84BE84" rx="3" ry="3" style="stroke: #038048; stroke-width: 1.0;"/><text fill="#000000" font-family="sans-serif" font-size="11" lengthAdjust="spacingAndGlyphs" textLength="34" x="57.6038" y="212.9268">bailar()</text><ellipse cx="48.6038" cy="223.7617" fill="#84BE84" rx="3" ry="3" style="stroke: #038048; stroke-width: 1.0;"/><text fill="#000000" font-family="sans-serif" font-size="11" lengthAdjust="spacingAndGlyphs" textLength="41" x="57.6038" y="226.7627">correr();</text><ellipse cx="48.6038" cy="237.5977" fill="#84BE84" rx="3" ry="3" style="stroke: #038048; stroke-width: 1.0;"/><text fill="#000000" font-family="sans-serif" font-size="11" lengthAdjust="spacingAndGlyphs" textLength="57" x="57.6038" y="240.5986">miccionar();</text><!--class Hombre--><rect fill="#FEFECE" filter="url(#fhb9bcvw6466v)" height="89.5078" id="Hombre" style="stroke: #A80036; stroke-width: 1.5;" width="83" x="17.1038" y="307"/><ellipse cx="34.8038" cy="323" fill="#ADD1B2" rx="11" ry="11" style="stroke: #A80036; stroke-width: 1.0;"/><path d="M37.5694,318.875 Q37.7257,318.6563 37.9132,318.5469 Q38.1007,318.4375 38.3194,318.4375 Q38.6944,318.4375 38.9288,318.6953 Q39.1632,318.9531 39.1632,319.5625 L39.1632,321.0156 Q39.1632,321.625 38.9288,321.8906 Q38.6944,322.1563 38.3194,322.1563 Q37.9757,322.1563 37.7725,321.9531 Q37.5694,321.7656 37.46,321.25 Q37.4132,320.8906 37.2257,320.7031 Q36.8975,320.3281 36.2882,320.1094 Q35.6788,319.8906 35.0538,319.8906 Q34.2882,319.8906 33.6554,320.2188 Q33.0225,320.5469 32.5304,321.2969 Q32.0382,322.0469 32.0382,323.0781 L32.0382,324.1719 Q32.0382,325.4063 32.9288,326.2266 Q33.8194,327.0469 35.4132,327.0469 Q36.3507,327.0469 37.0069,326.7969 Q37.3975,326.6406 37.8194,326.2031 Q38.085,325.9375 38.2335,325.8594 Q38.3819,325.7813 38.585,325.7813 Q38.9132,325.7813 39.171,326.0391 Q39.4288,326.2969 39.4288,326.6406 Q39.4288,326.9844 39.085,327.3906 Q38.585,327.9688 37.7882,328.2969 Q36.71,328.75 35.4132,328.75 Q33.8975,328.75 32.6944,328.125 Q31.71,327.625 31.0225,326.5547 Q30.335,325.4844 30.335,324.2031 L30.335,323.0469 Q30.335,321.7188 30.9522,320.5703 Q31.5694,319.4219 32.6632,318.8047 Q33.7569,318.1875 34.9913,318.1875 Q35.7257,318.1875 36.3741,318.3516 Q37.0225,318.5156 37.5694,318.875 Z "/><text fill="#000000" font-family="sans-serif" font-size="12" lengthAdjust="spacingAndGlyphs" textLength="45" x="49.4038" y="327.9102">Hombre</text><line style="stroke: #A80036; stroke-width: 1.5;" x1="18.1038" x2="99.1038" y1="339" y2="339"/><rect fill="none" height="6" style="stroke: #C82930; stroke-width: 1.0;" width="6" x="25.1038" y="348.418"/><text fill="#000000" font-family="sans-serif" font-size="11" lengthAdjust="spacingAndGlyphs" textLength="54" x="37.1038" y="354.4189">Pene pene;</text><line style="stroke: #A80036; stroke-width: 1.5;" x1="18.1038" x2="99.1038" y1="360.8359" y2="360.8359"/><ellipse cx="28.1038" cy="373.2539" fill="#84BE84" rx="3" ry="3" style="stroke: #038048; stroke-width: 1.0;"/><text fill="#000000" font-family="sans-serif" font-size="11" lengthAdjust="spacingAndGlyphs" textLength="45" x="37.1038" y="376.2549">Hombre()</text><ellipse cx="28.1038" cy="387.0898" fill="#84BE84" rx="3" ry="3" style="stroke: #038048; stroke-width: 1.0;"/><text fill="#000000" font-family="sans-serif" font-size="11" lengthAdjust="spacingAndGlyphs" textLength="57" x="37.1038" y="390.0908">miccionar();</text><!--class Mujer--><rect fill="#FEFECE" filter="url(#fhb9bcvw6466v)" height="89.5078" id="Mujer" style="stroke: #A80036; stroke-width: 1.5;" width="98" x="135.604" y="307"/><ellipse cx="166.804" cy="323" fill="#ADD1B2" rx="11" ry="11" style="stroke: #A80036; stroke-width: 1.0;"/><path d="M169.5696,318.875 Q169.7259,318.6563 169.9134,318.5469 Q170.1009,318.4375 170.3196,318.4375 Q170.6946,318.4375 170.929,318.6953 Q171.1634,318.9531 171.1634,319.5625 L171.1634,321.0156 Q171.1634,321.625 170.929,321.8906 Q170.6946,322.1563 170.3196,322.1563 Q169.9759,322.1563 169.7728,321.9531 Q169.5696,321.7656 169.4603,321.25 Q169.4134,320.8906 169.2259,320.7031 Q168.8978,320.3281 168.2884,320.1094 Q167.679,319.8906 167.054,319.8906 Q166.2884,319.8906 165.6556,320.2188 Q165.0228,320.5469 164.5306,321.2969 Q164.0384,322.0469 164.0384,323.0781 L164.0384,324.1719 Q164.0384,325.4063 164.929,326.2266 Q165.8196,327.0469 167.4134,327.0469 Q168.3509,327.0469 169.0071,326.7969 Q169.3978,326.6406 169.8196,326.2031 Q170.0853,325.9375 170.2337,325.8594 Q170.3821,325.7813 170.5853,325.7813 Q170.9134,325.7813 171.1712,326.0391 Q171.429,326.2969 171.429,326.6406 Q171.429,326.9844 171.0853,327.3906 Q170.5853,327.9688 169.7884,328.2969 Q168.7103,328.75 167.4134,328.75 Q165.8978,328.75 164.6946,328.125 Q163.7103,327.625 163.0228,326.5547 Q162.3353,325.4844 162.3353,324.2031 L162.3353,323.0469 Q162.3353,321.7188 162.9524,320.5703 Q163.5696,319.4219 164.6634,318.8047 Q165.7571,318.1875 166.9915,318.1875 Q167.7259,318.1875 168.3743,318.3516 Q169.0228,318.5156 169.5696,318.875 Z "/><text fill="#000000" font-family="sans-serif" font-size="12" lengthAdjust="spacingAndGlyphs" textLength="30" x="184.404" y="327.9102">Mujer</text><line style="stroke: #A80036; stroke-width: 1.5;" x1="136.604" x2="232.604" y1="339" y2="339"/><rect fill="none" height="6" style="stroke: #C82930; stroke-width: 1.0;" width="6" x="143.604" y="348.418"/><text fill="#000000" font-family="sans-serif" font-size="11" lengthAdjust="spacingAndGlyphs" textLength="72" x="155.604" y="354.4189">Vagina vagina;</text><line style="stroke: #A80036; stroke-width: 1.5;" x1="136.604" x2="232.604" y1="360.8359" y2="360.8359"/><ellipse cx="146.604" cy="373.2539" fill="#84BE84" rx="3" ry="3" style="stroke: #038048; stroke-width: 1.0;"/><text fill="#000000" font-family="sans-serif" font-size="11" lengthAdjust="spacingAndGlyphs" textLength="34" x="155.604" y="376.2549">Mujer()</text><ellipse cx="146.604" cy="387.0898" fill="#84BE84" rx="3" ry="3" style="stroke: #038048; stroke-width: 1.0;"/><text fill="#000000" font-family="sans-serif" font-size="11" lengthAdjust="spacingAndGlyphs" textLength="57" x="155.604" y="390.0908">miccionar();</text><!--link Cliente to Persona--><path d="M121.604,56.047 C121.604,70.911 121.604,91.101 121.604,110.892 " fill="none" id="Cliente-Persona" style="stroke: #A80036; stroke-width: 1.0; stroke-dasharray: 7.0,7.0;"/><polygon fill="#A80036" points="121.604,115.912,125.604,106.912,121.604,110.912,117.604,106.912,121.604,115.912" style="stroke: #A80036; stroke-width: 1.0;"/><!--link Cliente to Hombre--><path d="M85.9556,51.053 C62.3398,65.176 33.2807,87.238 19.6038,116 C-8.8707,175.881 13.6178,252.931 34.4035,302.1577 " fill="none" id="Cliente-Hombre" style="stroke: #A80036; stroke-width: 1.0; stroke-dasharray: 7.0,7.0;"/><polygon fill="#A80036" points="36.4079,306.8332,36.5378,296.9852,34.4377,302.2377,29.1851,300.1376,36.4079,306.8332" style="stroke: #A80036; stroke-width: 1.0;"/><!--link Cliente to Mujer--><path d="M157.252,51.053 C180.868,65.176 209.927,87.238 223.604,116 C252.078,175.881 229.59,252.931 208.804,302.1577 " fill="none" id="Cliente-Mujer" style="stroke: #A80036; stroke-width: 1.0; stroke-dasharray: 7.0,7.0;"/><polygon fill="#A80036" points="206.8,306.8332,214.0227,300.1375,208.7702,302.2377,206.6699,296.9852,206.8,306.8332" style="stroke: #A80036; stroke-width: 1.0;"/><!--link Persona to Hombre--><path d="M77.5676,266.179 C72.2975,280.24 67.493,294.322 63.7399,306.8593 " fill="none" id="Persona-Hombre" style="stroke: #A80036; stroke-width: 1.0;"/><polygon fill="none" points="71.1958,263.251,84.9878,247.165,84.2379,268.341,71.1958,263.251" style="stroke: #A80036; stroke-width: 1.0;"/><!--link Persona to Hombre--><path d="M110.597,247.165 C104.4017,265.404 96.8354,284.939 89.2748,302.0886 " fill="none" id="Persona-Hombre-1" style="stroke: #A80036; stroke-width: 1.0; stroke-dasharray: 7.0,7.0;"/><polygon fill="#A80036" points="87.1436,306.8593,94.4666,300.2735,89.183,302.2941,87.1623,297.0105,87.1436,306.8593" style="stroke: #A80036; stroke-width: 1.0;"/><!--link Persona to Mujer--><path d="M140.14,266.179 C145.385,280.24 151.111,294.322 156.733,306.8593 " fill="none" id="Persona-Mujer" style="stroke: #A80036; stroke-width: 1.0;"/><polygon fill="none" points="133.484,268.354,133.342,247.165,146.667,263.64,133.484,268.354" style="stroke: #A80036; stroke-width: 1.0;"/><!--link Persona to Mujer--><path d="M158.951,247.165 C166.331,265.248 173.316,284.605 178.565,301.6484 " fill="none" id="Persona-Mujer-1" style="stroke: #A80036; stroke-width: 1.0; stroke-dasharray: 7.0,7.0;"/><polygon fill="#A80036" points="180.136,306.8593,181.367,297.0877,178.6923,302.0723,173.7077,299.3976,180.136,306.8593" style="stroke: #A80036; stroke-width: 1.0;"/><!--
@startuml

class Cliente
note right
new Mujer(); รณ new Hombre();
endnote
Cliente ..> Persona
Cliente ..> Hombre
Cliente ..> Mujer

class Persona {
- Cabeza cabeza;
- Tronco tronco;
- Extremidades[] extremidades;
+ bailar()
+ correr();
+ miccionar();
}

Persona <|-down- Hombre
Persona <|-down- Mujer

class Hombre {
- Pene pene;
+ Hombre()
+ miccionar();
}

Persona  ..> Hombre

class Mujer {
- Vagina vagina;
+ Mujer()
+ miccionar();
}

Persona  ..> Mujer
@enduml

PlantUML version 1.2019.05(Sat Apr 20 18:45:36 CEST 2019)
(GPL source distribution)
Java Runtime: OpenJDK Runtime Environment
JVM: OpenJDK 64-Bit Server VM
Java Version: 1.8.0_222-b10
Operating System: Windows 10
OS Version: 10.0
Default Encoding: windows-1252
Language: es
Country: ES
--></g></svg>