<?xml version="1.0" encoding="UTF-8" standalone="no"?><svg xmlns="http://www.w3.org/2000/svg" xmlns:xlink="http://www.w3.org/1999/xlink" contentScriptType="application/ecmascript" contentStyleType="text/css" height="313px" preserveAspectRatio="none" style="width:390px;height:313px;" version="1.1" viewBox="0 0 390 313" width="390px" zoomAndPan="magnify"><defs><filter height="300%" id="fdbozf6a62lfl" width="300%" x="-1" y="-1"><feGaussianBlur result="blurOut" stdDeviation="2.0"/><feColorMatrix in="blurOut" result="blurOut2" type="matrix" values="0 0 0 0 0 0 0 0 0 0 0 0 0 0 0 0 0 0 .4 0"/><feOffset dx="4.0" dy="4.0" in="blurOut2" result="blurOut3"/><feBlend in="SourceGraphic" in2="blurOut3" mode="normal"/></filter></defs><g><!--class Cliente--><rect fill="#FEFECE" filter="url(#fdbozf6a62lfl)" height="48" id="Cliente" style="stroke: #A80036; stroke-width: 1.5;" width="71" x="54.5" y="8"/><ellipse cx="69.5" cy="24" fill="#ADD1B2" rx="11" ry="11" style="stroke: #A80036; stroke-width: 1.0;"/><path d="M72.2656,19.875 Q72.4219,19.6563 72.6094,19.5469 Q72.7969,19.4375 73.0156,19.4375 Q73.3906,19.4375 73.625,19.6953 Q73.8594,19.9531 73.8594,20.5625 L73.8594,22.0156 Q73.8594,22.625 73.625,22.8906 Q73.3906,23.1563 73.0156,23.1563 Q72.6719,23.1563 72.4688,22.9531 Q72.2656,22.7656 72.1563,22.25 Q72.1094,21.8906 71.9219,21.7031 Q71.5938,21.3281 70.9844,21.1094 Q70.375,20.8906 69.75,20.8906 Q68.9844,20.8906 68.3516,21.2188 Q67.7188,21.5469 67.2266,22.2969 Q66.7344,23.0469 66.7344,24.0781 L66.7344,25.1719 Q66.7344,26.4063 67.625,27.2266 Q68.5156,28.0469 70.1094,28.0469 Q71.0469,28.0469 71.7031,27.7969 Q72.0938,27.6406 72.5156,27.2031 Q72.7813,26.9375 72.9297,26.8594 Q73.0781,26.7813 73.2813,26.7813 Q73.6094,26.7813 73.8672,27.0391 Q74.125,27.2969 74.125,27.6406 Q74.125,27.9844 73.7813,28.3906 Q73.2813,28.9688 72.4844,29.2969 Q71.4063,29.75 70.1094,29.75 Q68.5938,29.75 67.3906,29.125 Q66.4063,28.625 65.7188,27.5547 Q65.0313,26.4844 65.0313,25.2031 L65.0313,24.0469 Q65.0313,22.7188 65.6484,21.5703 Q66.2656,20.4219 67.3594,19.8047 Q68.4531,19.1875 69.6875,19.1875 Q70.4219,19.1875 71.0703,19.3516 Q71.7188,19.5156 72.2656,19.875 Z "/><text fill="#000000" font-family="sans-serif" font-size="12" lengthAdjust="spacingAndGlyphs" textLength="39" x="83.5" y="28.9102">Cliente</text><line style="stroke: #A80036; stroke-width: 1.5;" x1="55.5" x2="124.5" y1="40" y2="40"/><line style="stroke: #A80036; stroke-width: 1.5;" x1="55.5" x2="124.5" y1="48" y2="48"/><path d="M161,19 L161,28 L125.719,32 L161,36 L161,45.3516 A0,0 0 0 0 161,45.3516 L307,45.3516 A0,0 0 0 0 307,45.3516 L307,29 L297,19 L161,19 A0,0 0 0 0 161,19 " fill="#FBFB77" filter="url(#fdbozf6a62lfl)" style="stroke: #A80036; stroke-width: 1.0;"/><path d="M297,19 L297,29 L307,29 L297,19 " fill="#FBFB77" style="stroke: #A80036; stroke-width: 1.0;"/><text fill="#000000" font-family="sans-serif" font-size="13" lengthAdjust="spacingAndGlyphs" textLength="125" x="167" y="37.4951">new Persona("Mujer")</text><!--class Persona--><rect fill="#FEFECE" filter="url(#fdbozf6a62lfl)" height="186.3594" id="Persona" style="stroke: #A80036; stroke-width: 1.5;" width="168" x="6" y="116"/><ellipse cx="62.25" cy="132" fill="#ADD1B2" rx="11" ry="11" style="stroke: #A80036; stroke-width: 1.0;"/><path d="M65.0156,127.875 Q65.1719,127.6563 65.3594,127.5469 Q65.5469,127.4375 65.7656,127.4375 Q66.1406,127.4375 66.375,127.6953 Q66.6094,127.9531 66.6094,128.5625 L66.6094,130.0156 Q66.6094,130.625 66.375,130.8906 Q66.1406,131.1563 65.7656,131.1563 Q65.4219,131.1563 65.2188,130.9531 Q65.0156,130.7656 64.9063,130.25 Q64.8594,129.8906 64.6719,129.7031 Q64.3438,129.3281 63.7344,129.1094 Q63.125,128.8906 62.5,128.8906 Q61.7344,128.8906 61.1016,129.2188 Q60.4688,129.5469 59.9766,130.2969 Q59.4844,131.0469 59.4844,132.0781 L59.4844,133.1719 Q59.4844,134.4063 60.375,135.2266 Q61.2656,136.0469 62.8594,136.0469 Q63.7969,136.0469 64.4531,135.7969 Q64.8438,135.6406 65.2656,135.2031 Q65.5313,134.9375 65.6797,134.8594 Q65.8281,134.7813 66.0313,134.7813 Q66.3594,134.7813 66.6172,135.0391 Q66.875,135.2969 66.875,135.6406 Q66.875,135.9844 66.5313,136.3906 Q66.0313,136.9688 65.2344,137.2969 Q64.1563,137.75 62.8594,137.75 Q61.3438,137.75 60.1406,137.125 Q59.1563,136.625 58.4688,135.5547 Q57.7813,134.4844 57.7813,133.2031 L57.7813,132.0469 Q57.7813,130.7188 58.3984,129.5703 Q59.0156,128.4219 60.1094,127.8047 Q61.2031,127.1875 62.4375,127.1875 Q63.1719,127.1875 63.8203,127.3516 Q64.4688,127.5156 65.0156,127.875 Z "/><text fill="#000000" font-family="sans-serif" font-size="12" lengthAdjust="spacingAndGlyphs" textLength="47" x="82.75" y="136.9102">Persona</text><line style="stroke: #A80036; stroke-width: 1.5;" x1="7" x2="173" y1="148" y2="148"/><rect fill="none" height="6" style="stroke: #C82930; stroke-width: 1.0;" width="6" x="14" y="157.418"/><text fill="#000000" font-family="sans-serif" font-size="11" lengthAdjust="spacingAndGlyphs" textLength="79" x="26" y="163.4189">Cabeza cabeza;</text><rect fill="none" height="6" style="stroke: #C82930; stroke-width: 1.0;" width="6" x="14" y="171.2539"/><text fill="#000000" font-family="sans-serif" font-size="11" lengthAdjust="spacingAndGlyphs" textLength="71" x="26" y="177.2549">Tronco tronco;</text><rect fill="none" height="6" style="stroke: #C82930; stroke-width: 1.0;" width="6" x="14" y="185.0898"/><text fill="#000000" font-family="sans-serif" font-size="11" lengthAdjust="spacingAndGlyphs" textLength="142" x="26" y="191.0908">Extremidades[] extremidades;</text><rect fill="none" height="6" style="stroke: #C82930; stroke-width: 1.0;" width="6" x="14" y="198.9258"/><text fill="#000000" font-family="sans-serif" font-size="11" lengthAdjust="spacingAndGlyphs" textLength="54" x="26" y="204.9268">Pene pene;</text><rect fill="none" height="6" style="stroke: #C82930; stroke-width: 1.0;" width="6" x="14" y="212.7617"/><text fill="#000000" font-family="sans-serif" font-size="11" lengthAdjust="spacingAndGlyphs" textLength="72" x="26" y="218.7627">Vagina vagina;</text><rect fill="none" height="6" style="stroke: #C82930; stroke-width: 1.0;" width="6" x="14" y="226.5977"/><text fill="#000000" font-family="sans-serif" font-size="11" lengthAdjust="spacingAndGlyphs" textLength="51" x="26" y="232.5986">String tipo;</text><line style="stroke: #A80036; stroke-width: 1.5;" x1="7" x2="173" y1="239.0156" y2="239.0156"/><ellipse cx="17" cy="251.4336" fill="#84BE84" rx="3" ry="3" style="stroke: #038048; stroke-width: 1.0;"/><text fill="#000000" font-family="sans-serif" font-size="11" lengthAdjust="spacingAndGlyphs" textLength="96" x="26" y="254.4346">Persona(String tipo)</text><ellipse cx="17" cy="265.2695" fill="#84BE84" rx="3" ry="3" style="stroke: #038048; stroke-width: 1.0;"/><text fill="#000000" font-family="sans-serif" font-size="11" lengthAdjust="spacingAndGlyphs" textLength="34" x="26" y="268.2705">bailar()</text><ellipse cx="17" cy="279.1055" fill="#84BE84" rx="3" ry="3" style="stroke: #038048; stroke-width: 1.0;"/><text fill="#000000" font-family="sans-serif" font-size="11" lengthAdjust="spacingAndGlyphs" textLength="41" x="26" y="282.1064">correr();</text><ellipse cx="17" cy="292.9414" fill="#84BE84" rx="3" ry="3" style="stroke: #038048; stroke-width: 1.0;"/><text fill="#000000" font-family="sans-serif" font-size="11" lengthAdjust="spacingAndGlyphs" textLength="57" x="26" y="295.9424">miccionar();</text><path d="M209.5,163 L209.5,205 L174.07,209 L209.5,213 L209.5,254.7578 A0,0 0 0 0 209.5,254.7578 L378.5,254.7578 A0,0 0 0 0 378.5,254.7578 L378.5,173 L368.5,163 L209.5,163 A0,0 0 0 0 209.5,163 " fill="#FBFB77" filter="url(#fdbozf6a62lfl)" style="stroke: #A80036; stroke-width: 1.0;"/><path d="M368.5,163 L368.5,173 L378.5,173 L368.5,163 " fill="#FBFB77" style="stroke: #A80036; stroke-width: 1.0;"/><text fill="#000000" font-family="sans-serif" font-size="13" lengthAdjust="spacingAndGlyphs" textLength="148" x="215.5" y="181.4951">if (tipo.equals("Hombre")){</text><text fill="#000000" font-family="sans-serif" font-size="13" lengthAdjust="spacingAndGlyphs" textLength="12" x="231.5" y="197.8467">...</text><text fill="#000000" font-family="sans-serif" font-size="13" lengthAdjust="spacingAndGlyphs" textLength="40" x="215.5" y="214.1982">} else {</text><text fill="#000000" font-family="sans-serif" font-size="13" lengthAdjust="spacingAndGlyphs" textLength="12" x="231.5" y="230.5498">...</text><text fill="#000000" font-family="sans-serif" font-size="13" lengthAdjust="spacingAndGlyphs" textLength="4" x="215.5" y="246.9014">}</text><!--link Cliente to Persona--><path d="M90,56.239 C90,70.638 90,90.213 90,110.513 " fill="none" id="Cliente-Persona" style="stroke: #A80036; stroke-width: 1.0;"/><polygon fill="#A80036" points="90,115.688,94,106.688,90,110.688,86,106.688,90,115.688" style="stroke: #A80036; stroke-width: 1.0;"/><!--
@startuml
class Cliente
note right: new Persona("Mujer")
Cliente - -> Persona
class Persona{
- Cabeza cabeza;
- Tronco tronco;
- Extremidades[] extremidades;
- Pene pene;
- Vagina vagina;
- String tipo;
+ Persona(String tipo)
+ bailar()
+ correr();
+ miccionar();
}
note right
if (tipo.equals("Hombre")){
    ...
} else {
    ...
}
endnote

@enduml

PlantUML version 1.2019.05(Sat Apr 20 18:45:36 CEST 2019)
(GPL source distribution)
Java Runtime: OpenJDK Runtime Environment
JVM: OpenJDK 64-Bit Server VM
Java Version: 1.8.0_222-b10
Operating System: Windows 10
OS Version: 10.0
Default Encoding: windows-1252
Language: es
Country: ES
--></g></svg>