<?xml version="1.0" encoding="UTF-8" standalone="no"?><svg xmlns="http://www.w3.org/2000/svg" xmlns:xlink="http://www.w3.org/1999/xlink" contentScriptType="application/ecmascript" contentStyleType="text/css" height="432px" preserveAspectRatio="none" style="width:393px;height:432px;" version="1.1" viewBox="0 0 393 432" width="393px" zoomAndPan="magnify"><defs><filter height="300%" id="fe332xymkoa93" width="300%" x="-1" y="-1"><feGaussianBlur result="blurOut" stdDeviation="2.0"/><feColorMatrix in="blurOut" result="blurOut2" type="matrix" values="0 0 0 0 0 0 0 0 0 0 0 0 0 0 0 0 0 0 .4 0"/><feOffset dx="4.0" dy="4.0" in="blurOut2" result="blurOut3"/><feBlend in="SourceGraphic" in2="blurOut3" mode="normal"/></filter></defs><g><!--cluster clases--><polygon fill="#FFFFFF" filter="url(#fe332xymkoa93)" points="22,24,73,24,80,47.6094,192,47.6094,192,348.5,22,348.5,22,24" style="stroke: #000000; stroke-width: 1.5;"/><line style="stroke: #000000; stroke-width: 1.5;" x1="22" x2="80" y1="47.6094" y2="47.6094"/><text fill="#000000" font-family="sans-serif" font-size="14" font-weight="bold" lengthAdjust="spacingAndGlyphs" textLength="45" x="26" y="40.5332">clases</text><!--class A--><rect fill="#FEFECE" filter="url(#fe332xymkoa93)" height="61.8359" id="A" style="stroke: #A80036; stroke-width: 1.5;" width="51" x="81.5" y="60"/><ellipse cx="101.9" cy="76" fill="#ADD1B2" rx="11" ry="11" style="stroke: #A80036; stroke-width: 1.0;"/><path d="M104.6656,71.875 Q104.8219,71.6563 105.0094,71.5469 Q105.1969,71.4375 105.4156,71.4375 Q105.7906,71.4375 106.025,71.6953 Q106.2594,71.9531 106.2594,72.5625 L106.2594,74.0156 Q106.2594,74.625 106.025,74.8906 Q105.7906,75.1563 105.4156,75.1563 Q105.0719,75.1563 104.8688,74.9531 Q104.6656,74.7656 104.5563,74.25 Q104.5094,73.8906 104.3219,73.7031 Q103.9938,73.3281 103.3844,73.1094 Q102.775,72.8906 102.15,72.8906 Q101.3844,72.8906 100.7516,73.2188 Q100.1188,73.5469 99.6266,74.2969 Q99.1344,75.0469 99.1344,76.0781 L99.1344,77.1719 Q99.1344,78.4063 100.025,79.2266 Q100.9156,80.0469 102.5094,80.0469 Q103.4469,80.0469 104.1031,79.7969 Q104.4938,79.6406 104.9156,79.2031 Q105.1813,78.9375 105.3297,78.8594 Q105.4781,78.7813 105.6813,78.7813 Q106.0094,78.7813 106.2672,79.0391 Q106.525,79.2969 106.525,79.6406 Q106.525,79.9844 106.1813,80.3906 Q105.6813,80.9688 104.8844,81.2969 Q103.8063,81.75 102.5094,81.75 Q100.9938,81.75 99.7906,81.125 Q98.8063,80.625 98.1188,79.5547 Q97.4313,78.4844 97.4313,77.2031 L97.4313,76.0469 Q97.4313,74.7188 98.0484,73.5703 Q98.6656,72.4219 99.7594,71.8047 Q100.8531,71.1875 102.0875,71.1875 Q102.8219,71.1875 103.4703,71.3516 Q104.1188,71.5156 104.6656,71.875 Z "/><text fill="#000000" font-family="sans-serif" font-size="12" lengthAdjust="spacingAndGlyphs" textLength="7" x="117.1" y="80.9102">A</text><line style="stroke: #A80036; stroke-width: 1.5;" x1="82.5" x2="131.5" y1="92" y2="92"/><line style="stroke: #A80036; stroke-width: 1.5;" x1="82.5" x2="131.5" y1="100" y2="100"/><text fill="#000000" font-family="sans-serif" font-size="11" lengthAdjust="spacingAndGlyphs" textLength="39" x="87.5" y="115.4189">void m()</text><!--class B--><rect fill="#FEFECE" filter="url(#fe332xymkoa93)" height="61.8359" id="B" style="stroke: #A80036; stroke-width: 1.5;" width="51" x="124.5" y="270.5"/><ellipse cx="144.45" cy="286.5" fill="#ADD1B2" rx="11" ry="11" style="stroke: #A80036; stroke-width: 1.0;"/><path d="M147.2156,282.375 Q147.3719,282.1563 147.5594,282.0469 Q147.7469,281.9375 147.9656,281.9375 Q148.3406,281.9375 148.575,282.1953 Q148.8094,282.4531 148.8094,283.0625 L148.8094,284.5156 Q148.8094,285.125 148.575,285.3906 Q148.3406,285.6563 147.9656,285.6563 Q147.6219,285.6563 147.4188,285.4531 Q147.2156,285.2656 147.1063,284.75 Q147.0594,284.3906 146.8719,284.2031 Q146.5438,283.8281 145.9344,283.6094 Q145.325,283.3906 144.7,283.3906 Q143.9344,283.3906 143.3016,283.7188 Q142.6688,284.0469 142.1766,284.7969 Q141.6844,285.5469 141.6844,286.5781 L141.6844,287.6719 Q141.6844,288.9063 142.575,289.7266 Q143.4656,290.5469 145.0594,290.5469 Q145.9969,290.5469 146.6531,290.2969 Q147.0438,290.1406 147.4656,289.7031 Q147.7313,289.4375 147.8797,289.3594 Q148.0281,289.2813 148.2313,289.2813 Q148.5594,289.2813 148.8172,289.5391 Q149.075,289.7969 149.075,290.1406 Q149.075,290.4844 148.7313,290.8906 Q148.2313,291.4688 147.4344,291.7969 Q146.3563,292.25 145.0594,292.25 Q143.5438,292.25 142.3406,291.625 Q141.3563,291.125 140.6688,290.0547 Q139.9813,288.9844 139.9813,287.7031 L139.9813,286.5469 Q139.9813,285.2188 140.5984,284.0703 Q141.2156,282.9219 142.3094,282.3047 Q143.4031,281.6875 144.6375,281.6875 Q145.3719,281.6875 146.0203,281.8516 Q146.6688,282.0156 147.2156,282.375 Z "/><text fill="#000000" font-family="sans-serif" font-size="12" lengthAdjust="spacingAndGlyphs" textLength="8" x="159.55" y="291.4102">B</text><line style="stroke: #A80036; stroke-width: 1.5;" x1="125.5" x2="174.5" y1="302.5" y2="302.5"/><line style="stroke: #A80036; stroke-width: 1.5;" x1="125.5" x2="174.5" y1="310.5" y2="310.5"/><text fill="#000000" font-family="sans-serif" font-size="11" lengthAdjust="spacingAndGlyphs" textLength="39" x="130.5" y="325.9189">void m()</text><!--class C--><rect fill="#FEFECE" filter="url(#fe332xymkoa93)" height="61.8359" id="C" style="stroke: #A80036; stroke-width: 1.5;" width="51" x="38.5" y="270.5"/><ellipse cx="58" cy="286.5" fill="#ADD1B2" rx="11" ry="11" style="stroke: #A80036; stroke-width: 1.0;"/><path d="M60.7656,282.375 Q60.9219,282.1563 61.1094,282.0469 Q61.2969,281.9375 61.5156,281.9375 Q61.8906,281.9375 62.125,282.1953 Q62.3594,282.4531 62.3594,283.0625 L62.3594,284.5156 Q62.3594,285.125 62.125,285.3906 Q61.8906,285.6563 61.5156,285.6563 Q61.1719,285.6563 60.9688,285.4531 Q60.7656,285.2656 60.6563,284.75 Q60.6094,284.3906 60.4219,284.2031 Q60.0938,283.8281 59.4844,283.6094 Q58.875,283.3906 58.25,283.3906 Q57.4844,283.3906 56.8516,283.7188 Q56.2188,284.0469 55.7266,284.7969 Q55.2344,285.5469 55.2344,286.5781 L55.2344,287.6719 Q55.2344,288.9063 56.125,289.7266 Q57.0156,290.5469 58.6094,290.5469 Q59.5469,290.5469 60.2031,290.2969 Q60.5938,290.1406 61.0156,289.7031 Q61.2813,289.4375 61.4297,289.3594 Q61.5781,289.2813 61.7813,289.2813 Q62.1094,289.2813 62.3672,289.5391 Q62.625,289.7969 62.625,290.1406 Q62.625,290.4844 62.2813,290.8906 Q61.7813,291.4688 60.9844,291.7969 Q59.9063,292.25 58.6094,292.25 Q57.0938,292.25 55.8906,291.625 Q54.9063,291.125 54.2188,290.0547 Q53.5313,288.9844 53.5313,287.7031 L53.5313,286.5469 Q53.5313,285.2188 54.1484,284.0703 Q54.7656,282.9219 55.8594,282.3047 Q56.9531,281.6875 58.1875,281.6875 Q58.9219,281.6875 59.5703,281.8516 Q60.2188,282.0156 60.7656,282.375 Z "/><text fill="#000000" font-family="sans-serif" font-size="12" lengthAdjust="spacingAndGlyphs" textLength="9" x="73" y="291.4102">C</text><line style="stroke: #A80036; stroke-width: 1.5;" x1="39.5" x2="88.5" y1="302.5" y2="302.5"/><line style="stroke: #A80036; stroke-width: 1.5;" x1="39.5" x2="88.5" y1="310.5" y2="310.5"/><text fill="#000000" font-family="sans-serif" font-size="11" lengthAdjust="spacingAndGlyphs" textLength="39" x="44.5" y="325.9189">void m()</text><path d="M211,182 L211,420.9219 L381,420.9219 L381,192 L371,182 L211,182 " fill="#FBFB77" filter="url(#fe332xymkoa93)" style="stroke: #A80036; stroke-width: 1.0;"/><path d="M371,182 L371,192 L381,192 L371,182 " fill="#FBFB77" style="stroke: #A80036; stroke-width: 1.0;"/><text fill="#000000" font-family="sans-serif" font-size="13" lengthAdjust="spacingAndGlyphs" textLength="33" x="217" y="200.4951">A oA;</text><text fill="#000000" font-family="sans-serif" font-size="13" lengthAdjust="spacingAndGlyphs" textLength="38" x="217" y="216.8467">if (...) {</text><text fill="#000000" font-family="sans-serif" font-size="13" lengthAdjust="spacingAndGlyphs" textLength="80" x="233" y="233.1982">oA = new A();</text><text fill="#000000" font-family="sans-serif" font-size="13" lengthAdjust="spacingAndGlyphs" textLength="74" x="217" y="249.5498">} else if (...) {</text><text fill="#000000" font-family="sans-serif" font-size="13" lengthAdjust="spacingAndGlyphs" textLength="80" x="233" y="265.9014">oA = new B();</text><text fill="#000000" font-family="sans-serif" font-size="13" lengthAdjust="spacingAndGlyphs" textLength="40" x="217" y="282.2529">} else {</text><text fill="#000000" font-family="sans-serif" font-size="13" lengthAdjust="spacingAndGlyphs" textLength="80" x="233" y="298.6045">oA = new C();</text><text fill="#000000" font-family="sans-serif" font-size="13" lengthAdjust="spacingAndGlyphs" textLength="4" x="217" y="314.9561">}</text><text fill="#000000" font-family="sans-serif" font-size="13" lengthAdjust="spacingAndGlyphs" textLength="93" x="217" y="331.3076">B oB = new B();</text><text fill="#000000" font-family="sans-serif" font-size="13" lengthAdjust="spacingAndGlyphs" textLength="93" x="217" y="347.6592">C oC = new C();</text><text fill="#000000" font-family="sans-serif" font-size="13" lengthAdjust="spacingAndGlyphs" textLength="0" x="221" y="364.0107"/><text fill="#000000" font-family="sans-serif" font-size="13" lengthAdjust="spacingAndGlyphs" textLength="149" x="217" y="380.3623">oA.m(); // m de A 贸 B 贸 C</text><text fill="#000000" font-family="sans-serif" font-size="13" lengthAdjust="spacingAndGlyphs" textLength="101" x="217" y="396.7139">oB.m(); // m de B</text><text fill="#000000" font-family="sans-serif" font-size="13" lengthAdjust="spacingAndGlyphs" textLength="101" x="217" y="413.0654">oC.m(); // m de C</text><!--link C to GMN6--><path d="M65.9214,270.247 C70.0889,233.855 83.2246,175.707 124.5,152 C159.094,132.13 193.086,151.21 221.566,181.597 " fill="none" id="C-GMN6" style="stroke: #A80036; stroke-width: 1.0; stroke-dasharray: 7.0,7.0;"/><!--link A to B--><path d="M117.311,141.997 C125.573,182.056 136.89,236.93 143.81,270.484 " fill="none" id="A-B" style="stroke: #A80036; stroke-width: 1.0;"/><polygon fill="none" points="110.437,143.319,113.253,122.318,124.148,140.492,110.437,143.319" style="stroke: #A80036; stroke-width: 1.0;"/><!--link A to C--><path d="M96.6889,141.997 C88.4274,182.056 77.1103,236.93 70.1904,270.484 " fill="none" id="A-C" style="stroke: #A80036; stroke-width: 1.0;"/><polygon fill="none" points="89.8519,140.492,100.7474,122.318,103.5634,143.319,89.8519,140.492" style="stroke: #A80036; stroke-width: 1.0;"/><!--
@startuml

package clases {

class A {
void m()
}

class B{
void m()
}

class C{
void m()
}

}
note right
A oA;
if (...) {
    oA = new A();
} else if (...) {
    oA = new B();
} else {
    oA = new C();
}
B oB = new B();
C oC = new C();

oA.m(); // m de A 贸 B 贸 C
oB.m(); // m de B
oC.m(); // m de C
endnote

A <|-down- B
A <|-down- C
@enduml

PlantUML version 1.2019.05(Sat Apr 20 18:45:36 CEST 2019)
(GPL source distribution)
Java Runtime: OpenJDK Runtime Environment
JVM: OpenJDK 64-Bit Server VM
Java Version: 1.8.0_222-b10
Operating System: Windows 10
OS Version: 10.0
Default Encoding: windows-1252
Language: es
Country: ES
--></g></svg>