<?xml version="1.0" encoding="UTF-8" standalone="no"?><svg xmlns="http://www.w3.org/2000/svg" xmlns:xlink="http://www.w3.org/1999/xlink" contentScriptType="application/ecmascript" contentStyleType="text/css" height="404px" preserveAspectRatio="none" style="width:517px;height:404px;" version="1.1" viewBox="0 0 517 404" width="517px" zoomAndPan="magnify"><defs><filter height="300%" id="flxwd6auidxga" width="300%" x="-1" y="-1"><feGaussianBlur result="blurOut" stdDeviation="2.0"/><feColorMatrix in="blurOut" result="blurOut2" type="matrix" values="0 0 0 0 0 0 0 0 0 0 0 0 0 0 0 0 0 0 .4 0"/><feOffset dx="4.0" dy="4.0" in="blurOut2" result="blurOut3"/><feBlend in="SourceGraphic" in2="blurOut3" mode="normal"/></filter></defs><g><!--cluster clases--><polygon fill="#FFFFFF" filter="url(#flxwd6auidxga)" points="22,62.5,73,62.5,80,86.1094,299,86.1094,299,392,22,392,22,62.5" style="stroke: #000000; stroke-width: 1.5;"/><line style="stroke: #000000; stroke-width: 1.5;" x1="22" x2="80" y1="86.1094" y2="86.1094"/><text fill="#000000" font-family="sans-serif" font-size="14" font-weight="bold" lengthAdjust="spacingAndGlyphs" textLength="45" x="26" y="79.0332">clases</text><!--class X--><rect fill="#FEFECE" filter="url(#flxwd6auidxga)" height="117.1797" id="X" style="stroke: #A80036; stroke-width: 1.5;" width="72" x="38" y="98.5"/><ellipse cx="67.85" cy="114.5" fill="#ADD1B2" rx="11" ry="11" style="stroke: #A80036; stroke-width: 1.0;"/><path d="M70.6156,110.375 Q70.7719,110.1563 70.9594,110.0469 Q71.1469,109.9375 71.3656,109.9375 Q71.7406,109.9375 71.975,110.1953 Q72.2094,110.4531 72.2094,111.0625 L72.2094,112.5156 Q72.2094,113.125 71.975,113.3906 Q71.7406,113.6563 71.3656,113.6563 Q71.0219,113.6563 70.8188,113.4531 Q70.6156,113.2656 70.5063,112.75 Q70.4594,112.3906 70.2719,112.2031 Q69.9438,111.8281 69.3344,111.6094 Q68.725,111.3906 68.1,111.3906 Q67.3344,111.3906 66.7016,111.7188 Q66.0688,112.0469 65.5766,112.7969 Q65.0844,113.5469 65.0844,114.5781 L65.0844,115.6719 Q65.0844,116.9063 65.975,117.7266 Q66.8656,118.5469 68.4594,118.5469 Q69.3969,118.5469 70.0531,118.2969 Q70.4438,118.1406 70.8656,117.7031 Q71.1313,117.4375 71.2797,117.3594 Q71.4281,117.2813 71.6313,117.2813 Q71.9594,117.2813 72.2172,117.5391 Q72.475,117.7969 72.475,118.1406 Q72.475,118.4844 72.1313,118.8906 Q71.6313,119.4688 70.8344,119.7969 Q69.7563,120.25 68.4594,120.25 Q66.9438,120.25 65.7406,119.625 Q64.7563,119.125 64.0688,118.0547 Q63.3812,116.9844 63.3812,115.7031 L63.3812,114.5469 Q63.3812,113.2188 63.9984,112.0703 Q64.6156,110.9219 65.7094,110.3047 Q66.8031,109.6875 68.0375,109.6875 Q68.7719,109.6875 69.4203,109.8516 Q70.0688,110.0156 70.6156,110.375 Z "/><text fill="#000000" font-family="sans-serif" font-size="12" lengthAdjust="spacingAndGlyphs" textLength="7" x="85.15" y="119.4102">X</text><line style="stroke: #A80036; stroke-width: 1.5;" x1="39" x2="109" y1="130.5" y2="130.5"/><line style="stroke: #A80036; stroke-width: 1.5;" x1="39" x2="109" y1="138.5" y2="138.5"/><text fill="#000000" font-family="sans-serif" font-size="11" lengthAdjust="spacingAndGlyphs" textLength="39" x="44" y="153.9189">void m()</text><text fill="#000000" font-family="sans-serif" font-size="11" lengthAdjust="spacingAndGlyphs" textLength="35" x="44" y="167.7549">A m(A)</text><text fill="#000000" font-family="sans-serif" font-size="11" lengthAdjust="spacingAndGlyphs" textLength="60" x="44" y="181.5908">void m(A, C)</text><text fill="#000000" font-family="sans-serif" font-size="11" lengthAdjust="spacingAndGlyphs" textLength="47" x="44" y="195.4268">A m(C, B)</text><text fill="#000000" font-family="sans-serif" font-size="11" lengthAdjust="spacingAndGlyphs" textLength="33" x="44" y="209.2627">B m(B)</text><!--class A--><rect fill="#FEFECE" filter="url(#flxwd6auidxga)" height="48" id="A" style="stroke: #A80036; stroke-width: 1.5;" width="39" x="181.5" y="133"/><ellipse cx="196.5" cy="149" fill="#ADD1B2" rx="11" ry="11" style="stroke: #A80036; stroke-width: 1.0;"/><path d="M199.2656,144.875 Q199.4219,144.6563 199.6094,144.5469 Q199.7969,144.4375 200.0156,144.4375 Q200.3906,144.4375 200.625,144.6953 Q200.8594,144.9531 200.8594,145.5625 L200.8594,147.0156 Q200.8594,147.625 200.625,147.8906 Q200.3906,148.1563 200.0156,148.1563 Q199.6719,148.1563 199.4688,147.9531 Q199.2656,147.7656 199.1563,147.25 Q199.1094,146.8906 198.9219,146.7031 Q198.5938,146.3281 197.9844,146.1094 Q197.375,145.8906 196.75,145.8906 Q195.9844,145.8906 195.3516,146.2188 Q194.7188,146.5469 194.2266,147.2969 Q193.7344,148.0469 193.7344,149.0781 L193.7344,150.1719 Q193.7344,151.4063 194.625,152.2266 Q195.5156,153.0469 197.1094,153.0469 Q198.0469,153.0469 198.7031,152.7969 Q199.0938,152.6406 199.5156,152.2031 Q199.7813,151.9375 199.9297,151.8594 Q200.0781,151.7813 200.2813,151.7813 Q200.6094,151.7813 200.8672,152.0391 Q201.125,152.2969 201.125,152.6406 Q201.125,152.9844 200.7813,153.3906 Q200.2813,153.9688 199.4844,154.2969 Q198.4063,154.75 197.1094,154.75 Q195.5938,154.75 194.3906,154.125 Q193.4063,153.625 192.7188,152.5547 Q192.0313,151.4844 192.0313,150.2031 L192.0313,149.0469 Q192.0313,147.7188 192.6484,146.5703 Q193.2656,145.4219 194.3594,144.8047 Q195.4531,144.1875 196.6875,144.1875 Q197.4219,144.1875 198.0703,144.3516 Q198.7188,144.5156 199.2656,144.875 Z "/><text fill="#000000" font-family="sans-serif" font-size="12" lengthAdjust="spacingAndGlyphs" textLength="7" x="210.5" y="153.9102">A</text><line style="stroke: #A80036; stroke-width: 1.5;" x1="182.5" x2="219.5" y1="165" y2="165"/><line style="stroke: #A80036; stroke-width: 1.5;" x1="182.5" x2="219.5" y1="173" y2="173"/><!--class B--><rect fill="#FEFECE" filter="url(#flxwd6auidxga)" height="48" id="B" style="stroke: #A80036; stroke-width: 1.5;" width="40" x="142" y="304"/><ellipse cx="157" cy="320" fill="#ADD1B2" rx="11" ry="11" style="stroke: #A80036; stroke-width: 1.0;"/><path d="M159.7656,315.875 Q159.9219,315.6563 160.1094,315.5469 Q160.2969,315.4375 160.5156,315.4375 Q160.8906,315.4375 161.125,315.6953 Q161.3594,315.9531 161.3594,316.5625 L161.3594,318.0156 Q161.3594,318.625 161.125,318.8906 Q160.8906,319.1563 160.5156,319.1563 Q160.1719,319.1563 159.9688,318.9531 Q159.7656,318.7656 159.6563,318.25 Q159.6094,317.8906 159.4219,317.7031 Q159.0938,317.3281 158.4844,317.1094 Q157.875,316.8906 157.25,316.8906 Q156.4844,316.8906 155.8516,317.2188 Q155.2188,317.5469 154.7266,318.2969 Q154.2344,319.0469 154.2344,320.0781 L154.2344,321.1719 Q154.2344,322.4063 155.125,323.2266 Q156.0156,324.0469 157.6094,324.0469 Q158.5469,324.0469 159.2031,323.7969 Q159.5938,323.6406 160.0156,323.2031 Q160.2813,322.9375 160.4297,322.8594 Q160.5781,322.7813 160.7813,322.7813 Q161.1094,322.7813 161.3672,323.0391 Q161.625,323.2969 161.625,323.6406 Q161.625,323.9844 161.2813,324.3906 Q160.7813,324.9688 159.9844,325.2969 Q158.9063,325.75 157.6094,325.75 Q156.0938,325.75 154.8906,325.125 Q153.9063,324.625 153.2188,323.5547 Q152.5313,322.4844 152.5313,321.2031 L152.5313,320.0469 Q152.5313,318.7188 153.1484,317.5703 Q153.7656,316.4219 154.8594,315.8047 Q155.9531,315.1875 157.1875,315.1875 Q157.9219,315.1875 158.5703,315.3516 Q159.2188,315.5156 159.7656,315.875 Z "/><text fill="#000000" font-family="sans-serif" font-size="12" lengthAdjust="spacingAndGlyphs" textLength="8" x="171" y="324.9102">B</text><line style="stroke: #A80036; stroke-width: 1.5;" x1="143" x2="181" y1="336" y2="336"/><line style="stroke: #A80036; stroke-width: 1.5;" x1="143" x2="181" y1="344" y2="344"/><!--class C--><rect fill="#FEFECE" filter="url(#flxwd6auidxga)" height="48" id="C" style="stroke: #A80036; stroke-width: 1.5;" width="41" x="217.5" y="304"/><ellipse cx="232.5" cy="320" fill="#ADD1B2" rx="11" ry="11" style="stroke: #A80036; stroke-width: 1.0;"/><path d="M235.2656,315.875 Q235.4219,315.6563 235.6094,315.5469 Q235.7969,315.4375 236.0156,315.4375 Q236.3906,315.4375 236.625,315.6953 Q236.8594,315.9531 236.8594,316.5625 L236.8594,318.0156 Q236.8594,318.625 236.625,318.8906 Q236.3906,319.1563 236.0156,319.1563 Q235.6719,319.1563 235.4688,318.9531 Q235.2656,318.7656 235.1563,318.25 Q235.1094,317.8906 234.9219,317.7031 Q234.5938,317.3281 233.9844,317.1094 Q233.375,316.8906 232.75,316.8906 Q231.9844,316.8906 231.3516,317.2188 Q230.7188,317.5469 230.2266,318.2969 Q229.7344,319.0469 229.7344,320.0781 L229.7344,321.1719 Q229.7344,322.4063 230.625,323.2266 Q231.5156,324.0469 233.1094,324.0469 Q234.0469,324.0469 234.7031,323.7969 Q235.0938,323.6406 235.5156,323.2031 Q235.7813,322.9375 235.9297,322.8594 Q236.0781,322.7813 236.2813,322.7813 Q236.6094,322.7813 236.8672,323.0391 Q237.125,323.2969 237.125,323.6406 Q237.125,323.9844 236.7813,324.3906 Q236.2813,324.9688 235.4844,325.2969 Q234.4063,325.75 233.1094,325.75 Q231.5938,325.75 230.3906,325.125 Q229.4063,324.625 228.7188,323.5547 Q228.0313,322.4844 228.0313,321.2031 L228.0313,320.0469 Q228.0313,318.7188 228.6484,317.5703 Q229.2656,316.4219 230.3594,315.8047 Q231.4531,315.1875 232.6875,315.1875 Q233.4219,315.1875 234.0703,315.3516 Q234.7188,315.5156 235.2656,315.875 Z "/><text fill="#000000" font-family="sans-serif" font-size="12" lengthAdjust="spacingAndGlyphs" textLength="9" x="246.5" y="324.9102">C</text><line style="stroke: #A80036; stroke-width: 1.5;" x1="218.5" x2="257.5" y1="336" y2="336"/><line style="stroke: #A80036; stroke-width: 1.5;" x1="218.5" x2="257.5" y1="344" y2="344"/><path d="M315,70 L315,243.5156 L505,243.5156 L505,80 L495,70 L315,70 " fill="#FBFB77" filter="url(#flxwd6auidxga)" style="stroke: #A80036; stroke-width: 1.0;"/><path d="M495,70 L495,80 L505,80 L495,70 " fill="#FBFB77" style="stroke: #A80036; stroke-width: 1.0;"/><text fill="#000000" font-family="sans-serif" font-size="13" lengthAdjust="spacingAndGlyphs" textLength="93" x="321" y="88.4951">A oA = new A();</text><text fill="#000000" font-family="sans-serif" font-size="13" lengthAdjust="spacingAndGlyphs" textLength="93" x="321" y="104.8467">B oB = new B();</text><text fill="#000000" font-family="sans-serif" font-size="13" lengthAdjust="spacingAndGlyphs" textLength="93" x="321" y="121.1982">C oC = new C();</text><text fill="#000000" font-family="sans-serif" font-size="13" lengthAdjust="spacingAndGlyphs" textLength="87" x="321" y="137.5498">X oX = new X();</text><text fill="#000000" font-family="sans-serif" font-size="13" lengthAdjust="spacingAndGlyphs" textLength="0" x="325" y="153.9014"/><text fill="#000000" font-family="sans-serif" font-size="13" lengthAdjust="spacingAndGlyphs" textLength="75" x="321" y="170.2529">oX.m() // void</text><text fill="#000000" font-family="sans-serif" font-size="13" lengthAdjust="spacingAndGlyphs" textLength="145" x="321" y="186.6045">oX.m(oA); // ¿A ó B ó C?</text><text fill="#000000" font-family="sans-serif" font-size="13" lengthAdjust="spacingAndGlyphs" textLength="119" x="321" y="202.9561">oX.m(oA, oC); // void</text><text fill="#000000" font-family="sans-serif" font-size="13" lengthAdjust="spacingAndGlyphs" textLength="169" x="321" y="219.3076">oX.m(oC, oB); // ¿A ó B ó C?</text><text fill="#000000" font-family="sans-serif" font-size="13" lengthAdjust="spacingAndGlyphs" textLength="82" x="321" y="235.6592">oX.m(oB); // B</text><!--link X to GMN21--><path d="M88.8596,98.381 C99.2279,70.612 116.245,40.154 143.5,24.5 C187.435,-0.735 210.04,6.762 257.5,24.5 C284.111,34.446 309.15,51.363 330.947,69.844 " fill="none" id="X-GMN21" style="stroke: #A80036; stroke-width: 1.0; stroke-dasharray: 7.0,7.0;"/><!--link A to B--><path d="M191.135,200.75 C183.58,233.489 173.447,277.395 167.339,303.865 " fill="none" id="A-B" style="stroke: #A80036; stroke-width: 1.0;"/><polygon fill="none" points="184.341,199.058,195.659,181.144,197.982,202.206,184.341,199.058" style="stroke: #A80036; stroke-width: 1.0;"/><!--link A to C--><path d="M210.36,200.75 C217.527,233.489 227.14,277.395 232.935,303.865 " fill="none" id="A-C" style="stroke: #A80036; stroke-width: 1.0;"/><polygon fill="none" points="203.507,202.179,206.067,181.144,217.183,199.185,203.507,202.179" style="stroke: #A80036; stroke-width: 1.0;"/><!--
@startuml

package clases {
together {
class A
class B
class C
}
class X {
void m()
A m(A)
void m(A, C)
A m(C, B)
B m(B)
}
}
note right
A oA = new A();
B oB = new B();
C oC = new C();
X oX = new X();

oX.m() // void
oX.m(oA); // ¿A ó B ó C?
oX.m(oA, oC); // void
oX.m(oC, oB); // ¿A ó B ó C?
oX.m(oB); // B
endnote

A <|-down- B
A <|-down- C
@enduml

PlantUML version 1.2019.05(Sat Apr 20 18:45:36 CEST 2019)
(GPL source distribution)
Java Runtime: OpenJDK Runtime Environment
JVM: OpenJDK 64-Bit Server VM
Java Version: 1.8.0_222-b10
Operating System: Windows 10
OS Version: 10.0
Default Encoding: windows-1252
Language: es
Country: ES
--></g></svg>