<?xml version="1.0" encoding="UTF-8" standalone="no"?><svg xmlns="http://www.w3.org/2000/svg" xmlns:xlink="http://www.w3.org/1999/xlink" contentScriptType="application/ecmascript" contentStyleType="text/css" height="283px" preserveAspectRatio="none" style="width:120px;height:283px;" version="1.1" viewBox="0 0 120 283" width="120px" zoomAndPan="magnify"><defs><filter height="300%" id="fbh2gzavlpo5x" width="300%" x="-1" y="-1"><feGaussianBlur result="blurOut" stdDeviation="2.0"/><feColorMatrix in="blurOut" result="blurOut2" type="matrix" values="0 0 0 0 0 0 0 0 0 0 0 0 0 0 0 0 0 0 .4 0"/><feOffset dx="4.0" dy="4.0" in="blurOut2" result="blurOut3"/><feBlend in="SourceGraphic" in2="blurOut3" mode="normal"/></filter></defs><g><!--class P--><rect fill="#FEFECE" filter="url(#fbh2gzavlpo5x)" height="48" id="P" style="stroke: #A80036; stroke-width: 1.5;" width="40" x="39.5" y="8"/><ellipse cx="54.5" cy="24" fill="#ADD1B2" rx="11" ry="11" style="stroke: #A80036; stroke-width: 1.0;"/><path d="M57.2656,19.875 Q57.4219,19.6563 57.6094,19.5469 Q57.7969,19.4375 58.0156,19.4375 Q58.3906,19.4375 58.625,19.6953 Q58.8594,19.9531 58.8594,20.5625 L58.8594,22.0156 Q58.8594,22.625 58.625,22.8906 Q58.3906,23.1563 58.0156,23.1563 Q57.6719,23.1563 57.4688,22.9531 Q57.2656,22.7656 57.1563,22.25 Q57.1094,21.8906 56.9219,21.7031 Q56.5938,21.3281 55.9844,21.1094 Q55.375,20.8906 54.75,20.8906 Q53.9844,20.8906 53.3516,21.2188 Q52.7188,21.5469 52.2266,22.2969 Q51.7344,23.0469 51.7344,24.0781 L51.7344,25.1719 Q51.7344,26.4063 52.625,27.2266 Q53.5156,28.0469 55.1094,28.0469 Q56.0469,28.0469 56.7031,27.7969 Q57.0938,27.6406 57.5156,27.2031 Q57.7813,26.9375 57.9297,26.8594 Q58.0781,26.7813 58.2813,26.7813 Q58.6094,26.7813 58.8672,27.0391 Q59.125,27.2969 59.125,27.6406 Q59.125,27.9844 58.7813,28.3906 Q58.2813,28.9688 57.4844,29.2969 Q56.4063,29.75 55.1094,29.75 Q53.5938,29.75 52.3906,29.125 Q51.4063,28.625 50.7188,27.5547 Q50.0313,26.4844 50.0313,25.2031 L50.0313,24.0469 Q50.0313,22.7188 50.6484,21.5703 Q51.2656,20.4219 52.3594,19.8047 Q53.4531,19.1875 54.6875,19.1875 Q55.4219,19.1875 56.0703,19.3516 Q56.7188,19.5156 57.2656,19.875 Z "/><text fill="#000000" font-family="sans-serif" font-size="12" lengthAdjust="spacingAndGlyphs" textLength="8" x="68.5" y="28.9102">P</text><line style="stroke: #A80036; stroke-width: 1.5;" x1="40.5" x2="78.5" y1="40" y2="40"/><line style="stroke: #A80036; stroke-width: 1.5;" x1="40.5" x2="78.5" y1="48" y2="48"/><!--class T--><rect fill="#FEFECE" filter="url(#fbh2gzavlpo5x)" height="48" id="T" style="stroke: #A80036; stroke-width: 1.5;" width="39" x="6" y="116"/><ellipse cx="21" cy="132" fill="#ADD1B2" rx="11" ry="11" style="stroke: #A80036; stroke-width: 1.0;"/><path d="M23.7656,127.875 Q23.9219,127.6563 24.1094,127.5469 Q24.2969,127.4375 24.5156,127.4375 Q24.8906,127.4375 25.125,127.6953 Q25.3594,127.9531 25.3594,128.5625 L25.3594,130.0156 Q25.3594,130.625 25.125,130.8906 Q24.8906,131.1563 24.5156,131.1563 Q24.1719,131.1563 23.9688,130.9531 Q23.7656,130.7656 23.6563,130.25 Q23.6094,129.8906 23.4219,129.7031 Q23.0938,129.3281 22.4844,129.1094 Q21.875,128.8906 21.25,128.8906 Q20.4844,128.8906 19.8516,129.2188 Q19.2188,129.5469 18.7266,130.2969 Q18.2344,131.0469 18.2344,132.0781 L18.2344,133.1719 Q18.2344,134.4063 19.125,135.2266 Q20.0156,136.0469 21.6094,136.0469 Q22.5469,136.0469 23.2031,135.7969 Q23.5938,135.6406 24.0156,135.2031 Q24.2813,134.9375 24.4297,134.8594 Q24.5781,134.7813 24.7813,134.7813 Q25.1094,134.7813 25.3672,135.0391 Q25.625,135.2969 25.625,135.6406 Q25.625,135.9844 25.2813,136.3906 Q24.7813,136.9688 23.9844,137.2969 Q22.9063,137.75 21.6094,137.75 Q20.0938,137.75 18.8906,137.125 Q17.9063,136.625 17.2188,135.5547 Q16.5313,134.4844 16.5313,133.2031 L16.5313,132.0469 Q16.5313,130.7188 17.1484,129.5703 Q17.7656,128.4219 18.8594,127.8047 Q19.9531,127.1875 21.1875,127.1875 Q21.9219,127.1875 22.5703,127.3516 Q23.2188,127.5156 23.7656,127.875 Z "/><text fill="#000000" font-family="sans-serif" font-size="12" lengthAdjust="spacingAndGlyphs" textLength="7" x="35" y="136.9102">T</text><line style="stroke: #A80036; stroke-width: 1.5;" x1="7" x2="44" y1="148" y2="148"/><line style="stroke: #A80036; stroke-width: 1.5;" x1="7" x2="44" y1="156" y2="156"/><!--class S--><rect fill="#FEFECE" filter="url(#fbh2gzavlpo5x)" height="48" id="S" style="stroke: #A80036; stroke-width: 1.5;" width="40" x="39.5" y="224"/><ellipse cx="54.5" cy="240" fill="#ADD1B2" rx="11" ry="11" style="stroke: #A80036; stroke-width: 1.0;"/><path d="M57.2656,235.875 Q57.4219,235.6563 57.6094,235.5469 Q57.7969,235.4375 58.0156,235.4375 Q58.3906,235.4375 58.625,235.6953 Q58.8594,235.9531 58.8594,236.5625 L58.8594,238.0156 Q58.8594,238.625 58.625,238.8906 Q58.3906,239.1563 58.0156,239.1563 Q57.6719,239.1563 57.4688,238.9531 Q57.2656,238.7656 57.1563,238.25 Q57.1094,237.8906 56.9219,237.7031 Q56.5938,237.3281 55.9844,237.1094 Q55.375,236.8906 54.75,236.8906 Q53.9844,236.8906 53.3516,237.2188 Q52.7188,237.5469 52.2266,238.2969 Q51.7344,239.0469 51.7344,240.0781 L51.7344,241.1719 Q51.7344,242.4063 52.625,243.2266 Q53.5156,244.0469 55.1094,244.0469 Q56.0469,244.0469 56.7031,243.7969 Q57.0938,243.6406 57.5156,243.2031 Q57.7813,242.9375 57.9297,242.8594 Q58.0781,242.7813 58.2813,242.7813 Q58.6094,242.7813 58.8672,243.0391 Q59.125,243.2969 59.125,243.6406 Q59.125,243.9844 58.7813,244.3906 Q58.2813,244.9688 57.4844,245.2969 Q56.4063,245.75 55.1094,245.75 Q53.5938,245.75 52.3906,245.125 Q51.4063,244.625 50.7188,243.5547 Q50.0313,242.4844 50.0313,241.2031 L50.0313,240.0469 Q50.0313,238.7188 50.6484,237.5703 Q51.2656,236.4219 52.3594,235.8047 Q53.4531,235.1875 54.6875,235.1875 Q55.4219,235.1875 56.0703,235.3516 Q56.7188,235.5156 57.2656,235.875 Z "/><text fill="#000000" font-family="sans-serif" font-size="12" lengthAdjust="spacingAndGlyphs" textLength="8" x="68.5" y="244.9102">S</text><line style="stroke: #A80036; stroke-width: 1.5;" x1="40.5" x2="78.5" y1="256" y2="256"/><line style="stroke: #A80036; stroke-width: 1.5;" x1="40.5" x2="78.5" y1="264" y2="264"/><rect fill="#FEFECE" filter="url(#fbh2gzavlpo5x)" height="35.0938" style="stroke: #A80036; stroke-width: 1.5;" width="29" x="80" y="122.5"/><text fill="#000000" font-family="sans-serif" font-size="12" lengthAdjust="spacingAndGlyphs" textLength="15" x="87" y="136.957">oS</text><line style="stroke: #A80036; stroke-width: 1.5;" x1="81" x2="108" y1="141.5938" y2="141.5938"/><!--link P to T--><path d="M48.1448,68.402 C44.5559,79.59 40.5884,91.96 36.9901,103.178 " fill="none" id="P-T" style="stroke: #A80036; stroke-width: 1.0;"/><polygon fill="#A80036" points="32.9805,115.678,39.5379,108.3295,34.5075,110.9169,31.9201,105.8864,32.9805,115.678" style="stroke: #A80036; stroke-width: 1.0;"/><line style="stroke: #A80036; stroke-width: 1.0;" x1="34.5075" x2="36.9512" y1="110.9169" y2="103.2995"/><polygon fill="#A80036" points="52.1225,56,46.4813,60.4918,48.4579,67.4267,54.0991,62.9349,52.1225,56" style="stroke: #A80036; stroke-width: 1.0;"/><!--link T to S--><path d="M38.99,183.0569 C43.4267,196.8891 48.1969,211.7609 52.0195,223.6784 " fill="none" id="T-S" style="stroke: #A80036; stroke-width: 1.0;"/><polygon fill="none" points="32.3206,185.1827,32.8775,164,45.6516,180.9067,32.3206,185.1827" style="stroke: #A80036; stroke-width: 1.0;"/><!--link P to oS--><path d="M67.0945,56 C73.1222,74.256 81.4878,99.592 87.3864,117.456 " fill="none" id="P-oS" style="stroke: #A80036; stroke-width: 1.0; stroke-dasharray: 7.0,7.0;"/><polygon fill="#A80036" points="88.9807,122.284,89.9582,112.4838,87.4135,117.536,82.3613,114.9913,88.9807,122.284" style="stroke: #A80036; stroke-width: 1.0;"/><!--link oS to S--><path d="M89.0313,157.562 C83.6077,173.9881 75.196,199.4637 68.7352,219.0306 " fill="none" id="oS-S" style="stroke: #A80036; stroke-width: 1.0; stroke-dasharray: 7.0,7.0;"/><polygon fill="#A80036" points="67.1376,223.8688,73.758,216.577,68.7054,219.121,66.1615,214.0684,67.1376,223.8688" style="stroke: #A80036; stroke-width: 1.0;"/><!--
@startuml
class P
P *-down-> T

class T
class S
object oS
T <|-down- S

P .down.> oS
oS ..> S

@enduml

PlantUML version 1.2019.05(Sat Apr 20 18:45:36 CEST 2019)
(GPL source distribution)
Java Runtime: OpenJDK Runtime Environment
JVM: OpenJDK 64-Bit Server VM
Java Version: 1.8.0_222-b10
Operating System: Windows 10
OS Version: 10.0
Default Encoding: windows-1252
Language: es
Country: ES
--></g></svg>