<?xml version="1.0" encoding="UTF-8" standalone="no"?><svg xmlns="http://www.w3.org/2000/svg" xmlns:xlink="http://www.w3.org/1999/xlink" contentScriptType="application/ecmascript" contentStyleType="text/css" height="378px" preserveAspectRatio="none" style="width:85px;height:378px;" version="1.1" viewBox="0 0 85 378" width="85px" zoomAndPan="magnify"><defs><filter height="300%" id="fqni50xdvh3xi" width="300%" x="-1" y="-1"><feGaussianBlur result="blurOut" stdDeviation="2.0"/><feColorMatrix in="blurOut" result="blurOut2" type="matrix" values="0 0 0 0 0 0 0 0 0 0 0 0 0 0 0 0 0 0 .4 0"/><feOffset dx="4.0" dy="4.0" in="blurOut2" result="blurOut3"/><feBlend in="SourceGraphic" in2="blurOut3" mode="normal"/></filter></defs><g><!--class P--><rect fill="#FEFECE" filter="url(#fqni50xdvh3xi)" height="48" id="P" style="stroke: #A80036; stroke-width: 1.5;" width="40" x="6" y="8"/><ellipse cx="21" cy="24" fill="#ADD1B2" rx="11" ry="11" style="stroke: #A80036; stroke-width: 1.0;"/><path d="M23.7656,19.875 Q23.9219,19.6563 24.1094,19.5469 Q24.2969,19.4375 24.5156,19.4375 Q24.8906,19.4375 25.125,19.6953 Q25.3594,19.9531 25.3594,20.5625 L25.3594,22.0156 Q25.3594,22.625 25.125,22.8906 Q24.8906,23.1563 24.5156,23.1563 Q24.1719,23.1563 23.9688,22.9531 Q23.7656,22.7656 23.6563,22.25 Q23.6094,21.8906 23.4219,21.7031 Q23.0938,21.3281 22.4844,21.1094 Q21.875,20.8906 21.25,20.8906 Q20.4844,20.8906 19.8516,21.2188 Q19.2188,21.5469 18.7266,22.2969 Q18.2344,23.0469 18.2344,24.0781 L18.2344,25.1719 Q18.2344,26.4063 19.125,27.2266 Q20.0156,28.0469 21.6094,28.0469 Q22.5469,28.0469 23.2031,27.7969 Q23.5938,27.6406 24.0156,27.2031 Q24.2813,26.9375 24.4297,26.8594 Q24.5781,26.7813 24.7813,26.7813 Q25.1094,26.7813 25.3672,27.0391 Q25.625,27.2969 25.625,27.6406 Q25.625,27.9844 25.2813,28.3906 Q24.7813,28.9688 23.9844,29.2969 Q22.9063,29.75 21.6094,29.75 Q20.0938,29.75 18.8906,29.125 Q17.9063,28.625 17.2188,27.5547 Q16.5313,26.4844 16.5313,25.2031 L16.5313,24.0469 Q16.5313,22.7188 17.1484,21.5703 Q17.7656,20.4219 18.8594,19.8047 Q19.9531,19.1875 21.1875,19.1875 Q21.9219,19.1875 22.5703,19.3516 Q23.2188,19.5156 23.7656,19.875 Z "/><text fill="#000000" font-family="sans-serif" font-size="12" lengthAdjust="spacingAndGlyphs" textLength="8" x="35" y="28.9102">P</text><line style="stroke: #A80036; stroke-width: 1.5;" x1="7" x2="45" y1="40" y2="40"/><line style="stroke: #A80036; stroke-width: 1.5;" x1="7" x2="45" y1="48" y2="48"/><!--class T--><rect fill="#FEFECE" filter="url(#fqni50xdvh3xi)" height="48" id="T" style="stroke: #A80036; stroke-width: 1.5;" width="39" x="6.5" y="211"/><ellipse cx="21.5" cy="227" fill="#ADD1B2" rx="11" ry="11" style="stroke: #A80036; stroke-width: 1.0;"/><path d="M24.2656,222.875 Q24.4219,222.6563 24.6094,222.5469 Q24.7969,222.4375 25.0156,222.4375 Q25.3906,222.4375 25.625,222.6953 Q25.8594,222.9531 25.8594,223.5625 L25.8594,225.0156 Q25.8594,225.625 25.625,225.8906 Q25.3906,226.1563 25.0156,226.1563 Q24.6719,226.1563 24.4688,225.9531 Q24.2656,225.7656 24.1563,225.25 Q24.1094,224.8906 23.9219,224.7031 Q23.5938,224.3281 22.9844,224.1094 Q22.375,223.8906 21.75,223.8906 Q20.9844,223.8906 20.3516,224.2188 Q19.7188,224.5469 19.2266,225.2969 Q18.7344,226.0469 18.7344,227.0781 L18.7344,228.1719 Q18.7344,229.4063 19.625,230.2266 Q20.5156,231.0469 22.1094,231.0469 Q23.0469,231.0469 23.7031,230.7969 Q24.0938,230.6406 24.5156,230.2031 Q24.7813,229.9375 24.9297,229.8594 Q25.0781,229.7813 25.2813,229.7813 Q25.6094,229.7813 25.8672,230.0391 Q26.125,230.2969 26.125,230.6406 Q26.125,230.9844 25.7813,231.3906 Q25.2813,231.9688 24.4844,232.2969 Q23.4063,232.75 22.1094,232.75 Q20.5938,232.75 19.3906,232.125 Q18.4063,231.625 17.7188,230.5547 Q17.0313,229.4844 17.0313,228.2031 L17.0313,227.0469 Q17.0313,225.7188 17.6484,224.5703 Q18.2656,223.4219 19.3594,222.8047 Q20.4531,222.1875 21.6875,222.1875 Q22.4219,222.1875 23.0703,222.3516 Q23.7188,222.5156 24.2656,222.875 Z "/><text fill="#000000" font-family="sans-serif" font-size="12" lengthAdjust="spacingAndGlyphs" textLength="7" x="35.5" y="231.9102">T</text><line style="stroke: #A80036; stroke-width: 1.5;" x1="7.5" x2="44.5" y1="243" y2="243"/><line style="stroke: #A80036; stroke-width: 1.5;" x1="7.5" x2="44.5" y1="251" y2="251"/><rect fill="#FEFECE" filter="url(#fqni50xdvh3xi)" height="35.0938" style="stroke: #A80036; stroke-width: 1.5;" width="28" x="46" y="116"/><text fill="#000000" font-family="sans-serif" font-size="12" lengthAdjust="spacingAndGlyphs" textLength="14" x="53" y="130.457">oT</text><line style="stroke: #A80036; stroke-width: 1.5;" x1="47" x2="73" y1="135.0938" y2="135.0938"/><!--class S--><rect fill="#FEFECE" filter="url(#fqni50xdvh3xi)" height="48" id="S" style="stroke: #A80036; stroke-width: 1.5;" width="40" x="6" y="319"/><ellipse cx="21" cy="335" fill="#ADD1B2" rx="11" ry="11" style="stroke: #A80036; stroke-width: 1.0;"/><path d="M23.7656,330.875 Q23.9219,330.6563 24.1094,330.5469 Q24.2969,330.4375 24.5156,330.4375 Q24.8906,330.4375 25.125,330.6953 Q25.3594,330.9531 25.3594,331.5625 L25.3594,333.0156 Q25.3594,333.625 25.125,333.8906 Q24.8906,334.1563 24.5156,334.1563 Q24.1719,334.1563 23.9688,333.9531 Q23.7656,333.7656 23.6563,333.25 Q23.6094,332.8906 23.4219,332.7031 Q23.0938,332.3281 22.4844,332.1094 Q21.875,331.8906 21.25,331.8906 Q20.4844,331.8906 19.8516,332.2188 Q19.2188,332.5469 18.7266,333.2969 Q18.2344,334.0469 18.2344,335.0781 L18.2344,336.1719 Q18.2344,337.4063 19.125,338.2266 Q20.0156,339.0469 21.6094,339.0469 Q22.5469,339.0469 23.2031,338.7969 Q23.5938,338.6406 24.0156,338.2031 Q24.2813,337.9375 24.4297,337.8594 Q24.5781,337.7813 24.7813,337.7813 Q25.1094,337.7813 25.3672,338.0391 Q25.625,338.2969 25.625,338.6406 Q25.625,338.9844 25.2813,339.3906 Q24.7813,339.9688 23.9844,340.2969 Q22.9063,340.75 21.6094,340.75 Q20.0938,340.75 18.8906,340.125 Q17.9063,339.625 17.2188,338.5547 Q16.5313,337.4844 16.5313,336.2031 L16.5313,335.0469 Q16.5313,333.7188 17.1484,332.5703 Q17.7656,331.4219 18.8594,330.8047 Q19.9531,330.1875 21.1875,330.1875 Q21.9219,330.1875 22.5703,330.3516 Q23.2188,330.5156 23.7656,330.875 Z "/><text fill="#000000" font-family="sans-serif" font-size="12" lengthAdjust="spacingAndGlyphs" textLength="8" x="35" y="339.9102">S</text><line style="stroke: #A80036; stroke-width: 1.5;" x1="7" x2="45" y1="351" y2="351"/><line style="stroke: #A80036; stroke-width: 1.5;" x1="7" x2="45" y1="359" y2="359"/><!--link P to T--><path d="M26,69.227 C26,105.532 26,161.116 26,197.513 " fill="none" id="P-T" style="stroke: #A80036; stroke-width: 1.0;"/><polygon fill="#A80036" points="26,210.903,30,201.903,26,205.903,22,201.903,26,210.903" style="stroke: #A80036; stroke-width: 1.0;"/><line style="stroke: #A80036; stroke-width: 1.0;" x1="26" x2="26.0001" y1="205.903" y2="197.903"/><polygon fill="#A80036" points="26,56.057,22,62.057,26,68.057,30,62.057,26,56.057" style="stroke: #A80036; stroke-width: 1.0;"/><!--link T to S--><path d="M26,279.0236 C26,292.5792 26,307.0381 26,318.6784 " fill="none" id="T-S" style="stroke: #A80036; stroke-width: 1.0;"/><polygon fill="none" points="19.0001,279.0005,26,259,33.0001,279.0004,19.0001,279.0005" style="stroke: #A80036; stroke-width: 1.0;"/><!--link P to oT--><path d="M33.8857,56.077 C39.5391,72.622 47.1018,94.754 52.6333,110.942 " fill="none" id="P-oT" style="stroke: #A80036; stroke-width: 1.0; stroke-dasharray: 7.0,7.0;"/><polygon fill="#A80036" points="54.2804,115.762,55.1547,105.952,52.6633,111.0307,47.5846,108.5394,54.2804,115.762" style="stroke: #A80036; stroke-width: 1.0;"/><!--link oT to T--><path d="M54.2324,151.379 C49.1409,166.279 41.6164,188.299 35.6156,205.86 " fill="none" id="oT-T" style="stroke: #A80036; stroke-width: 1.0; stroke-dasharray: 7.0,7.0;"/><polygon fill="#A80036" points="33.9668,210.685,40.6626,203.4624,35.5839,205.9537,33.0925,200.875,33.9668,210.685" style="stroke: #A80036; stroke-width: 1.0;"/><!--
@startuml
class P
P *-down-> T

class T
object oT

class S
T <|-down- S

P .down.> oT
oT ..> T

@enduml

PlantUML version 1.2019.05(Sat Apr 20 18:45:36 CEST 2019)
(GPL source distribution)
Java Runtime: OpenJDK Runtime Environment
JVM: OpenJDK 64-Bit Server VM
Java Version: 1.8.0_222-b10
Operating System: Windows 10
OS Version: 10.0
Default Encoding: windows-1252
Language: es
Country: ES
--></g></svg>