<?xml version="1.0" encoding="UTF-8" standalone="no"?><svg xmlns="http://www.w3.org/2000/svg" xmlns:xlink="http://www.w3.org/1999/xlink" contentScriptType="application/ecmascript" contentStyleType="text/css" height="387px" preserveAspectRatio="none" style="width:489px;height:387px;" version="1.1" viewBox="0 0 489 387" width="489px" zoomAndPan="magnify"><defs><filter height="300%" id="fv9llr0tn1jcl" width="300%" x="-1" y="-1"><feGaussianBlur result="blurOut" stdDeviation="2.0"/><feColorMatrix in="blurOut" result="blurOut2" type="matrix" values="0 0 0 0 0 0 0 0 0 0 0 0 0 0 0 0 0 0 .4 0"/><feOffset dx="4.0" dy="4.0" in="blurOut2" result="blurOut3"/><feBlend in="SourceGraphic" in2="blurOut3" mode="normal"/></filter></defs><g><line style="stroke: #A80036; stroke-width: 1.0; stroke-dasharray: 5.0,5.0;" x1="79" x2="79" y1="39.6094" y2="345.7734"/><line style="stroke: #A80036; stroke-width: 1.0; stroke-dasharray: 5.0,5.0;" x1="219" x2="219" y1="39.6094" y2="345.7734"/><line style="stroke: #A80036; stroke-width: 1.0; stroke-dasharray: 5.0,5.0;" x1="340" x2="340" y1="39.6094" y2="345.7734"/><line style="stroke: #A80036; stroke-width: 1.0; stroke-dasharray: 5.0,5.0;" x1="442" x2="442" y1="39.6094" y2="345.7734"/><rect fill="#FEFECE" filter="url(#fv9llr0tn1jcl)" height="31.6094" style="stroke: #A80036; stroke-width: 1.5;" width="138" x="8" y="3"/><text fill="#000000" font-family="sans-serif" font-size="14" lengthAdjust="spacingAndGlyphs" textLength="124" x="15" y="24.5332">barEto:Restaurante</text><rect fill="#FEFECE" filter="url(#fv9llr0tn1jcl)" height="31.6094" style="stroke: #A80036; stroke-width: 1.5;" width="138" x="8" y="344.7734"/><text fill="#000000" font-family="sans-serif" font-size="14" lengthAdjust="spacingAndGlyphs" textLength="124" x="15" y="366.3066">barEto:Restaurante</text><rect fill="#FEFECE" filter="url(#fv9llr0tn1jcl)" height="31.6094" style="stroke: #A80036; stroke-width: 1.5;" width="115" x="160" y="3"/><text fill="#000000" font-family="sans-serif" font-size="14" lengthAdjust="spacingAndGlyphs" textLength="101" x="167" y="24.5332">cholo:Camarero</text><rect fill="#FEFECE" filter="url(#fv9llr0tn1jcl)" height="31.6094" style="stroke: #A80036; stroke-width: 1.5;" width="115" x="160" y="344.7734"/><text fill="#000000" font-family="sans-serif" font-size="14" lengthAdjust="spacingAndGlyphs" textLength="101" x="167" y="366.3066">cholo:Camarero</text><rect fill="#FEFECE" filter="url(#fv9llr0tn1jcl)" height="31.6094" style="stroke: #A80036; stroke-width: 1.5;" width="99" x="289" y="3"/><text fill="#000000" font-family="sans-serif" font-size="14" lengthAdjust="spacingAndGlyphs" textLength="85" x="296" y="24.5332">adán:Hombre</text><rect fill="#FEFECE" filter="url(#fv9llr0tn1jcl)" height="31.6094" style="stroke: #A80036; stroke-width: 1.5;" width="99" x="289" y="344.7734"/><text fill="#000000" font-family="sans-serif" font-size="14" lengthAdjust="spacingAndGlyphs" textLength="85" x="296" y="366.3066">adán:Hombre</text><rect fill="#FEFECE" filter="url(#fv9llr0tn1jcl)" height="31.6094" style="stroke: #A80036; stroke-width: 1.5;" width="76" x="402" y="3"/><text fill="#000000" font-family="sans-serif" font-size="14" lengthAdjust="spacingAndGlyphs" textLength="62" x="409" y="24.5332">eva:Mujer</text><rect fill="#FEFECE" filter="url(#fv9llr0tn1jcl)" height="31.6094" style="stroke: #A80036; stroke-width: 1.5;" width="76" x="402" y="344.7734"/><text fill="#000000" font-family="sans-serif" font-size="14" lengthAdjust="spacingAndGlyphs" textLength="62" x="409" y="366.3066">eva:Mujer</text><line style="stroke: #A80036; stroke-width: 1.0;" x1="79" x2="121" y1="71.9609" y2="71.9609"/><line style="stroke: #A80036; stroke-width: 1.0;" x1="121" x2="121" y1="71.9609" y2="84.9609"/><line style="stroke: #A80036; stroke-width: 1.0;" x1="80" x2="121" y1="84.9609" y2="84.9609"/><polygon fill="#A80036" points="90,80.9609,80,84.9609,90,88.9609,86,84.9609" style="stroke: #A80036; stroke-width: 1.0;"/><text fill="#000000" font-family="sans-serif" font-size="13" lengthAdjust="spacingAndGlyphs" textLength="100" x="86" y="67.1045">simularEscenario</text><polygon fill="#A80036" points="207.5,111.3125,217.5,115.3125,207.5,119.3125,211.5,115.3125" style="stroke: #A80036; stroke-width: 1.0;"/><line style="stroke: #A80036; stroke-width: 1.0;" x1="79" x2="213.5" y1="115.3125" y2="115.3125"/><text fill="#000000" font-family="sans-serif" font-size="13" lengthAdjust="spacingAndGlyphs" textLength="71" x="86" y="110.4561">recibir(adán)</text><polygon fill="#A80036" points="328.5,141.6641,338.5,145.6641,328.5,149.6641,332.5,145.6641" style="stroke: #A80036; stroke-width: 1.0;"/><line style="stroke: #A80036; stroke-width: 1.0;" x1="219.5" x2="334.5" y1="145.6641" y2="145.6641"/><text fill="#000000" font-family="sans-serif" font-size="13" lengthAdjust="spacingAndGlyphs" textLength="72" x="226.5" y="140.8076">aceptar(this)</text><polygon fill="#A80036" points="230.5,172.0156,220.5,176.0156,230.5,180.0156,226.5,176.0156" style="stroke: #A80036; stroke-width: 1.0;"/><line style="stroke: #A80036; stroke-width: 1.0;" x1="224.5" x2="339.5" y1="176.0156" y2="176.0156"/><text fill="#000000" font-family="sans-serif" font-size="13" lengthAdjust="spacingAndGlyphs" textLength="62" x="236.5" y="171.1592">visitar(this)</text><polygon fill="#A80036" points="328.5,202.3672,338.5,206.3672,328.5,210.3672,332.5,206.3672" style="stroke: #A80036; stroke-width: 1.0;"/><line style="stroke: #A80036; stroke-width: 1.0;" x1="219.5" x2="334.5" y1="206.3672" y2="206.3672"/><text fill="#000000" font-family="sans-serif" font-size="13" lengthAdjust="spacingAndGlyphs" textLength="94" x="226.5" y="201.5107">recibirPalmada()</text><polygon fill="#A80036" points="207.5,232.7188,217.5,236.7188,207.5,240.7188,211.5,236.7188" style="stroke: #A80036; stroke-width: 1.0;"/><line style="stroke: #A80036; stroke-width: 1.0;" x1="79" x2="213.5" y1="236.7188" y2="236.7188"/><text fill="#000000" font-family="sans-serif" font-size="13" lengthAdjust="spacingAndGlyphs" textLength="62" x="86" y="231.8623">recibir(eva)</text><polygon fill="#A80036" points="430,263.0703,440,267.0703,430,271.0703,434,267.0703" style="stroke: #A80036; stroke-width: 1.0;"/><line style="stroke: #A80036; stroke-width: 1.0;" x1="219.5" x2="436" y1="267.0703" y2="267.0703"/><text fill="#000000" font-family="sans-serif" font-size="13" lengthAdjust="spacingAndGlyphs" textLength="72" x="226.5" y="262.2139">aceptar(this)</text><polygon fill="#A80036" points="230.5,293.4219,220.5,297.4219,230.5,301.4219,226.5,297.4219" style="stroke: #A80036; stroke-width: 1.0;"/><line style="stroke: #A80036; stroke-width: 1.0;" x1="224.5" x2="441" y1="297.4219" y2="297.4219"/><text fill="#000000" font-family="sans-serif" font-size="13" lengthAdjust="spacingAndGlyphs" textLength="62" x="236.5" y="292.5654">visitar(this)</text><polygon fill="#A80036" points="430,323.7734,440,327.7734,430,331.7734,434,327.7734" style="stroke: #A80036; stroke-width: 1.0;"/><line style="stroke: #A80036; stroke-width: 1.0;" x1="219.5" x2="436" y1="327.7734" y2="327.7734"/><text fill="#000000" font-family="sans-serif" font-size="13" lengthAdjust="spacingAndGlyphs" textLength="80" x="226.5" y="322.917">recibirPiropo()</text><!--
@startuml

participant bareto as "barEto:Restaurante"
participant cholo as "cholo:Camarero"

participant adán as "adán:Hombre"
participant eva as "eva:Mujer"

bareto -> bareto : simularEscenario

bareto -> cholo : recibir(adán)
cholo -> adán : aceptar(this)
adán -> cholo : visitar(this)
cholo -> adán : recibirPalmada()

bareto -> cholo : recibir(eva)
cholo -> eva : aceptar(this)
eva -> cholo : visitar(this)
cholo -> eva : recibirPiropo()

@enduml

PlantUML version 1.2019.05(Sat Apr 20 18:45:36 CEST 2019)
(GPL source distribution)
Java Runtime: OpenJDK Runtime Environment
JVM: OpenJDK 64-Bit Server VM
Java Version: 1.8.0_222-b10
Operating System: Windows 10
OS Version: 10.0
Default Encoding: windows-1252
Language: es
Country: ES
--></g></svg>