<?xml version="1.0" encoding="UTF-8" standalone="no"?><svg xmlns="http://www.w3.org/2000/svg" xmlns:xlink="http://www.w3.org/1999/xlink" contentScriptType="application/ecmascript" contentStyleType="text/css" height="451px" preserveAspectRatio="none" style="width:1684px;height:451px;" version="1.1" viewBox="0 0 1684 451" width="1684px" zoomAndPan="magnify"><defs><filter height="300%" id="f11eg6b48h9l4j" width="300%" x="-1" y="-1"><feGaussianBlur result="blurOut" stdDeviation="2.0"/><feColorMatrix in="blurOut" result="blurOut2" type="matrix" values="0 0 0 0 0 0 0 0 0 0 0 0 0 0 0 0 0 0 .4 0"/><feOffset dx="4.0" dy="4.0" in="blurOut2" result="blurOut3"/><feBlend in="SourceGraphic" in2="blurOut3" mode="normal"/></filter></defs><g><!--cluster personas--><polygon fill="#FFFFFF" filter="url(#f11eg6b48h9l4j)" points="411,136,483,136,490,159.6094,1448,159.6094,1448,439,411,439,411,136" style="stroke: #000000; stroke-width: 1.5;"/><line style="stroke: #000000; stroke-width: 1.5;" x1="411" x2="490" y1="159.6094" y2="159.6094"/><text fill="#000000" font-family="sans-serif" font-size="14" font-weight="bold" lengthAdjust="spacingAndGlyphs" textLength="66" x="415" y="152.5332">personas</text><!--class Persona--><rect fill="#FEFECE" filter="url(#f11eg6b48h9l4j)" height="75.6719" id="Persona" style="stroke: #A80036; stroke-width: 1.5;" width="230" x="465" y="172"/><ellipse cx="552.75" cy="188" fill="#A9DCDF" rx="11" ry="11" style="stroke: #A80036; stroke-width: 1.0;"/><path d="M554.9375,189.7656 L550.7969,189.7656 L550.375,190.7969 L550.7969,190.7969 Q551.4063,190.7969 551.6719,191.0313 Q551.9375,191.2656 551.9375,191.6563 Q551.9375,192.0313 551.6719,192.2656 Q551.4063,192.5 550.7969,192.5 L548.5,192.5 Q547.8906,192.5 547.6328,192.2656 Q547.375,192.0313 547.375,191.6406 Q547.375,191.2656 547.6484,191.0234 Q547.9219,190.7813 548.5469,190.7969 L551.2188,184.1406 L550.1094,184.1406 Q549.5,184.1406 549.2344,183.9063 Q548.9688,183.6719 548.9688,183.2813 Q548.9688,182.9063 549.2344,182.6719 Q549.5,182.4375 550.1094,182.4375 L553.7813,182.4375 L557.1719,190.7969 Q557.7656,190.7969 557.9531,190.9375 Q558.3438,191.2031 558.3438,191.6563 Q558.3438,192.0313 558.0859,192.2656 Q557.8281,192.5 557.2188,192.5 L554.9219,192.5 Q554.3125,192.5 554.0469,192.2656 Q553.7813,192.0313 553.7813,191.6406 Q553.7813,191.2656 554.0469,191.0313 Q554.3125,190.7969 554.9219,190.7969 L555.3438,190.7969 L554.9375,189.7656 Z M554.2188,188.0625 L552.8594,184.6875 L551.4844,188.0625 L554.2188,188.0625 Z "/><text fill="#000000" font-family="sans-serif" font-size="12" font-style="italic" lengthAdjust="spacingAndGlyphs" textLength="46" x="573.25" y="192.9102">Persona</text><line style="stroke: #A80036; stroke-width: 1.5;" x1="466" x2="694" y1="204" y2="204"/><line style="stroke: #A80036; stroke-width: 1.5;" x1="466" x2="694" y1="212" y2="212"/><ellipse cx="476" cy="224.418" fill="#84BE84" rx="3" ry="3" style="stroke: #038048; stroke-width: 1.0;"/><text fill="#000000" font-family="sans-serif" font-size="11" font-style="italic" lengthAdjust="spacingAndGlyphs" textLength="204" x="485" y="227.4189">void aceptar(AparcaCohes aparcaCohes)</text><ellipse cx="476" cy="238.2539" fill="#84BE84" rx="3" ry="3" style="stroke: #038048; stroke-width: 1.0;"/><text fill="#000000" font-family="sans-serif" font-size="11" font-style="italic" lengthAdjust="spacingAndGlyphs" textLength="167" x="485" y="241.2549">void aceptar(Camarero camarero)</text><!--class Mujer--><rect fill="#FEFECE" filter="url(#f11eg6b48h9l4j)" height="89.5078" id="Mujer" style="stroke: #A80036; stroke-width: 1.5;" width="229" x="427.5" y="333"/><ellipse cx="522.75" cy="349" fill="#ADD1B2" rx="11" ry="11" style="stroke: #A80036; stroke-width: 1.0;"/><path d="M525.5156,344.875 Q525.6719,344.6563 525.8594,344.5469 Q526.0469,344.4375 526.2656,344.4375 Q526.6406,344.4375 526.875,344.6953 Q527.1094,344.9531 527.1094,345.5625 L527.1094,347.0156 Q527.1094,347.625 526.875,347.8906 Q526.6406,348.1563 526.2656,348.1563 Q525.9219,348.1563 525.7188,347.9531 Q525.5156,347.7656 525.4063,347.25 Q525.3594,346.8906 525.1719,346.7031 Q524.8438,346.3281 524.2344,346.1094 Q523.625,345.8906 523,345.8906 Q522.2344,345.8906 521.6016,346.2188 Q520.9688,346.5469 520.4766,347.2969 Q519.9844,348.0469 519.9844,349.0781 L519.9844,350.1719 Q519.9844,351.4063 520.875,352.2266 Q521.7656,353.0469 523.3594,353.0469 Q524.2969,353.0469 524.9531,352.7969 Q525.3438,352.6406 525.7656,352.2031 Q526.0313,351.9375 526.1797,351.8594 Q526.3281,351.7813 526.5313,351.7813 Q526.8594,351.7813 527.1172,352.0391 Q527.375,352.2969 527.375,352.6406 Q527.375,352.9844 527.0313,353.3906 Q526.5313,353.9688 525.7344,354.2969 Q524.6563,354.75 523.3594,354.75 Q521.8438,354.75 520.6406,354.125 Q519.6563,353.625 518.9688,352.5547 Q518.2813,351.4844 518.2813,350.2031 L518.2813,349.0469 Q518.2813,347.7188 518.8984,346.5703 Q519.5156,345.4219 520.6094,344.8047 Q521.7031,344.1875 522.9375,344.1875 Q523.6719,344.1875 524.3203,344.3516 Q524.9688,344.5156 525.5156,344.875 Z "/><text fill="#000000" font-family="sans-serif" font-size="12" lengthAdjust="spacingAndGlyphs" textLength="30" x="543.25" y="353.9102">Mujer</text><line style="stroke: #A80036; stroke-width: 1.5;" x1="428.5" x2="655.5" y1="365" y2="365"/><line style="stroke: #A80036; stroke-width: 1.5;" x1="428.5" x2="655.5" y1="373" y2="373"/><ellipse cx="438.5" cy="385.418" fill="#84BE84" rx="3" ry="3" style="stroke: #038048; stroke-width: 1.0;"/><text fill="#000000" font-family="sans-serif" font-size="11" lengthAdjust="spacingAndGlyphs" textLength="91" x="447.5" y="388.4189">void recibirPiropo()</text><ellipse cx="438.5" cy="399.2539" fill="#84BE84" rx="3" ry="3" style="stroke: #038048; stroke-width: 1.0;"/><text fill="#000000" font-family="sans-serif" font-size="11" lengthAdjust="spacingAndGlyphs" textLength="203" x="447.5" y="402.2549">void aceptar(AparcaCohes aparcaCohes)</text><ellipse cx="438.5" cy="413.0898" fill="#84BE84" rx="3" ry="3" style="stroke: #038048; stroke-width: 1.0;"/><text fill="#000000" font-family="sans-serif" font-size="11" lengthAdjust="spacingAndGlyphs" textLength="164" x="447.5" y="416.0908">void aceptar(Camarero camarero)</text><path d="M692,348.5 L692,374 L656.512,378 L692,382 L692,407.5547 A0,0 0 0 0 692,407.5547 L912,407.5547 A0,0 0 0 0 912,407.5547 L912,358.5 L902,348.5 L692,348.5 A0,0 0 0 0 692,348.5 " fill="#FBFB77" filter="url(#f11eg6b48h9l4j)" style="stroke: #A80036; stroke-width: 1.0;"/><path d="M902,348.5 L902,358.5 L912,358.5 L902,348.5 " fill="#FBFB77" style="stroke: #A80036; stroke-width: 1.0;"/><text fill="#000000" font-family="sans-serif" font-size="13" lengthAdjust="spacingAndGlyphs" textLength="199" x="698" y="366.9951">void aceptar(Camarero camarero) {</text><text fill="#000000" font-family="sans-serif" font-size="13" lengthAdjust="spacingAndGlyphs" textLength="124" x="706" y="383.3467">camarero.visitar(this);</text><text fill="#000000" font-family="sans-serif" font-size="13" lengthAdjust="spacingAndGlyphs" textLength="4" x="698" y="399.6982">}</text><!--class Hombre--><rect fill="#FEFECE" filter="url(#f11eg6b48h9l4j)" height="89.5078" id="Hombre" style="stroke: #A80036; stroke-width: 1.5;" width="229" x="947.5" y="333"/><ellipse cx="1035.25" cy="349" fill="#ADD1B2" rx="11" ry="11" style="stroke: #A80036; stroke-width: 1.0;"/><path d="M1038.0156,344.875 Q1038.1719,344.6563 1038.3594,344.5469 Q1038.5469,344.4375 1038.7656,344.4375 Q1039.1406,344.4375 1039.375,344.6953 Q1039.6094,344.9531 1039.6094,345.5625 L1039.6094,347.0156 Q1039.6094,347.625 1039.375,347.8906 Q1039.1406,348.1563 1038.7656,348.1563 Q1038.4219,348.1563 1038.2188,347.9531 Q1038.0156,347.7656 1037.9063,347.25 Q1037.8594,346.8906 1037.6719,346.7031 Q1037.3438,346.3281 1036.7344,346.1094 Q1036.125,345.8906 1035.5,345.8906 Q1034.7344,345.8906 1034.1016,346.2188 Q1033.4688,346.5469 1032.9766,347.2969 Q1032.4844,348.0469 1032.4844,349.0781 L1032.4844,350.1719 Q1032.4844,351.4063 1033.375,352.2266 Q1034.2656,353.0469 1035.8594,353.0469 Q1036.7969,353.0469 1037.4531,352.7969 Q1037.8438,352.6406 1038.2656,352.2031 Q1038.5313,351.9375 1038.6797,351.8594 Q1038.8281,351.7813 1039.0313,351.7813 Q1039.3594,351.7813 1039.6172,352.0391 Q1039.875,352.2969 1039.875,352.6406 Q1039.875,352.9844 1039.5313,353.3906 Q1039.0313,353.9688 1038.2344,354.2969 Q1037.1563,354.75 1035.8594,354.75 Q1034.3438,354.75 1033.1406,354.125 Q1032.1563,353.625 1031.4688,352.5547 Q1030.7813,351.4844 1030.7813,350.2031 L1030.7813,349.0469 Q1030.7813,347.7188 1031.3984,346.5703 Q1032.0156,345.4219 1033.1094,344.8047 Q1034.2031,344.1875 1035.4375,344.1875 Q1036.1719,344.1875 1036.8203,344.3516 Q1037.4688,344.5156 1038.0156,344.875 Z "/><text fill="#000000" font-family="sans-serif" font-size="12" lengthAdjust="spacingAndGlyphs" textLength="45" x="1055.75" y="353.9102">Hombre</text><line style="stroke: #A80036; stroke-width: 1.5;" x1="948.5" x2="1175.5" y1="365" y2="365"/><line style="stroke: #A80036; stroke-width: 1.5;" x1="948.5" x2="1175.5" y1="373" y2="373"/><ellipse cx="958.5" cy="385.418" fill="#84BE84" rx="3" ry="3" style="stroke: #038048; stroke-width: 1.0;"/><text fill="#000000" font-family="sans-serif" font-size="11" lengthAdjust="spacingAndGlyphs" textLength="101" x="967.5" y="388.4189">void recibirPalmada()</text><ellipse cx="958.5" cy="399.2539" fill="#84BE84" rx="3" ry="3" style="stroke: #038048; stroke-width: 1.0;"/><text fill="#000000" font-family="sans-serif" font-size="11" lengthAdjust="spacingAndGlyphs" textLength="203" x="967.5" y="402.2549">void aceptar(AparcaCohes aparcaCohes)</text><ellipse cx="958.5" cy="413.0898" fill="#84BE84" rx="3" ry="3" style="stroke: #038048; stroke-width: 1.0;"/><text fill="#000000" font-family="sans-serif" font-size="11" lengthAdjust="spacingAndGlyphs" textLength="164" x="967.5" y="416.0908">void aceptar(Camarero camarero)</text><path d="M1212,348.5 L1212,374 L1176.51,378 L1212,382 L1212,407.5547 A0,0 0 0 0 1212,407.5547 L1432,407.5547 A0,0 0 0 0 1432,407.5547 L1432,358.5 L1422,348.5 L1212,348.5 A0,0 0 0 0 1212,348.5 " fill="#FBFB77" filter="url(#f11eg6b48h9l4j)" style="stroke: #A80036; stroke-width: 1.0;"/><path d="M1422,348.5 L1422,358.5 L1432,358.5 L1422,348.5 " fill="#FBFB77" style="stroke: #A80036; stroke-width: 1.0;"/><text fill="#000000" font-family="sans-serif" font-size="13" lengthAdjust="spacingAndGlyphs" textLength="199" x="1218" y="366.9951">void aceptar(Camarero camarero) {</text><text fill="#000000" font-family="sans-serif" font-size="13" lengthAdjust="spacingAndGlyphs" textLength="124" x="1226" y="383.3467">camarero.visitar(this);</text><text fill="#000000" font-family="sans-serif" font-size="13" lengthAdjust="spacingAndGlyphs" textLength="4" x="1218" y="399.6982">}</text><!--class Restaurante--><rect fill="#FEFECE" filter="url(#f11eg6b48h9l4j)" height="61.8359" id="Restaurante" style="stroke: #A80036; stroke-width: 1.5;" width="116" x="522" y="8"/><ellipse cx="544.2" cy="24" fill="#ADD1B2" rx="11" ry="11" style="stroke: #A80036; stroke-width: 1.0;"/><path d="M546.9656,19.875 Q547.1219,19.6563 547.3094,19.5469 Q547.4969,19.4375 547.7156,19.4375 Q548.0906,19.4375 548.325,19.6953 Q548.5594,19.9531 548.5594,20.5625 L548.5594,22.0156 Q548.5594,22.625 548.325,22.8906 Q548.0906,23.1563 547.7156,23.1563 Q547.3719,23.1563 547.1688,22.9531 Q546.9656,22.7656 546.8563,22.25 Q546.8094,21.8906 546.6219,21.7031 Q546.2938,21.3281 545.6844,21.1094 Q545.075,20.8906 544.45,20.8906 Q543.6844,20.8906 543.0516,21.2188 Q542.4188,21.5469 541.9266,22.2969 Q541.4344,23.0469 541.4344,24.0781 L541.4344,25.1719 Q541.4344,26.4063 542.325,27.2266 Q543.2156,28.0469 544.8094,28.0469 Q545.7469,28.0469 546.4031,27.7969 Q546.7938,27.6406 547.2156,27.2031 Q547.4813,26.9375 547.6297,26.8594 Q547.7781,26.7813 547.9813,26.7813 Q548.3094,26.7813 548.5672,27.0391 Q548.825,27.2969 548.825,27.6406 Q548.825,27.9844 548.4813,28.3906 Q547.9813,28.9688 547.1844,29.2969 Q546.1063,29.75 544.8094,29.75 Q543.2938,29.75 542.0906,29.125 Q541.1063,28.625 540.4188,27.5547 Q539.7313,26.4844 539.7313,25.2031 L539.7313,24.0469 Q539.7313,22.7188 540.3484,21.5703 Q540.9656,20.4219 542.0594,19.8047 Q543.1531,19.1875 544.3875,19.1875 Q545.1219,19.1875 545.7703,19.3516 Q546.4188,19.5156 546.9656,19.875 Z "/><text fill="#000000" font-family="sans-serif" font-size="12" lengthAdjust="spacingAndGlyphs" textLength="68" x="559.8" y="28.9102">Restaurante</text><line style="stroke: #A80036; stroke-width: 1.5;" x1="523" x2="637" y1="40" y2="40"/><line style="stroke: #A80036; stroke-width: 1.5;" x1="523" x2="637" y1="48" y2="48"/><ellipse cx="533" cy="60.418" fill="#84BE84" rx="3" ry="3" style="stroke: #038048; stroke-width: 1.0;"/><text fill="#000000" font-family="sans-serif" font-size="11" lengthAdjust="spacingAndGlyphs" textLength="90" x="542" y="63.4189">simularEscenario()</text><!--class AparcaCohes--><rect fill="#FEFECE" filter="url(#f11eg6b48h9l4j)" height="89.5078" id="AparcaCohes" style="stroke: #A80036; stroke-width: 1.5;" width="209" x="1464.5" y="165"/><ellipse cx="1527.25" cy="181" fill="#ADD1B2" rx="11" ry="11" style="stroke: #A80036; stroke-width: 1.0;"/><path d="M1530.0156,176.875 Q1530.1719,176.6563 1530.3594,176.5469 Q1530.5469,176.4375 1530.7656,176.4375 Q1531.1406,176.4375 1531.375,176.6953 Q1531.6094,176.9531 1531.6094,177.5625 L1531.6094,179.0156 Q1531.6094,179.625 1531.375,179.8906 Q1531.1406,180.1563 1530.7656,180.1563 Q1530.4219,180.1563 1530.2188,179.9531 Q1530.0156,179.7656 1529.9063,179.25 Q1529.8594,178.8906 1529.6719,178.7031 Q1529.3438,178.3281 1528.7344,178.1094 Q1528.125,177.8906 1527.5,177.8906 Q1526.7344,177.8906 1526.1016,178.2188 Q1525.4688,178.5469 1524.9766,179.2969 Q1524.4844,180.0469 1524.4844,181.0781 L1524.4844,182.1719 Q1524.4844,183.4063 1525.375,184.2266 Q1526.2656,185.0469 1527.8594,185.0469 Q1528.7969,185.0469 1529.4531,184.7969 Q1529.8438,184.6406 1530.2656,184.2031 Q1530.5313,183.9375 1530.6797,183.8594 Q1530.8281,183.7813 1531.0313,183.7813 Q1531.3594,183.7813 1531.6172,184.0391 Q1531.875,184.2969 1531.875,184.6406 Q1531.875,184.9844 1531.5313,185.3906 Q1531.0313,185.9688 1530.2344,186.2969 Q1529.1563,186.75 1527.8594,186.75 Q1526.3438,186.75 1525.1406,186.125 Q1524.1563,185.625 1523.4688,184.5547 Q1522.7813,183.4844 1522.7813,182.2031 L1522.7813,181.0469 Q1522.7813,179.7188 1523.3984,178.5703 Q1524.0156,177.4219 1525.1094,176.8047 Q1526.2031,176.1875 1527.4375,176.1875 Q1528.1719,176.1875 1528.8203,176.3516 Q1529.4688,176.5156 1530.0156,176.875 Z "/><text fill="#000000" font-family="sans-serif" font-size="12" lengthAdjust="spacingAndGlyphs" textLength="75" x="1547.75" y="185.9102">AparcaCohes</text><line style="stroke: #A80036; stroke-width: 1.5;" x1="1465.5" x2="1672.5" y1="197" y2="197"/><line style="stroke: #A80036; stroke-width: 1.5;" x1="1465.5" x2="1672.5" y1="205" y2="205"/><ellipse cx="1475.5" cy="217.418" fill="#84BE84" rx="3" ry="3" style="stroke: #038048; stroke-width: 1.0;"/><text fill="#000000" font-family="sans-serif" font-size="11" lengthAdjust="spacingAndGlyphs" textLength="183" x="1484.5" y="220.4189">void recogerCoche(Persona persona)</text><ellipse cx="1475.5" cy="231.2539" fill="#84BE84" rx="3" ry="3" style="stroke: #038048; stroke-width: 1.0;"/><text fill="#000000" font-family="sans-serif" font-size="11" lengthAdjust="spacingAndGlyphs" textLength="115" x="1484.5" y="234.2549">void visitar(Mujer mujer)</text><ellipse cx="1475.5" cy="245.0898" fill="#84BE84" rx="3" ry="3" style="stroke: #038048; stroke-width: 1.0;"/><text fill="#000000" font-family="sans-serif" font-size="11" lengthAdjust="spacingAndGlyphs" textLength="136" x="1484.5" y="248.0908">void visitar(Hombre hombre)</text><!--class Camarero--><rect fill="#FEFECE" filter="url(#f11eg6b48h9l4j)" height="89.5078" id="Camarero" style="stroke: #A80036; stroke-width: 1.5;" width="170" x="225" y="165"/><ellipse cx="277.75" cy="181" fill="#ADD1B2" rx="11" ry="11" style="stroke: #A80036; stroke-width: 1.0;"/><path d="M280.5156,176.875 Q280.6719,176.6563 280.8594,176.5469 Q281.0469,176.4375 281.2656,176.4375 Q281.6406,176.4375 281.875,176.6953 Q282.1094,176.9531 282.1094,177.5625 L282.1094,179.0156 Q282.1094,179.625 281.875,179.8906 Q281.6406,180.1563 281.2656,180.1563 Q280.9219,180.1563 280.7188,179.9531 Q280.5156,179.7656 280.4063,179.25 Q280.3594,178.8906 280.1719,178.7031 Q279.8438,178.3281 279.2344,178.1094 Q278.625,177.8906 278,177.8906 Q277.2344,177.8906 276.6016,178.2188 Q275.9688,178.5469 275.4766,179.2969 Q274.9844,180.0469 274.9844,181.0781 L274.9844,182.1719 Q274.9844,183.4063 275.875,184.2266 Q276.7656,185.0469 278.3594,185.0469 Q279.2969,185.0469 279.9531,184.7969 Q280.3438,184.6406 280.7656,184.2031 Q281.0313,183.9375 281.1797,183.8594 Q281.3281,183.7813 281.5313,183.7813 Q281.8594,183.7813 282.1172,184.0391 Q282.375,184.2969 282.375,184.6406 Q282.375,184.9844 282.0313,185.3906 Q281.5313,185.9688 280.7344,186.2969 Q279.6563,186.75 278.3594,186.75 Q276.8438,186.75 275.6406,186.125 Q274.6563,185.625 273.9688,184.5547 Q273.2813,183.4844 273.2813,182.2031 L273.2813,181.0469 Q273.2813,179.7188 273.8984,178.5703 Q274.5156,177.4219 275.6094,176.8047 Q276.7031,176.1875 277.9375,176.1875 Q278.6719,176.1875 279.3203,176.3516 Q279.9688,176.5156 280.5156,176.875 Z "/><text fill="#000000" font-family="sans-serif" font-size="12" lengthAdjust="spacingAndGlyphs" textLength="56" x="298.25" y="185.9102">Camarero</text><line style="stroke: #A80036; stroke-width: 1.5;" x1="226" x2="394" y1="197" y2="197"/><line style="stroke: #A80036; stroke-width: 1.5;" x1="226" x2="394" y1="205" y2="205"/><ellipse cx="236" cy="217.418" fill="#84BE84" rx="3" ry="3" style="stroke: #038048; stroke-width: 1.0;"/><text fill="#000000" font-family="sans-serif" font-size="11" lengthAdjust="spacingAndGlyphs" textLength="144" x="245" y="220.4189">void recibir(Persona persona)</text><ellipse cx="236" cy="231.2539" fill="#84BE84" rx="3" ry="3" style="stroke: #038048; stroke-width: 1.0;"/><text fill="#000000" font-family="sans-serif" font-size="11" lengthAdjust="spacingAndGlyphs" textLength="115" x="245" y="234.2549">void visitar(Mujer mujer)</text><ellipse cx="236" cy="245.0898" fill="#84BE84" rx="3" ry="3" style="stroke: #038048; stroke-width: 1.0;"/><text fill="#000000" font-family="sans-serif" font-size="11" lengthAdjust="spacingAndGlyphs" textLength="136" x="245" y="248.0908">void visitar(Hombre hombre)</text><path d="M6,148 L6,272.4609 A0,0 0 0 0 6,272.4609 L190,272.4609 A0,0 0 0 0 190,272.4609 L190,214 L224.926,210 L190,206 L190,158 L180,148 L6,148 A0,0 0 0 0 6,148 " fill="#FBFB77" filter="url(#f11eg6b48h9l4j)" style="stroke: #A80036; stroke-width: 1.0;"/><path d="M180,148 L180,158 L190,158 L180,148 " fill="#FBFB77" style="stroke: #A80036; stroke-width: 1.0;"/><text fill="#000000" font-family="sans-serif" font-size="13" lengthAdjust="spacingAndGlyphs" textLength="143" x="12" y="166.4951">void visitar(Mujer mujer) {</text><text fill="#000000" font-family="sans-serif" font-size="13" lengthAdjust="spacingAndGlyphs" textLength="120" x="20" y="182.8467">mujer.recibirPiropo();</text><text fill="#000000" font-family="sans-serif" font-size="13" lengthAdjust="spacingAndGlyphs" textLength="4" x="12" y="199.1982">}</text><text fill="#000000" font-family="sans-serif" font-size="13" lengthAdjust="spacingAndGlyphs" textLength="0" x="16" y="215.5498"/><text fill="#000000" font-family="sans-serif" font-size="13" lengthAdjust="spacingAndGlyphs" textLength="163" x="12" y="231.9014">void visitar(Hombre hombre){</text><text fill="#000000" font-family="sans-serif" font-size="13" lengthAdjust="spacingAndGlyphs" textLength="145" x="20" y="248.2529">hombre.recibirPalmada();</text><text fill="#000000" font-family="sans-serif" font-size="13" lengthAdjust="spacingAndGlyphs" textLength="4" x="12" y="264.6045">}</text><!--link Restaurante to AparcaCohes--><path d="M651.547,42.797 C832.01,50.56 1301.74,75.359 1448,128 C1467.51,135.022 1486.94,145.861 1504.34,157.35 " fill="none" id="Restaurante-AparcaCohes" style="stroke: #A80036; stroke-width: 1.0;"/><polygon fill="#A80036" points="1515.46,164.96,1510.2922,156.5759,1511.3339,162.136,1505.7738,163.1777,1515.46,164.96" style="stroke: #A80036; stroke-width: 1.0;"/><line style="stroke: #A80036; stroke-width: 1.0;" x1="1511.3339" x2="1504.73" y1="162.136" y2="157.618"/><polygon fill="#A80036" points="638.297,42.235,644.1224,46.4853,650.2863,42.7427,644.4609,38.4924,638.297,42.235" style="stroke: #A80036; stroke-width: 1.0;"/><!--link Restaurante to Camarero--><path d="M509.656,72.763 C478.619,88.191 442.185,107.657 411,128 C397.763,136.635 384.178,146.637 371.435,156.604 " fill="none" id="Restaurante-Camarero" style="stroke: #A80036; stroke-width: 1.0;"/><polygon fill="#A80036" points="360.955,164.937,370.4889,162.4664,364.8685,161.8251,365.5098,156.2047,360.955,164.937" style="stroke: #A80036; stroke-width: 1.0;"/><line style="stroke: #A80036; stroke-width: 1.0;" x1="364.8685" x2="371.131" y1="161.8251" y2="156.8455"/><polygon fill="#A80036" points="521.706,66.84,514.5569,65.8967,510.9365,72.1331,518.0856,73.0764,521.706,66.84" style="stroke: #A80036; stroke-width: 1.0;"/><!--link Restaurante to Persona--><path d="M580,83.378 C580,106.408 580,134.826 580,158.805 " fill="none" id="Restaurante-Persona" style="stroke: #A80036; stroke-width: 1.0;"/><polygon fill="#A80036" points="580,171.971,584,162.971,580,166.971,576,162.971,580,171.971" style="stroke: #A80036; stroke-width: 1.0;"/><line style="stroke: #A80036; stroke-width: 1.0;" x1="580" x2="580" y1="166.971" y2="158.971"/><polygon fill="#A80036" points="580,70.214,576,76.214,580,82.214,584,76.214,580,70.214" style="stroke: #A80036; stroke-width: 1.0;"/><text fill="#000000" font-family="sans-serif" font-size="13" lengthAdjust="spacingAndGlyphs" textLength="38" x="581" y="114.4951">cliente</text><!--link AparcaCohes to Persona--><path d="M1464.49,210 C1209.89,210 955.28,210 700.673,210 " fill="none" id="AparcaCohes-Persona" style="stroke: #A80036; stroke-width: 1.0; stroke-dasharray: 7.0,7.0;"/><polygon fill="#A80036" points="695.416,210,704.416,214,700.416,210,704.416,206,695.416,210" style="stroke: #A80036; stroke-width: 1.0;"/><!--link Persona to AparcaCohes--><path d="M695.416,210 C950.023,210 1204.63,210 1459.24,210 " fill="none" id="Persona-AparcaCohes" style="stroke: #A80036; stroke-width: 1.0; stroke-dasharray: 7.0,7.0;"/><polygon fill="#A80036" points="1464.49,210,1455.49,206,1459.49,210,1455.49,214,1464.49,210" style="stroke: #A80036; stroke-width: 1.0;"/><!--link AparcaCohes to Hombre--><path d="M1487.8,255.121 C1474.71,261.301 1461.14,267.177 1448,272 C1339.42,311.854 1306.22,301.253 1195,333 C1190.62,334.25 1186.17,335.553 1181.68,336.894 " fill="none" id="AparcaCohes-Hombre" style="stroke: #A80036; stroke-width: 1.0; stroke-dasharray: 7.0,7.0;"/><polygon fill="#A80036" points="1176.8,338.363,1186.5713,339.5964,1181.5874,336.9205,1184.2633,331.9366,1176.8,338.363" style="stroke: #A80036; stroke-width: 1.0;"/><!--link Hombre to AparcaCohes--><path d="M1176.68,337.912 C1182.85,336.168 1188.99,334.517 1195,333 C1269.39,314.235 1290.98,323.173 1365,303 C1402.99,292.646 1411.92,287.776 1448,272 C1458.47,267.423 1469.32,262.387 1480.03,257.232 " fill="none" id="Hombre-AparcaCohes" style="stroke: #A80036; stroke-width: 1.0; stroke-dasharray: 7.0,7.0;"/><polygon fill="#A80036" points="1484.61,255.016,1474.7659,255.3236,1480.1066,257.1884,1478.2418,262.529,1484.61,255.016" style="stroke: #A80036; stroke-width: 1.0;"/><!--link AparcaCohes to Mujer--><path d="M1492.72,255.127 C1478.27,261.838 1462.97,267.885 1448,272 C1262.85,322.888 1208.41,286.665 1017,302 C864.864,314.188 824.429,301.939 675,333 C670.541,333.927 666.022,334.954 661.477,336.061 " fill="none" id="AparcaCohes-Mujer" style="stroke: #A80036; stroke-width: 1.0; stroke-dasharray: 7.0,7.0;"/><polygon fill="#A80036" points="656.536,337.292,666.2365,338.9951,661.3874,336.082,664.3005,331.2329,656.536,337.292" style="stroke: #A80036; stroke-width: 1.0;"/><!--link Mujer to AparcaCohes--><path d="M656.518,337.206 C662.733,335.646 668.921,334.227 675,333 C1012.81,264.831 1116.13,364.8678 1448,272 C1461.32,268.274 1474.9,263.042 1487.92,257.194 " fill="none" id="Mujer-AparcaCohes" style="stroke: #A80036; stroke-width: 1.0; stroke-dasharray: 7.0,7.0;"/><polygon fill="#A80036" points="1492.69,255.013,1482.8418,255.1295,1488.1453,257.0976,1486.1772,262.4011,1492.69,255.013" style="stroke: #A80036; stroke-width: 1.0;"/><!--link Camarero to Persona--><path d="M395.166,239.151 C416.667,243.119 438.168,244.52 459.669,243.352 " fill="none" id="Camarero-Persona" style="stroke: #A80036; stroke-width: 1.0; stroke-dasharray: 7.0,7.0;"/><polygon fill="#A80036" points="464.84,243.021,455.6024,239.6053,459.8503,243.3411,456.1145,247.5889,464.84,243.021" style="stroke: #A80036; stroke-width: 1.0;"/><!--link Persona to Camarero--><path d="M464.84,176.979 C443.339,175.399 421.838,176.387 400.337,179.944 " fill="none" id="Persona-Camarero" style="stroke: #A80036; stroke-width: 1.0; stroke-dasharray: 7.0,7.0;"/><polygon fill="#A80036" points="395.166,180.849,404.7212,183.2361,400.091,179.9863,403.3408,175.3561,395.166,180.849" style="stroke: #A80036; stroke-width: 1.0;"/><!--link Camarero to Hombre--><path d="M374.014,255.144 C385.889,261.719 398.501,267.717 411,272 C630.71,347.296 703.312,282.457 930,333 C934.067,333.907 938.185,334.891 942.33,335.939 " fill="none" id="Camarero-Hombre" style="stroke: #A80036; stroke-width: 1.0; stroke-dasharray: 7.0,7.0;"/><polygon fill="#A80036" points="947.205,337.196,939.4907,331.0731,942.3638,335.946,937.4908,338.8191,947.205,337.196" style="stroke: #A80036; stroke-width: 1.0;"/><!--link Hombre to Camarero--><path d="M947.27,336.889 C941.464,335.448 935.685,334.137 930,333 C750.839,297.168 699.917,334.823 520,303 C470.404,294.228 457.187,292.086 411,272 C401.307,267.785 391.419,262.791 381.807,257.503 " fill="none" id="Hombre-Camarero" style="stroke: #A80036; stroke-width: 1.0; stroke-dasharray: 7.0,7.0;"/><polygon fill="#A80036" points="377.412,255.055,383.3268,262.93,381.7797,257.4888,387.2209,255.9417,377.412,255.055" style="stroke: #A80036; stroke-width: 1.0;"/><!--link Camarero to Mujer--><path d="M349.763,255.444 C365.428,271.53 384.162,289.132 403,303 C416.168,312.694 430.771,321.898 445.419,330.312 " fill="none" id="Camarero-Mujer" style="stroke: #A80036; stroke-width: 1.0; stroke-dasharray: 7.0,7.0;"/><polygon fill="#A80036" points="449.965,332.897,444.1191,324.9708,445.6187,330.4252,440.1642,331.9249,449.965,332.897" style="stroke: #A80036; stroke-width: 1.0;"/><!--link Mujer to Camarero--><path d="M442.228,332.919 C425.838,323.971 409.491,313.917 395,303 C378.348,290.455 362.247,274.403 348.619,259.23 " fill="none" id="Mujer-Camarero" style="stroke: #A80036; stroke-width: 1.0; stroke-dasharray: 7.0,7.0;"/><polygon fill="#A80036" points="345.209,255.394,348.198,264.7784,348.5306,259.1313,354.1776,259.4639,345.209,255.394" style="stroke: #A80036; stroke-width: 1.0;"/><!--link Persona to Hombre--><path d="M706.586,254.596 C781.16,280.279 874.766,312.517 947.192,337.46 " fill="none" id="Persona-Hombre" style="stroke: #A80036; stroke-width: 1.0;"/><polygon fill="none" points="704.201,261.178,687.57,248.047,708.76,247.941,704.201,261.178" style="stroke: #A80036; stroke-width: 1.0;"/><!--link Persona to Mujer--><path d="M566.954,267.991 C562.1,289.194 556.67,312.916 552.117,332.803 " fill="none" id="Persona-Mujer" style="stroke: #A80036; stroke-width: 1.0;"/><polygon fill="none" points="560.186,266.187,571.472,248.254,573.833,269.311,560.186,266.187" style="stroke: #A80036; stroke-width: 1.0;"/><!--
@startuml
class Restaurante{
+ simularEscenario()
}

class AparcaCohes {
+ void recogerCoche(Persona persona)
+ void visitar(Mujer mujer)
+ void visitar(Hombre hombre)
}

class Camarero {
+ void recibir(Persona persona)
+ void visitar(Mujer mujer)
+ void visitar(Hombre hombre)
}
note left
void visitar(Mujer mujer) {
  mujer.recibirPiropo();
}

void visitar(Hombre hombre){
  hombre.recibirPalmada();
}
endnote

package personas {

abstract class Persona{
+ {abstract} void aceptar(AparcaCohes aparcaCohes)
+ {abstract} void aceptar(Camarero camarero)
}

class Mujer{
+ void recibirPiropo()
+ void aceptar(AparcaCohes aparcaCohes)
+ void aceptar(Camarero camarero)
}
note right
void aceptar(Camarero camarero) {
  camarero.visitar(this);
}
endnote

class Hombre {
+ void recibirPalmada()
+ void aceptar(AparcaCohes aparcaCohes)
+ void aceptar(Camarero camarero)
}
note right
void aceptar(Camarero camarero) {
  camarero.visitar(this);
}
endnote

}

Restaurante *-down-> AparcaCohes
Restaurante *-down-> Camarero
Restaurante *-down-> Persona : cliente

AparcaCohes ..> Persona
AparcaCohes ..> Hombre
AparcaCohes ..> Mujer

Camarero ..> Persona
Camarero ..> Hombre
Camarero ..> Mujer

Persona <|-down- Hombre
Persona <|-down- Mujer

Hombre ..> AparcaCohes
Mujer ..> AparcaCohes
Persona ..> AparcaCohes

Hombre ..> Camarero
Mujer ..> Camarero
Persona ..> Camarero

@enduml

PlantUML version 1.2019.05(Sat Apr 20 18:45:36 CEST 2019)
(GPL source distribution)
Java Runtime: OpenJDK Runtime Environment
JVM: OpenJDK 64-Bit Server VM
Java Version: 1.8.0_222-b10
Operating System: Windows 10
OS Version: 10.0
Default Encoding: windows-1252
Language: es
Country: ES
--></g></svg>