<?xml version="1.0" encoding="UTF-8" standalone="no"?><svg xmlns="http://www.w3.org/2000/svg" xmlns:xlink="http://www.w3.org/1999/xlink" contentScriptType="application/ecmascript" contentStyleType="text/css" height="591px" preserveAspectRatio="none" style="width:1938px;height:591px;" version="1.1" viewBox="0 0 1938 591" width="1938px" zoomAndPan="magnify"><defs><filter height="300%" id="fih9yuuc54h76" width="300%" x="-1" y="-1"><feGaussianBlur result="blurOut" stdDeviation="2.0"/><feColorMatrix in="blurOut" result="blurOut2" type="matrix" values="0 0 0 0 0 0 0 0 0 0 0 0 0 0 0 0 0 0 .4 0"/><feOffset dx="4.0" dy="4.0" in="blurOut2" result="blurOut3"/><feBlend in="SourceGraphic" in2="blurOut3" mode="normal"/></filter></defs><g><!--cluster personas--><polygon fill="#FFFFFF" filter="url(#fih9yuuc54h76)" points="411,134,483,134,490,157.6094,1741,157.6094,1741,579,411,579,411,134" style="stroke: #000000; stroke-width: 1.5;"/><line style="stroke: #000000; stroke-width: 1.5;" x1="411" x2="490" y1="157.6094" y2="157.6094"/><text fill="#000000" font-family="sans-serif" font-size="14" font-weight="bold" lengthAdjust="spacingAndGlyphs" textLength="66" x="415" y="150.5332">personas</text><!--class VisitadorPersona--><rect fill="#FEFECE" filter="url(#fih9yuuc54h76)" height="75.6719" id="VisitadorPersona" style="stroke: #A80036; stroke-width: 1.5;" width="162" x="1137" y="487"/><ellipse cx="1168.2" cy="503" fill="#B4A7E5" rx="11" ry="11" style="stroke: #A80036; stroke-width: 1.0;"/><path d="M1169.1531,499.6406 L1169.1531,506.2969 L1170.8719,506.2969 Q1171.4813,506.2969 1171.7469,506.5313 Q1172.0125,506.7656 1172.0125,507.1563 Q1172.0125,507.5313 1171.7469,507.7656 Q1171.4813,508 1170.8719,508 L1165.7313,508 Q1165.1219,508 1164.8563,507.7656 Q1164.5906,507.5313 1164.5906,507.1406 Q1164.5906,506.7656 1164.8563,506.5313 Q1165.1219,506.2969 1165.7313,506.2969 L1167.45,506.2969 L1167.45,499.6406 L1165.7313,499.6406 Q1165.1219,499.6406 1164.8563,499.4063 Q1164.5906,499.1719 1164.5906,498.7813 Q1164.5906,498.4063 1164.8563,498.1719 Q1165.1219,497.9375 1165.7313,497.9375 L1170.8719,497.9375 Q1171.4813,497.9375 1171.7469,498.1719 Q1172.0125,498.4063 1172.0125,498.7813 Q1172.0125,499.1719 1171.7469,499.4063 Q1171.4813,499.6406 1170.8719,499.6406 L1169.1531,499.6406 Z "/><text fill="#000000" font-family="sans-serif" font-size="12" font-style="italic" lengthAdjust="spacingAndGlyphs" textLength="94" x="1185.8" y="507.9102">VisitadorPersona</text><line style="stroke: #A80036; stroke-width: 1.5;" x1="1138" x2="1298" y1="519" y2="519"/><line style="stroke: #A80036; stroke-width: 1.5;" x1="1138" x2="1298" y1="527" y2="527"/><ellipse cx="1148" cy="539.418" fill="#84BE84" rx="3" ry="3" style="stroke: #038048; stroke-width: 1.0;"/><text fill="#000000" font-family="sans-serif" font-size="11" lengthAdjust="spacingAndGlyphs" textLength="115" x="1157" y="542.4189">void visitar(Mujer mujer)</text><ellipse cx="1148" cy="553.2539" fill="#84BE84" rx="3" ry="3" style="stroke: #038048; stroke-width: 1.0;"/><text fill="#000000" font-family="sans-serif" font-size="11" lengthAdjust="spacingAndGlyphs" textLength="136" x="1157" y="556.2549">void visitar(Hombre hombre)</text><!--class Persona--><rect fill="#FEFECE" filter="url(#fih9yuuc54h76)" height="61.8359" id="Persona" style="stroke: #A80036; stroke-width: 1.5;" width="265" x="1085.5" y="194"/><ellipse cx="1190.75" cy="210" fill="#A9DCDF" rx="11" ry="11" style="stroke: #A80036; stroke-width: 1.0;"/><path d="M1192.9375,211.7656 L1188.7969,211.7656 L1188.375,212.7969 L1188.7969,212.7969 Q1189.4063,212.7969 1189.6719,213.0313 Q1189.9375,213.2656 1189.9375,213.6563 Q1189.9375,214.0313 1189.6719,214.2656 Q1189.4063,214.5 1188.7969,214.5 L1186.5,214.5 Q1185.8906,214.5 1185.6328,214.2656 Q1185.375,214.0313 1185.375,213.6406 Q1185.375,213.2656 1185.6484,213.0234 Q1185.9219,212.7813 1186.5469,212.7969 L1189.2188,206.1406 L1188.1094,206.1406 Q1187.5,206.1406 1187.2344,205.9063 Q1186.9688,205.6719 1186.9688,205.2813 Q1186.9688,204.9063 1187.2344,204.6719 Q1187.5,204.4375 1188.1094,204.4375 L1191.7813,204.4375 L1195.1719,212.7969 Q1195.7656,212.7969 1195.9531,212.9375 Q1196.3438,213.2031 1196.3438,213.6563 Q1196.3438,214.0313 1196.0859,214.2656 Q1195.8281,214.5 1195.2188,214.5 L1192.9219,214.5 Q1192.3125,214.5 1192.0469,214.2656 Q1191.7813,214.0313 1191.7813,213.6406 Q1191.7813,213.2656 1192.0469,213.0313 Q1192.3125,212.7969 1192.9219,212.7969 L1193.3438,212.7969 L1192.9375,211.7656 Z M1192.2188,210.0625 L1190.8594,206.6875 L1189.4844,210.0625 L1192.2188,210.0625 Z "/><text fill="#000000" font-family="sans-serif" font-size="12" font-style="italic" lengthAdjust="spacingAndGlyphs" textLength="46" x="1211.25" y="214.9102">Persona</text><line style="stroke: #A80036; stroke-width: 1.5;" x1="1086.5" x2="1349.5" y1="226" y2="226"/><line style="stroke: #A80036; stroke-width: 1.5;" x1="1086.5" x2="1349.5" y1="234" y2="234"/><ellipse cx="1096.5" cy="246.418" fill="#84BE84" rx="3" ry="3" style="stroke: #038048; stroke-width: 1.0;"/><text fill="#000000" font-family="sans-serif" font-size="11" font-style="italic" lengthAdjust="spacingAndGlyphs" textLength="239" x="1105.5" y="249.4189">void aceptar(VisitadorPersona visitadorPersona)</text><!--class Mujer--><rect fill="#FEFECE" filter="url(#fih9yuuc54h76)" height="75.6719" id="Mujer" style="stroke: #A80036; stroke-width: 1.5;" width="261" x="1087.5" y="348"/><ellipse cx="1198.75" cy="364" fill="#ADD1B2" rx="11" ry="11" style="stroke: #A80036; stroke-width: 1.0;"/><path d="M1201.5156,359.875 Q1201.6719,359.6563 1201.8594,359.5469 Q1202.0469,359.4375 1202.2656,359.4375 Q1202.6406,359.4375 1202.875,359.6953 Q1203.1094,359.9531 1203.1094,360.5625 L1203.1094,362.0156 Q1203.1094,362.625 1202.875,362.8906 Q1202.6406,363.1563 1202.2656,363.1563 Q1201.9219,363.1563 1201.7188,362.9531 Q1201.5156,362.7656 1201.4063,362.25 Q1201.3594,361.8906 1201.1719,361.7031 Q1200.8438,361.3281 1200.2344,361.1094 Q1199.625,360.8906 1199,360.8906 Q1198.2344,360.8906 1197.6016,361.2188 Q1196.9688,361.5469 1196.4766,362.2969 Q1195.9844,363.0469 1195.9844,364.0781 L1195.9844,365.1719 Q1195.9844,366.4063 1196.875,367.2266 Q1197.7656,368.0469 1199.3594,368.0469 Q1200.2969,368.0469 1200.9531,367.7969 Q1201.3438,367.6406 1201.7656,367.2031 Q1202.0313,366.9375 1202.1797,366.8594 Q1202.3281,366.7813 1202.5313,366.7813 Q1202.8594,366.7813 1203.1172,367.0391 Q1203.375,367.2969 1203.375,367.6406 Q1203.375,367.9844 1203.0313,368.3906 Q1202.5313,368.9688 1201.7344,369.2969 Q1200.6563,369.75 1199.3594,369.75 Q1197.8438,369.75 1196.6406,369.125 Q1195.6563,368.625 1194.9688,367.5547 Q1194.2813,366.4844 1194.2813,365.2031 L1194.2813,364.0469 Q1194.2813,362.7188 1194.8984,361.5703 Q1195.5156,360.4219 1196.6094,359.8047 Q1197.7031,359.1875 1198.9375,359.1875 Q1199.6719,359.1875 1200.3203,359.3516 Q1200.9688,359.5156 1201.5156,359.875 Z "/><text fill="#000000" font-family="sans-serif" font-size="12" lengthAdjust="spacingAndGlyphs" textLength="30" x="1219.25" y="368.9102">Mujer</text><line style="stroke: #A80036; stroke-width: 1.5;" x1="1088.5" x2="1347.5" y1="380" y2="380"/><line style="stroke: #A80036; stroke-width: 1.5;" x1="1088.5" x2="1347.5" y1="388" y2="388"/><ellipse cx="1098.5" cy="400.418" fill="#84BE84" rx="3" ry="3" style="stroke: #038048; stroke-width: 1.0;"/><text fill="#000000" font-family="sans-serif" font-size="11" lengthAdjust="spacingAndGlyphs" textLength="91" x="1107.5" y="403.4189">void recibirPiropo()</text><ellipse cx="1098.5" cy="414.2539" fill="#84BE84" rx="3" ry="3" style="stroke: #038048; stroke-width: 1.0;"/><text fill="#000000" font-family="sans-serif" font-size="11" lengthAdjust="spacingAndGlyphs" textLength="235" x="1107.5" y="417.2549">void aceptar(VisitadorPersona visitadorPersona)</text><path d="M1384,356.5 L1384,382 L1348.74,386 L1384,390 L1384,415.5547 A0,0 0 0 0 1384,415.5547 L1688,415.5547 A0,0 0 0 0 1688,415.5547 L1688,366.5 L1678,356.5 L1384,356.5 A0,0 0 0 0 1384,356.5 " fill="#FBFB77" filter="url(#fih9yuuc54h76)" style="stroke: #A80036; stroke-width: 1.0;"/><path d="M1678,356.5 L1678,366.5 L1688,366.5 L1678,356.5 " fill="#FBFB77" style="stroke: #A80036; stroke-width: 1.0;"/><text fill="#000000" font-family="sans-serif" font-size="13" lengthAdjust="spacingAndGlyphs" textLength="283" x="1390" y="374.9951">void aceptar(VisitadorPersona visitadorPersona) {</text><text fill="#000000" font-family="sans-serif" font-size="13" lengthAdjust="spacingAndGlyphs" textLength="165" x="1398" y="391.3467">visitadorPersona.visitar(this);</text><text fill="#000000" font-family="sans-serif" font-size="13" lengthAdjust="spacingAndGlyphs" textLength="4" x="1390" y="407.6982">}</text><!--class Hombre--><rect fill="#FEFECE" filter="url(#fih9yuuc54h76)" height="75.6719" id="Hombre" style="stroke: #A80036; stroke-width: 1.5;" width="261" x="451.5" y="348"/><ellipse cx="555.25" cy="364" fill="#ADD1B2" rx="11" ry="11" style="stroke: #A80036; stroke-width: 1.0;"/><path d="M558.0156,359.875 Q558.1719,359.6563 558.3594,359.5469 Q558.5469,359.4375 558.7656,359.4375 Q559.1406,359.4375 559.375,359.6953 Q559.6094,359.9531 559.6094,360.5625 L559.6094,362.0156 Q559.6094,362.625 559.375,362.8906 Q559.1406,363.1563 558.7656,363.1563 Q558.4219,363.1563 558.2188,362.9531 Q558.0156,362.7656 557.9063,362.25 Q557.8594,361.8906 557.6719,361.7031 Q557.3438,361.3281 556.7344,361.1094 Q556.125,360.8906 555.5,360.8906 Q554.7344,360.8906 554.1016,361.2188 Q553.4688,361.5469 552.9766,362.2969 Q552.4844,363.0469 552.4844,364.0781 L552.4844,365.1719 Q552.4844,366.4063 553.375,367.2266 Q554.2656,368.0469 555.8594,368.0469 Q556.7969,368.0469 557.4531,367.7969 Q557.8438,367.6406 558.2656,367.2031 Q558.5313,366.9375 558.6797,366.8594 Q558.8281,366.7813 559.0313,366.7813 Q559.3594,366.7813 559.6172,367.0391 Q559.875,367.2969 559.875,367.6406 Q559.875,367.9844 559.5313,368.3906 Q559.0313,368.9688 558.2344,369.2969 Q557.1563,369.75 555.8594,369.75 Q554.3438,369.75 553.1406,369.125 Q552.1563,368.625 551.4688,367.5547 Q550.7813,366.4844 550.7813,365.2031 L550.7813,364.0469 Q550.7813,362.7188 551.3984,361.5703 Q552.0156,360.4219 553.1094,359.8047 Q554.2031,359.1875 555.4375,359.1875 Q556.1719,359.1875 556.8203,359.3516 Q557.4688,359.5156 558.0156,359.875 Z "/><text fill="#000000" font-family="sans-serif" font-size="12" lengthAdjust="spacingAndGlyphs" textLength="45" x="575.75" y="368.9102">Hombre</text><line style="stroke: #A80036; stroke-width: 1.5;" x1="452.5" x2="711.5" y1="380" y2="380"/><line style="stroke: #A80036; stroke-width: 1.5;" x1="452.5" x2="711.5" y1="388" y2="388"/><ellipse cx="462.5" cy="400.418" fill="#84BE84" rx="3" ry="3" style="stroke: #038048; stroke-width: 1.0;"/><text fill="#000000" font-family="sans-serif" font-size="11" lengthAdjust="spacingAndGlyphs" textLength="101" x="471.5" y="403.4189">void recibirPalmada()</text><ellipse cx="462.5" cy="414.2539" fill="#84BE84" rx="3" ry="3" style="stroke: #038048; stroke-width: 1.0;"/><text fill="#000000" font-family="sans-serif" font-size="11" lengthAdjust="spacingAndGlyphs" textLength="235" x="471.5" y="417.2549">void aceptar(VisitadorPersona visitadorPersona)</text><path d="M748,356.5 L748,382 L712.74,386 L748,390 L748,415.5547 A0,0 0 0 0 748,415.5547 L1052,415.5547 A0,0 0 0 0 1052,415.5547 L1052,366.5 L1042,356.5 L748,356.5 A0,0 0 0 0 748,356.5 " fill="#FBFB77" filter="url(#fih9yuuc54h76)" style="stroke: #A80036; stroke-width: 1.0;"/><path d="M1042,356.5 L1042,366.5 L1052,366.5 L1042,356.5 " fill="#FBFB77" style="stroke: #A80036; stroke-width: 1.0;"/><text fill="#000000" font-family="sans-serif" font-size="13" lengthAdjust="spacingAndGlyphs" textLength="283" x="754" y="374.9951">void aceptar(VisitadorPersona visitadorPersona) {</text><text fill="#000000" font-family="sans-serif" font-size="13" lengthAdjust="spacingAndGlyphs" textLength="165" x="762" y="391.3467">visitadorPersona.visitar(this);</text><text fill="#000000" font-family="sans-serif" font-size="13" lengthAdjust="spacingAndGlyphs" textLength="4" x="754" y="407.6982">}</text><!--class Restaurante--><rect fill="#FEFECE" filter="url(#fih9yuuc54h76)" height="61.8359" id="Restaurante" style="stroke: #A80036; stroke-width: 1.5;" width="116" x="1160" y="8"/><ellipse cx="1182.2" cy="24" fill="#ADD1B2" rx="11" ry="11" style="stroke: #A80036; stroke-width: 1.0;"/><path d="M1184.9656,19.875 Q1185.1219,19.6563 1185.3094,19.5469 Q1185.4969,19.4375 1185.7156,19.4375 Q1186.0906,19.4375 1186.325,19.6953 Q1186.5594,19.9531 1186.5594,20.5625 L1186.5594,22.0156 Q1186.5594,22.625 1186.325,22.8906 Q1186.0906,23.1563 1185.7156,23.1563 Q1185.3719,23.1563 1185.1688,22.9531 Q1184.9656,22.7656 1184.8563,22.25 Q1184.8094,21.8906 1184.6219,21.7031 Q1184.2938,21.3281 1183.6844,21.1094 Q1183.075,20.8906 1182.45,20.8906 Q1181.6844,20.8906 1181.0516,21.2188 Q1180.4188,21.5469 1179.9266,22.2969 Q1179.4344,23.0469 1179.4344,24.0781 L1179.4344,25.1719 Q1179.4344,26.4063 1180.325,27.2266 Q1181.2156,28.0469 1182.8094,28.0469 Q1183.7469,28.0469 1184.4031,27.7969 Q1184.7938,27.6406 1185.2156,27.2031 Q1185.4813,26.9375 1185.6297,26.8594 Q1185.7781,26.7813 1185.9813,26.7813 Q1186.3094,26.7813 1186.5672,27.0391 Q1186.825,27.2969 1186.825,27.6406 Q1186.825,27.9844 1186.4813,28.3906 Q1185.9813,28.9688 1185.1844,29.2969 Q1184.1063,29.75 1182.8094,29.75 Q1181.2938,29.75 1180.0906,29.125 Q1179.1063,28.625 1178.4188,27.5547 Q1177.7313,26.4844 1177.7313,25.2031 L1177.7313,24.0469 Q1177.7313,22.7188 1178.3484,21.5703 Q1178.9656,20.4219 1180.0594,19.8047 Q1181.1531,19.1875 1182.3875,19.1875 Q1183.1219,19.1875 1183.7703,19.3516 Q1184.4188,19.5156 1184.9656,19.875 Z "/><text fill="#000000" font-family="sans-serif" font-size="12" lengthAdjust="spacingAndGlyphs" textLength="68" x="1197.8" y="28.9102">Restaurante</text><line style="stroke: #A80036; stroke-width: 1.5;" x1="1161" x2="1275" y1="40" y2="40"/><line style="stroke: #A80036; stroke-width: 1.5;" x1="1161" x2="1275" y1="48" y2="48"/><ellipse cx="1171" cy="60.418" fill="#84BE84" rx="3" ry="3" style="stroke: #038048; stroke-width: 1.0;"/><text fill="#000000" font-family="sans-serif" font-size="11" lengthAdjust="spacingAndGlyphs" textLength="90" x="1180" y="63.4189">simularEscenario()</text><!--class AparcaCoches--><rect fill="#FEFECE" filter="url(#fih9yuuc54h76)" height="89.5078" id="AparcaCoches" style="stroke: #A80036; stroke-width: 1.5;" width="170" x="1757" y="180"/><ellipse cx="1797.65" cy="196" fill="#ADD1B2" rx="11" ry="11" style="stroke: #A80036; stroke-width: 1.0;"/><path d="M1800.4156,191.875 Q1800.5719,191.6563 1800.7594,191.5469 Q1800.9469,191.4375 1801.1656,191.4375 Q1801.5406,191.4375 1801.775,191.6953 Q1802.0094,191.9531 1802.0094,192.5625 L1802.0094,194.0156 Q1802.0094,194.625 1801.775,194.8906 Q1801.5406,195.1563 1801.1656,195.1563 Q1800.8219,195.1563 1800.6188,194.9531 Q1800.4156,194.7656 1800.3063,194.25 Q1800.2594,193.8906 1800.0719,193.7031 Q1799.7438,193.3281 1799.1344,193.1094 Q1798.525,192.8906 1797.9,192.8906 Q1797.1344,192.8906 1796.5016,193.2188 Q1795.8688,193.5469 1795.3766,194.2969 Q1794.8844,195.0469 1794.8844,196.0781 L1794.8844,197.1719 Q1794.8844,198.4063 1795.775,199.2266 Q1796.6656,200.0469 1798.2594,200.0469 Q1799.1969,200.0469 1799.8531,199.7969 Q1800.2438,199.6406 1800.6656,199.2031 Q1800.9313,198.9375 1801.0797,198.8594 Q1801.2281,198.7813 1801.4313,198.7813 Q1801.7594,198.7813 1802.0172,199.0391 Q1802.275,199.2969 1802.275,199.6406 Q1802.275,199.9844 1801.9313,200.3906 Q1801.4313,200.9688 1800.6344,201.2969 Q1799.5563,201.75 1798.2594,201.75 Q1796.7438,201.75 1795.5406,201.125 Q1794.5563,200.625 1793.8688,199.5547 Q1793.1813,198.4844 1793.1813,197.2031 L1793.1813,196.0469 Q1793.1813,194.7188 1793.7984,193.5703 Q1794.4156,192.4219 1795.5094,191.8047 Q1796.6031,191.1875 1797.8375,191.1875 Q1798.5719,191.1875 1799.2203,191.3516 Q1799.8688,191.5156 1800.4156,191.875 Z "/><text fill="#000000" font-family="sans-serif" font-size="12" lengthAdjust="spacingAndGlyphs" textLength="81" x="1817.35" y="200.9102">AparcaCoches</text><line style="stroke: #A80036; stroke-width: 1.5;" x1="1758" x2="1926" y1="212" y2="212"/><line style="stroke: #A80036; stroke-width: 1.5;" x1="1758" x2="1926" y1="220" y2="220"/><ellipse cx="1768" cy="232.418" fill="#84BE84" rx="3" ry="3" style="stroke: #038048; stroke-width: 1.0;"/><text fill="#000000" font-family="sans-serif" font-size="11" lengthAdjust="spacingAndGlyphs" textLength="144" x="1777" y="235.4189">void recibir(Persona persona)</text><ellipse cx="1768" cy="246.2539" fill="#84BE84" rx="3" ry="3" style="stroke: #038048; stroke-width: 1.0;"/><text fill="#000000" font-family="sans-serif" font-size="11" lengthAdjust="spacingAndGlyphs" textLength="115" x="1777" y="249.2549">void visitar(Mujer mujer)</text><ellipse cx="1768" cy="260.0898" fill="#84BE84" rx="3" ry="3" style="stroke: #038048; stroke-width: 1.0;"/><text fill="#000000" font-family="sans-serif" font-size="11" lengthAdjust="spacingAndGlyphs" textLength="136" x="1777" y="263.0908">void visitar(Hombre hombre)</text><!--class Camarero--><rect fill="#FEFECE" filter="url(#fih9yuuc54h76)" height="89.5078" id="Camarero" style="stroke: #A80036; stroke-width: 1.5;" width="170" x="6" y="180"/><ellipse cx="58.75" cy="196" fill="#ADD1B2" rx="11" ry="11" style="stroke: #A80036; stroke-width: 1.0;"/><path d="M61.5156,191.875 Q61.6719,191.6563 61.8594,191.5469 Q62.0469,191.4375 62.2656,191.4375 Q62.6406,191.4375 62.875,191.6953 Q63.1094,191.9531 63.1094,192.5625 L63.1094,194.0156 Q63.1094,194.625 62.875,194.8906 Q62.6406,195.1563 62.2656,195.1563 Q61.9219,195.1563 61.7188,194.9531 Q61.5156,194.7656 61.4063,194.25 Q61.3594,193.8906 61.1719,193.7031 Q60.8438,193.3281 60.2344,193.1094 Q59.625,192.8906 59,192.8906 Q58.2344,192.8906 57.6016,193.2188 Q56.9688,193.5469 56.4766,194.2969 Q55.9844,195.0469 55.9844,196.0781 L55.9844,197.1719 Q55.9844,198.4063 56.875,199.2266 Q57.7656,200.0469 59.3594,200.0469 Q60.2969,200.0469 60.9531,199.7969 Q61.3438,199.6406 61.7656,199.2031 Q62.0313,198.9375 62.1797,198.8594 Q62.3281,198.7813 62.5313,198.7813 Q62.8594,198.7813 63.1172,199.0391 Q63.375,199.2969 63.375,199.6406 Q63.375,199.9844 63.0313,200.3906 Q62.5313,200.9688 61.7344,201.2969 Q60.6563,201.75 59.3594,201.75 Q57.8438,201.75 56.6406,201.125 Q55.6563,200.625 54.9688,199.5547 Q54.2813,198.4844 54.2813,197.2031 L54.2813,196.0469 Q54.2813,194.7188 54.8984,193.5703 Q55.5156,192.4219 56.6094,191.8047 Q57.7031,191.1875 58.9375,191.1875 Q59.6719,191.1875 60.3203,191.3516 Q60.9688,191.5156 61.5156,191.875 Z "/><text fill="#000000" font-family="sans-serif" font-size="12" lengthAdjust="spacingAndGlyphs" textLength="56" x="79.25" y="200.9102">Camarero</text><line style="stroke: #A80036; stroke-width: 1.5;" x1="7" x2="175" y1="212" y2="212"/><line style="stroke: #A80036; stroke-width: 1.5;" x1="7" x2="175" y1="220" y2="220"/><ellipse cx="17" cy="232.418" fill="#84BE84" rx="3" ry="3" style="stroke: #038048; stroke-width: 1.0;"/><text fill="#000000" font-family="sans-serif" font-size="11" lengthAdjust="spacingAndGlyphs" textLength="144" x="26" y="235.4189">void recibir(Persona persona)</text><ellipse cx="17" cy="246.2539" fill="#84BE84" rx="3" ry="3" style="stroke: #038048; stroke-width: 1.0;"/><text fill="#000000" font-family="sans-serif" font-size="11" lengthAdjust="spacingAndGlyphs" textLength="115" x="26" y="249.2549">void visitar(Mujer mujer)</text><ellipse cx="17" cy="260.0898" fill="#84BE84" rx="3" ry="3" style="stroke: #038048; stroke-width: 1.0;"/><text fill="#000000" font-family="sans-serif" font-size="11" lengthAdjust="spacingAndGlyphs" textLength="136" x="26" y="263.0908">void visitar(Hombre hombre)</text><path d="M211,163 L211,221 L176.297,225 L211,229 L211,287.4609 A0,0 0 0 0 211,287.4609 L395,287.4609 A0,0 0 0 0 395,287.4609 L395,173 L385,163 L211,163 A0,0 0 0 0 211,163 " fill="#FBFB77" filter="url(#fih9yuuc54h76)" style="stroke: #A80036; stroke-width: 1.0;"/><path d="M385,163 L385,173 L395,173 L385,163 " fill="#FBFB77" style="stroke: #A80036; stroke-width: 1.0;"/><text fill="#000000" font-family="sans-serif" font-size="13" lengthAdjust="spacingAndGlyphs" textLength="143" x="217" y="181.4951">void visitar(Mujer mujer) {</text><text fill="#000000" font-family="sans-serif" font-size="13" lengthAdjust="spacingAndGlyphs" textLength="120" x="225" y="197.8467">mujer.recibirPiropo();</text><text fill="#000000" font-family="sans-serif" font-size="13" lengthAdjust="spacingAndGlyphs" textLength="4" x="217" y="214.1982">}</text><text fill="#000000" font-family="sans-serif" font-size="13" lengthAdjust="spacingAndGlyphs" textLength="0" x="221" y="230.5498"/><text fill="#000000" font-family="sans-serif" font-size="13" lengthAdjust="spacingAndGlyphs" textLength="163" x="217" y="246.9014">void visitar(Hombre hombre){</text><text fill="#000000" font-family="sans-serif" font-size="13" lengthAdjust="spacingAndGlyphs" textLength="145" x="225" y="263.2529">hombre.recibirPalmada();</text><text fill="#000000" font-family="sans-serif" font-size="13" lengthAdjust="spacingAndGlyphs" textLength="4" x="217" y="279.6045">}</text><!--link Restaurante to Camarero--><path d="M1146.54,39.853 C942.96,40.39 363.686,48.842 193,126 C170.834,136.02 150.549,152.959 134.01,169.962 " fill="none" id="Restaurante-Camarero" style="stroke: #A80036; stroke-width: 1.0;"/><polygon fill="#A80036" points="124.718,179.929,133.7808,176.0735,128.1275,176.2717,127.9292,170.6184,124.718,179.929" style="stroke: #A80036; stroke-width: 1.0;"/><line style="stroke: #A80036; stroke-width: 1.0;" x1="128.1275" x2="133.583" y1="176.2717" y2="170.4205"/><polygon fill="#A80036" points="1159.68,39.828,1153.6712,35.8412,1147.68,39.8544,1153.6888,43.8412,1159.68,39.828" style="stroke: #A80036; stroke-width: 1.0;"/><!--link Restaurante to AparcaCoches--><path d="M1289.22,42.844 C1386.43,48.871 1564.53,67.635 1704,126 C1731.15,137.359 1758.17,154.827 1781.01,171.887 " fill="none" id="Restaurante-AparcaCoches" style="stroke: #A80036; stroke-width: 1.0;"/><polygon fill="#A80036" points="1791.54,179.935,1786.8226,171.2894,1787.5689,176.8968,1781.9615,177.6431,1791.54,179.935" style="stroke: #A80036; stroke-width: 1.0;"/><line style="stroke: #A80036; stroke-width: 1.0;" x1="1787.5689" x2="1781.215" y1="176.8968" y2="172.038"/><polygon fill="#A80036" points="1276.05,42.076,1281.8069,46.4186,1288.0296,42.7749,1282.2728,38.4322,1276.05,42.076" style="stroke: #A80036; stroke-width: 1.0;"/><!--link Restaurante to Persona--><path d="M1218,83.656 C1218,112.994 1218,151.493 1218,180.747 " fill="none" id="Restaurante-Persona" style="stroke: #A80036; stroke-width: 1.0;"/><polygon fill="#A80036" points="1218,193.877,1222,184.877,1218,188.877,1214,184.877,1218,193.877" style="stroke: #A80036; stroke-width: 1.0;"/><line style="stroke: #A80036; stroke-width: 1.0;" x1="1218" x2="1218" y1="188.877" y2="180.877"/><polygon fill="#A80036" points="1218,70.384,1214,76.384,1218,82.384,1222,76.384,1218,70.384" style="stroke: #A80036; stroke-width: 1.0;"/><text fill="#000000" font-family="sans-serif" font-size="13" lengthAdjust="spacingAndGlyphs" textLength="38" x="1219" y="114.4951">cliente</text><!--link Persona to Hombre--><path d="M1078.5,260.874 C969.58,288.105 819.328,325.668 712.713,352.322 " fill="none" id="Persona-Hombre" style="stroke: #A80036; stroke-width: 1.0;"/><polygon fill="none" points="1076.9,254.06,1098,256,1080.29,267.642,1076.9,254.06" style="stroke: #A80036; stroke-width: 1.0;"/><!--link Persona to Mujer--><path d="M1218,276.584 C1218,299.709 1218,326.613 1218,347.835 " fill="none" id="Persona-Mujer" style="stroke: #A80036; stroke-width: 1.0;"/><polygon fill="none" points="1211,276.281,1218,256.281,1225,276.281,1211,276.281" style="stroke: #A80036; stroke-width: 1.0;"/><!--link VisitadorPersona to Camarero--><path d="M1116.75,520.113 C934.414,512.1336 558.347,490.93 435,448 C320.377,408.106 205.621,322.667 141.903,270.187 " fill="none" id="VisitadorPersona-Camarero" style="stroke: #A80036; stroke-width: 1.0;"/><polygon fill="none" points="1117.26,513.1283,1136.94,520.9771,1116.66,527.1155,1117.26,513.1283" style="stroke: #A80036; stroke-width: 1.0;"/><!--link VisitadorPersona to AparcaCoches--><path d="M1319.41,521.9071 C1450.55,517.0602 1669.04,501.0198 1727,448 C1780.49,399.076 1813.13,319.51 1829.36,270.1 " fill="none" id="VisitadorPersona-AparcaCoches" style="stroke: #A80036; stroke-width: 1.0;"/><polygon fill="none" points="1319.37,528.9122,1299.15,522.5928,1318.9,514.9202,1319.37,528.9122" style="stroke: #A80036; stroke-width: 1.0;"/><!--link AparcaCoches to Persona--><path d="M1756.57,225 C1622.94,225 1489.32,225 1355.69,225 " fill="none" id="AparcaCoches-Persona" style="stroke: #A80036; stroke-width: 1.0; stroke-dasharray: 7.0,7.0;"/><polygon fill="#A80036" points="1350.54,225,1359.54,229,1355.54,225,1359.54,221,1350.54,225" style="stroke: #A80036; stroke-width: 1.0;"/><!--link AparcaCoches to Hombre--><path d="M1756.78,269.235 C1739.68,276.308 1721.56,282.715 1704,287 C1282.63,389.838 1158.62,281.57 730,348 C726.043,348.613 722.038,349.283 718.003,350.001 " fill="none" id="AparcaCoches-Hombre" style="stroke: #A80036; stroke-width: 1.0; stroke-dasharray: 7.0,7.0;"/><polygon fill="#A80036" points="712.879,350.934,722.4499,353.2573,717.7981,350.0384,721.017,345.3867,712.879,350.934" style="stroke: #A80036; stroke-width: 1.0;"/><!--link AparcaCoches to Mujer--><path d="M1818.77,270.415 C1806.97,288.343 1790.9,307.291 1771,318 C1691.53,360.769 1455.1,333.67 1366,348 C1362.05,348.636 1358.04,349.325 1354.01,350.06 " fill="none" id="AparcaCoches-Mujer" style="stroke: #A80036; stroke-width: 1.0; stroke-dasharray: 7.0,7.0;"/><polygon fill="#A80036" points="1348.89,351.015,1358.4697,353.3018,1353.8057,350.1007,1357.0068,345.4367,1348.89,351.015" style="stroke: #A80036; stroke-width: 1.0;"/><!--link Camarero to Persona--><path d="M119.089,179.808 C140.19,150.442 172.01,114.633 210.5,98 C285.568,65.56 312.961,91.75 394.5,98 C637.424,116.622 917.143,165.71 1080.1,197.117 " fill="none" id="Camarero-Persona" style="stroke: #A80036; stroke-width: 1.0; stroke-dasharray: 7.0,7.0;"/><polygon fill="#A80036" points="1085.37,198.134,1077.3016,192.4859,1080.4624,197.1773,1075.7709,200.3381,1085.37,198.134" style="stroke: #A80036; stroke-width: 1.0;"/><!--link Camarero to Hombre--><path d="M158.426,270.028 C169.69,276.294 181.468,282.221 193,287 C274.214,320.657 369.914,344.95 446.07,360.929 " fill="none" id="Camarero-Hombre" style="stroke: #A80036; stroke-width: 1.0; stroke-dasharray: 7.0,7.0;"/><polygon fill="#A80036" points="451.058,361.97,443.065,356.2157,446.1635,360.9485,441.4306,364.047,451.058,361.97" style="stroke: #A80036; stroke-width: 1.0;"/><!--link Camarero to Mujer--><path d="M154.408,270.033 C166.736,276.798 179.909,282.889 193,287 C379.176,345.459 876.246,317.593 1069,348 C1073.45,348.702 1077.96,349.472 1082.5,350.298 " fill="none" id="Camarero-Mujer" style="stroke: #A80036; stroke-width: 1.0; stroke-dasharray: 7.0,7.0;"/><polygon fill="#A80036" points="1087.44,351.216,1079.3075,345.6606,1082.5218,350.3155,1077.8668,353.5298,1087.44,351.216" style="stroke: #A80036; stroke-width: 1.0;"/><!--link Hombre to VisitadorPersona--><path d="M662.207,424.092 C683.855,432.983 707.518,441.712 730,448 C867.706,486.515 1033.09,507.1019 1131.65,516.7741 " fill="none" id="Hombre-VisitadorPersona" style="stroke: #A80036; stroke-width: 1.0; stroke-dasharray: 7.0,7.0;"/><polygon fill="#A80036" points="1136.88,517.2829,1128.3111,512.4276,1131.9036,516.7972,1127.534,520.3897,1136.88,517.2829" style="stroke: #A80036; stroke-width: 1.0;"/><!--link Mujer to VisitadorPersona--><path d="M1218,424.074 C1218,441.893 1218,463.334 1218,481.779 " fill="none" id="Mujer-VisitadorPersona" style="stroke: #A80036; stroke-width: 1.0; stroke-dasharray: 7.0,7.0;"/><polygon fill="#A80036" points="1218,486.896,1222,477.896,1218,481.896,1214,477.896,1218,486.896" style="stroke: #A80036; stroke-width: 1.0;"/><!--link Persona to VisitadorPersona--><path d="M1350.78,239.583 C1529.61,262.968 1813.62,321.119 1705,448 C1654.43,507.0683 1430.24,520.5724 1304.42,523.4363 " fill="none" id="Persona-VisitadorPersona" style="stroke: #A80036; stroke-width: 1.0; stroke-dasharray: 7.0,7.0;"/><polygon fill="#A80036" points="1299.24,523.5493,1308.3291,527.3425,1304.2387,523.435,1308.1462,519.3446,1299.24,523.5493" style="stroke: #A80036; stroke-width: 1.0;"/><!--
@startuml
class Restaurante{
+ simularEscenario()
}

class AparcaCoches {
+ void recibir(Persona persona)
+ void visitar(Mujer mujer)
+ void visitar(Hombre hombre)
}

class Camarero {
+ void recibir(Persona persona)
+ void visitar(Mujer mujer)
+ void visitar(Hombre hombre)
}
note right
void visitar(Mujer mujer) {
  mujer.recibirPiropo();
}

void visitar(Hombre hombre){
  hombre.recibirPalmada();
}
endnote

package personas {

interface VisitadorPersona{
+ void visitar(Mujer mujer)
+ void visitar(Hombre hombre)
}

together {
abstract class Persona{
+ {abstract} void aceptar(VisitadorPersona visitadorPersona)
}

class Mujer{
+ void recibirPiropo()
+ void aceptar(VisitadorPersona visitadorPersona)
}
note right
void aceptar(VisitadorPersona visitadorPersona) {
  visitadorPersona.visitar(this);
}
endnote

class Hombre {
+ void recibirPalmada()
+ void aceptar(VisitadorPersona visitadorPersona)
}
note right
void aceptar(VisitadorPersona visitadorPersona) {
  visitadorPersona.visitar(this);
}
endnote

}
}

Restaurante *-down-> Camarero
Restaurante *-down-> AparcaCoches
Restaurante *-down-> Persona : cliente

Persona <|-down- Hombre
Persona <|-down- Mujer

VisitadorPersona <|-down- Camarero
VisitadorPersona <|-down- AparcaCoches

AparcaCoches ..> Persona
AparcaCoches ..> Hombre
AparcaCoches ..> Mujer

Camarero ..> Persona
Camarero ..> Hombre
Camarero ..> Mujer

Hombre ..> VisitadorPersona
Mujer ..> VisitadorPersona
Persona ..> VisitadorPersona
@enduml

PlantUML version 1.2019.05(Sat Apr 20 18:45:36 CEST 2019)
(GPL source distribution)
Java Runtime: OpenJDK Runtime Environment
JVM: OpenJDK 64-Bit Server VM
Java Version: 1.8.0_222-b10
Operating System: Windows 10
OS Version: 10.0
Default Encoding: windows-1252
Language: es
Country: ES
--></g></svg>