<?xml version="1.0" encoding="UTF-8" standalone="no"?><svg xmlns="http://www.w3.org/2000/svg" xmlns:xlink="http://www.w3.org/1999/xlink" contentScriptType="application/ecmascript" contentStyleType="text/css" height="656px" preserveAspectRatio="none" style="width:350px;height:656px;" version="1.1" viewBox="0 0 350 656" width="350px" zoomAndPan="magnify"><defs><filter height="300%" id="fkh37boi8lvy9" width="300%" x="-1" y="-1"><feGaussianBlur result="blurOut" stdDeviation="2.0"/><feColorMatrix in="blurOut" result="blurOut2" type="matrix" values="0 0 0 0 0 0 0 0 0 0 0 0 0 0 0 0 0 0 .4 0"/><feOffset dx="4.0" dy="4.0" in="blurOut2" result="blurOut3"/><feBlend in="SourceGraphic" in2="blurOut3" mode="normal"/></filter></defs><g><rect fill="#ADD8E6" height="641.8438" style="stroke: #A80036; stroke-width: 1.0;" width="216" x="121" y="4"/><text fill="#000000" font-family="sans-serif" font-size="13" font-weight="bold" lengthAdjust="spacingAndGlyphs" textLength="71" x="193.5" y="17.4951">delegación</text><line style="stroke: #A80036; stroke-width: 1.0; stroke-dasharray: 5.0,5.0;" x1="61" x2="61" y1="60.9609" y2="606.2344"/><line style="stroke: #A80036; stroke-width: 1.0; stroke-dasharray: 5.0,5.0;" x1="166" x2="166" y1="60.9609" y2="606.2344"/><line style="stroke: #A80036; stroke-width: 1.0; stroke-dasharray: 5.0,5.0;" x1="275" x2="275" y1="60.9609" y2="606.2344"/><rect fill="#FEFECE" filter="url(#fkh37boi8lvy9)" height="31.6094" style="stroke: #A80036; stroke-width: 1.5;" width="103" x="8" y="24.3516"/><text fill="#000000" font-family="sans-serif" font-size="14" lengthAdjust="spacingAndGlyphs" textLength="89" x="15" y="45.8848">cliente:Cliente</text><rect fill="#FEFECE" filter="url(#fkh37boi8lvy9)" height="31.6094" style="stroke: #A80036; stroke-width: 1.5;" width="103" x="8" y="605.2344"/><text fill="#000000" font-family="sans-serif" font-size="14" lengthAdjust="spacingAndGlyphs" textLength="89" x="15" y="626.7676">cliente:Cliente</text><rect fill="#FEFECE" filter="url(#fkh37boi8lvy9)" height="31.6094" style="stroke: #A80036; stroke-width: 1.5;" width="79" x="125" y="24.3516"/><text fill="#000000" font-family="sans-serif" font-size="14" lengthAdjust="spacingAndGlyphs" textLength="65" x="132" y="45.8848">todo:Todo</text><rect fill="#FEFECE" filter="url(#fkh37boi8lvy9)" height="31.6094" style="stroke: #A80036; stroke-width: 1.5;" width="79" x="125" y="605.2344"/><text fill="#000000" font-family="sans-serif" font-size="14" lengthAdjust="spacingAndGlyphs" textLength="65" x="132" y="626.7676">todo:Todo</text><rect fill="#FEFECE" filter="url(#fkh37boi8lvy9)" height="31.6094" style="stroke: #A80036; stroke-width: 1.5;" width="111" x="218" y="24.3516"/><text fill="#000000" font-family="sans-serif" font-size="14" lengthAdjust="spacingAndGlyphs" textLength="97" x="225" y="45.8848">delegado:Parte</text><rect fill="#FEFECE" filter="url(#fkh37boi8lvy9)" height="31.6094" style="stroke: #A80036; stroke-width: 1.5;" width="111" x="218" y="605.2344"/><text fill="#000000" font-family="sans-serif" font-size="14" lengthAdjust="spacingAndGlyphs" textLength="97" x="225" y="626.7676">delegado:Parte</text><rect fill="#EEEEEE" filter="url(#fkh37boi8lvy9)" height="3" style="stroke: #EEEEEE; stroke-width: 1.0;" width="335" x="3" y="92.1367"/><line style="stroke: #000000; stroke-width: 1.0;" x1="3" x2="338" y1="92.1367" y2="92.1367"/><line style="stroke: #000000; stroke-width: 1.0;" x1="3" x2="338" y1="95.1367" y2="95.1367"/><rect fill="#EEEEEE" filter="url(#fkh37boi8lvy9)" height="24.3516" style="stroke: #000000; stroke-width: 2.0;" width="89" x="126" y="80.9609"/><text fill="#000000" font-family="sans-serif" font-size="13" font-weight="bold" lengthAdjust="spacingAndGlyphs" textLength="71" x="132" y="98.4561">transmitido</text><polygon fill="#A80036" points="154.5,133.6641,164.5,137.6641,154.5,141.6641,158.5,137.6641" style="stroke: #A80036; stroke-width: 1.0;"/><line style="stroke: #A80036; stroke-width: 1.0;" x1="61.5" x2="160.5" y1="137.6641" y2="137.6641"/><text fill="#000000" font-family="sans-serif" font-size="13" lengthAdjust="spacingAndGlyphs" textLength="30" x="68.5" y="132.8076">m2();</text><polygon fill="#A80036" points="263.5,164.0156,273.5,168.0156,263.5,172.0156,267.5,168.0156" style="stroke: #A80036; stroke-width: 1.0;"/><line style="stroke: #A80036; stroke-width: 1.0;" x1="166.5" x2="269.5" y1="168.0156" y2="168.0156"/><text fill="#000000" font-family="sans-serif" font-size="13" lengthAdjust="spacingAndGlyphs" textLength="30" x="173.5" y="163.1592">m2();</text><rect fill="#EEEEEE" filter="url(#fkh37boi8lvy9)" height="3" style="stroke: #EEEEEE; stroke-width: 1.0;" width="335" x="3" y="197.1914"/><line style="stroke: #000000; stroke-width: 1.0;" x1="3" x2="338" y1="197.1914" y2="197.1914"/><line style="stroke: #000000; stroke-width: 1.0;" x1="3" x2="338" y1="200.1914" y2="200.1914"/><rect fill="#EEEEEE" filter="url(#fkh37boi8lvy9)" height="24.3516" style="stroke: #000000; stroke-width: 2.0;" width="70" x="135.5" y="186.0156"/><text fill="#000000" font-family="sans-serif" font-size="13" font-weight="bold" lengthAdjust="spacingAndGlyphs" textLength="52" x="141.5" y="203.5107">anulado</text><polygon fill="#A80036" points="154.5,238.7188,164.5,242.7188,154.5,246.7188,158.5,242.7188" style="stroke: #A80036; stroke-width: 1.0;"/><line style="stroke: #A80036; stroke-width: 1.0;" x1="61.5" x2="160.5" y1="242.7188" y2="242.7188"/><text fill="#000000" font-family="sans-serif" font-size="13" lengthAdjust="spacingAndGlyphs" textLength="30" x="68.5" y="237.8623">m3();</text><rect fill="#EEEEEE" filter="url(#fkh37boi8lvy9)" height="3" style="stroke: #EEEEEE; stroke-width: 1.0;" width="335" x="3" y="271.8945"/><line style="stroke: #000000; stroke-width: 1.0;" x1="3" x2="338" y1="271.8945" y2="271.8945"/><line style="stroke: #000000; stroke-width: 1.0;" x1="3" x2="338" y1="274.8945" y2="274.8945"/><rect fill="#EEEEEE" filter="url(#fkh37boi8lvy9)" height="24.3516" style="stroke: #000000; stroke-width: 2.0;" width="83" x="129" y="260.7188"/><text fill="#000000" font-family="sans-serif" font-size="13" font-weight="bold" lengthAdjust="spacingAndGlyphs" textLength="65" x="135" y="278.2139">redefinido</text><polygon fill="#A80036" points="154.5,313.4219,164.5,317.4219,154.5,321.4219,158.5,317.4219" style="stroke: #A80036; stroke-width: 1.0;"/><line style="stroke: #A80036; stroke-width: 1.0;" x1="61.5" x2="160.5" y1="317.4219" y2="317.4219"/><text fill="#000000" font-family="sans-serif" font-size="13" lengthAdjust="spacingAndGlyphs" textLength="30" x="68.5" y="312.5654">m4();</text><polygon fill="#A80036" points="263.5,343.7734,273.5,347.7734,263.5,351.7734,267.5,347.7734" style="stroke: #A80036; stroke-width: 1.0;"/><line style="stroke: #A80036; stroke-width: 1.0;" x1="166.5" x2="269.5" y1="347.7734" y2="347.7734"/><text fill="#000000" font-family="sans-serif" font-size="13" lengthAdjust="spacingAndGlyphs" textLength="30" x="173.5" y="342.917">m4();</text><rect fill="#EEEEEE" filter="url(#fkh37boi8lvy9)" height="3" style="stroke: #EEEEEE; stroke-width: 1.0;" width="335" x="3" y="376.9492"/><line style="stroke: #000000; stroke-width: 1.0;" x1="3" x2="338" y1="376.9492" y2="376.9492"/><line style="stroke: #000000; stroke-width: 1.0;" x1="3" x2="338" y1="379.9492" y2="379.9492"/><rect fill="#EEEEEE" filter="url(#fkh37boi8lvy9)" height="24.3516" style="stroke: #000000; stroke-width: 2.0;" width="79" x="131" y="365.7734"/><text fill="#000000" font-family="sans-serif" font-size="13" font-weight="bold" lengthAdjust="spacingAndGlyphs" textLength="61" x="137" y="383.2686">concretos</text><polygon fill="#A80036" points="154.5,418.4766,164.5,422.4766,154.5,426.4766,158.5,422.4766" style="stroke: #A80036; stroke-width: 1.0;"/><line style="stroke: #A80036; stroke-width: 1.0;" x1="61.5" x2="160.5" y1="422.4766" y2="422.4766"/><text fill="#000000" font-family="sans-serif" font-size="13" lengthAdjust="spacingAndGlyphs" textLength="30" x="68.5" y="417.6201">m5();</text><polygon fill="#A80036" points="154.5,448.8281,164.5,452.8281,154.5,456.8281,158.5,452.8281" style="stroke: #A80036; stroke-width: 1.0;"/><line style="stroke: #A80036; stroke-width: 1.0;" x1="61.5" x2="160.5" y1="452.8281" y2="452.8281"/><text fill="#000000" font-family="sans-serif" font-size="13" lengthAdjust="spacingAndGlyphs" textLength="30" x="68.5" y="447.9717">m7();</text><rect fill="#EEEEEE" filter="url(#fkh37boi8lvy9)" height="3" style="stroke: #EEEEEE; stroke-width: 1.0;" width="335" x="3" y="482.0039"/><line style="stroke: #000000; stroke-width: 1.0;" x1="3" x2="338" y1="482.0039" y2="482.0039"/><line style="stroke: #000000; stroke-width: 1.0;" x1="3" x2="338" y1="485.0039" y2="485.0039"/><rect fill="#EEEEEE" filter="url(#fkh37boi8lvy9)" height="24.3516" style="stroke: #000000; stroke-width: 2.0;" width="122" x="109.5" y="470.8281"/><text fill="#000000" font-family="sans-serif" font-size="13" font-weight="bold" lengthAdjust="spacingAndGlyphs" textLength="104" x="115.5" y="488.3232">metodo plantilla</text><polygon fill="#A80036" points="154.5,523.5313,164.5,527.5313,154.5,531.5313,158.5,527.5313" style="stroke: #A80036; stroke-width: 1.0;"/><line style="stroke: #A80036; stroke-width: 1.0;" x1="61.5" x2="160.5" y1="527.5313" y2="527.5313"/><text fill="#000000" font-family="sans-serif" font-size="13" lengthAdjust="spacingAndGlyphs" textLength="30" x="68.5" y="522.6748">m6();</text><polygon fill="#A80036" points="263.5,553.8828,273.5,557.8828,263.5,561.8828,267.5,557.8828" style="stroke: #A80036; stroke-width: 1.0;"/><line style="stroke: #A80036; stroke-width: 1.0;" x1="166.5" x2="269.5" y1="557.8828" y2="557.8828"/><text fill="#000000" font-family="sans-serif" font-size="13" lengthAdjust="spacingAndGlyphs" textLength="51" x="173.5" y="553.0264">m6(this);</text><polygon fill="#A80036" points="177.5,584.2344,167.5,588.2344,177.5,592.2344,173.5,588.2344" style="stroke: #A80036; stroke-width: 1.0;"/><line style="stroke: #A80036; stroke-width: 1.0;" x1="171.5" x2="274.5" y1="588.2344" y2="588.2344"/><text fill="#000000" font-family="sans-serif" font-size="13" lengthAdjust="spacingAndGlyphs" textLength="30" x="183.5" y="583.3779">m7();</text><!--
@startuml

participant cliente as "cliente:Cliente"
box "delegación" #LightBlue
  participant todo as "todo:Todo"
  participant delegado as "delegado:Parte"
end box

== transmitido ==
cliente -> todo : m2();
todo -> delegado : m2();
== anulado ==
cliente -> todo : m3();
== redefinido ==
cliente -> todo : m4();
todo -> delegado : m4();
== concretos ==
cliente -> todo : m5();
cliente -> todo : m7();
== metodo plantilla ==
cliente -> todo : m6();
todo -> delegado : m6(this);
delegado -> todo : m7();

@enduml

PlantUML version 1.2019.05(Sat Apr 20 18:45:36 CEST 2019)
(GPL source distribution)
Java Runtime: OpenJDK Runtime Environment
JVM: OpenJDK 64-Bit Server VM
Java Version: 1.8.0_222-b10
Operating System: Windows 10
OS Version: 10.0
Default Encoding: windows-1252
Language: es
Country: ES
--></g></svg>