<?xml version="1.0" encoding="UTF-8" standalone="no"?><svg xmlns="http://www.w3.org/2000/svg" xmlns:xlink="http://www.w3.org/1999/xlink" contentScriptType="application/ecmascript" contentStyleType="text/css" height="591px" preserveAspectRatio="none" style="width:284px;height:591px;" version="1.1" viewBox="0 0 284 591" width="284px" zoomAndPan="magnify"><defs><filter height="300%" id="f1fdqalrm6t6tn" width="300%" x="-1" y="-1"><feGaussianBlur result="blurOut" stdDeviation="2.0"/><feColorMatrix in="blurOut" result="blurOut2" type="matrix" values="0 0 0 0 0 0 0 0 0 0 0 0 0 0 0 0 0 0 .4 0"/><feOffset dx="4.0" dy="4.0" in="blurOut2" result="blurOut3"/><feBlend in="SourceGraphic" in2="blurOut3" mode="normal"/></filter></defs><g><line style="stroke: #A80036; stroke-width: 1.0; stroke-dasharray: 5.0,5.0;" x1="61" x2="61" y1="39.6094" y2="550.1797"/><line style="stroke: #A80036; stroke-width: 1.0; stroke-dasharray: 5.0,5.0;" x1="192" x2="192" y1="39.6094" y2="550.1797"/><rect fill="#FEFECE" filter="url(#f1fdqalrm6t6tn)" height="31.6094" style="stroke: #A80036; stroke-width: 1.5;" width="103" x="8" y="3"/><text fill="#000000" font-family="sans-serif" font-size="14" lengthAdjust="spacingAndGlyphs" textLength="89" x="15" y="24.5332">cliente:Cliente</text><rect fill="#FEFECE" filter="url(#f1fdqalrm6t6tn)" height="31.6094" style="stroke: #A80036; stroke-width: 1.5;" width="103" x="8" y="549.1797"/><text fill="#000000" font-family="sans-serif" font-size="14" lengthAdjust="spacingAndGlyphs" textLength="89" x="15" y="570.7129">cliente:Cliente</text><rect fill="#FEFECE" filter="url(#f1fdqalrm6t6tn)" height="31.6094" style="stroke: #A80036; stroke-width: 1.5;" width="130" x="125" y="3"/><text fill="#000000" font-family="sans-serif" font-size="14" lengthAdjust="spacingAndGlyphs" textLength="116" x="132" y="24.5332">derivada:Derivada</text><rect fill="#FEFECE" filter="url(#f1fdqalrm6t6tn)" height="31.6094" style="stroke: #A80036; stroke-width: 1.5;" width="130" x="125" y="549.1797"/><text fill="#000000" font-family="sans-serif" font-size="14" lengthAdjust="spacingAndGlyphs" textLength="116" x="132" y="570.7129">derivada:Derivada</text><rect fill="#EEEEEE" filter="url(#f1fdqalrm6t6tn)" height="3" style="stroke: #EEEEEE; stroke-width: 1.0;" width="269" x="3" y="70.7852"/><line style="stroke: #000000; stroke-width: 1.0;" x1="3" x2="272" y1="70.7852" y2="70.7852"/><line style="stroke: #000000; stroke-width: 1.0;" x1="3" x2="272" y1="73.7852" y2="73.7852"/><rect fill="#EEEEEE" filter="url(#f1fdqalrm6t6tn)" height="24.3516" style="stroke: #000000; stroke-width: 2.0;" width="89" x="93" y="59.6094"/><text fill="#000000" font-family="sans-serif" font-size="13" font-weight="bold" lengthAdjust="spacingAndGlyphs" textLength="71" x="99" y="77.1045">transmitido</text><polygon fill="#A80036" points="180,112.3125,190,116.3125,180,120.3125,184,116.3125" style="stroke: #A80036; stroke-width: 1.0;"/><line style="stroke: #A80036; stroke-width: 1.0;" x1="61.5" x2="186" y1="116.3125" y2="116.3125"/><text fill="#000000" font-family="sans-serif" font-size="13" lengthAdjust="spacingAndGlyphs" textLength="30" x="68.5" y="111.4561">m2();</text><rect fill="#EEEEEE" filter="url(#f1fdqalrm6t6tn)" height="3" style="stroke: #EEEEEE; stroke-width: 1.0;" width="269" x="3" y="145.4883"/><line style="stroke: #000000; stroke-width: 1.0;" x1="3" x2="272" y1="145.4883" y2="145.4883"/><line style="stroke: #000000; stroke-width: 1.0;" x1="3" x2="272" y1="148.4883" y2="148.4883"/><rect fill="#EEEEEE" filter="url(#f1fdqalrm6t6tn)" height="24.3516" style="stroke: #000000; stroke-width: 2.0;" width="70" x="102.5" y="134.3125"/><text fill="#000000" font-family="sans-serif" font-size="13" font-weight="bold" lengthAdjust="spacingAndGlyphs" textLength="52" x="108.5" y="151.8076">anulado</text><polygon fill="#A80036" points="180,187.0156,190,191.0156,180,195.0156,184,191.0156" style="stroke: #A80036; stroke-width: 1.0;"/><line style="stroke: #A80036; stroke-width: 1.0;" x1="61.5" x2="186" y1="191.0156" y2="191.0156"/><text fill="#000000" font-family="sans-serif" font-size="13" lengthAdjust="spacingAndGlyphs" textLength="30" x="68.5" y="186.1592">m3();</text><rect fill="#EEEEEE" filter="url(#f1fdqalrm6t6tn)" height="3" style="stroke: #EEEEEE; stroke-width: 1.0;" width="269" x="3" y="220.1914"/><line style="stroke: #000000; stroke-width: 1.0;" x1="3" x2="272" y1="220.1914" y2="220.1914"/><line style="stroke: #000000; stroke-width: 1.0;" x1="3" x2="272" y1="223.1914" y2="223.1914"/><rect fill="#EEEEEE" filter="url(#f1fdqalrm6t6tn)" height="24.3516" style="stroke: #000000; stroke-width: 2.0;" width="83" x="96" y="209.0156"/><text fill="#000000" font-family="sans-serif" font-size="13" font-weight="bold" lengthAdjust="spacingAndGlyphs" textLength="65" x="102" y="226.5107">redefinido</text><polygon fill="#A80036" points="180,261.7188,190,265.7188,180,269.7188,184,265.7188" style="stroke: #A80036; stroke-width: 1.0;"/><line style="stroke: #A80036; stroke-width: 1.0;" x1="61.5" x2="186" y1="265.7188" y2="265.7188"/><text fill="#000000" font-family="sans-serif" font-size="13" lengthAdjust="spacingAndGlyphs" textLength="30" x="68.5" y="260.8623">m4();</text><line style="stroke: #A80036; stroke-width: 1.0;" x1="192" x2="234" y1="296.0703" y2="296.0703"/><line style="stroke: #A80036; stroke-width: 1.0;" x1="234" x2="234" y1="296.0703" y2="309.0703"/><line style="stroke: #A80036; stroke-width: 1.0;" x1="193" x2="234" y1="309.0703" y2="309.0703"/><polygon fill="#A80036" points="203,305.0703,193,309.0703,203,313.0703,199,309.0703" style="stroke: #A80036; stroke-width: 1.0;"/><text fill="#000000" font-family="sans-serif" font-size="13" lengthAdjust="spacingAndGlyphs" textLength="66" x="199" y="291.2139">super.m4();</text><rect fill="#EEEEEE" filter="url(#f1fdqalrm6t6tn)" height="3" style="stroke: #EEEEEE; stroke-width: 1.0;" width="269" x="3" y="338.2461"/><line style="stroke: #000000; stroke-width: 1.0;" x1="3" x2="272" y1="338.2461" y2="338.2461"/><line style="stroke: #000000; stroke-width: 1.0;" x1="3" x2="272" y1="341.2461" y2="341.2461"/><rect fill="#EEEEEE" filter="url(#f1fdqalrm6t6tn)" height="24.3516" style="stroke: #000000; stroke-width: 2.0;" width="79" x="98" y="327.0703"/><text fill="#000000" font-family="sans-serif" font-size="13" font-weight="bold" lengthAdjust="spacingAndGlyphs" textLength="61" x="104" y="344.5654">concretos</text><polygon fill="#A80036" points="180,379.7734,190,383.7734,180,387.7734,184,383.7734" style="stroke: #A80036; stroke-width: 1.0;"/><line style="stroke: #A80036; stroke-width: 1.0;" x1="61.5" x2="186" y1="383.7734" y2="383.7734"/><text fill="#000000" font-family="sans-serif" font-size="13" lengthAdjust="spacingAndGlyphs" textLength="30" x="68.5" y="378.917">m5();</text><polygon fill="#A80036" points="180,410.125,190,414.125,180,418.125,184,414.125" style="stroke: #A80036; stroke-width: 1.0;"/><line style="stroke: #A80036; stroke-width: 1.0;" x1="61.5" x2="186" y1="414.125" y2="414.125"/><text fill="#000000" font-family="sans-serif" font-size="13" lengthAdjust="spacingAndGlyphs" textLength="30" x="68.5" y="409.2686">m7();</text><rect fill="#EEEEEE" filter="url(#f1fdqalrm6t6tn)" height="3" style="stroke: #EEEEEE; stroke-width: 1.0;" width="269" x="3" y="443.3008"/><line style="stroke: #000000; stroke-width: 1.0;" x1="3" x2="272" y1="443.3008" y2="443.3008"/><line style="stroke: #000000; stroke-width: 1.0;" x1="3" x2="272" y1="446.3008" y2="446.3008"/><rect fill="#EEEEEE" filter="url(#f1fdqalrm6t6tn)" height="24.3516" style="stroke: #000000; stroke-width: 2.0;" width="122" x="76.5" y="432.125"/><text fill="#000000" font-family="sans-serif" font-size="13" font-weight="bold" lengthAdjust="spacingAndGlyphs" textLength="104" x="82.5" y="449.6201">metodo plantilla</text><polygon fill="#A80036" points="180,484.8281,190,488.8281,180,492.8281,184,488.8281" style="stroke: #A80036; stroke-width: 1.0;"/><line style="stroke: #A80036; stroke-width: 1.0;" x1="61.5" x2="186" y1="488.8281" y2="488.8281"/><text fill="#000000" font-family="sans-serif" font-size="13" lengthAdjust="spacingAndGlyphs" textLength="30" x="68.5" y="483.9717">m6();</text><line style="stroke: #A80036; stroke-width: 1.0;" x1="192" x2="234" y1="519.1797" y2="519.1797"/><line style="stroke: #A80036; stroke-width: 1.0;" x1="234" x2="234" y1="519.1797" y2="532.1797"/><line style="stroke: #A80036; stroke-width: 1.0;" x1="193" x2="234" y1="532.1797" y2="532.1797"/><polygon fill="#A80036" points="203,528.1797,193,532.1797,203,536.1797,199,532.1797" style="stroke: #A80036; stroke-width: 1.0;"/><text fill="#000000" font-family="sans-serif" font-size="13" lengthAdjust="spacingAndGlyphs" textLength="55" x="199" y="514.3232">this.m7();</text><!--
@startuml

participant cliente as "cliente:Cliente"
participant derivada as "derivada:Derivada"

== transmitido ==
cliente -> derivada : m2();
== anulado ==
cliente -> derivada : m3();
== redefinido ==
cliente -> derivada : m4();
derivada -> derivada : super.m4();
== concretos ==
cliente -> derivada : m5();
cliente -> derivada : m7();
== metodo plantilla ==
cliente -> derivada : m6();
derivada -> derivada : this.m7();

@enduml

PlantUML version 1.2019.05(Sat Apr 20 18:45:36 CEST 2019)
(GPL source distribution)
Java Runtime: OpenJDK Runtime Environment
JVM: OpenJDK 64-Bit Server VM
Java Version: 1.8.0_222-b10
Operating System: Windows 10
OS Version: 10.0
Default Encoding: windows-1252
Language: es
Country: ES
--></g></svg>