<?xml version="1.0" encoding="UTF-8" standalone="no"?><svg xmlns="http://www.w3.org/2000/svg" xmlns:xlink="http://www.w3.org/1999/xlink" contentScriptType="application/ecmascript" contentStyleType="text/css" height="311px" preserveAspectRatio="none" style="width:513px;height:311px;" version="1.1" viewBox="0 0 513 311" width="513px" zoomAndPan="magnify"><defs><filter height="300%" id="f111j0j24j999g" width="300%" x="-1" y="-1"><feGaussianBlur result="blurOut" stdDeviation="2.0"/><feColorMatrix in="blurOut" result="blurOut2" type="matrix" values="0 0 0 0 0 0 0 0 0 0 0 0 0 0 0 0 0 0 .4 0"/><feOffset dx="4.0" dy="4.0" in="blurOut2" result="blurOut3"/><feBlend in="SourceGraphic" in2="blurOut3" mode="normal"/></filter></defs><g><!--class Filter--><rect fill="#FEFECE" filter="url(#f111j0j24j999g)" height="89.5078" id="Filter" style="stroke: #A80036; stroke-width: 1.5;" width="173" x="6" y="41.5"/><ellipse cx="74.75" cy="57.5" fill="#ADD1B2" rx="11" ry="11" style="stroke: #A80036; stroke-width: 1.0;"/><path d="M77.5156,53.375 Q77.6719,53.1563 77.8594,53.0469 Q78.0469,52.9375 78.2656,52.9375 Q78.6406,52.9375 78.875,53.1953 Q79.1094,53.4531 79.1094,54.0625 L79.1094,55.5156 Q79.1094,56.125 78.875,56.3906 Q78.6406,56.6563 78.2656,56.6563 Q77.9219,56.6563 77.7188,56.4531 Q77.5156,56.2656 77.4063,55.75 Q77.3594,55.3906 77.1719,55.2031 Q76.8438,54.8281 76.2344,54.6094 Q75.625,54.3906 75,54.3906 Q74.2344,54.3906 73.6016,54.7188 Q72.9688,55.0469 72.4766,55.7969 Q71.9844,56.5469 71.9844,57.5781 L71.9844,58.6719 Q71.9844,59.9063 72.875,60.7266 Q73.7656,61.5469 75.3594,61.5469 Q76.2969,61.5469 76.9531,61.2969 Q77.3438,61.1406 77.7656,60.7031 Q78.0313,60.4375 78.1797,60.3594 Q78.3281,60.2813 78.5313,60.2813 Q78.8594,60.2813 79.1172,60.5391 Q79.375,60.7969 79.375,61.1406 Q79.375,61.4844 79.0313,61.8906 Q78.5313,62.4688 77.7344,62.7969 Q76.6563,63.25 75.3594,63.25 Q73.8438,63.25 72.6406,62.625 Q71.6563,62.125 70.9688,61.0547 Q70.2813,59.9844 70.2813,58.7031 L70.2813,57.5469 Q70.2813,56.2188 70.8984,55.0703 Q71.5156,53.9219 72.6094,53.3047 Q73.7031,52.6875 74.9375,52.6875 Q75.6719,52.6875 76.3203,52.8516 Q76.9688,53.0156 77.5156,53.375 Z "/><text fill="#000000" font-family="sans-serif" font-size="12" lengthAdjust="spacingAndGlyphs" textLength="27" x="95.25" y="62.4102">Filter</text><line style="stroke: #A80036; stroke-width: 1.5;" x1="7" x2="178" y1="73.5" y2="73.5"/><rect fill="none" height="6" style="stroke: #C82930; stroke-width: 1.0;" width="6" x="14" y="82.918"/><text fill="#000000" font-family="sans-serif" font-size="11" lengthAdjust="spacingAndGlyphs" textLength="147" x="26" y="88.9189">EntitiesListText entitiesListText</text><line style="stroke: #A80036; stroke-width: 1.5;" x1="7" x2="178" y1="95.3359" y2="95.3359"/><ellipse cx="17" cy="107.7539" fill="#84BE84" rx="3" ry="3" style="stroke: #038048; stroke-width: 1.0;"/><text fill="#000000" font-family="sans-serif" font-size="11" lengthAdjust="spacingAndGlyphs" textLength="31" x="26" y="110.7549">Filter()</text><ellipse cx="17" cy="121.5898" fill="#84BE84" rx="3" ry="3" style="stroke: #038048; stroke-width: 1.0;"/><text fill="#000000" font-family="sans-serif" font-size="11" lengthAdjust="spacingAndGlyphs" textLength="52" x="26" y="124.5908">void filter()</text><path d="M214,8 L214,82.5 L179.194,86.5 L214,90.5 L214,165.1641 A0,0 0 0 0 214,165.1641 L501,165.1641 A0,0 0 0 0 501,165.1641 L501,18 L491,8 L214,8 A0,0 0 0 0 214,8 " fill="#FBFB77" filter="url(#f111j0j24j999g)" style="stroke: #A80036; stroke-width: 1.0;"/><path d="M491,8 L491,18 L501,18 L491,8 " fill="#FBFB77" style="stroke: #A80036; stroke-width: 1.0;"/><text fill="#000000" font-family="sans-serif" font-size="13" lengthAdjust="spacingAndGlyphs" textLength="79" x="220" y="26.4951">public Filter(){</text><text fill="#000000" font-family="sans-serif" font-size="13" lengthAdjust="spacingAndGlyphs" textLength="258" x="228" y="42.8467">this.entitiesListText = new EntitiesListText();</text><text fill="#000000" font-family="sans-serif" font-size="13" lengthAdjust="spacingAndGlyphs" textLength="4" x="220" y="59.1982">}</text><text fill="#000000" font-family="sans-serif" font-size="13" lengthAdjust="spacingAndGlyphs" textLength="100" x="220" y="75.5498">public void filter(){</text><text fill="#000000" font-family="sans-serif" font-size="13" lengthAdjust="spacingAndGlyphs" textLength="197" x="228" y="91.9014">while (entitiesListText.hasNext()) {</text><text fill="#000000" font-family="sans-serif" font-size="13" lengthAdjust="spacingAndGlyphs" textLength="215" x="236" y="108.2529">Entity entity = entitiesListText.next();</text><text fill="#000000" font-family="sans-serif" font-size="13" lengthAdjust="spacingAndGlyphs" textLength="12" x="236" y="124.6045">...</text><text fill="#000000" font-family="sans-serif" font-size="13" lengthAdjust="spacingAndGlyphs" textLength="4" x="228" y="140.9561">}</text><text fill="#000000" font-family="sans-serif" font-size="13" lengthAdjust="spacingAndGlyphs" textLength="4" x="220" y="157.3076">}</text><!--class EntitiesListText--><rect fill="#FEFECE" filter="url(#f111j0j24j999g)" height="75.6719" id="EntitiesListText" style="stroke: #A80036; stroke-width: 1.5;" width="115" x="35" y="225"/><ellipse cx="50" cy="241" fill="#ADD1B2" rx="11" ry="11" style="stroke: #A80036; stroke-width: 1.0;"/><path d="M52.7656,236.875 Q52.9219,236.6563 53.1094,236.5469 Q53.2969,236.4375 53.5156,236.4375 Q53.8906,236.4375 54.125,236.6953 Q54.3594,236.9531 54.3594,237.5625 L54.3594,239.0156 Q54.3594,239.625 54.125,239.8906 Q53.8906,240.1563 53.5156,240.1563 Q53.1719,240.1563 52.9688,239.9531 Q52.7656,239.7656 52.6563,239.25 Q52.6094,238.8906 52.4219,238.7031 Q52.0938,238.3281 51.4844,238.1094 Q50.875,237.8906 50.25,237.8906 Q49.4844,237.8906 48.8516,238.2188 Q48.2188,238.5469 47.7266,239.2969 Q47.2344,240.0469 47.2344,241.0781 L47.2344,242.1719 Q47.2344,243.4063 48.125,244.2266 Q49.0156,245.0469 50.6094,245.0469 Q51.5469,245.0469 52.2031,244.7969 Q52.5938,244.6406 53.0156,244.2031 Q53.2813,243.9375 53.4297,243.8594 Q53.5781,243.7813 53.7813,243.7813 Q54.1094,243.7813 54.3672,244.0391 Q54.625,244.2969 54.625,244.6406 Q54.625,244.9844 54.2813,245.3906 Q53.7813,245.9688 52.9844,246.2969 Q51.9063,246.75 50.6094,246.75 Q49.0938,246.75 47.8906,246.125 Q46.9063,245.625 46.2188,244.5547 Q45.5313,243.4844 45.5313,242.2031 L45.5313,241.0469 Q45.5313,239.7188 46.1484,238.5703 Q46.7656,237.4219 47.8594,236.8047 Q48.9531,236.1875 50.1875,236.1875 Q50.9219,236.1875 51.5703,236.3516 Q52.2188,236.5156 52.7656,236.875 Z "/><text fill="#000000" font-family="sans-serif" font-size="12" lengthAdjust="spacingAndGlyphs" textLength="83" x="64" y="245.9102">EntitiesListText</text><line style="stroke: #A80036; stroke-width: 1.5;" x1="36" x2="149" y1="257" y2="257"/><line style="stroke: #A80036; stroke-width: 1.5;" x1="36" x2="149" y1="265" y2="265"/><ellipse cx="46" cy="277.418" fill="#84BE84" rx="3" ry="3" style="stroke: #038048; stroke-width: 1.0;"/><text fill="#000000" font-family="sans-serif" font-size="11" lengthAdjust="spacingAndGlyphs" textLength="89" x="55" y="280.4189">boolean hasNext()</text><ellipse cx="46" cy="291.2539" fill="#84BE84" rx="3" ry="3" style="stroke: #038048; stroke-width: 1.0;"/><text fill="#000000" font-family="sans-serif" font-size="11" lengthAdjust="spacingAndGlyphs" textLength="58" x="55" y="294.2549">Entity next()</text><!--link Filter to EntitiesListText--><path d="M92.5,131.534 C92.5,158.51 92.5,192.861 92.5,219.543 " fill="none" id="Filter-EntitiesListText" style="stroke: #A80036; stroke-width: 1.0;"/><polygon fill="#A80036" points="92.5,224.7727,96.5,215.7727,92.5,219.7727,88.5,215.7727,92.5,224.7727" style="stroke: #A80036; stroke-width: 1.0;"/><!--
@startuml

class Filter{
- EntitiesListText entitiesListText
+ Filter()
+ void filter()
}
note right
public Filter(){
  this.entitiesListText = new EntitiesListText();
}
public void filter(){
  while (entitiesListText.hasNext()) {
    Entity entity = entitiesListText.next();
    ...
  }
}
endnote

Filter -down-> EntitiesListText

class EntitiesListText {
+ boolean hasNext()
+ Entity next()
}
@enduml

PlantUML version 1.2019.05(Sat Apr 20 18:45:36 CEST 2019)
(GPL source distribution)
Java Runtime: OpenJDK Runtime Environment
JVM: OpenJDK 64-Bit Server VM
Java Version: 1.8.0_222-b10
Operating System: Windows 10
OS Version: 10.0
Default Encoding: windows-1252
Language: es
Country: ES
--></g></svg>