<?xml version="1.0" encoding="UTF-8" standalone="no"?><svg xmlns="http://www.w3.org/2000/svg" xmlns:xlink="http://www.w3.org/1999/xlink" contentScriptType="application/ecmascript" contentStyleType="text/css" height="94px" preserveAspectRatio="none" style="width:264px;height:94px;" version="1.1" viewBox="0 0 264 94" width="264px" zoomAndPan="magnify"><defs><filter height="300%" id="f14b5d82cec13v" width="300%" x="-1" y="-1"><feGaussianBlur result="blurOut" stdDeviation="2.0"/><feColorMatrix in="blurOut" result="blurOut2" type="matrix" values="0 0 0 0 0 0 0 0 0 0 0 0 0 0 0 0 0 0 .4 0"/><feOffset dx="4.0" dy="4.0" in="blurOut2" result="blurOut3"/><feBlend in="SourceGraphic" in2="blurOut3" mode="normal"/></filter></defs><g><!--class Lamp--><rect fill="#FEFECE" filter="url(#f14b5d82cec13v)" height="75.6719" id="Lamp" style="stroke: #A80036; stroke-width: 1.5;" width="96" x="157" y="8"/><ellipse cx="186.4" cy="24" fill="#ADD1B2" rx="11" ry="11" style="stroke: #A80036; stroke-width: 1.0;"/><path d="M189.1656,19.875 Q189.3219,19.6563 189.5094,19.5469 Q189.6969,19.4375 189.9156,19.4375 Q190.2906,19.4375 190.525,19.6953 Q190.7594,19.9531 190.7594,20.5625 L190.7594,22.0156 Q190.7594,22.625 190.525,22.8906 Q190.2906,23.1563 189.9156,23.1563 Q189.5719,23.1563 189.3688,22.9531 Q189.1656,22.7656 189.0563,22.25 Q189.0094,21.8906 188.8219,21.7031 Q188.4938,21.3281 187.8844,21.1094 Q187.275,20.8906 186.65,20.8906 Q185.8844,20.8906 185.2516,21.2188 Q184.6188,21.5469 184.1266,22.2969 Q183.6344,23.0469 183.6344,24.0781 L183.6344,25.1719 Q183.6344,26.4063 184.525,27.2266 Q185.4156,28.0469 187.0094,28.0469 Q187.9469,28.0469 188.6031,27.7969 Q188.9938,27.6406 189.4156,27.2031 Q189.6813,26.9375 189.8297,26.8594 Q189.9781,26.7813 190.1813,26.7813 Q190.5094,26.7813 190.7672,27.0391 Q191.025,27.2969 191.025,27.6406 Q191.025,27.9844 190.6813,28.3906 Q190.1813,28.9688 189.3844,29.2969 Q188.3063,29.75 187.0094,29.75 Q185.4938,29.75 184.2906,29.125 Q183.3063,28.625 182.6188,27.5547 Q181.9313,26.4844 181.9313,25.2031 L181.9313,24.0469 Q181.9313,22.7188 182.5484,21.5703 Q183.1656,20.4219 184.2594,19.8047 Q185.3531,19.1875 186.5875,19.1875 Q187.3219,19.1875 187.9703,19.3516 Q188.6188,19.5156 189.1656,19.875 Z "/><text fill="#000000" font-family="sans-serif" font-size="12" lengthAdjust="spacingAndGlyphs" textLength="32" x="203.6" y="28.9102">Lamp</text><line style="stroke: #A80036; stroke-width: 1.5;" x1="158" x2="252" y1="40" y2="40"/><line style="stroke: #A80036; stroke-width: 1.5;" x1="158" x2="252" y1="48" y2="48"/><ellipse cx="168" cy="60.418" fill="#84BE84" rx="3" ry="3" style="stroke: #038048; stroke-width: 1.0;"/><text fill="#000000" font-family="sans-serif" font-size="11" lengthAdjust="spacingAndGlyphs" textLength="70" x="177" y="63.4189">void TurnOn();</text><ellipse cx="168" cy="74.2539" fill="#84BE84" rx="3" ry="3" style="stroke: #038048; stroke-width: 1.0;"/><text fill="#000000" font-family="sans-serif" font-size="11" lengthAdjust="spacingAndGlyphs" textLength="69" x="177" y="77.2549">void TurnOff()</text><!--class Button--><rect fill="#FEFECE" filter="url(#f14b5d82cec13v)" height="75.6719" id="Button" style="stroke: #A80036; stroke-width: 1.5;" width="116" x="6" y="8"/><ellipse cx="43.05" cy="24" fill="#ADD1B2" rx="11" ry="11" style="stroke: #A80036; stroke-width: 1.0;"/><path d="M45.8156,19.875 Q45.9719,19.6563 46.1594,19.5469 Q46.3469,19.4375 46.5656,19.4375 Q46.9406,19.4375 47.175,19.6953 Q47.4094,19.9531 47.4094,20.5625 L47.4094,22.0156 Q47.4094,22.625 47.175,22.8906 Q46.9406,23.1563 46.5656,23.1563 Q46.2219,23.1563 46.0188,22.9531 Q45.8156,22.7656 45.7063,22.25 Q45.6594,21.8906 45.4719,21.7031 Q45.1438,21.3281 44.5344,21.1094 Q43.925,20.8906 43.3,20.8906 Q42.5344,20.8906 41.9016,21.2188 Q41.2688,21.5469 40.7766,22.2969 Q40.2844,23.0469 40.2844,24.0781 L40.2844,25.1719 Q40.2844,26.4063 41.175,27.2266 Q42.0656,28.0469 43.6594,28.0469 Q44.5969,28.0469 45.2531,27.7969 Q45.6438,27.6406 46.0656,27.2031 Q46.3313,26.9375 46.4797,26.8594 Q46.6281,26.7813 46.8313,26.7813 Q47.1594,26.7813 47.4172,27.0391 Q47.675,27.2969 47.675,27.6406 Q47.675,27.9844 47.3313,28.3906 Q46.8313,28.9688 46.0344,29.2969 Q44.9563,29.75 43.6594,29.75 Q42.1438,29.75 40.9406,29.125 Q39.9563,28.625 39.2688,27.5547 Q38.5813,26.4844 38.5813,25.2031 L38.5813,24.0469 Q38.5813,22.7188 39.1984,21.5703 Q39.8156,20.4219 40.9094,19.8047 Q42.0031,19.1875 43.2375,19.1875 Q43.9719,19.1875 44.6203,19.3516 Q45.2688,19.5156 45.8156,19.875 Z "/><text fill="#000000" font-family="sans-serif" font-size="12" lengthAdjust="spacingAndGlyphs" textLength="35" x="61.95" y="28.9102">Button</text><line style="stroke: #A80036; stroke-width: 1.5;" x1="7" x2="121" y1="40" y2="40"/><line style="stroke: #A80036; stroke-width: 1.5;" x1="7" x2="121" y1="48" y2="48"/><ellipse cx="17" cy="60.418" fill="#84BE84" rx="3" ry="3" style="stroke: #038048; stroke-width: 1.0;"/><text fill="#000000" font-family="sans-serif" font-size="11" lengthAdjust="spacingAndGlyphs" textLength="90" x="26" y="63.4189">Button(Lamp lamp)</text><ellipse cx="17" cy="74.2539" fill="#84BE84" rx="3" ry="3" style="stroke: #038048; stroke-width: 1.0;"/><text fill="#000000" font-family="sans-serif" font-size="11" lengthAdjust="spacingAndGlyphs" textLength="65" x="26" y="77.2549">void detect(){</text><!--link Button to Lamp--><path d="M135.371,46 C138.155,46 140.939,46 143.723,46 " fill="none" id="Button-Lamp" style="stroke: #A80036; stroke-width: 1.0;"/><polygon fill="#A80036" points="156.754,46,147.754,42,151.754,46,147.754,50,156.754,46" style="stroke: #A80036; stroke-width: 1.0;"/><line style="stroke: #A80036; stroke-width: 1.0;" x1="151.754" x2="143.754" y1="46" y2="45.9999"/><polygon fill="#FFFFFF" points="122.107,46,128.107,50,134.107,46,128.107,42,122.107,46" style="stroke: #A80036; stroke-width: 1.0;"/><!--
@startuml

class Lamp {
+ void TurnOn();
+ void TurnOff()
}

class Button {
+ Button(Lamp lamp)
+ void detect(){
}

Button o-right-> Lamp

@enduml

PlantUML version 1.2019.05(Sat Apr 20 18:45:36 CEST 2019)
(GPL source distribution)
Java Runtime: OpenJDK Runtime Environment
JVM: OpenJDK 64-Bit Server VM
Java Version: 1.8.0_222-b10
Operating System: Windows 10
OS Version: 10.0
Default Encoding: windows-1252
Language: es
Country: ES
--></g></svg>