<?xml version="1.0" encoding="UTF-8" standalone="no"?><svg xmlns="http://www.w3.org/2000/svg" xmlns:xlink="http://www.w3.org/1999/xlink" contentScriptType="application/ecmascript" contentStyleType="text/css" height="165px" preserveAspectRatio="none" style="width:431px;height:165px;" version="1.1" viewBox="0 0 431 165" width="431px" zoomAndPan="magnify"><defs><filter height="300%" id="fqfchp6axl3s4" width="300%" x="-1" y="-1"><feGaussianBlur result="blurOut" stdDeviation="2.0"/><feColorMatrix in="blurOut" result="blurOut2" type="matrix" values="0 0 0 0 0 0 0 0 0 0 0 0 0 0 0 0 0 0 .4 0"/><feOffset dx="4.0" dy="4.0" in="blurOut2" result="blurOut3"/><feBlend in="SourceGraphic" in2="blurOut3" mode="normal"/></filter></defs><g><!--cluster clases--><polygon fill="#FFFFFF" filter="url(#fqfchp6axl3s4)" points="22,24,73,24,80,47.6094,278,47.6094,278,138,22,138,22,24" style="stroke: #000000; stroke-width: 1.5;"/><line style="stroke: #000000; stroke-width: 1.5;" x1="22" x2="80" y1="47.6094" y2="47.6094"/><text fill="#000000" font-family="sans-serif" font-size="14" font-weight="bold" lengthAdjust="spacingAndGlyphs" textLength="45" x="26" y="40.5332">clases</text><!--class A--><rect fill="#FEFECE" filter="url(#fqfchp6axl3s4)" height="61.8359" id="A" style="stroke: #A80036; stroke-width: 1.5;" width="51" x="124.5" y="60"/><ellipse cx="144.9" cy="76" fill="#ADD1B2" rx="11" ry="11" style="stroke: #A80036; stroke-width: 1.0;"/><path d="M147.6656,71.875 Q147.8219,71.6563 148.0094,71.5469 Q148.1969,71.4375 148.4156,71.4375 Q148.7906,71.4375 149.025,71.6953 Q149.2594,71.9531 149.2594,72.5625 L149.2594,74.0156 Q149.2594,74.625 149.025,74.8906 Q148.7906,75.1563 148.4156,75.1563 Q148.0719,75.1563 147.8688,74.9531 Q147.6656,74.7656 147.5563,74.25 Q147.5094,73.8906 147.3219,73.7031 Q146.9938,73.3281 146.3844,73.1094 Q145.775,72.8906 145.15,72.8906 Q144.3844,72.8906 143.7516,73.2188 Q143.1188,73.5469 142.6266,74.2969 Q142.1344,75.0469 142.1344,76.0781 L142.1344,77.1719 Q142.1344,78.4063 143.025,79.2266 Q143.9156,80.0469 145.5094,80.0469 Q146.4469,80.0469 147.1031,79.7969 Q147.4938,79.6406 147.9156,79.2031 Q148.1813,78.9375 148.3297,78.8594 Q148.4781,78.7813 148.6813,78.7813 Q149.0094,78.7813 149.2672,79.0391 Q149.525,79.2969 149.525,79.6406 Q149.525,79.9844 149.1813,80.3906 Q148.6813,80.9688 147.8844,81.2969 Q146.8063,81.75 145.5094,81.75 Q143.9938,81.75 142.7906,81.125 Q141.8063,80.625 141.1188,79.5547 Q140.4313,78.4844 140.4313,77.2031 L140.4313,76.0469 Q140.4313,74.7188 141.0484,73.5703 Q141.6656,72.4219 142.7594,71.8047 Q143.8531,71.1875 145.0875,71.1875 Q145.8219,71.1875 146.4703,71.3516 Q147.1188,71.5156 147.6656,71.875 Z "/><text fill="#000000" font-family="sans-serif" font-size="12" lengthAdjust="spacingAndGlyphs" textLength="7" x="160.1" y="80.9102">A</text><line style="stroke: #A80036; stroke-width: 1.5;" x1="125.5" x2="174.5" y1="92" y2="92"/><line style="stroke: #A80036; stroke-width: 1.5;" x1="125.5" x2="174.5" y1="100" y2="100"/><text fill="#000000" font-family="sans-serif" font-size="11" lengthAdjust="spacingAndGlyphs" textLength="39" x="130.5" y="115.4189">void m()</text><!--class B--><rect fill="#FEFECE" filter="url(#fqfchp6axl3s4)" height="61.8359" id="B" style="stroke: #A80036; stroke-width: 1.5;" width="51" x="38.5" y="60"/><ellipse cx="58.45" cy="76" fill="#ADD1B2" rx="11" ry="11" style="stroke: #A80036; stroke-width: 1.0;"/><path d="M61.2156,71.875 Q61.3719,71.6563 61.5594,71.5469 Q61.7469,71.4375 61.9656,71.4375 Q62.3406,71.4375 62.575,71.6953 Q62.8094,71.9531 62.8094,72.5625 L62.8094,74.0156 Q62.8094,74.625 62.575,74.8906 Q62.3406,75.1563 61.9656,75.1563 Q61.6219,75.1563 61.4188,74.9531 Q61.2156,74.7656 61.1063,74.25 Q61.0594,73.8906 60.8719,73.7031 Q60.5438,73.3281 59.9344,73.1094 Q59.325,72.8906 58.7,72.8906 Q57.9344,72.8906 57.3016,73.2188 Q56.6688,73.5469 56.1766,74.2969 Q55.6844,75.0469 55.6844,76.0781 L55.6844,77.1719 Q55.6844,78.4063 56.575,79.2266 Q57.4656,80.0469 59.0594,80.0469 Q59.9969,80.0469 60.6531,79.7969 Q61.0438,79.6406 61.4656,79.2031 Q61.7313,78.9375 61.8797,78.8594 Q62.0281,78.7813 62.2313,78.7813 Q62.5594,78.7813 62.8172,79.0391 Q63.075,79.2969 63.075,79.6406 Q63.075,79.9844 62.7313,80.3906 Q62.2313,80.9688 61.4344,81.2969 Q60.3563,81.75 59.0594,81.75 Q57.5438,81.75 56.3406,81.125 Q55.3563,80.625 54.6688,79.5547 Q53.9813,78.4844 53.9813,77.2031 L53.9813,76.0469 Q53.9813,74.7188 54.5984,73.5703 Q55.2156,72.4219 56.3094,71.8047 Q57.4031,71.1875 58.6375,71.1875 Q59.3719,71.1875 60.0203,71.3516 Q60.6688,71.5156 61.2156,71.875 Z "/><text fill="#000000" font-family="sans-serif" font-size="12" lengthAdjust="spacingAndGlyphs" textLength="8" x="73.55" y="80.9102">B</text><line style="stroke: #A80036; stroke-width: 1.5;" x1="39.5" x2="88.5" y1="92" y2="92"/><line style="stroke: #A80036; stroke-width: 1.5;" x1="39.5" x2="88.5" y1="100" y2="100"/><text fill="#000000" font-family="sans-serif" font-size="11" lengthAdjust="spacingAndGlyphs" textLength="39" x="44.5" y="115.4189">void m()</text><!--class C--><rect fill="#FEFECE" filter="url(#fqfchp6axl3s4)" height="61.8359" id="C" style="stroke: #A80036; stroke-width: 1.5;" width="51" x="210.5" y="60"/><ellipse cx="230" cy="76" fill="#ADD1B2" rx="11" ry="11" style="stroke: #A80036; stroke-width: 1.0;"/><path d="M232.7656,71.875 Q232.9219,71.6563 233.1094,71.5469 Q233.2969,71.4375 233.5156,71.4375 Q233.8906,71.4375 234.125,71.6953 Q234.3594,71.9531 234.3594,72.5625 L234.3594,74.0156 Q234.3594,74.625 234.125,74.8906 Q233.8906,75.1563 233.5156,75.1563 Q233.1719,75.1563 232.9688,74.9531 Q232.7656,74.7656 232.6563,74.25 Q232.6094,73.8906 232.4219,73.7031 Q232.0938,73.3281 231.4844,73.1094 Q230.875,72.8906 230.25,72.8906 Q229.4844,72.8906 228.8516,73.2188 Q228.2188,73.5469 227.7266,74.2969 Q227.2344,75.0469 227.2344,76.0781 L227.2344,77.1719 Q227.2344,78.4063 228.125,79.2266 Q229.0156,80.0469 230.6094,80.0469 Q231.5469,80.0469 232.2031,79.7969 Q232.5938,79.6406 233.0156,79.2031 Q233.2813,78.9375 233.4297,78.8594 Q233.5781,78.7813 233.7813,78.7813 Q234.1094,78.7813 234.3672,79.0391 Q234.625,79.2969 234.625,79.6406 Q234.625,79.9844 234.2813,80.3906 Q233.7813,80.9688 232.9844,81.2969 Q231.9063,81.75 230.6094,81.75 Q229.0938,81.75 227.8906,81.125 Q226.9063,80.625 226.2188,79.5547 Q225.5313,78.4844 225.5313,77.2031 L225.5313,76.0469 Q225.5313,74.7188 226.1484,73.5703 Q226.7656,72.4219 227.8594,71.8047 Q228.9531,71.1875 230.1875,71.1875 Q230.9219,71.1875 231.5703,71.3516 Q232.2188,71.5156 232.7656,71.875 Z "/><text fill="#000000" font-family="sans-serif" font-size="12" lengthAdjust="spacingAndGlyphs" textLength="9" x="245" y="80.9102">C</text><line style="stroke: #A80036; stroke-width: 1.5;" x1="211.5" x2="260.5" y1="92" y2="92"/><line style="stroke: #A80036; stroke-width: 1.5;" x1="211.5" x2="260.5" y1="100" y2="100"/><text fill="#000000" font-family="sans-serif" font-size="11" lengthAdjust="spacingAndGlyphs" textLength="39" x="216.5" y="115.4189">void m()</text><path d="M297,29 L297,87 L261.734,91 L297,95 L297,153.4609 A0,0 0 0 0 297,153.4609 L419,153.4609 A0,0 0 0 0 419,153.4609 L419,39 L409,29 L297,29 A0,0 0 0 0 297,29 " fill="#FBFB77" filter="url(#fqfchp6axl3s4)" style="stroke: #A80036; stroke-width: 1.0;"/><path d="M409,29 L409,39 L419,39 L409,29 " fill="#FBFB77" style="stroke: #A80036; stroke-width: 1.0;"/><text fill="#000000" font-family="sans-serif" font-size="13" lengthAdjust="spacingAndGlyphs" textLength="93" x="303" y="47.4951">A oA = new A();</text><text fill="#000000" font-family="sans-serif" font-size="13" lengthAdjust="spacingAndGlyphs" textLength="93" x="303" y="63.8467">B oB = new B();</text><text fill="#000000" font-family="sans-serif" font-size="13" lengthAdjust="spacingAndGlyphs" textLength="93" x="303" y="80.1982">C oC = new C();</text><text fill="#000000" font-family="sans-serif" font-size="13" lengthAdjust="spacingAndGlyphs" textLength="0" x="307" y="96.5498"/><text fill="#000000" font-family="sans-serif" font-size="13" lengthAdjust="spacingAndGlyphs" textLength="101" x="303" y="112.9014">oA.m(); // m de A</text><text fill="#000000" font-family="sans-serif" font-size="13" lengthAdjust="spacingAndGlyphs" textLength="101" x="303" y="129.2529">oB.m(); // m de B</text><text fill="#000000" font-family="sans-serif" font-size="13" lengthAdjust="spacingAndGlyphs" textLength="101" x="303" y="145.6045">oC.m(); // m de C</text><!--
@startuml

package clases {

class A {
void m()
}

class B{
void m()
}

class C{
void m()
}

}
note right
A oA = new A();
B oB = new B();
C oC = new C();

oA.m(); // m de A
oB.m(); // m de B
oC.m(); // m de C
endnote

@enduml

PlantUML version 1.2019.05(Sat Apr 20 18:45:36 CEST 2019)
(GPL source distribution)
Java Runtime: OpenJDK Runtime Environment
JVM: OpenJDK 64-Bit Server VM
Java Version: 1.8.0_222-b10
Operating System: Windows 10
OS Version: 10.0
Default Encoding: windows-1252
Language: es
Country: ES
--></g></svg>