<?xml version="1.0" encoding="UTF-8" standalone="no"?><svg xmlns="http://www.w3.org/2000/svg" xmlns:xlink="http://www.w3.org/1999/xlink" contentScriptType="application/ecmascript" contentStyleType="text/css" height="404px" preserveAspectRatio="none" style="width:468px;height:404px;" version="1.1" viewBox="0 0 468 404" width="468px" zoomAndPan="magnify"><defs><filter height="300%" id="f127suf7i37c3r" width="300%" x="-1" y="-1"><feGaussianBlur result="blurOut" stdDeviation="2.0"/><feColorMatrix in="blurOut" result="blurOut2" type="matrix" values="0 0 0 0 0 0 0 0 0 0 0 0 0 0 0 0 0 0 .4 0"/><feOffset dx="4.0" dy="4.0" in="blurOut2" result="blurOut3"/><feBlend in="SourceGraphic" in2="blurOut3" mode="normal"/></filter></defs><g><!--cluster clases--><polygon fill="#FFFFFF" filter="url(#f127suf7i37c3r)" points="22,62.5,73,62.5,80,86.1094,300,86.1094,300,392,22,392,22,62.5" style="stroke: #000000; stroke-width: 1.5;"/><line style="stroke: #000000; stroke-width: 1.5;" x1="22" x2="80" y1="86.1094" y2="86.1094"/><text fill="#000000" font-family="sans-serif" font-size="14" font-weight="bold" lengthAdjust="spacingAndGlyphs" textLength="45" x="26" y="79.0332">clases</text><!--class X--><rect fill="#FEFECE" filter="url(#f127suf7i37c3r)" height="117.1797" id="X" style="stroke: #A80036; stroke-width: 1.5;" width="72" x="38" y="98.5"/><ellipse cx="67.85" cy="114.5" fill="#ADD1B2" rx="11" ry="11" style="stroke: #A80036; stroke-width: 1.0;"/><path d="M70.6156,110.375 Q70.7719,110.1563 70.9594,110.0469 Q71.1469,109.9375 71.3656,109.9375 Q71.7406,109.9375 71.975,110.1953 Q72.2094,110.4531 72.2094,111.0625 L72.2094,112.5156 Q72.2094,113.125 71.975,113.3906 Q71.7406,113.6563 71.3656,113.6563 Q71.0219,113.6563 70.8188,113.4531 Q70.6156,113.2656 70.5063,112.75 Q70.4594,112.3906 70.2719,112.2031 Q69.9438,111.8281 69.3344,111.6094 Q68.725,111.3906 68.1,111.3906 Q67.3344,111.3906 66.7016,111.7188 Q66.0688,112.0469 65.5766,112.7969 Q65.0844,113.5469 65.0844,114.5781 L65.0844,115.6719 Q65.0844,116.9063 65.975,117.7266 Q66.8656,118.5469 68.4594,118.5469 Q69.3969,118.5469 70.0531,118.2969 Q70.4438,118.1406 70.8656,117.7031 Q71.1313,117.4375 71.2797,117.3594 Q71.4281,117.2813 71.6313,117.2813 Q71.9594,117.2813 72.2172,117.5391 Q72.475,117.7969 72.475,118.1406 Q72.475,118.4844 72.1313,118.8906 Q71.6313,119.4688 70.8344,119.7969 Q69.7563,120.25 68.4594,120.25 Q66.9438,120.25 65.7406,119.625 Q64.7563,119.125 64.0688,118.0547 Q63.3812,116.9844 63.3812,115.7031 L63.3812,114.5469 Q63.3812,113.2188 63.9984,112.0703 Q64.6156,110.9219 65.7094,110.3047 Q66.8031,109.6875 68.0375,109.6875 Q68.7719,109.6875 69.4203,109.8516 Q70.0688,110.0156 70.6156,110.375 Z "/><text fill="#000000" font-family="sans-serif" font-size="12" lengthAdjust="spacingAndGlyphs" textLength="7" x="85.15" y="119.4102">X</text><line style="stroke: #A80036; stroke-width: 1.5;" x1="39" x2="109" y1="130.5" y2="130.5"/><line style="stroke: #A80036; stroke-width: 1.5;" x1="39" x2="109" y1="138.5" y2="138.5"/><text fill="#000000" font-family="sans-serif" font-size="11" lengthAdjust="spacingAndGlyphs" textLength="39" x="44" y="153.9189">void m()</text><text fill="#000000" font-family="sans-serif" font-size="11" lengthAdjust="spacingAndGlyphs" textLength="35" x="44" y="167.7549">A m(A)</text><text fill="#000000" font-family="sans-serif" font-size="11" lengthAdjust="spacingAndGlyphs" textLength="60" x="44" y="181.5908">void m(A, C)</text><text fill="#000000" font-family="sans-serif" font-size="11" lengthAdjust="spacingAndGlyphs" textLength="47" x="44" y="195.4268">A m(C, B)</text><text fill="#000000" font-family="sans-serif" font-size="11" lengthAdjust="spacingAndGlyphs" textLength="33" x="44" y="209.2627">B m(B)</text><!--class A--><rect fill="#FEFECE" filter="url(#f127suf7i37c3r)" height="48" id="A" style="stroke: #A80036; stroke-width: 1.5;" width="39" x="145.5" y="133"/><ellipse cx="160.5" cy="149" fill="#ADD1B2" rx="11" ry="11" style="stroke: #A80036; stroke-width: 1.0;"/><path d="M163.2656,144.875 Q163.4219,144.6563 163.6094,144.5469 Q163.7969,144.4375 164.0156,144.4375 Q164.3906,144.4375 164.625,144.6953 Q164.8594,144.9531 164.8594,145.5625 L164.8594,147.0156 Q164.8594,147.625 164.625,147.8906 Q164.3906,148.1563 164.0156,148.1563 Q163.6719,148.1563 163.4688,147.9531 Q163.2656,147.7656 163.1563,147.25 Q163.1094,146.8906 162.9219,146.7031 Q162.5938,146.3281 161.9844,146.1094 Q161.375,145.8906 160.75,145.8906 Q159.9844,145.8906 159.3516,146.2188 Q158.7188,146.5469 158.2266,147.2969 Q157.7344,148.0469 157.7344,149.0781 L157.7344,150.1719 Q157.7344,151.4063 158.625,152.2266 Q159.5156,153.0469 161.1094,153.0469 Q162.0469,153.0469 162.7031,152.7969 Q163.0938,152.6406 163.5156,152.2031 Q163.7813,151.9375 163.9297,151.8594 Q164.0781,151.7813 164.2813,151.7813 Q164.6094,151.7813 164.8672,152.0391 Q165.125,152.2969 165.125,152.6406 Q165.125,152.9844 164.7813,153.3906 Q164.2813,153.9688 163.4844,154.2969 Q162.4063,154.75 161.1094,154.75 Q159.5938,154.75 158.3906,154.125 Q157.4063,153.625 156.7188,152.5547 Q156.0313,151.4844 156.0313,150.2031 L156.0313,149.0469 Q156.0313,147.7188 156.6484,146.5703 Q157.2656,145.4219 158.3594,144.8047 Q159.4531,144.1875 160.6875,144.1875 Q161.4219,144.1875 162.0703,144.3516 Q162.7188,144.5156 163.2656,144.875 Z "/><text fill="#000000" font-family="sans-serif" font-size="12" lengthAdjust="spacingAndGlyphs" textLength="7" x="174.5" y="153.9102">A</text><line style="stroke: #A80036; stroke-width: 1.5;" x1="146.5" x2="183.5" y1="165" y2="165"/><line style="stroke: #A80036; stroke-width: 1.5;" x1="146.5" x2="183.5" y1="173" y2="173"/><!--class B--><rect fill="#FEFECE" filter="url(#f127suf7i37c3r)" height="48" id="B" style="stroke: #A80036; stroke-width: 1.5;" width="40" x="220" y="133"/><ellipse cx="235" cy="149" fill="#ADD1B2" rx="11" ry="11" style="stroke: #A80036; stroke-width: 1.0;"/><path d="M237.7656,144.875 Q237.9219,144.6563 238.1094,144.5469 Q238.2969,144.4375 238.5156,144.4375 Q238.8906,144.4375 239.125,144.6953 Q239.3594,144.9531 239.3594,145.5625 L239.3594,147.0156 Q239.3594,147.625 239.125,147.8906 Q238.8906,148.1563 238.5156,148.1563 Q238.1719,148.1563 237.9688,147.9531 Q237.7656,147.7656 237.6563,147.25 Q237.6094,146.8906 237.4219,146.7031 Q237.0938,146.3281 236.4844,146.1094 Q235.875,145.8906 235.25,145.8906 Q234.4844,145.8906 233.8516,146.2188 Q233.2188,146.5469 232.7266,147.2969 Q232.2344,148.0469 232.2344,149.0781 L232.2344,150.1719 Q232.2344,151.4063 233.125,152.2266 Q234.0156,153.0469 235.6094,153.0469 Q236.5469,153.0469 237.2031,152.7969 Q237.5938,152.6406 238.0156,152.2031 Q238.2813,151.9375 238.4297,151.8594 Q238.5781,151.7813 238.7813,151.7813 Q239.1094,151.7813 239.3672,152.0391 Q239.625,152.2969 239.625,152.6406 Q239.625,152.9844 239.2813,153.3906 Q238.7813,153.9688 237.9844,154.2969 Q236.9063,154.75 235.6094,154.75 Q234.0938,154.75 232.8906,154.125 Q231.9063,153.625 231.2188,152.5547 Q230.5313,151.4844 230.5313,150.2031 L230.5313,149.0469 Q230.5313,147.7188 231.1484,146.5703 Q231.7656,145.4219 232.8594,144.8047 Q233.9531,144.1875 235.1875,144.1875 Q235.9219,144.1875 236.5703,144.3516 Q237.2188,144.5156 237.7656,144.875 Z "/><text fill="#000000" font-family="sans-serif" font-size="12" lengthAdjust="spacingAndGlyphs" textLength="8" x="249" y="153.9102">B</text><line style="stroke: #A80036; stroke-width: 1.5;" x1="221" x2="259" y1="165" y2="165"/><line style="stroke: #A80036; stroke-width: 1.5;" x1="221" x2="259" y1="173" y2="173"/><!--class C--><rect fill="#FEFECE" filter="url(#f127suf7i37c3r)" height="48" id="C" style="stroke: #A80036; stroke-width: 1.5;" width="41" x="145.5" y="304"/><ellipse cx="160.5" cy="320" fill="#ADD1B2" rx="11" ry="11" style="stroke: #A80036; stroke-width: 1.0;"/><path d="M163.2656,315.875 Q163.4219,315.6563 163.6094,315.5469 Q163.7969,315.4375 164.0156,315.4375 Q164.3906,315.4375 164.625,315.6953 Q164.8594,315.9531 164.8594,316.5625 L164.8594,318.0156 Q164.8594,318.625 164.625,318.8906 Q164.3906,319.1563 164.0156,319.1563 Q163.6719,319.1563 163.4688,318.9531 Q163.2656,318.7656 163.1563,318.25 Q163.1094,317.8906 162.9219,317.7031 Q162.5938,317.3281 161.9844,317.1094 Q161.375,316.8906 160.75,316.8906 Q159.9844,316.8906 159.3516,317.2188 Q158.7188,317.5469 158.2266,318.2969 Q157.7344,319.0469 157.7344,320.0781 L157.7344,321.1719 Q157.7344,322.4063 158.625,323.2266 Q159.5156,324.0469 161.1094,324.0469 Q162.0469,324.0469 162.7031,323.7969 Q163.0938,323.6406 163.5156,323.2031 Q163.7813,322.9375 163.9297,322.8594 Q164.0781,322.7813 164.2813,322.7813 Q164.6094,322.7813 164.8672,323.0391 Q165.125,323.2969 165.125,323.6406 Q165.125,323.9844 164.7813,324.3906 Q164.2813,324.9688 163.4844,325.2969 Q162.4063,325.75 161.1094,325.75 Q159.5938,325.75 158.3906,325.125 Q157.4063,324.625 156.7188,323.5547 Q156.0313,322.4844 156.0313,321.2031 L156.0313,320.0469 Q156.0313,318.7188 156.6484,317.5703 Q157.2656,316.4219 158.3594,315.8047 Q159.4531,315.1875 160.6875,315.1875 Q161.4219,315.1875 162.0703,315.3516 Q162.7188,315.5156 163.2656,315.875 Z "/><text fill="#000000" font-family="sans-serif" font-size="12" lengthAdjust="spacingAndGlyphs" textLength="9" x="174.5" y="324.9102">C</text><line style="stroke: #A80036; stroke-width: 1.5;" x1="146.5" x2="185.5" y1="336" y2="336"/><line style="stroke: #A80036; stroke-width: 1.5;" x1="146.5" x2="185.5" y1="344" y2="344"/><path d="M316,70 L316,243.5156 L456,243.5156 L456,80 L446,70 L316,70 " fill="#FBFB77" filter="url(#f127suf7i37c3r)" style="stroke: #A80036; stroke-width: 1.0;"/><path d="M446,70 L446,80 L456,80 L446,70 " fill="#FBFB77" style="stroke: #A80036; stroke-width: 1.0;"/><text fill="#000000" font-family="sans-serif" font-size="13" lengthAdjust="spacingAndGlyphs" textLength="93" x="322" y="88.4951">A oA = new A();</text><text fill="#000000" font-family="sans-serif" font-size="13" lengthAdjust="spacingAndGlyphs" textLength="93" x="322" y="104.8467">B oB = new B();</text><text fill="#000000" font-family="sans-serif" font-size="13" lengthAdjust="spacingAndGlyphs" textLength="93" x="322" y="121.1982">C oC = new C();</text><text fill="#000000" font-family="sans-serif" font-size="13" lengthAdjust="spacingAndGlyphs" textLength="87" x="322" y="137.5498">X oX = new X();</text><text fill="#000000" font-family="sans-serif" font-size="13" lengthAdjust="spacingAndGlyphs" textLength="0" x="326" y="153.9014"/><text fill="#000000" font-family="sans-serif" font-size="13" lengthAdjust="spacingAndGlyphs" textLength="79" x="322" y="170.2529">oX.m(); // void</text><text fill="#000000" font-family="sans-serif" font-size="13" lengthAdjust="spacingAndGlyphs" textLength="82" x="322" y="186.6045">oX.m(oA); // A</text><text fill="#000000" font-family="sans-serif" font-size="13" lengthAdjust="spacingAndGlyphs" textLength="119" x="322" y="202.9561">oX.m(oA, oC); // void</text><text fill="#000000" font-family="sans-serif" font-size="13" lengthAdjust="spacingAndGlyphs" textLength="106" x="322" y="219.3076">oX.m(oC, oB); // A</text><text fill="#000000" font-family="sans-serif" font-size="13" lengthAdjust="spacingAndGlyphs" textLength="82" x="322" y="235.6592">oX.m(oB); // B</text><!--link X to GMN9--><path d="M90.4041,98.161 C101.4319,70.516 119.101,40.237 146.5,24.5 C189.664,-0.292 212.697,5.01 258.5,24.5 C282.147,34.562 303.529,51.398 321.733,69.752 " fill="none" id="X-GMN9" style="stroke: #A80036; stroke-width: 1.0; stroke-dasharray: 7.0,7.0;"/><!--link A to B--><!--link A to C--><!--
@startuml

package clases {
together {
class A
class B
class C
}
class X {
void m()
A m(A)
void m(A, C)
A m(C, B)
B m(B)
}
}
note right
A oA = new A();
B oB = new B();
C oC = new C();
X oX = new X();

oX.m(); // void
oX.m(oA); // A
oX.m(oA, oC); // void
oX.m(oC, oB); // A
oX.m(oB); // B
endnote
@enduml

PlantUML version 1.2019.05(Sat Apr 20 18:45:36 CEST 2019)
(GPL source distribution)
Java Runtime: OpenJDK Runtime Environment
JVM: OpenJDK 64-Bit Server VM
Java Version: 1.8.0_222-b10
Operating System: Windows 10
OS Version: 10.0
Default Encoding: windows-1252
Language: es
Country: ES
--></g></svg>